g aGenericFoodLump
v 0.1512154 0.001698524 -0.01859698
v 0.1333651 0.04112445 0.02040702
v 0.1596539 0.0428553 -0.06059761
v 0.1408543 -0.001998107 0.0325661
v 0.1460037 -0.05457081 -0.04239254
v 0.1110751 -0.09902626 -0.01402294
v 0.1614518 0.02084812 -0.07922939
v 0.1116169 0.1062782 -0.01127085
v 0.1005318 0.0876224 0.04733824
v 0.06541138 0.1341539 -0.003297441
v 0.06373806 0.1234188 0.04443272
v -0.02623724 0.1293593 0.00726025
v 0.007885866 0.1249339 0.05090062
v -0.05095816 0.1114132 0.04997527
v -0.1021884 0.09007244 0.008521228
v -0.1049117 0.07550647 0.05682674
v -0.1401424 0.04680125 0.0277859
v -0.05048349 0.07204477 0.09756639
v 0.008504367 0.09539444 0.08938202
v 0.007109141 0.0499513 0.1095433
v 0.06217503 0.09293002 0.08030106
v 0.06002705 0.02380639 0.1051946
v 0.1107011 0.009542475 0.07087969
v -0.09660747 0.01246718 0.09705816
v -0.02670232 0.005308851 0.1185379
v -0.1378218 -0.01532707 0.05928637
v -0.1055781 -0.04111718 0.07914077
v 0.09983655 -0.04217199 0.07052489
v 0.05769208 -0.06773675 0.09325125
v -0.007269839 -0.04928717 0.1111638
v -0.0009985132 -0.09534881 0.08083326
v -0.008463693 -0.123565 0.042769
v 0.05762496 -0.114321 0.03976279
v -0.1008507 -0.07947391 0.03235035
v -0.007432855 -0.1340412 -0.003096068
v -0.1342834 -0.04236377 0.02796809
v 0.06067912 -0.1311452 -0.007665314
v -0.1401424 0.04680125 0.0277859
v -0.1378218 -0.01532707 0.05928637
v -0.1434363 0.002086886 0.01063085
v -0.1342834 -0.04236377 0.02796809
v -0.108407 -0.04723028 -0.01508255
v -0.1008507 -0.07947391 0.03235035
v -0.1527617 0.00249922 -0.04443504
v -0.1331375 0.03807989 -0.01672709
v -0.007432855 -0.1340412 -0.003096068
v -0.03732234 -0.08871309 -0.06174831
v 0.02128196 -0.1163779 -0.06142228
v 0.06067912 -0.1311452 -0.007665314
v 0.06979843 -0.1172121 -0.06203119
v 0.02712177 -0.0572366 -0.1194992
v 0.1110751 -0.09902626 -0.01402294
v 0.1153183 -0.09383851 -0.06031473
v 0.1460037 -0.05457081 -0.04239254
v 0.120741 0.005754748 -0.1201512
v 0.1614518 0.02084812 -0.07922939
v -0.1146064 -0.02865604 -0.08526579
v -0.06818513 -0.03917537 -0.1165889
v -0.1259456 0.002106064 -0.1037393
v -0.1183366 0.03822852 -0.08948023
v 0.03056428 -0.001437139 -0.143731
v -0.07744349 0.0006533026 -0.1352494
v 0.06777991 0.05259791 -0.125876
v 0.1292034 0.04583274 -0.1175909
v -0.07554962 0.04860402 -0.112571
v 0.07521632 0.1104638 -0.0695587
v -0.03999293 0.1131584 -0.03346501
v 0.1596539 0.0428553 -0.06059761
v 0.129611 0.08681691 -0.07601701
v 0.1116169 0.1062782 -0.01127085
v 0.06541138 0.1341539 -0.003297441
v -0.02623724 0.1293593 0.00726025
v -0.1021884 0.09007244 0.008521228
vt 0.2396452 0.6391788
vt 0.2373778 0.6457837
vt 0.2401381 0.6456851
vt 0.2388565 0.6384887
vt 0.2383636 0.6303065
vt 0.2331388 0.6228143
vt 0.2400395 0.6422348
vt 0.2332374 0.656332
vt 0.232153 0.653966
vt 0.2257452 0.6609653
vt 0.2257452 0.6601766
vt 0.2105637 0.6604724
vt 0.2159857 0.660571
vt 0.2057332 0.658205
vt 0.1978467 0.6538674
vt 0.1961708 0.6519944
vt 0.190946 0.6467695
vt 0.2050431 0.6518958
vt 0.2158871 0.6560362
vt 0.2155913 0.647854
vt 0.2256466 0.6554447
vt 0.2254495 0.6430235
vt 0.2342232 0.6403617
vt 0.1965651 0.6409533
vt 0.2091835 0.6395731
vt 0.1903545 0.6360242
vt 0.1954807 0.6312923
vt 0.2323502 0.6311937
vt 0.2249566 0.6262646
vt 0.2128311 0.6293207
vt 0.2143098 0.6214342
vt 0.2132254 0.6173923
vt 0.2246608 0.6190682
vt 0.197551 0.6251802
vt 0.2137183 0.6168008
vt 0.1919318 0.631588
vt 0.2249566 0.6173923
vt 0.190946 0.6467695
vt 0.1903545 0.6360242
vt 0.190946 0.6391788
vt 0.1919318 0.631588
vt 0.1973538 0.6311937
vt 0.197551 0.6251802
vt 0.1910446 0.639376
vt 0.1934105 0.6450937
vt 0.2137183 0.6168008
vt 0.2094793 0.6252788
vt 0.2186474 0.6209412
vt 0.2249566 0.6173923
vt 0.2261395 0.6208427
vt 0.2195346 0.6307008
vt 0.2331388 0.6228143
vt 0.2332374 0.6243916
vt 0.2383636 0.6303065
vt 0.233336 0.6399675
vt 0.2400395 0.6422348
vt 0.1980439 0.6347427
vt 0.2055361 0.6333625
vt 0.1966637 0.6394745
vt 0.197551 0.6448965
vt 0.2201261 0.6389816
vt 0.2044517 0.6392773
vt 0.2255481 0.6468682
vt 0.2346175 0.6458823
vt 0.2043531 0.6463752
vt 0.2269282 0.6561348
vt 0.2087892 0.657022
vt 0.2401381 0.6456851
vt 0.235209 0.6523887
vt 0.2332374 0.656332
vt 0.2257452 0.6609653
vt 0.2105637 0.6604724
vt 0.1978467 0.6538674
vn 0.9784123 -0.02728765 0.2048531
vn 0.8778869 0.3052193 0.3689929
vn 0.9474814 0.3052193 -0.0954996
vn 0.9010851 -0.05821854 0.4297165
vn 0.9088178 -0.406191 -0.0951797
vn 0.6923016 -0.6923016 0.2035606
vn 0.9397486 -0.04275309 -0.3391823
vn 0.6845689 0.7227862 0.09458047
vn 0.7077671 0.4985373 0.500526
vn 0.2360711 0.9702333 -0.05401691
vn 0.321131 0.8542425 0.4088332
vn -0.2510903 0.9625006 -0.1026953
vn -0.05003955 0.9006388 0.4316779
vn -0.3593484 0.8465098 0.3927976
vn -0.6222609 0.7769153 -0.09588606
vn -0.6299936 0.6145281 0.4748298
vn -0.9083715 0.3825465 0.1688767
vn -0.2820212 0.4985373 0.8197101
vn 0.01955493 0.6145281 0.7886525
vn 0.07368398 0.2742884 0.9588203
vn 0.3829928 0.5294682 0.7569544
vn 0.3907255 0.1041686 0.9145942
vn 0.7000343 0.06550499 0.7110985
vn -0.5217355 0.08870316 0.8484833
vn -0.1041686 -0.01182221 0.9944894
vn -0.8697079 -0.1510112 0.4698976
vn -0.5294682 -0.4680527 0.7075239
vn 0.6845689 -0.3443292 0.6424974
vn 0.3907255 -0.46032 0.7971443
vn -0.05777227 -0.3443292 0.9370698
vn -0.08870316 -0.7000343 0.7085786
vn -0.1582976 -0.8856196 0.4366002
vn 0.3829928 -0.8005597 0.4608912
vn -0.6145281 -0.7773615 0.1344036
vn -0.258823 -0.9629468 -0.07578944
vn -0.8619752 -0.4989836 -0.08952183
vn 0.2824674 -0.9552141 0.08819426
vn -0.9083715 0.3825465 0.1688767
vn -0.8697079 -0.1510112 0.4698976
vn -0.9934314 -0.1123476 -0.02172485
vn -0.8619752 -0.4989836 -0.08952183
vn -0.6918554 -0.6845689 -0.2295683
vn -0.6145281 -0.7773615 0.1344036
vn -0.9856987 -0.08914942 -0.1430052
vn -0.8774406 0.4676065 -0.106968
vn -0.258823 -0.9629468 -0.07578944
vn -0.4289429 -0.7773615 -0.4601273
vn -0.1350995 -0.846956 -0.5142117
vn 0.2824674 -0.9552141 0.08819426
vn 0.2592693 -0.8314906 -0.4913276
vn 0.04275309 -0.5685781 -0.8215176
vn 0.6923016 -0.6923016 0.2035606
vn 0.6149744 -0.6613708 -0.4294127
vn 0.9088178 -0.406191 -0.0951797
vn 0.4912509 -0.2206057 -0.8426184
vn 0.9397486 -0.04275309 -0.3391823
vn -0.6377263 -0.6613708 -0.394834
vn -0.3361502 -0.6149744 -0.7133089
vn -0.7459844 -0.06595126 -0.6626898
vn -0.6609245 0.5681318 -0.4903111
vn 0.05048582 -0.05821854 -0.9970264
vn -0.3361502 -0.04275309 -0.9408375
vn 0.0814167 0.4753392 -0.8760274
vn 0.5221817 0.3284175 -0.787063
vn -0.312952 0.6067954 -0.7306575
vn 0.1355457 0.8619752 -0.4884937
vn -0.3052193 0.8619752 -0.4047714
vn 0.9474814 0.3052193 -0.0954996
vn 0.5995089 0.7073208 -0.3745481
vn 0.6845689 0.7227862 0.09458047
vn 0.2360711 0.9702333 -0.05401691
vn -0.2510903 0.9625006 -0.1026953
vn -0.6222609 0.7769153 -0.09588606
g aGenericFoodLump_0
f 3/3/3 2/2/2 1/1/1
f 2/2/2 4/4/4 1/1/1
f 4/4/4 5/5/5 1/1/1
f 5/5/5 4/4/4 6/6/6
f 5/5/5 7/7/7 1/1/1
f 7/7/7 3/3/3 1/1/1
f 3/3/3 8/8/8 2/2/2
f 8/8/8 9/9/9 2/2/2
f 8/8/8 10/10/10 9/9/9
f 10/10/10 11/11/11 9/9/9
f 10/10/10 12/12/12 11/11/11
f 12/12/12 13/13/13 11/11/11
f 14/14/14 13/13/13 12/12/12
f 12/12/12 15/15/15 14/14/14
f 15/15/15 16/16/16 14/14/14
f 16/16/16 15/15/15 17/17/17
f 18/18/18 14/14/14 16/16/16
f 14/14/14 18/18/18 19/19/19
f 13/13/13 14/14/14 19/19/19
f 20/20/20 19/19/19 18/18/18
f 21/21/21 9/9/9 11/11/11
f 13/13/13 19/19/19 21/21/21
f 11/11/11 13/13/13 21/21/21
f 19/19/19 20/20/20 22/22/22
f 21/21/21 19/19/19 22/22/22
f 9/9/9 21/21/21 22/22/22
f 23/23/23 9/9/9 22/22/22
f 2/2/2 9/9/9 23/23/23
f 4/4/4 2/2/2 23/23/23
f 24/24/24 18/18/18 16/16/16
f 25/25/25 18/18/18 24/24/24
f 25/25/25 22/22/22 20/20/20
f 18/18/18 25/25/25 20/20/20
f 16/16/16 17/17/17 26/26/26
f 24/24/24 16/16/16 26/26/26
f 27/27/27 24/24/24 26/26/26
f 23/23/23 22/22/22 28/28/28
f 28/28/28 4/4/4 23/23/23
f 22/22/22 29/29/29 28/28/28
f 22/22/22 25/25/25 30/30/30
f 29/29/29 22/22/22 30/30/30
f 24/24/24 27/27/27 30/30/30
f 25/25/25 24/24/24 30/30/30
f 27/27/27 31/31/31 30/30/30
f 31/31/31 29/29/29 30/30/30
f 29/29/29 31/31/31 32/32/32
f 33/33/33 29/29/29 32/32/32
f 28/28/28 29/29/29 33/33/33
f 6/6/6 4/4/4 28/28/28
f 6/6/6 28/28/28 33/33/33
f 31/31/31 27/27/27 34/34/34
f 32/32/32 31/31/31 34/34/34
f 34/34/34 35/35/35 32/32/32
f 33/33/33 32/32/32 35/35/35
f 27/27/27 26/26/26 36/36/36
f 34/34/34 27/27/27 36/36/36
f 37/37/37 33/33/33 35/35/35
f 33/33/33 37/37/37 6/6/6
f 40/40/40 39/39/39 38/38/38
f 40/40/40 41/41/41 39/39/39
f 40/40/40 42/42/42 41/41/41
f 42/42/42 43/43/43 41/41/41
f 40/40/40 44/44/44 42/42/42
f 40/40/40 45/45/45 44/44/44
f 40/40/40 38/38/38 45/45/45
f 46/46/46 43/43/43 42/42/42
f 47/47/47 46/46/46 42/42/42
f 47/47/47 48/48/48 46/46/46
f 49/49/49 46/46/46 48/48/48
f 50/50/50 49/49/49 48/48/48
f 51/51/51 50/50/50 48/48/48
f 48/48/48 47/47/47 51/51/51
f 52/52/52 49/49/49 50/50/50
f 53/53/53 52/52/52 50/50/50
f 53/53/53 50/50/50 51/51/51
f 52/52/52 53/53/53 54/54/54
f 55/55/55 53/53/53 51/51/51
f 53/53/53 55/55/55 54/54/54
f 56/56/56 54/54/54 55/55/55
f 57/57/57 47/47/47 42/42/42
f 42/42/42 44/44/44 57/57/57
f 58/58/58 47/47/47 57/57/57
f 47/47/47 58/58/58 51/51/51
f 44/44/44 59/59/59 57/57/57
f 60/60/60 59/59/59 44/44/44
f 51/51/51 58/58/58 61/61/61
f 51/51/51 61/61/61 55/55/55
f 58/58/58 62/62/62 61/61/61
f 57/57/57 59/59/59 62/62/62
f 58/58/58 57/57/57 62/62/62
f 55/55/55 61/61/61 63/63/63
f 64/64/64 55/55/55 63/63/63
f 64/64/64 56/56/56 55/55/55
f 61/61/61 62/62/62 65/65/65
f 63/63/63 61/61/61 65/65/65
f 59/59/59 60/60/60 65/65/65
f 62/62/62 59/59/59 65/65/65
f 65/65/65 66/66/66 63/63/63
f 64/64/64 63/63/63 66/66/66
f 60/60/60 67/67/67 65/65/65
f 67/67/67 66/66/66 65/65/65
f 56/56/56 64/64/64 68/68/68
f 64/64/64 69/69/69 68/68/68
f 69/69/69 64/64/64 66/66/66
f 69/69/69 66/66/66 70/70/70
f 70/70/70 68/68/68 69/69/69
f 66/66/66 71/71/71 70/70/70
f 66/66/66 67/67/67 71/71/71
f 67/67/67 72/72/72 71/71/71
f 67/67/67 60/60/60 73/73/73
f 72/72/72 67/67/67 73/73/73
f 60/60/60 45/45/45 73/73/73
f 45/45/45 60/60/60 44/44/44
f 45/45/45 38/38/38 73/73/73
