g Alien1Eyestalk_mesh
v 0.1375 0 0
v -0.1375 0 0
v 0.1379911 -0.055 0
v -0.1379911 -0.055 0
v 0.1384821 -0.11 0
v -0.1384821 -0.11 0
v 0.1389732 -0.165 0
v -0.1389732 -0.165 0
v 0.1394643 -0.22 0
v -0.1394643 -0.22 0
v 0.1399553 -0.275 0
v -0.1399553 -0.275 0
v 0.1404464 -0.33 0
v -0.1404464 -0.33 0
v 0.1409375 -0.385 0
v -0.1409375 -0.385 0
v 0.1414285 -0.44 0
v -0.1414285 -0.44 0
v 0.1419196 -0.495 0
v -0.1419196 -0.495 0
v 0.1424107 -0.55 0
v -0.1424107 -0.55 0
v 0.1429017 -0.605 0
v -0.1429017 -0.605 0
v 0.1433928 -0.66 0
v -0.1433928 -0.66 0
v 0.1438839 -0.715 0
v -0.1438839 -0.715 0
v 0.144375 -0.77 0
v -0.144375 -0.77 0
v 0.144866 -0.825 0
v -0.144866 -0.825 0
vt 0.6237793 0.4123535
vt 0.651123 0.4123535
vt 0.6237793 0.4071777
vt 0.651123 0.4071777
vt 0.6237793 0.4020019
vt 0.651123 0.4020019
vt 0.6237793 0.3968262
vt 0.651123 0.3968262
vt 0.6237793 0.3916504
vt 0.651123 0.3916504
vt 0.6237793 0.3864746
vt 0.651123 0.3864746
vt 0.6237793 0.3812988
vt 0.651123 0.3812988
vt 0.6237793 0.376123
vt 0.651123 0.376123
vt 0.6237793 0.3709473
vt 0.651123 0.3709473
vt 0.6237793 0.3657715
vt 0.651123 0.3657715
vt 0.6237793 0.3605957
vt 0.651123 0.3605957
vt 0.6237793 0.3554199
vt 0.651123 0.3554199
vt 0.6237793 0.3502441
vt 0.651123 0.3502441
vt 0.6237793 0.3450684
vt 0.651123 0.3450684
vt 0.6237793 0.3398926
vt 0.651123 0.3398926
vt 0.6237793 0.3347168
vt 0.651123 0.3347168
vn 0 0 -0.9999999
vn 0 0 -1
vn 0 0 -0.9999999
vn 0 0 -1
vn 0 0 -1
vn 0 0 -1
vn 0 0 -0.9999999
vn 0 0 -0.9999999
vn 0 0 -1
vn 0 0 -1
vn 0 0 -1
vn 0 0 -1
vn 0 0 -1
vn 0 0 -1
vn 0 0 -1
vn 0 0 -1
vn 0 0 -0.9999999
vn 0 0 -1
vn 0 0 -0.9999999
vn 0 0 -1
vn 0 0 -0.9999999
vn 0 0 -1
vn 0 0 -1
vn 0 0 -1
vn 0 0 -1
vn 0 0 -1
vn 0 0 -0.9999999
vn 0 0 -1
vn 0 0 -1
vn 0 0 -1
vn 0 0 -1
vn 0 0 -1
g Alien1Eyestalk_mesh_0
f 3/3/3 2/2/2 1/1/1
f 4/4/4 2/2/2 3/3/3
f 5/5/5 4/4/4 3/3/3
f 6/6/6 4/4/4 5/5/5
f 7/7/7 6/6/6 5/5/5
f 8/8/8 6/6/6 7/7/7
f 9/9/9 8/8/8 7/7/7
f 10/10/10 8/8/8 9/9/9
f 11/11/11 10/10/10 9/9/9
f 12/12/12 10/10/10 11/11/11
f 13/13/13 12/12/12 11/11/11
f 14/14/14 12/12/12 13/13/13
f 15/15/15 14/14/14 13/13/13
f 16/16/16 14/14/14 15/15/15
f 17/17/17 16/16/16 15/15/15
f 18/18/18 16/16/16 17/17/17
f 19/19/19 18/18/18 17/17/17
f 20/20/20 18/18/18 19/19/19
f 21/21/21 20/20/20 19/19/19
f 22/22/22 20/20/20 21/21/21
f 23/23/23 22/22/22 21/21/21
f 24/24/24 22/22/22 23/23/23
f 25/25/25 24/24/24 23/23/23
f 26/26/26 24/24/24 25/25/25
f 27/27/27 26/26/26 25/25/25
f 28/28/28 26/26/26 27/27/27
f 29/29/29 28/28/28 27/27/27
f 30/30/30 28/28/28 29/29/29
f 31/31/31 30/30/30 29/29/29
f 32/32/32 30/30/30 31/31/31
