g Alien1Leg_mesh
v 0.15 0 0
v -0.15 0 0
v 0.15 -0.1666667 0
v -0.15 -0.1666667 0
v 0.146 -0.3 0
v -0.146 -0.3 0
v 0.1406 -0.4 0
v -0.1406 -0.4 0
v 0.1358 -0.4666667 0
v -0.1358 -0.4666667 0
v 0.133 -0.5 0
v -0.133 -0.5 0
v 0.133 -0.5 0
v -0.133 -0.5 0
v 0.13 -0.5333334 0
v -0.13 -0.5333334 0
v 0.1236 -0.6 0
v -0.1236 -0.6 0
v 0.1128 -0.7 0
v -0.1128 -0.7 0
v 0.096 -0.8333334 0
v -0.096 -0.8333334 0
v 0.071 -1 0
v -0.071 -1 0
vt 0.8591309 0.09008789
vt 0.8742676 0.09008789
vt 0.8591309 0.08032227
vt 0.8742676 0.08032227
vt 0.8591309 0.07250977
vt 0.8742676 0.07250977
vt 0.8591309 0.06665039
vt 0.8742676 0.06665039
vt 0.8591309 0.06274414
vt 0.8742676 0.06274414
vt 0.8591309 0.06079102
vt 0.8742676 0.06079102
vt 0.8591309 0.06079102
vt 0.8742676 0.06079102
vt 0.8591309 0.05883789
vt 0.8742676 0.05883789
vt 0.8591309 0.05493164
vt 0.8742676 0.05493164
vt 0.8591309 0.04907226
vt 0.8742676 0.04907226
vt 0.8591309 0.04125976
vt 0.8742676 0.04125976
vt 0.8591309 0.03149414
vt 0.8742676 0.03149414
vn 0 0 -1
vn 0 0 -1
vn 0 0 -0.9999999
vn 0 0 -1
vn 0 0 -1
vn 0 0 -1
vn 0 0 -1
vn 0 0 -1
vn 0 0 -1
vn 0 0 -1
vn 0 0 -1
vn 0 0 -1
vn 0 0 -1
vn 0 0 -1
vn 0 0 -1
vn 0 0 -1
vn 0 0 -1
vn 0 0 -1
vn 0 0 -0.9999999
vn 0 0 -1
vn 0 0 -0.9999999
vn 0 0 -1
vn 0 0 -1
vn 0 0 -1
g Alien1Leg_mesh_0
f 3/3/3 2/2/2 1/1/1
f 4/4/4 2/2/2 3/3/3
f 5/5/5 4/4/4 3/3/3
f 6/6/6 4/4/4 5/5/5
f 7/7/7 6/6/6 5/5/5
f 8/8/8 6/6/6 7/7/7
f 9/9/9 8/8/8 7/7/7
f 10/10/10 8/8/8 9/9/9
f 11/11/11 10/10/10 9/9/9
f 12/12/12 10/10/10 11/11/11
f 13/13/13 12/12/12 11/11/11
f 14/14/14 12/12/12 13/13/13
f 15/15/15 14/14/14 13/13/13
f 16/16/16 14/14/14 15/15/15
f 17/17/17 16/16/16 15/15/15
f 18/18/18 16/16/16 17/17/17
f 19/19/19 18/18/18 17/17/17
f 20/20/20 18/18/18 19/19/19
f 21/21/21 20/20/20 19/19/19
f 22/22/22 20/20/20 21/21/21
f 23/23/23 22/22/22 21/21/21
f 24/24/24 22/22/22 23/23/23
