g BackRoomBillboardPillars-ref
v -2.680761 -6.125807 1.314319E-05
v -2.657753 -6.64957 1.314319E-05
v -4.100809 -6.64957 1.314319E-05
v -4.086598 -6.129304 1.314319E-05
v -2.751702 -5.577007 1.314319E-05
v -4.001898 -5.531893 1.314319E-05
v -2.665648 -5.035086 1.314319E-05
v -4.080508 -5.045123 1.314319E-05
v -4.095283 -4.650271 1.314319E-05
v -2.638355 -4.650271 1.314319E-05
v -2.67749 -4.172072 1.314319E-05
v -4.068666 -4.177147 1.314319E-05
v -2.749671 -3.799099 1.314319E-05
v -4.013966 -3.744061 1.314319E-05
v -2.683581 -3.452631 1.314319E-05
v -4.0725 -3.399961 1.314319E-05
v -2.641626 -2.892665 1.314319E-05
v -4.111974 -2.892665 1.314319E-05
v -2.675912 -2.435444 1.314319E-05
v -4.095283 -2.407925 1.314319E-05
v -2.753055 -1.999425 1.314319E-05
v -4.020733 -1.941568 1.314319E-05
v -2.671288 -1.56634 1.314319E-05
v -4.087388 -1.56634 1.314319E-05
v -4.115132 -1.075961 1.314319E-05
v -2.64343 -1.075961 1.314319E-05
v -2.660799 -0.6725366 1.314319E-05
v -4.097764 -0.6725366 1.314319E-05
v -3.37539 0.03145324 1.314319E-05
v -2.742566 -0.2083229 1.314319E-05
v -3.645617 0.04904735 1.314319E-05
v -3.112945 0.04904735 1.314319E-05
v -4.042838 -0.1923077 1.314319E-05
v -2.845199 0.03686681 1.314319E-05
v -3.913476 0.03686681 1.314319E-05
v -2.660799 -0.08178063 1.314319E-05
v -2.682566 -0.000915405 1.314319E-05
v -2.65922 -0.02617874 1.314319E-05
v -2.670611 -0.1465179 1.314319E-05
v -2.693844 -0.1839618 1.314319E-05
v -4.097764 -0.08178063 1.314319E-05
v -4.076109 -0.000915405 1.314319E-05
v -4.099455 -0.02617874 1.314319E-05
v -4.098102 -0.1298261 1.314319E-05
v -4.084004 -0.1705406 1.314319E-05
v -2.765571 -5.054356 7.59376
v -2.748315 -5.447178 7.59376
v -3.830607 -5.447178 7.59376
v -3.819949 -5.056978 7.59376
v -2.818776 -4.642755 7.59376
v -3.756424 -4.60892 7.59376
v -2.754236 -4.236314 7.59376
v -3.815381 -4.243843 7.59376
v -3.826462 -3.947703 7.59376
v -2.733766 -3.947703 7.59376
v -2.763118 -3.589054 7.59376
v -3.806499 -3.592861 7.59376
v -2.817254 -3.309325 7.59376
v -3.765475 -3.268046 7.59376
v -2.767686 -3.049473 7.59376
v -3.809375 -3.009971 7.59376
v -2.736219 -2.629498 7.59376
v -3.838981 -2.629498 7.59376
v -2.761934 -2.286583 7.59376
v -3.826462 -2.265944 7.59376
v -2.819791 -1.959569 7.59376
v -3.77055 -1.916176 7.59376
v -2.758466 -1.634755 7.59376
v -3.820541 -1.634755 7.59376
v -3.841349 -1.26697 7.59376
v -2.737573 -1.26697 7.59376
v -2.750599 -0.9644024 7.59376
v -3.828323 -0.9644024 7.59376
v -3.286543 -0.43641 7.59376
v -2.811925 -0.6162421 7.59376
v -3.489213 -0.4232145 7.59376
v -3.089709 -0.4232145 7.59376
v -3.787129 -0.6042308 7.59376
v -2.888899 -0.4323499 7.59376
v -3.690108 -0.4323499 7.59376
v -2.750599 -0.5213355 7.59376
v -2.766924 -0.4606865 7.59376
v -2.749415 -0.479634 7.59376
v -2.757958 -0.5698884 7.59376
v -2.775383 -0.5979713 7.59376
v -3.828323 -0.5213355 7.59376
v -3.812082 -0.4606865 7.59376
v -3.829592 -0.479634 7.59376
v -3.828577 -0.5573695 7.59376
v -3.818003 -0.5879055 7.59376
v 2.680761 -6.125807 1.314319E-05
v 2.657753 -6.64957 1.314319E-05
v 4.100809 -6.64957 1.314319E-05
v 4.086598 -6.129304 1.314319E-05
v 2.751702 -5.577007 1.314319E-05
v 4.001898 -5.531893 1.314319E-05
v 2.665648 -5.035086 1.314319E-05
v 4.080508 -5.045123 1.314319E-05
v 4.095283 -4.650271 1.314319E-05
v 2.638355 -4.650271 1.314319E-05
v 2.67749 -4.172072 1.314319E-05
v 4.068666 -4.177147 1.314319E-05
v 2.749671 -3.799099 1.314319E-05
v 4.013966 -3.744061 1.314319E-05
v 2.683581 -3.452631 1.314319E-05
v 4.0725 -3.399961 1.314319E-05
v 2.641626 -2.892665 1.314319E-05
v 4.111974 -2.892665 1.314319E-05
v 2.675912 -2.435444 1.314319E-05
v 4.095283 -2.407925 1.314319E-05
v 2.753055 -1.999425 1.314319E-05
v 4.020733 -1.941568 1.314319E-05
v 2.671288 -1.56634 1.314319E-05
v 4.087388 -1.56634 1.314319E-05
v 4.115132 -1.075961 1.314319E-05
v 2.64343 -1.075961 1.314319E-05
v 2.660799 -0.6725366 1.314319E-05
v 4.097764 -0.6725366 1.314319E-05
v 3.37539 0.03145324 1.314319E-05
v 2.742566 -0.2083229 1.314319E-05
v 3.645617 0.04904735 1.314319E-05
v 3.112945 0.04904735 1.314319E-05
v 4.042838 -0.1923077 1.314319E-05
v 2.845199 0.03686681 1.314319E-05
v 3.913476 0.03686681 1.314319E-05
v 2.660799 -0.08178063 1.314319E-05
v 2.682566 -0.000915405 1.314319E-05
v 2.65922 -0.02617874 1.314319E-05
v 2.670611 -0.1465179 1.314319E-05
v 2.693844 -0.1839618 1.314319E-05
v 4.097764 -0.08178063 1.314319E-05
v 4.076109 -0.000915405 1.314319E-05
v 4.099455 -0.02617874 1.314319E-05
v 4.098102 -0.1298261 1.314319E-05
v 4.084004 -0.1705406 1.314319E-05
v 2.765571 -5.054356 7.59376
v 2.748315 -5.447178 7.59376
v 3.830607 -5.447178 7.59376
v 3.819949 -5.056978 7.59376
v 2.818776 -4.642755 7.59376
v 3.756424 -4.60892 7.59376
v 2.754236 -4.236314 7.59376
v 3.815381 -4.243843 7.59376
v 3.826462 -3.947703 7.59376
v 2.733766 -3.947703 7.59376
v 2.763118 -3.589054 7.59376
v 3.806499 -3.592861 7.59376
v 2.817254 -3.309325 7.59376
v 3.765475 -3.268046 7.59376
v 2.767686 -3.049473 7.59376
v 3.809375 -3.009971 7.59376
v 2.736219 -2.629498 7.59376
v 3.838981 -2.629498 7.59376
v 2.761934 -2.286583 7.59376
v 3.826462 -2.265944 7.59376
v 2.819791 -1.959569 7.59376
v 3.77055 -1.916176 7.59376
v 2.758466 -1.634755 7.59376
v 3.820541 -1.634755 7.59376
v 3.841349 -1.26697 7.59376
v 2.737573 -1.26697 7.59376
v 2.750599 -0.9644024 7.59376
v 3.828323 -0.9644024 7.59376
v 3.286543 -0.43641 7.59376
v 2.811925 -0.6162421 7.59376
v 3.489213 -0.4232145 7.59376
v 3.089709 -0.4232145 7.59376
v 3.787129 -0.6042308 7.59376
v 2.888899 -0.4323499 7.59376
v 3.690108 -0.4323499 7.59376
v 2.750599 -0.5213355 7.59376
v 2.766924 -0.4606865 7.59376
v 2.749415 -0.479634 7.59376
v 2.757958 -0.5698884 7.59376
v 2.775383 -0.5979713 7.59376
v 3.828323 -0.5213355 7.59376
v 3.812082 -0.4606865 7.59376
v 3.829592 -0.479634 7.59376
v 3.828577 -0.5573695 7.59376
v 3.818003 -0.5879055 7.59376
vt 0.9260337 0.9842561
vt 0.9966062 0.9869025
vt 0.9966062 0.7928281
vt 0.9269159 0.7945924
vt 0.8519326 0.9745523
vt 0.8457575 0.8060604
vt 0.7787136 0.9860204
vt 0.7804779 0.7954746
vt 0.7275485 0.7937102
vt 0.7275485 0.989549
vt 0.6631511 0.9842561
vt 0.6631511 0.7972389
vt 0.6128682 0.9745523
vt 0.6049287 0.8042961
vt 0.5661139 0.9833739
vt 0.5590566 0.7963567
vt 0.4902484 0.989549
vt 0.4902484 0.7910638
vt 0.4284974 0.9842561
vt 0.4249688 0.7937102
vt 0.3702751 0.9745523
vt 0.3623357 0.803414
vt 0.3120528 0.9851382
vt 0.3120528 0.7945924
vt 0.245891 0.7910638
vt 0.245891 0.9886668
vt 0.1911973 0.9869025
vt 0.1911973 0.7928281
vt 0.09680658 0.8898653
vt 0.1285642 0.9754345
vt 0.09416011 0.8536969
vt 0.09416011 0.9260337
vt 0.1267999 0.8007675
vt 0.09592442 0.96132
vt 0.09592442 0.8175285
vt 0.1118032 0.9869025
vt 0.1012174 0.9833739
vt 0.1038638 0.9869025
vt 0.1206248 0.9851382
vt 0.1259177 0.9824917
vt 0.1118032 0.7928281
vt 0.1012174 0.7954746
vt 0.1038638 0.7928281
vt 0.1179783 0.7928281
vt 0.1241534 0.7945924
vt 0.9260337 0.9842561
vt 0.9966062 0.9869025
vt 0.9966062 0.7928281
vt 0.9269159 0.7945924
vt 0.8519326 0.9745523
vt 0.8457575 0.8060604
vt 0.7787136 0.9860204
vt 0.7804779 0.7954746
vt 0.7275485 0.7937102
vt 0.7275485 0.989549
vt 0.6631511 0.9842561
vt 0.6631511 0.7972389
vt 0.6128682 0.9745523
vt 0.6049287 0.8042961
vt 0.5661139 0.9833739
vt 0.5590566 0.7963567
vt 0.4902484 0.989549
vt 0.4902484 0.7910638
vt 0.4284974 0.9842561
vt 0.4249688 0.7937102
vt 0.3702751 0.9745523
vt 0.3623357 0.803414
vt 0.3120528 0.9851382
vt 0.3120528 0.7945924
vt 0.245891 0.7910638
vt 0.245891 0.9886668
vt 0.1911973 0.9869025
vt 0.1911973 0.7928281
vt 0.09680658 0.8898653
vt 0.1285642 0.9754345
vt 0.09416011 0.8536969
vt 0.09416011 0.9260337
vt 0.1267999 0.8007675
vt 0.09592442 0.96132
vt 0.09592442 0.8175285
vt 0.1118032 0.9869025
vt 0.1012174 0.9833739
vt 0.1038638 0.9869025
vt 0.1206248 0.9851382
vt 0.1259177 0.9824917
vt 0.1118032 0.7928281
vt 0.1012174 0.7954746
vt 0.1038638 0.7928281
vt 0.1179783 0.7928281
vt 0.1241534 0.7945924
vt 0.9260337 0.9842561
vt 0.9966062 0.9869025
vt 0.9966062 0.7928281
vt 0.9269159 0.7945924
vt 0.8519326 0.9745523
vt 0.8457575 0.8060604
vt 0.7787136 0.9860204
vt 0.7804779 0.7954746
vt 0.7275485 0.7937102
vt 0.7275485 0.989549
vt 0.6631511 0.9842561
vt 0.6631511 0.7972389
vt 0.6128682 0.9745523
vt 0.6049287 0.8042961
vt 0.5661139 0.9833739
vt 0.5590566 0.7963567
vt 0.4902484 0.989549
vt 0.4902484 0.7910638
vt 0.4284974 0.9842561
vt 0.4249688 0.7937102
vt 0.3702751 0.9745523
vt 0.3623357 0.803414
vt 0.3120528 0.9851382
vt 0.3120528 0.7945924
vt 0.245891 0.7910638
vt 0.245891 0.9886668
vt 0.1911973 0.9869025
vt 0.1911973 0.7928281
vt 0.09680658 0.8898653
vt 0.1285642 0.9754345
vt 0.09416011 0.8536969
vt 0.09416011 0.9260337
vt 0.1267999 0.8007675
vt 0.09592442 0.96132
vt 0.09592442 0.8175285
vt 0.1118032 0.9869025
vt 0.1012174 0.9833739
vt 0.1038638 0.9869025
vt 0.1206248 0.9851382
vt 0.1259177 0.9824917
vt 0.1118032 0.7928281
vt 0.1012174 0.7954746
vt 0.1038638 0.7928281
vt 0.1179783 0.7928281
vt 0.1241534 0.7945924
vt 0.9260337 0.9842561
vt 0.9966062 0.9869025
vt 0.9966062 0.7928281
vt 0.9269159 0.7945924
vt 0.8519326 0.9745523
vt 0.8457575 0.8060604
vt 0.7787136 0.9860204
vt 0.7804779 0.7954746
vt 0.7275485 0.7937102
vt 0.7275485 0.989549
vt 0.6631511 0.9842561
vt 0.6631511 0.7972389
vt 0.6128682 0.9745523
vt 0.6049287 0.8042961
vt 0.5661139 0.9833739
vt 0.5590566 0.7963567
vt 0.4902484 0.989549
vt 0.4902484 0.7910638
vt 0.4284974 0.9842561
vt 0.4249688 0.7937102
vt 0.3702751 0.9745523
vt 0.3623357 0.803414
vt 0.3120528 0.9851382
vt 0.3120528 0.7945924
vt 0.245891 0.7910638
vt 0.245891 0.9886668
vt 0.1911973 0.9869025
vt 0.1911973 0.7928281
vt 0.09680658 0.8898653
vt 0.1285642 0.9754345
vt 0.09416011 0.8536969
vt 0.09416011 0.9260337
vt 0.1267999 0.8007675
vt 0.09592442 0.96132
vt 0.09592442 0.8175285
vt 0.1118032 0.9869025
vt 0.1012174 0.9833739
vt 0.1038638 0.9869025
vt 0.1206248 0.9851382
vt 0.1259177 0.9824917
vt 0.1118032 0.7928281
vt 0.1012174 0.7954746
vt 0.1038638 0.7928281
vt 0.1179783 0.7928281
vt 0.1241534 0.7945924
vn 0 0 -1
vn 0 0 -1
vn 0 0 -1
vn 0 0 -1
vn 0 0 -1
vn 0 0 -1
vn 0 0 -1
vn 0 0 -1
vn 0 0 -1
vn 0 0 -1
vn 0 0 -1
vn 0 0 -1
vn 0 0 -1
vn 0 0 -1
vn 0 0 -1
vn 0 0 -1
vn 0 0 -1
vn 0 0 -1
vn 0 0 -1
vn 0 0 -1
vn 0 0 -1
vn 0 0 -1
vn 0 0 -1
vn 0 0 -1
vn 0 0 -1
vn 0 0 -1
vn 0 0 -1
vn 0 0 -1
vn 0 0 -1
vn 0 0 -1
vn 0 0 -1
vn 0 0 -1
vn 0 0 -1
vn 0 0 -1
vn 0 0 -1
vn 0 0 -1
vn 0 0 -1
vn 0 0 -1
vn 0 0 -1
vn 0 0 -1
vn 0 0 -1
vn 0 0 -1
vn 0 0 -1
vn 0 0 -1
vn 0 0 -1
vn 0 0 -1
vn 0 0 -1
vn 0 0 -1
vn 0 0 -1
vn 0 0 -1
vn 0 0 -1
vn 0 0 -1
vn 0 0 -1
vn 0 0 -1
vn 0 0 -1
vn 0 0 -1
vn 0 0 -1
vn 0 0 -1
vn 0 0 -1
vn 0 0 -1
vn 0 0 -1
vn 0 0 -1
vn 0 0 -1
vn 0 0 -1
vn 0 0 -1
vn 0 0 -1
vn 0 0 -1
vn 0 0 -1
vn 0 0 -1
vn 0 0 -1
vn 0 0 -1
vn 0 0 -1
vn 0 0 -1
vn 0 0 -1
vn 0 0 -1
vn 0 0 -1
vn 0 0 -1
vn 0 0 -1
vn 0 0 -1
vn 0 0 -1
vn 0 0 -1
vn 0 0 -1
vn 0 0 -1
vn 0 0 -1
vn 0 0 -1
vn 0 0 -1
vn 0 0 -1
vn 0 0 -1
vn 0 0 -1
vn 0 0 -1
vn 0 0 -1
vn 0 0 -1
vn 0 0 -1
vn 0 0 -1
vn 0 0 -1
vn 0 0 -1
vn 0 0 -1
vn 0 0 -1
vn 0 0 -1
vn 0 0 -1
vn 0 0 -1
vn 0 0 -1
vn 0 0 -1
vn 0 0 -1
vn 0 0 -1
vn 0 0 -1
vn 0 0 -1
vn 0 0 -1
vn 0 0 -1
vn 0 0 -1
vn 0 0 -1
vn 0 0 -1
vn 0 0 -1
vn 0 0 -1
vn 0 0 -1
vn 0 0 -1
vn 0 0 -1
vn 0 0 -1
vn 0 0 -1
vn 0 0 -1
vn 0 0 -1
vn 0 0 -1
vn 0 0 -1
vn 0 0 -1
vn 0 0 -1
vn 0 0 -1
vn 0 0 -1
vn 0 0 -1
vn 0 0 -1
vn 0 0 -1
vn 0 0 -1
vn 0 0 -1
vn 0 0 -1
vn 0 0 -1
vn 0 0 -1
vn 0 0 -1
vn 0 0 -1
vn 0 0 -1
vn 0 0 -1
vn 0 0 -1
vn 0 0 -1
vn 0 0 -1
vn 0 0 -1
vn 0 0 -1
vn 0 0 -1
vn 0 0 -1
vn 0 0 -1
vn 0 0 -1
vn 0 0 -1
vn 0 0 -1
vn 0 0 -1
vn 0 0 -1
vn 0 0 -1
vn 0 0 -1
vn 0 0 -1
vn 0 0 -1
vn 0 0 -1
vn 0 0 -1
vn 0 0 -1
vn 0 0 -1
vn 0 0 -1
vn 0 0 -1
vn 0 0 -1
vn 0 0 -1
vn 0 0 -1
vn 0 0 -1
vn 0 0 -1
vn 0 0 -1
vn 0 0 -1
vn 0 0 -1
vn 0 0 -1
vn 0 0 -1
vn 0 0 -1
vn 0 0 -1
vn 0 0 -1
vn 0 0 -1
vn 0 0 -1
vn 0 0 -1
vn 0 0 -1
vn 0 0 -1
g BackRoomBillboardPillars-ref_0
f 33/33/33 45/45/45 44/44/44
f 33/33/33 44/44/44 41/41/41
f 41/41/41 43/43/43 42/42/42
f 41/41/41 42/42/42 35/35/35
f 33/33/33 41/41/41 35/35/35
f 39/39/39 40/40/40 30/30/30
f 36/36/36 39/39/39 30/30/30
f 37/37/37 38/38/38 36/36/36
f 34/34/34 37/37/37 36/36/36
f 36/36/36 30/30/30 34/34/34
f 33/33/33 35/35/35 31/31/31
f 32/32/32 34/34/34 30/30/30
f 28/28/28 33/33/33 31/31/31
f 29/29/29 32/32/32 30/30/30
f 29/29/29 28/28/28 31/31/31
f 30/30/30 27/27/27 29/29/29
f 28/28/28 29/29/29 27/27/27
f 25/25/25 28/28/28 27/27/27
f 27/27/27 26/26/26 25/25/25
f 26/26/26 23/23/23 25/25/25
f 24/24/24 25/25/25 23/23/23
f 22/22/22 24/24/24 23/23/23
f 22/22/22 23/23/23 21/21/21
f 20/20/20 22/22/22 21/21/21
f 21/21/21 19/19/19 20/20/20
f 18/18/18 20/20/20 19/19/19
f 18/18/18 19/19/19 17/17/17
f 16/16/16 18/18/18 17/17/17
f 15/15/15 16/16/16 17/17/17
f 14/14/14 16/16/16 15/15/15
f 14/14/14 15/15/15 13/13/13
f 12/12/12 14/14/14 13/13/13
f 12/12/12 13/13/13 11/11/11
f 9/9/9 12/12/12 11/11/11
f 11/11/11 10/10/10 9/9/9
f 10/10/10 7/7/7 9/9/9
f 8/8/8 9/9/9 7/7/7
f 6/6/6 8/8/8 7/7/7
f 6/6/6 7/7/7 5/5/5
f 4/4/4 6/6/6 5/5/5
f 1/1/1 4/4/4 5/5/5
f 3/3/3 4/4/4 1/1/1
f 1/1/1 2/2/2 3/3/3
f 78/78/78 90/90/90 89/89/89
f 78/78/78 89/89/89 86/86/86
f 86/86/86 88/88/88 87/87/87
f 86/86/86 87/87/87 80/80/80
f 78/78/78 86/86/86 80/80/80
f 84/84/84 85/85/85 75/75/75
f 81/81/81 84/84/84 75/75/75
f 82/82/82 83/83/83 81/81/81
f 79/79/79 82/82/82 81/81/81
f 81/81/81 75/75/75 79/79/79
f 78/78/78 80/80/80 76/76/76
f 77/77/77 79/79/79 75/75/75
f 73/73/73 78/78/78 76/76/76
f 74/74/74 77/77/77 75/75/75
f 74/74/74 73/73/73 76/76/76
f 75/75/75 72/72/72 74/74/74
f 73/73/73 74/74/74 72/72/72
f 70/70/70 73/73/73 72/72/72
f 72/72/72 71/71/71 70/70/70
f 71/71/71 68/68/68 70/70/70
f 69/69/69 70/70/70 68/68/68
f 67/67/67 69/69/69 68/68/68
f 67/67/67 68/68/68 66/66/66
f 65/65/65 67/67/67 66/66/66
f 66/66/66 64/64/64 65/65/65
f 63/63/63 65/65/65 64/64/64
f 63/63/63 64/64/64 62/62/62
f 61/61/61 63/63/63 62/62/62
f 60/60/60 61/61/61 62/62/62
f 59/59/59 61/61/61 60/60/60
f 59/59/59 60/60/60 58/58/58
f 57/57/57 59/59/59 58/58/58
f 57/57/57 58/58/58 56/56/56
f 54/54/54 57/57/57 56/56/56
f 56/56/56 55/55/55 54/54/54
f 55/55/55 52/52/52 54/54/54
f 53/53/53 54/54/54 52/52/52
f 51/51/51 53/53/53 52/52/52
f 51/51/51 52/52/52 50/50/50
f 49/49/49 51/51/51 50/50/50
f 46/46/46 49/49/49 50/50/50
f 48/48/48 49/49/49 46/46/46
f 46/46/46 47/47/47 48/48/48
f 93/93/93 92/92/92 91/91/91
f 91/91/91 94/94/94 93/93/93
f 95/95/95 94/94/94 91/91/91
f 95/95/95 96/96/96 94/94/94
f 95/95/95 97/97/97 96/96/96
f 97/97/97 98/98/98 96/96/96
f 97/97/97 99/99/99 98/98/98
f 99/99/99 97/97/97 100/100/100
f 99/99/99 100/100/100 101/101/101
f 101/101/101 102/102/102 99/99/99
f 101/101/101 103/103/103 102/102/102
f 103/103/103 104/104/104 102/102/102
f 103/103/103 105/105/105 104/104/104
f 105/105/105 106/106/106 104/104/104
f 107/107/107 106/106/106 105/105/105
f 107/107/107 108/108/108 106/106/106
f 107/107/107 109/109/109 108/108/108
f 109/109/109 110/110/110 108/108/108
f 110/110/110 109/109/109 111/111/111
f 111/111/111 112/112/112 110/110/110
f 111/111/111 113/113/113 112/112/112
f 113/113/113 114/114/114 112/112/112
f 113/113/113 115/115/115 114/114/114
f 115/115/115 113/113/113 116/116/116
f 115/115/115 116/116/116 117/117/117
f 117/117/117 118/118/118 115/115/115
f 117/117/117 119/119/119 118/118/118
f 119/119/119 117/117/117 120/120/120
f 121/121/121 118/118/118 119/119/119
f 120/120/120 122/122/122 119/119/119
f 121/121/121 123/123/123 118/118/118
f 120/120/120 124/124/124 122/122/122
f 121/121/121 125/125/125 123/123/123
f 124/124/124 120/120/120 126/126/126
f 126/126/126 127/127/127 124/124/124
f 126/126/126 128/128/128 127/127/127
f 120/120/120 129/129/129 126/126/126
f 120/120/120 130/130/130 129/129/129
f 125/125/125 131/131/131 123/123/123
f 125/125/125 132/132/132 131/131/131
f 132/132/132 133/133/133 131/131/131
f 131/131/131 134/134/134 123/123/123
f 134/134/134 135/135/135 123/123/123
f 138/138/138 137/137/137 136/136/136
f 136/136/136 139/139/139 138/138/138
f 140/140/140 139/139/139 136/136/136
f 140/140/140 141/141/141 139/139/139
f 140/140/140 142/142/142 141/141/141
f 142/142/142 143/143/143 141/141/141
f 142/142/142 144/144/144 143/143/143
f 144/144/144 142/142/142 145/145/145
f 144/144/144 145/145/145 146/146/146
f 146/146/146 147/147/147 144/144/144
f 146/146/146 148/148/148 147/147/147
f 148/148/148 149/149/149 147/147/147
f 148/148/148 150/150/150 149/149/149
f 150/150/150 151/151/151 149/149/149
f 152/152/152 151/151/151 150/150/150
f 152/152/152 153/153/153 151/151/151
f 152/152/152 154/154/154 153/153/153
f 154/154/154 155/155/155 153/153/153
f 155/155/155 154/154/154 156/156/156
f 156/156/156 157/157/157 155/155/155
f 156/156/156 158/158/158 157/157/157
f 158/158/158 159/159/159 157/157/157
f 158/158/158 160/160/160 159/159/159
f 160/160/160 158/158/158 161/161/161
f 160/160/160 161/161/161 162/162/162
f 162/162/162 163/163/163 160/160/160
f 162/162/162 164/164/164 163/163/163
f 164/164/164 162/162/162 165/165/165
f 166/166/166 163/163/163 164/164/164
f 165/165/165 167/167/167 164/164/164
f 166/166/166 168/168/168 163/163/163
f 165/165/165 169/169/169 167/167/167
f 166/166/166 170/170/170 168/168/168
f 169/169/169 165/165/165 171/171/171
f 171/171/171 172/172/172 169/169/169
f 171/171/171 173/173/173 172/172/172
f 165/165/165 174/174/174 171/171/171
f 165/165/165 175/175/175 174/174/174
f 170/170/170 176/176/176 168/168/168
f 170/170/170 177/177/177 176/176/176
f 177/177/177 178/178/178 176/176/176
f 176/176/176 179/179/179 168/168/168
f 179/179/179 180/180/180 168/168/168
