g BonsaiDish4Fill
v 0.260807 0.2499045 0.3838049
v 0.3838049 0.2499045 0.2608069
v 0.3322952 0.2499045 0.3322952
v 0.2922966 0.2499045 0.2922966
v 0.1803118 0.2499045 0.4224476
v 0.4224476 0.2499045 0.1803117
v 0.1979106 0.2499045 0.3180169
v 0.0920825 0.2499045 0.4456221
v 0.3180169 0.2499045 0.1979105
v 0.4456222 0.2499045 0.09208247
v 0.09996876 0.2499045 0.3343705
v 6.943941E-06 0.2499045 0.4533562
v 0.212936 0.273591 0.212936
v 0.3343706 0.2716816 0.0999687
v 0.4533562 0.2499045 6.884336E-06
v 6.943941E-06 0.2499045 0.3400154
v -0.09208247 0.2499045 0.4456221
v 0.1067897 0.2921306 0.2230221
v 0.2230221 0.2949946 0.1067896
v 0.3400155 0.2910652 6.884336E-06
v 0.4456222 0.2499045 -0.0920825
v -0.0999687 0.2499045 0.3343705
v -0.1803117 0.2499045 0.4224476
v 6.943941E-06 0.2910652 0.2266746
v 0.1115491 0.3377187 0.111549
v 0.2266747 0.3377187 6.884336E-06
v 0.3343706 0.2921583 -0.09996876
v 0.4224476 0.2499045 -0.1803118
v -0.1979105 0.2499045 0.3180169
v -0.2608069 0.2499045 0.3838049
v -0.1067896 0.2684856 0.2230221
v 6.943941E-06 0.3377187 0.1133339
v 0.1133339 0.3377187 6.884336E-06
v 0.2230221 0.3377187 -0.1067897
v 0.3180169 0.2802043 -0.1979106
v 0.3838049 0.2499045 -0.260807
v -0.2922966 0.2499045 0.2922966
v -0.3322952 0.2499045 0.3322952
v -0.3838049 0.2499045 0.2608069
v -0.212936 0.2499045 0.212936
v -0.3180169 0.2499045 0.1979105
v -0.2230221 0.2499045 0.1067896
v -0.4224476 0.2499045 0.1803117
v -0.111549 0.2921444 0.111549
v -0.3343705 0.2499045 0.0999687
v -0.4456221 0.2499045 0.09208247
v -0.3400154 0.2595064 6.884336E-06
v -0.4533562 0.262232 6.884336E-06
v 6.943941E-06 0.3377187 6.884336E-06
v -0.1133339 0.2910652 6.884336E-06
v 0.1115491 0.3377187 -0.1115491
v -0.3343705 0.288312 -0.09996876
v -0.4456221 0.288312 -0.0920825
v 6.943941E-06 0.2921444 -0.1133339
v 0.212936 0.2951329 -0.212936
v -0.3180169 0.288312 -0.1979106
v -0.4224476 0.288312 -0.1803118
v 0.1067897 0.2921306 -0.2230221
v 0.2922966 0.2499045 -0.2922966
v 0.3322952 0.2499045 -0.3322952
v 0.260807 0.2499045 -0.3838049
v 0.1979106 0.2500291 -0.3180169
v 0.1803118 0.2499045 -0.4224476
v 0.09996876 0.2499045 -0.3343706
v 0.0920825 0.2499045 -0.4456222
v 6.943941E-06 0.2649714 -0.2266747
v 6.943941E-06 0.2499045 -0.3400155
v 6.943941E-06 0.2499045 -0.4533562
v -0.111549 0.266272 -0.1115491
v -0.1067896 0.2573757 -0.2230221
v -0.0999687 0.2597831 -0.3343706
v -0.09208247 0.2499045 -0.4456222
v -0.2266746 0.2499184 6.884336E-06
v -0.2230221 0.2573757 -0.1067897
v -0.212936 0.288312 -0.212936
v -0.1979105 0.288312 -0.3180169
v -0.1803117 0.2575971 -0.4224476
v -0.2922966 0.288312 -0.2922966
v -0.2608069 0.2627439 -0.3838049
v -0.3838049 0.288312 -0.260807
v -0.3322952 0.27586 -0.3322952
v -0.3506688 0.3188747 0.006080717
v -0.2379229 0.322804 0.002262086
v -0.3407072 0.3078063 0.1055168
v -0.2302027 0.3209362 0.108782
v -0.3164258 0.3462829 0.07749978
v -0.3208947 0.3476388 0.0387741
v -0.2714742 0.3523705 0.03633904
v -0.267614 0.3490777 0.07777652
vn 0.001041412 0.9999995 0
vn 0.001041412 0.9999995 0
vn 0.001041412 0.9999995 0
vn 0.05165801 0.9986648 0
vn 0.001041412 0.9999995 0
vn 0.07706988 0.9936638 0.08180679
vn 0.06439847 0.9936638 0.09211384
vn 0.001041412 0.9999995 0
vn 0.1150841 0.9873281 0.1092651
vn 0.2037839 0.968321 0.144314
vn 0.03271997 0.9873281 0.1552823
vn 0.001041412 0.9999995 0
vn 0.1974482 0.9493139 0.2445757
vn 0.222791 0.9556497 0.1926081
vn 0.3114909 0.9493139 0.04214804
vn -0.02430135 0.9873281 0.1568204
vn 0.001041412 0.9999995 0
vn 0.1024127 0.9366426 0.3349811
vn 0.2481338 0.9366426 0.2472454
vn 0.3241623 0.9429782 0.07557049
vn 0.3431694 0.9366426 -0.07025313
vn -0.05597991 0.9936638 0.09745952
vn 0.001041412 0.9999995 0
vn -0.1003298 0.9429782 0.3173736
vn 0.1150841 0.968321 0.2216079
vn 0.222791 0.968321 0.1127766
vn 0.3368337 0.9366426 -0.09614461
vn 0.2924837 0.9429782 -0.1588879
vn -0.03062273 0.999531 0
vn 0.001041412 0.9999995 0
vn -0.1953654 0.9619853 0.1908315
vn -0.1700225 0.968321 0.1828845
vn 0.001041412 0.9999995 0
vn 0.1721054 0.968321 -0.1809257
vn 0.2417981 0.9366426 -0.253445
vn 0.1657697 0.968321 -0.186748
vn 0.001041412 0.9999995 0
vn 0.001041412 0.9999995 0
vn 0.001041412 0.9999995 0
vn -0.1003298 0.9936638 0.05065609
vn 0.001041412 0.9999995 0
vn 0.1087484 0.9429782 0.3145884
vn 0.001041412 0.9999995 0
vn -0.3284151 0.9366426 0.1218369
vn -0.3220794 0.8606141 0.394472
vn 0.00737695 0.9999728 0
vn -0.2650581 0.9493139 -0.1689592
vn 0.01371282 0.9809925 0.1935606
vn -0.2207081 0.968321 -0.1168003
vn -0.3157437 0.9429782 -0.1053472
vn -0.1130012 0.968321 -0.2226771
vn 0.08340555 0.9873281 0.1350065
vn 0.01371282 0.9873281 0.1580985
vn -0.2397153 0.9429782 -0.2309301
vn 0.1150841 0.9239711 -0.3647369
vn 0.04534471 0.9989714 0
vn 0.001041412 0.9999995 0
vn -0.09399408 0.9429782 -0.3193074
vn 0.08340555 0.9809925 -0.1752064
vn 0.001041412 0.9999995 0
vn 0.001041412 0.9999995 0
vn 0.03905565 0.9809925 -0.1900747
vn 0.001041412 0.9999995 0
vn -0.02430135 0.9873281 -0.1568204
vn 0.001041412 0.9999995 0
vn -0.138344 0.9746568 -0.1757985
vn -0.01163 0.9936638 -0.1117895
vn 0.02637507 0.9996521 0
vn -0.138344 0.9873281 -0.07774413
vn 0.06426537 0.9979329 0
vn 0.1212919 0.9926169 0
vn 0.09607697 0.9936638 -0.058321
vn 0.1847768 0.9493139 -0.2542844
vn 0.05172706 0.9936638 0.09978186
vn 0.1277555 0.9873281 0.09413671
vn 0.08974129 0.9873281 -0.1308805
vn 0.07706988 0.9746568 -0.2100105
vn -0.03063709 0.9873281 -0.1557066
vn -0.07498699 0.9556497 -0.2847993
vn -0.01162922 0.9999323 0
vn -0.04964417 0.968321 -0.244724
vn -0.7275644 0.3600936 -0.5839372
vn 0.5775903 0.4868076 -0.6552921
vn -0.670543 0.2523867 0.6976196
vn 0.6156046 0.436122 0.6563753
vn -0.372765 0.841607 0.3908246
vn -0.3981078 0.8922927 -0.2128943
vn 0.2037839 0.9429782 -0.263181
vn 0.222791 0.9112998 0.3462613
g BonsaiDish4Fill_0
f 3/3/3 2/2/2 1/1/1
f 2/2/2 4/4/4 1/1/1
f 1/1/1 4/4/4 5/5/5
f 2/2/2 6/6/6 4/4/4
f 4/4/4 7/7/7 5/5/5
f 5/5/5 7/7/7 8/8/8
f 6/6/6 9/9/9 4/4/4
f 4/4/4 9/9/9 7/7/7
f 6/6/6 10/10/10 9/9/9
f 7/7/7 11/11/11 8/8/8
f 8/8/8 11/11/11 12/12/12
f 9/9/9 13/13/13 7/7/7
f 7/7/7 13/13/13 11/11/11
f 10/10/10 14/14/14 9/9/9
f 9/9/9 14/14/14 13/13/13
f 10/10/10 15/15/15 14/14/14
f 11/11/11 16/16/16 12/12/12
f 12/12/12 16/16/16 17/17/17
f 13/13/13 18/18/18 11/11/11
f 11/11/11 18/18/18 16/16/16
f 14/14/14 19/19/19 13/13/13
f 13/13/13 19/19/19 18/18/18
f 15/15/15 20/20/20 14/14/14
f 14/14/14 20/20/20 19/19/19
f 15/15/15 21/21/21 20/20/20
f 16/16/16 22/22/22 17/17/17
f 17/17/17 22/22/22 23/23/23
f 18/18/18 24/24/24 16/16/16
f 16/16/16 24/24/24 22/22/22
f 19/19/19 25/25/25 18/18/18
f 18/18/18 25/25/25 24/24/24
f 20/20/20 26/26/26 19/19/19
f 19/19/19 26/26/26 25/25/25
f 21/21/21 27/27/27 20/20/20
f 20/20/20 27/27/27 26/26/26
f 21/21/21 28/28/28 27/27/27
f 22/22/22 29/29/29 23/23/23
f 23/23/23 29/29/29 30/30/30
f 24/24/24 31/31/31 22/22/22
f 22/22/22 31/31/31 29/29/29
f 25/25/25 32/32/32 24/24/24
f 24/24/24 32/32/32 31/31/31
f 26/26/26 33/33/33 25/25/25
f 25/25/25 33/33/33 32/32/32
f 27/27/27 34/34/34 26/26/26
f 26/26/26 34/34/34 33/33/33
f 28/28/28 35/35/35 27/27/27
f 27/27/27 35/35/35 34/34/34
f 28/28/28 36/36/36 35/35/35
f 29/29/29 37/37/37 30/30/30
f 30/30/30 37/37/37 38/38/38
f 37/37/37 39/39/39 38/38/38
f 31/31/31 40/40/40 29/29/29
f 29/29/29 40/40/40 37/37/37
f 37/37/37 41/41/41 39/39/39
f 40/40/40 41/41/41 37/37/37
f 40/40/40 42/42/42 41/41/41
f 41/41/41 43/43/43 39/39/39
f 31/31/31 44/44/44 40/40/40
f 44/44/44 42/42/42 40/40/40
f 32/32/32 44/44/44 31/31/31
f 41/41/41 45/45/45 43/43/43
f 42/42/42 45/45/45 41/41/41
f 45/45/45 46/46/46 43/43/43
f 45/45/45 47/47/47 46/46/46
f 47/47/47 48/48/48 46/46/46
f 32/32/32 49/49/49 44/44/44
f 33/33/33 49/49/49 32/32/32
f 44/44/44 50/50/50 42/42/42
f 49/49/49 50/50/50 44/44/44
f 33/33/33 51/51/51 49/49/49
f 34/34/34 51/51/51 33/33/33
f 47/47/47 52/52/52 48/48/48
f 52/52/52 53/53/53 48/48/48
f 49/49/49 54/54/54 50/50/50
f 51/51/51 54/54/54 49/49/49
f 34/34/34 55/55/55 51/51/51
f 35/35/35 55/55/55 34/34/34
f 52/52/52 56/56/56 53/53/53
f 56/56/56 57/57/57 53/53/53
f 51/51/51 58/58/58 54/54/54
f 55/55/55 58/58/58 51/51/51
f 35/35/35 59/59/59 55/55/55
f 36/36/36 59/59/59 35/35/35
f 36/36/36 60/60/60 59/59/59
f 60/60/60 61/61/61 59/59/59
f 59/59/59 62/62/62 55/55/55
f 59/59/59 61/61/61 62/62/62
f 55/55/55 62/62/62 58/58/58
f 61/61/61 63/63/63 62/62/62
f 62/62/62 63/63/63 64/64/64
f 62/62/62 64/64/64 58/58/58
f 63/63/63 65/65/65 64/64/64
f 58/58/58 66/66/66 54/54/54
f 58/58/58 64/64/64 66/66/66
f 64/64/64 65/65/65 67/67/67
f 64/64/64 67/67/67 66/66/66
f 65/65/65 68/68/68 67/67/67
f 54/54/54 66/66/66 69/69/69
f 54/54/54 69/69/69 50/50/50
f 66/66/66 67/67/67 70/70/70
f 66/66/66 70/70/70 69/69/69
f 67/67/67 68/68/68 71/71/71
f 67/67/67 71/71/71 70/70/70
f 68/68/68 72/72/72 71/71/71
f 50/50/50 69/69/69 73/73/73
f 50/50/50 73/73/73 42/42/42
f 69/69/69 70/70/70 74/74/74
f 69/69/69 74/74/74 73/73/73
f 70/70/70 71/71/71 75/75/75
f 70/70/70 75/75/75 74/74/74
f 71/71/71 72/72/72 76/76/76
f 71/71/71 76/76/76 75/75/75
f 72/72/72 77/77/77 76/76/76
f 76/76/76 77/77/77 78/78/78
f 77/77/77 79/79/79 78/78/78
f 75/75/75 76/76/76 56/56/56
f 76/76/76 78/78/78 56/56/56
f 75/75/75 56/56/56 52/52/52
f 74/74/74 75/75/75 52/52/52
f 56/56/56 78/78/78 57/57/57
f 78/78/78 80/80/80 57/57/57
f 78/78/78 79/79/79 80/80/80
f 79/79/79 81/81/81 80/80/80
f 74/74/74 52/52/52 47/47/47
f 73/73/73 74/74/74 47/47/47
f 47/47/47 82/82/82 73/73/73
f 82/82/82 83/83/83 73/73/73
f 73/73/73 83/83/83 42/42/42
f 84/84/84 82/82/82 47/47/47
f 45/45/45 84/84/84 47/47/47
f 42/42/42 85/85/85 45/45/45
f 83/83/83 85/85/85 42/42/42
f 85/85/85 84/84/84 45/45/45
f 82/82/82 84/84/84 86/86/86
f 83/83/83 82/82/82 87/87/87
f 87/87/87 82/82/82 86/86/86
f 88/88/88 83/83/83 87/87/87
f 83/83/83 88/88/88 85/85/85
f 88/88/88 87/87/87 86/86/86
f 89/89/89 86/86/86 84/84/84
f 85/85/85 89/89/89 84/84/84
f 88/88/88 89/89/89 85/85/85
f 89/89/89 88/88/88 86/86/86
