g BonsaiDish3Fill
v 0.4241219 0.1543136 0.6241601
v 0.6241624 0.1651229 0.4241421
v 0.5403674 0.1579843 0.5403652
v 0.4753312 0.1711582 0.4753289
v 0.2932161 0.1572186 0.6869895
v 0.6869918 0.1872821 0.2932363
v 0.3218609 0.1802335 0.51717
v 0.1497445 0.1485036 0.724687
v 0.5172174 0.182508 0.3219036
v 0.7246894 0.2035637 0.1497647
v 0.1625805 0.1817648 0.5437656
v -0.0009784102 0.1454859 0.7363972
v 0.3465422 0.1873947 0.34672
v 0.5447137 0.2017847 0.1631863
v 0.7372327 0.1724193 -3.492832E-05
v -0.0002127886 0.1741533 0.5527958
v -0.1512735 0.1569259 0.7222549
v 0.1740655 0.1863138 0.3635421
v 0.3659315 0.2152513 0.1769907
v 0.5529108 0.1769232 -1.239777E-05
v 0.7247119 0.1787247 -0.1497445
v -0.163389 0.1920112 0.5429098
v -0.2935066 0.1634565 0.6828459
v -0.0005730987 0.1773511 0.3680235
v 0.1862711 0.2414865 0.1899844
v 0.3694445 0.2115581 0.000483036
v 0.5427545 0.1742659 -0.162558
v 0.6869242 0.172712 -0.293171
v -0.3218811 0.2339425 0.5162242
v -0.4208767 0.1640195 0.6173592
v -0.1747838 0.2314428 0.3620784
v 0.001768947 0.2568223 0.189962
v 0.1859108 0.2913447 0.001631498
v 0.3548744 0.2172105 -0.1736376
v 0.5160464 0.1694917 -0.3213654
v 0.6241399 0.1719013 -0.4241219
v -0.4786392 0.2465309 0.4786392
v -0.5396895 0.1935651 0.5396895
v -0.6246781 0.1845573 0.4243898
v -0.3465399 0.2998345 0.3467876
v -0.5218766 0.2545704 0.3219036
v -0.6831836 0.1646951 0.293484
v 0.4758942 0.1833412 -0.4756464
v 0.5403674 0.1895115 -0.5403674
v 0.426036 0.1965151 -0.6257838
v -0.1810217 0.2649068 0.183679
v -0.5443961 0.2010641 0.1621279
v -0.721129 0.1476028 0.151949
v -0.3639925 0.2579483 0.1725769
v 0.3417005 0.2036313 -0.3438624
v 0.3205547 0.1943758 -0.5159338
v 0.2944547 0.1897818 -0.6890185
v -0.0003253818 0.3011631 -0.004561365
v 0.1784343 0.3084369 -0.1814294
v -0.1836115 0.2820441 -0.0005754232
v -0.3664246 0.2014244 -0.0001925826
v 0.1703498 0.2781032 -0.3593783
v 0.1623328 0.2137876 -0.54334
v 0.1500372 0.1803011 -0.7253875
v -1.007318E-05 0.34949 -0.1843344
v -1.007318E-05 0.3048338 -0.3648731
v -1.007318E-05 0.2371402 -0.5528883
v -1.007318E-05 0.1877776 -0.7391694
v -0.1776212 0.3057796 -0.1814294
v -0.1694917 0.2748379 -0.3585001
v -0.1621053 0.2122563 -0.5428896
v -0.1506429 0.1866741 -0.7268738
v -0.3572142 0.2239664 -0.1736151
v -0.3451437 0.214846 -0.3456865
v -0.3244032 0.2153639 -0.5196044
v -0.2923356 0.1681181 -0.685528
v -0.551805 0.1683658 0.0002577901
v -0.7366449 0.1585923 0.0004379749
v -0.5413335 0.1635916 -0.1625355
v -0.7246645 0.1763377 -0.149767
v -0.5152559 0.163389 -0.3210277
v -0.6868768 0.1682081 -0.293126
v -0.475554 0.179693 -0.4754663
v -0.4242097 0.1780491 -0.62423
v -0.6241376 0.1695142 -0.4240993
v -0.5403652 0.1814721 -0.5403674
vn 0.09113023 0.984362 0.1507538
vn 0.0443697 0.9895576 0.1371388
vn 0.07554339 0.9895576 0.1227556
vn 0.06515217 0.9895576 0.1285727
vn 0.03917408 0.9895576 0.1387125
vn 0.008000404 0.9947532 0.10199
vn 0.0443697 0.9947532 0.09218079
vn -0.007586449 0.984362 0.1759939
vn 0.0443697 0.9895576 0.1371388
vn -0.002390832 0.9999489 -0.00982647
vn -0.01278207 0.9947532 0.1015017
vn 0.02878284 0.984362 0.1737901
vn 0.05995655 0.9895576 0.131076
vn 0.04950707 0.9987738 0
vn 0.002804786 0.9947532 -0.1022649
vn 0.04956532 0.9895576 0.1353477
vn 0.08593462 0.9739708 0.2097526
vn 0.01839164 0.984362 0.1751947
vn 0.1430864 0.984362 0.1027507
vn 0.08073901 0.9947532 -0.06282673
vn -0.007586449 0.9999489 -0.006686066
vn 0.1586732 0.9687752 0.190519
vn 0.01839164 0.9376014 0.3472251
vn 0.08073901 0.9791664 0.186318
vn 0.1119127 0.9635795 0.2428787
vn 0.2573899 0.9635795 0.07255989
vn 0.09632584 0.9947532 -0.03445758
vn -0.007586449 0.9999489 -0.006686066
vn 0.03397846 0.9427971 0.331631
vn -0.1738461 0.8700585 0.4612761
vn 0.2054338 0.9635795 0.171206
vn 0.05476093 0.9635795 0.2617551
vn 0.2314118 0.9635795 0.1340263
vn 0.3249329 0.9427971 -0.0745137
vn 0.09113023 0.9947532 -0.0464894
vn 0.01319555 0.999913 0
vn -0.256976 0.9116234 0.32079
vn -0.3141277 0.8492761 0.4243276
vn -0.4388225 0.8752542 0.2033838
vn 0.01319555 0.999913 0
vn -0.3297146 0.9427971 -0.04921357
vn -0.4076488 0.9116234 -0.05258667
vn 0.0546818 0.9985038 0
vn 0.01319602 0.9947532 0.1014486
vn 0.008000404 0.9999489 0.006185967
vn 0.01839164 0.9947532 0.1006366
vn -0.2621716 0.9479927 -0.1804881
vn -0.256976 0.9635795 -0.07401247
vn -0.147868 0.9739708 -0.1718022
vn 0.2729768 0.9583839 -0.0835703
vn 0.1274995 0.9895576 -0.06722783
vn 0.03917408 0.9947532 -0.09450608
vn -0.002390832 0.9791664 0.2030455
vn 0.2989548 0.9531883 -0.0453655
vn -0.215411 0.9739708 0.07056213
vn -0.2777584 0.9583839 -0.06595865
vn 0.2677811 0.9376014 -0.2218036
vn 0.148282 0.9635795 -0.2225465
vn 0.09113023 0.9791664 -0.181462
vn -0.01278168 0.9999183 0
vn -0.007586449 0.9635795 -0.2673143
vn 0.002804786 0.9635795 -0.2674072
vn 0.008000404 0.9791664 -0.2029019
vn -0.2879294 0.9576516 0
vn -0.2361935 0.9479927 -0.2133601
vn -0.1322812 0.9635795 -0.2324138
vn -0.09591189 0.9739708 -0.2053822
vn -0.3347376 0.9423113 0
vn -0.282954 0.9531883 -0.1066257
vn -0.1738461 0.9739708 -0.1454595
vn -0.1166944 0.9739708 -0.194328
vn -0.1582593 0.984362 -0.07736561
vn -0.08032507 0.9947532 -0.06335484
vn -0.1165109 0.9931895 0
vn 0.02358188 0.9997219 0
vn -0.1322812 0.9895576 -0.05724876
vn 0.0339606 0.9994232 0
vn -0.1165109 0.9931895 0
vn -0.1270856 0.9791664 -0.1583743
vn -0.002390832 0.9999489 0.00982647
vn -0.007586449 0.9999489 0.006686066
g BonsaiDish3Fill_0
f 3/3/3 2/2/2 1/1/1
f 2/2/2 4/4/4 1/1/1
f 1/1/1 4/4/4 5/5/5
f 2/2/2 6/6/6 4/4/4
f 4/4/4 7/7/7 5/5/5
f 5/5/5 7/7/7 8/8/8
f 6/6/6 9/9/9 4/4/4
f 4/4/4 9/9/9 7/7/7
f 6/6/6 10/10/10 9/9/9
f 7/7/7 11/11/11 8/8/8
f 8/8/8 11/11/11 12/12/12
f 9/9/9 13/13/13 7/7/7
f 7/7/7 13/13/13 11/11/11
f 10/10/10 14/14/14 9/9/9
f 9/9/9 14/14/14 13/13/13
f 10/10/10 15/15/15 14/14/14
f 11/11/11 16/16/16 12/12/12
f 12/12/12 16/16/16 17/17/17
f 13/13/13 18/18/18 11/11/11
f 11/11/11 18/18/18 16/16/16
f 14/14/14 19/19/19 13/13/13
f 13/13/13 19/19/19 18/18/18
f 15/15/15 20/20/20 14/14/14
f 14/14/14 20/20/20 19/19/19
f 15/15/15 21/21/21 20/20/20
f 16/16/16 22/22/22 17/17/17
f 17/17/17 22/22/22 23/23/23
f 18/18/18 24/24/24 16/16/16
f 16/16/16 24/24/24 22/22/22
f 19/19/19 25/25/25 18/18/18
f 18/18/18 25/25/25 24/24/24
f 20/20/20 26/26/26 19/19/19
f 19/19/19 26/26/26 25/25/25
f 21/21/21 27/27/27 20/20/20
f 20/20/20 27/27/27 26/26/26
f 21/21/21 28/28/28 27/27/27
f 22/22/22 29/29/29 23/23/23
f 23/23/23 29/29/29 30/30/30
f 24/24/24 31/31/31 22/22/22
f 22/22/22 31/31/31 29/29/29
f 25/25/25 32/32/32 24/24/24
f 24/24/24 32/32/32 31/31/31
f 26/26/26 33/33/33 25/25/25
f 25/25/25 33/33/33 32/32/32
f 27/27/27 34/34/34 26/26/26
f 26/26/26 34/34/34 33/33/33
f 28/28/28 35/35/35 27/27/27
f 27/27/27 35/35/35 34/34/34
f 28/28/28 36/36/36 35/35/35
f 29/29/29 37/37/37 30/30/30
f 30/30/30 37/37/37 38/38/38
f 37/37/37 39/39/39 38/38/38
f 31/31/31 40/40/40 29/29/29
f 29/29/29 40/40/40 37/37/37
f 37/37/37 41/41/41 39/39/39
f 40/40/40 41/41/41 37/37/37
f 41/41/41 42/42/42 39/39/39
f 36/36/36 43/43/43 35/35/35
f 36/36/36 44/44/44 43/43/43
f 44/44/44 45/45/45 43/43/43
f 31/31/31 46/46/46 40/40/40
f 32/32/32 46/46/46 31/31/31
f 41/41/41 47/47/47 42/42/42
f 47/47/47 48/48/48 42/42/42
f 40/40/40 49/49/49 41/41/41
f 46/46/46 49/49/49 40/40/40
f 49/49/49 47/47/47 41/41/41
f 35/35/35 43/43/43 50/50/50
f 35/35/35 50/50/50 34/34/34
f 43/43/43 45/45/45 51/51/51
f 43/43/43 51/51/51 50/50/50
f 45/45/45 52/52/52 51/51/51
f 32/32/32 53/53/53 46/46/46
f 33/33/33 53/53/53 32/32/32
f 34/34/34 54/54/54 33/33/33
f 34/34/34 50/50/50 54/54/54
f 33/33/33 54/54/54 53/53/53
f 46/46/46 55/55/55 49/49/49
f 53/53/53 55/55/55 46/46/46
f 49/49/49 56/56/56 47/47/47
f 55/55/55 56/56/56 49/49/49
f 50/50/50 51/51/51 57/57/57
f 50/50/50 57/57/57 54/54/54
f 51/51/51 52/52/52 58/58/58
f 51/51/51 58/58/58 57/57/57
f 52/52/52 59/59/59 58/58/58
f 54/54/54 60/60/60 53/53/53
f 53/53/53 60/60/60 55/55/55
f 54/54/54 57/57/57 60/60/60
f 57/57/57 58/58/58 61/61/61
f 57/57/57 61/61/61 60/60/60
f 58/58/58 59/59/59 62/62/62
f 58/58/58 62/62/62 61/61/61
f 59/59/59 63/63/63 62/62/62
f 60/60/60 64/64/64 55/55/55
f 60/60/60 61/61/61 64/64/64
f 55/55/55 64/64/64 56/56/56
f 61/61/61 62/62/62 65/65/65
f 61/61/61 65/65/65 64/64/64
f 62/62/62 63/63/63 66/66/66
f 62/62/62 66/66/66 65/65/65
f 63/63/63 67/67/67 66/66/66
f 64/64/64 68/68/68 56/56/56
f 64/64/64 65/65/65 68/68/68
f 65/65/65 66/66/66 69/69/69
f 65/65/65 69/69/69 68/68/68
f 66/66/66 67/67/67 70/70/70
f 66/66/66 70/70/70 69/69/69
f 67/67/67 71/71/71 70/70/70
f 56/56/56 68/68/68 72/72/72
f 56/56/56 72/72/72 47/47/47
f 47/47/47 72/72/72 48/48/48
f 72/72/72 73/73/73 48/48/48
f 68/68/68 74/74/74 72/72/72
f 72/72/72 74/74/74 73/73/73
f 68/68/68 69/69/69 74/74/74
f 74/74/74 75/75/75 73/73/73
f 69/69/69 76/76/76 74/74/74
f 74/74/74 76/76/76 75/75/75
f 69/69/69 70/70/70 76/76/76
f 76/76/76 77/77/77 75/75/75
f 70/70/70 71/71/71 78/78/78
f 70/70/70 78/78/78 76/76/76
f 76/76/76 78/78/78 77/77/77
f 71/71/71 79/79/79 78/78/78
f 78/78/78 80/80/80 77/77/77
f 78/78/78 79/79/79 80/80/80
f 79/79/79 81/81/81 80/80/80
