g BonsaiDish4
v 0.297645 0.3143886 -0.3547342
v 0.2806256 0.2218627 -0.3344474
v 0.1493141 0.2218627 -0.4102628
v 0.1583847 0.3143886 -0.4351336
v 7.867813E-06 0.2218627 -0.4365803
v 0.4010297 0.3143886 -0.2315342
v 0.3780932 0.2218627 -0.218286
v 7.867813E-06 0.3143886 -0.4630604
v -0.1493146 0.2218627 -0.4102628
v 0.4560381 0.3143886 -0.08040732
v 0.4299481 0.2218627 -0.07580703
v -0.1583852 0.3143886 -0.4351336
v -0.2806261 0.2218627 -0.3344474
v 0.4560381 0.3143886 0.0804078
v 0.4299481 0.2218627 0.07580751
v -0.2976455 0.3143886 -0.3547342
v -0.3780937 0.2218627 -0.218286
v 0.4010297 0.3143886 0.2315347
v 0.3780932 0.2218627 0.2182865
v -0.4010301 0.3143886 -0.2315342
v -0.4299486 0.2218627 -0.07580703
v 0.297645 0.3143886 0.3547347
v 0.2806256 0.2218627 0.3344479
v -0.4560386 0.3143886 -0.08040732
v -0.4299486 0.2218627 0.07580751
v 0.1583847 0.3143886 0.4351341
v 0.1493141 0.2218627 0.4102632
v -0.4560386 0.3143886 0.0804078
v -0.3780937 0.2218627 0.2182865
v 7.867813E-06 0.3143886 0.4630609
v 7.867813E-06 0.2218627 0.4365808
v -0.4010301 0.3143886 0.2315347
v -0.2806261 0.2218627 0.3344479
v -0.1583852 0.3143886 0.4351341
v -0.1493146 0.2218627 0.4102632
v -0.2976455 0.3143886 0.3547347
v 0.1630662 0.3246295 0.4480409
v 7.867813E-06 0.3246295 0.4767967
v -0.1630667 0.3246295 0.4480409
v -0.3064722 0.3246295 0.3652519
v -0.4129129 0.3246295 0.2383944
v -0.4695468 0.3246295 0.08279735
v 0.3064718 0.3246295 0.3652519
v -0.4695468 0.3246295 -0.08279687
v 0.4129124 0.3246295 0.2383944
v -0.4129129 0.3246295 -0.238394
v 0.4695464 0.3246295 0.08279735
v -0.3064722 0.3246295 -0.3652514
v 0.4695464 0.3246295 -0.08279687
v -0.1630667 0.3246295 -0.4480404
v 0.4129124 0.3246295 -0.238394
v 7.867813E-06 0.3246295 -0.4767963
v 0.3064718 0.3246295 -0.3652514
v 0.1630662 0.3246295 -0.4480404
v 0.5175324 0.3246295 0.09125018
v 0.5175324 0.3246295 -0.0912497
v 0.4551115 0.3246295 -0.2627609
v 0.337796 0.3246295 -0.4025577
v 0.1797281 0.3246295 -0.4938157
v 7.867813E-06 0.3246295 -0.5255138
v 0.4551115 0.3246295 0.2627614
v -0.1797286 0.3246295 -0.4938157
v 0.337796 0.3246295 0.4025581
v -0.3377964 0.3246295 -0.4025577
v 0.1797281 0.3246295 0.4938163
v -0.455112 0.3246295 -0.2627609
v 7.867813E-06 0.3246295 0.5255144
v -0.5175329 0.3246295 -0.0912497
v -0.1797286 0.3246295 0.4938163
v -0.5175329 0.3246295 0.09125018
v -0.3377964 0.3246295 0.4025581
v -0.455112 0.3246295 0.2627614
v 7.867813E-06 0.3119991 0.5326505
v -0.1821831 0.3119991 0.5005298
v -0.3423805 0.3119991 0.4080362
v -0.461289 0.3119991 0.2663213
v -0.5245552 0.3119991 0.09250182
v -0.5245552 0.3119991 -0.09250137
v 0.1821826 0.3119991 0.5005298
v -0.461289 0.3119991 -0.2663208
v 0.34238 0.3119991 0.4080362
v -0.3423805 0.3119991 -0.4080358
v 0.4612886 0.3119991 0.2663213
v -0.1821831 0.3119991 -0.5005292
v 0.5245548 0.3119991 0.09250182
v 7.867813E-06 0.3119991 -0.53265
v 0.5245548 0.3119991 -0.09250137
v 0.1821826 0.3119991 -0.5005292
v 0.4612886 0.3119991 -0.2663208
v 0.34238 0.3119991 -0.4080358
v 0.4619713 0.2108577 0.08146441
v 0.4619713 0.2108577 -0.0814639
v 0.4062477 0.2108577 -0.2345414
v 0.3015301 0.2108577 -0.3593507
v 0.1604491 0.2108577 -0.4408067
v 7.867813E-06 0.2108577 -0.4690912
v 0.4062477 0.2108577 0.2345419
v -0.1604496 0.2108577 -0.4408067
v 0.3015301 0.2108577 0.3593512
v -0.3015306 0.2108577 -0.3593507
v 0.1604491 0.2108577 0.4408072
v -0.4062482 0.2108577 -0.2345414
v 7.867813E-06 0.2108577 0.4690917
v -0.4619718 0.2108577 -0.0814639
v -0.1604334 0.2108577 0.4408072
v -0.4619718 0.2108577 0.08146441
v -0.3015306 0.2108577 0.3593512
v -0.4062482 0.2108577 0.2345419
v 0.1279545 0.1158609 0.3515323
v 7.867813E-06 0.1158609 0.3740949
v -0.127955 0.1158609 0.3515323
v -0.2404589 0.1158609 0.2865756
v -0.3239793 0.1158609 0.1870435
v -0.3684055 0.1158609 0.06496513
v 0.2404584 0.1158609 0.2865756
v -0.3684055 0.1158609 -0.06496465
v 0.3239789 0.1158609 0.1870435
v -0.3239793 0.1158609 -0.187043
v 0.368405 0.1158609 0.06496513
v -0.2404589 0.1158609 -0.2865751
v 0.368405 0.1158609 -0.06496465
v -0.127955 0.1158609 -0.3515319
v 0.3239789 0.1158609 -0.187043
v 7.867813E-06 0.1158609 -0.3740944
v 0.2404584 0.1158609 -0.2865751
v 0.1279545 0.1158609 -0.3515319
v 0.2563725 0.04436946 -0.04519802
v 0.2254546 0.04436946 -0.1301652
v 0.1673414 0.04436946 -0.1994297
v 0.08903894 0.04436946 -0.2446361
v 7.867813E-06 0.04436946 -0.2603225
v -0.08903944 0.04436946 -0.2446361
v 0.2563725 0.04436946 0.0451985
v -0.1673419 0.04436946 -0.1994297
v 0.2254546 0.04436946 0.1301657
v -0.2254551 0.04436946 -0.1301652
v 0.1673414 0.04436946 0.1994302
v -0.256373 0.04436946 -0.04519802
v 0.08903894 0.04436946 0.2446365
v -0.256373 0.04436946 0.0451985
v 7.867813E-06 0.04436946 0.260323
v -0.2254551 0.04436946 0.1301657
v -0.08903944 0.04436946 0.2446365
v -0.1673419 0.04436946 0.1994302
v 0.08582038 8.34465E-06 0.1022714
v 0.04566944 8.34465E-06 0.1254679
v 7.867813E-06 8.34465E-06 -7.867813E-06
v 0.1156329 8.34465E-06 0.06675321
v 7.867813E-06 8.34465E-06 0.1335143
v -0.04566991 8.34465E-06 0.1254679
v 0.1314819 8.34465E-06 0.02318865
v -0.08582085 8.34465E-06 0.1022714
v 0.1314819 8.34465E-06 -0.02318817
v -0.1156333 8.34465E-06 0.06675321
v 0.1156329 8.34465E-06 -0.06675273
v -0.1314824 8.34465E-06 0.02318865
v 0.08582038 8.34465E-06 -0.1022709
v -0.1314824 8.34465E-06 -0.02318817
v 0.04566944 8.34465E-06 -0.1254674
v -0.1156333 8.34465E-06 -0.06675273
v 7.867813E-06 8.34465E-06 -0.1335138
v -0.08582085 8.34465E-06 -0.1022709
v -0.04566991 8.34465E-06 -0.1254674
vn -0.5176179 0.5876615 0.6218727
vn -0.6187919 0.2763567 0.735339
vn -0.3308351 0.2763567 0.9023165
vn -0.2763567 0.5876615 0.7604479
vn 0.003817558 0.2763567 0.9610475
vn -0.7044008 0.5876615 0.3980874
vn -0.8289226 0.2763567 0.4863273
vn 0.003817558 0.5876615 0.8090979
vn 0.3306875 0.2763567 0.9023706
vn -0.7977922 0.5876615 0.134839
vn -0.9456619 0.2763567 0.17132
vn 0.2762092 0.5876615 0.7605014
vn 0.6186444 0.2763567 0.7354631
vn -0.7977922 0.5876615 -0.134839
vn -0.9456619 0.2763567 -0.17132
vn 0.5174704 0.5876615 0.6219955
vn 0.8287751 0.2763567 0.4865786
vn -0.7044008 0.5876615 -0.3980874
vn -0.8289226 0.2763567 -0.4863273
vn 0.7042532 0.5876615 0.3983483
vn 0.9455144 0.2763567 0.1721323
vn -0.5176179 0.5876615 -0.6218727
vn -0.6187919 0.2763567 -0.735339
vn 0.7976446 0.5876615 0.1357095
vn 0.9455144 0.2763567 -0.1721323
vn -0.2763567 0.5876615 -0.7604479
vn -0.3308351 0.2763567 -0.9023165
vn 0.7976446 0.5876615 -0.1357095
vn 0.8287751 0.2763567 -0.4865786
vn 0.003817558 0.5876615 -0.8090979
vn 0.003817558 0.2763567 -0.9610475
vn 0.7042532 0.5876615 -0.3983483
vn 0.6186444 0.2763567 -0.7354631
vn 0.2762092 0.5876615 -0.7605014
vn 0.3306875 0.2763567 -0.9023706
vn 0.5174704 0.5876615 -0.6219955
vn -0.09735656 0.9612272 -0.258
vn 0.003817558 0.9612272 -0.2757312
vn 0.09720898 0.9612272 -0.2580556
vn 0.1828178 0.9612272 -0.206446
vn 0.2450787 0.9612272 -0.1264069
vn 0.2761748 0.9611074 0
vn -0.1829653 0.9612272 -0.2063153
vn 0.2761748 0.9611074 0
vn -0.2452263 0.9612272 -0.1261206
vn 0.2450787 0.9612272 0.1264069
vn -0.276311 0.9610683 0
vn 0.1828178 0.9612272 0.206446
vn -0.276311 0.9610683 0
vn 0.09720898 0.9612272 0.2580556
vn -0.2452263 0.9612272 0.1261206
vn 0.003817558 0.9612272 0.2757312
vn -0.1829653 0.9612272 0.2063153
vn -0.09735656 0.9612272 0.258
vn 0.5330356 0.8367053 0.1256869
vn 0.5330356 0.8367053 -0.1256869
vn 0.4707747 0.8367053 -0.2798132
vn 0.3462527 0.8367053 -0.4243033
vn 0.1828178 0.8367053 -0.5162382
vn 0.003817558 0.8367053 -0.54764
vn 0.4707747 0.8367053 0.2798132
vn -0.1829653 0.8367053 -0.5161859
vn 0.3462527 0.8367053 0.4243033
vn -0.3464003 0.8367053 -0.4241828
vn 0.1828178 0.8367053 0.5162382
vn -0.4709222 0.8367053 -0.2795647
vn 0.003817558 0.8367053 0.54764
vn -0.5331831 0.8367053 -0.1250598
vn -0.1829653 0.8367053 0.5161859
vn -0.5331831 0.8367053 0.1250598
vn -0.3464003 0.8367053 0.4241828
vn -0.4709222 0.8367053 0.2795647
vn 0.003817558 -0.01938277 0.9998049
vn -0.3386177 -0.01938277 0.9407244
vn -0.6421398 -0.01938277 0.7663425
vn -0.8678358 -0.01938277 0.496473
vn -0.984575 -0.01938277 0.1738859
vn -0.984575 -0.01938277 -0.1738859
vn 0.3384702 -0.01938277 0.9407775
vn -0.8678358 -0.01938277 -0.496473
vn 0.6419923 -0.01938277 0.7664661
vn -0.6421398 -0.01938277 -0.7663425
vn 0.8676882 -0.01938277 0.4967308
vn -0.3386177 -0.01938277 -0.9407244
vn 0.9844275 -0.01938277 0.1747191
vn 0.003817558 -0.01938277 -0.9998049
vn 0.9844275 -0.01938277 -0.1747191
vn 0.3384702 -0.01938277 -0.9407775
vn 0.8676882 -0.01938277 -0.4967308
vn 0.6419923 -0.01938277 -0.7664661
vn 0.7742968 -0.6186444 0.1332052
vn 0.7742968 -0.6186444 -0.1332052
vn 0.6809053 -0.6186444 -0.3919783
vn 0.5019051 -0.6186444 -0.6044587
vn 0.2684266 -0.6186444 -0.7383944
vn 0.003817558 -0.6186444 -0.7856618
vn 0.6809053 -0.6186444 0.3919783
vn -0.2685741 -0.6186444 -0.7383407
vn 0.5019051 -0.6186444 0.6044587
vn -0.5020527 -0.6186444 -0.6043362
vn 0.2684266 -0.6186444 0.7383944
vn -0.6810529 -0.6186444 -0.3917218
vn 0.003817558 -0.6186444 0.7856618
vn -0.7744443 -0.6186444 -0.1323444
vn -0.2685741 -0.6186444 0.7383407
vn -0.7744443 -0.6186444 0.1323444
vn -0.5020527 -0.6186444 0.6043362
vn -0.6810529 -0.6186444 0.3917218
vn 0.2139482 -0.7742968 0.5955591
vn 0.003817558 -0.7742968 0.6328111
vn -0.2140958 -0.7742968 0.5955061
vn -0.4086612 -0.7742968 0.4831775
vn -0.5487484 -0.7742968 0.3151821
vn -0.6187919 -0.7742968 0.1325182
vn 0.4085137 -0.7742968 0.4833023
vn -0.6187919 -0.7742968 -0.1325182
vn 0.5486009 -0.7742968 0.3154387
vn -0.5487484 -0.7742968 -0.3151821
vn 0.6186444 -0.7742968 0.1332051
vn -0.4086612 -0.7742968 -0.4831775
vn 0.6186444 -0.7742968 -0.1332051
vn -0.2140958 -0.7742968 -0.5955061
vn 0.5486009 -0.7742968 -0.3154387
vn 0.003817558 -0.7742968 -0.6328111
vn 0.4085137 -0.7742968 -0.4833023
vn 0.2139482 -0.7742968 -0.5955591
vn 0.439389 -0.898297 0
vn 0.3851659 -0.8988187 -0.2092183
vn 0.2839918 -0.8988187 -0.3338767
vn 0.1516873 -0.8988187 -0.4112372
vn 0.003817558 -0.8988187 -0.438304
vn -0.1518348 -0.8988187 -0.4111827
vn 0.439389 -0.898297 0
vn -0.2841394 -0.8988187 -0.3337511
vn 0.3851659 -0.8988187 0.2092183
vn -0.3853134 -0.8988187 -0.2089464
vn 0.2839918 -0.8988187 0.3338767
vn -0.4395079 -0.8982387 0
vn 0.1516873 -0.8988187 0.4112372
vn -0.4395079 -0.8982387 0
vn 0.003817558 -0.8988187 0.438304
vn -0.3853134 -0.8988187 0.2089464
vn -0.1518348 -0.8988187 0.4111827
vn -0.2841394 -0.8988187 0.3337511
vn 0.1205568 -0.9844275 0.1279395
vn 0.06607848 -0.9844275 0.1628991
vn 0.003817558 -0.9999927 0
vn 0.1594699 -0.9844275 0.07397138
vn 0.003817558 -0.9844275 0.1757494
vn -0.06622601 -0.9844275 0.1628391
vn 0.1825879 -0.9831896 0
vn -0.1207044 -0.9844275 0.1278001
vn 0.1825879 -0.9831896 0
vn -0.1596174 -0.9844275 0.07365282
vn 0.1594699 -0.9844275 -0.07397138
vn -0.1827303 -0.9831631 0
vn 0.1205568 -0.9844275 -0.1279395
vn -0.1827303 -0.9831631 0
vn 0.06607848 -0.9844275 -0.1628991
vn -0.1596174 -0.9844275 -0.07365282
vn 0.003817558 -0.9844275 -0.1757494
vn -0.1207044 -0.9844275 -0.1278001
vn -0.06622601 -0.9844275 -0.1628391
g BonsaiDish4_0
f 3/3/3 2/2/2 1/1/1
f 4/4/4 3/3/3 1/1/1
f 5/5/5 3/3/3 4/4/4
f 1/1/1 2/2/2 6/6/6
f 2/2/2 7/7/7 6/6/6
f 8/8/8 5/5/5 4/4/4
f 9/9/9 5/5/5 8/8/8
f 6/6/6 7/7/7 10/10/10
f 7/7/7 11/11/11 10/10/10
f 12/12/12 9/9/9 8/8/8
f 13/13/13 9/9/9 12/12/12
f 10/10/10 11/11/11 14/14/14
f 11/11/11 15/15/15 14/14/14
f 16/16/16 13/13/13 12/12/12
f 17/17/17 13/13/13 16/16/16
f 14/14/14 15/15/15 18/18/18
f 15/15/15 19/19/19 18/18/18
f 20/20/20 17/17/17 16/16/16
f 21/21/21 17/17/17 20/20/20
f 18/18/18 19/19/19 22/22/22
f 19/19/19 23/23/23 22/22/22
f 24/24/24 21/21/21 20/20/20
f 25/25/25 21/21/21 24/24/24
f 22/22/22 23/23/23 26/26/26
f 23/23/23 27/27/27 26/26/26
f 28/28/28 25/25/25 24/24/24
f 29/29/29 25/25/25 28/28/28
f 26/26/26 27/27/27 30/30/30
f 27/27/27 31/31/31 30/30/30
f 32/32/32 29/29/29 28/28/28
f 33/33/33 29/29/29 32/32/32
f 30/30/30 31/31/31 34/34/34
f 31/31/31 35/35/35 34/34/34
f 35/35/35 33/33/33 36/36/36
f 36/36/36 33/33/33 32/32/32
f 34/34/34 35/35/35 36/36/36
f 22/22/22 26/26/26 37/37/37
f 26/26/26 30/30/30 38/38/38
f 37/37/37 26/26/26 38/38/38
f 30/30/30 34/34/34 39/39/39
f 38/38/38 30/30/30 39/39/39
f 34/34/34 36/36/36 40/40/40
f 39/39/39 34/34/34 40/40/40
f 36/36/36 32/32/32 41/41/41
f 40/40/40 36/36/36 41/41/41
f 32/32/32 28/28/28 42/42/42
f 41/41/41 32/32/32 42/42/42
f 43/43/43 22/22/22 37/37/37
f 18/18/18 22/22/22 43/43/43
f 42/42/42 28/28/28 44/44/44
f 28/28/28 24/24/24 44/44/44
f 45/45/45 18/18/18 43/43/43
f 14/14/14 18/18/18 45/45/45
f 46/46/46 44/44/44 24/24/24
f 20/20/20 46/46/46 24/24/24
f 47/47/47 14/14/14 45/45/45
f 10/10/10 14/14/14 47/47/47
f 48/48/48 46/46/46 20/20/20
f 16/16/16 48/48/48 20/20/20
f 49/49/49 10/10/10 47/47/47
f 6/6/6 10/10/10 49/49/49
f 48/48/48 16/16/16 50/50/50
f 16/16/16 12/12/12 50/50/50
f 51/51/51 6/6/6 49/49/49
f 6/6/6 51/51/51 1/1/1
f 50/50/50 12/12/12 52/52/52
f 12/12/12 8/8/8 52/52/52
f 51/51/51 53/53/53 1/1/1
f 4/4/4 1/1/1 53/53/53
f 8/8/8 4/4/4 54/54/54
f 52/52/52 8/8/8 54/54/54
f 54/54/54 4/4/4 53/53/53
f 49/49/49 47/47/47 55/55/55
f 51/51/51 49/49/49 56/56/56
f 56/56/56 49/49/49 55/55/55
f 53/53/53 51/51/51 57/57/57
f 57/57/57 51/51/51 56/56/56
f 54/54/54 53/53/53 58/58/58
f 58/58/58 53/53/53 57/57/57
f 52/52/52 54/54/54 59/59/59
f 59/59/59 54/54/54 58/58/58
f 50/50/50 52/52/52 60/60/60
f 60/60/60 52/52/52 59/59/59
f 55/55/55 47/47/47 61/61/61
f 47/47/47 45/45/45 61/61/61
f 62/62/62 50/50/50 60/60/60
f 48/48/48 50/50/50 62/62/62
f 61/61/61 45/45/45 63/63/63
f 45/45/45 43/43/43 63/63/63
f 64/64/64 48/48/48 62/62/62
f 46/46/46 48/48/48 64/64/64
f 63/63/63 43/43/43 65/65/65
f 43/43/43 37/37/37 65/65/65
f 66/66/66 46/46/46 64/64/64
f 44/44/44 46/46/46 66/66/66
f 65/65/65 37/37/37 67/67/67
f 37/37/37 38/38/38 67/67/67
f 68/68/68 44/44/44 66/66/66
f 42/42/42 44/44/44 68/68/68
f 67/67/67 38/38/38 69/69/69
f 38/38/38 39/39/39 69/69/69
f 70/70/70 42/42/42 68/68/68
f 41/41/41 42/42/42 70/70/70
f 69/69/69 39/39/39 71/71/71
f 39/39/39 40/40/40 71/71/71
f 40/40/40 41/41/41 72/72/72
f 72/72/72 41/41/41 70/70/70
f 71/71/71 40/40/40 72/72/72
f 65/65/65 67/67/67 73/73/73
f 67/67/67 69/69/69 74/74/74
f 73/73/73 67/67/67 74/74/74
f 69/69/69 71/71/71 75/75/75
f 74/74/74 69/69/69 75/75/75
f 71/71/71 72/72/72 76/76/76
f 75/75/75 71/71/71 76/76/76
f 72/72/72 70/70/70 77/77/77
f 76/76/76 72/72/72 77/77/77
f 70/70/70 68/68/68 78/78/78
f 77/77/77 70/70/70 78/78/78
f 79/79/79 65/65/65 73/73/73
f 63/63/63 65/65/65 79/79/79
f 80/80/80 78/78/78 68/68/68
f 66/66/66 80/80/80 68/68/68
f 81/81/81 63/63/63 79/79/79
f 61/61/61 63/63/63 81/81/81
f 82/82/82 80/80/80 66/66/66
f 64/64/64 82/82/82 66/66/66
f 83/83/83 61/61/61 81/81/81
f 55/55/55 61/61/61 83/83/83
f 82/82/82 64/64/64 84/84/84
f 64/64/64 62/62/62 84/84/84
f 85/85/85 55/55/55 83/83/83
f 56/56/56 55/55/55 85/85/85
f 84/84/84 62/62/62 86/86/86
f 62/62/62 60/60/60 86/86/86
f 87/87/87 56/56/56 85/85/85
f 57/57/57 56/56/56 87/87/87
f 86/86/86 60/60/60 88/88/88
f 60/60/60 59/59/59 88/88/88
f 89/89/89 57/57/57 87/87/87
f 57/57/57 89/89/89 58/58/58
f 59/59/59 58/58/58 90/90/90
f 88/88/88 59/59/59 90/90/90
f 89/89/89 90/90/90 58/58/58
f 85/85/85 83/83/83 91/91/91
f 87/87/87 85/85/85 92/92/92
f 85/85/85 91/91/91 92/92/92
f 89/89/89 87/87/87 93/93/93
f 87/87/87 92/92/92 93/93/93
f 90/90/90 89/89/89 94/94/94
f 89/89/89 93/93/93 94/94/94
f 88/88/88 90/90/90 95/95/95
f 90/90/90 94/94/94 95/95/95
f 86/86/86 88/88/88 96/96/96
f 88/88/88 95/95/95 96/96/96
f 83/83/83 97/97/97 91/91/91
f 83/83/83 81/81/81 97/97/97
f 86/86/86 96/96/96 98/98/98
f 84/84/84 86/86/86 98/98/98
f 81/81/81 99/99/99 97/97/97
f 81/81/81 79/79/79 99/99/99
f 84/84/84 98/98/98 100/100/100
f 82/82/82 84/84/84 100/100/100
f 79/79/79 101/101/101 99/99/99
f 79/79/79 73/73/73 101/101/101
f 82/82/82 100/100/100 102/102/102
f 80/80/80 82/82/82 102/102/102
f 73/73/73 103/103/103 101/101/101
f 73/73/73 74/74/74 103/103/103
f 80/80/80 102/102/102 104/104/104
f 78/78/78 80/80/80 104/104/104
f 74/74/74 105/105/105 103/103/103
f 74/74/74 75/75/75 105/105/105
f 78/78/78 104/104/104 106/106/106
f 77/77/77 78/78/78 106/106/106
f 75/75/75 107/107/107 105/105/105
f 75/75/75 76/76/76 107/107/107
f 76/76/76 77/77/77 108/108/108
f 77/77/77 106/106/106 108/108/108
f 76/76/76 108/108/108 107/107/107
f 101/101/101 103/103/103 109/109/109
f 103/103/103 105/105/105 110/110/110
f 103/103/103 110/110/110 109/109/109
f 105/105/105 107/107/107 111/111/111
f 105/105/105 111/111/111 110/110/110
f 107/107/107 108/108/108 112/112/112
f 107/107/107 112/112/112 111/111/111
f 108/108/108 106/106/106 113/113/113
f 108/108/108 113/113/113 112/112/112
f 106/106/106 104/104/104 114/114/114
f 106/106/106 114/114/114 113/113/113
f 101/101/101 109/109/109 115/115/115
f 99/99/99 101/101/101 115/115/115
f 104/104/104 116/116/116 114/114/114
f 104/104/104 102/102/102 116/116/116
f 99/99/99 115/115/115 117/117/117
f 97/97/97 99/99/99 117/117/117
f 102/102/102 118/118/118 116/116/116
f 102/102/102 100/100/100 118/118/118
f 97/97/97 117/117/117 119/119/119
f 91/91/91 97/97/97 119/119/119
f 100/100/100 120/120/120 118/118/118
f 100/100/100 98/98/98 120/120/120
f 91/91/91 119/119/119 121/121/121
f 92/92/92 91/91/91 121/121/121
f 98/98/98 122/122/122 120/120/120
f 98/98/98 96/96/96 122/122/122
f 92/92/92 121/121/121 123/123/123
f 93/93/93 92/92/92 123/123/123
f 96/96/96 124/124/124 122/122/122
f 96/96/96 95/95/95 124/124/124
f 93/93/93 123/123/123 125/125/125
f 94/94/94 93/93/93 125/125/125
f 95/95/95 94/94/94 126/126/126
f 95/95/95 126/126/126 124/124/124
f 94/94/94 125/125/125 126/126/126
f 121/121/121 119/119/119 127/127/127
f 123/123/123 121/121/121 128/128/128
f 121/121/121 127/127/127 128/128/128
f 125/125/125 123/123/123 129/129/129
f 123/123/123 128/128/128 129/129/129
f 126/126/126 125/125/125 130/130/130
f 125/125/125 129/129/129 130/130/130
f 124/124/124 126/126/126 131/131/131
f 126/126/126 130/130/130 131/131/131
f 122/122/122 124/124/124 132/132/132
f 124/124/124 131/131/131 132/132/132
f 119/119/119 133/133/133 127/127/127
f 119/119/119 117/117/117 133/133/133
f 122/122/122 132/132/132 134/134/134
f 120/120/120 122/122/122 134/134/134
f 117/117/117 135/135/135 133/133/133
f 117/117/117 115/115/115 135/135/135
f 120/120/120 134/134/134 136/136/136
f 118/118/118 120/120/120 136/136/136
f 115/115/115 137/137/137 135/135/135
f 115/115/115 109/109/109 137/137/137
f 118/118/118 136/136/136 138/138/138
f 116/116/116 118/118/118 138/138/138
f 109/109/109 139/139/139 137/137/137
f 109/109/109 110/110/110 139/139/139
f 116/116/116 138/138/138 140/140/140
f 114/114/114 116/116/116 140/140/140
f 110/110/110 141/141/141 139/139/139
f 110/110/110 111/111/111 141/141/141
f 114/114/114 140/140/140 142/142/142
f 113/113/113 114/114/114 142/142/142
f 111/111/111 143/143/143 141/141/141
f 111/111/111 112/112/112 143/143/143
f 112/112/112 113/113/113 144/144/144
f 113/113/113 142/142/142 144/144/144
f 112/112/112 144/144/144 143/143/143
f 137/137/137 139/139/139 145/145/145
f 139/139/139 141/141/141 146/146/146
f 139/139/139 146/146/146 145/145/145
f 145/145/145 146/146/146 147/147/147
f 148/148/148 145/145/145 147/147/147
f 137/137/137 145/145/145 148/148/148
f 146/146/146 149/149/149 147/147/147
f 141/141/141 149/149/149 146/146/146
f 141/141/141 143/143/143 149/149/149
f 135/135/135 137/137/137 148/148/148
f 143/143/143 150/150/150 149/149/149
f 143/143/143 144/144/144 150/150/150
f 149/149/149 150/150/150 147/147/147
f 135/135/135 148/148/148 151/151/151
f 151/151/151 148/148/148 147/147/147
f 133/133/133 135/135/135 151/151/151
f 144/144/144 152/152/152 150/150/150
f 150/150/150 152/152/152 147/147/147
f 144/144/144 142/142/142 152/152/152
f 133/133/133 151/151/151 153/153/153
f 153/153/153 151/151/151 147/147/147
f 127/127/127 133/133/133 153/153/153
f 142/142/142 154/154/154 152/152/152
f 152/152/152 154/154/154 147/147/147
f 142/142/142 140/140/140 154/154/154
f 127/127/127 153/153/153 155/155/155
f 155/155/155 153/153/153 147/147/147
f 154/154/154 156/156/156 147/147/147
f 140/140/140 156/156/156 154/154/154
f 157/157/157 155/155/155 147/147/147
f 128/128/128 127/127/127 155/155/155
f 128/128/128 155/155/155 157/157/157
f 140/140/140 138/138/138 156/156/156
f 129/129/129 128/128/128 157/157/157
f 138/138/138 158/158/158 156/156/156
f 156/156/156 158/158/158 147/147/147
f 138/138/138 136/136/136 158/158/158
f 129/129/129 157/157/157 159/159/159
f 159/159/159 157/157/157 147/147/147
f 130/130/130 129/129/129 159/159/159
f 136/136/136 160/160/160 158/158/158
f 158/158/158 160/160/160 147/147/147
f 136/136/136 134/134/134 160/160/160
f 130/130/130 159/159/159 161/161/161
f 161/161/161 159/159/159 147/147/147
f 131/131/131 130/130/130 161/161/161
f 134/134/134 162/162/162 160/160/160
f 160/160/160 162/162/162 147/147/147
f 134/134/134 132/132/132 162/162/162
f 131/131/131 161/161/161 163/163/163
f 163/163/163 161/161/161 147/147/147
f 162/162/162 163/163/163 147/147/147
f 132/132/132 163/163/163 162/162/162
f 132/132/132 131/131/131 163/163/163
