g BonsaiDish4Fill(Clone)
v -0.2922966 0.2499045 0.2922966
v -0.3180169 0.2499045 0.1979105
v -0.212936 0.2499045 0.212936
v -0.1979105 0.2499045 0.3180169
v -0.1067896 0.2684856 0.2230221
v -0.0999687 0.2499045 0.3343705
v 6.943941E-06 0.2910652 0.2266746
v 6.943941E-06 0.2499045 0.3400154
v 0.1067897 0.2921306 0.2230221
v 0.09996876 0.2499045 0.3343705
v 0.212936 0.273591 0.212936
v 0.1979106 0.2499045 0.3180169
v 0.3180169 0.2499045 0.1979105
v 0.2922966 0.2499045 0.2922966
v -0.2230221 0.2499045 0.1067896
v -0.3343705 0.2499045 0.0999687
v -0.111549 0.2921444 0.111549
v 6.943941E-06 0.3377187 0.1133339
v 0.1115491 0.3377187 0.111549
v 0.2230221 0.2949946 0.1067896
v 0.3343706 0.2716816 0.0999687
v -0.1133339 0.2910652 6.884336E-06
v -0.2266746 0.2499184 6.884336E-06
v -0.2379229 0.322804 0.002262086
v -0.2302027 0.3209362 0.108782
v 6.943941E-06 0.3377187 6.884336E-06
v 0.1133339 0.3377187 6.884336E-06
v 0.2266747 0.3377187 6.884336E-06
v 0.3400155 0.2910652 6.884336E-06
v -0.111549 0.266272 -0.1115491
v -0.2230221 0.2573757 -0.1067897
v -0.3400154 0.2595064 6.884336E-06
v -0.3343705 0.288312 -0.09996876
v 6.943941E-06 0.2921444 -0.1133339
v 0.1115491 0.3377187 -0.1115491
v 0.2230221 0.3377187 -0.1067897
v 0.3343706 0.2921583 -0.09996876
v -0.212936 0.288312 -0.212936
v -0.3180169 0.288312 -0.1979106
v -0.1067896 0.2573757 -0.2230221
v 6.943941E-06 0.2649714 -0.2266747
v 0.1067897 0.2921306 -0.2230221
v 0.212936 0.2951329 -0.212936
v 0.3180169 0.2802043 -0.1979106
v -0.1979105 0.288312 -0.3180169
v -0.2922966 0.288312 -0.2922966
v -0.0999687 0.2597831 -0.3343706
v 6.943941E-06 0.2499045 -0.3400155
v 0.09996876 0.2499045 -0.3343706
v 0.1979106 0.2500291 -0.3180169
v 0.2922966 0.2499045 -0.2922966
v 0.4224476 0.2499045 -0.1803118
v 0.4456222 0.2499045 -0.0920825
v 0.3838049 0.2499045 -0.260807
v 0.3322952 0.2499045 -0.3322952
v 0.260807 0.2499045 -0.3838049
v 0.1803118 0.2499045 -0.4224476
v 0.0920825 0.2499045 -0.4456222
v 6.943941E-06 0.2499045 -0.4533562
v -0.09208247 0.2499045 -0.4456222
v -0.1803117 0.2575971 -0.4224476
v -0.2608069 0.2627439 -0.3838049
v 0.4533562 0.2499045 6.884336E-06
v 0.4456222 0.2499045 0.09208247
v 0.4224476 0.2499045 0.1803117
v 0.3838049 0.2499045 0.2608069
v 0.260807 0.2499045 0.3838049
v 0.1803118 0.2499045 0.4224476
v 0.0920825 0.2499045 0.4456221
v 6.943941E-06 0.2499045 0.4533562
v -0.09208247 0.2499045 0.4456221
v -0.1803117 0.2499045 0.4224476
v -0.2608069 0.2499045 0.3838049
v -0.3322952 0.2499045 0.3322952
v -0.3838049 0.2499045 0.2608069
v 0.3322952 0.2499045 0.3322952
v -0.4224476 0.2499045 0.1803117
v -0.4456221 0.2499045 0.09208247
v -0.4533562 0.262232 6.884336E-06
v -0.4456221 0.288312 -0.0920825
v -0.4224476 0.288312 -0.1803118
v -0.3838049 0.288312 -0.260807
v -0.3322952 0.27586 -0.3322952
v -0.3407072 0.3078063 0.1055168
v -0.3506688 0.3188747 0.006080717
v -0.267614 0.3490777 0.07777652
v -0.3164258 0.3462829 0.07749978
v -0.3208947 0.3476388 0.0387741
v -0.2714742 0.3523705 0.03633904
vt 0.4982254 0.4982254
vt 0.4707846 0.4707846
vt 0.5057582 0.5057582
vt 0.5488026 0.5488026
vt 0.5412698 0.5412698
vt 0.6036842 0.6036842
vt 0.6235923 0.6235923
vt 0.6822403 0.6822403
vt 0.7451928 0.7451928
vt 0.7451928 0.7451928
vt 0.8076071 0.8076071
vt 0.7763999 0.7763999
vt 0.8156779 0.8156779
vt 0.7451928 0.7451928
vt 0.572477 0.572477
vt 0.3922285 0.3922285
vt 0.4471102 0.4471102
vt 0.5057582 0.5057582
vt 0.6822403 0.6822403
vt 0.796308 0.796308
vt 0.8393524 0.8393524
vt 0.2625572 0.2625572
vt 0.3335805 0.3335805
vt 0.2550245 0.2550245
vt 0.5213618 0.5213618
vt 0.3567169 0.3567169
vt 0.5843142 0.5843142
vt 0.7451928 0.7451928
vt 0.8431188 0.8431188
vt 0.2550245 0.2550245
vt 0.3841577 0.3841577
vt 0.2001428 0.2001428
vt 0.4234357 0.4234357
vt 0.3136725 0.3136725
vt 0.4589474 0.4589474
vt 0.6429623 0.6429623
vt 0.7882372 0.7882372
vt 0.4115985 0.4115985
vt 0.3448797 0.3448797
vt 0.4234357 0.4234357
vt 0.3647877 0.3647877
vt 0.4589474 0.4589474
vt 0.5843142 0.5843142
vt 0.7096811 0.7096811
vt 0.3884621 0.3884621
vt 0.3491841 0.3491841
vt 0.4664801 0.4664801
vt 0.4508765 0.4508765
vt 0.4982254 0.4982254
vt 0.5606398 0.5606398
vt 0.513829 0.513829
vt 0.09791234 0.09791234
vt 0.09791234 0.09791234
vt 0.09791234 0.09791234
vt 0.09791234 0.09791234
vt 0.09791234 0.09791234
vt 0.09791234 0.09791234
vt 0.09791234 0.09791234
vt 0.09791234 0.09791234
vt 0.09791234 0.09791234
vt 0.09791234 0.09791234
vt 0.09791234 0.09791234
vt 0.09791234 0.09791234
vt 0.09791234 0.09791234
vt 0.09791234 0.09791234
vt 0.09791234 0.09791234
vt 0.09791234 0.09791234
vt 0.09791234 0.09791234
vt 0.09791234 0.09791234
vt 0.09791234 0.09791234
vt 0.09791234 0.09791234
vt 0.09791234 0.09791234
vt 0.09791234 0.09791234
vt 0.09791234 0.09791234
vt 0.09791234 0.09791234
vt 0.09791234 0.09791234
vt 0.09791234 0.09791234
vt 0.09791234 0.09791234
vt 0.09791234 0.09791234
vt 0.09791234 0.09791234
vt 0.09791234 0.09791234
vt 0.09791234 0.09791234
vt 0.09791234 0.09791234
vt 0.3841577 0.3841577
vt 0.152794 0.152794
vt 0.5880806 0.5880806
vt 0.4471102 0.4471102
vt 0.2824653 0.2824653
vt 0.3373469 0.3373469
vn 0.001041472 0.9999995 0
vn 0.001041472 0.9999995 0
vn -0.1003298 0.9936637 0.05065903
vn -0.03062267 0.999531 0
vn -0.1953653 0.9619852 0.1908323
vn -0.05597985 0.9936637 0.09746104
vn -0.1003298 0.9429781 0.3173741
vn -0.02430129 0.987328 0.1568212
vn 0.1024127 0.9366423 0.3349817
vn 0.03272003 0.987328 0.155283
vn 0.1974483 0.9493138 0.2445762
vn 0.06439853 0.9936637 0.09211513
vn 0.1150841 0.987328 0.1092662
vn 0.05165808 0.9986648 0
vn 0.1087484 0.9429781 0.3145888
vn -0.3220793 0.860614 0.3944724
vn -0.328415 0.9366423 0.1218389
vn -0.1700224 0.9683209 0.1828851
vn 0.1150841 0.9683209 0.2216084
vn 0.2481339 0.9366423 0.2472462
vn 0.2227911 0.9556494 0.1926092
vn -0.3157436 0.9429781 -0.1053486
vn 0.1847768 0.9493138 -0.2542849
vn 0.5775903 0.4868075 -0.6552922
vn 0.6156046 0.4361219 0.6563755
vn -0.2207081 0.9683209 -0.1168013
vn 0.001041472 0.9999995 0
vn 0.2227911 0.9683209 0.1127774
vn 0.3241623 0.9429781 0.07557207
vn -0.1383439 0.987328 -0.07774566
vn 0.05172712 0.9936637 0.09978306
vn -0.265058 0.9493138 -0.1689601
vn 0.08340561 0.987328 0.1350071
vn -0.2397152 0.9429781 -0.2309307
vn -0.1130012 0.9683209 -0.2226777
vn 0.1721054 0.9683209 -0.1809263
vn 0.3368337 0.9366423 -0.09614647
vn 0.1277555 0.987328 0.09413798
vn 0.04534471 0.9989714 0
vn 0.06426544 0.9979329 0
vn -0.1383439 0.9746566 -0.1757992
vn -0.09399402 0.9429781 -0.3193077
vn 0.1150841 0.923971 -0.3647373
vn 0.2417982 0.9366423 -0.2534457
vn 0.08974135 0.987328 -0.1308815
vn -0.03063703 0.987328 -0.1557074
vn 0.1212919 0.9926169 0
vn -0.01162994 0.9936637 -0.1117906
vn -0.02430129 0.987328 -0.1568212
vn 0.03905571 0.9809923 -0.1900758
vn 0.08340561 0.9809923 -0.1752074
vn 0.2924838 0.9429781 -0.1588887
vn 0.3431694 0.9366423 -0.07025568
vn 0.1657698 0.9683209 -0.1867486
vn 0.001041472 0.9999995 0
vn 0.001041472 0.9999995 0
vn 0.001041472 0.9999995 0
vn 0.001041472 0.9999995 0
vn 0.02637513 0.9996521 0
vn 0.09607702 0.9936637 -0.05832304
vn 0.07706994 0.9746566 -0.210011
vn -0.07498693 0.9556494 -0.2848002
vn 0.3114909 0.9493138 0.04215086
vn 0.203784 0.9683209 0.1443146
vn 0.07706994 0.9936637 0.08180824
vn 0.001041472 0.9999995 0
vn 0.001041472 0.9999995 0
vn 0.001041472 0.9999995 0
vn 0.001041472 0.9999995 0
vn 0.001041472 0.9999995 0
vn 0.001041472 0.9999995 0
vn 0.001041472 0.9999995 0
vn 0.001041472 0.9999995 0
vn 0.001041472 0.9999995 0
vn 0.001041472 0.9999995 0
vn 0.001041472 0.9999995 0
vn 0.001041472 0.9999995 0
vn 0.00737701 0.9999728 0
vn 0.01371288 0.9809923 0.1935616
vn 0.01371288 0.987328 0.1580993
vn 0.001041472 0.9999995 0
vn -0.01162916 0.9999323 0
vn -0.04964411 0.9683209 -0.2447245
vn -0.6705429 0.2523866 0.6976197
vn -0.7275643 0.3600935 -0.5839373
vn 0.2227911 0.9112995 0.3462619
vn -0.3727649 0.8416069 0.3908249
vn -0.3981077 0.8922924 -0.2128954
vn 0.203784 0.9429781 -0.2631813
g BonsaiDish4Fill(Clone)_0
f 3/3/3 2/2/2 1/1/1
f 4/4/4 3/3/3 1/1/1
f 5/5/5 3/3/3 4/4/4
f 6/6/6 5/5/5 4/4/4
f 7/7/7 5/5/5 6/6/6
f 8/8/8 7/7/7 6/6/6
f 9/9/9 7/7/7 8/8/8
f 10/10/10 9/9/9 8/8/8
f 11/11/11 9/9/9 10/10/10
f 12/12/12 11/11/11 10/10/10
f 13/13/13 11/11/11 12/12/12
f 14/14/14 13/13/13 12/12/12
f 3/3/3 15/15/15 2/2/2
f 15/15/15 16/16/16 2/2/2
f 17/17/17 15/15/15 3/3/3
f 5/5/5 17/17/17 3/3/3
f 18/18/18 17/17/17 5/5/5
f 7/7/7 18/18/18 5/5/5
f 19/19/19 18/18/18 7/7/7
f 9/9/9 19/19/19 7/7/7
f 20/20/20 19/19/19 9/9/9
f 11/11/11 20/20/20 9/9/9
f 21/21/21 20/20/20 11/11/11
f 13/13/13 21/21/21 11/11/11
f 17/17/17 22/22/22 15/15/15
f 22/22/22 23/23/23 15/15/15
f 23/23/23 24/24/24 15/15/15
f 24/24/24 25/25/25 15/15/15
f 15/15/15 25/25/25 16/16/16
f 26/26/26 22/22/22 17/17/17
f 18/18/18 26/26/26 17/17/17
f 27/27/27 26/26/26 18/18/18
f 19/19/19 27/27/27 18/18/18
f 28/28/28 27/27/27 19/19/19
f 20/20/20 28/28/28 19/19/19
f 29/29/29 28/28/28 20/20/20
f 21/21/21 29/29/29 20/20/20
f 22/22/22 30/30/30 23/23/23
f 30/30/30 31/31/31 23/23/23
f 23/23/23 31/31/31 32/32/32
f 31/31/31 33/33/33 32/32/32
f 34/34/34 30/30/30 22/22/22
f 26/26/26 34/34/34 22/22/22
f 35/35/35 34/34/34 26/26/26
f 27/27/27 35/35/35 26/26/26
f 36/36/36 35/35/35 27/27/27
f 28/28/28 36/36/36 27/27/27
f 37/37/37 36/36/36 28/28/28
f 29/29/29 37/37/37 28/28/28
f 31/31/31 38/38/38 33/33/33
f 38/38/38 39/39/39 33/33/33
f 40/40/40 38/38/38 31/31/31
f 30/30/30 40/40/40 31/31/31
f 41/41/41 40/40/40 30/30/30
f 34/34/34 41/41/41 30/30/30
f 42/42/42 41/41/41 34/34/34
f 35/35/35 42/42/42 34/34/34
f 43/43/43 42/42/42 35/35/35
f 36/36/36 43/43/43 35/35/35
f 44/44/44 43/43/43 36/36/36
f 37/37/37 44/44/44 36/36/36
f 38/38/38 45/45/45 39/39/39
f 45/45/45 46/46/46 39/39/39
f 47/47/47 45/45/45 38/38/38
f 40/40/40 47/47/47 38/38/38
f 48/48/48 47/47/47 40/40/40
f 41/41/41 48/48/48 40/40/40
f 49/49/49 48/48/48 41/41/41
f 42/42/42 49/49/49 41/41/41
f 50/50/50 49/49/49 42/42/42
f 43/43/43 50/50/50 42/42/42
f 51/51/51 50/50/50 43/43/43
f 44/44/44 51/51/51 43/43/43
f 52/52/52 44/44/44 37/37/37
f 53/53/53 52/52/52 37/37/37
f 54/54/54 51/51/51 44/44/44
f 52/52/52 54/54/54 44/44/44
f 54/54/54 55/55/55 51/51/51
f 55/55/55 56/56/56 51/51/51
f 51/51/51 56/56/56 50/50/50
f 56/56/56 57/57/57 50/50/50
f 50/50/50 57/57/57 49/49/49
f 57/57/57 58/58/58 49/49/49
f 49/49/49 58/58/58 48/48/48
f 58/58/58 59/59/59 48/48/48
f 48/48/48 59/59/59 47/47/47
f 59/59/59 60/60/60 47/47/47
f 47/47/47 60/60/60 45/45/45
f 60/60/60 61/61/61 45/45/45
f 61/61/61 62/62/62 46/46/46
f 53/53/53 37/37/37 29/29/29
f 63/63/63 53/53/53 29/29/29
f 63/63/63 29/29/29 21/21/21
f 64/64/64 63/63/63 21/21/21
f 64/64/64 21/21/21 13/13/13
f 65/65/65 64/64/64 13/13/13
f 65/65/65 13/13/13 14/14/14
f 66/66/66 65/65/65 14/14/14
f 66/66/66 14/14/14 67/67/67
f 67/67/67 14/14/14 68/68/68
f 14/14/14 12/12/12 68/68/68
f 68/68/68 12/12/12 69/69/69
f 12/12/12 10/10/10 69/69/69
f 69/69/69 10/10/10 70/70/70
f 10/10/10 8/8/8 70/70/70
f 70/70/70 8/8/8 71/71/71
f 8/8/8 6/6/6 71/71/71
f 71/71/71 6/6/6 72/72/72
f 6/6/6 4/4/4 72/72/72
f 72/72/72 4/4/4 73/73/73
f 4/4/4 1/1/1 73/73/73
f 73/73/73 1/1/1 74/74/74
f 1/1/1 75/75/75 74/74/74
f 76/76/76 66/66/66 67/67/67
f 1/1/1 2/2/2 75/75/75
f 2/2/2 77/77/77 75/75/75
f 2/2/2 16/16/16 77/77/77
f 16/16/16 78/78/78 77/77/77
f 16/16/16 32/32/32 78/78/78
f 32/32/32 79/79/79 78/78/78
f 32/32/32 33/33/33 79/79/79
f 33/33/33 80/80/80 79/79/79
f 33/33/33 39/39/39 80/80/80
f 39/39/39 81/81/81 80/80/80
f 39/39/39 46/46/46 81/81/81
f 46/46/46 82/82/82 81/81/81
f 46/46/46 62/62/62 82/82/82
f 62/62/62 83/83/83 82/82/82
f 16/16/16 84/84/84 32/32/32
f 84/84/84 85/85/85 32/32/32
f 32/32/32 85/85/85 23/23/23
f 85/85/85 24/24/24 23/23/23
f 25/25/25 84/84/84 16/16/16
f 25/25/25 86/86/86 84/84/84
f 86/86/86 87/87/87 84/84/84
f 85/85/85 84/84/84 87/87/87
f 88/88/88 85/85/85 87/87/87
f 24/24/24 85/85/85 88/88/88
f 89/89/89 86/86/86 25/25/25
f 24/24/24 89/89/89 25/25/25
f 89/89/89 24/24/24 88/88/88
f 89/89/89 88/88/88 87/87/87
f 86/86/86 89/89/89 87/87/87
f 45/45/45 61/61/61 46/46/46
