g BonsaiDish3Fill(Clone)
v -0.4786392 0.2465309 0.4786392
v -0.5218766 0.2545704 0.3219036
v -0.3465399 0.2998345 0.3467876
v -0.3218811 0.2339425 0.5162242
v -0.1747838 0.2314428 0.3620784
v -0.163389 0.1920112 0.5429098
v -0.0005730987 0.1773511 0.3680235
v -0.0002127886 0.1741533 0.5527958
v 0.1740655 0.1863138 0.3635421
v 0.1625805 0.1817648 0.5437656
v 0.3465422 0.1873947 0.34672
v 0.3218609 0.1802335 0.51717
v 0.5172174 0.182508 0.3219036
v 0.4753312 0.1711582 0.4753289
v -0.3639925 0.2579483 0.1725769
v -0.5443961 0.2010641 0.1621279
v -0.1810217 0.2649068 0.183679
v 0.001768947 0.2568223 0.189962
v 0.1862711 0.2414865 0.1899844
v 0.3659315 0.2152513 0.1769907
v 0.5447137 0.2017847 0.1631863
v -0.3664246 0.2014244 -0.0001925826
v -0.551805 0.1683658 0.0002577901
v -0.1836115 0.2820441 -0.0005754232
v -0.0003253818 0.3011631 -0.004561365
v 0.1859108 0.2913447 0.001631498
v 0.3694445 0.2115581 0.000483036
v 0.5529108 0.1769232 -1.239777E-05
v -0.3572142 0.2239664 -0.1736151
v -0.5413335 0.1635916 -0.1625355
v -0.1776212 0.3057796 -0.1814294
v -1.007318E-05 0.34949 -0.1843344
v 0.1784343 0.3084369 -0.1814294
v 0.3548744 0.2172105 -0.1736376
v 0.5427545 0.1742659 -0.162558
v -0.3451437 0.214846 -0.3456865
v -0.5152559 0.163389 -0.3210277
v -0.1694917 0.2748379 -0.3585001
v -1.007318E-05 0.3048338 -0.3648731
v 0.1703498 0.2781032 -0.3593783
v 0.3417005 0.2036313 -0.3438624
v 0.5160464 0.1694917 -0.3213654
v -0.3244032 0.2153639 -0.5196044
v -0.475554 0.179693 -0.4754663
v -0.1621053 0.2122563 -0.5428896
v -1.007318E-05 0.2371402 -0.5528883
v 0.1623328 0.2137876 -0.54334
v 0.3205547 0.1943758 -0.5159338
v 0.4758942 0.1833412 -0.4756464
v 0.6869242 0.172712 -0.293171
v 0.7247119 0.1787247 -0.1497445
v 0.6241399 0.1719013 -0.4241219
v 0.5403674 0.1895115 -0.5403674
v 0.426036 0.1965151 -0.6257838
v 0.2944547 0.1897818 -0.6890185
v 0.1500372 0.1803011 -0.7253875
v -1.007318E-05 0.1877776 -0.7391694
v -0.1506429 0.1866741 -0.7268738
v -0.2923356 0.1681181 -0.685528
v -0.4242097 0.1780491 -0.62423
v 0.7372327 0.1724193 -3.492832E-05
v 0.7246894 0.2035637 0.1497647
v 0.6869918 0.1872821 0.2932363
v 0.6241624 0.1651229 0.4241421
v 0.4241219 0.1543136 0.6241601
v 0.2932161 0.1572186 0.6869895
v 0.1497445 0.1485036 0.724687
v -0.0009784102 0.1454859 0.7363972
v -0.1512735 0.1569259 0.7222549
v -0.2935066 0.1634565 0.6828459
v -0.4208767 0.1640195 0.6173592
v -0.5396895 0.1935651 0.5396895
v -0.6246781 0.1845573 0.4243898
v 0.5403674 0.1579843 0.5403652
v -0.6831836 0.1646951 0.293484
v -0.721129 0.1476028 0.151949
v -0.7366449 0.1585923 0.0004379749
v -0.7246645 0.1763377 -0.149767
v -0.6868768 0.1682081 -0.293126
v -0.6241376 0.1695142 -0.4240993
v -0.5403652 0.1814721 -0.5403674
vt 0.5060921 0.5060921
vt 0.5766734 0.5766734
vt 0.7453421 0.7453421
vt 0.6981149 0.6981149
vt 0.8076198 0.8076198
vt 0.7058995 0.7058995
vt 0.7453421 0.7453421
vt 0.6550395 0.6550395
vt 0.7411903 0.7411903
vt 0.6431029 0.6431029
vt 0.7058995 0.7058995
vt 0.5569522 0.5569522
vt 0.4977884 0.4977884
vt 0.376347 0.376347
vt 0.7136843 0.7136843
vt 0.6311664 0.6311664
vt 0.6747608 0.6747608
vt 0.6586723 0.6586723
vt 0.6706089 0.6706089
vt 0.5569522 0.5569522
vt 0.4235742 0.4235742
vt 0.6311664 0.6311664
vt 0.6628242 0.6628242
vt 0.6431029 0.6431029
vt 0.3919164 0.3919164
vt 8.620322E-05 8.620322E-05
vt 0.3135504 0.3135504
vt 0.3452082 0.3452082
vt 0.6078123 0.6078123
vt 0.6586723 0.6586723
vt 0.6586723 0.6586723
vt 0.1448817 0.1448817
vt 8.620322E-05 8.620322E-05
vt 0.3374234 0.3374234
vt 0.348841 0.348841
vt 0.6431029 0.6431029
vt 0.6041794 0.6041794
vt 0.7256208 0.7256208
vt 0.02344032 0.02344032
vt 0.6472548 0.6472548
vt 0.5569522 0.5569522
vt 0.3135504 0.3135504
vt 0.6233817 0.6233817
vt 0.5175097 0.5175097
vt 0.6550395 0.6550395
vt 0.7645444 0.7645444
vt 0.7567596 0.7567596
vt 0.5803063 0.5803063
vt 0.348841 0.348841
vt 8.620322E-05 8.620322E-05
vt 8.620322E-05 8.620322E-05
vt 8.620322E-05 8.620322E-05
vt 8.620322E-05 8.620322E-05
vt 8.620322E-05 8.620322E-05
vt 8.620322E-05 8.620322E-05
vt 8.620322E-05 8.620322E-05
vt 8.620322E-05 8.620322E-05
vt 8.620322E-05 8.620322E-05
vt 8.620322E-05 8.620322E-05
vt 8.620322E-05 8.620322E-05
vt 8.620322E-05 8.620322E-05
vt 8.620322E-05 8.620322E-05
vt 8.620322E-05 8.620322E-05
vt 8.620322E-05 8.620322E-05
vt 8.620322E-05 8.620322E-05
vt 8.620322E-05 8.620322E-05
vt 8.620322E-05 8.620322E-05
vt 8.620322E-05 8.620322E-05
vt 8.620322E-05 8.620322E-05
vt 8.620322E-05 8.620322E-05
vt 8.620322E-05 8.620322E-05
vt 8.620322E-05 8.620322E-05
vt 8.620322E-05 8.620322E-05
vt 8.620322E-05 8.620322E-05
vt 8.620322E-05 8.620322E-05
vt 8.620322E-05 8.620322E-05
vt 8.620322E-05 8.620322E-05
vt 8.620322E-05 8.620322E-05
vt 8.620322E-05 8.620322E-05
vt 8.620322E-05 8.620322E-05
vt 8.620322E-05 8.620322E-05
vn -0.2569759 0.9116234 0.3207898
vn -0.3297145 0.942797 -0.04921538
vn 0.01319552 0.9999129 0
vn 0.03397846 0.942797 0.3316312
vn 0.2054337 0.9635795 0.1712063
vn 0.1586732 0.9687751 0.1905193
vn 0.08073899 0.9791663 0.1863183
vn 0.04956532 0.9895576 0.1353482
vn 0.01839161 0.9843619 0.175195
vn -0.01278207 0.9947532 0.1015023
vn 0.05995655 0.9895576 0.1310765
vn 0.0443697 0.9947532 0.09218144
vn 0.0443697 0.9895576 0.1371392
vn 0.06515214 0.9895576 0.1285731
vn -0.147868 0.9739707 -0.1718025
vn -0.2621716 0.9479926 -0.1804885
vn 0.01839161 0.9947532 0.1006372
vn 0.05476093 0.9635795 0.2617553
vn 0.1119127 0.9635795 0.2428789
vn 0.1430864 0.9843619 0.1027513
vn 0.04950707 0.9987738 0
vn -0.2777584 0.9583839 -0.0659591
vn -0.1582593 0.9843619 -0.07736639
vn -0.215411 0.9739707 0.07056297
vn -0.002390832 0.9791663 0.2030458
vn 0.2314118 0.9635795 0.1340268
vn 0.2573899 0.9635795 0.07256071
vn 0.08073899 0.9947532 -0.06282768
vn -0.3347376 0.9423113 0
vn -0.1165109 0.9931894 0
vn -0.2879295 0.9576516 0
vn -0.01278168 0.9999183 0
vn 0.2989548 0.9531882 -0.04536682
vn 0.3249329 0.942797 -0.0745145
vn 0.09632584 0.9947532 -0.0344593
vn -0.282954 0.9531882 -0.1066263
vn -0.1322812 0.9895576 -0.05724981
vn -0.2361935 0.9479926 -0.2133603
vn -0.007586449 0.9635795 -0.2673145
vn 0.2677811 0.9376014 -0.2218037
vn 0.2729767 0.9583839 -0.08357066
vn 0.09113023 0.9947532 -0.04649068
vn -0.1738461 0.9739707 -0.1454599
vn -0.1165109 0.9931894 0
vn -0.1322812 0.9635795 -0.2324141
vn 0.002804786 0.9635795 -0.2674074
vn 0.148282 0.9635795 -0.2225467
vn 0.1274995 0.9895576 -0.06722872
vn 0.0546818 0.9985039 0
vn -0.007586449 0.9999488 -0.006694975
vn -0.007586449 0.9999488 -0.006694975
vn 0.01319552 0.9999129 0
vn 0.01319599 0.9947532 0.1014495
vn 0.008000404 0.9999488 0.006195595
vn 0.03917408 0.9947532 -0.0945067
vn 0.09113023 0.9791663 -0.1814623
vn 0.008000404 0.9791663 -0.2029022
vn -0.09591189 0.9739707 -0.2053825
vn -0.1166944 0.9739707 -0.1943283
vn -0.1270856 0.9791663 -0.1583747
vn 0.002804786 0.9947532 -0.1022655
vn -0.002390832 0.9999488 -0.009832534
vn 0.008000404 0.9947532 0.1019906
vn 0.0443697 0.9895576 0.1371392
vn 0.09113023 0.9843619 0.1507542
vn 0.03917408 0.9895576 0.1387129
vn -0.007586449 0.9843619 0.1759942
vn 0.02878284 0.9843619 0.1737904
vn 0.08593461 0.9739707 0.2097529
vn 0.01839161 0.9376014 0.3472252
vn -0.1738461 0.8700585 0.4612762
vn -0.3141277 0.849276 0.4243278
vn -0.4388224 0.8752541 0.2033842
vn 0.07554337 0.9895576 0.1227561
vn -0.4076487 0.9116234 -0.05258553
vn -0.2569759 0.9635795 -0.07401328
vn -0.08032507 0.9947532 -0.06335579
vn 0.02358188 0.9997219 0
vn 0.0339606 0.9994231 0
vn -0.002390832 0.9999488 0.009832534
vn -0.007586449 0.9999488 0.006694975
g BonsaiDish3Fill(Clone)_0
f 3/3/3 2/2/2 1/1/1
f 4/4/4 3/3/3 1/1/1
f 5/5/5 3/3/3 4/4/4
f 6/6/6 5/5/5 4/4/4
f 7/7/7 5/5/5 6/6/6
f 8/8/8 7/7/7 6/6/6
f 9/9/9 7/7/7 8/8/8
f 10/10/10 9/9/9 8/8/8
f 11/11/11 9/9/9 10/10/10
f 12/12/12 11/11/11 10/10/10
f 13/13/13 11/11/11 12/12/12
f 14/14/14 13/13/13 12/12/12
f 3/3/3 15/15/15 2/2/2
f 15/15/15 16/16/16 2/2/2
f 17/17/17 15/15/15 3/3/3
f 5/5/5 17/17/17 3/3/3
f 18/18/18 17/17/17 5/5/5
f 7/7/7 18/18/18 5/5/5
f 19/19/19 18/18/18 7/7/7
f 9/9/9 19/19/19 7/7/7
f 20/20/20 19/19/19 9/9/9
f 11/11/11 20/20/20 9/9/9
f 21/21/21 20/20/20 11/11/11
f 13/13/13 21/21/21 11/11/11
f 15/15/15 22/22/22 16/16/16
f 22/22/22 23/23/23 16/16/16
f 24/24/24 22/22/22 15/15/15
f 17/17/17 24/24/24 15/15/15
f 25/25/25 24/24/24 17/17/17
f 18/18/18 25/25/25 17/17/17
f 26/26/26 25/25/25 18/18/18
f 19/19/19 26/26/26 18/18/18
f 27/27/27 26/26/26 19/19/19
f 20/20/20 27/27/27 19/19/19
f 28/28/28 27/27/27 20/20/20
f 21/21/21 28/28/28 20/20/20
f 22/22/22 29/29/29 23/23/23
f 29/29/29 30/30/30 23/23/23
f 31/31/31 29/29/29 22/22/22
f 24/24/24 31/31/31 22/22/22
f 32/32/32 31/31/31 24/24/24
f 25/25/25 32/32/32 24/24/24
f 33/33/33 32/32/32 25/25/25
f 26/26/26 33/33/33 25/25/25
f 34/34/34 33/33/33 26/26/26
f 27/27/27 34/34/34 26/26/26
f 35/35/35 34/34/34 27/27/27
f 28/28/28 35/35/35 27/27/27
f 29/29/29 36/36/36 30/30/30
f 36/36/36 37/37/37 30/30/30
f 38/38/38 36/36/36 29/29/29
f 31/31/31 38/38/38 29/29/29
f 39/39/39 38/38/38 31/31/31
f 32/32/32 39/39/39 31/31/31
f 40/40/40 39/39/39 32/32/32
f 33/33/33 40/40/40 32/32/32
f 41/41/41 40/40/40 33/33/33
f 34/34/34 41/41/41 33/33/33
f 42/42/42 41/41/41 34/34/34
f 35/35/35 42/42/42 34/34/34
f 36/36/36 43/43/43 37/37/37
f 43/43/43 44/44/44 37/37/37
f 45/45/45 43/43/43 36/36/36
f 38/38/38 45/45/45 36/36/36
f 46/46/46 45/45/45 38/38/38
f 39/39/39 46/46/46 38/38/38
f 47/47/47 46/46/46 39/39/39
f 40/40/40 47/47/47 39/39/39
f 48/48/48 47/47/47 40/40/40
f 41/41/41 48/48/48 40/40/40
f 49/49/49 48/48/48 41/41/41
f 42/42/42 49/49/49 41/41/41
f 50/50/50 42/42/42 35/35/35
f 51/51/51 50/50/50 35/35/35
f 52/52/52 49/49/49 42/42/42
f 50/50/50 52/52/52 42/42/42
f 52/52/52 53/53/53 49/49/49
f 53/53/53 54/54/54 49/49/49
f 49/49/49 54/54/54 48/48/48
f 54/54/54 55/55/55 48/48/48
f 48/48/48 55/55/55 47/47/47
f 55/55/55 56/56/56 47/47/47
f 47/47/47 56/56/56 46/46/46
f 56/56/56 57/57/57 46/46/46
f 46/46/46 57/57/57 45/45/45
f 57/57/57 58/58/58 45/45/45
f 45/45/45 58/58/58 43/43/43
f 58/58/58 59/59/59 43/43/43
f 59/59/59 60/60/60 44/44/44
f 51/51/51 35/35/35 28/28/28
f 61/61/61 51/51/51 28/28/28
f 61/61/61 28/28/28 21/21/21
f 62/62/62 61/61/61 21/21/21
f 62/62/62 21/21/21 13/13/13
f 63/63/63 62/62/62 13/13/13
f 63/63/63 13/13/13 14/14/14
f 64/64/64 63/63/63 14/14/14
f 64/64/64 14/14/14 65/65/65
f 65/65/65 14/14/14 66/66/66
f 14/14/14 12/12/12 66/66/66
f 66/66/66 12/12/12 67/67/67
f 12/12/12 10/10/10 67/67/67
f 67/67/67 10/10/10 68/68/68
f 10/10/10 8/8/8 68/68/68
f 68/68/68 8/8/8 69/69/69
f 8/8/8 6/6/6 69/69/69
f 69/69/69 6/6/6 70/70/70
f 6/6/6 4/4/4 70/70/70
f 70/70/70 4/4/4 71/71/71
f 4/4/4 1/1/1 71/71/71
f 71/71/71 1/1/1 72/72/72
f 1/1/1 73/73/73 72/72/72
f 74/74/74 64/64/64 65/65/65
f 1/1/1 2/2/2 73/73/73
f 2/2/2 75/75/75 73/73/73
f 2/2/2 16/16/16 75/75/75
f 16/16/16 76/76/76 75/75/75
f 16/16/16 23/23/23 76/76/76
f 23/23/23 77/77/77 76/76/76
f 23/23/23 30/30/30 77/77/77
f 30/30/30 78/78/78 77/77/77
f 30/30/30 37/37/37 78/78/78
f 37/37/37 79/79/79 78/78/78
f 37/37/37 44/44/44 79/79/79
f 44/44/44 80/80/80 79/79/79
f 44/44/44 60/60/60 80/80/80
f 60/60/60 81/81/81 80/80/80
f 43/43/43 59/59/59 44/44/44
