g BookSpinePt2_flyingItemAO_UV2(Clone)
v 0.04999939 0.2399962 4.410744E-06
v 0.07841748 0.2399962 4.410744E-06
v 0.07841748 0.29 4.410744E-06
v 0.04999939 0.29 4.410744E-06
v -0.04999939 0.2399962 4.410744E-06
v -0.04999939 0.29 4.410744E-06
v -0.07841748 0.2399962 4.410744E-06
v -0.07841748 0.29 4.410744E-06
v -0.07841748 -0.2407219 4.410744E-06
v -0.04999939 -0.2407219 4.410744E-06
v -0.07841748 -0.29 4.410744E-06
v -0.04999939 -0.29 4.410744E-06
v 0.04999939 -0.2407219 4.410744E-06
v 0.07841748 -0.2407219 4.410744E-06
v 0.04999939 -0.29 4.410744E-06
v 0.07841748 -0.29 4.410744E-06
v 0.04999939 -0.29 0.01168674
v 0.04999939 -0.29 0.0233779
v 0.07841748 -0.29 0.0233779
v 0.07841748 -0.29 0.01168674
v 0.04999939 -0.29 4.410744E-06
v 0.07841748 -0.29 4.410744E-06
v -0.04999939 -0.29 4.410744E-06
v -0.04999939 -0.29 0.01168674
v -0.07841748 -0.29 4.410744E-06
v -0.07841748 -0.29 0.01168674
v -0.04999939 -0.29 0.0233779
v -0.07841748 -0.29 0.0233779
v -0.04999939 0.29 0.01168674
v -0.04999939 0.29 0.0233779
v -0.07841748 0.29 0.0233779
v -0.07841748 0.29 0.01168674
v -0.04999939 0.29 4.410744E-06
v -0.07841748 0.29 4.410744E-06
v 0.04999939 0.29 4.410744E-06
v 0.04999939 0.29 0.01168674
v 0.04999939 0.29 0.0233779
v 0.07841748 0.29 0.01168674
v 0.07841748 0.29 0.0233779
v 0.07841748 0.29 4.410744E-06
vt 0.9804497 0.856305
vt 0.9804497 0.856305
vt 0.9804497 0.856305
vt 0.9804497 0.856305
vt 0.9804497 0.856305
vt 0.9804497 0.856305
vt 0.9804497 0.856305
vt 0.9804497 0.856305
vt 0.9804497 0.8553275
vt 0.9804497 0.8553275
vt 0.9804497 0.8553275
vt 0.9804497 0.8553275
vt 0.9804497 0.8553275
vt 0.9804497 0.8553275
vt 0.9804497 0.8553275
vt 0.9804497 0.8553275
vt 0.9804497 0.8553275
vt 0.9804497 0.8553275
vt 0.9804497 0.8553275
vt 0.9804497 0.8553275
vt 0.9804497 0.8553275
vt 0.9804497 0.8553275
vt 0.9804497 0.8553275
vt 0.9804497 0.8553275
vt 0.9804497 0.8553275
vt 0.9804497 0.8553275
vt 0.9804497 0.8553275
vt 0.9804497 0.8553275
vt 0.9804497 0.856305
vt 0.9804497 0.856305
vt 0.9804497 0.856305
vt 0.9804497 0.856305
vt 0.9804497 0.856305
vt 0.9804497 0.856305
vt 0.9804497 0.856305
vt 0.9804497 0.856305
vt 0.9804497 0.856305
vt 0.9804497 0.856305
vt 0.9804497 0.856305
vt 0.9804497 0.856305
vn -0.003921509 0.003921509 -0.9999846
vn -0.003921509 0.003921509 -0.9999846
vn -0.003921509 0.003921509 -0.9999846
vn -0.003921509 0.003921509 -0.9999846
vn -0.003921509 0.003921509 -0.9999846
vn -0.003921509 0.003921509 -0.9999846
vn -0.003921509 0.003921509 -0.9999846
vn -0.003921509 0.003921509 -0.9999846
vn -0.003921509 0.003921509 -0.9999846
vn -0.003921509 0.003921509 -0.9999846
vn -0.003921509 0.003921509 -0.9999846
vn -0.003921509 0.003921509 -0.9999846
vn -0.003921509 0.003921509 -0.9999846
vn -0.003921509 0.003921509 -0.9999846
vn -0.003921509 0.003921509 -0.9999846
vn -0.003921509 0.003921509 -0.9999846
vn -0.003921509 -0.9999924 0
vn -0.003921509 -0.9999924 0
vn -0.003921509 -0.9999924 0
vn -0.003921509 -0.9999924 0
vn -0.003921509 -0.9999924 0
vn -0.003921509 -0.9999924 0
vn -0.003921509 -0.9999924 0
vn -0.003921509 -0.9999924 0
vn -0.003921509 -0.9999924 0
vn -0.003921509 -0.9999924 0
vn -0.003921509 -0.9999924 0
vn -0.003921509 -0.9999924 0
vn -0.003921509 0.9999923 -0.000345267
vn -0.003921509 0.9999923 -0.000345267
vn -0.003921509 0.9999923 -0.000345267
vn -0.003921509 0.9999923 -0.000345267
vn -0.003921509 0.9999923 -0.000345267
vn -0.003921509 0.9999923 -0.000345267
vn -0.003921509 0.9999923 -0.000345267
vn -0.003921509 0.9999923 -0.000345267
vn -0.003921509 0.9999923 -0.000345267
vn -0.003921509 0.9999923 -0.000345267
vn -0.003921509 0.9999923 -0.000345267
vn -0.003921509 0.9999923 -0.000345267
g BookSpinePt2_flyingItemAO_UV2(Clone)_0
f 3/3/3 2/2/2 1/1/1
f 4/4/4 3/3/3 1/1/1
f 4/4/4 1/1/1 5/5/5
f 6/6/6 4/4/4 5/5/5
f 6/6/6 5/5/5 7/7/7
f 8/8/8 6/6/6 7/7/7
f 7/7/7 5/5/5 9/9/9
f 5/5/5 10/10/10 9/9/9
f 5/5/5 1/1/1 10/10/10
f 9/9/9 10/10/10 11/11/11
f 10/10/10 12/12/12 11/11/11
f 1/1/1 2/2/2 13/13/13
f 10/10/10 13/13/13 12/12/12
f 1/1/1 13/13/13 10/10/10
f 2/2/2 14/14/14 13/13/13
f 13/13/13 14/14/14 15/15/15
f 13/13/13 15/15/15 12/12/12
f 14/14/14 16/16/16 15/15/15
f 19/19/19 18/18/18 17/17/17
f 20/20/20 19/19/19 17/17/17
f 20/20/20 17/17/17 21/21/21
f 22/22/22 20/20/20 21/21/21
f 21/21/21 17/17/17 23/23/23
f 17/17/17 24/24/24 23/23/23
f 17/17/17 18/18/18 24/24/24
f 23/23/23 24/24/24 25/25/25
f 24/24/24 26/26/26 25/25/25
f 24/24/24 27/27/27 26/26/26
f 18/18/18 27/27/27 24/24/24
f 27/27/27 28/28/28 26/26/26
f 31/31/31 30/30/30 29/29/29
f 32/32/32 31/31/31 29/29/29
f 32/32/32 29/29/29 33/33/33
f 34/34/34 32/32/32 33/33/33
f 33/33/33 29/29/29 35/35/35
f 29/29/29 36/36/36 35/35/35
f 29/29/29 30/30/30 36/36/36
f 30/30/30 37/37/37 36/36/36
f 36/36/36 37/37/37 38/38/38
f 37/37/37 39/39/39 38/38/38
f 36/36/36 38/38/38 40/40/40
f 35/35/35 36/36/36 40/40/40
