g BookCoverBack_col1_flyingItemAO_UV2(Clone)
v -0.009639144 0.2900023 -0.3892439
v -0.009639144 0.2900023 -0.4
v -0.009639144 0.3 -0.4
v -0.009639144 0.3 -0.3892439
v 0.009640634 0.3 -0.4
v 0.009640634 0.2900023 -0.4
v -0.009639144 0.1933364 -0.4
v 0.009640634 0.1933364 -0.4
v -0.009639144 0.1933364 -0.3892439
v -0.009639144 0.1933364 -0.2956435
v -0.009639144 0.2900023 -0.2956435
v 0.009640634 0.2900023 -0.3892439
v 0.009640634 0.1933364 -0.3892439
v 0.009640634 0.3 -0.3892439
v -0.009639144 0.3 -0.2956435
v 0.009640634 0.3 -0.2956435
v -0.009639144 0.3 -0.2020432
v 0.009640634 0.3 -0.2020432
v -0.009639144 0.3 -0.1084428
v 0.009640634 0.3 -0.1084428
v -0.009639144 0.3 -0.01484242
v 0.009640634 0.3 -0.01484242
v -0.009639144 0.3 4.589558E-06
v 0.009640634 0.3 4.589558E-06
v 0.009640634 0.2900023 -0.01484242
v 0.009640634 0.2900023 4.589558E-06
v -0.009639144 0.2900023 4.589558E-06
v -0.009639144 0.2900023 -0.01484242
v -0.009639144 0.1933364 4.589558E-06
v -0.009639144 0.1933364 -0.01484242
v 0.009640634 0.2900023 -0.1084428
v 0.009640634 0.2900023 -0.2956435
v 0.009640634 0.2900023 -0.2020432
v -0.009639144 0.2900023 -0.1084428
v -0.009639144 0.2900023 -0.2020432
v -0.009639144 0.1933364 -0.1084428
v -0.009639144 0.1933364 -0.2020432
v -0.009639144 0.09667051 -0.2020432
v -0.009639144 0.09667051 -0.2956435
v -0.009639144 4.589558E-06 -0.2020432
v -0.009639144 4.589558E-06 -0.2956435
v -0.009639144 -0.096672 -0.2020432
v -0.009639144 -0.096672 -0.2956435
v -0.009639144 -0.1933379 -0.2020432
v -0.009639144 -0.1933379 -0.2956435
v -0.009639144 -0.2900038 -0.2020432
v -0.009639144 -0.2900038 -0.2956435
v -0.009639144 -0.3000015 -0.2020432
v -0.009639144 -0.3000015 -0.1084428
v 0.009640634 -0.3000015 -0.1084428
v 0.009640634 -0.3000015 -0.01484242
v 0.009640634 -0.2900038 -0.01484242
v 0.009640634 -0.2900038 4.589558E-06
v 0.009640634 -0.3000015 4.589558E-06
v -0.009639144 -0.3000015 -0.01484242
v -0.009639144 -0.3000015 4.589558E-06
v -0.009639144 -0.2900038 -0.01484242
v -0.009639144 -0.2900038 4.589558E-06
v 0.009640634 -0.2900038 -0.1084428
v 0.009640634 -0.3000015 -0.2020432
v -0.009639144 -0.3000015 -0.2956435
v -0.009639144 -0.2900038 -0.3892439
v -0.009639144 -0.3000015 -0.3892439
v -0.009639144 -0.2900038 -0.4
v -0.009639144 -0.3000015 -0.4
v 0.009640634 -0.2900038 -0.4
v 0.009640634 -0.3000015 -0.4
v 0.009640634 -0.2900038 -0.3892439
v 0.009640634 -0.3000015 -0.3892439
v 0.009640634 -0.3000015 -0.2956435
v 0.009640634 -0.2900038 -0.2956435
v 0.009640634 -0.2900038 -0.2020432
v -0.009639144 -0.1933379 -0.01484242
v -0.009639144 -0.1933379 4.589558E-06
v -0.009639144 -0.096672 -0.01484242
v -0.009639144 -0.096672 -0.1084428
v -0.009639144 -0.1933379 -0.1084428
v -0.009639144 -0.2900038 -0.1084428
v -0.009639144 4.589558E-06 -0.1084428
v -0.009639144 0.09667051 -0.1084428
v -0.009639144 4.589558E-06 -0.01484242
v -0.009639144 0.09667051 -0.01484242
v -0.009639144 4.589558E-06 4.589558E-06
v -0.009639144 -0.096672 4.589558E-06
v -0.009639144 0.09667051 4.589558E-06
v 0.009640634 0.1933364 -0.01484242
v 0.009640634 0.1933364 4.589558E-06
v 0.009640634 0.2900023 4.589558E-06
v 0.009640634 0.2900023 -0.01484242
v 0.009640634 0.1933364 -0.1084428
v 0.009640634 0.2900023 -0.1084428
v 0.009640634 0.1933364 -0.2020432
v 0.009640634 0.2900023 -0.2020432
v 0.009640634 0.1933364 -0.2956435
v 0.009640634 0.2900023 -0.2956435
v 0.009640634 0.1933364 -0.3892439
v 0.009640634 0.2900023 -0.3892439
v 0.009640634 0.09667051 -0.2020432
v 0.009640634 0.09667051 -0.1084428
v 0.009640634 4.589558E-06 -0.2020432
v 0.009640634 4.589558E-06 -0.1084428
v 0.009640634 -0.096672 -0.2020432
v 0.009640634 -0.096672 -0.1084428
v 0.009640634 -0.1933379 -0.2020432
v 0.009640634 -0.1933379 -0.1084428
v 0.009640634 -0.2900038 -0.2020432
v 0.009640634 -0.2900038 -0.1084428
v 0.009640634 -0.2900038 -0.2956435
v 0.009640634 -0.1933379 -0.2956435
v 0.009640634 -0.096672 -0.2956435
v 0.009640634 4.589558E-06 -0.2956435
v 0.009640634 0.09667051 -0.2956435
v 0.009640634 -0.2900038 -0.3892439
v 0.009640634 -0.1933379 -0.3892439
v 0.009640634 -0.096672 -0.3892439
v 0.009640634 4.589558E-06 -0.3892439
v 0.009640634 0.09667051 -0.3892439
v 0.009640634 -0.1933379 -0.01484242
v 0.009640634 -0.2900038 -0.01484242
v 0.009640634 -0.096672 -0.01484242
v 0.009640634 4.589558E-06 -0.01484242
v 0.009640634 0.09667051 -0.01484242
v 0.009640634 -0.1933379 4.589558E-06
v 0.009640634 -0.2900038 4.589558E-06
v 0.009640634 -0.096672 4.589558E-06
v 0.009640634 4.589558E-06 4.589558E-06
v 0.009640634 0.09667051 4.589558E-06
v 0.009640634 -0.1933379 -0.3892439
v 0.009640634 -0.1933379 -0.4
v 0.009640634 -0.096672 -0.3892439
v 0.009640634 -0.096672 -0.4
v 0.009640634 4.589558E-06 -0.3892439
v 0.009640634 4.589558E-06 -0.4
v 0.009640634 0.09667051 -0.3892439
v 0.009640634 0.09667051 -0.4
v -0.009639144 -0.1933379 -0.4
v -0.009639144 -0.1933379 -0.3892439
v -0.009639144 -0.096672 -0.3892439
v -0.009639144 4.589558E-06 -0.3892439
v -0.009639144 0.09667051 -0.3892439
v -0.009639144 -0.096672 -0.4
v -0.009639144 4.589558E-06 -0.4
v -0.009639144 0.09667051 -0.4
vt 0.7564232 0.9188665
vt 0.7564232 0.9188665
vt 0.7564232 0.9188665
vt 0.7564232 0.9188665
vt 0.7564232 0.9188665
vt 0.7564232 0.9188665
vt 0.7564232 0.9188665
vt 0.7564232 0.9188665
vt 0.7564232 0.9188665
vt 0.7564232 0.9188665
vt 0.7564232 0.9188665
vt 0.7564232 0.9188665
vt 0.7564232 0.9188665
vt 0.7564232 0.9188665
vt 0.7564232 0.9188665
vt 0.7564232 0.9188665
vt 0.7564232 0.9188665
vt 0.7564232 0.9188665
vt 0.7559294 0.9188665
vt 0.7559294 0.9188665
vt 0.7559294 0.9188665
vt 0.7559294 0.9188665
vt 0.7559294 0.9188665
vt 0.7559294 0.9188665
vt 0.7559294 0.9188665
vt 0.7559294 0.9188665
vt 0.7559294 0.9188665
vt 0.7559294 0.9188665
vt 0.7559294 0.9188665
vt 0.7559294 0.9188665
vt 0.7559294 0.9188665
vt 0.7564232 0.9188665
vt 0.7564232 0.9188665
vt 0.7559294 0.9188665
vt 0.7564232 0.9188665
vt 0.7559294 0.9188665
vt 0.7564232 0.9188665
vt 0.7564232 0.9188665
vt 0.7564232 0.9188665
vt 0.7564232 0.9183728
vt 0.7564232 0.9183728
vt 0.7564232 0.9183728
vt 0.7564232 0.9183728
vt 0.7564232 0.9183728
vt 0.7564232 0.9183728
vt 0.7564232 0.917879
vt 0.7564232 0.917879
vt 0.7564232 0.917879
vt 0.7559294 0.917879
vt 0.7559294 0.917879
vt 0.7559294 0.917879
vt 0.7559294 0.917879
vt 0.7559294 0.917879
vt 0.7559294 0.917879
vt 0.7559294 0.917879
vt 0.7559294 0.917879
vt 0.7559294 0.917879
vt 0.7559294 0.917879
vt 0.7559294 0.917879
vt 0.7564232 0.917879
vt 0.7564232 0.917879
vt 0.7564232 0.917879
vt 0.7564232 0.917879
vt 0.7564232 0.917879
vt 0.7564232 0.917879
vt 0.7564232 0.917879
vt 0.7564232 0.917879
vt 0.7564232 0.917879
vt 0.7564232 0.917879
vt 0.7564232 0.917879
vt 0.7564232 0.917879
vt 0.7564232 0.917879
vt 0.7559294 0.9183728
vt 0.7559294 0.9183728
vt 0.7559294 0.9183728
vt 0.7559294 0.9183728
vt 0.7559294 0.9183728
vt 0.7559294 0.917879
vt 0.7559294 0.9183728
vt 0.7559294 0.9188665
vt 0.7559294 0.9183728
vt 0.7559294 0.9188665
vt 0.7559294 0.9183728
vt 0.7559294 0.9183728
vt 0.7559294 0.9188665
vt 0.5041175 1.01021
vt 0.5041175 1.01021
vt 0.5041175 1.010704
vt 0.5041175 1.010704
vt 0.5046113 1.01021
vt 0.5046113 1.010704
vt 0.505105 1.01021
vt 0.505105 1.010704
vt 0.5055988 1.01021
vt 0.5055988 1.010704
vt 0.5060925 1.01021
vt 0.5060925 1.010704
vt 0.505105 1.009716
vt 0.5046113 1.009716
vt 0.505105 1.009223
vt 0.5046113 1.009223
vt 0.505105 1.008729
vt 0.5046113 1.008729
vt 0.505105 1.008235
vt 0.5046113 1.008235
vt 0.505105 1.007741
vt 0.5046113 1.007741
vt 0.5055988 1.007741
vt 0.5055988 1.008235
vt 0.5055988 1.008729
vt 0.5055988 1.009223
vt 0.5055988 1.009716
vt 0.5060925 1.007741
vt 0.5060925 1.008235
vt 0.5060925 1.008729
vt 0.5060925 1.009223
vt 0.5060925 1.009716
vt 0.5041175 1.008235
vt 0.5041175 1.007741
vt 0.5041175 1.008729
vt 0.5041175 1.009223
vt 0.5041175 1.009716
vt 0.5041175 1.008235
vt 0.5041175 1.007741
vt 0.5041175 1.008729
vt 0.5041175 1.009223
vt 0.5041175 1.009716
vt 0.7564232 0.9183728
vt 0.7564232 0.9183728
vt 0.7564232 0.9183728
vt 0.7564232 0.9183728
vt 0.7564232 0.9183728
vt 0.7564232 0.9183728
vt 0.7564232 0.9188665
vt 0.7564232 0.9188665
vt 0.7564232 0.9183728
vt 0.7564232 0.9183728
vt 0.7564232 0.9183728
vt 0.7564232 0.9183728
vt 0.7564232 0.9188665
vt 0.7564232 0.9183728
vt 0.7564232 0.9183728
vt 0.7564232 0.9188665
vn -0.9999923 0.003921509 -0.0003449296
vn -0.7097985 0.003921509 -0.7043939
vn -0.5764661 0.5764661 -0.5791146
vn -0.7071068 0.7071068 0
vn 0.5764662 0.5764661 -0.5791144
vn 0.7097985 0.003921509 -0.7043939
vn -0.7097985 0.003921509 -0.7043939
vn 0.7097985 0.003921509 -0.7043939
vn -0.9999923 0.003921509 -0.0003449296
vn -0.9999923 0.003921509 -0.0003449296
vn -0.9999923 0.003921509 -0.0003449296
vn 0.9999924 0.003921509 0
vn 0.9999924 0.003921509 0
vn 0.7071068 0.7071068 0
vn -0.7071068 0.7071068 0
vn 0.7071068 0.7071068 0
vn -0.7071068 0.7071068 0
vn 0.7071068 0.7071068 0
vn -0.7071068 0.7071068 0
vn 0.7071068 0.7071068 0
vn -0.7071068 0.7071068 0
vn 0.7071068 0.7071068 0
vn -0.7071068 0.7071068 0
vn 0.7071068 0.7071068 0
vn 0.9999924 0.003921509 0
vn 0.9999924 0.003921509 0
vn -0.9999923 0.003921509 -0.0003449296
vn -0.9999923 0.003921509 -0.0003449296
vn -0.9999923 0.003921509 -0.0003449296
vn -0.9999923 0.003921509 -0.0003449296
vn 0.9999924 0.003921509 0
vn 0.9999924 0.003921509 0
vn 0.9999924 0.003921509 0
vn -0.9999923 0.003921509 -0.0003449296
vn -0.9999923 0.003921509 -0.0003449296
vn -0.9999923 0.003921509 -0.0003449296
vn -0.9999923 0.003921509 -0.0003449296
vn -0.9999923 0.003921509 -0.0003449296
vn -0.9999923 0.003921509 -0.0003449296
vn -0.9999923 0.003921509 -0.0003449296
vn -0.9999923 0.003921509 -0.0003449296
vn -0.9999923 0.003921509 -0.0003449296
vn -0.9999923 0.003921509 -0.0003449296
vn -0.9999923 0.003921509 -0.0003449296
vn -0.9999923 0.003921509 -0.0003449296
vn -0.9999923 0.003921509 -0.0003449296
vn -0.9999923 0.003921509 -0.0003449296
vn -0.7071068 -0.7071068 0
vn -0.7071068 -0.7071068 0
vn 0.7071068 -0.7071068 0
vn 0.7071068 -0.7071068 0
vn 0.9999924 0.003921509 0
vn 0.9999924 0.003921509 0
vn 0.7071068 -0.7071068 0
vn -0.7071068 -0.7071068 0
vn -0.7071068 -0.7071068 0
vn -0.9999923 0.003921509 -0.0003449296
vn -0.9999923 0.003921509 -0.0003449296
vn 0.9999924 0.003921509 0
vn 0.7071068 -0.7071068 0
vn -0.7071068 -0.7071068 0
vn -0.9999923 0.003921509 -0.0003449296
vn -0.7071068 -0.7071068 0
vn -0.7097985 0.003921509 -0.7043939
vn -0.5764661 -0.5764662 -0.5791144
vn 0.7097985 0.003921509 -0.7043939
vn 0.5764662 -0.5764662 -0.5791144
vn 0.9999924 0.003921509 0
vn 0.7071068 -0.7071068 0
vn 0.7071068 -0.7071068 0
vn 0.9999924 0.003921509 0
vn 0.9999924 0.003921509 0
vn -0.9999923 0.003921509 -0.0003449296
vn -0.9999923 0.003921509 -0.0003449296
vn -0.9999923 0.003921509 -0.0003449296
vn -0.9999923 0.003921509 -0.0003449296
vn -0.9999923 0.003921509 -0.0003449296
vn -0.9999923 0.003921509 -0.0003449296
vn -0.9999923 0.003921509 -0.0003449296
vn -0.9999923 0.003921509 -0.0003449296
vn -0.9999923 0.003921509 -0.0003449296
vn -0.9999923 0.003921509 -0.0003449296
vn -0.9999923 0.003921509 -0.0003449296
vn -0.9999923 0.003921509 -0.0003449296
vn -0.9999923 0.003921509 -0.0003449296
vn 0.9999924 0.003921509 0
vn 0.9999924 0.003921509 0
vn 0.9999924 0.003921509 0
vn 0.9999924 0.003921509 0
vn 0.9999924 0.003921509 0
vn 0.9999924 0.003921509 0
vn 0.9999924 0.003921509 0
vn 0.9999924 0.003921509 0
vn 0.9999924 0.003921509 0
vn 0.9999924 0.003921509 0
vn 0.9999924 0.003921509 0
vn 0.9999924 0.003921509 0
vn 0.9999924 0.003921509 0
vn 0.9999924 0.003921509 0
vn 0.9999924 0.003921509 0
vn 0.9999924 0.003921509 0
vn 0.9999924 0.003921509 0
vn 0.9999924 0.003921509 0
vn 0.9999924 0.003921509 0
vn 0.9999924 0.003921509 0
vn 0.9999924 0.003921509 0
vn 0.9999924 0.003921509 0
vn 0.9999924 0.003921509 0
vn 0.9999924 0.003921509 0
vn 0.9999924 0.003921509 0
vn 0.9999924 0.003921509 0
vn 0.9999924 0.003921509 0
vn 0.9999924 0.003921509 0
vn 0.9999924 0.003921509 0
vn 0.9999924 0.003921509 0
vn 0.9999924 0.003921509 0
vn 0.9999924 0.003921509 0
vn 0.9999924 0.003921509 0
vn 0.9999924 0.003921509 0
vn 0.9999924 0.003921509 0
vn 0.9999924 0.003921509 0
vn 0.9999924 0.003921509 0
vn 0.9999924 0.003921509 0
vn 0.9999924 0.003921509 0
vn 0.9999924 0.003921509 0
vn 0.9999924 0.003921509 0
vn 0.9999924 0.003921509 0
vn 0.9999924 0.003921509 0
vn 0.7097985 0.003921509 -0.7043939
vn 0.9999924 0.003921509 0
vn 0.7097985 0.003921509 -0.7043939
vn 0.9999924 0.003921509 0
vn 0.7097985 0.003921509 -0.7043939
vn 0.9999924 0.003921509 0
vn 0.7097985 0.003921509 -0.7043939
vn -0.7097985 0.003921509 -0.7043939
vn -0.9999923 0.003921509 -0.0003449296
vn -0.9999923 0.003921509 -0.0003449296
vn -0.9999923 0.003921509 -0.0003449296
vn -0.9999923 0.003921509 -0.0003449296
vn -0.7097985 0.003921509 -0.7043939
vn -0.7097985 0.003921509 -0.7043939
vn -0.7097985 0.003921509 -0.7043939
g BookCoverBack_col1_flyingItemAO_UV2(Clone)_0
f 3/3/3 2/2/2 1/1/1
f 4/4/4 3/3/3 1/1/1
f 3/3/3 5/5/5 2/2/2
f 3/3/3 4/4/4 5/5/5
f 5/5/5 6/6/6 2/2/2
f 2/2/2 6/6/6 7/7/7
f 6/6/6 8/8/8 7/7/7
f 2/2/2 7/7/7 9/9/9
f 1/1/1 2/2/2 9/9/9
f 1/1/1 9/9/9 10/10/10
f 11/11/11 1/1/1 10/10/10
f 4/4/4 1/1/1 11/11/11
f 6/6/6 12/12/12 8/8/8
f 12/12/12 13/13/13 8/8/8
f 14/14/14 12/12/12 6/6/6
f 5/5/5 14/14/14 6/6/6
f 4/4/4 14/14/14 5/5/5
f 15/15/15 4/4/4 11/11/11
f 4/4/4 15/15/15 14/14/14
f 15/15/15 16/16/16 14/14/14
f 14/14/14 16/16/16 12/12/12
f 15/15/15 17/17/17 16/16/16
f 17/17/17 18/18/18 16/16/16
f 17/17/17 19/19/19 18/18/18
f 19/19/19 20/20/20 18/18/18
f 19/19/19 21/21/21 20/20/20
f 21/21/21 22/22/22 20/20/20
f 21/21/21 23/23/23 22/22/22
f 23/23/23 24/24/24 22/22/22
f 22/22/22 24/24/24 25/25/25
f 24/24/24 26/26/26 25/25/25
f 23/23/23 21/21/21 27/27/27
f 21/21/21 28/28/28 27/27/27
f 21/21/21 19/19/19 28/28/28
f 27/27/27 28/28/28 29/29/29
f 28/28/28 30/30/30 29/29/29
f 22/22/22 25/25/25 31/31/31
f 20/20/20 22/22/22 31/31/31
f 16/16/16 18/18/18 32/32/32
f 16/16/16 32/32/32 12/12/12
f 20/20/20 31/31/31 33/33/33
f 18/18/18 33/33/33 32/32/32
f 18/18/18 20/20/20 33/33/33
f 28/28/28 34/34/34 30/30/30
f 19/19/19 34/34/34 28/28/28
f 19/19/19 17/17/17 34/34/34
f 17/17/17 35/35/35 34/34/34
f 17/17/17 15/15/15 35/35/35
f 15/15/15 11/11/11 35/35/35
f 34/34/34 36/36/36 30/30/30
f 34/34/34 35/35/35 36/36/36
f 35/35/35 37/37/37 36/36/36
f 35/35/35 11/11/11 37/37/37
f 11/11/11 10/10/10 37/37/37
f 37/37/37 10/10/10 38/38/38
f 10/10/10 39/39/39 38/38/38
f 38/38/38 39/39/39 40/40/40
f 39/39/39 41/41/41 40/40/40
f 40/40/40 41/41/41 42/42/42
f 41/41/41 43/43/43 42/42/42
f 42/42/42 43/43/43 44/44/44
f 43/43/43 45/45/45 44/44/44
f 44/44/44 45/45/45 46/46/46
f 45/45/45 47/47/47 46/46/46
f 46/46/46 47/47/47 48/48/48
f 46/46/46 48/48/48 49/49/49
f 50/50/50 49/49/49 48/48/48
f 50/50/50 51/51/51 49/49/49
f 52/52/52 51/51/51 50/50/50
f 52/52/52 53/53/53 51/51/51
f 53/53/53 54/54/54 51/51/51
f 51/51/51 54/54/54 55/55/55
f 51/51/51 55/55/55 49/49/49
f 54/54/54 56/56/56 55/55/55
f 57/57/57 55/55/55 56/56/56
f 58/58/58 57/57/57 56/56/56
f 59/59/59 52/52/52 50/50/50
f 60/60/60 50/50/50 48/48/48
f 59/59/59 50/50/50 60/60/60
f 60/60/60 48/48/48 61/61/61
f 47/47/47 61/61/61 48/48/48
f 47/47/47 62/62/62 61/61/61
f 62/62/62 63/63/63 61/61/61
f 62/62/62 64/64/64 63/63/63
f 64/64/64 65/65/65 63/63/63
f 64/64/64 66/66/66 65/65/65
f 66/66/66 67/67/67 65/65/65
f 66/66/66 68/68/68 67/67/67
f 68/68/68 69/69/69 67/67/67
f 69/69/69 63/63/63 65/65/65
f 67/67/67 69/69/69 65/65/65
f 70/70/70 61/61/61 63/63/63
f 69/69/69 70/70/70 63/63/63
f 70/70/70 60/60/60 61/61/61
f 71/71/71 70/70/70 69/69/69
f 68/68/68 71/71/71 69/69/69
f 72/72/72 60/60/60 70/70/70
f 71/71/71 72/72/72 70/70/70
f 72/72/72 59/59/59 60/60/60
f 73/73/73 57/57/57 58/58/58
f 74/74/74 73/73/73 58/58/58
f 75/75/75 73/73/73 74/74/74
f 75/75/75 76/76/76 73/73/73
f 76/76/76 77/77/77 73/73/73
f 76/76/76 42/42/42 77/77/77
f 42/42/42 44/44/44 77/77/77
f 77/77/77 44/44/44 78/78/78
f 44/44/44 46/46/46 78/78/78
f 78/78/78 46/46/46 49/49/49
f 78/78/78 49/49/49 55/55/55
f 57/57/57 78/78/78 55/55/55
f 77/77/77 78/78/78 57/57/57
f 73/73/73 77/77/77 57/57/57
f 40/40/40 42/42/42 76/76/76
f 79/79/79 40/40/40 76/76/76
f 79/79/79 76/76/76 75/75/75
f 38/38/38 40/40/40 79/79/79
f 80/80/80 38/38/38 79/79/79
f 37/37/37 38/38/38 80/80/80
f 36/36/36 37/37/37 80/80/80
f 81/81/81 79/79/79 75/75/75
f 80/80/80 79/79/79 81/81/81
f 82/82/82 80/80/80 81/81/81
f 36/36/36 80/80/80 82/82/82
f 30/30/30 36/36/36 82/82/82
f 82/82/82 81/81/81 83/83/83
f 83/83/83 81/81/81 84/84/84
f 81/81/81 75/75/75 84/84/84
f 84/84/84 75/75/75 74/74/74
f 85/85/85 82/82/82 83/83/83
f 30/30/30 82/82/82 85/85/85
f 29/29/29 30/30/30 85/85/85
f 88/88/88 87/87/87 86/86/86
f 89/89/89 88/88/88 86/86/86
f 89/89/89 86/86/86 90/90/90
f 91/91/91 89/89/89 90/90/90
f 91/91/91 90/90/90 92/92/92
f 93/93/93 91/91/91 92/92/92
f 93/93/93 92/92/92 94/94/94
f 95/95/95 93/93/93 94/94/94
f 95/95/95 94/94/94 96/96/96
f 97/97/97 95/95/95 96/96/96
f 92/92/92 90/90/90 98/98/98
f 90/90/90 99/99/99 98/98/98
f 90/90/90 86/86/86 99/99/99
f 98/98/98 99/99/99 100/100/100
f 99/99/99 101/101/101 100/100/100
f 100/100/100 101/101/101 102/102/102
f 101/101/101 103/103/103 102/102/102
f 102/102/102 103/103/103 104/104/104
f 103/103/103 105/105/105 104/104/104
f 104/104/104 105/105/105 106/106/106
f 105/105/105 107/107/107 106/106/106
f 104/104/104 106/106/106 108/108/108
f 109/109/109 104/104/104 108/108/108
f 102/102/102 104/104/104 109/109/109
f 110/110/110 102/102/102 109/109/109
f 100/100/100 102/102/102 110/110/110
f 111/111/111 100/100/100 110/110/110
f 98/98/98 100/100/100 111/111/111
f 112/112/112 98/98/98 111/111/111
f 92/92/92 98/98/98 112/112/112
f 94/94/94 92/92/92 112/112/112
f 109/109/109 108/108/108 113/113/113
f 114/114/114 109/109/109 113/113/113
f 110/110/110 109/109/109 114/114/114
f 115/115/115 110/110/110 114/114/114
f 111/111/111 110/110/110 115/115/115
f 116/116/116 111/111/111 115/115/115
f 112/112/112 111/111/111 116/116/116
f 117/117/117 112/112/112 116/116/116
f 94/94/94 112/112/112 117/117/117
f 96/96/96 94/94/94 117/117/117
f 105/105/105 118/118/118 107/107/107
f 118/118/118 119/119/119 107/107/107
f 120/120/120 118/118/118 105/105/105
f 103/103/103 120/120/120 105/105/105
f 121/121/121 120/120/120 103/103/103
f 101/101/101 121/121/121 103/103/103
f 122/122/122 121/121/121 101/101/101
f 99/99/99 122/122/122 101/101/101
f 86/86/86 122/122/122 99/99/99
f 118/118/118 123/123/123 119/119/119
f 123/123/123 124/124/124 119/119/119
f 125/125/125 123/123/123 118/118/118
f 120/120/120 125/125/125 118/118/118
f 126/126/126 125/125/125 120/120/120
f 121/121/121 126/126/126 120/120/120
f 127/127/127 126/126/126 121/121/121
f 122/122/122 127/127/127 121/121/121
f 87/87/87 127/127/127 122/122/122
f 86/86/86 87/87/87 122/122/122
f 128/128/128 68/68/68 66/66/66
f 129/129/129 128/128/128 66/66/66
f 130/130/130 128/128/128 129/129/129
f 131/131/131 130/130/130 129/129/129
f 132/132/132 130/130/130 131/131/131
f 133/133/133 132/132/132 131/131/131
f 134/134/134 132/132/132 133/133/133
f 135/135/135 134/134/134 133/133/133
f 13/13/13 134/134/134 135/135/135
f 8/8/8 13/13/13 135/135/135
f 129/129/129 66/66/66 64/64/64
f 136/136/136 129/129/129 64/64/64
f 131/131/131 129/129/129 136/136/136
f 136/136/136 64/64/64 62/62/62
f 137/137/137 136/136/136 62/62/62
f 137/137/137 62/62/62 47/47/47
f 45/45/45 137/137/137 47/47/47
f 138/138/138 137/137/137 45/45/45
f 43/43/43 138/138/138 45/45/45
f 139/139/139 138/138/138 43/43/43
f 41/41/41 139/139/139 43/43/43
f 140/140/140 139/139/139 41/41/41
f 39/39/39 140/140/140 41/41/41
f 9/9/9 140/140/140 39/39/39
f 10/10/10 9/9/9 39/39/39
f 141/141/141 136/136/136 137/137/137
f 138/138/138 141/141/141 137/137/137
f 142/142/142 141/141/141 138/138/138
f 139/139/139 142/142/142 138/138/138
f 143/143/143 142/142/142 139/139/139
f 140/140/140 143/143/143 139/139/139
f 7/7/7 143/143/143 140/140/140
f 9/9/9 7/7/7 140/140/140
f 142/142/142 133/133/133 141/141/141
f 133/133/133 131/131/131 141/141/141
f 141/141/141 131/131/131 136/136/136
f 135/135/135 133/133/133 142/142/142
f 143/143/143 135/135/135 142/142/142
f 8/8/8 135/135/135 143/143/143
f 7/7/7 8/8/8 143/143/143
