g books_shelf2_batch3
v 2.554996 2.201 0
v 2.304996 3.001 0
v 2.304996 2.201 0
v 2.554996 3.001 0
v 2.304996 2.201 0
v 1.979996 3.161 0
v 1.979996 2.201 0
v 2.304996 3.161 0
v 1.730045 2.201 0
v 1.542545 3.001 0
v 1.542545 2.201 0
v 1.730045 3.001 0
v 1.979996 2.201 0
v 1.729996 3.081 0
v 1.729996 2.201 0
v 1.979996 3.081 0
v 1.542547 2.201 0
v 1.330046 2.921 0
v 1.330046 2.201 0
v 1.542547 2.921 0
v 1.329997 2.201 0
v 1.054997 3.041 0
v 1.054997 2.201 0
v 1.329997 3.041 0
v 1.054996 2.201 0
v 0.8549961 2.921 0
v 0.8549961 2.201 0
v 1.054996 2.921 0
v 0.8549973 2.201 0
v 0.6549972 2.921 0
v 0.6549972 2.201 0
v 0.8549973 2.921 0
v 0.6549965 2.201 0
v 0.4549965 2.921 0
v 0.4549965 2.201 0
v 0.6549965 2.921 0
v 0.4549958 2.201 0
v 0.2549957 2.921 0
v 0.2549957 2.201 0
v 0.4549958 2.921 0
v 0.2549969 2.201 0
v 0.05499688 2.841 0
v 0.05499688 2.201 0
v 0.2549969 2.841 0
v -0.1950035 3.082001 0
v 0.05499649 2.202001 0
v 0.05499649 3.082001 0
v -0.1950035 2.202001 0
v -0.204998 2.201 0
v -0.392498 3.001 0
v -0.392498 2.201 0
v -0.204998 3.001 0
v -0.3924988 2.201 0
v -0.5424988 2.801 0
v -0.5424988 2.201 0
v -0.3924988 2.801 0
v -0.5424976 2.201 0
v -0.7924976 3.001 0
v -0.7924976 2.201 0
v -0.5424976 3.001 0
v -0.7924976 2.201 0
v -1.042498 3.161 0
v -1.042498 2.201 0
v -0.7924976 3.161 0
v -1.042498 2.201 0
v -1.292498 3.081 0
v -1.292498 2.201 0
v -1.042498 3.081 0
v -1.542498 3.001999 0
v -1.292498 2.201999 0
v -1.292498 3.001999 0
v -1.542498 2.201999 0
v -1.542449 2.201 0
v -1.704949 3.041 0
v -1.704949 2.201 0
v -1.542449 3.041 0
v -1.704998 2.201 0
v -1.904998 3.001 0
v -1.904998 2.201 0
v -1.704998 3.001 0
v -2.022507 2.201687 0
v -2.089894 2.942643 0
v -2.207489 2.232311 0
v -1.904912 2.912019 0
v -2.381783 2.212119 0
v -2.165921 3.118928 0
v -2.520214 2.269884 0
v -2.02749 3.061163 0
v -2.640418 2.189857 0
v -2.474665 3.011457 0
v -2.859578 2.310143 0
v -2.255504 2.891171 0
vt 0.38125 0.025
vt 0.49375 0.475
vt 0.49375 0.025
vt 0.38125 0.475
vt 0.63125 0.525
vt 0.74375 0.975
vt 0.74375 0.525
vt 0.63125 0.975
vt 0.88125 0.525
vt 0.99375 0.975
vt 0.99375 0.525
vt 0.88125 0.975
vt 0.25625 0.025
vt 0.36875 0.475
vt 0.36875 0.025
vt 0.25625 0.475
vt 0.00625 0.025
vt 0.11875 0.475
vt 0.11875 0.025
vt 0.00625 0.475
vt 0.13125 0.025
vt 0.24375 0.475
vt 0.24375 0.025
vt 0.13125 0.475
vt 0.75625 0.525
vt 0.86875 0.975
vt 0.86875 0.525
vt 0.75625 0.975
vt 0.75625 0.525
vt 0.86875 0.975
vt 0.86875 0.525
vt 0.75625 0.975
vt 0.75625 0.525
vt 0.86875 0.975
vt 0.86875 0.525
vt 0.75625 0.975
vt 0.75625 0.525
vt 0.86875 0.975
vt 0.86875 0.525
vt 0.75625 0.975
vt 0.88125 0.025
vt 0.99375 0.475
vt 0.99375 0.025
vt 0.88125 0.475
vt 0.50625 0.025
vt 0.61875 0.475
vt 0.61875 0.025
vt 0.50625 0.475
vt 0.25625 0.525
vt 0.36875 0.975
vt 0.36875 0.525
vt 0.25625 0.975
vt 0.63125 0.025
vt 0.74375 0.475
vt 0.74375 0.025
vt 0.63125 0.475
vt 0.00625 0.525
vt 0.11875 0.975
vt 0.11875 0.525
vt 0.00625 0.975
vt 0.38125 0.025
vt 0.49375 0.475
vt 0.49375 0.025
vt 0.38125 0.475
vt 0.25625 0.025
vt 0.36875 0.475
vt 0.36875 0.025
vt 0.25625 0.475
vt 0.00625 0.025
vt 0.11875 0.475
vt 0.11875 0.025
vt 0.00625 0.475
vt 0.13125 0.025
vt 0.24375 0.475
vt 0.24375 0.025
vt 0.13125 0.475
vt 0.88125 0.025
vt 0.99375 0.475
vt 0.99375 0.025
vt 0.88125 0.475
vt 0.75625 0.025
vt 0.86875 0.475
vt 0.86875 0.025
vt 0.75625 0.475
vt 0.00625 0.525
vt 0.11875 0.975
vt 0.11875 0.525
vt 0.00625 0.975
vt 0.38125 0.525
vt 0.49375 0.975
vt 0.49375 0.525
vt 0.38125 0.975
vn 0 0 -1
vn 0 0 -1
vn 0 0 -1
vn 0 0 -1
vn 0 0 -1
vn 0 0 -1
vn 0 0 -1
vn 0 0 -1
vn 0 0 -1
vn 0 0 -1
vn 0 0 -1
vn 0 0 -1
vn 0 0 -1
vn 0 0 -1
vn 0 0 -1
vn 0 0 -1
vn 0 0 -1
vn 0 0 -1
vn 0 0 -1
vn 0 0 -1
vn 0 0 -1
vn 0 0 -1
vn 0 0 -1
vn 0 0 -1
vn 0 0 -1
vn 0 0 -1
vn 0 0 -1
vn 0 0 -1
vn 0 0 -1
vn 0 0 -1
vn 0 0 -1
vn 0 0 -1
vn 0 0 -1
vn 0 0 -1
vn 0 0 -1
vn 0 0 -1
vn 0 0 -1
vn 0 0 -1
vn 0 0 -1
vn 0 0 -1
vn 0 0 -1
vn 0 0 -1
vn 0 0 -1
vn 0 0 -1
vn 0 0 -1
vn 0 0 -1
vn 0 0 -1
vn 0 0 -1
vn 0 0 -1
vn 0 0 -1
vn 0 0 -1
vn 0 0 -1
vn 0 0 -1
vn 0 0 -1
vn 0 0 -1
vn 0 0 -1
vn 0 0 -1
vn 0 0 -1
vn 0 0 -1
vn 0 0 -1
vn 0 0 -1
vn 0 0 -1
vn 0 0 -1
vn 0 0 -1
vn 0 0 -1
vn 0 0 -1
vn 0 0 -1
vn 0 0 -1
vn 0 0 -1
vn 0 0 -1
vn 0 0 -1
vn 0 0 -1
vn 0 0 -1
vn 0 0 -1
vn 0 0 -1
vn 0 0 -1
vn 0 0 -1
vn 0 0 -1
vn 0 0 -1
vn 0 0 -1
vn 0 0 -1
vn 0 0 -1
vn 0 0 -1
vn 0 0 -1
vn 0 0 -1
vn 0 0 -1
vn 0 0 -1
vn 0 0 -1
vn 0 0 -1
vn 0 0 -1
vn 0 0 -1
vn 0 0 -1
g books_shelf2_batch3_0
f 3/3/3 2/2/2 1/1/1
f 4/4/4 1/1/1 2/2/2
f 7/7/7 6/6/6 5/5/5
f 8/8/8 5/5/5 6/6/6
f 11/11/11 10/10/10 9/9/9
f 12/12/12 9/9/9 10/10/10
f 15/15/15 14/14/14 13/13/13
f 16/16/16 13/13/13 14/14/14
f 19/19/19 18/18/18 17/17/17
f 20/20/20 17/17/17 18/18/18
f 23/23/23 22/22/22 21/21/21
f 24/24/24 21/21/21 22/22/22
f 27/27/27 26/26/26 25/25/25
f 28/28/28 25/25/25 26/26/26
f 31/31/31 30/30/30 29/29/29
f 32/32/32 29/29/29 30/30/30
f 35/35/35 34/34/34 33/33/33
f 36/36/36 33/33/33 34/34/34
f 39/39/39 38/38/38 37/37/37
f 40/40/40 37/37/37 38/38/38
f 43/43/43 42/42/42 41/41/41
f 44/44/44 41/41/41 42/42/42
f 47/47/47 46/46/46 45/45/45
f 48/48/48 45/45/45 46/46/46
f 51/51/51 50/50/50 49/49/49
f 52/52/52 49/49/49 50/50/50
f 55/55/55 54/54/54 53/53/53
f 56/56/56 53/53/53 54/54/54
f 59/59/59 58/58/58 57/57/57
f 60/60/60 57/57/57 58/58/58
f 63/63/63 62/62/62 61/61/61
f 64/64/64 61/61/61 62/62/62
f 67/67/67 66/66/66 65/65/65
f 68/68/68 65/65/65 66/66/66
f 71/71/71 70/70/70 69/69/69
f 72/72/72 69/69/69 70/70/70
f 75/75/75 74/74/74 73/73/73
f 76/76/76 73/73/73 74/74/74
f 79/79/79 78/78/78 77/77/77
f 80/80/80 77/77/77 78/78/78
f 83/83/83 82/82/82 81/81/81
f 84/84/84 81/81/81 82/82/82
f 87/87/87 86/86/86 85/85/85
f 88/88/88 85/85/85 86/86/86
f 91/91/91 90/90/90 89/89/89
f 92/92/92 89/89/89 90/90/90
