g BookSpine_Purp+Red_flyingItemAO_UV2
v 0.07329364 0.09666747 0.04171667
v -0.07300073 0.09666747 0.04171667
v -0.07300073 0.1933303 0.04171667
v 0.07329364 0.1933303 0.04171667
v -0.09775698 0.1933303 0.01833376
v -0.09775698 0.09666747 0.01833376
v -0.07300073 0.2900023 0.04171667
v -0.09775698 0.2900023 0.01833376
v -0.09775698 0.2900023 -4.559755E-06
v -0.09775698 0.1933303 -4.559755E-06
v -0.07300073 0.3000001 0.04171667
v 0.07329364 0.2900023 0.04171667
v 0.07329364 0.3000001 0.04171667
v -0.09775698 0.3000001 0.01833376
v 0.09804988 0.3000001 0.01833376
v 0.07563743 0.3000001 0.02327767
v 0.09804988 0.2900023 0.01833376
v 0.09804988 0.3000001 4.61936E-06
v 0.09804988 0.2900023 4.61936E-06
v 0.09804988 0.1933303 4.61936E-06
v 0.09804988 0.1933303 0.01833376
v 0.07807277 0.3000001 4.61936E-06
v -0.09775698 0.3000001 -4.559755E-06
v 0.09804988 0.09666747 4.61936E-06
v 0.09804988 0.09666747 0.01833376
v 0.09804988 4.61936E-06 0.01833376
v 0.07329364 -4.559755E-06 0.04171667
v 0.09804988 -0.09666741 0.01833376
v 0.07329364 -0.09666741 0.04171667
v 0.09804988 -0.09666741 4.61936E-06
v 0.09804988 -4.559755E-06 4.61936E-06
v -0.07300073 -4.559755E-06 0.04171667
v -0.07300073 -0.09666741 0.04171667
v -0.09775698 4.61936E-06 0.01833376
v -0.09775698 -0.09666741 0.01833376
v -0.09775698 -4.559755E-06 -4.559755E-06
v -0.09775698 -0.09666741 -4.559755E-06
v -0.09775698 0.09666747 -4.559755E-06
v 0.07329364 -0.09666741 0.04171667
v 0.09804988 -0.09666741 0.01833376
v 0.09804988 -0.1933303 0.01833376
v 0.07329364 -0.1933303 0.04171667
v 0.09804988 -0.1933303 4.61936E-06
v 0.09804988 -0.09666741 4.61936E-06
v -0.07300073 -0.09666741 0.04171667
v -0.07300073 -0.1933303 0.04171667
v -0.09775698 -0.09666741 0.01833376
v -0.09775698 -0.1933303 0.01833376
v -0.09775698 -0.09666741 -4.559755E-06
v -0.09775698 -0.1933303 -4.559755E-06
v 0.07329364 -0.2900023 0.04171667
v 0.07329364 -0.1933303 0.04171667
v 0.09804988 -0.1933303 0.01833376
v 0.09804988 -0.2900023 0.01833376
v -0.07300073 -0.1933303 0.04171667
v -0.07300073 -0.2900023 0.04171667
v -0.07300073 -0.3 0.04171667
v 0.07329364 -0.3 0.04171667
v 0.09804988 -0.3 0.01833376
v 0.09804988 -0.2900023 4.61936E-06
v 0.09804988 -0.3 4.61936E-06
v 0.07807277 -0.3 4.61936E-06
v 0.07807277 -0.3 0.02327767
v 0.07807277 -0.2900023 0.02327767
v -0.07841158 -0.3 0.02327767
v -0.07841158 -0.2900023 0.02327767
v 0.07807277 -0.2900023 4.61936E-06
v -0.07841158 -0.2900023 -4.559755E-06
v -0.07841158 -0.3 -4.559755E-06
v -0.09775698 -0.3 -4.559755E-06
v -0.09775698 -0.3 0.01833376
v -0.0766629 -0.3 0.03826508
v -0.09775698 -0.2900023 0.01833376
v -0.09775698 -0.2900023 -4.559755E-06
v -0.09775698 -0.1933303 0.01833376
v -0.09775698 -0.1933303 -4.559755E-06
v -0.09775698 -0.3 0.01833376
v -0.0766629 -0.3 0.03826508
v 0.07329364 -0.3 0.04171667
v 0.09804988 -0.3 0.01833376
v -0.0759854 0.2900023 0.02327767
v -0.0759854 0.3000001 0.02327767
v -0.07841158 0.3000001 -4.559755E-06
v -0.07841158 0.2900023 -4.559755E-06
v -0.09775698 0.3000001 0.01833376
v 0.07563743 0.2900023 0.02327767
v 0.07563743 0.3000001 0.02327767
v 0.07807277 0.2900023 4.61936E-06
v 0.07807277 0.3000001 4.61936E-06
v 0.09804988 -0.1933303 4.61936E-06
v -0.0759854 0.3000001 0.02327767
vt 0.7565982 0.8875855
vt 0.7565982 0.8875855
vt 0.7565982 0.888563
vt 0.7565982 0.888563
vt 0.7565982 0.888563
vt 0.7565982 0.8875855
vt 0.7565982 0.888563
vt 0.7565982 0.888563
vt 0.7565982 0.888563
vt 0.7565982 0.888563
vt 0.7565982 0.888563
vt 0.7565982 0.888563
vt 0.7565982 0.888563
vt 0.7565982 0.888563
vt 0.7565982 0.888563
vt 0.7565982 0.888563
vt 0.7565982 0.888563
vt 0.7565982 0.888563
vt 0.7565982 0.888563
vt 0.7565982 0.888563
vt 0.7565982 0.888563
vt 0.7565982 0.888563
vt 0.7565982 0.888563
vt 0.7565982 0.8875855
vt 0.7565982 0.8875855
vt 0.7565982 0.8875855
vt 0.7565982 0.8875855
vt 0.7565982 0.8875855
vt 0.7565982 0.8875855
vt 0.7565982 0.8875855
vt 0.7565982 0.8875855
vt 0.7565982 0.8875855
vt 0.7565982 0.8875855
vt 0.7565982 0.8875855
vt 0.7565982 0.8875855
vt 0.7565982 0.8875855
vt 0.7565982 0.8875855
vt 0.7565982 0.8875855
vt 0.7565982 0.9227762
vt 0.7575758 0.9227762
vt 0.7575758 0.9208211
vt 0.7565982 0.9208211
vt 0.7575758 0.9208211
vt 0.7575758 0.9227762
vt 0.7536657 0.9227762
vt 0.7536657 0.9208211
vt 0.7536657 0.9227762
vt 0.7536657 0.9208211
vt 0.7536657 0.9227762
vt 0.7536657 0.9208211
vt 0.7565982 0.886608
vt 0.7565982 0.8875855
vt 0.7565982 0.8875855
vt 0.7565982 0.886608
vt 0.7565982 0.8875855
vt 0.7565982 0.886608
vt 0.7565982 0.886608
vt 0.7565982 0.886608
vt 0.7565982 0.886608
vt 0.7565982 0.886608
vt 0.7565982 0.886608
vt 0.7565982 0.886608
vt 0.7565982 0.886608
vt 0.7565982 0.886608
vt 0.7565982 0.886608
vt 0.7565982 0.886608
vt 0.7565982 0.886608
vt 0.7565982 0.886608
vt 0.7565982 0.886608
vt 0.7565982 0.886608
vt 0.7565982 0.886608
vt 0.7565982 0.886608
vt 0.7565982 0.886608
vt 0.7565982 0.886608
vt 0.7565982 0.8875855
vt 0.7565982 0.8875855
vt 0.7565982 0.886608
vt 0.7565982 0.886608
vt 0.7565982 0.886608
vt 0.7565982 0.886608
vt 0.7565982 0.888563
vt 0.7565982 0.888563
vt 0.7565982 0.888563
vt 0.7565982 0.888563
vt 0.7565982 0.888563
vt 0.7565982 0.888563
vt 0.7565982 0.888563
vt 0.7565982 0.888563
vt 0.7565982 0.888563
vt 0.7565982 0.8875855
vt 0.7565982 0.888563
vn 0.3725462 0.003921509 0.9280053
vn -0.3725461 0.003921509 0.9280054
vn -0.3725461 0.003921509 0.9280054
vn 0.3725462 0.003921509 0.9280053
vn -0.9215615 0.003921509 0.3882126
vn -0.9215615 0.003921509 0.3882126
vn -0.3725461 0.003921509 0.9280054
vn -0.9215615 0.003921509 0.3882126
vn -0.9999923 0.003921509 -0.0003449296
vn -0.9999923 0.003921509 -0.0003449296
vn -0.2862723 0.6313677 0.7207101
vn 0.3725462 0.003921509 0.9280053
vn 0.2862723 0.6313677 0.7207101
vn -0.7176415 0.6313677 0.2938802
vn 0.7176416 0.6313677 0.2938799
vn -0.3019584 0.8901892 -0.3411515
vn 0.9215616 0.003921509 0.3882124
vn 0.7071068 0.7071068 0
vn 0.9999924 0.003921509 0
vn 0.9999924 0.003921509 0
vn 0.9215616 0.003921509 0.3882124
vn -0.6784261 0.7333276 -0.04436782
vn -0.7071068 0.7071068 0
vn 0.9999924 0.003921509 0
vn 0.9215616 0.003921509 0.3882124
vn 0.9215616 0.003921509 0.3882124
vn 0.3725462 0.003921509 0.9280053
vn 0.9215616 0.003921509 0.3882124
vn 0.3725462 0.003921509 0.9280053
vn 0.9999924 0.003921509 0
vn 0.9999924 0.003921509 0
vn -0.3725461 0.003921509 0.9280054
vn -0.3725461 0.003921509 0.9280054
vn -0.9215615 0.003921509 0.3882126
vn -0.9215615 0.003921509 0.3882126
vn -0.9999923 0.003921509 -0.0003449296
vn -0.9999923 0.003921509 -0.0003449296
vn -0.9999923 0.003921509 -0.0003449296
vn 0.3725462 0.003921509 0.9280053
vn 0.9215616 0.003921509 0.3882124
vn 0.9215616 0.003921509 0.3882124
vn 0.3725462 0.003921509 0.9280053
vn 0.9999924 0.003921509 0
vn 0.9999924 0.003921509 0
vn -0.3725461 0.003921509 0.9280054
vn -0.3725461 0.003921509 0.9280054
vn -0.9215615 0.003921509 0.3882126
vn -0.9215615 0.003921509 0.3882126
vn -0.9999923 0.003921509 -0.0003449296
vn -0.9999923 0.003921509 -0.0003449296
vn 0.3725462 0.003921509 0.9280053
vn 0.3725462 0.003921509 0.9280053
vn 0.9215616 0.003921509 0.3882124
vn 0.9215616 0.003921509 0.3882124
vn -0.3725461 0.003921509 0.9280054
vn -0.3725461 0.003921509 0.9280054
vn -0.2862723 -0.6313677 0.7207101
vn 0.2862723 -0.6313677 0.72071
vn 0.7176416 -0.6313677 0.2938797
vn 0.9999924 0.003921509 0
vn 0.7071068 -0.7071068 0
vn -0.7071068 -0.7071068 0
vn -0.3019584 -0.9058754 -0.297003
vn -0.7097985 0.003921509 -0.7043939
vn 0.3019585 -0.9058754 -0.2970029
vn 0.7097985 0.003921509 -0.7043939
vn -0.9999923 0.003921509 -0.0003449296
vn 0.9999924 0.003921509 0
vn 0.7071068 -0.7071068 0
vn -0.7071068 -0.7071068 0
vn -0.7176415 -0.6313677 0.2938801
vn -0.4823492 -0.7097985 0.5133472
vn -0.9215615 0.003921509 0.3882126
vn -0.9999923 0.003921509 -0.0003449296
vn -0.9215615 0.003921509 0.3882126
vn -0.9999923 0.003921509 -0.0003449296
vn -0.7176415 -0.6313677 0.2938801
vn -0.4823492 -0.7097985 0.5133472
vn 0.2862723 -0.6313677 0.72071
vn 0.7176416 -0.6313677 0.2938797
vn 0.6705831 0.003921509 -0.741824
vn 0.3019585 0.8901892 -0.3411514
vn 0.6784262 0.7333276 -0.04436714
vn 0.9921493 0.003921509 -0.1249976
vn -0.7176415 0.6313677 0.2938802
vn -0.670583 0.003921509 -0.7418242
vn -0.3019584 0.8901892 -0.3411515
vn -0.9921492 0.003921509 -0.1249981
vn -0.6784261 0.7333276 -0.04436782
vn 0.9999924 0.003921509 0
vn 0.3019585 0.8901892 -0.3411514
g BookSpine_Purp+Red_flyingItemAO_UV2_0
f 3/3/3 2/2/2 1/1/1
f 4/4/4 3/3/3 1/1/1
f 3/3/3 5/5/5 2/2/2
f 5/5/5 6/6/6 2/2/2
f 5/5/5 3/3/3 7/7/7
f 8/8/8 5/5/5 7/7/7
f 8/8/8 9/9/9 5/5/5
f 9/9/9 10/10/10 5/5/5
f 5/5/5 10/10/10 6/6/6
f 7/7/7 11/11/11 8/8/8
f 11/11/11 7/7/7 12/12/12
f 3/3/3 4/4/4 12/12/12
f 7/7/7 3/3/3 12/12/12
f 13/13/13 11/11/11 12/12/12
f 11/11/11 14/14/14 8/8/8
f 8/8/8 14/14/14 9/9/9
f 15/15/15 13/13/13 12/12/12
f 15/15/15 16/16/16 13/13/13
f 13/13/13 16/16/16 11/11/11
f 17/17/17 15/15/15 12/12/12
f 18/18/18 15/15/15 17/17/17
f 16/16/16 15/15/15 18/18/18
f 19/19/19 18/18/18 17/17/17
f 19/19/19 17/17/17 20/20/20
f 17/17/17 21/21/21 20/20/20
f 21/21/21 17/17/17 12/12/12
f 22/22/22 16/16/16 18/18/18
f 14/14/14 23/23/23 9/9/9
f 20/20/20 21/21/21 24/24/24
f 21/21/21 25/25/25 24/24/24
f 25/25/25 21/21/21 4/4/4
f 4/4/4 21/21/21 12/12/12
f 1/1/1 25/25/25 4/4/4
f 26/26/26 25/25/25 1/1/1
f 27/27/27 26/26/26 1/1/1
f 28/28/28 26/26/26 27/27/27
f 29/29/29 28/28/28 27/27/27
f 26/26/26 28/28/28 30/30/30
f 31/31/31 26/26/26 30/30/30
f 25/25/25 26/26/26 31/31/31
f 24/24/24 25/25/25 31/31/31
f 27/27/27 32/32/32 29/29/29
f 32/32/32 33/33/33 29/29/29
f 32/32/32 34/34/34 33/33/33
f 34/34/34 35/35/35 33/33/33
f 6/6/6 34/34/34 32/32/32
f 2/2/2 6/6/6 32/32/32
f 2/2/2 32/32/32 27/27/27
f 1/1/1 2/2/2 27/27/27
f 34/34/34 36/36/36 35/35/35
f 36/36/36 37/37/37 35/35/35
f 38/38/38 36/36/36 34/34/34
f 6/6/6 38/38/38 34/34/34
f 10/10/10 38/38/38 6/6/6
f 41/41/41 40/40/40 39/39/39
f 42/42/42 41/41/41 39/39/39
f 40/40/40 41/41/41 43/43/43
f 44/44/44 40/40/40 43/43/43
f 39/39/39 45/45/45 42/42/42
f 45/45/45 46/46/46 42/42/42
f 45/45/45 47/47/47 46/46/46
f 47/47/47 48/48/48 46/46/46
f 47/47/47 49/49/49 48/48/48
f 49/49/49 50/50/50 48/48/48
f 53/53/53 52/52/52 51/51/51
f 54/54/54 53/53/53 51/51/51
f 52/52/52 55/55/55 51/51/51
f 55/55/55 56/56/56 51/51/51
f 56/56/56 57/57/57 51/51/51
f 57/57/57 58/58/58 51/51/51
f 51/51/51 58/58/58 54/54/54
f 58/58/58 59/59/59 54/54/54
f 54/54/54 59/59/59 60/60/60
f 53/53/53 54/54/54 60/60/60
f 59/59/59 61/61/61 60/60/60
f 61/61/61 59/59/59 62/62/62
f 59/59/59 63/63/63 62/62/62
f 62/62/62 63/63/63 64/64/64
f 63/63/63 65/65/65 64/64/64
f 65/65/65 66/66/66 64/64/64
f 67/67/67 62/62/62 64/64/64
f 66/66/66 65/65/65 68/68/68
f 65/65/65 69/69/69 68/68/68
f 69/69/69 65/65/65 70/70/70
f 65/65/65 71/71/71 70/70/70
f 71/71/71 72/72/72 56/56/56
f 58/58/58 57/57/57 72/72/72
f 70/70/70 71/71/71 73/73/73
f 73/73/73 71/71/71 56/56/56
f 74/74/74 70/70/70 73/73/73
f 75/75/75 73/73/73 56/56/56
f 55/55/55 75/75/75 56/56/56
f 76/76/76 74/74/74 73/73/73
f 75/75/75 76/76/76 73/73/73
f 56/56/56 72/72/72 57/57/57
f 78/78/78 77/77/77 65/65/65
f 79/79/79 78/78/78 65/65/65
f 65/65/65 63/63/63 79/79/79
f 80/80/80 79/79/79 63/63/63
f 83/83/83 82/82/82 81/81/81
f 84/84/84 83/83/83 81/81/81
f 85/85/85 82/82/82 83/83/83
f 23/23/23 85/85/85 83/83/83
f 86/86/86 81/81/81 82/82/82
f 87/87/87 86/86/86 82/82/82
f 86/86/86 87/87/87 88/88/88
f 87/87/87 89/89/89 88/88/88
f 90/90/90 53/53/53 60/60/60
f 16/16/16 91/91/91 11/11/11
f 11/11/11 91/91/91 14/14/14
