g BookCoverFront_Purp_flyingItemAO_UV2
v 0.0099397 0.2900023 -0.3892439
v 0.0099397 0.3 -0.3892439
v 0.0099397 0.3 -0.4
v 0.0099397 0.2900023 -0.4
v -0.00993821 0.3 -0.4
v -0.00993821 0.2900023 -0.4
v 0.0099397 0.1933364 -0.4
v -0.00993821 0.1933364 -0.4
v 0.0099397 0.1933364 -0.3892439
v 0.0099397 0.1933364 -0.2956435
v 0.0099397 0.2900023 -0.2956435
v -0.00993821 0.3 -0.3892439
v 0.0099397 0.3 -0.2956435
v -0.00993821 0.3 -0.2956435
v 0.0099397 0.3 -0.2020432
v -0.00993821 0.3 -0.2020432
v 0.0099397 0.2900023 -0.2020432
v 0.0099397 0.2900023 -0.1084428
v 0.0099397 0.3 -0.1084428
v 0.0099397 0.2900023 -0.01484242
v 0.0099397 0.3 -0.01484242
v 0.0099397 0.2900023 4.589558E-06
v 0.0099397 0.3 4.589558E-06
v 0.0099397 0.1933364 4.589558E-06
v 0.0099397 0.1933364 -0.01484242
v 0.0099397 0.1933364 -0.1084428
v 0.0099397 0.1933364 -0.2020432
v 0.0099397 0.09667051 -0.2020432
v 0.0099397 0.09667051 -0.2956435
v 0.0099397 4.589558E-06 -0.2020432
v 0.0099397 4.589558E-06 -0.2956435
v 0.0099397 -0.096672 -0.2020432
v 0.0099397 -0.096672 -0.2956435
v 0.0099397 -0.1933379 -0.2020432
v 0.0099397 -0.1933379 -0.2956435
v 0.0099397 -0.2900038 -0.2020432
v 0.0099397 -0.2900038 -0.2956435
v 0.0099397 -0.3000015 -0.2020432
v 0.0099397 -0.3000015 -0.1084428
v 0.0099397 -0.2900038 -0.1084428
v 0.0099397 -0.3000015 -0.01484242
v 0.0099397 -0.2900038 -0.01484242
v 0.0099397 -0.3000015 4.589558E-06
v 0.0099397 -0.2900038 4.589558E-06
v 0.0099397 -0.3000015 -0.2956435
v 0.0099397 -0.2900038 -0.3892439
v 0.0099397 -0.3000015 -0.3892439
v 0.0099397 -0.2900038 -0.4
v 0.0099397 -0.3000015 -0.4
v -0.00993821 -0.2900038 -0.4
v -0.00993821 -0.3000015 -0.4
v -0.00993821 -0.3000015 -0.3892439
v -0.00993821 -0.3000015 -0.2956435
v -0.00993821 -0.3000015 -0.2020432
v 0.0099397 -0.1933379 -0.1084428
v 0.0099397 -0.096672 -0.1084428
v 0.0099397 4.589558E-06 -0.1084428
v 0.0099397 0.09667051 -0.1084428
v 0.0099397 -0.1933379 -0.01484242
v 0.0099397 -0.096672 -0.01484242
v 0.0099397 4.589558E-06 -0.01484242
v 0.0099397 0.09667051 -0.01484242
v 0.0099397 -0.1933379 4.589558E-06
v 0.0099397 -0.096672 4.589558E-06
v 0.0099397 4.589558E-06 4.589558E-06
v 0.0099397 0.09667051 4.589558E-06
v 0.0099397 -0.3000015 -0.01484242
v -0.00993821 -0.3000015 -0.01484242
v -0.00993821 -0.3000015 4.589558E-06
v 0.0099397 -0.3000015 4.589558E-06
v -0.00993821 -0.2900038 4.589558E-06
v -0.00993821 -0.2900038 -0.01484242
v -0.00993821 -0.3000015 -0.1084428
v -0.00993821 -0.2900038 -0.1084428
v 0.0099397 -0.3000015 -0.1084428
v 0.0099397 -0.3000015 -0.2020432
v -0.00993821 -0.3000015 -0.2020432
v -0.00993821 -0.2900038 -0.2020432
v -0.00993821 -0.3000015 -0.2956435
v -0.00993821 -0.2900038 -0.2956435
v -0.00993821 -0.3000015 -0.3892439
v -0.00993821 -0.2900038 -0.3892439
v -0.00993821 -0.3000015 -0.4
v -0.00993821 -0.2900038 -0.4
v -0.00993821 -0.1933379 -0.3892439
v -0.00993821 -0.1933379 -0.4
v -0.00993821 -0.096672 -0.3892439
v -0.00993821 -0.096672 -0.4
v -0.00993821 4.589558E-06 -0.3892439
v -0.00993821 4.589558E-06 -0.4
v -0.00993821 0.09667051 -0.3892439
v -0.00993821 0.09667051 -0.4
v -0.00993821 0.1933364 -0.3892439
v -0.00993821 0.1933364 -0.4
v -0.00993821 0.2900023 -0.3892439
v -0.00993821 0.2900023 -0.4
v -0.00993821 0.3 -0.3892439
v -0.00993821 0.3 -0.4
v -0.00993821 0.3 -0.2956435
v -0.00993821 0.2900023 -0.2956435
v -0.00993821 0.3 -0.2020432
v -0.00993821 0.2900023 -0.2020432
v -0.00993821 0.3 -0.1084428
v 0.0099397 0.3 -0.1084428
v 0.0099397 0.3 -0.01484242
v -0.00993821 0.3 -0.01484242
v 0.0099397 0.3 4.589558E-06
v -0.00993821 0.3 4.589558E-06
v -0.00993821 0.2900023 -0.01484242
v -0.00993821 0.2900023 4.589558E-06
v -0.00993821 0.2900023 -0.1084428
v 0.0099397 0.3 -0.2020432
v -0.00993821 0.1933364 -0.01484242
v -0.00993821 0.2900023 -0.01484242
v -0.00993821 0.2900023 4.589558E-06
v -0.00993821 0.1933364 4.589558E-06
v -0.00993821 0.1933364 -0.1084428
v -0.00993821 0.2900023 -0.1084428
v -0.00993821 0.1933364 -0.2020432
v -0.00993821 0.2900023 -0.2020432
v -0.00993821 0.1933364 -0.2956435
v -0.00993821 0.2900023 -0.2956435
v -0.00993821 0.1933364 -0.3892439
v -0.00993821 0.2900023 -0.3892439
v -0.00993821 0.09667051 -0.2020432
v -0.00993821 0.09667051 -0.1084428
v -0.00993821 4.589558E-06 -0.2020432
v -0.00993821 4.589558E-06 -0.1084428
v -0.00993821 -0.096672 -0.2020432
v -0.00993821 -0.096672 -0.1084428
v -0.00993821 -0.1933379 -0.2020432
v -0.00993821 -0.1933379 -0.1084428
v -0.00993821 -0.2900038 -0.2020432
v -0.00993821 -0.2900038 -0.1084428
v -0.00993821 -0.2900038 -0.2956435
v -0.00993821 -0.1933379 -0.2956435
v -0.00993821 -0.096672 -0.2956435
v -0.00993821 4.589558E-06 -0.2956435
v -0.00993821 0.09667051 -0.2956435
v -0.00993821 -0.2900038 -0.3892439
v -0.00993821 -0.1933379 -0.3892439
v -0.00993821 -0.096672 -0.3892439
v -0.00993821 4.589558E-06 -0.3892439
v -0.00993821 0.09667051 -0.3892439
v -0.00993821 -0.1933379 -0.01484242
v -0.00993821 -0.2900038 -0.01484242
v -0.00993821 -0.1933379 4.589558E-06
v -0.00993821 -0.2900038 4.589558E-06
v -0.00993821 -0.096672 4.589558E-06
v -0.00993821 -0.096672 -0.01484242
v -0.00993821 4.589558E-06 -0.01484242
v -0.00993821 0.09667051 -0.01484242
v -0.00993821 4.589558E-06 4.589558E-06
v -0.00993821 0.09667051 4.589558E-06
v 0.0099397 -0.1933379 -0.3892439
v 0.0099397 -0.096672 -0.3892439
v 0.0099397 4.589558E-06 -0.3892439
v 0.0099397 0.09667051 -0.3892439
v 0.0099397 -0.1933379 -0.4
v 0.0099397 -0.096672 -0.4
v 0.0099397 4.589558E-06 -0.4
v 0.0099397 0.09667051 -0.4
v -0.00993821 -0.1933379 -0.4
v 0.0099397 4.589558E-06 -0.4
v 0.0099397 0.09667051 -0.4
v 0.0099397 -0.096672 -0.4
v 0.0099397 -0.1933379 -0.4
vt 0.7588919 0.8907228
vt 0.7588919 0.8907228
vt 0.7588919 0.8907228
vt 0.7588919 0.8907228
vt 0.7588919 0.8907228
vt 0.7588919 0.8907228
vt 0.7588919 0.890229
vt 0.7588919 0.890229
vt 0.7588919 0.890229
vt 0.7588919 0.890229
vt 0.7588919 0.8907228
vt 0.7588919 0.8907228
vt 0.7588919 0.8907228
vt 0.7588919 0.8907228
vt 0.7583981 0.8907228
vt 0.7583981 0.8907228
vt 0.7583981 0.8907228
vt 0.7583981 0.8907228
vt 0.7583981 0.8907228
vt 0.7583981 0.8907228
vt 0.7583981 0.8907228
vt 0.7583981 0.8907228
vt 0.7583981 0.8907228
vt 0.7583981 0.890229
vt 0.7583981 0.890229
vt 0.7583981 0.890229
vt 0.7583981 0.890229
vt 0.7583981 0.890229
vt 0.7588919 0.890229
vt 0.7583981 0.890229
vt 0.7588919 0.890229
vt 0.7583981 0.890229
vt 0.7588919 0.890229
vt 0.7583981 0.8897353
vt 0.7588919 0.8897353
vt 0.7583981 0.8897353
vt 0.7588919 0.8897353
vt 0.7583981 0.8897353
vt 0.7583981 0.8897353
vt 0.7583981 0.8897353
vt 0.7583981 0.8897353
vt 0.7583981 0.8897353
vt 0.7583981 0.8897353
vt 0.7583981 0.8897353
vt 0.7588919 0.8897353
vt 0.7588919 0.8897353
vt 0.7588919 0.8897353
vt 0.7588919 0.8897353
vt 0.7588919 0.8897353
vt 0.7588919 0.8897353
vt 0.7588919 0.8897353
vt 0.7588919 0.8897353
vt 0.7588919 0.8897353
vt 0.7583981 0.8897353
vt 0.7583981 0.8897353
vt 0.7583981 0.890229
vt 0.7583981 0.890229
vt 0.7583981 0.890229
vt 0.7583981 0.8897353
vt 0.7583981 0.890229
vt 0.7583981 0.890229
vt 0.7583981 0.890229
vt 0.7583981 0.8897353
vt 0.7583981 0.890229
vt 0.7583981 0.890229
vt 0.7583981 0.890229
vt 0.7583981 0.8897353
vt 0.7583981 0.8897353
vt 0.7583981 0.8897353
vt 0.7583981 0.8897353
vt 0.7583981 0.8897353
vt 0.7583981 0.8897353
vt 0.7583981 0.8897353
vt 0.7583981 0.8897353
vt 0.7583981 0.8897353
vt 0.7583981 0.8897353
vt 0.7583981 0.8897353
vt 0.7583981 0.8897353
vt 0.7588919 0.8897353
vt 0.7588919 0.8897353
vt 0.7588919 0.8897353
vt 0.7588919 0.8897353
vt 0.7588919 0.8897353
vt 0.7588919 0.8897353
vt 0.7588919 0.8897353
vt 0.7588919 0.8897353
vt 0.7588919 0.890229
vt 0.7588919 0.890229
vt 0.7588919 0.890229
vt 0.7588919 0.890229
vt 0.7588919 0.890229
vt 0.7588919 0.890229
vt 0.7588919 0.890229
vt 0.7588919 0.890229
vt 0.7588919 0.8907228
vt 0.7588919 0.8907228
vt 0.7588919 0.8907228
vt 0.7588919 0.8907228
vt 0.7588919 0.8907228
vt 0.7588919 0.8907228
vt 0.7583981 0.8907228
vt 0.7583981 0.8907228
vt 0.7583981 0.8907228
vt 0.7583981 0.8907228
vt 0.7583981 0.8907228
vt 0.7583981 0.8907228
vt 0.7583981 0.8907228
vt 0.7583981 0.8907228
vt 0.7583981 0.8907228
vt 0.7583981 0.8907228
vt 0.7583981 0.8907228
vt 0.7583981 0.8907228
vt 0.5041175 1.01021
vt 0.5041175 1.010704
vt 0.5041175 1.010704
vt 0.5041175 1.01021
vt 0.5046113 1.01021
vt 0.5046113 1.010704
vt 0.505105 1.01021
vt 0.505105 1.010704
vt 0.5055988 1.01021
vt 0.5055988 1.010704
vt 0.5060925 1.01021
vt 0.5060925 1.010704
vt 0.505105 1.009716
vt 0.5046113 1.009716
vt 0.505105 1.009223
vt 0.5046113 1.009223
vt 0.505105 1.008729
vt 0.5046113 1.008729
vt 0.505105 1.008235
vt 0.5046113 1.008235
vt 0.505105 1.007741
vt 0.5046113 1.007741
vt 0.5055988 1.007741
vt 0.5055988 1.008235
vt 0.5055988 1.008729
vt 0.5055988 1.009223
vt 0.5055988 1.009716
vt 0.5060925 1.007741
vt 0.5060925 1.008235
vt 0.5060925 1.008729
vt 0.5060925 1.009223
vt 0.5060925 1.009716
vt 0.5041175 1.008235
vt 0.5041175 1.007741
vt 0.5041175 1.008235
vt 0.5041175 1.007741
vt 0.5041175 1.008729
vt 0.5041175 1.008729
vt 0.5041175 1.009223
vt 0.5041175 1.009716
vt 0.5041175 1.009223
vt 0.5041175 1.009716
vt 0.7588919 0.8897353
vt 0.7588919 0.890229
vt 0.7588919 0.890229
vt 0.7588919 0.890229
vt 0.7588919 0.8897353
vt 0.7588919 0.890229
vt 0.7588919 0.890229
vt 0.7588919 0.890229
vt 0.7588919 0.8897353
vt 0.7588919 0.890229
vt 0.7588919 0.890229
vt 0.7588919 0.890229
vt 0.7588919 0.8897353
vn 0.9999924 0.003921509 0
vn 0.7071068 0.7071068 0
vn 0.5764662 0.5764661 -0.5791144
vn 0.7097985 0.003921509 -0.7043939
vn -0.5764661 0.5764661 -0.5791146
vn -0.7097985 0.003921509 -0.7043939
vn 0.7097985 0.003921509 -0.7043939
vn -0.7097985 0.003921509 -0.7043939
vn 0.9999924 0.003921509 0
vn 0.9999924 0.003921509 0
vn 0.9999924 0.003921509 0
vn -0.7071068 0.7071068 0
vn 0.7071068 0.7071068 0
vn -0.7071068 0.7071068 0
vn 0.7071068 0.7071068 0
vn -0.7071068 0.7071068 0
vn 0.9999924 0.003921509 0
vn 0.9999924 0.003921509 0
vn 0.7071068 0.7071068 0
vn 0.9999924 0.003921509 0
vn 0.7071068 0.7071068 0
vn 0.9999924 0.003921509 0
vn 0.7071068 0.7071068 0
vn 0.9999924 0.003921509 0
vn 0.9999924 0.003921509 0
vn 0.9999924 0.003921509 0
vn 0.9999924 0.003921509 0
vn 0.9999924 0.003921509 0
vn 0.9999924 0.003921509 0
vn 0.9999924 0.003921509 0
vn 0.9999924 0.003921509 0
vn 0.9999924 0.003921509 0
vn 0.9999924 0.003921509 0
vn 0.9999924 0.003921509 0
vn 0.9999924 0.003921509 0
vn 0.9999924 0.003921509 0
vn 0.9999924 0.003921509 0
vn 0.7071068 -0.7071068 0
vn 0.7071068 -0.7071068 0
vn 0.9999924 0.003921509 0
vn 0.7071068 -0.7071068 0
vn 0.9999924 0.003921509 0
vn 0.7071068 -0.7071068 0
vn 0.9999924 0.003921509 0
vn 0.7071068 -0.7071068 0
vn 0.9999924 0.003921509 0
vn 0.7071068 -0.7071068 0
vn 0.7097985 0.003921509 -0.7043939
vn 0.5764662 -0.5764662 -0.5791144
vn -0.7097985 0.003921509 -0.7043939
vn -0.5764661 -0.5764662 -0.5791144
vn -0.7071068 -0.7071068 0
vn -0.7071068 -0.7071068 0
vn -0.7071068 -0.7071068 0
vn 0.9999924 0.003921509 0
vn 0.9999924 0.003921509 0
vn 0.9999924 0.003921509 0
vn 0.9999924 0.003921509 0
vn 0.9999924 0.003921509 0
vn 0.9999924 0.003921509 0
vn 0.9999924 0.003921509 0
vn 0.9999924 0.003921509 0
vn 0.9999924 0.003921509 0
vn 0.9999924 0.003921509 0
vn 0.9999924 0.003921509 0
vn 0.9999924 0.003921509 0
vn 0.7071068 -0.7071068 0
vn -0.7071068 -0.7071068 0
vn -0.7071068 -0.7071068 0
vn 0.7071068 -0.7071068 0
vn -0.9999923 0.003921509 -0.0003449296
vn -0.9999923 0.003921509 -0.0003449296
vn -0.7071068 -0.7071068 0
vn -0.9999923 0.003921509 -0.0003449296
vn 0.7071068 -0.7071068 0
vn 0.7071068 -0.7071068 0
vn -0.7071068 -0.7071068 0
vn -0.9999923 0.003921509 -0.0003449296
vn -0.7071068 -0.7071068 0
vn -0.9999923 0.003921509 -0.0003449296
vn -0.7071068 -0.7071068 0
vn -0.9999923 0.003921509 -0.0003449296
vn -0.5764661 -0.5764662 -0.5791144
vn -0.7097985 0.003921509 -0.7043939
vn -0.9999923 0.003921509 -0.0003449296
vn -0.7097985 0.003921509 -0.7043939
vn -0.9999923 0.003921509 -0.0003449296
vn -0.7097985 0.003921509 -0.7043939
vn -0.9999923 0.003921509 -0.0003449296
vn -0.7097985 0.003921509 -0.7043939
vn -0.9999923 0.003921509 -0.0003449296
vn -0.7097985 0.003921509 -0.7043939
vn -0.9999923 0.003921509 -0.0003449296
vn -0.7097985 0.003921509 -0.7043939
vn -0.9999923 0.003921509 -0.0003449296
vn -0.7097985 0.003921509 -0.7043939
vn -0.7071068 0.7071068 0
vn -0.5764661 0.5764661 -0.5791146
vn -0.7071068 0.7071068 0
vn -0.9999923 0.003921509 -0.0003449296
vn -0.7071068 0.7071068 0
vn -0.9999923 0.003921509 -0.0003449296
vn -0.7071068 0.7071068 0
vn 0.7071068 0.7071068 0
vn 0.7071068 0.7071068 0
vn -0.7071068 0.7071068 0
vn 0.7071068 0.7071068 0
vn -0.7071068 0.7071068 0
vn -0.9999923 0.003921509 -0.0003449296
vn -0.9999923 0.003921509 -0.0003449296
vn -0.9999923 0.003921509 -0.0003449296
vn 0.7071068 0.7071068 0
vn -0.9999923 0.003921509 -0.0003449296
vn -0.9999923 0.003921509 -0.0003449296
vn -0.9999923 0.003921509 -0.0003449296
vn -0.9999923 0.003921509 -0.0003449296
vn -0.9999923 0.003921509 -0.0003449296
vn -0.9999923 0.003921509 -0.0003449296
vn -0.9999923 0.003921509 -0.0003449296
vn -0.9999923 0.003921509 -0.0003449296
vn -0.9999923 0.003921509 -0.0003449296
vn -0.9999923 0.003921509 -0.0003449296
vn -0.9999923 0.003921509 -0.0003449296
vn -0.9999923 0.003921509 -0.0003449296
vn -0.9999923 0.003921509 -0.0003449296
vn -0.9999923 0.003921509 -0.0003449296
vn -0.9999923 0.003921509 -0.0003449296
vn -0.9999923 0.003921509 -0.0003449296
vn -0.9999923 0.003921509 -0.0003449296
vn -0.9999923 0.003921509 -0.0003449296
vn -0.9999923 0.003921509 -0.0003449296
vn -0.9999923 0.003921509 -0.0003449296
vn -0.9999923 0.003921509 -0.0003449296
vn -0.9999923 0.003921509 -0.0003449296
vn -0.9999923 0.003921509 -0.0003449296
vn -0.9999923 0.003921509 -0.0003449296
vn -0.9999923 0.003921509 -0.0003449296
vn -0.9999923 0.003921509 -0.0003449296
vn -0.9999923 0.003921509 -0.0003449296
vn -0.9999923 0.003921509 -0.0003449296
vn -0.9999923 0.003921509 -0.0003449296
vn -0.9999923 0.003921509 -0.0003449296
vn -0.9999923 0.003921509 -0.0003449296
vn -0.9999923 0.003921509 -0.0003449296
vn -0.9999923 0.003921509 -0.0003449296
vn -0.9999923 0.003921509 -0.0003449296
vn -0.9999923 0.003921509 -0.0003449296
vn -0.9999923 0.003921509 -0.0003449296
vn -0.9999923 0.003921509 -0.0003449296
vn -0.9999923 0.003921509 -0.0003449296
vn -0.9999923 0.003921509 -0.0003449296
vn -0.9999923 0.003921509 -0.0003449296
vn -0.9999923 0.003921509 -0.0003449296
vn -0.9999923 0.003921509 -0.0003449296
vn 0.9999924 0.003921509 0
vn 0.9999924 0.003921509 0
vn 0.9999924 0.003921509 0
vn 0.9999924 0.003921509 0
vn 0.7097985 0.003921509 -0.7043939
vn 0.7097985 0.003921509 -0.7043939
vn 0.7097985 0.003921509 -0.7043939
vn 0.7097985 0.003921509 -0.7043939
vn -0.7097985 0.003921509 -0.7043939
vn 0.7097985 0.003921509 -0.7043939
vn 0.7097985 0.003921509 -0.7043939
vn 0.7097985 0.003921509 -0.7043939
vn 0.7097985 0.003921509 -0.7043939
g BookCoverFront_Purp_flyingItemAO_UV2_0
f 3/3/3 2/2/2 1/1/1
f 4/4/4 3/3/3 1/1/1
f 5/5/5 3/3/3 4/4/4
f 2/2/2 3/3/3 5/5/5
f 6/6/6 5/5/5 4/4/4
f 6/6/6 4/4/4 7/7/7
f 8/8/8 6/6/6 7/7/7
f 4/4/4 1/1/1 9/9/9
f 7/7/7 4/4/4 9/9/9
f 9/9/9 1/1/1 10/10/10
f 1/1/1 11/11/11 10/10/10
f 1/1/1 2/2/2 11/11/11
f 12/12/12 2/2/2 5/5/5
f 2/2/2 13/13/13 11/11/11
f 13/13/13 2/2/2 12/12/12
f 14/14/14 13/13/13 12/12/12
f 15/15/15 13/13/13 14/14/14
f 16/16/16 15/15/15 14/14/14
f 13/13/13 15/15/15 17/17/17
f 11/11/11 13/13/13 17/17/17
f 17/17/17 15/15/15 18/18/18
f 15/15/15 19/19/19 18/18/18
f 18/18/18 19/19/19 20/20/20
f 19/19/19 21/21/21 20/20/20
f 20/20/20 21/21/21 22/22/22
f 21/21/21 23/23/23 22/22/22
f 20/20/20 22/22/22 24/24/24
f 25/25/25 20/20/20 24/24/24
f 18/18/18 20/20/20 25/25/25
f 26/26/26 18/18/18 25/25/25
f 17/17/17 18/18/18 26/26/26
f 27/27/27 17/17/17 26/26/26
f 11/11/11 17/17/17 27/27/27
f 10/10/10 11/11/11 27/27/27
f 10/10/10 27/27/27 28/28/28
f 29/29/29 10/10/10 28/28/28
f 29/29/29 28/28/28 30/30/30
f 31/31/31 29/29/29 30/30/30
f 31/31/31 30/30/30 32/32/32
f 33/33/33 31/31/31 32/32/32
f 33/33/33 32/32/32 34/34/34
f 35/35/35 33/33/33 34/34/34
f 35/35/35 34/34/34 36/36/36
f 37/37/37 35/35/35 36/36/36
f 37/37/37 36/36/36 38/38/38
f 38/38/38 36/36/36 39/39/39
f 36/36/36 40/40/40 39/39/39
f 36/36/36 34/34/34 40/40/40
f 39/39/39 40/40/40 41/41/41
f 40/40/40 42/42/42 41/41/41
f 41/41/41 42/42/42 43/43/43
f 42/42/42 44/44/44 43/43/43
f 45/45/45 37/37/37 38/38/38
f 46/46/46 37/37/37 45/45/45
f 47/47/47 46/46/46 45/45/45
f 48/48/48 46/46/46 47/47/47
f 49/49/49 48/48/48 47/47/47
f 50/50/50 48/48/48 49/49/49
f 51/51/51 50/50/50 49/49/49
f 52/52/52 51/51/51 49/49/49
f 47/47/47 52/52/52 49/49/49
f 53/53/53 52/52/52 47/47/47
f 45/45/45 53/53/53 47/47/47
f 54/54/54 53/53/53 45/45/45
f 38/38/38 54/54/54 45/45/45
f 40/40/40 55/55/55 42/42/42
f 34/34/34 55/55/55 40/40/40
f 34/34/34 32/32/32 55/55/55
f 32/32/32 56/56/56 55/55/55
f 32/32/32 30/30/30 56/56/56
f 30/30/30 57/57/57 56/56/56
f 30/30/30 28/28/28 57/57/57
f 28/28/28 58/58/58 57/57/57
f 28/28/28 27/27/27 58/58/58
f 27/27/27 26/26/26 58/58/58
f 55/55/55 56/56/56 59/59/59
f 55/55/55 59/59/59 42/42/42
f 56/56/56 60/60/60 59/59/59
f 56/56/56 57/57/57 60/60/60
f 57/57/57 61/61/61 60/60/60
f 57/57/57 58/58/58 61/61/61
f 58/58/58 62/62/62 61/61/61
f 58/58/58 26/26/26 62/62/62
f 26/26/26 25/25/25 62/62/62
f 42/42/42 59/59/59 44/44/44
f 59/59/59 63/63/63 44/44/44
f 59/59/59 60/60/60 63/63/63
f 60/60/60 64/64/64 63/63/63
f 60/60/60 61/61/61 64/64/64
f 61/61/61 65/65/65 64/64/64
f 61/61/61 62/62/62 65/65/65
f 62/62/62 66/66/66 65/65/65
f 62/62/62 25/25/25 66/66/66
f 25/25/25 24/24/24 66/66/66
f 69/69/69 68/68/68 67/67/67
f 70/70/70 69/69/69 67/67/67
f 69/69/69 71/71/71 68/68/68
f 71/71/71 72/72/72 68/68/68
f 68/68/68 72/72/72 73/73/73
f 72/72/72 74/74/74 73/73/73
f 68/68/68 73/73/73 75/75/75
f 67/67/67 68/68/68 75/75/75
f 75/75/75 73/73/73 76/76/76
f 73/73/73 77/77/77 76/76/76
f 73/73/73 74/74/74 77/77/77
f 74/74/74 78/78/78 77/77/77
f 77/77/77 78/78/78 79/79/79
f 78/78/78 80/80/80 79/79/79
f 79/79/79 80/80/80 81/81/81
f 80/80/80 82/82/82 81/81/81
f 81/81/81 82/82/82 83/83/83
f 82/82/82 84/84/84 83/83/83
f 82/82/82 85/85/85 84/84/84
f 85/85/85 86/86/86 84/84/84
f 85/85/85 87/87/87 86/86/86
f 87/87/87 88/88/88 86/86/86
f 87/87/87 89/89/89 88/88/88
f 89/89/89 90/90/90 88/88/88
f 89/89/89 91/91/91 90/90/90
f 91/91/91 92/92/92 90/90/90
f 91/91/91 93/93/93 92/92/92
f 93/93/93 94/94/94 92/92/92
f 93/93/93 95/95/95 94/94/94
f 95/95/95 96/96/96 94/94/94
f 95/95/95 97/97/97 96/96/96
f 97/97/97 98/98/98 96/96/96
f 99/99/99 97/97/97 95/95/95
f 100/100/100 99/99/99 95/95/95
f 101/101/101 99/99/99 100/100/100
f 102/102/102 101/101/101 100/100/100
f 103/103/103 101/101/101 102/102/102
f 103/103/103 104/104/104 101/101/101
f 105/105/105 104/104/104 103/103/103
f 106/106/106 105/105/105 103/103/103
f 107/107/107 105/105/105 106/106/106
f 108/108/108 107/107/107 106/106/106
f 108/108/108 106/106/106 109/109/109
f 110/110/110 108/108/108 109/109/109
f 106/106/106 103/103/103 111/111/111
f 109/109/109 106/106/106 111/111/111
f 111/111/111 103/103/103 102/102/102
f 104/104/104 112/112/112 101/101/101
f 115/115/115 114/114/114 113/113/113
f 116/116/116 115/115/115 113/113/113
f 113/113/113 114/114/114 117/117/117
f 114/114/114 118/118/118 117/117/117
f 117/117/117 118/118/118 119/119/119
f 118/118/118 120/120/120 119/119/119
f 119/119/119 120/120/120 121/121/121
f 120/120/120 122/122/122 121/121/121
f 121/121/121 122/122/122 123/123/123
f 122/122/122 124/124/124 123/123/123
f 117/117/117 119/119/119 125/125/125
f 126/126/126 117/117/117 125/125/125
f 113/113/113 117/117/117 126/126/126
f 126/126/126 125/125/125 127/127/127
f 128/128/128 126/126/126 127/127/127
f 128/128/128 127/127/127 129/129/129
f 130/130/130 128/128/128 129/129/129
f 130/130/130 129/129/129 131/131/131
f 132/132/132 130/130/130 131/131/131
f 132/132/132 131/131/131 133/133/133
f 134/134/134 132/132/132 133/133/133
f 133/133/133 131/131/131 135/135/135
f 131/131/131 136/136/136 135/135/135
f 131/131/131 129/129/129 136/136/136
f 129/129/129 137/137/137 136/136/136
f 129/129/129 127/127/127 137/137/137
f 127/127/127 138/138/138 137/137/137
f 127/127/127 125/125/125 138/138/138
f 125/125/125 139/139/139 138/138/138
f 125/125/125 119/119/119 139/139/139
f 119/119/119 121/121/121 139/139/139
f 135/135/135 136/136/136 140/140/140
f 136/136/136 141/141/141 140/140/140
f 136/136/136 137/137/137 141/141/141
f 137/137/137 142/142/142 141/141/141
f 137/137/137 138/138/138 142/142/142
f 138/138/138 143/143/143 142/142/142
f 138/138/138 139/139/139 143/143/143
f 139/139/139 144/144/144 143/143/143
f 139/139/139 121/121/121 144/144/144
f 121/121/121 123/123/123 144/144/144
f 145/145/145 132/132/132 134/134/134
f 146/146/146 145/145/145 134/134/134
f 147/147/147 145/145/145 146/146/146
f 148/148/148 147/147/147 146/146/146
f 147/147/147 149/149/149 145/145/145
f 149/149/149 150/150/150 145/145/145
f 145/145/145 150/150/150 132/132/132
f 150/150/150 130/130/130 132/132/132
f 150/150/150 151/151/151 130/130/130
f 151/151/151 128/128/128 130/130/130
f 151/151/151 152/152/152 128/128/128
f 152/152/152 126/126/126 128/128/128
f 152/152/152 113/113/113 126/126/126
f 153/153/153 151/151/151 150/150/150
f 149/149/149 153/153/153 150/150/150
f 154/154/154 152/152/152 151/151/151
f 153/153/153 154/154/154 151/151/151
f 116/116/116 113/113/113 152/152/152
f 154/154/154 116/116/116 152/152/152
f 155/155/155 35/35/35 37/37/37
f 46/46/46 155/155/155 37/37/37
f 155/155/155 156/156/156 35/35/35
f 156/156/156 33/33/33 35/35/35
f 156/156/156 157/157/157 33/33/33
f 157/157/157 31/31/31 33/33/33
f 157/157/157 158/158/158 31/31/31
f 158/158/158 29/29/29 31/31/31
f 158/158/158 9/9/9 29/29/29
f 9/9/9 10/10/10 29/29/29
f 159/159/159 155/155/155 46/46/46
f 48/48/48 159/159/159 46/46/46
f 160/160/160 156/156/156 155/155/155
f 159/159/159 160/160/160 155/155/155
f 161/161/161 157/157/157 156/156/156
f 160/160/160 161/161/161 156/156/156
f 162/162/162 158/158/158 157/157/157
f 161/161/161 162/162/162 157/157/157
f 7/7/7 9/9/9 158/158/158
f 162/162/162 7/7/7 158/158/158
f 163/163/163 159/159/159 48/48/48
f 50/50/50 163/163/163 48/48/48
f 94/94/94 7/7/7 162/162/162
f 92/92/92 94/94/94 162/162/162
f 92/92/92 165/165/165 164/164/164
f 90/90/90 92/92/92 164/164/164
f 90/90/90 164/164/164 166/166/166
f 88/88/88 90/90/90 166/166/166
f 88/88/88 166/166/166 167/167/167
f 86/86/86 88/88/88 167/167/167
