g BookSpine_LGrn_flyingItemAO_UV2(Clone)
v 0.07329364 0.09666747 0.04171667
v -0.07300073 0.09666747 0.04171667
v -0.07300073 0.1933303 0.04171667
v 0.07329364 0.1933303 0.04171667
v -0.09775698 0.1933303 0.01833376
v -0.09775698 0.09666747 0.01833376
v -0.07300073 0.2900023 0.04171667
v -0.09775698 0.2900023 0.01833376
v -0.09775698 0.2900023 -4.559755E-06
v -0.09775698 0.1933303 -4.559755E-06
v -0.07300073 0.3000001 0.04171667
v 0.07329364 0.2900023 0.04171667
v 0.07329364 0.3000001 0.04171667
v -0.09775698 0.3000001 0.01833376
v 0.09804988 0.3000001 0.01833376
v 0.07563743 0.3000001 0.02327767
v 0.09804988 0.2900023 0.01833376
v 0.09804988 0.3000001 4.61936E-06
v 0.09804988 0.2900023 4.61936E-06
v 0.09804988 0.1933303 4.61936E-06
v 0.09804988 0.1933303 0.01833376
v 0.07807277 0.3000001 4.61936E-06
v -0.09775698 0.3000001 -4.559755E-06
v -0.07841158 0.3000001 -4.559755E-06
v -0.0759854 0.3000001 0.02327767
v 0.09804988 0.09666747 4.61936E-06
v 0.09804988 0.09666747 0.01833376
v 0.09804988 4.61936E-06 0.01833376
v 0.07329364 -4.559755E-06 0.04171667
v 0.09804988 -0.09666741 0.01833376
v 0.07329364 -0.09666741 0.04171667
v 0.09804988 -0.1933303 0.01833376
v 0.07329364 -0.1933303 0.04171667
v 0.07329364 -0.2900023 0.04171667
v 0.09804988 -0.2900023 0.01833376
v -0.07300073 -0.1933303 0.04171667
v -0.07300073 -0.2900023 0.04171667
v -0.07300073 -0.3 0.04171667
v 0.07329364 -0.3 0.04171667
v 0.09804988 -0.3 0.01833376
v 0.09804988 -0.2900023 4.61936E-06
v 0.09804988 -0.3 4.61936E-06
v 0.07807277 -0.3 4.61936E-06
v 0.07807277 -0.3 0.02327767
v 0.07807277 -0.2900023 0.02327767
v -0.07841158 -0.3 0.02327767
v -0.07841158 -0.2900023 0.02327767
v 0.07807277 -0.2900023 4.61936E-06
v -0.07841158 -0.2900023 -4.559755E-06
v -0.07841158 -0.3 -4.559755E-06
v -0.09775698 -0.3 -4.559755E-06
v -0.09775698 -0.3 0.01833376
v -0.0766629 -0.3 0.03826508
v -0.09775698 -0.2900023 0.01833376
v -0.09775698 -0.2900023 -4.559755E-06
v -0.09775698 -0.1933303 0.01833376
v -0.09775698 -0.09666741 0.01833376
v -0.07300073 -0.09666741 0.04171667
v -0.09775698 4.61936E-06 0.01833376
v -0.07300073 -4.559755E-06 0.04171667
v -0.09775698 -0.1933303 -4.559755E-06
v -0.09775698 -0.09666741 -4.559755E-06
v -0.09775698 -4.559755E-06 -4.559755E-06
v -0.09775698 0.09666747 -4.559755E-06
v -0.0759854 0.2900023 0.02327767
v -0.0759854 0.3000001 0.02327767
v -0.07841158 0.2900023 -4.559755E-06
v 0.07563743 0.2900023 0.02327767
v 0.07563743 0.3000001 0.02327767
v 0.07807277 0.2900023 4.61936E-06
v -0.09775698 -0.3 0.01833376
v -0.0766629 -0.3 0.03826508
v 0.07329364 -0.3 0.04171667
v 0.09804988 -0.3 0.01833376
v 0.09804988 -0.1933303 4.61936E-06
v 0.09804988 -0.09666741 4.61936E-06
v 0.09804988 -4.559755E-06 4.61936E-06
vt 0.7575758 0.9863148
vt 0.7565982 0.9863148
vt 0.7565982 0.9863148
vt 0.7575758 0.9863148
vt 0.7565982 0.9863148
vt 0.7565982 0.9863148
vt 0.7565982 0.9863148
vt 0.7565982 0.9863148
vt 0.7565982 0.9863148
vt 0.7565982 0.9863148
vt 0.7565982 0.9863148
vt 0.7575758 0.9863148
vt 0.7575758 0.9863148
vt 0.7565982 0.9863148
vt 0.7575758 0.9863148
vt 0.7575758 0.9863148
vt 0.7575758 0.9863148
vt 0.7575758 0.9863148
vt 0.7575758 0.9863148
vt 0.7575758 0.9863148
vt 0.7575758 0.9863148
vt 0.7575758 0.9863148
vt 0.7565982 0.9863148
vt 0.7565982 0.9863148
vt 0.7565982 0.9863148
vt 0.7575758 0.9863148
vt 0.7575758 0.9863148
vt 0.7575758 0.9863148
vt 0.7575758 0.9863148
vt 0.7575758 0.9853373
vt 0.7575758 0.9853373
vt 0.7575758 0.9853373
vt 0.7575758 0.9853373
vt 0.7575758 0.9853373
vt 0.7575758 0.9853373
vt 0.7565982 0.9853373
vt 0.7565982 0.9853373
vt 0.7565982 0.9853373
vt 0.7575758 0.9853373
vt 0.7575758 0.9853373
vt 0.7575758 0.9853373
vt 0.7575758 0.9853373
vt 0.7575758 0.9853373
vt 0.7575758 0.9853373
vt 0.7575758 0.9853373
vt 0.7565982 0.9853373
vt 0.7565982 0.9853373
vt 0.7575758 0.9853373
vt 0.7565982 0.9853373
vt 0.7565982 0.9853373
vt 0.7565982 0.9853373
vt 0.7565982 0.9853373
vt 0.7565982 0.9853373
vt 0.7565982 0.9853373
vt 0.7565982 0.9853373
vt 0.7565982 0.9853373
vt 0.7565982 0.9853373
vt 0.7565982 0.9853373
vt 0.7565982 0.9863148
vt 0.7565982 0.9863148
vt 0.7565982 0.9853373
vt 0.7565982 0.9853373
vt 0.7565982 0.9863148
vt 0.7565982 0.9863148
vt 0.7565982 0.9863148
vt 0.7565982 0.9863148
vt 0.7565982 0.9863148
vt 0.7575758 0.9863148
vt 0.7575758 0.9863148
vt 0.7575758 0.9863148
vt 0.7565982 0.9853373
vt 0.7565982 0.9853373
vt 0.7575758 0.9853373
vt 0.7575758 0.9853373
vt 0.7575758 0.9853373
vt 0.7575758 0.9853373
vt 0.7575758 0.9863148
vn 0.3725462 0.003921509 0.9280053
vn -0.3725461 0.003921509 0.9280054
vn -0.3725461 0.003921509 0.9280054
vn 0.3725462 0.003921509 0.9280053
vn -0.9215615 0.003921509 0.3882126
vn -0.9215615 0.003921509 0.3882126
vn -0.3725461 0.003921509 0.9280054
vn -0.9215615 0.003921509 0.3882126
vn -0.9999923 0.003921509 -0.0003449296
vn -0.9999923 0.003921509 -0.0003449296
vn -0.2862723 0.6313677 0.7207101
vn 0.3725462 0.003921509 0.9280053
vn 0.2862723 0.6313677 0.7207101
vn -0.7176415 0.6313677 0.2938802
vn 0.7176416 0.6313677 0.2938799
vn -0.3019584 0.8901892 -0.3411515
vn 0.9215616 0.003921509 0.3882124
vn 0.7071068 0.7071068 0
vn 0.9999924 0.003921509 0
vn 0.9999924 0.003921509 0
vn 0.9215616 0.003921509 0.3882124
vn -0.6784261 0.7333276 -0.04436782
vn -0.7071068 0.7071068 0
vn 0.6784262 0.7333276 -0.04436714
vn 0.3019585 0.8901892 -0.3411514
vn 0.9999924 0.003921509 0
vn 0.9215616 0.003921509 0.3882124
vn 0.9215616 0.003921509 0.3882124
vn 0.3725462 0.003921509 0.9280053
vn 0.9215616 0.003921509 0.3882124
vn 0.3725462 0.003921509 0.9280053
vn 0.9215616 0.003921509 0.3882124
vn 0.3725462 0.003921509 0.9280053
vn 0.3725462 0.003921509 0.9280053
vn 0.9215616 0.003921509 0.3882124
vn -0.3725461 0.003921509 0.9280054
vn -0.3725461 0.003921509 0.9280054
vn -0.2862723 -0.6313677 0.7207101
vn 0.2862723 -0.6313677 0.72071
vn 0.7176416 -0.6313677 0.2938797
vn 0.9999924 0.003921509 0
vn 0.7071068 -0.7071068 0
vn -0.7071068 -0.7071068 0
vn -0.3019584 -0.9058754 -0.297003
vn -0.7097985 0.003921509 -0.7043939
vn 0.3019585 -0.9058754 -0.2970029
vn 0.7097985 0.003921509 -0.7043939
vn -0.9999923 0.003921509 -0.0003449296
vn 0.9999924 0.003921509 0
vn 0.7071068 -0.7071068 0
vn -0.7071068 -0.7071068 0
vn -0.7176415 -0.6313677 0.2938801
vn -0.4823492 -0.7097985 0.5133472
vn -0.9215615 0.003921509 0.3882126
vn -0.9999923 0.003921509 -0.0003449296
vn -0.9215615 0.003921509 0.3882126
vn -0.9215615 0.003921509 0.3882126
vn -0.3725461 0.003921509 0.9280054
vn -0.9215615 0.003921509 0.3882126
vn -0.3725461 0.003921509 0.9280054
vn -0.9999923 0.003921509 -0.0003449296
vn -0.9999923 0.003921509 -0.0003449296
vn -0.9999923 0.003921509 -0.0003449296
vn -0.9999923 0.003921509 -0.0003449296
vn 0.6705831 0.003921509 -0.741824
vn 0.3019585 0.8901892 -0.3411514
vn 0.9921493 0.003921509 -0.1249976
vn -0.670583 0.003921509 -0.7418242
vn -0.3019584 0.8901892 -0.3411515
vn -0.9921492 0.003921509 -0.1249981
vn -0.7176415 -0.6313677 0.2938801
vn -0.4823492 -0.7097985 0.5133472
vn 0.2862723 -0.6313677 0.72071
vn 0.7176416 -0.6313677 0.2938797
vn 0.9999924 0.003921509 0
vn 0.9999924 0.003921509 0
vn 0.9999924 0.003921509 0
g BookSpine_LGrn_flyingItemAO_UV2(Clone)_0
f 3/3/3 2/2/2 1/1/1
f 4/4/4 3/3/3 1/1/1
f 3/3/3 5/5/5 2/2/2
f 5/5/5 6/6/6 2/2/2
f 5/5/5 3/3/3 7/7/7
f 8/8/8 5/5/5 7/7/7
f 8/8/8 9/9/9 5/5/5
f 9/9/9 10/10/10 5/5/5
f 5/5/5 10/10/10 6/6/6
f 7/7/7 11/11/11 8/8/8
f 11/11/11 7/7/7 12/12/12
f 3/3/3 4/4/4 12/12/12
f 7/7/7 3/3/3 12/12/12
f 13/13/13 11/11/11 12/12/12
f 11/11/11 14/14/14 8/8/8
f 8/8/8 14/14/14 9/9/9
f 15/15/15 13/13/13 12/12/12
f 15/15/15 16/16/16 13/13/13
f 13/13/13 16/16/16 11/11/11
f 17/17/17 15/15/15 12/12/12
f 18/18/18 15/15/15 17/17/17
f 16/16/16 15/15/15 18/18/18
f 19/19/19 18/18/18 17/17/17
f 19/19/19 17/17/17 20/20/20
f 17/17/17 21/21/21 20/20/20
f 21/21/21 17/17/17 12/12/12
f 22/22/22 16/16/16 18/18/18
f 14/14/14 23/23/23 9/9/9
f 23/23/23 14/14/14 24/24/24
f 14/14/14 25/25/25 24/24/24
f 16/16/16 25/25/25 11/11/11
f 11/11/11 25/25/25 14/14/14
f 20/20/20 21/21/21 26/26/26
f 21/21/21 27/27/27 26/26/26
f 27/27/27 21/21/21 4/4/4
f 1/1/1 27/27/27 4/4/4
f 28/28/28 27/27/27 1/1/1
f 29/29/29 28/28/28 1/1/1
f 30/30/30 28/28/28 29/29/29
f 31/31/31 30/30/30 29/29/29
f 32/32/32 30/30/30 31/31/31
f 33/33/33 32/32/32 31/31/31
f 32/32/32 33/33/33 34/34/34
f 35/35/35 32/32/32 34/34/34
f 33/33/33 36/36/36 34/34/34
f 36/36/36 37/37/37 34/34/34
f 37/37/37 38/38/38 34/34/34
f 38/38/38 39/39/39 34/34/34
f 34/34/34 39/39/39 35/35/35
f 39/39/39 40/40/40 35/35/35
f 35/35/35 40/40/40 41/41/41
f 32/32/32 35/35/35 41/41/41
f 40/40/40 42/42/42 41/41/41
f 42/42/42 40/40/40 43/43/43
f 40/40/40 44/44/44 43/43/43
f 43/43/43 44/44/44 45/45/45
f 44/44/44 46/46/46 45/45/45
f 46/46/46 47/47/47 45/45/45
f 48/48/48 43/43/43 45/45/45
f 47/47/47 46/46/46 49/49/49
f 46/46/46 50/50/50 49/49/49
f 50/50/50 46/46/46 51/51/51
f 46/46/46 52/52/52 51/51/51
f 52/52/52 53/53/53 37/37/37
f 39/39/39 38/38/38 53/53/53
f 51/51/51 52/52/52 54/54/54
f 54/54/54 52/52/52 37/37/37
f 55/55/55 51/51/51 54/54/54
f 56/56/56 54/54/54 37/37/37
f 36/36/36 56/56/56 37/37/37
f 57/57/57 56/56/56 36/36/36
f 58/58/58 57/57/57 36/36/36
f 59/59/59 57/57/57 58/58/58
f 60/60/60 59/59/59 58/58/58
f 6/6/6 59/59/59 60/60/60
f 2/2/2 6/6/6 60/60/60
f 61/61/61 55/55/55 54/54/54
f 56/56/56 61/61/61 54/54/54
f 62/62/62 61/61/61 56/56/56
f 57/57/57 62/62/62 56/56/56
f 63/63/63 62/62/62 57/57/57
f 59/59/59 63/63/63 57/57/57
f 64/64/64 63/63/63 59/59/59
f 6/6/6 64/64/64 59/59/59
f 10/10/10 64/64/64 6/6/6
f 58/58/58 36/36/36 33/33/33
f 31/31/31 58/58/58 33/33/33
f 60/60/60 58/58/58 31/31/31
f 29/29/29 60/60/60 31/31/31
f 2/2/2 60/60/60 29/29/29
f 1/1/1 2/2/2 29/29/29
f 24/24/24 66/66/66 65/65/65
f 67/67/67 24/24/24 65/65/65
f 68/68/68 65/65/65 66/66/66
f 69/69/69 68/68/68 66/66/66
f 68/68/68 69/69/69 70/70/70
f 69/69/69 22/22/22 70/70/70
f 72/72/72 71/71/71 46/46/46
f 73/73/73 72/72/72 46/46/46
f 46/46/46 44/44/44 73/73/73
f 74/74/74 73/73/73 44/44/44
f 75/75/75 32/32/32 41/41/41
f 30/30/30 32/32/32 75/75/75
f 76/76/76 30/30/30 75/75/75
f 28/28/28 30/30/30 76/76/76
f 77/77/77 28/28/28 76/76/76
f 27/27/27 28/28/28 77/77/77
f 26/26/26 27/27/27 77/77/77
f 4/4/4 21/21/21 12/12/12
f 37/37/37 53/53/53 38/38/38
