g BookCoverFront_Blue+Grn_flyingItemAO_UV2
v 0.0099397 0.2900023 -0.3892439
v 0.0099397 0.3 -0.3892439
v 0.0099397 0.3 -0.4
v 0.0099397 0.2900023 -0.4
v -0.00993821 0.3 -0.4
v -0.00993821 0.2900023 -0.4
v 0.0099397 0.1933364 -0.4
v -0.00993821 0.1933364 -0.4
v 0.0099397 0.1933364 -0.3892439
v 0.0099397 0.1933364 -0.2956435
v 0.0099397 0.2900023 -0.2956435
v -0.00993821 0.3 -0.3892439
v 0.0099397 0.3 -0.2956435
v -0.00993821 0.3 -0.3892439
v -0.00993821 0.3 -0.2956435
v 0.0099397 0.3 -0.2020432
v -0.00993821 0.3 -0.2020432
v -0.00993821 0.2900023 -0.3892439
v -0.00993821 0.2900023 -0.4
v -0.00993821 0.1933364 -0.4
v -0.00993821 0.1933364 -0.3892439
v -0.00993821 0.3 -0.4
v -0.00993821 0.2900023 -0.2956435
v -0.00993821 0.2900023 -0.2020432
v -0.00993821 0.3 -0.1084428
v 0.0099397 0.3 -0.1084428
v 0.0099397 0.3 -0.2020432
v -0.00993821 0.2900023 -0.1084428
v -0.00993821 0.3 -0.01484242
v -0.00993821 0.2900023 -0.01484242
v -0.00993821 0.3 4.589558E-06
v 0.0099397 0.3 4.589558E-06
v 0.0099397 0.3 -0.01484242
v -0.00993821 0.2900023 4.589558E-06
v 0.0099397 0.3 -0.01484242
v 0.0099397 0.3 -0.1084428
v 0.0099397 0.2900023 -0.01484242
v 0.0099397 0.2900023 4.589558E-06
v 0.0099397 0.3 4.589558E-06
v 0.0099397 0.1933364 4.589558E-06
v 0.0099397 0.1933364 -0.01484242
v 0.0099397 0.2900023 -0.1084428
v 0.0099397 0.2900023 -0.2020432
v 0.0099397 0.1933364 -0.1084428
v 0.0099397 0.1933364 -0.2020432
v 0.0099397 -0.3000015 -0.01484242
v -0.00993821 -0.3000015 -0.01484242
v -0.00993821 -0.3000015 4.589558E-06
v 0.0099397 -0.3000015 4.589558E-06
v -0.00993821 -0.2900038 4.589558E-06
v -0.00993821 -0.2900038 -0.01484242
v -0.00993821 -0.3000015 -0.1084428
v -0.00993821 -0.2900038 -0.1084428
v 0.0099397 -0.3000015 -0.1084428
v 0.0099397 -0.3000015 -0.2020432
v -0.00993821 -0.3000015 -0.2020432
v -0.00993821 -0.2900038 -0.2020432
v -0.00993821 -0.3000015 -0.2956435
v -0.00993821 -0.2900038 -0.2956435
v -0.00993821 -0.3000015 -0.3892439
v -0.00993821 -0.2900038 -0.3892439
v -0.00993821 -0.3000015 -0.4
v -0.00993821 -0.2900038 -0.4
v -0.00993821 -0.1933379 -0.3892439
v -0.00993821 -0.1933379 -0.4
v -0.00993821 -0.096672 -0.3892439
v -0.00993821 -0.096672 -0.4
v -0.00993821 4.589558E-06 -0.3892439
v -0.00993821 4.589558E-06 -0.4
v -0.00993821 0.09667051 -0.3892439
v -0.00993821 0.09667051 -0.4
v 0.0099397 -0.1933379 -0.4
v 0.0099397 -0.096672 -0.4
v 0.0099397 4.589558E-06 -0.4
v 0.0099397 0.09667051 -0.4
v -0.00993821 0.1933364 -0.01484242
v -0.00993821 0.2900023 -0.01484242
v -0.00993821 0.2900023 4.589558E-06
v -0.00993821 0.1933364 4.589558E-06
v -0.00993821 0.1933364 -0.1084428
v -0.00993821 0.2900023 -0.1084428
v -0.00993821 0.1933364 -0.2020432
v -0.00993821 0.2900023 -0.2020432
v -0.00993821 0.1933364 -0.2956435
v -0.00993821 0.2900023 -0.2956435
v -0.00993821 0.1933364 -0.3892439
v -0.00993821 0.2900023 -0.3892439
v -0.00993821 0.09667051 -0.2020432
v -0.00993821 0.09667051 -0.1084428
v -0.00993821 4.589558E-06 -0.2020432
v -0.00993821 4.589558E-06 -0.1084428
v -0.00993821 -0.096672 -0.2020432
v -0.00993821 -0.096672 -0.1084428
v -0.00993821 -0.1933379 -0.2020432
v -0.00993821 -0.1933379 -0.1084428
v -0.00993821 -0.2900038 -0.2020432
v -0.00993821 -0.2900038 -0.1084428
v -0.00993821 -0.2900038 -0.2956435
v -0.00993821 -0.1933379 -0.2956435
v -0.00993821 -0.096672 -0.2956435
v -0.00993821 4.589558E-06 -0.2956435
v -0.00993821 0.09667051 -0.2956435
v -0.00993821 -0.2900038 -0.3892439
v -0.00993821 -0.1933379 -0.3892439
v -0.00993821 -0.096672 -0.3892439
v -0.00993821 4.589558E-06 -0.3892439
v -0.00993821 0.09667051 -0.3892439
v -0.00993821 -0.1933379 -0.01484242
v -0.00993821 -0.2900038 -0.01484242
v -0.00993821 -0.1933379 4.589558E-06
v -0.00993821 -0.2900038 4.589558E-06
v -0.00993821 -0.096672 4.589558E-06
v -0.00993821 -0.096672 -0.01484242
v -0.00993821 4.589558E-06 -0.01484242
v -0.00993821 0.09667051 -0.01484242
v -0.00993821 4.589558E-06 4.589558E-06
v -0.00993821 0.09667051 4.589558E-06
v 0.0099397 -0.3000015 -0.3892439
v 0.0099397 -0.2900038 -0.3892439
v 0.0099397 -0.2900038 -0.4
v 0.0099397 -0.3000015 -0.4
v -0.00993821 -0.2900038 -0.4
v -0.00993821 -0.3000015 -0.4
v 0.0099397 -0.3000015 -0.2956435
v 0.0099397 -0.2900038 -0.2956435
v -0.00993821 -0.3000015 -0.3892439
v -0.00993821 -0.3000015 -0.2956435
v -0.00993821 -0.3000015 -0.2020432
v 0.0099397 -0.3000015 -0.2020432
v 0.0099397 -0.2900038 -0.2020432
v 0.0099397 -0.3000015 -0.1084428
v 0.0099397 -0.2900038 -0.1084428
v 0.0099397 -0.3000015 -0.01484242
v 0.0099397 -0.2900038 -0.01484242
v 0.0099397 -0.3000015 4.589558E-06
v 0.0099397 -0.2900038 4.589558E-06
v 0.0099397 -0.1933379 -0.2956435
v 0.0099397 -0.1933379 -0.2020432
v 0.0099397 -0.096672 -0.2956435
v 0.0099397 -0.096672 -0.2020432
v 0.0099397 4.589558E-06 -0.2956435
v 0.0099397 4.589558E-06 -0.2020432
v 0.0099397 0.09667051 -0.2956435
v 0.0099397 0.09667051 -0.2020432
v 0.0099397 -0.1933379 -0.1084428
v 0.0099397 -0.096672 -0.1084428
v 0.0099397 4.589558E-06 -0.1084428
v 0.0099397 0.09667051 -0.1084428
v 0.0099397 -0.1933379 -0.01484242
v 0.0099397 -0.096672 -0.01484242
v 0.0099397 4.589558E-06 -0.01484242
v 0.0099397 0.09667051 -0.01484242
v 0.0099397 -0.1933379 4.589558E-06
v 0.0099397 -0.096672 4.589558E-06
v 0.0099397 4.589558E-06 4.589558E-06
v 0.0099397 0.09667051 4.589558E-06
v 0.0099397 0.09667051 -0.3892439
v 0.0099397 4.589558E-06 -0.3892439
v 0.0099397 -0.096672 -0.3892439
v 0.0099397 -0.1933379 -0.3892439
v 0.0099397 -0.1933379 -0.4
v 0.0099397 -0.096672 -0.4
v 0.0099397 4.589558E-06 -0.4
v 0.0099397 0.09667051 -0.4
v -0.00993821 -0.1933379 -0.4
v 0.0099397 0.09667051 -0.2020432
v 0.0099397 0.1933364 -0.2020432
v 0.0099397 0.1933364 -0.2956435
v 0.0099397 0.09667051 -0.2956435
v 0.0099397 0.09667051 -0.1084428
v 0.0099397 0.1933364 -0.1084428
v 0.0099397 0.09667051 -0.01484242
v 0.0099397 0.1933364 -0.01484242
v 0.0099397 0.09667051 4.589558E-06
v 0.0099397 0.1933364 4.589558E-06
v 0.0099397 0.1933364 -0.3892439
v 0.0099397 0.09667051 -0.3892439
v 0.0099397 0.1933364 -0.4
v 0.0099397 0.09667051 -0.4
v -0.00993821 0.09667051 -0.4
v -0.00993821 0.1933364 -0.4
v -0.00993821 0.1933364 -0.3892439
v -0.00993821 0.09667051 -0.3892439
v 0.0099397 0.09667051 -0.4
v 0.0099397 0.1933364 -0.4
vt 0.7574106 0.8586292
vt 0.7574106 0.8586292
vt 0.7574106 0.8586292
vt 0.7574106 0.8586292
vt 0.7574106 0.8586292
vt 0.7574106 0.8586292
vt 0.7574106 0.8586292
vt 0.7574106 0.8586292
vt 0.7574106 0.8586292
vt 0.7574106 0.8586292
vt 0.7574106 0.8586292
vt 0.7574106 0.8586292
vt 0.7574106 0.8586292
vt 0.7574106 0.8586292
vt 0.7574106 0.8586292
vt 0.7574106 0.8586292
vt 0.7574106 0.8586292
vt 0.7574106 0.8586292
vt 0.7574106 0.8586292
vt 0.7574106 0.8586292
vt 0.7574106 0.8586292
vt 0.7574106 0.8586292
vt 0.7574106 0.8586292
vt 0.7574106 0.8586292
vt 0.7569169 0.8586292
vt 0.7569169 0.8586292
vt 0.7574106 0.8586292
vt 0.7569169 0.8586292
vt 0.7569169 0.8586292
vt 0.7569169 0.8586292
vt 0.7569169 0.8586292
vt 0.7569169 0.8586292
vt 0.7569169 0.8586292
vt 0.7569169 0.8586292
vt 0.7569169 0.8586292
vt 0.7569169 0.8586292
vt 0.7569169 0.8586292
vt 0.7569169 0.8586292
vt 0.7569169 0.8586292
vt 0.7569169 0.8586292
vt 0.7569169 0.8586292
vt 0.7569169 0.8586292
vt 0.7574106 0.8586292
vt 0.7569169 0.8586292
vt 0.7574106 0.8586292
vt 0.7569169 0.8581354
vt 0.7569169 0.8581354
vt 0.7569169 0.8581354
vt 0.7569169 0.8581354
vt 0.7569169 0.8581354
vt 0.7569169 0.8581354
vt 0.7569169 0.8581354
vt 0.7569169 0.8581354
vt 0.7569169 0.8581354
vt 0.7574106 0.8581354
vt 0.7574106 0.8581354
vt 0.7574106 0.8581354
vt 0.7574106 0.8581354
vt 0.7574106 0.8581354
vt 0.7574106 0.8581354
vt 0.7574106 0.8581354
vt 0.7574106 0.8581354
vt 0.7574106 0.8581354
vt 0.7574106 0.8581354
vt 0.7574106 0.8581354
vt 0.7574106 0.8581354
vt 0.7574106 0.8581354
vt 0.7574106 0.8586292
vt 0.7574106 0.8586292
vt 0.7574106 0.8586292
vt 0.7574106 0.8586292
vt 0.7574106 0.8581354
vt 0.7574106 0.8581354
vt 0.7574106 0.8586292
vt 0.7574106 0.8586292
vt 0.5041175 1.01021
vt 0.5041175 1.010704
vt 0.5041175 1.010704
vt 0.5041175 1.01021
vt 0.5046113 1.01021
vt 0.5046113 1.010704
vt 0.505105 1.01021
vt 0.505105 1.010704
vt 0.5055988 1.01021
vt 0.5055988 1.010704
vt 0.5060925 1.01021
vt 0.5060925 1.010704
vt 0.505105 1.009716
vt 0.5046113 1.009716
vt 0.505105 1.009223
vt 0.5046113 1.009223
vt 0.505105 1.008729
vt 0.5046113 1.008729
vt 0.505105 1.008235
vt 0.5046113 1.008235
vt 0.505105 1.007741
vt 0.5046113 1.007741
vt 0.5055988 1.007741
vt 0.5055988 1.008235
vt 0.5055988 1.008729
vt 0.5055988 1.009223
vt 0.5055988 1.009716
vt 0.5060925 1.007741
vt 0.5060925 1.008235
vt 0.5060925 1.008729
vt 0.5060925 1.009223
vt 0.5060925 1.009716
vt 0.5041175 1.008235
vt 0.5041175 1.007741
vt 0.5041175 1.008235
vt 0.5041175 1.007741
vt 0.5041175 1.008729
vt 0.5041175 1.008729
vt 0.5041175 1.009223
vt 0.5041175 1.009716
vt 0.5041175 1.009223
vt 0.5041175 1.009716
vt 0.7574106 0.8581354
vt 0.7574106 0.8581354
vt 0.7574106 0.8581354
vt 0.7574106 0.8581354
vt 0.7574106 0.8581354
vt 0.7574106 0.8581354
vt 0.7574106 0.8581354
vt 0.7574106 0.8581354
vt 0.7574106 0.8581354
vt 0.7574106 0.8581354
vt 0.7574106 0.8581354
vt 0.7574106 0.8581354
vt 0.7574106 0.8581354
vt 0.7569169 0.8581354
vt 0.7569169 0.8581354
vt 0.7569169 0.8581354
vt 0.7569169 0.8581354
vt 0.7569169 0.8581354
vt 0.7569169 0.8581354
vt 0.7574106 0.8581354
vt 0.7574106 0.8581354
vt 0.7574106 0.8581354
vt 0.7574106 0.8581354
vt 0.7574106 0.8586292
vt 0.7574106 0.8586292
vt 0.7574106 0.8586292
vt 0.7574106 0.8586292
vt 0.7569169 0.8581354
vt 0.7569169 0.8581354
vt 0.7569169 0.8586292
vt 0.7569169 0.8586292
vt 0.7569169 0.8581354
vt 0.7569169 0.8581354
vt 0.7569169 0.8586292
vt 0.7569169 0.8586292
vt 0.7569169 0.8581354
vt 0.7569169 0.8581354
vt 0.7569169 0.8586292
vt 0.7569169 0.8586292
vt 0.7574106 0.8586292
vt 0.7574106 0.8586292
vt 0.7574106 0.8581354
vt 0.7574106 0.8581354
vt 0.7574106 0.8581354
vt 0.7574106 0.8581354
vt 0.7574106 0.8586292
vt 0.7574106 0.8586292
vt 0.7574106 0.8581354
vt 0.7569169 0.9509602
vt 0.7569169 0.9514539
vt 0.7569169 0.9514539
vt 0.7569169 0.9509602
vt 0.7569169 0.9509602
vt 0.7569169 0.9514539
vt 0.7564232 0.9509602
vt 0.7564232 0.9514539
vt 0.7564232 0.9509602
vt 0.7564232 0.9514539
vt 0.7574106 0.9514539
vt 0.7574106 0.9509602
vt 0.7574106 0.9514539
vt 0.7574106 0.9509602
vt 0.7574106 0.9509602
vt 0.7574106 0.9514539
vt 0.7574106 0.9514539
vt 0.7574106 0.9509602
vt 0.7574106 0.9509602
vt 0.7574106 0.9514539
vn 0.9999924 0.003921509 0
vn 0.7071068 0.7071068 0
vn 0.5764662 0.5764661 -0.5791144
vn 0.7097985 0.003921509 -0.7043939
vn -0.5764661 0.5764661 -0.5791146
vn -0.7097985 0.003921509 -0.7043939
vn 0.7097985 0.003921509 -0.7043939
vn -0.7097985 0.003921509 -0.7043939
vn 0.9999924 0.003921509 0
vn 0.9999924 0.003921509 0
vn 0.9999924 0.003921509 0
vn -0.7071068 0.7071068 0
vn 0.7071068 0.7071068 0
vn -0.7071068 0.7071068 0
vn -0.7071068 0.7071068 0
vn 0.7071068 0.7071068 0
vn -0.7071068 0.7071068 0
vn -0.9999923 0.003921509 -0.0003449296
vn -0.7097985 0.003921509 -0.7043939
vn -0.7097985 0.003921509 -0.7043939
vn -0.9999923 0.003921509 -0.0003449296
vn -0.5764661 0.5764661 -0.5791146
vn -0.9999923 0.003921509 -0.0003449296
vn -0.9999923 0.003921509 -0.0003449296
vn -0.7071068 0.7071068 0
vn 0.7071068 0.7071068 0
vn 0.7071068 0.7071068 0
vn -0.9999923 0.003921509 -0.0003449296
vn -0.7071068 0.7071068 0
vn -0.9999923 0.003921509 -0.0003449296
vn -0.7071068 0.7071068 0
vn 0.7071068 0.7071068 0
vn 0.7071068 0.7071068 0
vn -0.9999923 0.003921509 -0.0003449296
vn 0.7071068 0.7071068 0
vn 0.7071068 0.7071068 0
vn 0.9999924 0.003921509 0
vn 0.9999924 0.003921509 0
vn 0.7071068 0.7071068 0
vn 0.9999924 0.003921509 0
vn 0.9999924 0.003921509 0
vn 0.9999924 0.003921509 0
vn 0.9999924 0.003921509 0
vn 0.9999924 0.003921509 0
vn 0.9999924 0.003921509 0
vn 0.7071068 -0.7071068 0
vn -0.7071068 -0.7071068 0
vn -0.7071068 -0.7071068 0
vn 0.7071068 -0.7071068 0
vn -0.9999923 0.003921509 -0.0003449296
vn -0.9999923 0.003921509 -0.0003449296
vn -0.7071068 -0.7071068 0
vn -0.9999923 0.003921509 -0.0003449296
vn 0.7071068 -0.7071068 0
vn 0.7071068 -0.7071068 0
vn -0.7071068 -0.7071068 0
vn -0.9999923 0.003921509 -0.0003449296
vn -0.7071068 -0.7071068 0
vn -0.9999923 0.003921509 -0.0003449296
vn -0.7071068 -0.7071068 0
vn -0.9999923 0.003921509 -0.0003449296
vn -0.5764661 -0.5764662 -0.5791144
vn -0.7097985 0.003921509 -0.7043939
vn -0.9999923 0.003921509 -0.0003449296
vn -0.7097985 0.003921509 -0.7043939
vn -0.9999923 0.003921509 -0.0003449296
vn -0.7097985 0.003921509 -0.7043939
vn -0.9999923 0.003921509 -0.0003449296
vn -0.7097985 0.003921509 -0.7043939
vn -0.9999923 0.003921509 -0.0003449296
vn -0.7097985 0.003921509 -0.7043939
vn 0.7097985 0.003921509 -0.7043939
vn 0.7097985 0.003921509 -0.7043939
vn 0.7097985 0.003921509 -0.7043939
vn 0.7097985 0.003921509 -0.7043939
vn -0.9999923 0.003921509 -0.0003449296
vn -0.9999923 0.003921509 -0.0003449296
vn -0.9999923 0.003921509 -0.0003449296
vn -0.9999923 0.003921509 -0.0003449296
vn -0.9999923 0.003921509 -0.0003449296
vn -0.9999923 0.003921509 -0.0003449296
vn -0.9999923 0.003921509 -0.0003449296
vn -0.9999923 0.003921509 -0.0003449296
vn -0.9999923 0.003921509 -0.0003449296
vn -0.9999923 0.003921509 -0.0003449296
vn -0.9999923 0.003921509 -0.0003449296
vn -0.9999923 0.003921509 -0.0003449296
vn -0.9999923 0.003921509 -0.0003449296
vn -0.9999923 0.003921509 -0.0003449296
vn -0.9999923 0.003921509 -0.0003449296
vn -0.9999923 0.003921509 -0.0003449296
vn -0.9999923 0.003921509 -0.0003449296
vn -0.9999923 0.003921509 -0.0003449296
vn -0.9999923 0.003921509 -0.0003449296
vn -0.9999923 0.003921509 -0.0003449296
vn -0.9999923 0.003921509 -0.0003449296
vn -0.9999923 0.003921509 -0.0003449296
vn -0.9999923 0.003921509 -0.0003449296
vn -0.9999923 0.003921509 -0.0003449296
vn -0.9999923 0.003921509 -0.0003449296
vn -0.9999923 0.003921509 -0.0003449296
vn -0.9999923 0.003921509 -0.0003449296
vn -0.9999923 0.003921509 -0.0003449296
vn -0.9999923 0.003921509 -0.0003449296
vn -0.9999923 0.003921509 -0.0003449296
vn -0.9999923 0.003921509 -0.0003449296
vn -0.9999923 0.003921509 -0.0003449296
vn -0.9999923 0.003921509 -0.0003449296
vn -0.9999923 0.003921509 -0.0003449296
vn -0.9999923 0.003921509 -0.0003449296
vn -0.9999923 0.003921509 -0.0003449296
vn -0.9999923 0.003921509 -0.0003449296
vn -0.9999923 0.003921509 -0.0003449296
vn -0.9999923 0.003921509 -0.0003449296
vn -0.9999923 0.003921509 -0.0003449296
vn -0.9999923 0.003921509 -0.0003449296
vn -0.9999923 0.003921509 -0.0003449296
vn 0.7071068 -0.7071068 0
vn 0.9999924 0.003921509 0
vn 0.7097985 0.003921509 -0.7043939
vn 0.5764662 -0.5764662 -0.5791144
vn -0.7097985 0.003921509 -0.7043939
vn -0.5764661 -0.5764662 -0.5791144
vn 0.7071068 -0.7071068 0
vn 0.9999924 0.003921509 0
vn -0.7071068 -0.7071068 0
vn -0.7071068 -0.7071068 0
vn -0.7071068 -0.7071068 0
vn 0.7071068 -0.7071068 0
vn 0.9999924 0.003921509 0
vn 0.7071068 -0.7071068 0
vn 0.9999924 0.003921509 0
vn 0.7071068 -0.7071068 0
vn 0.9999924 0.003921509 0
vn 0.7071068 -0.7071068 0
vn 0.9999924 0.003921509 0
vn 0.9999924 0.003921509 0
vn 0.9999924 0.003921509 0
vn 0.9999924 0.003921509 0
vn 0.9999924 0.003921509 0
vn 0.9999924 0.003921509 0
vn 0.9999924 0.003921509 0
vn 0.9999924 0.003921509 0
vn 0.9999924 0.003921509 0
vn 0.9999924 0.003921509 0
vn 0.9999924 0.003921509 0
vn 0.9999924 0.003921509 0
vn 0.9999924 0.003921509 0
vn 0.9999924 0.003921509 0
vn 0.9999924 0.003921509 0
vn 0.9999924 0.003921509 0
vn 0.9999924 0.003921509 0
vn 0.9999924 0.003921509 0
vn 0.9999924 0.003921509 0
vn 0.9999924 0.003921509 0
vn 0.9999924 0.003921509 0
vn 0.9999924 0.003921509 0
vn 0.9999924 0.003921509 0
vn 0.9999924 0.003921509 0
vn 0.9999924 0.003921509 0
vn 0.7097985 0.003921509 -0.7043939
vn 0.7097985 0.003921509 -0.7043939
vn 0.7097985 0.003921509 -0.7043939
vn 0.7097985 0.003921509 -0.7043939
vn -0.7097985 0.003921509 -0.7043939
vn 0.9999924 0.003921509 0
vn 0.9999924 0.003921509 0
vn 0.9999924 0.003921509 0
vn 0.9999924 0.003921509 0
vn 0.9999924 0.003921509 0
vn 0.9999924 0.003921509 0
vn 0.9999924 0.003921509 0
vn 0.9999924 0.003921509 0
vn 0.9999924 0.003921509 0
vn 0.9999924 0.003921509 0
vn 0.9999924 0.003921509 0
vn 0.9999924 0.003921509 0
vn 0.7097985 0.003921509 -0.7043939
vn 0.7097985 0.003921509 -0.7043939
vn -0.7097985 0.003921509 -0.7043939
vn -0.7097985 0.003921509 -0.7043939
vn -0.9999923 0.003921509 -0.0003449296
vn -0.9999923 0.003921509 -0.0003449296
vn 0.7097985 0.003921509 -0.7043939
vn 0.7097985 0.003921509 -0.7043939
g BookCoverFront_Blue+Grn_flyingItemAO_UV2_0
f 3/3/3 2/2/2 1/1/1
f 4/4/4 3/3/3 1/1/1
f 5/5/5 3/3/3 4/4/4
f 2/2/2 3/3/3 5/5/5
f 6/6/6 5/5/5 4/4/4
f 6/6/6 4/4/4 7/7/7
f 8/8/8 6/6/6 7/7/7
f 4/4/4 1/1/1 9/9/9
f 7/7/7 4/4/4 9/9/9
f 9/9/9 1/1/1 10/10/10
f 1/1/1 11/11/11 10/10/10
f 1/1/1 2/2/2 11/11/11
f 12/12/12 2/2/2 5/5/5
f 2/2/2 13/13/13 11/11/11
f 13/13/13 2/2/2 14/14/14
f 15/15/15 13/13/13 14/14/14
f 16/16/16 13/13/13 15/15/15
f 17/17/17 16/16/16 15/15/15
f 15/15/15 14/14/14 18/18/18
f 18/18/18 14/14/14 19/19/19
f 18/18/18 19/19/19 20/20/20
f 21/21/21 18/18/18 20/20/20
f 14/14/14 22/22/22 19/19/19
f 23/23/23 15/15/15 18/18/18
f 17/17/17 15/15/15 23/23/23
f 24/24/24 17/17/17 23/23/23
f 25/25/25 17/17/17 24/24/24
f 25/25/25 26/26/26 17/17/17
f 26/26/26 27/27/27 17/17/17
f 28/28/28 25/25/25 24/24/24
f 29/29/29 25/25/25 28/28/28
f 30/30/30 29/29/29 28/28/28
f 31/31/31 29/29/29 30/30/30
f 31/31/31 32/32/32 29/29/29
f 32/32/32 33/33/33 29/29/29
f 34/34/34 31/31/31 30/30/30
f 29/29/29 35/35/35 25/25/25
f 35/35/35 36/36/36 25/25/25
f 36/36/36 35/35/35 37/37/37
f 37/37/37 35/35/35 38/38/38
f 35/35/35 39/39/39 38/38/38
f 37/37/37 38/38/38 40/40/40
f 41/41/41 37/37/37 40/40/40
f 42/42/42 36/36/36 37/37/37
f 42/42/42 37/37/37 41/41/41
f 16/16/16 36/36/36 42/42/42
f 43/43/43 16/16/16 42/42/42
f 13/13/13 16/16/16 43/43/43
f 11/11/11 13/13/13 43/43/43
f 44/44/44 42/42/42 41/41/41
f 43/43/43 42/42/42 44/44/44
f 45/45/45 43/43/43 44/44/44
f 11/11/11 43/43/43 45/45/45
f 10/10/10 11/11/11 45/45/45
f 48/48/48 47/47/47 46/46/46
f 49/49/49 48/48/48 46/46/46
f 48/48/48 50/50/50 47/47/47
f 50/50/50 51/51/51 47/47/47
f 47/47/47 51/51/51 52/52/52
f 51/51/51 53/53/53 52/52/52
f 47/47/47 52/52/52 54/54/54
f 46/46/46 47/47/47 54/54/54
f 54/54/54 52/52/52 55/55/55
f 52/52/52 56/56/56 55/55/55
f 52/52/52 53/53/53 56/56/56
f 53/53/53 57/57/57 56/56/56
f 56/56/56 57/57/57 58/58/58
f 57/57/57 59/59/59 58/58/58
f 58/58/58 59/59/59 60/60/60
f 59/59/59 61/61/61 60/60/60
f 60/60/60 61/61/61 62/62/62
f 61/61/61 63/63/63 62/62/62
f 61/61/61 64/64/64 63/63/63
f 64/64/64 65/65/65 63/63/63
f 64/64/64 66/66/66 65/65/65
f 66/66/66 67/67/67 65/65/65
f 66/66/66 68/68/68 67/67/67
f 68/68/68 69/69/69 67/67/67
f 68/68/68 70/70/70 69/69/69
f 70/70/70 71/71/71 69/69/69
f 65/65/65 67/67/67 72/72/72
f 67/67/67 73/73/73 72/72/72
f 67/67/67 69/69/69 73/73/73
f 69/69/69 74/74/74 73/73/73
f 69/69/69 71/71/71 74/74/74
f 71/71/71 75/75/75 74/74/74
f 78/78/78 77/77/77 76/76/76
f 79/79/79 78/78/78 76/76/76
f 76/76/76 77/77/77 80/80/80
f 77/77/77 81/81/81 80/80/80
f 80/80/80 81/81/81 82/82/82
f 81/81/81 83/83/83 82/82/82
f 82/82/82 83/83/83 84/84/84
f 83/83/83 85/85/85 84/84/84
f 84/84/84 85/85/85 86/86/86
f 85/85/85 87/87/87 86/86/86
f 80/80/80 82/82/82 88/88/88
f 89/89/89 80/80/80 88/88/88
f 76/76/76 80/80/80 89/89/89
f 89/89/89 88/88/88 90/90/90
f 91/91/91 89/89/89 90/90/90
f 91/91/91 90/90/90 92/92/92
f 93/93/93 91/91/91 92/92/92
f 93/93/93 92/92/92 94/94/94
f 95/95/95 93/93/93 94/94/94
f 95/95/95 94/94/94 96/96/96
f 97/97/97 95/95/95 96/96/96
f 96/96/96 94/94/94 98/98/98
f 94/94/94 99/99/99 98/98/98
f 94/94/94 92/92/92 99/99/99
f 92/92/92 100/100/100 99/99/99
f 92/92/92 90/90/90 100/100/100
f 90/90/90 101/101/101 100/100/100
f 90/90/90 88/88/88 101/101/101
f 88/88/88 102/102/102 101/101/101
f 88/88/88 82/82/82 102/102/102
f 82/82/82 84/84/84 102/102/102
f 98/98/98 99/99/99 103/103/103
f 99/99/99 104/104/104 103/103/103
f 99/99/99 100/100/100 104/104/104
f 100/100/100 105/105/105 104/104/104
f 100/100/100 101/101/101 105/105/105
f 101/101/101 106/106/106 105/105/105
f 101/101/101 102/102/102 106/106/106
f 102/102/102 107/107/107 106/106/106
f 102/102/102 84/84/84 107/107/107
f 84/84/84 86/86/86 107/107/107
f 108/108/108 95/95/95 97/97/97
f 109/109/109 108/108/108 97/97/97
f 110/110/110 108/108/108 109/109/109
f 111/111/111 110/110/110 109/109/109
f 110/110/110 112/112/112 108/108/108
f 112/112/112 113/113/113 108/108/108
f 108/108/108 113/113/113 95/95/95
f 113/113/113 93/93/93 95/95/95
f 113/113/113 114/114/114 93/93/93
f 114/114/114 91/91/91 93/93/93
f 114/114/114 115/115/115 91/91/91
f 115/115/115 89/89/89 91/91/91
f 115/115/115 76/76/76 89/89/89
f 116/116/116 114/114/114 113/113/113
f 112/112/112 116/116/116 113/113/113
f 117/117/117 115/115/115 114/114/114
f 116/116/116 117/117/117 114/114/114
f 79/79/79 76/76/76 115/115/115
f 117/117/117 79/79/79 115/115/115
f 120/120/120 119/119/119 118/118/118
f 121/121/121 120/120/120 118/118/118
f 122/122/122 120/120/120 121/121/121
f 123/123/123 122/122/122 121/121/121
f 118/118/118 119/119/119 124/124/124
f 119/119/119 125/125/125 124/124/124
f 126/126/126 123/123/123 121/121/121
f 118/118/118 126/126/126 121/121/121
f 127/127/127 126/126/126 118/118/118
f 124/124/124 127/127/127 118/118/118
f 128/128/128 127/127/127 124/124/124
f 129/129/129 128/128/128 124/124/124
f 124/124/124 125/125/125 129/129/129
f 125/125/125 130/130/130 129/129/129
f 129/129/129 130/130/130 131/131/131
f 130/130/130 132/132/132 131/131/131
f 131/131/131 132/132/132 133/133/133
f 132/132/132 134/134/134 133/133/133
f 133/133/133 134/134/134 135/135/135
f 134/134/134 136/136/136 135/135/135
f 125/125/125 137/137/137 130/130/130
f 137/137/137 138/138/138 130/130/130
f 130/130/130 138/138/138 132/132/132
f 137/137/137 139/139/139 138/138/138
f 139/139/139 140/140/140 138/138/138
f 139/139/139 141/141/141 140/140/140
f 141/141/141 142/142/142 140/140/140
f 141/141/141 143/143/143 142/142/142
f 143/143/143 144/144/144 142/142/142
f 138/138/138 145/145/145 132/132/132
f 138/138/138 140/140/140 145/145/145
f 132/132/132 145/145/145 134/134/134
f 140/140/140 146/146/146 145/145/145
f 140/140/140 142/142/142 146/146/146
f 142/142/142 147/147/147 146/146/146
f 142/142/142 144/144/144 147/147/147
f 144/144/144 148/148/148 147/147/147
f 145/145/145 149/149/149 134/134/134
f 145/145/145 146/146/146 149/149/149
f 134/134/134 149/149/149 136/136/136
f 146/146/146 150/150/150 149/149/149
f 146/146/146 147/147/147 150/150/150
f 147/147/147 151/151/151 150/150/150
f 147/147/147 148/148/148 151/151/151
f 148/148/148 152/152/152 151/151/151
f 149/149/149 150/150/150 153/153/153
f 149/149/149 153/153/153 136/136/136
f 150/150/150 154/154/154 153/153/153
f 150/150/150 151/151/151 154/154/154
f 151/151/151 155/155/155 154/154/154
f 151/151/151 152/152/152 155/155/155
f 152/152/152 156/156/156 155/155/155
f 157/157/157 143/143/143 141/141/141
f 158/158/158 157/157/157 141/141/141
f 158/158/158 141/141/141 139/139/139
f 159/159/159 158/158/158 139/139/139
f 159/159/159 139/139/139 137/137/137
f 160/160/160 159/159/159 137/137/137
f 160/160/160 137/137/137 125/125/125
f 119/119/119 160/160/160 125/125/125
f 161/161/161 160/160/160 119/119/119
f 120/120/120 161/161/161 119/119/119
f 162/162/162 159/159/159 160/160/160
f 161/161/161 162/162/162 160/160/160
f 163/163/163 158/158/158 159/159/159
f 162/162/162 163/163/163 159/159/159
f 164/164/164 157/157/157 158/158/158
f 163/163/163 164/164/164 158/158/158
f 165/165/165 161/161/161 120/120/120
f 122/122/122 165/165/165 120/120/120
f 168/168/168 167/167/167 166/166/166
f 169/169/169 168/168/168 166/166/166
f 166/166/166 167/167/167 170/170/170
f 167/167/167 171/171/171 170/170/170
f 170/170/170 171/171/171 172/172/172
f 171/171/171 173/173/173 172/172/172
f 172/172/172 173/173/173 174/174/174
f 173/173/173 175/175/175 174/174/174
f 176/176/176 168/168/168 169/169/169
f 177/177/177 176/176/176 169/169/169
f 178/178/178 176/176/176 177/177/177
f 179/179/179 178/178/178 177/177/177
f 182/182/182 181/181/181 180/180/180
f 183/183/183 182/182/182 180/180/180
f 180/180/180 181/181/181 184/184/184
f 181/181/181 185/185/185 184/184/184
