g BookCoverBack_Grn_flyingItemAO_UV2
v -0.009639144 0.2900023 -0.3892439
v -0.009639144 0.2900023 -0.4
v -0.009639144 0.3 -0.4
v -0.009639144 0.3 -0.3892439
v 0.009640634 0.3 -0.4
v 0.009640634 0.2900023 -0.4
v -0.009639144 0.1933364 -0.4
v 0.009640634 0.1933364 -0.4
v -0.009639144 0.1933364 -0.3892439
v -0.009639144 0.1933364 -0.2956435
v -0.009639144 0.2900023 -0.2956435
v 0.009640634 0.3 -0.3892439
v -0.009639144 0.3 -0.2956435
v 0.009640634 0.3 -0.3892439
v 0.009640634 0.3 -0.2956435
v 0.009640634 0.2900023 -0.3892439
v 0.009640634 0.2900023 -0.4
v 0.009640634 0.1933364 -0.4
v 0.009640634 0.1933364 -0.3892439
v 0.009640634 0.3 -0.4
v 0.009640634 0.2900023 -0.2956435
v 0.009640634 0.3 -0.2020432
v 0.009640634 0.2900023 -0.2020432
v 0.009640634 0.3 -0.1084428
v 0.009640634 0.2900023 -0.1084428
v 0.009640634 0.3 -0.01484242
v 0.009640634 0.2900023 -0.01484242
v 0.009640634 0.3 4.589558E-06
v -0.009639144 0.3 4.589558E-06
v -0.009639144 0.3 -0.01484242
v 0.009640634 0.2900023 4.589558E-06
v 0.009640634 0.09667051 -0.4
v 0.009640634 0.09667051 -0.3892439
v 0.009640634 4.589558E-06 -0.4
v 0.009640634 4.589558E-06 -0.3892439
v 0.009640634 -0.096672 -0.4
v 0.009640634 -0.096672 -0.3892439
v 0.009640634 -0.1933379 -0.4
v 0.009640634 -0.1933379 -0.3892439
v 0.009640634 -0.2900038 -0.4
v 0.009640634 -0.2900038 -0.3892439
v 0.009640634 -0.3000015 -0.4
v 0.009640634 -0.3000015 -0.3892439
v 0.009640634 -0.2900038 -0.2956435
v 0.009640634 -0.3000015 -0.2956435
v 0.009640634 -0.2900038 -0.2020432
v 0.009640634 -0.3000015 -0.2020432
v 0.009640634 -0.2900038 -0.1084428
v 0.009640634 -0.3000015 -0.1084428
v 0.009640634 -0.2900038 -0.01484242
v 0.009640634 -0.3000015 -0.01484242
v 0.009640634 -0.2900038 4.589558E-06
v 0.009640634 -0.3000015 4.589558E-06
v -0.009639144 -0.3000015 -0.01484242
v -0.009639144 -0.3000015 4.589558E-06
v -0.009639144 -0.3000015 -0.1084428
v -0.009639144 -0.3000015 -0.2020432
v 0.009640634 0.1933364 -0.01484242
v 0.009640634 0.1933364 4.589558E-06
v 0.009640634 0.2900023 4.589558E-06
v 0.009640634 0.2900023 -0.01484242
v 0.009640634 0.1933364 -0.1084428
v 0.009640634 0.2900023 -0.1084428
v 0.009640634 0.1933364 -0.2020432
v 0.009640634 0.2900023 -0.2020432
v 0.009640634 0.1933364 -0.2956435
v 0.009640634 0.2900023 -0.2956435
v 0.009640634 0.1933364 -0.3892439
v 0.009640634 0.2900023 -0.3892439
v 0.009640634 0.09667051 -0.2020432
v 0.009640634 0.09667051 -0.1084428
v 0.009640634 4.589558E-06 -0.2020432
v 0.009640634 4.589558E-06 -0.1084428
v 0.009640634 -0.096672 -0.2020432
v 0.009640634 -0.096672 -0.1084428
v 0.009640634 -0.1933379 -0.2020432
v 0.009640634 -0.1933379 -0.1084428
v 0.009640634 -0.2900038 -0.2020432
v 0.009640634 -0.2900038 -0.1084428
v 0.009640634 -0.2900038 -0.2956435
v 0.009640634 -0.1933379 -0.2956435
v 0.009640634 -0.096672 -0.2956435
v 0.009640634 4.589558E-06 -0.2956435
v 0.009640634 0.09667051 -0.2956435
v 0.009640634 -0.2900038 -0.3892439
v 0.009640634 -0.1933379 -0.3892439
v 0.009640634 -0.096672 -0.3892439
v 0.009640634 4.589558E-06 -0.3892439
v 0.009640634 0.09667051 -0.3892439
v 0.009640634 -0.1933379 -0.01484242
v 0.009640634 -0.2900038 -0.01484242
v 0.009640634 -0.096672 -0.01484242
v 0.009640634 4.589558E-06 -0.01484242
v 0.009640634 0.09667051 -0.01484242
v 0.009640634 -0.1933379 4.589558E-06
v 0.009640634 -0.2900038 4.589558E-06
v 0.009640634 -0.096672 4.589558E-06
v 0.009640634 4.589558E-06 4.589558E-06
v 0.009640634 0.09667051 4.589558E-06
v -0.009639144 -0.3000015 -0.3892439
v -0.009639144 -0.3000015 -0.4
v -0.009639144 -0.2900038 -0.4
v -0.009639144 -0.2900038 -0.3892439
v 0.009640634 -0.2900038 -0.4
v 0.009640634 -0.3000015 -0.4
v -0.009639144 -0.3000015 -0.2956435
v -0.009639144 -0.2900038 -0.2956435
v 0.009640634 -0.3000015 -0.3892439
v 0.009640634 -0.3000015 -0.2956435
v 0.009640634 -0.3000015 -0.2020432
v -0.009639144 -0.3000015 -0.2020432
v -0.009639144 -0.2900038 -0.2020432
v -0.009639144 -0.3000015 -0.1084428
v -0.009639144 -0.2900038 -0.1084428
v -0.009639144 -0.3000015 -0.01484242
v -0.009639144 -0.2900038 -0.01484242
v -0.009639144 -0.3000015 4.589558E-06
v -0.009639144 -0.2900038 4.589558E-06
v -0.009639144 -0.1933379 -0.2956435
v -0.009639144 -0.1933379 -0.2020432
v -0.009639144 -0.096672 -0.2956435
v -0.009639144 -0.096672 -0.2020432
v -0.009639144 4.589558E-06 -0.2956435
v -0.009639144 4.589558E-06 -0.2020432
v -0.009639144 0.09667051 -0.2956435
v -0.009639144 0.09667051 -0.2020432
v -0.009639144 0.1933364 -0.2020432
v -0.009639144 0.2900023 -0.2020432
v -0.009639144 0.3 -0.2020432
v 0.009640634 0.3 -0.2956435
v 0.009640634 0.3 -0.2020432
v -0.009639144 0.3 -0.1084428
v 0.009640634 0.3 -0.1084428
v -0.009639144 0.3 -0.01484242
v -0.009639144 0.2900023 -0.01484242
v -0.009639144 0.2900023 4.589558E-06
v -0.009639144 0.3 4.589558E-06
v -0.009639144 0.1933364 4.589558E-06
v -0.009639144 0.1933364 -0.01484242
v -0.009639144 0.2900023 -0.1084428
v -0.009639144 0.1933364 -0.1084428
v -0.009639144 0.09667051 -0.1084428
v -0.009639144 4.589558E-06 -0.1084428
v -0.009639144 -0.096672 -0.1084428
v -0.009639144 -0.1933379 -0.1084428
v -0.009639144 -0.1933379 -0.01484242
v -0.009639144 -0.096672 -0.01484242
v -0.009639144 4.589558E-06 -0.01484242
v -0.009639144 0.09667051 -0.01484242
v -0.009639144 -0.1933379 4.589558E-06
v -0.009639144 -0.096672 4.589558E-06
v -0.009639144 4.589558E-06 4.589558E-06
v -0.009639144 0.09667051 4.589558E-06
v -0.009639144 -0.1933379 -0.3892439
v -0.009639144 -0.096672 -0.3892439
v -0.009639144 4.589558E-06 -0.3892439
v -0.009639144 0.09667051 -0.3892439
v -0.009639144 -0.1933379 -0.4
v -0.009639144 -0.096672 -0.4
v -0.009639144 4.589558E-06 -0.4
v -0.009639144 0.09667051 -0.4
v 0.009640634 -0.1933379 -0.4
v -0.009639144 4.589558E-06 -0.4
v -0.009639144 -0.096672 -0.4
v -0.009639144 -0.1933379 -0.4
v -0.009639144 0.09667051 -0.4
vt 0.7564232 0.9534289
vt 0.7564232 0.9534289
vt 0.7564232 0.9534289
vt 0.7564232 0.9534289
vt 0.7564232 0.9534289
vt 0.7564232 0.9534289
vt 0.7564232 0.9534289
vt 0.7564232 0.9534289
vt 0.7564232 0.9534289
vt 0.7564232 0.9534289
vt 0.7564232 0.9534289
vt 0.7564232 0.9534289
vt 0.7564232 0.9534289
vt 0.7564232 0.9534289
vt 0.7564232 0.9534289
vt 0.7564232 0.9534289
vt 0.7564232 0.9534289
vt 0.7564232 0.9534289
vt 0.7564232 0.9534289
vt 0.7564232 0.9534289
vt 0.7564232 0.9534289
vt 0.7564232 0.9534289
vt 0.7564232 0.9534289
vt 0.7564232 0.9534289
vt 0.7564232 0.9534289
vt 0.7559294 0.9534289
vt 0.7559294 0.9534289
vt 0.7559294 0.9534289
vt 0.7559294 0.9534289
vt 0.7559294 0.9534289
vt 0.7559294 0.9534289
vt 0.7564232 0.9529352
vt 0.7564232 0.9529352
vt 0.7564232 0.9529352
vt 0.7564232 0.9529352
vt 0.7564232 0.9529352
vt 0.7564232 0.9529352
vt 0.7564232 0.9529352
vt 0.7564232 0.9529352
vt 0.7564232 0.9529352
vt 0.7564232 0.9529352
vt 0.7564232 0.9529352
vt 0.7564232 0.9529352
vt 0.7564232 0.9529352
vt 0.7564232 0.9529352
vt 0.7564232 0.9529352
vt 0.7564232 0.9529352
vt 0.7564232 0.9529352
vt 0.7564232 0.9529352
vt 0.7559294 0.9529352
vt 0.7559294 0.9529352
vt 0.7559294 0.9529352
vt 0.7559294 0.9529352
vt 0.7559294 0.9529352
vt 0.7559294 0.9529352
vt 0.7564232 0.9529352
vt 0.7564232 0.9529352
vt 0.5041175 1.01021
vt 0.5041175 1.01021
vt 0.5041175 1.010704
vt 0.5041175 1.010704
vt 0.5046113 1.01021
vt 0.5046113 1.010704
vt 0.505105 1.01021
vt 0.505105 1.010704
vt 0.5055988 1.01021
vt 0.5055988 1.010704
vt 0.5060925 1.01021
vt 0.5060925 1.010704
vt 0.505105 1.009716
vt 0.5046113 1.009716
vt 0.505105 1.009223
vt 0.5046113 1.009223
vt 0.505105 1.008729
vt 0.5046113 1.008729
vt 0.505105 1.008235
vt 0.5046113 1.008235
vt 0.505105 1.007741
vt 0.5046113 1.007741
vt 0.5055988 1.007741
vt 0.5055988 1.008235
vt 0.5055988 1.008729
vt 0.5055988 1.009223
vt 0.5055988 1.009716
vt 0.5060925 1.007741
vt 0.5060925 1.008235
vt 0.5060925 1.008729
vt 0.5060925 1.009223
vt 0.5060925 1.009716
vt 0.5041175 1.008235
vt 0.5041175 1.007741
vt 0.5041175 1.008729
vt 0.5041175 1.009223
vt 0.5041175 1.009716
vt 0.5041175 1.008235
vt 0.5041175 1.007741
vt 0.5041175 1.008729
vt 0.5041175 1.009223
vt 0.5041175 1.009716
vt 0.7564232 0.9529352
vt 0.7564232 0.9529352
vt 0.7564232 0.9529352
vt 0.7564232 0.9529352
vt 0.7564232 0.9529352
vt 0.7564232 0.9529352
vt 0.7564232 0.9529352
vt 0.7564232 0.9529352
vt 0.7564232 0.9529352
vt 0.7564232 0.9529352
vt 0.7564232 0.9529352
vt 0.7564232 0.9529352
vt 0.7564232 0.9529352
vt 0.7564232 0.9529352
vt 0.7564232 0.9529352
vt 0.7559294 0.9529352
vt 0.7559294 0.9529352
vt 0.7559294 0.9529352
vt 0.7559294 0.9529352
vt 0.7564232 0.9529352
vt 0.7564232 0.9529352
vt 0.7564232 0.9529352
vt 0.7564232 0.9529352
vt 0.7564232 0.9529352
vt 0.7564232 0.9529352
vt 0.7564232 0.9529352
vt 0.7564232 0.9529352
vt 0.7564232 0.9534289
vt 0.7564232 0.9534289
vt 0.7564232 0.9534289
vt 0.7564232 0.9534289
vt 0.7564232 0.9534289
vt 0.7564232 0.9534289
vt 0.7564232 0.9534289
vt 0.7559294 0.9534289
vt 0.7559294 0.9534289
vt 0.7559294 0.9534289
vt 0.7559294 0.9534289
vt 0.7559294 0.9534289
vt 0.7559294 0.9534289
vt 0.7564232 0.9534289
vt 0.7564232 0.9534289
vt 0.7564232 0.9529352
vt 0.7564232 0.9529352
vt 0.7564232 0.9529352
vt 0.7564232 0.9529352
vt 0.7559294 0.9529352
vt 0.7559294 0.9529352
vt 0.7559294 0.9529352
vt 0.7559294 0.9529352
vt 0.7559294 0.9529352
vt 0.7559294 0.9529352
vt 0.7559294 0.9529352
vt 0.7559294 0.9529352
vt 0.7564232 0.9529352
vt 0.7564232 0.9529352
vt 0.7564232 0.9529352
vt 0.7564232 0.9529352
vt 0.7564232 0.9529352
vt 0.7564232 0.9529352
vt 0.7564232 0.9529352
vt 0.7564232 0.9529352
vt 0.7564232 0.9529352
vt 0.7564232 0.9529352
vt 0.7564232 0.9529352
vt 0.7564232 0.9529352
vt 0.7564232 0.9529352
vn -0.9999923 0.003921509 -0.0003449296
vn -0.7097985 0.003921509 -0.7043939
vn -0.5764661 0.5764661 -0.5791146
vn -0.7071068 0.7071068 0
vn 0.5764662 0.5764661 -0.5791144
vn 0.7097985 0.003921509 -0.7043939
vn -0.7097985 0.003921509 -0.7043939
vn 0.7097985 0.003921509 -0.7043939
vn -0.9999923 0.003921509 -0.0003449296
vn -0.9999923 0.003921509 -0.0003449296
vn -0.9999923 0.003921509 -0.0003449296
vn 0.7071068 0.7071068 0
vn -0.7071068 0.7071068 0
vn 0.7071068 0.7071068 0
vn 0.7071068 0.7071068 0
vn 0.9999924 0.003921509 0
vn 0.7097985 0.003921509 -0.7043939
vn 0.7097985 0.003921509 -0.7043939
vn 0.9999924 0.003921509 0
vn 0.5764662 0.5764661 -0.5791144
vn 0.9999924 0.003921509 0
vn 0.7071068 0.7071068 0
vn 0.9999924 0.003921509 0
vn 0.7071068 0.7071068 0
vn 0.9999924 0.003921509 0
vn 0.7071068 0.7071068 0
vn 0.9999924 0.003921509 0
vn 0.7071068 0.7071068 0
vn -0.7071068 0.7071068 0
vn -0.7071068 0.7071068 0
vn 0.9999924 0.003921509 0
vn 0.7097985 0.003921509 -0.7043939
vn 0.9999924 0.003921509 0
vn 0.7097985 0.003921509 -0.7043939
vn 0.9999924 0.003921509 0
vn 0.7097985 0.003921509 -0.7043939
vn 0.9999924 0.003921509 0
vn 0.7097985 0.003921509 -0.7043939
vn 0.9999924 0.003921509 0
vn 0.7097985 0.003921509 -0.7043939
vn 0.9999924 0.003921509 0
vn 0.5764662 -0.5764662 -0.5791144
vn 0.7071068 -0.7071068 0
vn 0.9999924 0.003921509 0
vn 0.7071068 -0.7071068 0
vn 0.9999924 0.003921509 0
vn 0.7071068 -0.7071068 0
vn 0.9999924 0.003921509 0
vn 0.7071068 -0.7071068 0
vn 0.9999924 0.003921509 0
vn 0.7071068 -0.7071068 0
vn 0.9999924 0.003921509 0
vn 0.7071068 -0.7071068 0
vn -0.7071068 -0.7071068 0
vn -0.7071068 -0.7071068 0
vn -0.7071068 -0.7071068 0
vn -0.7071068 -0.7071068 0
vn 0.9999924 0.003921509 0
vn 0.9999924 0.003921509 0
vn 0.9999924 0.003921509 0
vn 0.9999924 0.003921509 0
vn 0.9999924 0.003921509 0
vn 0.9999924 0.003921509 0
vn 0.9999924 0.003921509 0
vn 0.9999924 0.003921509 0
vn 0.9999924 0.003921509 0
vn 0.9999924 0.003921509 0
vn 0.9999924 0.003921509 0
vn 0.9999924 0.003921509 0
vn 0.9999924 0.003921509 0
vn 0.9999924 0.003921509 0
vn 0.9999924 0.003921509 0
vn 0.9999924 0.003921509 0
vn 0.9999924 0.003921509 0
vn 0.9999924 0.003921509 0
vn 0.9999924 0.003921509 0
vn 0.9999924 0.003921509 0
vn 0.9999924 0.003921509 0
vn 0.9999924 0.003921509 0
vn 0.9999924 0.003921509 0
vn 0.9999924 0.003921509 0
vn 0.9999924 0.003921509 0
vn 0.9999924 0.003921509 0
vn 0.9999924 0.003921509 0
vn 0.9999924 0.003921509 0
vn 0.9999924 0.003921509 0
vn 0.9999924 0.003921509 0
vn 0.9999924 0.003921509 0
vn 0.9999924 0.003921509 0
vn 0.9999924 0.003921509 0
vn 0.9999924 0.003921509 0
vn 0.9999924 0.003921509 0
vn 0.9999924 0.003921509 0
vn 0.9999924 0.003921509 0
vn 0.9999924 0.003921509 0
vn 0.9999924 0.003921509 0
vn 0.9999924 0.003921509 0
vn 0.9999924 0.003921509 0
vn 0.9999924 0.003921509 0
vn -0.7071068 -0.7071068 0
vn -0.5764661 -0.5764662 -0.5791144
vn -0.7097985 0.003921509 -0.7043939
vn -0.9999923 0.003921509 -0.0003449296
vn 0.7097985 0.003921509 -0.7043939
vn 0.5764662 -0.5764662 -0.5791144
vn -0.7071068 -0.7071068 0
vn -0.9999923 0.003921509 -0.0003449296
vn 0.7071068 -0.7071068 0
vn 0.7071068 -0.7071068 0
vn 0.7071068 -0.7071068 0
vn -0.7071068 -0.7071068 0
vn -0.9999923 0.003921509 -0.0003449296
vn -0.7071068 -0.7071068 0
vn -0.9999923 0.003921509 -0.0003449296
vn -0.7071068 -0.7071068 0
vn -0.9999923 0.003921509 -0.0003449296
vn -0.7071068 -0.7071068 0
vn -0.9999923 0.003921509 -0.0003449296
vn -0.9999923 0.003921509 -0.0003449296
vn -0.9999923 0.003921509 -0.0003449296
vn -0.9999923 0.003921509 -0.0003449296
vn -0.9999923 0.003921509 -0.0003449296
vn -0.9999923 0.003921509 -0.0003449296
vn -0.9999923 0.003921509 -0.0003449296
vn -0.9999923 0.003921509 -0.0003449296
vn -0.9999923 0.003921509 -0.0003449296
vn -0.9999923 0.003921509 -0.0003449296
vn -0.9999923 0.003921509 -0.0003449296
vn -0.7071068 0.7071068 0
vn 0.7071068 0.7071068 0
vn 0.7071068 0.7071068 0
vn -0.7071068 0.7071068 0
vn 0.7071068 0.7071068 0
vn -0.7071068 0.7071068 0
vn -0.9999923 0.003921509 -0.0003449296
vn -0.9999923 0.003921509 -0.0003449296
vn -0.7071068 0.7071068 0
vn -0.9999923 0.003921509 -0.0003449296
vn -0.9999923 0.003921509 -0.0003449296
vn -0.9999923 0.003921509 -0.0003449296
vn -0.9999923 0.003921509 -0.0003449296
vn -0.9999923 0.003921509 -0.0003449296
vn -0.9999923 0.003921509 -0.0003449296
vn -0.9999923 0.003921509 -0.0003449296
vn -0.9999923 0.003921509 -0.0003449296
vn -0.9999923 0.003921509 -0.0003449296
vn -0.9999923 0.003921509 -0.0003449296
vn -0.9999923 0.003921509 -0.0003449296
vn -0.9999923 0.003921509 -0.0003449296
vn -0.9999923 0.003921509 -0.0003449296
vn -0.9999923 0.003921509 -0.0003449296
vn -0.9999923 0.003921509 -0.0003449296
vn -0.9999923 0.003921509 -0.0003449296
vn -0.9999923 0.003921509 -0.0003449296
vn -0.9999923 0.003921509 -0.0003449296
vn -0.9999923 0.003921509 -0.0003449296
vn -0.9999923 0.003921509 -0.0003449296
vn -0.7097985 0.003921509 -0.7043939
vn -0.7097985 0.003921509 -0.7043939
vn -0.7097985 0.003921509 -0.7043939
vn -0.7097985 0.003921509 -0.7043939
vn 0.7097985 0.003921509 -0.7043939
vn -0.7097985 0.003921509 -0.7043939
vn -0.7097985 0.003921509 -0.7043939
vn -0.7097985 0.003921509 -0.7043939
vn -0.7097985 0.003921509 -0.7043939
g BookCoverBack_Grn_flyingItemAO_UV2_0
f 3/3/3 2/2/2 1/1/1
f 4/4/4 3/3/3 1/1/1
f 3/3/3 5/5/5 2/2/2
f 3/3/3 4/4/4 5/5/5
f 5/5/5 6/6/6 2/2/2
f 2/2/2 6/6/6 7/7/7
f 6/6/6 8/8/8 7/7/7
f 2/2/2 7/7/7 9/9/9
f 1/1/1 2/2/2 9/9/9
f 1/1/1 9/9/9 10/10/10
f 11/11/11 1/1/1 10/10/10
f 4/4/4 1/1/1 11/11/11
f 4/4/4 12/12/12 5/5/5
f 13/13/13 4/4/4 11/11/11
f 4/4/4 13/13/13 14/14/14
f 13/13/13 15/15/15 14/14/14
f 14/14/14 15/15/15 16/16/16
f 14/14/14 16/16/16 17/17/17
f 17/17/17 16/16/16 18/18/18
f 16/16/16 19/19/19 18/18/18
f 20/20/20 14/14/14 17/17/17
f 15/15/15 21/21/21 16/16/16
f 15/15/15 22/22/22 21/21/21
f 22/22/22 23/23/23 21/21/21
f 22/22/22 24/24/24 23/23/23
f 24/24/24 25/25/25 23/23/23
f 24/24/24 26/26/26 25/25/25
f 26/26/26 27/27/27 25/25/25
f 26/26/26 28/28/28 27/27/27
f 29/29/29 28/28/28 26/26/26
f 30/30/30 29/29/29 26/26/26
f 28/28/28 31/31/31 27/27/27
f 18/18/18 19/19/19 32/32/32
f 19/19/19 33/33/33 32/32/32
f 32/32/32 33/33/33 34/34/34
f 33/33/33 35/35/35 34/34/34
f 34/34/34 35/35/35 36/36/36
f 35/35/35 37/37/37 36/36/36
f 36/36/36 37/37/37 38/38/38
f 37/37/37 39/39/39 38/38/38
f 38/38/38 39/39/39 40/40/40
f 39/39/39 41/41/41 40/40/40
f 40/40/40 41/41/41 42/42/42
f 41/41/41 43/43/43 42/42/42
f 41/41/41 44/44/44 43/43/43
f 44/44/44 45/45/45 43/43/43
f 44/44/44 46/46/46 45/45/45
f 46/46/46 47/47/47 45/45/45
f 46/46/46 48/48/48 47/47/47
f 48/48/48 49/49/49 47/47/47
f 48/48/48 50/50/50 49/49/49
f 50/50/50 51/51/51 49/49/49
f 50/50/50 52/52/52 51/51/51
f 52/52/52 53/53/53 51/51/51
f 51/51/51 53/53/53 54/54/54
f 53/53/53 55/55/55 54/54/54
f 51/51/51 54/54/54 56/56/56
f 49/49/49 51/51/51 56/56/56
f 49/49/49 56/56/56 57/57/57
f 47/47/47 49/49/49 57/57/57
f 60/60/60 59/59/59 58/58/58
f 61/61/61 60/60/60 58/58/58
f 61/61/61 58/58/58 62/62/62
f 63/63/63 61/61/61 62/62/62
f 63/63/63 62/62/62 64/64/64
f 65/65/65 63/63/63 64/64/64
f 65/65/65 64/64/64 66/66/66
f 67/67/67 65/65/65 66/66/66
f 67/67/67 66/66/66 68/68/68
f 69/69/69 67/67/67 68/68/68
f 64/64/64 62/62/62 70/70/70
f 62/62/62 71/71/71 70/70/70
f 62/62/62 58/58/58 71/71/71
f 70/70/70 71/71/71 72/72/72
f 71/71/71 73/73/73 72/72/72
f 72/72/72 73/73/73 74/74/74
f 73/73/73 75/75/75 74/74/74
f 74/74/74 75/75/75 76/76/76
f 75/75/75 77/77/77 76/76/76
f 76/76/76 77/77/77 78/78/78
f 77/77/77 79/79/79 78/78/78
f 76/76/76 78/78/78 80/80/80
f 81/81/81 76/76/76 80/80/80
f 74/74/74 76/76/76 81/81/81
f 82/82/82 74/74/74 81/81/81
f 72/72/72 74/74/74 82/82/82
f 83/83/83 72/72/72 82/82/82
f 70/70/70 72/72/72 83/83/83
f 84/84/84 70/70/70 83/83/83
f 64/64/64 70/70/70 84/84/84
f 66/66/66 64/64/64 84/84/84
f 81/81/81 80/80/80 85/85/85
f 86/86/86 81/81/81 85/85/85
f 82/82/82 81/81/81 86/86/86
f 87/87/87 82/82/82 86/86/86
f 83/83/83 82/82/82 87/87/87
f 88/88/88 83/83/83 87/87/87
f 84/84/84 83/83/83 88/88/88
f 89/89/89 84/84/84 88/88/88
f 66/66/66 84/84/84 89/89/89
f 68/68/68 66/66/66 89/89/89
f 77/77/77 90/90/90 79/79/79
f 90/90/90 91/91/91 79/79/79
f 92/92/92 90/90/90 77/77/77
f 75/75/75 92/92/92 77/77/77
f 93/93/93 92/92/92 75/75/75
f 73/73/73 93/93/93 75/75/75
f 94/94/94 93/93/93 73/73/73
f 71/71/71 94/94/94 73/73/73
f 58/58/58 94/94/94 71/71/71
f 90/90/90 95/95/95 91/91/91
f 95/95/95 96/96/96 91/91/91
f 97/97/97 95/95/95 90/90/90
f 92/92/92 97/97/97 90/90/90
f 98/98/98 97/97/97 92/92/92
f 93/93/93 98/98/98 92/92/92
f 99/99/99 98/98/98 93/93/93
f 94/94/94 99/99/99 93/93/93
f 59/59/59 99/99/99 94/94/94
f 58/58/58 59/59/59 94/94/94
f 102/102/102 101/101/101 100/100/100
f 103/103/103 102/102/102 100/100/100
f 102/102/102 104/104/104 101/101/101
f 104/104/104 105/105/105 101/101/101
f 103/103/103 100/100/100 106/106/106
f 107/107/107 103/103/103 106/106/106
f 108/108/108 100/100/100 101/101/101
f 105/105/105 108/108/108 101/101/101
f 109/109/109 106/106/106 100/100/100
f 108/108/108 109/109/109 100/100/100
f 109/109/109 110/110/110 106/106/106
f 110/110/110 111/111/111 106/106/106
f 107/107/107 106/106/106 111/111/111
f 112/112/112 107/107/107 111/111/111
f 112/112/112 111/111/111 113/113/113
f 114/114/114 112/112/112 113/113/113
f 114/114/114 113/113/113 115/115/115
f 116/116/116 114/114/114 115/115/115
f 116/116/116 115/115/115 117/117/117
f 118/118/118 116/116/116 117/117/117
f 119/119/119 107/107/107 112/112/112
f 120/120/120 119/119/119 112/112/112
f 120/120/120 112/112/112 114/114/114
f 121/121/121 119/119/119 120/120/120
f 122/122/122 121/121/121 120/120/120
f 123/123/123 121/121/121 122/122/122
f 124/124/124 123/123/123 122/122/122
f 125/125/125 123/123/123 124/124/124
f 126/126/126 125/125/125 124/124/124
f 10/10/10 125/125/125 126/126/126
f 127/127/127 10/10/10 126/126/126
f 11/11/11 10/10/10 127/127/127
f 128/128/128 11/11/11 127/127/127
f 13/13/13 11/11/11 128/128/128
f 129/129/129 13/13/13 128/128/128
f 13/13/13 129/129/129 130/130/130
f 129/129/129 131/131/131 130/130/130
f 129/129/129 132/132/132 131/131/131
f 132/132/132 133/133/133 131/131/131
f 132/132/132 134/134/134 133/133/133
f 134/134/134 26/26/26 133/133/133
f 134/134/134 132/132/132 135/135/135
f 134/134/134 135/135/135 136/136/136
f 137/137/137 134/134/134 136/136/136
f 136/136/136 135/135/135 138/138/138
f 135/135/135 139/139/139 138/138/138
f 132/132/132 140/140/140 135/135/135
f 129/129/129 128/128/128 140/140/140
f 132/132/132 129/129/129 140/140/140
f 135/135/135 140/140/140 139/139/139
f 140/140/140 141/141/141 139/139/139
f 140/140/140 128/128/128 141/141/141
f 128/128/128 127/127/127 141/141/141
f 141/141/141 127/127/127 142/142/142
f 127/127/127 126/126/126 142/142/142
f 142/142/142 126/126/126 143/143/143
f 126/126/126 124/124/124 143/143/143
f 143/143/143 124/124/124 144/144/144
f 124/124/124 122/122/122 144/144/144
f 144/144/144 122/122/122 145/145/145
f 122/122/122 120/120/120 145/145/145
f 145/145/145 120/120/120 114/114/114
f 145/145/145 114/114/114 116/116/116
f 146/146/146 145/145/145 116/116/116
f 144/144/144 145/145/145 146/146/146
f 147/147/147 144/144/144 146/146/146
f 143/143/143 144/144/144 147/147/147
f 148/148/148 143/143/143 147/147/147
f 142/142/142 143/143/143 148/148/148
f 149/149/149 142/142/142 148/148/148
f 141/141/141 142/142/142 149/149/149
f 139/139/139 141/141/141 149/149/149
f 146/146/146 116/116/116 118/118/118
f 150/150/150 146/146/146 118/118/118
f 147/147/147 146/146/146 150/150/150
f 151/151/151 147/147/147 150/150/150
f 148/148/148 147/147/147 151/151/151
f 152/152/152 148/148/148 151/151/151
f 149/149/149 148/148/148 152/152/152
f 153/153/153 149/149/149 152/152/152
f 139/139/139 149/149/149 153/153/153
f 138/138/138 139/139/139 153/153/153
f 154/154/154 103/103/103 107/107/107
f 119/119/119 154/154/154 107/107/107
f 155/155/155 154/154/154 119/119/119
f 121/121/121 155/155/155 119/119/119
f 156/156/156 155/155/155 121/121/121
f 123/123/123 156/156/156 121/121/121
f 157/157/157 156/156/156 123/123/123
f 125/125/125 157/157/157 123/123/123
f 9/9/9 157/157/157 125/125/125
f 10/10/10 9/9/9 125/125/125
f 154/154/154 158/158/158 103/103/103
f 158/158/158 102/102/102 103/103/103
f 159/159/159 158/158/158 154/154/154
f 155/155/155 159/159/159 154/154/154
f 160/160/160 159/159/159 155/155/155
f 156/156/156 160/160/160 155/155/155
f 161/161/161 160/160/160 156/156/156
f 157/157/157 161/161/161 156/156/156
f 7/7/7 161/161/161 157/157/157
f 9/9/9 7/7/7 157/157/157
f 158/158/158 162/162/162 102/102/102
f 162/162/162 104/104/104 102/102/102
f 7/7/7 18/18/18 161/161/161
f 18/18/18 32/32/32 161/161/161
f 32/32/32 34/34/34 163/163/163
f 163/163/163 34/34/34 164/164/164
f 34/34/34 36/36/36 164/164/164
f 164/164/164 36/36/36 165/165/165
f 36/36/36 38/38/38 165/165/165
f 166/166/166 32/32/32 163/163/163
