g BookSpine_col2+3_flyingItemAO_UV2(Clone)
v 0.07329364 0.09666747 0.04171667
v -0.07300073 0.09666747 0.04171667
v -0.07300073 0.1933303 0.04171667
v 0.07329364 0.1933303 0.04171667
v -0.09775698 0.1933303 0.01833376
v -0.09775698 0.09666747 0.01833376
v 0.09804988 0.09666747 0.01833376
v 0.09804988 0.1933303 0.01833376
v 0.09804988 0.09666747 4.61936E-06
v 0.09804988 0.1933303 4.61936E-06
v -0.09775698 0.1933303 -4.559755E-06
v -0.09775698 0.09666747 -4.559755E-06
v -0.09775698 0.1933303 0.01833376
v -0.09775698 0.1933303 -4.559755E-06
v -0.09775698 0.2900023 -4.559755E-06
v -0.09775698 0.2900023 0.01833376
v -0.09775698 0.3000001 0.01833376
v -0.07300073 0.3000001 0.04171667
v -0.07300073 0.2900023 0.04171667
v 0.07329364 0.2900023 0.04171667
v 0.07329364 0.3000001 0.04171667
v 0.09804988 0.3000001 0.01833376
v 0.07563743 0.3000001 0.02327767
v 0.09804988 0.2900023 0.01833376
v 0.09804988 0.3000001 4.61936E-06
v 0.09804988 0.2900023 4.61936E-06
v 0.09804988 0.1933303 4.61936E-06
v 0.09804988 0.1933303 0.01833376
v 0.07807277 0.3000001 4.61936E-06
v -0.09775698 0.3000001 -4.559755E-06
v -0.07841158 0.3000001 -4.559755E-06
v -0.0759854 0.3000001 0.02327767
v -0.07300073 0.1933303 0.04171667
v 0.07329364 0.1933303 0.04171667
v -0.0759854 0.2900023 0.02327767
v -0.0759854 0.3000001 0.02327767
v -0.07841158 0.2900023 -4.559755E-06
v 0.07563743 0.2900023 0.02327767
v 0.07563743 0.3000001 0.02327767
v 0.07807277 0.2900023 4.61936E-06
v 0.07329364 -0.09666741 0.04171667
v 0.09804988 -0.09666741 0.01833376
v 0.09804988 -0.1933303 0.01833376
v 0.07329364 -0.1933303 0.04171667
v 0.09804988 -0.1933303 4.61936E-06
v 0.09804988 -0.09666741 4.61936E-06
v -0.07300073 -0.09666741 0.04171667
v -0.07300073 -0.1933303 0.04171667
v -0.09775698 -0.09666741 0.01833376
v -0.09775698 -0.1933303 0.01833376
v -0.09775698 -0.09666741 -4.559755E-06
v -0.09775698 -0.1933303 -4.559755E-06
v 0.07329364 -0.2900023 0.04171667
v 0.07329364 -0.1933303 0.04171667
v 0.09804988 -0.1933303 0.01833376
v 0.09804988 -0.2900023 0.01833376
v -0.07300073 -0.1933303 0.04171667
v -0.07300073 -0.2900023 0.04171667
v -0.07300073 -0.3 0.04171667
v 0.07329364 -0.3 0.04171667
v 0.09804988 -0.3 0.01833376
v 0.09804988 -0.2900023 4.61936E-06
v 0.09804988 -0.3 4.61936E-06
v 0.07807277 -0.3 4.61936E-06
v 0.07807277 -0.3 0.02327767
v 0.07807277 -0.2900023 0.02327767
v -0.07841158 -0.3 0.02327767
v -0.07841158 -0.2900023 0.02327767
v 0.07807277 -0.2900023 4.61936E-06
v -0.07841158 -0.2900023 -4.559755E-06
v -0.07841158 -0.3 -4.559755E-06
v -0.09775698 -0.3 -4.559755E-06
v -0.09775698 -0.3 0.01833376
v -0.0766629 -0.3 0.03826508
v -0.09775698 -0.2900023 0.01833376
v -0.09775698 -0.2900023 -4.559755E-06
v -0.09775698 -0.1933303 0.01833376
v -0.09775698 -0.1933303 -4.559755E-06
v -0.09775698 -0.3 0.01833376
v -0.0766629 -0.3 0.03826508
v 0.07329364 -0.3 0.04171667
v 0.09804988 -0.3 0.01833376
v 0.07329364 0.09666747 0.04171667
v 0.09804988 0.09666747 0.01833376
v 0.09804988 4.61936E-06 0.01833376
v 0.07329364 -4.559755E-06 0.04171667
v 0.09804988 -0.09666741 0.01833376
v 0.07329364 -0.09666741 0.04171667
v 0.09804988 -0.09666741 4.61936E-06
v 0.09804988 -4.559755E-06 4.61936E-06
v 0.09804988 0.09666747 4.61936E-06
v -0.07300073 -4.559755E-06 0.04171667
v -0.07300073 -0.09666741 0.04171667
v -0.09775698 4.61936E-06 0.01833376
v -0.09775698 -0.09666741 0.01833376
v -0.09775698 0.09666747 0.01833376
v -0.07300073 0.09666747 0.04171667
v -0.09775698 -4.559755E-06 -4.559755E-06
v -0.09775698 -0.09666741 -4.559755E-06
v -0.09775698 0.09666747 -4.559755E-06
v 0.09804988 -0.1933303 4.61936E-06
vt 0.7565982 0.9824047
vt 0.7565982 0.9824047
vt 0.7565982 0.9833822
vt 0.7565982 0.9833822
vt 0.7565982 0.9833822
vt 0.7565982 0.9824047
vt 0.7565982 0.9824047
vt 0.7565982 0.9833822
vt 0.7565982 0.9824047
vt 0.7565982 0.9833822
vt 0.7565982 0.9833822
vt 0.7565982 0.9824047
vt 0.7556207 0.9530792
vt 0.7556207 0.9530792
vt 0.7556207 0.9530792
vt 0.7556207 0.9530792
vt 0.7556207 0.9530792
vt 0.7556207 0.9530792
vt 0.7556207 0.9530792
vt 0.7565982 0.9530792
vt 0.7565982 0.9530792
vt 0.7565982 0.9530792
vt 0.7565982 0.9530792
vt 0.7565982 0.9530792
vt 0.7565982 0.9530792
vt 0.7565982 0.9530792
vt 0.7565982 0.9530792
vt 0.7565982 0.9530792
vt 0.7565982 0.9530792
vt 0.7556207 0.9530792
vt 0.7556207 0.9530792
vt 0.7556207 0.9530792
vt 0.7556207 0.9530792
vt 0.7565982 0.9530792
vt 0.7556207 0.9530792
vt 0.7556207 0.9530792
vt 0.7556207 0.9530792
vt 0.7565982 0.9530792
vt 0.7565982 0.9530792
vt 0.7565982 0.9530792
vt 0.7565982 0.9824047
vt 0.7565982 0.9824047
vt 0.7565982 0.9814272
vt 0.7565982 0.9814272
vt 0.7565982 0.9814272
vt 0.7565982 0.9824047
vt 0.7565982 0.9824047
vt 0.7565982 0.9814272
vt 0.7565982 0.9824047
vt 0.7565982 0.9814272
vt 0.7565982 0.9824047
vt 0.7565982 0.9814272
vt 0.7565982 0.9521016
vt 0.7565982 0.9521016
vt 0.7565982 0.9521016
vt 0.7565982 0.9521016
vt 0.7556207 0.9521016
vt 0.7556207 0.9521016
vt 0.7556207 0.9521016
vt 0.7565982 0.9521016
vt 0.7565982 0.9521016
vt 0.7565982 0.9521016
vt 0.7565982 0.9521016
vt 0.7565982 0.9521016
vt 0.7565982 0.9521016
vt 0.7565982 0.9521016
vt 0.7556207 0.9521016
vt 0.7556207 0.9521016
vt 0.7565982 0.9521016
vt 0.7556207 0.9521016
vt 0.7556207 0.9521016
vt 0.7556207 0.9521016
vt 0.7556207 0.9521016
vt 0.7556207 0.9521016
vt 0.7556207 0.9521016
vt 0.7556207 0.9521016
vt 0.7556207 0.9521016
vt 0.7556207 0.9521016
vt 0.7556207 0.9521016
vt 0.7556207 0.9521016
vt 0.7565982 0.9521016
vt 0.7565982 0.9521016
vt 0.7565982 0.9530792
vt 0.7565982 0.9530792
vt 0.7565982 0.9530792
vt 0.7565982 0.9530792
vt 0.7565982 0.9521016
vt 0.7565982 0.9521016
vt 0.7565982 0.9521016
vt 0.7565982 0.9530792
vt 0.7565982 0.9530792
vt 0.7556207 0.9530792
vt 0.7556207 0.9521016
vt 0.7556207 0.9530792
vt 0.7556207 0.9521016
vt 0.7556207 0.9530792
vt 0.7556207 0.9530792
vt 0.7556207 0.9530792
vt 0.7556207 0.9521016
vt 0.7556207 0.9530792
vt 0.7565982 0.9521016
vn 0.3725462 0.003921509 0.9280053
vn -0.3725461 0.003921509 0.9280054
vn -0.3725461 0.003921509 0.9280054
vn 0.3725462 0.003921509 0.9280053
vn -0.9215615 0.003921509 0.3882126
vn -0.9215615 0.003921509 0.3882126
vn 0.9215616 0.003921509 0.3882124
vn 0.9215616 0.003921509 0.3882124
vn 0.9999924 0.003921509 0
vn 0.9999924 0.003921509 0
vn -0.9999923 0.003921509 -0.0003449296
vn -0.9999923 0.003921509 -0.0003449296
vn -0.9215615 0.003921509 0.3882126
vn -0.9999923 0.003921509 -0.0003449296
vn -0.9999923 0.003921509 -0.0003449296
vn -0.9215615 0.003921509 0.3882126
vn -0.7176415 0.6313677 0.2938802
vn -0.2862723 0.6313677 0.7207101
vn -0.3725461 0.003921509 0.9280054
vn 0.3725462 0.003921509 0.9280053
vn 0.2862723 0.6313677 0.7207101
vn 0.7176416 0.6313677 0.2938799
vn -0.3019584 0.8901892 -0.3411515
vn 0.9215616 0.003921509 0.3882124
vn 0.7071068 0.7071068 0
vn 0.9999924 0.003921509 0
vn 0.9999924 0.003921509 0
vn 0.9215616 0.003921509 0.3882124
vn -0.6784261 0.7333276 -0.04436782
vn -0.7071068 0.7071068 0
vn 0.6784262 0.7333276 -0.04436714
vn 0.3019585 0.8901892 -0.3411514
vn -0.3725461 0.003921509 0.9280054
vn 0.3725462 0.003921509 0.9280053
vn 0.6705831 0.003921509 -0.741824
vn 0.3019585 0.8901892 -0.3411514
vn 0.9921493 0.003921509 -0.1249976
vn -0.670583 0.003921509 -0.7418242
vn -0.3019584 0.8901892 -0.3411515
vn -0.9921492 0.003921509 -0.1249981
vn 0.3725462 0.003921509 0.9280053
vn 0.9215616 0.003921509 0.3882124
vn 0.9215616 0.003921509 0.3882124
vn 0.3725462 0.003921509 0.9280053
vn 0.9999924 0.003921509 0
vn 0.9999924 0.003921509 0
vn -0.3725461 0.003921509 0.9280054
vn -0.3725461 0.003921509 0.9280054
vn -0.9215615 0.003921509 0.3882126
vn -0.9215615 0.003921509 0.3882126
vn -0.9999923 0.003921509 -0.0003449296
vn -0.9999923 0.003921509 -0.0003449296
vn 0.3725462 0.003921509 0.9280053
vn 0.3725462 0.003921509 0.9280053
vn 0.9215616 0.003921509 0.3882124
vn 0.9215616 0.003921509 0.3882124
vn -0.3725461 0.003921509 0.9280054
vn -0.3725461 0.003921509 0.9280054
vn -0.2862723 -0.6313677 0.7207101
vn 0.2862723 -0.6313677 0.72071
vn 0.7176416 -0.6313677 0.2938797
vn 0.9999924 0.003921509 0
vn 0.7071068 -0.7071068 0
vn -0.7071068 -0.7071068 0
vn -0.3019584 -0.9058754 -0.297003
vn -0.7097985 0.003921509 -0.7043939
vn 0.3019585 -0.9058754 -0.2970029
vn 0.7097985 0.003921509 -0.7043939
vn -0.9999923 0.003921509 -0.0003449296
vn 0.9999924 0.003921509 0
vn 0.7071068 -0.7071068 0
vn -0.7071068 -0.7071068 0
vn -0.7176415 -0.6313677 0.2938801
vn -0.4823492 -0.7097985 0.5133472
vn -0.9215615 0.003921509 0.3882126
vn -0.9999923 0.003921509 -0.0003449296
vn -0.9215615 0.003921509 0.3882126
vn -0.9999923 0.003921509 -0.0003449296
vn -0.7176415 -0.6313677 0.2938801
vn -0.4823492 -0.7097985 0.5133472
vn 0.2862723 -0.6313677 0.72071
vn 0.7176416 -0.6313677 0.2938797
vn 0.3725462 0.003921509 0.9280053
vn 0.9215616 0.003921509 0.3882124
vn 0.9215616 0.003921509 0.3882124
vn 0.3725462 0.003921509 0.9280053
vn 0.9215616 0.003921509 0.3882124
vn 0.3725462 0.003921509 0.9280053
vn 0.9999924 0.003921509 0
vn 0.9999924 0.003921509 0
vn 0.9999924 0.003921509 0
vn -0.3725461 0.003921509 0.9280054
vn -0.3725461 0.003921509 0.9280054
vn -0.9215615 0.003921509 0.3882126
vn -0.9215615 0.003921509 0.3882126
vn -0.9215615 0.003921509 0.3882126
vn -0.3725461 0.003921509 0.9280054
vn -0.9999923 0.003921509 -0.0003449296
vn -0.9999923 0.003921509 -0.0003449296
vn -0.9999923 0.003921509 -0.0003449296
vn 0.9999924 0.003921509 0
g BookSpine_col2+3_flyingItemAO_UV2(Clone)_0
f 3/3/3 2/2/2 1/1/1
f 4/4/4 3/3/3 1/1/1
f 3/3/3 5/5/5 2/2/2
f 5/5/5 6/6/6 2/2/2
f 1/1/1 7/7/7 4/4/4
f 7/7/7 8/8/8 4/4/4
f 8/8/8 7/7/7 9/9/9
f 10/10/10 8/8/8 9/9/9
f 5/5/5 11/11/11 6/6/6
f 11/11/11 12/12/12 6/6/6
f 15/15/15 14/14/14 13/13/13
f 16/16/16 15/15/15 13/13/13
f 16/16/16 17/17/17 15/15/15
f 18/18/18 17/17/17 16/16/16
f 19/19/19 18/18/18 16/16/16
f 16/16/16 13/13/13 19/19/19
f 18/18/18 19/19/19 20/20/20
f 21/21/21 18/18/18 20/20/20
f 22/22/22 21/21/21 20/20/20
f 22/22/22 23/23/23 21/21/21
f 21/21/21 23/23/23 18/18/18
f 24/24/24 22/22/22 20/20/20
f 25/25/25 22/22/22 24/24/24
f 23/23/23 22/22/22 25/25/25
f 26/26/26 25/25/25 24/24/24
f 26/26/26 24/24/24 27/27/27
f 24/24/24 28/28/28 27/27/27
f 28/28/28 24/24/24 20/20/20
f 29/29/29 23/23/23 25/25/25
f 17/17/17 30/30/30 15/15/15
f 30/30/30 17/17/17 31/31/31
f 17/17/17 32/32/32 31/31/31
f 23/23/23 32/32/32 18/18/18
f 18/18/18 32/32/32 17/17/17
f 19/19/19 33/33/33 20/20/20
f 13/13/13 33/33/33 19/19/19
f 33/33/33 34/34/34 20/20/20
f 34/34/34 28/28/28 20/20/20
f 31/31/31 36/36/36 35/35/35
f 37/37/37 31/31/31 35/35/35
f 38/38/38 35/35/35 36/36/36
f 39/39/39 38/38/38 36/36/36
f 39/39/39 29/29/29 40/40/40
f 38/38/38 39/39/39 40/40/40
f 43/43/43 42/42/42 41/41/41
f 44/44/44 43/43/43 41/41/41
f 42/42/42 43/43/43 45/45/45
f 46/46/46 42/42/42 45/45/45
f 41/41/41 47/47/47 44/44/44
f 47/47/47 48/48/48 44/44/44
f 47/47/47 49/49/49 48/48/48
f 49/49/49 50/50/50 48/48/48
f 49/49/49 51/51/51 50/50/50
f 51/51/51 52/52/52 50/50/50
f 55/55/55 54/54/54 53/53/53
f 56/56/56 55/55/55 53/53/53
f 54/54/54 57/57/57 53/53/53
f 57/57/57 58/58/58 53/53/53
f 58/58/58 59/59/59 53/53/53
f 59/59/59 60/60/60 53/53/53
f 53/53/53 60/60/60 56/56/56
f 60/60/60 61/61/61 56/56/56
f 56/56/56 61/61/61 62/62/62
f 55/55/55 56/56/56 62/62/62
f 61/61/61 63/63/63 62/62/62
f 63/63/63 61/61/61 64/64/64
f 61/61/61 65/65/65 64/64/64
f 64/64/64 65/65/65 66/66/66
f 65/65/65 67/67/67 66/66/66
f 67/67/67 68/68/68 66/66/66
f 69/69/69 64/64/64 66/66/66
f 68/68/68 67/67/67 70/70/70
f 67/67/67 71/71/71 70/70/70
f 71/71/71 67/67/67 72/72/72
f 67/67/67 73/73/73 72/72/72
f 73/73/73 74/74/74 58/58/58
f 60/60/60 59/59/59 74/74/74
f 72/72/72 73/73/73 75/75/75
f 75/75/75 73/73/73 58/58/58
f 76/76/76 72/72/72 75/75/75
f 77/77/77 75/75/75 58/58/58
f 57/57/57 77/77/77 58/58/58
f 78/78/78 76/76/76 75/75/75
f 77/77/77 78/78/78 75/75/75
f 58/58/58 74/74/74 59/59/59
f 80/80/80 79/79/79 67/67/67
f 81/81/81 80/80/80 67/67/67
f 67/67/67 65/65/65 81/81/81
f 82/82/82 81/81/81 65/65/65
f 85/85/85 84/84/84 83/83/83
f 86/86/86 85/85/85 83/83/83
f 87/87/87 85/85/85 86/86/86
f 88/88/88 87/87/87 86/86/86
f 85/85/85 87/87/87 89/89/89
f 90/90/90 85/85/85 89/89/89
f 84/84/84 85/85/85 90/90/90
f 91/91/91 84/84/84 90/90/90
f 86/86/86 92/92/92 88/88/88
f 92/92/92 93/93/93 88/88/88
f 92/92/92 94/94/94 93/93/93
f 94/94/94 95/95/95 93/93/93
f 96/96/96 94/94/94 92/92/92
f 97/97/97 96/96/96 92/92/92
f 97/97/97 92/92/92 86/86/86
f 83/83/83 97/97/97 86/86/86
f 94/94/94 98/98/98 95/95/95
f 98/98/98 99/99/99 95/95/95
f 100/100/100 98/98/98 94/94/94
f 96/96/96 100/100/100 94/94/94
f 101/101/101 55/55/55 62/62/62
