g BookCoverBack_Purp+Red_flyingItemAO_UV2(Clone)
v -0.009639144 0.2900023 -0.3892439
v -0.009639144 0.2900023 -0.4
v -0.009639144 0.3 -0.4
v -0.009639144 0.3 -0.3892439
v 0.009640634 0.3 -0.4
v 0.009640634 0.2900023 -0.4
v -0.009639144 0.1933364 -0.4
v 0.009640634 0.1933364 -0.4
v -0.009639144 0.1933364 -0.3892439
v -0.009639144 0.1933364 -0.2956435
v -0.009639144 0.2900023 -0.2956435
v 0.009640634 0.3 -0.3892439
v -0.009639144 0.3 -0.2956435
v 0.009640634 0.3 -0.3892439
v 0.009640634 0.3 -0.2956435
v -0.009639144 0.3 -0.2020432
v 0.009640634 0.3 -0.2020432
v 0.009640634 0.2900023 -0.3892439
v 0.009640634 0.2900023 -0.4
v 0.009640634 0.1933364 -0.4
v 0.009640634 0.1933364 -0.3892439
v 0.009640634 0.3 -0.4
v 0.009640634 0.2900023 -0.2956435
v 0.009640634 0.2900023 -0.2020432
v 0.009640634 0.3 -0.1084428
v -0.009639144 0.3 -0.1084428
v -0.009639144 0.3 -0.2020432
v 0.009640634 0.2900023 -0.1084428
v 0.009640634 0.3 -0.01484242
v 0.009640634 0.2900023 -0.01484242
v 0.009640634 0.3 4.589558E-06
v -0.009639144 0.3 4.589558E-06
v -0.009639144 0.3 -0.01484242
v 0.009640634 0.2900023 4.589558E-06
v -0.009639144 0.3 -0.01484242
v -0.009639144 0.3 -0.1084428
v -0.009639144 0.2900023 -0.01484242
v -0.009639144 0.2900023 4.589558E-06
v -0.009639144 0.3 4.589558E-06
v -0.009639144 0.1933364 4.589558E-06
v -0.009639144 0.1933364 -0.01484242
v -0.009639144 0.2900023 -0.1084428
v -0.009639144 0.2900023 -0.2020432
v -0.009639144 0.1933364 -0.1084428
v -0.009639144 0.1933364 -0.2020432
v -0.009639144 0.09667051 -0.2020432
v -0.009639144 0.09667051 -0.2956435
v -0.009639144 4.589558E-06 -0.2020432
v -0.009639144 4.589558E-06 -0.2956435
v -0.009639144 -0.096672 -0.2020432
v -0.009639144 -0.096672 -0.2956435
v -0.009639144 -0.096672 -0.1084428
v -0.009639144 4.589558E-06 -0.1084428
v -0.009639144 0.09667051 -0.1084428
v -0.009639144 -0.096672 -0.01484242
v -0.009639144 4.589558E-06 -0.01484242
v -0.009639144 0.09667051 -0.01484242
v -0.009639144 -0.096672 4.589558E-06
v -0.009639144 4.589558E-06 4.589558E-06
v -0.009639144 0.09667051 4.589558E-06
v -0.009639144 4.589558E-06 -0.3892439
v -0.009639144 -0.096672 -0.3892439
v -0.009639144 0.09667051 -0.3892439
v -0.009639144 4.589558E-06 -0.4
v -0.009639144 -0.096672 -0.4
v -0.009639144 0.09667051 -0.4
v 0.009640634 0.09667051 -0.4
v 0.009640634 0.09667051 -0.3892439
v 0.009640634 4.589558E-06 -0.4
v 0.009640634 4.589558E-06 -0.3892439
v 0.009640634 -0.096672 -0.4
v 0.009640634 -0.096672 -0.3892439
v -0.009639144 -0.096672 -0.4
v -0.009639144 4.589558E-06 -0.4
v -0.009639144 0.09667051 -0.4
v -0.009639144 -0.3000015 -0.01484242
v -0.009639144 -0.3000015 4.589558E-06
v 0.009640634 -0.3000015 4.589558E-06
v 0.009640634 -0.3000015 -0.01484242
v 0.009640634 -0.2900038 4.589558E-06
v 0.009640634 -0.2900038 -0.01484242
v 0.009640634 -0.3000015 -0.1084428
v 0.009640634 -0.2900038 -0.1084428
v -0.009639144 -0.3000015 -0.1084428
v -0.009639144 -0.3000015 -0.2020432
v 0.009640634 -0.3000015 -0.2020432
v 0.009640634 -0.2900038 -0.2020432
v 0.009640634 -0.3000015 -0.2956435
v 0.009640634 -0.2900038 -0.2956435
v 0.009640634 -0.3000015 -0.3892439
v 0.009640634 -0.2900038 -0.3892439
v 0.009640634 -0.3000015 -0.4
v 0.009640634 -0.2900038 -0.4
v 0.009640634 -0.1933379 -0.3892439
v 0.009640634 -0.1933379 -0.4
v 0.009640634 0.1933364 -0.01484242
v 0.009640634 0.1933364 4.589558E-06
v 0.009640634 0.2900023 4.589558E-06
v 0.009640634 0.2900023 -0.01484242
v 0.009640634 0.1933364 -0.1084428
v 0.009640634 0.2900023 -0.1084428
v 0.009640634 0.1933364 -0.2020432
v 0.009640634 0.2900023 -0.2020432
v 0.009640634 0.1933364 -0.2956435
v 0.009640634 0.2900023 -0.2956435
v 0.009640634 0.1933364 -0.3892439
v 0.009640634 0.2900023 -0.3892439
v 0.009640634 0.09667051 -0.2020432
v 0.009640634 0.09667051 -0.1084428
v 0.009640634 4.589558E-06 -0.2020432
v 0.009640634 4.589558E-06 -0.1084428
v 0.009640634 -0.096672 -0.2020432
v 0.009640634 -0.096672 -0.1084428
v 0.009640634 -0.1933379 -0.2020432
v 0.009640634 -0.1933379 -0.1084428
v 0.009640634 -0.2900038 -0.2020432
v 0.009640634 -0.2900038 -0.1084428
v 0.009640634 -0.2900038 -0.2956435
v 0.009640634 -0.1933379 -0.2956435
v 0.009640634 -0.096672 -0.2956435
v 0.009640634 4.589558E-06 -0.2956435
v 0.009640634 0.09667051 -0.2956435
v 0.009640634 -0.2900038 -0.3892439
v 0.009640634 -0.1933379 -0.3892439
v 0.009640634 -0.096672 -0.3892439
v 0.009640634 4.589558E-06 -0.3892439
v 0.009640634 0.09667051 -0.3892439
v 0.009640634 -0.1933379 -0.01484242
v 0.009640634 -0.2900038 -0.01484242
v 0.009640634 -0.096672 -0.01484242
v 0.009640634 4.589558E-06 -0.01484242
v 0.009640634 0.09667051 -0.01484242
v 0.009640634 -0.1933379 4.589558E-06
v 0.009640634 -0.2900038 4.589558E-06
v 0.009640634 -0.096672 4.589558E-06
v 0.009640634 4.589558E-06 4.589558E-06
v 0.009640634 0.09667051 4.589558E-06
v -0.009639144 -0.3000015 -0.3892439
v -0.009639144 -0.3000015 -0.4
v -0.009639144 -0.2900038 -0.4
v -0.009639144 -0.2900038 -0.3892439
v 0.009640634 -0.2900038 -0.4
v 0.009640634 -0.3000015 -0.4
v -0.009639144 -0.3000015 -0.2956435
v -0.009639144 -0.2900038 -0.2956435
v 0.009640634 -0.3000015 -0.3892439
v 0.009640634 -0.3000015 -0.2956435
v 0.009640634 -0.3000015 -0.2020432
v -0.009639144 -0.3000015 -0.2020432
v -0.009639144 -0.2900038 -0.2020432
v -0.009639144 -0.3000015 -0.1084428
v -0.009639144 -0.2900038 -0.1084428
v -0.009639144 -0.3000015 -0.01484242
v -0.009639144 -0.2900038 -0.01484242
v -0.009639144 -0.3000015 4.589558E-06
v -0.009639144 -0.2900038 4.589558E-06
v -0.009639144 -0.1933379 -0.2956435
v -0.009639144 -0.1933379 -0.2020432
v -0.009639144 -0.1933379 -0.1084428
v -0.009639144 -0.1933379 -0.01484242
v -0.009639144 -0.1933379 4.589558E-06
v -0.009639144 -0.1933379 -0.3892439
v -0.009639144 -0.1933379 -0.4
v 0.009640634 -0.1933379 -0.4
v -0.009639144 -0.1933379 -0.2020432
v -0.009639144 -0.1933379 -0.2956435
v -0.009639144 -0.096672 -0.2956435
v -0.009639144 -0.096672 -0.2020432
v -0.009639144 -0.1933379 -0.1084428
v -0.009639144 -0.096672 -0.1084428
v -0.009639144 -0.1933379 -0.01484242
v -0.009639144 -0.096672 -0.01484242
v -0.009639144 -0.1933379 4.589558E-06
v -0.009639144 -0.096672 4.589558E-06
v -0.009639144 -0.096672 -0.3892439
v -0.009639144 -0.1933379 -0.3892439
v -0.009639144 -0.096672 -0.4
v -0.009639144 -0.1933379 -0.4
v 0.009640634 -0.1933379 -0.4
v 0.009640634 -0.1933379 -0.3892439
v 0.009640634 -0.096672 -0.3892439
v 0.009640634 -0.096672 -0.4
v -0.009639144 -0.1933379 -0.4
v -0.009639144 -0.096672 -0.4
vt 0.7583981 0.8912166
vt 0.7583981 0.8912166
vt 0.7583981 0.8912166
vt 0.7583981 0.8912166
vt 0.7583981 0.8912166
vt 0.7583981 0.8912166
vt 0.7583981 0.8907228
vt 0.7583981 0.8907228
vt 0.7583981 0.8907228
vt 0.7583981 0.8907228
vt 0.7583981 0.8912166
vt 0.7583981 0.8912166
vt 0.7583981 0.8912166
vt 0.7583981 0.8912166
vt 0.7583981 0.8912166
vt 0.7583981 0.8912166
vt 0.7583981 0.8912166
vt 0.7583981 0.8912166
vt 0.7583981 0.8912166
vt 0.7583981 0.8907228
vt 0.7583981 0.8907228
vt 0.7583981 0.8912166
vt 0.7583981 0.8912166
vt 0.7583981 0.8912166
vt 0.7588919 0.8912166
vt 0.7588919 0.8912166
vt 0.7583981 0.8912166
vt 0.7588919 0.8912166
vt 0.7588919 0.8912166
vt 0.7588919 0.8912166
vt 0.7588919 0.8912166
vt 0.7588919 0.8912166
vt 0.7588919 0.8912166
vt 0.7588919 0.8912166
vt 0.7588919 0.8912166
vt 0.7588919 0.8912166
vt 0.7588919 0.8912166
vt 0.7588919 0.8912166
vt 0.7588919 0.8912166
vt 0.7588919 0.8907228
vt 0.7588919 0.8907228
vt 0.7588919 0.8912166
vt 0.7583981 0.8912166
vt 0.7588919 0.8907228
vt 0.7583981 0.8907228
vt 0.7583981 0.8907228
vt 0.7583981 0.8907228
vt 0.7583981 0.8907228
vt 0.7583981 0.8907228
vt 0.7583981 0.890229
vt 0.7583981 0.890229
vt 0.7588919 0.890229
vt 0.7588919 0.8907228
vt 0.7588919 0.8907228
vt 0.7588919 0.890229
vt 0.7588919 0.8907228
vt 0.7588919 0.8907228
vt 0.7588919 0.890229
vt 0.7588919 0.8907228
vt 0.7588919 0.8907228
vt 0.7583981 0.8907228
vt 0.7583981 0.890229
vt 0.7583981 0.8907228
vt 0.7583981 0.8907228
vt 0.7583981 0.890229
vt 0.7583981 0.8907228
vt 0.7583981 0.8907228
vt 0.7583981 0.8907228
vt 0.7583981 0.8907228
vt 0.7583981 0.8907228
vt 0.7583981 0.890229
vt 0.7583981 0.890229
vt 0.7583981 0.890229
vt 0.7583981 0.8907228
vt 0.7583981 0.8907228
vt 0.7588919 0.8897353
vt 0.7588919 0.8897353
vt 0.7588919 0.8897353
vt 0.7588919 0.8897353
vt 0.7588919 0.8897353
vt 0.7588919 0.8897353
vt 0.7588919 0.8897353
vt 0.7588919 0.8897353
vt 0.7588919 0.8897353
vt 0.7583981 0.8897353
vt 0.7583981 0.8897353
vt 0.7583981 0.8897353
vt 0.7583981 0.8897353
vt 0.7583981 0.8897353
vt 0.7583981 0.8897353
vt 0.7583981 0.8897353
vt 0.7583981 0.8897353
vt 0.7583981 0.8897353
vt 0.7583981 0.890229
vt 0.7583981 0.890229
vt 0.5041175 1.01021
vt 0.5041175 1.01021
vt 0.5041175 1.010704
vt 0.5041175 1.010704
vt 0.5046113 1.01021
vt 0.5046113 1.010704
vt 0.505105 1.01021
vt 0.505105 1.010704
vt 0.5055988 1.01021
vt 0.5055988 1.010704
vt 0.5060925 1.01021
vt 0.5060925 1.010704
vt 0.505105 1.009716
vt 0.5046113 1.009716
vt 0.505105 1.009223
vt 0.5046113 1.009223
vt 0.505105 1.008729
vt 0.5046113 1.008729
vt 0.505105 1.008235
vt 0.5046113 1.008235
vt 0.505105 1.007741
vt 0.5046113 1.007741
vt 0.5055988 1.007741
vt 0.5055988 1.008235
vt 0.5055988 1.008729
vt 0.5055988 1.009223
vt 0.5055988 1.009716
vt 0.5060925 1.007741
vt 0.5060925 1.008235
vt 0.5060925 1.008729
vt 0.5060925 1.009223
vt 0.5060925 1.009716
vt 0.5041175 1.008235
vt 0.5041175 1.007741
vt 0.5041175 1.008729
vt 0.5041175 1.009223
vt 0.5041175 1.009716
vt 0.5041175 1.008235
vt 0.5041175 1.007741
vt 0.5041175 1.008729
vt 0.5041175 1.009223
vt 0.5041175 1.009716
vt 0.7583981 0.8897353
vt 0.7583981 0.8897353
vt 0.7583981 0.8897353
vt 0.7583981 0.8897353
vt 0.7583981 0.8897353
vt 0.7583981 0.8897353
vt 0.7583981 0.8897353
vt 0.7583981 0.8897353
vt 0.7583981 0.8897353
vt 0.7583981 0.8897353
vt 0.7583981 0.8897353
vt 0.7583981 0.8897353
vt 0.7583981 0.8897353
vt 0.7588919 0.8897353
vt 0.7588919 0.8897353
vt 0.7588919 0.8897353
vt 0.7588919 0.8897353
vt 0.7588919 0.8897353
vt 0.7588919 0.8897353
vt 0.7583981 0.890229
vt 0.7583981 0.890229
vt 0.7588919 0.890229
vt 0.7588919 0.890229
vt 0.7588919 0.890229
vt 0.7583981 0.890229
vt 0.7583981 0.890229
vt 0.7583981 0.890229
vt 0.7569169 0.9203478
vt 0.7569169 0.9203478
vt 0.7569169 0.9203478
vt 0.7569169 0.9203478
vt 0.7574106 0.9203478
vt 0.7574106 0.9203478
vt 0.7574106 0.9203478
vt 0.7574106 0.9203478
vt 0.7574106 0.9203478
vt 0.7574106 0.9203478
vt 0.7569169 0.9203478
vt 0.7569169 0.9203478
vt 0.7564232 0.9203478
vt 0.7564232 0.9203478
vt 0.7564232 0.9203478
vt 0.7569169 0.9203478
vt 0.7569169 0.9203478
vt 0.7564232 0.9203478
vt 0.7564232 0.9203478
vt 0.7564232 0.9203478
vn -0.9999923 0.003921509 -0.0003449296
vn -0.7097985 0.003921509 -0.7043939
vn -0.5764661 0.5764661 -0.5791146
vn -0.7071068 0.7071068 0
vn 0.5764662 0.5764661 -0.5791144
vn 0.7097985 0.003921509 -0.7043939
vn -0.7097985 0.003921509 -0.7043939
vn 0.7097985 0.003921509 -0.7043939
vn -0.9999923 0.003921509 -0.0003449296
vn -0.9999923 0.003921509 -0.0003449296
vn -0.9999923 0.003921509 -0.0003449296
vn 0.7071068 0.7071068 0
vn -0.7071068 0.7071068 0
vn 0.7071068 0.7071068 0
vn 0.7071068 0.7071068 0
vn -0.7071068 0.7071068 0
vn 0.7071068 0.7071068 0
vn 0.9999924 0.003921509 0
vn 0.7097985 0.003921509 -0.7043939
vn 0.7097985 0.003921509 -0.7043939
vn 0.9999924 0.003921509 0
vn 0.5764662 0.5764661 -0.5791144
vn 0.9999924 0.003921509 0
vn 0.9999924 0.003921509 0
vn 0.7071068 0.7071068 0
vn -0.7071068 0.7071068 0
vn -0.7071068 0.7071068 0
vn 0.9999924 0.003921509 0
vn 0.7071068 0.7071068 0
vn 0.9999924 0.003921509 0
vn 0.7071068 0.7071068 0
vn -0.7071068 0.7071068 0
vn -0.7071068 0.7071068 0
vn 0.9999924 0.003921509 0
vn -0.7071068 0.7071068 0
vn -0.7071068 0.7071068 0
vn -0.9999923 0.003921509 -0.0003449296
vn -0.9999923 0.003921509 -0.0003449296
vn -0.7071068 0.7071068 0
vn -0.9999923 0.003921509 -0.0003449296
vn -0.9999923 0.003921509 -0.0003449296
vn -0.9999923 0.003921509 -0.0003449296
vn -0.9999923 0.003921509 -0.0003449296
vn -0.9999923 0.003921509 -0.0003449296
vn -0.9999923 0.003921509 -0.0003449296
vn -0.9999923 0.003921509 -0.0003449296
vn -0.9999923 0.003921509 -0.0003449296
vn -0.9999923 0.003921509 -0.0003449296
vn -0.9999923 0.003921509 -0.0003449296
vn -0.9999923 0.003921509 -0.0003449296
vn -0.9999923 0.003921509 -0.0003449296
vn -0.9999923 0.003921509 -0.0003449296
vn -0.9999923 0.003921509 -0.0003449296
vn -0.9999923 0.003921509 -0.0003449296
vn -0.9999923 0.003921509 -0.0003449296
vn -0.9999923 0.003921509 -0.0003449296
vn -0.9999923 0.003921509 -0.0003449296
vn -0.9999923 0.003921509 -0.0003449296
vn -0.9999923 0.003921509 -0.0003449296
vn -0.9999923 0.003921509 -0.0003449296
vn -0.9999923 0.003921509 -0.0003449296
vn -0.9999923 0.003921509 -0.0003449296
vn -0.9999923 0.003921509 -0.0003449296
vn -0.7097985 0.003921509 -0.7043939
vn -0.7097985 0.003921509 -0.7043939
vn -0.7097985 0.003921509 -0.7043939
vn 0.7097985 0.003921509 -0.7043939
vn 0.9999924 0.003921509 0
vn 0.7097985 0.003921509 -0.7043939
vn 0.9999924 0.003921509 0
vn 0.7097985 0.003921509 -0.7043939
vn 0.9999924 0.003921509 0
vn -0.7097985 0.003921509 -0.7043939
vn -0.7097985 0.003921509 -0.7043939
vn -0.7097985 0.003921509 -0.7043939
vn -0.7071068 -0.7071068 0
vn -0.7071068 -0.7071068 0
vn 0.7071068 -0.7071068 0
vn 0.7071068 -0.7071068 0
vn 0.9999924 0.003921509 0
vn 0.9999924 0.003921509 0
vn 0.7071068 -0.7071068 0
vn 0.9999924 0.003921509 0
vn -0.7071068 -0.7071068 0
vn -0.7071068 -0.7071068 0
vn 0.7071068 -0.7071068 0
vn 0.9999924 0.003921509 0
vn 0.7071068 -0.7071068 0
vn 0.9999924 0.003921509 0
vn 0.7071068 -0.7071068 0
vn 0.9999924 0.003921509 0
vn 0.5764662 -0.5764662 -0.5791144
vn 0.7097985 0.003921509 -0.7043939
vn 0.9999924 0.003921509 0
vn 0.7097985 0.003921509 -0.7043939
vn 0.9999924 0.003921509 0
vn 0.9999924 0.003921509 0
vn 0.9999924 0.003921509 0
vn 0.9999924 0.003921509 0
vn 0.9999924 0.003921509 0
vn 0.9999924 0.003921509 0
vn 0.9999924 0.003921509 0
vn 0.9999924 0.003921509 0
vn 0.9999924 0.003921509 0
vn 0.9999924 0.003921509 0
vn 0.9999924 0.003921509 0
vn 0.9999924 0.003921509 0
vn 0.9999924 0.003921509 0
vn 0.9999924 0.003921509 0
vn 0.9999924 0.003921509 0
vn 0.9999924 0.003921509 0
vn 0.9999924 0.003921509 0
vn 0.9999924 0.003921509 0
vn 0.9999924 0.003921509 0
vn 0.9999924 0.003921509 0
vn 0.9999924 0.003921509 0
vn 0.9999924 0.003921509 0
vn 0.9999924 0.003921509 0
vn 0.9999924 0.003921509 0
vn 0.9999924 0.003921509 0
vn 0.9999924 0.003921509 0
vn 0.9999924 0.003921509 0
vn 0.9999924 0.003921509 0
vn 0.9999924 0.003921509 0
vn 0.9999924 0.003921509 0
vn 0.9999924 0.003921509 0
vn 0.9999924 0.003921509 0
vn 0.9999924 0.003921509 0
vn 0.9999924 0.003921509 0
vn 0.9999924 0.003921509 0
vn 0.9999924 0.003921509 0
vn 0.9999924 0.003921509 0
vn 0.9999924 0.003921509 0
vn 0.9999924 0.003921509 0
vn 0.9999924 0.003921509 0
vn 0.9999924 0.003921509 0
vn 0.9999924 0.003921509 0
vn -0.7071068 -0.7071068 0
vn -0.5764661 -0.5764662 -0.5791144
vn -0.7097985 0.003921509 -0.7043939
vn -0.9999923 0.003921509 -0.0003449296
vn 0.7097985 0.003921509 -0.7043939
vn 0.5764662 -0.5764662 -0.5791144
vn -0.7071068 -0.7071068 0
vn -0.9999923 0.003921509 -0.0003449296
vn 0.7071068 -0.7071068 0
vn 0.7071068 -0.7071068 0
vn 0.7071068 -0.7071068 0
vn -0.7071068 -0.7071068 0
vn -0.9999923 0.003921509 -0.0003449296
vn -0.7071068 -0.7071068 0
vn -0.9999923 0.003921509 -0.0003449296
vn -0.7071068 -0.7071068 0
vn -0.9999923 0.003921509 -0.0003449296
vn -0.7071068 -0.7071068 0
vn -0.9999923 0.003921509 -0.0003449296
vn -0.9999923 0.003921509 -0.0003449296
vn -0.9999923 0.003921509 -0.0003449296
vn -0.9999923 0.003921509 -0.0003449296
vn -0.9999923 0.003921509 -0.0003449296
vn -0.9999923 0.003921509 -0.0003449296
vn -0.9999923 0.003921509 -0.0003449296
vn -0.7097985 0.003921509 -0.7043939
vn 0.7097985 0.003921509 -0.7043939
vn -0.9999923 0.003921509 -0.0003449296
vn -0.9999923 0.003921509 -0.0003449296
vn -0.9999923 0.003921509 -0.0003449296
vn -0.9999923 0.003921509 -0.0003449296
vn -0.9999923 0.003921509 -0.0003449296
vn -0.9999923 0.003921509 -0.0003449296
vn -0.9999923 0.003921509 -0.0003449296
vn -0.9999923 0.003921509 -0.0003449296
vn -0.9999923 0.003921509 -0.0003449296
vn -0.9999923 0.003921509 -0.0003449296
vn -0.9999923 0.003921509 -0.0003449296
vn -0.9999923 0.003921509 -0.0003449296
vn -0.7097985 0.003921509 -0.7043939
vn -0.7097985 0.003921509 -0.7043939
vn 0.7097985 0.003921509 -0.7043939
vn 0.9999924 0.003921509 0
vn 0.9999924 0.003921509 0
vn 0.7097985 0.003921509 -0.7043939
vn -0.7097985 0.003921509 -0.7043939
vn -0.7097985 0.003921509 -0.7043939
g BookCoverBack_Purp+Red_flyingItemAO_UV2(Clone)_0
f 3/3/3 2/2/2 1/1/1
f 4/4/4 3/3/3 1/1/1
f 3/3/3 5/5/5 2/2/2
f 3/3/3 4/4/4 5/5/5
f 5/5/5 6/6/6 2/2/2
f 2/2/2 6/6/6 7/7/7
f 6/6/6 8/8/8 7/7/7
f 2/2/2 7/7/7 9/9/9
f 1/1/1 2/2/2 9/9/9
f 1/1/1 9/9/9 10/10/10
f 11/11/11 1/1/1 10/10/10
f 4/4/4 1/1/1 11/11/11
f 4/4/4 12/12/12 5/5/5
f 13/13/13 4/4/4 11/11/11
f 4/4/4 13/13/13 14/14/14
f 13/13/13 15/15/15 14/14/14
f 13/13/13 16/16/16 15/15/15
f 16/16/16 17/17/17 15/15/15
f 14/14/14 15/15/15 18/18/18
f 14/14/14 18/18/18 19/19/19
f 19/19/19 18/18/18 20/20/20
f 18/18/18 21/21/21 20/20/20
f 22/22/22 14/14/14 19/19/19
f 15/15/15 23/23/23 18/18/18
f 15/15/15 17/17/17 23/23/23
f 17/17/17 24/24/24 23/23/23
f 17/17/17 25/25/25 24/24/24
f 26/26/26 25/25/25 17/17/17
f 27/27/27 26/26/26 17/17/17
f 25/25/25 28/28/28 24/24/24
f 25/25/25 29/29/29 28/28/28
f 29/29/29 30/30/30 28/28/28
f 29/29/29 31/31/31 30/30/30
f 32/32/32 31/31/31 29/29/29
f 33/33/33 32/32/32 29/29/29
f 31/31/31 34/34/34 30/30/30
f 35/35/35 29/29/29 25/25/25
f 36/36/36 35/35/35 25/25/25
f 35/35/35 36/36/36 37/37/37
f 35/35/35 37/37/37 38/38/38
f 39/39/39 35/35/35 38/38/38
f 38/38/38 37/37/37 40/40/40
f 37/37/37 41/41/41 40/40/40
f 36/36/36 42/42/42 37/37/37
f 37/37/37 42/42/42 41/41/41
f 36/36/36 16/16/16 42/42/42
f 16/16/16 43/43/43 42/42/42
f 16/16/16 13/13/13 43/43/43
f 13/13/13 11/11/11 43/43/43
f 42/42/42 44/44/44 41/41/41
f 42/42/42 43/43/43 44/44/44
f 43/43/43 45/45/45 44/44/44
f 43/43/43 11/11/11 45/45/45
f 11/11/11 10/10/10 45/45/45
f 45/45/45 10/10/10 46/46/46
f 10/10/10 47/47/47 46/46/46
f 46/46/46 47/47/47 48/48/48
f 47/47/47 49/49/49 48/48/48
f 48/48/48 49/49/49 50/50/50
f 49/49/49 51/51/51 50/50/50
f 48/48/48 50/50/50 52/52/52
f 53/53/53 48/48/48 52/52/52
f 46/46/46 48/48/48 53/53/53
f 54/54/54 46/46/46 53/53/53
f 45/45/45 46/46/46 54/54/54
f 44/44/44 45/45/45 54/54/54
f 53/53/53 52/52/52 55/55/55
f 56/56/56 53/53/53 55/55/55
f 54/54/54 53/53/53 56/56/56
f 57/57/57 54/54/54 56/56/56
f 44/44/44 54/54/54 57/57/57
f 41/41/41 44/44/44 57/57/57
f 56/56/56 55/55/55 58/58/58
f 59/59/59 56/56/56 58/58/58
f 57/57/57 56/56/56 59/59/59
f 60/60/60 57/57/57 59/59/59
f 41/41/41 57/57/57 60/60/60
f 40/40/40 41/41/41 60/60/60
f 49/49/49 61/61/61 51/51/51
f 61/61/61 62/62/62 51/51/51
f 63/63/63 61/61/61 49/49/49
f 61/61/61 64/64/64 62/62/62
f 64/64/64 65/65/65 62/62/62
f 66/66/66 64/64/64 61/61/61
f 63/63/63 66/66/66 61/61/61
f 7/7/7 66/66/66 63/63/63
f 9/9/9 7/7/7 63/63/63
f 9/9/9 63/63/63 47/47/47
f 47/47/47 63/63/63 49/49/49
f 10/10/10 9/9/9 47/47/47
f 7/7/7 20/20/20 66/66/66
f 20/20/20 67/67/67 66/66/66
f 20/20/20 21/21/21 67/67/67
f 21/21/21 68/68/68 67/67/67
f 67/67/67 68/68/68 69/69/69
f 68/68/68 70/70/70 69/69/69
f 69/69/69 70/70/70 71/71/71
f 70/70/70 72/72/72 71/71/71
f 69/69/69 71/71/71 73/73/73
f 74/74/74 69/69/69 73/73/73
f 67/67/67 69/69/69 74/74/74
f 75/75/75 67/67/67 74/74/74
f 78/78/78 77/77/77 76/76/76
f 79/79/79 78/78/78 76/76/76
f 80/80/80 78/78/78 79/79/79
f 81/81/81 80/80/80 79/79/79
f 81/81/81 79/79/79 82/82/82
f 83/83/83 81/81/81 82/82/82
f 79/79/79 76/76/76 84/84/84
f 82/82/82 79/79/79 84/84/84
f 82/82/82 84/84/84 85/85/85
f 86/86/86 82/82/82 85/85/85
f 83/83/83 82/82/82 86/86/86
f 87/87/87 83/83/83 86/86/86
f 87/87/87 86/86/86 88/88/88
f 89/89/89 87/87/87 88/88/88
f 89/89/89 88/88/88 90/90/90
f 91/91/91 89/89/89 90/90/90
f 91/91/91 90/90/90 92/92/92
f 93/93/93 91/91/91 92/92/92
f 94/94/94 91/91/91 93/93/93
f 95/95/95 94/94/94 93/93/93
f 98/98/98 97/97/97 96/96/96
f 99/99/99 98/98/98 96/96/96
f 99/99/99 96/96/96 100/100/100
f 101/101/101 99/99/99 100/100/100
f 101/101/101 100/100/100 102/102/102
f 103/103/103 101/101/101 102/102/102
f 103/103/103 102/102/102 104/104/104
f 105/105/105 103/103/103 104/104/104
f 105/105/105 104/104/104 106/106/106
f 107/107/107 105/105/105 106/106/106
f 102/102/102 100/100/100 108/108/108
f 100/100/100 109/109/109 108/108/108
f 100/100/100 96/96/96 109/109/109
f 108/108/108 109/109/109 110/110/110
f 109/109/109 111/111/111 110/110/110
f 110/110/110 111/111/111 112/112/112
f 111/111/111 113/113/113 112/112/112
f 112/112/112 113/113/113 114/114/114
f 113/113/113 115/115/115 114/114/114
f 114/114/114 115/115/115 116/116/116
f 115/115/115 117/117/117 116/116/116
f 114/114/114 116/116/116 118/118/118
f 119/119/119 114/114/114 118/118/118
f 112/112/112 114/114/114 119/119/119
f 120/120/120 112/112/112 119/119/119
f 110/110/110 112/112/112 120/120/120
f 121/121/121 110/110/110 120/120/120
f 108/108/108 110/110/110 121/121/121
f 122/122/122 108/108/108 121/121/121
f 102/102/102 108/108/108 122/122/122
f 104/104/104 102/102/102 122/122/122
f 119/119/119 118/118/118 123/123/123
f 124/124/124 119/119/119 123/123/123
f 120/120/120 119/119/119 124/124/124
f 125/125/125 120/120/120 124/124/124
f 121/121/121 120/120/120 125/125/125
f 126/126/126 121/121/121 125/125/125
f 122/122/122 121/121/121 126/126/126
f 127/127/127 122/122/122 126/126/126
f 104/104/104 122/122/122 127/127/127
f 106/106/106 104/104/104 127/127/127
f 115/115/115 128/128/128 117/117/117
f 128/128/128 129/129/129 117/117/117
f 130/130/130 128/128/128 115/115/115
f 113/113/113 130/130/130 115/115/115
f 131/131/131 130/130/130 113/113/113
f 111/111/111 131/131/131 113/113/113
f 132/132/132 131/131/131 111/111/111
f 109/109/109 132/132/132 111/111/111
f 96/96/96 132/132/132 109/109/109
f 128/128/128 133/133/133 129/129/129
f 133/133/133 134/134/134 129/129/129
f 135/135/135 133/133/133 128/128/128
f 130/130/130 135/135/135 128/128/128
f 136/136/136 135/135/135 130/130/130
f 131/131/131 136/136/136 130/130/130
f 137/137/137 136/136/136 131/131/131
f 132/132/132 137/137/137 131/131/131
f 97/97/97 137/137/137 132/132/132
f 96/96/96 97/97/97 132/132/132
f 140/140/140 139/139/139 138/138/138
f 141/141/141 140/140/140 138/138/138
f 140/140/140 142/142/142 139/139/139
f 142/142/142 143/143/143 139/139/139
f 141/141/141 138/138/138 144/144/144
f 145/145/145 141/141/141 144/144/144
f 146/146/146 138/138/138 139/139/139
f 143/143/143 146/146/146 139/139/139
f 147/147/147 144/144/144 138/138/138
f 146/146/146 147/147/147 138/138/138
f 147/147/147 148/148/148 144/144/144
f 148/148/148 149/149/149 144/144/144
f 145/145/145 144/144/144 149/149/149
f 150/150/150 145/145/145 149/149/149
f 150/150/150 149/149/149 151/151/151
f 152/152/152 150/150/150 151/151/151
f 152/152/152 151/151/151 153/153/153
f 154/154/154 152/152/152 153/153/153
f 154/154/154 153/153/153 155/155/155
f 156/156/156 154/154/154 155/155/155
f 157/157/157 145/145/145 150/150/150
f 158/158/158 157/157/157 150/150/150
f 158/158/158 150/150/150 152/152/152
f 159/159/159 158/158/158 152/152/152
f 159/159/159 152/152/152 154/154/154
f 160/160/160 159/159/159 154/154/154
f 160/160/160 154/154/154 156/156/156
f 161/161/161 160/160/160 156/156/156
f 157/157/157 162/162/162 145/145/145
f 162/162/162 141/141/141 145/145/145
f 162/162/162 163/163/163 141/141/141
f 163/163/163 140/140/140 141/141/141
f 163/163/163 164/164/164 140/140/140
f 164/164/164 142/142/142 140/140/140
f 167/167/167 166/166/166 165/165/165
f 168/168/168 167/167/167 165/165/165
f 168/168/168 165/165/165 169/169/169
f 170/170/170 168/168/168 169/169/169
f 170/170/170 169/169/169 171/171/171
f 172/172/172 170/170/170 171/171/171
f 172/172/172 171/171/171 173/173/173
f 174/174/174 172/172/172 173/173/173
f 167/167/167 175/175/175 166/166/166
f 175/175/175 176/176/176 166/166/166
f 175/175/175 177/177/177 176/176/176
f 177/177/177 178/178/178 176/176/176
f 181/181/181 180/180/180 179/179/179
f 182/182/182 181/181/181 179/179/179
f 182/182/182 179/179/179 183/183/183
f 184/184/184 182/182/182 183/183/183
