g BookCoverFront_Blue_flyingItemAO_UV2
v 0.0099397 0.2900023 -0.3892439
v 0.0099397 0.3 -0.3892439
v 0.0099397 0.3 -0.4
v 0.0099397 0.2900023 -0.4
v -0.00993821 0.3 -0.4
v -0.00993821 0.2900023 -0.4
v 0.0099397 0.1933364 -0.4
v -0.00993821 0.1933364 -0.4
v 0.0099397 0.1933364 -0.3892439
v 0.0099397 0.1933364 -0.2956435
v 0.0099397 0.2900023 -0.2956435
v -0.00993821 0.3 -0.3892439
v 0.0099397 0.3 -0.2956435
v -0.00993821 0.3 -0.3892439
v -0.00993821 0.3 -0.2956435
v 0.0099397 0.3 -0.2020432
v -0.00993821 0.3 -0.2020432
v -0.00993821 0.2900023 -0.3892439
v -0.00993821 0.2900023 -0.4
v -0.00993821 0.1933364 -0.4
v -0.00993821 0.1933364 -0.3892439
v -0.00993821 0.3 -0.4
v -0.00993821 0.2900023 -0.2956435
v -0.00993821 0.2900023 -0.2020432
v -0.00993821 0.3 -0.1084428
v 0.0099397 0.3 -0.1084428
v 0.0099397 0.3 -0.2020432
v -0.00993821 0.2900023 -0.1084428
v -0.00993821 0.3 -0.01484242
v -0.00993821 0.2900023 -0.01484242
v -0.00993821 0.3 4.589558E-06
v 0.0099397 0.3 4.589558E-06
v 0.0099397 0.3 -0.01484242
v -0.00993821 0.2900023 4.589558E-06
v 0.0099397 0.3 -0.01484242
v 0.0099397 0.3 -0.1084428
v 0.0099397 0.2900023 -0.01484242
v 0.0099397 0.2900023 4.589558E-06
v 0.0099397 0.3 4.589558E-06
v 0.0099397 0.1933364 4.589558E-06
v 0.0099397 0.1933364 -0.01484242
v 0.0099397 0.2900023 -0.1084428
v 0.0099397 0.2900023 -0.2020432
v 0.0099397 0.1933364 -0.1084428
v 0.0099397 0.1933364 -0.2020432
v 0.0099397 0.09667051 -0.2020432
v 0.0099397 0.09667051 -0.2956435
v 0.0099397 4.589558E-06 -0.2020432
v 0.0099397 4.589558E-06 -0.2956435
v 0.0099397 -0.096672 -0.2020432
v 0.0099397 -0.096672 -0.2956435
v 0.0099397 -0.1933379 -0.2020432
v 0.0099397 -0.1933379 -0.2956435
v 0.0099397 -0.2900038 -0.2020432
v 0.0099397 -0.2900038 -0.2956435
v 0.0099397 -0.3000015 -0.2020432
v 0.0099397 -0.3000015 -0.1084428
v 0.0099397 -0.2900038 -0.1084428
v 0.0099397 -0.3000015 -0.01484242
v 0.0099397 -0.2900038 -0.01484242
v 0.0099397 -0.3000015 4.589558E-06
v 0.0099397 -0.2900038 4.589558E-06
v 0.0099397 -0.3000015 -0.2956435
v 0.0099397 -0.2900038 -0.3892439
v 0.0099397 -0.3000015 -0.3892439
v 0.0099397 -0.2900038 -0.4
v 0.0099397 -0.3000015 -0.4
v -0.00993821 -0.2900038 -0.4
v -0.00993821 -0.3000015 -0.4
v -0.00993821 -0.3000015 -0.3892439
v -0.00993821 -0.3000015 -0.2956435
v -0.00993821 -0.3000015 -0.2020432
v 0.0099397 -0.1933379 -0.1084428
v 0.0099397 -0.096672 -0.1084428
v 0.0099397 4.589558E-06 -0.1084428
v 0.0099397 0.09667051 -0.1084428
v 0.0099397 -0.1933379 -0.01484242
v 0.0099397 -0.096672 -0.01484242
v 0.0099397 4.589558E-06 -0.01484242
v 0.0099397 0.09667051 -0.01484242
v 0.0099397 -0.1933379 4.589558E-06
v 0.0099397 -0.096672 4.589558E-06
v 0.0099397 4.589558E-06 4.589558E-06
v 0.0099397 0.09667051 4.589558E-06
v 0.0099397 -0.3000015 -0.01484242
v -0.00993821 -0.3000015 -0.01484242
v -0.00993821 -0.3000015 4.589558E-06
v 0.0099397 -0.3000015 4.589558E-06
v -0.00993821 -0.2900038 4.589558E-06
v -0.00993821 -0.2900038 -0.01484242
v -0.00993821 -0.3000015 -0.1084428
v -0.00993821 -0.2900038 -0.1084428
v 0.0099397 -0.3000015 -0.1084428
v 0.0099397 -0.3000015 -0.2020432
v -0.00993821 -0.3000015 -0.2020432
v -0.00993821 -0.2900038 -0.2020432
v -0.00993821 -0.3000015 -0.2956435
v -0.00993821 -0.2900038 -0.2956435
v -0.00993821 -0.3000015 -0.3892439
v -0.00993821 -0.2900038 -0.3892439
v -0.00993821 -0.3000015 -0.4
v -0.00993821 -0.2900038 -0.4
v -0.00993821 -0.1933379 -0.3892439
v -0.00993821 -0.1933379 -0.4
v -0.00993821 -0.096672 -0.3892439
v -0.00993821 -0.096672 -0.4
v -0.00993821 4.589558E-06 -0.3892439
v -0.00993821 4.589558E-06 -0.4
v -0.00993821 0.09667051 -0.3892439
v -0.00993821 0.09667051 -0.4
v 0.0099397 -0.1933379 -0.4
v 0.0099397 -0.096672 -0.4
v 0.0099397 4.589558E-06 -0.4
v 0.0099397 0.09667051 -0.4
v 0.0099397 0.09667051 -0.4
v 0.0099397 0.09667051 -0.3892439
v 0.0099397 4.589558E-06 -0.3892439
v 0.0099397 -0.096672 -0.3892439
v 0.0099397 -0.1933379 -0.3892439
v 0.0099397 -0.1933379 -0.4
v 0.0099397 -0.096672 -0.4
v 0.0099397 4.589558E-06 -0.4
v -0.00993821 -0.1933379 -0.4
v -0.00993821 0.1933364 -0.01484242
v -0.00993821 0.2900023 -0.01484242
v -0.00993821 0.2900023 4.589558E-06
v -0.00993821 0.1933364 4.589558E-06
v -0.00993821 0.1933364 -0.1084428
v -0.00993821 0.2900023 -0.1084428
v -0.00993821 0.1933364 -0.2020432
v -0.00993821 0.2900023 -0.2020432
v -0.00993821 0.1933364 -0.2956435
v -0.00993821 0.2900023 -0.2956435
v -0.00993821 0.1933364 -0.3892439
v -0.00993821 0.2900023 -0.3892439
v -0.00993821 0.09667051 -0.2020432
v -0.00993821 0.09667051 -0.1084428
v -0.00993821 4.589558E-06 -0.2020432
v -0.00993821 4.589558E-06 -0.1084428
v -0.00993821 -0.096672 -0.2020432
v -0.00993821 -0.096672 -0.1084428
v -0.00993821 -0.1933379 -0.2020432
v -0.00993821 -0.1933379 -0.1084428
v -0.00993821 -0.2900038 -0.2020432
v -0.00993821 -0.2900038 -0.1084428
v -0.00993821 -0.2900038 -0.2956435
v -0.00993821 -0.1933379 -0.2956435
v -0.00993821 -0.096672 -0.2956435
v -0.00993821 4.589558E-06 -0.2956435
v -0.00993821 0.09667051 -0.2956435
v -0.00993821 -0.2900038 -0.3892439
v -0.00993821 -0.1933379 -0.3892439
v -0.00993821 -0.096672 -0.3892439
v -0.00993821 4.589558E-06 -0.3892439
v -0.00993821 0.09667051 -0.3892439
v -0.00993821 -0.1933379 -0.01484242
v -0.00993821 -0.2900038 -0.01484242
v -0.00993821 -0.1933379 4.589558E-06
v -0.00993821 -0.2900038 4.589558E-06
v -0.00993821 -0.096672 4.589558E-06
v -0.00993821 -0.096672 -0.01484242
v -0.00993821 4.589558E-06 -0.01484242
v -0.00993821 0.09667051 -0.01484242
v -0.00993821 4.589558E-06 4.589558E-06
v -0.00993821 0.09667051 4.589558E-06
vt 0.7574106 0.8586292
vt 0.7574106 0.8586292
vt 0.7574106 0.8586292
vt 0.7574106 0.8586292
vt 0.7574106 0.8586292
vt 0.7574106 0.8586292
vt 0.7574106 0.8586292
vt 0.7574106 0.8586292
vt 0.7574106 0.8586292
vt 0.7574106 0.8586292
vt 0.7574106 0.8586292
vt 0.7574106 0.8586292
vt 0.7574106 0.8586292
vt 0.7574106 0.8586292
vt 0.7574106 0.8586292
vt 0.7574106 0.8586292
vt 0.7574106 0.8586292
vt 0.7574106 0.8586292
vt 0.7574106 0.8586292
vt 0.7574106 0.8586292
vt 0.7574106 0.8586292
vt 0.7574106 0.8586292
vt 0.7574106 0.8586292
vt 0.7574106 0.8586292
vt 0.7569169 0.8586292
vt 0.7569169 0.8586292
vt 0.7574106 0.8586292
vt 0.7569169 0.8586292
vt 0.7569169 0.8586292
vt 0.7569169 0.8586292
vt 0.7569169 0.8586292
vt 0.7569169 0.8586292
vt 0.7569169 0.8586292
vt 0.7569169 0.8586292
vt 0.7569169 0.8586292
vt 0.7569169 0.8586292
vt 0.7569169 0.8586292
vt 0.7569169 0.8586292
vt 0.7569169 0.8586292
vt 0.7569169 0.8586292
vt 0.7569169 0.8586292
vt 0.7569169 0.8586292
vt 0.7574106 0.8586292
vt 0.7569169 0.8586292
vt 0.7574106 0.8586292
vt 0.7574106 0.8586292
vt 0.7574106 0.8586292
vt 0.7574106 0.8586292
vt 0.7574106 0.8586292
vt 0.7574106 0.8581354
vt 0.7574106 0.8581354
vt 0.7574106 0.8581354
vt 0.7574106 0.8581354
vt 0.7574106 0.8581354
vt 0.7574106 0.8581354
vt 0.7574106 0.8581354
vt 0.7569169 0.8581354
vt 0.7569169 0.8581354
vt 0.7569169 0.8581354
vt 0.7569169 0.8581354
vt 0.7569169 0.8581354
vt 0.7569169 0.8581354
vt 0.7574106 0.8581354
vt 0.7574106 0.8581354
vt 0.7574106 0.8581354
vt 0.7574106 0.8581354
vt 0.7574106 0.8581354
vt 0.7574106 0.8581354
vt 0.7574106 0.8581354
vt 0.7574106 0.8581354
vt 0.7574106 0.8581354
vt 0.7574106 0.8581354
vt 0.7569169 0.8581354
vt 0.7569169 0.8581354
vt 0.7569169 0.8586292
vt 0.7569169 0.8586292
vt 0.7569169 0.8581354
vt 0.7569169 0.8581354
vt 0.7569169 0.8586292
vt 0.7569169 0.8586292
vt 0.7569169 0.8581354
vt 0.7569169 0.8581354
vt 0.7569169 0.8586292
vt 0.7569169 0.8586292
vt 0.7569169 0.8581354
vt 0.7569169 0.8581354
vt 0.7569169 0.8581354
vt 0.7569169 0.8581354
vt 0.7569169 0.8581354
vt 0.7569169 0.8581354
vt 0.7569169 0.8581354
vt 0.7569169 0.8581354
vt 0.7569169 0.8581354
vt 0.7574106 0.8581354
vt 0.7574106 0.8581354
vt 0.7574106 0.8581354
vt 0.7574106 0.8581354
vt 0.7574106 0.8581354
vt 0.7574106 0.8581354
vt 0.7574106 0.8581354
vt 0.7574106 0.8581354
vt 0.7574106 0.8581354
vt 0.7574106 0.8581354
vt 0.7574106 0.8581354
vt 0.7574106 0.8581354
vt 0.7574106 0.8581354
vt 0.7574106 0.8586292
vt 0.7574106 0.8586292
vt 0.7574106 0.8586292
vt 0.7574106 0.8586292
vt 0.7574106 0.8581354
vt 0.7574106 0.8581354
vt 0.7574106 0.8586292
vt 0.7574106 0.8586292
vt 0.7574106 0.8586292
vt 0.7574106 0.8586292
vt 0.7574106 0.8586292
vt 0.7574106 0.8581354
vt 0.7574106 0.8581354
vt 0.7574106 0.8581354
vt 0.7574106 0.8581354
vt 0.7574106 0.8586292
vt 0.7574106 0.8581354
vt 0.5041175 1.01021
vt 0.5041175 1.010704
vt 0.5041175 1.010704
vt 0.5041175 1.01021
vt 0.5046113 1.01021
vt 0.5046113 1.010704
vt 0.505105 1.01021
vt 0.505105 1.010704
vt 0.5055988 1.01021
vt 0.5055988 1.010704
vt 0.5060925 1.01021
vt 0.5060925 1.010704
vt 0.505105 1.009716
vt 0.5046113 1.009716
vt 0.505105 1.009223
vt 0.5046113 1.009223
vt 0.505105 1.008729
vt 0.5046113 1.008729
vt 0.505105 1.008235
vt 0.5046113 1.008235
vt 0.505105 1.007741
vt 0.5046113 1.007741
vt 0.5055988 1.007741
vt 0.5055988 1.008235
vt 0.5055988 1.008729
vt 0.5055988 1.009223
vt 0.5055988 1.009716
vt 0.5060925 1.007741
vt 0.5060925 1.008235
vt 0.5060925 1.008729
vt 0.5060925 1.009223
vt 0.5060925 1.009716
vt 0.5041175 1.008235
vt 0.5041175 1.007741
vt 0.5041175 1.008235
vt 0.5041175 1.007741
vt 0.5041175 1.008729
vt 0.5041175 1.008729
vt 0.5041175 1.009223
vt 0.5041175 1.009716
vt 0.5041175 1.009223
vt 0.5041175 1.009716
vn 0.9999924 0.003921509 0
vn 0.7071068 0.7071068 0
vn 0.5764662 0.5764661 -0.5791144
vn 0.7097985 0.003921509 -0.7043939
vn -0.5764661 0.5764661 -0.5791146
vn -0.7097985 0.003921509 -0.7043939
vn 0.7097985 0.003921509 -0.7043939
vn -0.7097985 0.003921509 -0.7043939
vn 0.9999924 0.003921509 0
vn 0.9999924 0.003921509 0
vn 0.9999924 0.003921509 0
vn -0.7071068 0.7071068 0
vn 0.7071068 0.7071068 0
vn -0.7071068 0.7071068 0
vn -0.7071068 0.7071068 0
vn 0.7071068 0.7071068 0
vn -0.7071068 0.7071068 0
vn -0.9999923 0.003921509 -0.0003449296
vn -0.7097985 0.003921509 -0.7043939
vn -0.7097985 0.003921509 -0.7043939
vn -0.9999923 0.003921509 -0.0003449296
vn -0.5764661 0.5764661 -0.5791146
vn -0.9999923 0.003921509 -0.0003449296
vn -0.9999923 0.003921509 -0.0003449296
vn -0.7071068 0.7071068 0
vn 0.7071068 0.7071068 0
vn 0.7071068 0.7071068 0
vn -0.9999923 0.003921509 -0.0003449296
vn -0.7071068 0.7071068 0
vn -0.9999923 0.003921509 -0.0003449296
vn -0.7071068 0.7071068 0
vn 0.7071068 0.7071068 0
vn 0.7071068 0.7071068 0
vn -0.9999923 0.003921509 -0.0003449296
vn 0.7071068 0.7071068 0
vn 0.7071068 0.7071068 0
vn 0.9999924 0.003921509 0
vn 0.9999924 0.003921509 0
vn 0.7071068 0.7071068 0
vn 0.9999924 0.003921509 0
vn 0.9999924 0.003921509 0
vn 0.9999924 0.003921509 0
vn 0.9999924 0.003921509 0
vn 0.9999924 0.003921509 0
vn 0.9999924 0.003921509 0
vn 0.9999924 0.003921509 0
vn 0.9999924 0.003921509 0
vn 0.9999924 0.003921509 0
vn 0.9999924 0.003921509 0
vn 0.9999924 0.003921509 0
vn 0.9999924 0.003921509 0
vn 0.9999924 0.003921509 0
vn 0.9999924 0.003921509 0
vn 0.9999924 0.003921509 0
vn 0.9999924 0.003921509 0
vn 0.7071068 -0.7071068 0
vn 0.7071068 -0.7071068 0
vn 0.9999924 0.003921509 0
vn 0.7071068 -0.7071068 0
vn 0.9999924 0.003921509 0
vn 0.7071068 -0.7071068 0
vn 0.9999924 0.003921509 0
vn 0.7071068 -0.7071068 0
vn 0.9999924 0.003921509 0
vn 0.7071068 -0.7071068 0
vn 0.7097985 0.003921509 -0.7043939
vn 0.5764662 -0.5764662 -0.5791144
vn -0.7097985 0.003921509 -0.7043939
vn -0.5764661 -0.5764662 -0.5791144
vn -0.7071068 -0.7071068 0
vn -0.7071068 -0.7071068 0
vn -0.7071068 -0.7071068 0
vn 0.9999924 0.003921509 0
vn 0.9999924 0.003921509 0
vn 0.9999924 0.003921509 0
vn 0.9999924 0.003921509 0
vn 0.9999924 0.003921509 0
vn 0.9999924 0.003921509 0
vn 0.9999924 0.003921509 0
vn 0.9999924 0.003921509 0
vn 0.9999924 0.003921509 0
vn 0.9999924 0.003921509 0
vn 0.9999924 0.003921509 0
vn 0.9999924 0.003921509 0
vn 0.7071068 -0.7071068 0
vn -0.7071068 -0.7071068 0
vn -0.7071068 -0.7071068 0
vn 0.7071068 -0.7071068 0
vn -0.9999923 0.003921509 -0.0003449296
vn -0.9999923 0.003921509 -0.0003449296
vn -0.7071068 -0.7071068 0
vn -0.9999923 0.003921509 -0.0003449296
vn 0.7071068 -0.7071068 0
vn 0.7071068 -0.7071068 0
vn -0.7071068 -0.7071068 0
vn -0.9999923 0.003921509 -0.0003449296
vn -0.7071068 -0.7071068 0
vn -0.9999923 0.003921509 -0.0003449296
vn -0.7071068 -0.7071068 0
vn -0.9999923 0.003921509 -0.0003449296
vn -0.5764661 -0.5764662 -0.5791144
vn -0.7097985 0.003921509 -0.7043939
vn -0.9999923 0.003921509 -0.0003449296
vn -0.7097985 0.003921509 -0.7043939
vn -0.9999923 0.003921509 -0.0003449296
vn -0.7097985 0.003921509 -0.7043939
vn -0.9999923 0.003921509 -0.0003449296
vn -0.7097985 0.003921509 -0.7043939
vn -0.9999923 0.003921509 -0.0003449296
vn -0.7097985 0.003921509 -0.7043939
vn 0.7097985 0.003921509 -0.7043939
vn 0.7097985 0.003921509 -0.7043939
vn 0.7097985 0.003921509 -0.7043939
vn 0.7097985 0.003921509 -0.7043939
vn 0.7097985 0.003921509 -0.7043939
vn 0.9999924 0.003921509 0
vn 0.9999924 0.003921509 0
vn 0.9999924 0.003921509 0
vn 0.9999924 0.003921509 0
vn 0.7097985 0.003921509 -0.7043939
vn 0.7097985 0.003921509 -0.7043939
vn 0.7097985 0.003921509 -0.7043939
vn -0.7097985 0.003921509 -0.7043939
vn -0.9999923 0.003921509 -0.0003449296
vn -0.9999923 0.003921509 -0.0003449296
vn -0.9999923 0.003921509 -0.0003449296
vn -0.9999923 0.003921509 -0.0003449296
vn -0.9999923 0.003921509 -0.0003449296
vn -0.9999923 0.003921509 -0.0003449296
vn -0.9999923 0.003921509 -0.0003449296
vn -0.9999923 0.003921509 -0.0003449296
vn -0.9999923 0.003921509 -0.0003449296
vn -0.9999923 0.003921509 -0.0003449296
vn -0.9999923 0.003921509 -0.0003449296
vn -0.9999923 0.003921509 -0.0003449296
vn -0.9999923 0.003921509 -0.0003449296
vn -0.9999923 0.003921509 -0.0003449296
vn -0.9999923 0.003921509 -0.0003449296
vn -0.9999923 0.003921509 -0.0003449296
vn -0.9999923 0.003921509 -0.0003449296
vn -0.9999923 0.003921509 -0.0003449296
vn -0.9999923 0.003921509 -0.0003449296
vn -0.9999923 0.003921509 -0.0003449296
vn -0.9999923 0.003921509 -0.0003449296
vn -0.9999923 0.003921509 -0.0003449296
vn -0.9999923 0.003921509 -0.0003449296
vn -0.9999923 0.003921509 -0.0003449296
vn -0.9999923 0.003921509 -0.0003449296
vn -0.9999923 0.003921509 -0.0003449296
vn -0.9999923 0.003921509 -0.0003449296
vn -0.9999923 0.003921509 -0.0003449296
vn -0.9999923 0.003921509 -0.0003449296
vn -0.9999923 0.003921509 -0.0003449296
vn -0.9999923 0.003921509 -0.0003449296
vn -0.9999923 0.003921509 -0.0003449296
vn -0.9999923 0.003921509 -0.0003449296
vn -0.9999923 0.003921509 -0.0003449296
vn -0.9999923 0.003921509 -0.0003449296
vn -0.9999923 0.003921509 -0.0003449296
vn -0.9999923 0.003921509 -0.0003449296
vn -0.9999923 0.003921509 -0.0003449296
vn -0.9999923 0.003921509 -0.0003449296
vn -0.9999923 0.003921509 -0.0003449296
vn -0.9999923 0.003921509 -0.0003449296
vn -0.9999923 0.003921509 -0.0003449296
g BookCoverFront_Blue_flyingItemAO_UV2_0
f 3/3/3 2/2/2 1/1/1
f 4/4/4 3/3/3 1/1/1
f 5/5/5 3/3/3 4/4/4
f 2/2/2 3/3/3 5/5/5
f 6/6/6 5/5/5 4/4/4
f 6/6/6 4/4/4 7/7/7
f 8/8/8 6/6/6 7/7/7
f 4/4/4 1/1/1 9/9/9
f 7/7/7 4/4/4 9/9/9
f 9/9/9 1/1/1 10/10/10
f 1/1/1 11/11/11 10/10/10
f 1/1/1 2/2/2 11/11/11
f 12/12/12 2/2/2 5/5/5
f 2/2/2 13/13/13 11/11/11
f 13/13/13 2/2/2 14/14/14
f 15/15/15 13/13/13 14/14/14
f 16/16/16 13/13/13 15/15/15
f 17/17/17 16/16/16 15/15/15
f 15/15/15 14/14/14 18/18/18
f 18/18/18 14/14/14 19/19/19
f 18/18/18 19/19/19 20/20/20
f 21/21/21 18/18/18 20/20/20
f 14/14/14 22/22/22 19/19/19
f 23/23/23 15/15/15 18/18/18
f 17/17/17 15/15/15 23/23/23
f 24/24/24 17/17/17 23/23/23
f 25/25/25 17/17/17 24/24/24
f 25/25/25 26/26/26 17/17/17
f 26/26/26 27/27/27 17/17/17
f 28/28/28 25/25/25 24/24/24
f 29/29/29 25/25/25 28/28/28
f 30/30/30 29/29/29 28/28/28
f 31/31/31 29/29/29 30/30/30
f 31/31/31 32/32/32 29/29/29
f 32/32/32 33/33/33 29/29/29
f 34/34/34 31/31/31 30/30/30
f 29/29/29 35/35/35 25/25/25
f 35/35/35 36/36/36 25/25/25
f 36/36/36 35/35/35 37/37/37
f 37/37/37 35/35/35 38/38/38
f 35/35/35 39/39/39 38/38/38
f 37/37/37 38/38/38 40/40/40
f 41/41/41 37/37/37 40/40/40
f 42/42/42 36/36/36 37/37/37
f 42/42/42 37/37/37 41/41/41
f 16/16/16 36/36/36 42/42/42
f 43/43/43 16/16/16 42/42/42
f 13/13/13 16/16/16 43/43/43
f 11/11/11 13/13/13 43/43/43
f 44/44/44 42/42/42 41/41/41
f 43/43/43 42/42/42 44/44/44
f 45/45/45 43/43/43 44/44/44
f 11/11/11 43/43/43 45/45/45
f 10/10/10 11/11/11 45/45/45
f 10/10/10 45/45/45 46/46/46
f 47/47/47 10/10/10 46/46/46
f 47/47/47 46/46/46 48/48/48
f 49/49/49 47/47/47 48/48/48
f 49/49/49 48/48/48 50/50/50
f 51/51/51 49/49/49 50/50/50
f 51/51/51 50/50/50 52/52/52
f 53/53/53 51/51/51 52/52/52
f 53/53/53 52/52/52 54/54/54
f 55/55/55 53/53/53 54/54/54
f 55/55/55 54/54/54 56/56/56
f 56/56/56 54/54/54 57/57/57
f 54/54/54 58/58/58 57/57/57
f 54/54/54 52/52/52 58/58/58
f 57/57/57 58/58/58 59/59/59
f 58/58/58 60/60/60 59/59/59
f 59/59/59 60/60/60 61/61/61
f 60/60/60 62/62/62 61/61/61
f 63/63/63 55/55/55 56/56/56
f 64/64/64 55/55/55 63/63/63
f 65/65/65 64/64/64 63/63/63
f 66/66/66 64/64/64 65/65/65
f 67/67/67 66/66/66 65/65/65
f 68/68/68 66/66/66 67/67/67
f 69/69/69 68/68/68 67/67/67
f 70/70/70 69/69/69 67/67/67
f 65/65/65 70/70/70 67/67/67
f 71/71/71 70/70/70 65/65/65
f 63/63/63 71/71/71 65/65/65
f 72/72/72 71/71/71 63/63/63
f 56/56/56 72/72/72 63/63/63
f 58/58/58 73/73/73 60/60/60
f 52/52/52 73/73/73 58/58/58
f 52/52/52 50/50/50 73/73/73
f 50/50/50 74/74/74 73/73/73
f 50/50/50 48/48/48 74/74/74
f 48/48/48 75/75/75 74/74/74
f 48/48/48 46/46/46 75/75/75
f 46/46/46 76/76/76 75/75/75
f 46/46/46 45/45/45 76/76/76
f 45/45/45 44/44/44 76/76/76
f 73/73/73 74/74/74 77/77/77
f 73/73/73 77/77/77 60/60/60
f 74/74/74 78/78/78 77/77/77
f 74/74/74 75/75/75 78/78/78
f 75/75/75 79/79/79 78/78/78
f 75/75/75 76/76/76 79/79/79
f 76/76/76 80/80/80 79/79/79
f 76/76/76 44/44/44 80/80/80
f 44/44/44 41/41/41 80/80/80
f 60/60/60 77/77/77 62/62/62
f 77/77/77 81/81/81 62/62/62
f 77/77/77 78/78/78 81/81/81
f 78/78/78 82/82/82 81/81/81
f 78/78/78 79/79/79 82/82/82
f 79/79/79 83/83/83 82/82/82
f 79/79/79 80/80/80 83/83/83
f 80/80/80 84/84/84 83/83/83
f 80/80/80 41/41/41 84/84/84
f 41/41/41 40/40/40 84/84/84
f 87/87/87 86/86/86 85/85/85
f 88/88/88 87/87/87 85/85/85
f 87/87/87 89/89/89 86/86/86
f 89/89/89 90/90/90 86/86/86
f 86/86/86 90/90/90 91/91/91
f 90/90/90 92/92/92 91/91/91
f 86/86/86 91/91/91 93/93/93
f 85/85/85 86/86/86 93/93/93
f 93/93/93 91/91/91 94/94/94
f 91/91/91 95/95/95 94/94/94
f 91/91/91 92/92/92 95/95/95
f 92/92/92 96/96/96 95/95/95
f 95/95/95 96/96/96 97/97/97
f 96/96/96 98/98/98 97/97/97
f 97/97/97 98/98/98 99/99/99
f 98/98/98 100/100/100 99/99/99
f 99/99/99 100/100/100 101/101/101
f 100/100/100 102/102/102 101/101/101
f 100/100/100 103/103/103 102/102/102
f 103/103/103 104/104/104 102/102/102
f 103/103/103 105/105/105 104/104/104
f 105/105/105 106/106/106 104/104/104
f 105/105/105 107/107/107 106/106/106
f 107/107/107 108/108/108 106/106/106
f 107/107/107 109/109/109 108/108/108
f 109/109/109 110/110/110 108/108/108
f 109/109/109 21/21/21 110/110/110
f 21/21/21 20/20/20 110/110/110
f 104/104/104 106/106/106 111/111/111
f 106/106/106 112/112/112 111/111/111
f 106/106/106 108/108/108 112/112/112
f 108/108/108 113/113/113 112/112/112
f 108/108/108 110/110/110 113/113/113
f 110/110/110 114/114/114 113/113/113
f 110/110/110 20/20/20 115/115/115
f 20/20/20 7/7/7 115/115/115
f 115/115/115 7/7/7 116/116/116
f 115/115/115 116/116/116 117/117/117
f 117/117/117 116/116/116 49/49/49
f 117/117/117 49/49/49 51/51/51
f 118/118/118 117/117/117 51/51/51
f 118/118/118 51/51/51 53/53/53
f 119/119/119 118/118/118 53/53/53
f 119/119/119 53/53/53 55/55/55
f 64/64/64 119/119/119 55/55/55
f 116/116/116 47/47/47 49/49/49
f 116/116/116 9/9/9 47/47/47
f 7/7/7 9/9/9 116/116/116
f 9/9/9 10/10/10 47/47/47
f 120/120/120 119/119/119 64/64/64
f 66/66/66 120/120/120 64/64/64
f 121/121/121 118/118/118 119/119/119
f 120/120/120 121/121/121 119/119/119
f 122/122/122 117/117/117 118/118/118
f 121/121/121 122/122/122 118/118/118
f 122/122/122 115/115/115 117/117/117
f 123/123/123 120/120/120 66/66/66
f 68/68/68 123/123/123 66/66/66
f 126/126/126 125/125/125 124/124/124
f 127/127/127 126/126/126 124/124/124
f 124/124/124 125/125/125 128/128/128
f 125/125/125 129/129/129 128/128/128
f 128/128/128 129/129/129 130/130/130
f 129/129/129 131/131/131 130/130/130
f 130/130/130 131/131/131 132/132/132
f 131/131/131 133/133/133 132/132/132
f 132/132/132 133/133/133 134/134/134
f 133/133/133 135/135/135 134/134/134
f 128/128/128 130/130/130 136/136/136
f 137/137/137 128/128/128 136/136/136
f 124/124/124 128/128/128 137/137/137
f 137/137/137 136/136/136 138/138/138
f 139/139/139 137/137/137 138/138/138
f 139/139/139 138/138/138 140/140/140
f 141/141/141 139/139/139 140/140/140
f 141/141/141 140/140/140 142/142/142
f 143/143/143 141/141/141 142/142/142
f 143/143/143 142/142/142 144/144/144
f 145/145/145 143/143/143 144/144/144
f 144/144/144 142/142/142 146/146/146
f 142/142/142 147/147/147 146/146/146
f 142/142/142 140/140/140 147/147/147
f 140/140/140 148/148/148 147/147/147
f 140/140/140 138/138/138 148/148/148
f 138/138/138 149/149/149 148/148/148
f 138/138/138 136/136/136 149/149/149
f 136/136/136 150/150/150 149/149/149
f 136/136/136 130/130/130 150/150/150
f 130/130/130 132/132/132 150/150/150
f 146/146/146 147/147/147 151/151/151
f 147/147/147 152/152/152 151/151/151
f 147/147/147 148/148/148 152/152/152
f 148/148/148 153/153/153 152/152/152
f 148/148/148 149/149/149 153/153/153
f 149/149/149 154/154/154 153/153/153
f 149/149/149 150/150/150 154/154/154
f 150/150/150 155/155/155 154/154/154
f 150/150/150 132/132/132 155/155/155
f 132/132/132 134/134/134 155/155/155
f 156/156/156 143/143/143 145/145/145
f 157/157/157 156/156/156 145/145/145
f 158/158/158 156/156/156 157/157/157
f 159/159/159 158/158/158 157/157/157
f 158/158/158 160/160/160 156/156/156
f 160/160/160 161/161/161 156/156/156
f 156/156/156 161/161/161 143/143/143
f 161/161/161 141/141/141 143/143/143
f 161/161/161 162/162/162 141/141/141
f 162/162/162 139/139/139 141/141/141
f 162/162/162 163/163/163 139/139/139
f 163/163/163 137/137/137 139/139/139
f 163/163/163 124/124/124 137/137/137
f 164/164/164 162/162/162 161/161/161
f 160/160/160 164/164/164 161/161/161
f 165/165/165 163/163/163 162/162/162
f 164/164/164 165/165/165 162/162/162
f 127/127/127 124/124/124 163/163/163
f 165/165/165 127/127/127 163/163/163
