g books_shelf1_batch4
v -0.05875278 1.009998 0
v 0.2287471 1.969998 0
v 0.2287471 1.009998 0
v -0.05875278 1.969998 0
v -0.2337022 1.009998 0
v -0.05870199 1.809998 0
v -0.05870199 1.009998 0
v -0.2337022 1.809998 0
v -0.433702 1.009998 0
v -0.2337022 1.889998 0
v -0.2337022 1.009998 0
v -0.433702 1.889998 0
v -0.5587044 1.009998 0
v -0.4337044 1.649998 0
v -0.4337044 1.009998 0
v -0.5587044 1.649998 0
v -0.5587021 1.810001 0
v -0.7337021 1.010001 0
v -0.7337021 1.810001 0
v -0.5587021 1.010001 0
v -1.058702 1.009998 0
v -0.7337021 1.849998 0
v -0.7337021 1.009998 0
v -1.058702 1.849998 0
v -1.283704 1.009998 0
v -1.058704 1.809998 0
v -1.058704 1.009998 0
v -1.283704 1.809998 0
v -1.446152 1.009998 0
v -1.283653 1.889998 0
v -1.283653 1.009998 0
v -1.446152 1.889998 0
v -1.696154 1.009998 0
v -1.446154 1.649998 0
v -1.446154 1.009998 0
v -1.696154 1.649998 0
v -1.896154 1.009998 0
v -1.696154 1.809998 0
v -1.696154 1.009998 0
v -1.896154 1.809998 0
v -1.896154 1.730999 0
v -2.071154 1.010999 0
v -2.071154 1.730999 0
v -1.896154 1.010999 0
v -2.296153 1.009998 0
v -2.071153 1.889998 0
v -2.071153 1.009998 0
v -2.296153 1.889998 0
v -2.446153 1.009998 0
v -2.296153 1.729998 0
v -2.296153 1.009998 0
v -2.446153 1.729998 0
v -2.596156 1.009998 0
v -2.446156 1.729998 0
v -2.446156 1.009998 0
v -2.596156 1.729998 0
v 0.468497 1.009998 0
v 0.2434971 1.849998 0
v 0.2434971 1.009998 0
v 0.468497 1.849998 0
v 0.6934974 1.009998 0
v 0.4684975 1.849998 0
v 0.4684975 1.009998 0
v 0.6934974 1.849998 0
v 0.9184959 1.009998 0
v 0.693496 1.849998 0
v 0.693496 1.009998 0
v 0.9184959 1.849998 0
v 1.143498 1.009998 0
v 0.9184983 1.849998 0
v 0.9184983 1.009998 0
v 1.143498 1.849998 0
v 1.368497 1.009998 0
v 1.143497 1.849998 0
v 1.143497 1.009998 0
v 1.368497 1.849998 0
v 1.593497 1.009998 0
v 1.368497 1.849998 0
v 1.368497 1.009998 0
v 1.593497 1.849998 0
v 1.743497 1.009998 0
v 1.593497 1.809998 0
v 1.593497 1.009998 0
v 1.743497 1.809998 0
v 1.943496 1.009998 0
v 1.743496 1.889998 0
v 1.743496 1.009998 0
v 1.943496 1.889998 0
v 2.730996 1.009998 0
v 2.505996 1.729998 0
v 2.505996 1.009998 0
v 2.730996 1.729998 0
v 2.855995 1.009998 0
v 2.730995 1.809998 0
v 2.730995 1.009998 0
v 2.855995 1.809998 0
v 2.143497 1.009998 0
v 1.943497 1.809998 0
v 1.943497 1.009998 0
v 2.143497 1.809998 0
v 2.343496 1.009998 0
v 2.143496 1.649998 0
v 2.143496 1.009998 0
v 2.343496 1.649998 0
v 2.505997 1.009998 0
v 2.343498 1.849998 0
v 2.343498 1.009998 0
v 2.505997 1.849998 0
vt 0.75625 0.525
vt 0.86875 0.975
vt 0.86875 0.525
vt 0.75625 0.975
vt 0.25625 0.025
vt 0.36875 0.475
vt 0.36875 0.025
vt 0.25625 0.475
vt 0.88125 0.525
vt 0.99375 0.975
vt 0.99375 0.525
vt 0.88125 0.975
vt 0.63125 0.525
vt 0.74375 0.975
vt 0.74375 0.525
vt 0.63125 0.975
vt 0.13125 0.525
vt 0.24375 0.975
vt 0.24375 0.525
vt 0.13125 0.975
vt 0.13125 0.025
vt 0.24375 0.475
vt 0.24375 0.025
vt 0.13125 0.475
vt 0.00625 0.025
vt 0.11875 0.475
vt 0.11875 0.025
vt 0.00625 0.475
vt 0.63125 0.025
vt 0.74375 0.475
vt 0.74375 0.025
vt 0.63125 0.475
vt 0.88125 0.025
vt 0.99375 0.475
vt 0.99375 0.025
vt 0.88125 0.475
vt 0.25625 0.525
vt 0.36875 0.975
vt 0.36875 0.525
vt 0.25625 0.975
vt 0.50625 0.025
vt 0.61875 0.475
vt 0.61875 0.025
vt 0.50625 0.475
vt 0.25625 0.025
vt 0.36875 0.475
vt 0.36875 0.025
vt 0.25625 0.475
vt 0.75625 0.025
vt 0.86875 0.475
vt 0.86875 0.025
vt 0.75625 0.475
vt 0.75625 0.025
vt 0.86875 0.475
vt 0.86875 0.025
vt 0.75625 0.475
vt 0.50625 0.025
vt 0.61875 0.475
vt 0.61875 0.025
vt 0.50625 0.475
vt 0.50625 0.025
vt 0.61875 0.475
vt 0.61875 0.025
vt 0.50625 0.475
vt 0.50625 0.025
vt 0.61875 0.475
vt 0.61875 0.025
vt 0.50625 0.475
vt 0.50625 0.025
vt 0.61875 0.475
vt 0.61875 0.025
vt 0.50625 0.475
vt 0.50625 0.025
vt 0.61875 0.475
vt 0.61875 0.025
vt 0.50625 0.475
vt 0.50625 0.025
vt 0.61875 0.475
vt 0.61875 0.025
vt 0.50625 0.475
vt 0.00625 0.525
vt 0.11875 0.975
vt 0.11875 0.525
vt 0.00625 0.975
vt 0.13125 0.525
vt 0.24375 0.975
vt 0.24375 0.525
vt 0.13125 0.975
vt 0.75625 0.525
vt 0.86875 0.975
vt 0.86875 0.525
vt 0.75625 0.975
vt 0.38125 0.025
vt 0.49375 0.475
vt 0.49375 0.025
vt 0.38125 0.475
vt 0.38125 0.025
vt 0.49375 0.475
vt 0.49375 0.025
vt 0.38125 0.475
vt 0.88125 0.025
vt 0.99375 0.475
vt 0.99375 0.025
vt 0.88125 0.475
vt 0.13125 0.025
vt 0.24375 0.475
vt 0.24375 0.025
vt 0.13125 0.475
vn 0 0 -1
vn 0 0 -1
vn 0 0 -1
vn 0 0 -1
vn 0 0 -1
vn 0 0 -1
vn 0 0 -1
vn 0 0 -1
vn 0 0 -1
vn 0 0 -1
vn 0 0 -1
vn 0 0 -1
vn 0 0 -1
vn 0 0 -1
vn 0 0 -1
vn 0 0 -1
vn 0 0 -1
vn 0 0 -1
vn 0 0 -1
vn 0 0 -1
vn 0 0 -1
vn 0 0 -1
vn 0 0 -1
vn 0 0 -1
vn 0 0 -1
vn 0 0 -1
vn 0 0 -1
vn 0 0 -1
vn 0 0 -1
vn 0 0 -1
vn 0 0 -1
vn 0 0 -1
vn 0 0 -1
vn 0 0 -1
vn 0 0 -1
vn 0 0 -1
vn 0 0 -1
vn 0 0 -1
vn 0 0 -1
vn 0 0 -1
vn 0 0 -1
vn 0 0 -1
vn 0 0 -1
vn 0 0 -1
vn 0 0 -1
vn 0 0 -1
vn 0 0 -1
vn 0 0 -1
vn 0 0 -1
vn 0 0 -1
vn 0 0 -1
vn 0 0 -1
vn 0 0 -1
vn 0 0 -1
vn 0 0 -1
vn 0 0 -1
vn 0 0 -1
vn 0 0 -1
vn 0 0 -1
vn 0 0 -1
vn 0 0 -1
vn 0 0 -1
vn 0 0 -1
vn 0 0 -1
vn 0 0 -1
vn 0 0 -1
vn 0 0 -1
vn 0 0 -1
vn 0 0 -1
vn 0 0 -1
vn 0 0 -1
vn 0 0 -1
vn 0 0 -1
vn 0 0 -1
vn 0 0 -1
vn 0 0 -1
vn 0 0 -1
vn 0 0 -1
vn 0 0 -1
vn 0 0 -1
vn 0 0 -1
vn 0 0 -1
vn 0 0 -1
vn 0 0 -1
vn 0 0 -1
vn 0 0 -1
vn 0 0 -1
vn 0 0 -1
vn 0 0 -1
vn 0 0 -1
vn 0 0 -1
vn 0 0 -1
vn 0 0 -1
vn 0 0 -1
vn 0 0 -1
vn 0 0 -1
vn 0 0 -1
vn 0 0 -1
vn 0 0 -1
vn 0 0 -1
vn 0 0 -1
vn 0 0 -1
vn 0 0 -1
vn 0 0 -1
vn 0 0 -1
vn 0 0 -1
vn 0 0 -1
vn 0 0 -1
g books_shelf1_batch4_0
f 54/54/54 53/53/53 56/56/56
f 53/53/53 54/54/54 55/55/55
f 50/50/50 49/49/49 52/52/52
f 49/49/49 50/50/50 51/51/51
f 46/46/46 45/45/45 48/48/48
f 45/45/45 46/46/46 47/47/47
f 42/42/42 41/41/41 44/44/44
f 41/41/41 42/42/42 43/43/43
f 38/38/38 37/37/37 40/40/40
f 37/37/37 38/38/38 39/39/39
f 34/34/34 33/33/33 36/36/36
f 33/33/33 34/34/34 35/35/35
f 30/30/30 29/29/29 32/32/32
f 29/29/29 30/30/30 31/31/31
f 26/26/26 25/25/25 28/28/28
f 25/25/25 26/26/26 27/27/27
f 22/22/22 21/21/21 24/24/24
f 21/21/21 22/22/22 23/23/23
f 18/18/18 17/17/17 20/20/20
f 17/17/17 18/18/18 19/19/19
f 14/14/14 13/13/13 16/16/16
f 13/13/13 14/14/14 15/15/15
f 10/10/10 9/9/9 12/12/12
f 9/9/9 10/10/10 11/11/11
f 6/6/6 5/5/5 8/8/8
f 5/5/5 6/6/6 7/7/7
f 2/2/2 1/1/1 4/4/4
f 1/1/1 2/2/2 3/3/3
f 59/59/59 58/58/58 57/57/57
f 60/60/60 57/57/57 58/58/58
f 63/63/63 62/62/62 61/61/61
f 64/64/64 61/61/61 62/62/62
f 67/67/67 66/66/66 65/65/65
f 68/68/68 65/65/65 66/66/66
f 71/71/71 70/70/70 69/69/69
f 72/72/72 69/69/69 70/70/70
f 75/75/75 74/74/74 73/73/73
f 76/76/76 73/73/73 74/74/74
f 79/79/79 78/78/78 77/77/77
f 80/80/80 77/77/77 78/78/78
f 83/83/83 82/82/82 81/81/81
f 84/84/84 81/81/81 82/82/82
f 87/87/87 86/86/86 85/85/85
f 88/88/88 85/85/85 86/86/86
f 91/91/91 90/90/90 89/89/89
f 92/92/92 89/89/89 90/90/90
f 95/95/95 94/94/94 93/93/93
f 96/96/96 93/93/93 94/94/94
f 99/99/99 98/98/98 97/97/97
f 100/100/100 97/97/97 98/98/98
f 103/103/103 102/102/102 101/101/101
f 104/104/104 101/101/101 102/102/102
f 107/107/107 106/106/106 105/105/105
f 108/108/108 105/105/105 106/106/106
