g brickPillarTop_vertAO
v -2.43187E-05 0.339092 -1.6
v 0.5472497 0.339092 -1.503514
v 0.5472497 1.049991 -1.503514
v -2.43187E-05 1.049991 -1.6
v -0.5472494 0.339092 -1.503514
v -0.5472494 1.049991 -1.503514
v 1.028458 1.049991 -1.225678
v 1.028458 0.339092 -1.225678
v 1.385641 1.049991 -0.799988
v 1.385641 0.339092 -0.799988
v 1.575683 1.049991 -0.2778609
v 1.575683 0.339092 -0.2778609
v 1.575683 1.049991 0.2778606
v 1.575683 0.339092 0.2778606
v 1.385641 1.049991 0.7999877
v 1.385641 0.339092 0.7999877
v 1.028458 1.049991 1.225678
v 1.028458 0.339092 1.225678
v 0.5472497 1.049991 1.503514
v 0.5472497 0.339092 1.503514
v 2.455711E-05 1.049991 1.6
v 2.455711E-05 0.339092 1.6
v -0.5472494 1.049991 1.503514
v -0.5472494 0.339092 1.503514
v -1.028458 1.049991 1.225678
v -1.028458 0.339092 1.225678
v -1.385641 1.049991 0.7999877
v -1.385641 0.339092 0.7999877
v -1.575683 1.049991 0.2778606
v -1.575683 0.339092 0.2778606
v -1.575683 1.049991 -0.2778609
v -1.575683 0.339092 -0.2778609
v -1.385641 1.049991 -0.799988
v -1.385641 0.339092 -0.799988
v -1.028458 1.049991 -1.225678
v -1.028458 0.339092 -1.225678
v -0.5319661 1.156048 1.46157
v 2.455711E-05 1.156048 1.55537
v 0.5319663 1.156048 1.46157
v 0.9997957 1.156048 1.191498
v 1.347018 1.156048 0.7776729
v 1.531737 1.156048 0.2700968
v 1.531737 1.156048 -0.270097
v 1.347018 1.156048 -0.7776732
v 0.9997957 1.156048 -1.191498
v 0.5319663 1.156048 -1.46157
v -2.43187E-05 1.156048 -1.555371
v -2.43187E-05 1.199994 -1.447703
v 0.4951493 1.199994 -1.360397
v -2.43187E-05 1.199994 -2.455711E-05
v 0.9305564 1.199994 -1.108977
v 1.253755 1.199994 -0.7238638
v 1.425681 1.199994 -0.2513956
v 1.425681 1.199994 0.2513953
v 1.253755 1.199994 0.7238635
v 0.9305564 1.199994 1.108977
v 0.4951493 1.199994 1.360397
v 2.455711E-05 1.199994 1.447703
v -0.495149 1.199994 1.360397
v -0.9305562 1.199994 1.108977
v -1.253754 1.199994 0.7238635
v -1.425681 1.199994 0.2513953
v -1.425681 1.199994 -0.2513956
v -1.253754 1.199994 -0.7238638
v -0.9305562 1.199994 -1.108977
v -0.495149 1.199994 -1.360397
v -0.9997956 1.156048 1.191498
v -1.347018 1.156048 0.7776729
v -1.531737 1.156048 0.2700968
v -1.531737 1.156048 -0.270097
v -1.347018 1.156048 -0.7776732
v -0.9997956 1.156048 -1.191498
v -0.5319661 1.156048 -1.46157
v -1.028458 -2.455711E-05 -1.225678
v -0.5472494 -2.455711E-05 -1.503514
v -1.385641 -2.455711E-05 -0.799988
v -1.575683 2.43187E-05 -0.277812
v -1.575683 2.43187E-05 0.2778606
v -1.385641 2.43187E-05 0.7999877
v -1.028458 2.43187E-05 1.225678
v -0.5472494 2.43187E-05 1.503514
v 2.455711E-05 2.43187E-05 1.6
v 0.5472497 2.43187E-05 1.503514
v 1.028458 2.43187E-05 1.225678
v 1.385641 2.43187E-05 0.7999877
v 1.575683 2.43187E-05 0.2778606
v 1.575683 2.43187E-05 -0.2778609
v 1.385641 -2.455711E-05 -0.799988
v 1.028458 -2.455711E-05 -1.225678
v 0.5472497 -2.455711E-05 -1.503514
v -2.43187E-05 -2.455711E-05 -1.6
vn -0.003700912 0.003700912 -0.9999863
vn 0.3387745 0.003700912 -0.9408603
vn 0.3387745 0.1905057 -0.9213791
vn -0.003700912 0.1905057 -0.9816791
vn -0.3383929 0.003700912 -0.9409977
vn -0.3383929 0.1905057 -0.9215193
vn 0.6267653 0.1905057 -0.7555613
vn 0.6423323 0.003700912 -0.7664173
vn 0.8524877 0.1905057 -0.486798
vn 0.8680547 0.003700912 -0.4964547
vn 0.9692407 0.1905057 -0.1558206
vn 0.9848077 0.003700912 -0.1736089
vn 0.9692407 0.1905057 0.1558206
vn 0.9848077 0.003700912 0.1736089
vn 0.8524877 0.1905057 0.486798
vn 0.8680547 0.003700912 0.4964547
vn 0.6267653 0.1905057 0.7555613
vn 0.6423323 0.003700912 0.7664173
vn 0.3387745 0.1905057 0.9213791
vn 0.3387745 0.003700912 0.9408603
vn -0.003700912 0.1905057 0.9816791
vn -0.003700912 0.003700912 0.9999863
vn -0.3383929 0.1905057 0.9215193
vn -0.3383929 0.003700912 0.9409977
vn -0.6341671 0.1905057 0.7493595
vn -0.6419506 0.003700912 0.766737
vn -0.852106 0.1905057 0.4874659
vn -0.867673 0.003700912 0.4971215
vn -0.968859 0.1905057 0.1581767
vn -0.984426 0.003700912 0.1757604
vn -0.968859 0.1905057 -0.1581767
vn -0.984426 0.003700912 -0.1757604
vn -0.852106 0.1905057 -0.4874659
vn -0.867673 0.003700912 -0.4971215
vn -0.6341671 0.1905057 -0.7493595
vn -0.6419506 0.003700912 -0.766737
vn -0.2449905 0.6886518 0.6824502
vn -0.003700912 0.6886518 0.7250828
vn 0.2453721 0.6886518 0.6823131
vn 0.463311 0.6886518 0.5577648
vn 0.6267653 0.6886518 0.3645875
vn 0.7123841 0.6886518 0.1351576
vn 0.7123841 0.6886518 -0.1351576
vn 0.6267653 0.6886518 -0.3645875
vn 0.463311 0.6886518 -0.5577648
vn 0.2453721 0.6886518 -0.6823131
vn -0.003700912 0.6886518 -0.7250828
vn -0.003700912 0.9766425 -0.2148389
vn 0.07413441 0.9766425 -0.2016769
vn -0.003700912 0.9999932 0
vn 0.1364027 0.9766425 -0.1660233
vn 0.1831039 0.9766425 -0.1124386
vn 0.2064545 0.9766425 -0.0595483
vn 0.2064545 0.9766425 0.0595483
vn 0.1831039 0.9766425 0.1124386
vn 0.1364027 0.9766425 0.1660233
vn 0.07413441 0.9766425 0.2016769
vn -0.003700912 0.9766425 0.2148389
vn -0.07375276 0.9766425 0.2018168
vn -0.136021 0.9766425 0.1663363
vn -0.1827222 0.9766425 0.1130577
vn -0.2060728 0.9766425 0.06085618
vn -0.2060728 0.9766425 -0.06085618
vn -0.1827222 0.9766425 -0.1130577
vn -0.136021 0.9766425 -0.1663363
vn -0.07375276 0.9766425 -0.2018168
vn -0.4629294 0.6886518 0.5580816
vn -0.6263835 0.6886518 0.3652429
vn -0.7120024 0.6886518 0.1371542
vn -0.7120024 0.6886518 -0.1371542
vn -0.6263835 0.6886518 -0.3652429
vn -0.4629294 0.6886518 -0.5580816
vn -0.2449905 0.6886518 -0.6824502
vn -0.6419506 0.003700912 -0.766737
vn -0.3383929 0.003700912 -0.9409977
vn -0.867673 0.003700912 -0.4971215
vn -0.984426 0.003700912 -0.1757604
vn -0.984426 0.003700912 0.1757604
vn -0.867673 0.003700912 0.4971215
vn -0.6419506 0.003700912 0.766737
vn -0.3383929 0.003700912 0.9409977
vn -0.003700912 0.003700912 0.9999863
vn 0.3387745 0.003700912 0.9408603
vn 0.6423323 0.003700912 0.7664173
vn 0.8680547 0.003700912 0.4964547
vn 0.9848077 0.003700912 0.1736089
vn 0.9848077 0.003700912 -0.1736089
vn 0.8680547 0.003700912 -0.4964547
vn 0.6423323 0.003700912 -0.7664173
vn 0.3387745 0.003700912 -0.9408603
vn -0.003700912 0.003700912 -0.9999863
g brickPillarTop_vertAO_0
f 3/3/3 2/2/2 1/1/1
f 4/4/4 3/3/3 1/1/1
f 4/4/4 1/1/1 5/5/5
f 6/6/6 4/4/4 5/5/5
f 3/3/3 7/7/7 2/2/2
f 7/7/7 8/8/8 2/2/2
f 7/7/7 9/9/9 8/8/8
f 9/9/9 10/10/10 8/8/8
f 9/9/9 11/11/11 10/10/10
f 11/11/11 12/12/12 10/10/10
f 11/11/11 13/13/13 12/12/12
f 13/13/13 14/14/14 12/12/12
f 13/13/13 15/15/15 14/14/14
f 15/15/15 16/16/16 14/14/14
f 15/15/15 17/17/17 16/16/16
f 17/17/17 18/18/18 16/16/16
f 17/17/17 19/19/19 18/18/18
f 19/19/19 20/20/20 18/18/18
f 19/19/19 21/21/21 20/20/20
f 21/21/21 22/22/22 20/20/20
f 21/21/21 23/23/23 22/22/22
f 23/23/23 24/24/24 22/22/22
f 23/23/23 25/25/25 24/24/24
f 25/25/25 26/26/26 24/24/24
f 25/25/25 27/27/27 26/26/26
f 27/27/27 28/28/28 26/26/26
f 27/27/27 29/29/29 28/28/28
f 29/29/29 30/30/30 28/28/28
f 29/29/29 31/31/31 30/30/30
f 31/31/31 32/32/32 30/30/30
f 31/31/31 33/33/33 32/32/32
f 33/33/33 34/34/34 32/32/32
f 33/33/33 35/35/35 34/34/34
f 35/35/35 36/36/36 34/34/34
f 35/35/35 6/6/6 36/36/36
f 6/6/6 5/5/5 36/36/36
f 23/23/23 37/37/37 25/25/25
f 38/38/38 37/37/37 23/23/23
f 21/21/21 38/38/38 23/23/23
f 39/39/39 38/38/38 21/21/21
f 19/19/19 39/39/39 21/21/21
f 40/40/40 39/39/39 19/19/19
f 17/17/17 40/40/40 19/19/19
f 41/41/41 40/40/40 17/17/17
f 15/15/15 41/41/41 17/17/17
f 42/42/42 41/41/41 15/15/15
f 13/13/13 42/42/42 15/15/15
f 43/43/43 42/42/42 13/13/13
f 11/11/11 43/43/43 13/13/13
f 44/44/44 43/43/43 11/11/11
f 9/9/9 44/44/44 11/11/11
f 45/45/45 44/44/44 9/9/9
f 7/7/7 45/45/45 9/9/9
f 46/46/46 45/45/45 7/7/7
f 3/3/3 46/46/46 7/7/7
f 47/47/47 46/46/46 3/3/3
f 4/4/4 47/47/47 3/3/3
f 47/47/47 48/48/48 46/46/46
f 48/48/48 49/49/49 46/46/46
f 46/46/46 49/49/49 45/45/45
f 49/49/49 48/48/48 50/50/50
f 51/51/51 49/49/49 50/50/50
f 49/49/49 51/51/51 45/45/45
f 45/45/45 51/51/51 44/44/44
f 52/52/52 51/51/51 50/50/50
f 51/51/51 52/52/52 44/44/44
f 44/44/44 52/52/52 43/43/43
f 53/53/53 52/52/52 50/50/50
f 52/52/52 53/53/53 43/43/43
f 54/54/54 53/53/53 50/50/50
f 55/55/55 54/54/54 50/50/50
f 56/56/56 55/55/55 50/50/50
f 57/57/57 56/56/56 50/50/50
f 58/58/58 57/57/57 50/50/50
f 59/59/59 58/58/58 50/50/50
f 60/60/60 59/59/59 50/50/50
f 61/61/61 60/60/60 50/50/50
f 62/62/62 61/61/61 50/50/50
f 63/63/63 62/62/62 50/50/50
f 64/64/64 63/63/63 50/50/50
f 65/65/65 64/64/64 50/50/50
f 66/66/66 65/65/65 50/50/50
f 53/53/53 54/54/54 42/42/42
f 43/43/43 53/53/53 42/42/42
f 54/54/54 55/55/55 41/41/41
f 42/42/42 54/54/54 41/41/41
f 55/55/55 56/56/56 40/40/40
f 41/41/41 55/55/55 40/40/40
f 56/56/56 57/57/57 39/39/39
f 40/40/40 56/56/56 39/39/39
f 57/57/57 58/58/58 38/38/38
f 39/39/39 57/57/57 38/38/38
f 58/58/58 59/59/59 37/37/37
f 38/38/38 58/58/58 37/37/37
f 59/59/59 60/60/60 67/67/67
f 37/37/37 59/59/59 67/67/67
f 37/37/37 67/67/67 25/25/25
f 25/25/25 67/67/67 27/27/27
f 67/67/67 68/68/68 27/27/27
f 67/67/67 60/60/60 68/68/68
f 60/60/60 61/61/61 68/68/68
f 27/27/27 68/68/68 29/29/29
f 68/68/68 69/69/69 29/29/29
f 68/68/68 61/61/61 69/69/69
f 61/61/61 62/62/62 69/69/69
f 29/29/29 69/69/69 31/31/31
f 69/69/69 70/70/70 31/31/31
f 69/69/69 62/62/62 70/70/70
f 62/62/62 63/63/63 70/70/70
f 31/31/31 70/70/70 33/33/33
f 70/70/70 71/71/71 33/33/33
f 70/70/70 63/63/63 71/71/71
f 63/63/63 64/64/64 71/71/71
f 33/33/33 71/71/71 35/35/35
f 71/71/71 72/72/72 35/35/35
f 71/71/71 64/64/64 72/72/72
f 64/64/64 65/65/65 72/72/72
f 35/35/35 72/72/72 6/6/6
f 72/72/72 73/73/73 6/6/6
f 72/72/72 65/65/65 73/73/73
f 65/65/65 66/66/66 73/73/73
f 6/6/6 73/73/73 4/4/4
f 73/73/73 47/47/47 4/4/4
f 73/73/73 66/66/66 47/47/47
f 66/66/66 48/48/48 47/47/47
f 48/48/48 66/66/66 50/50/50
f 5/5/5 75/75/75 74/74/74
f 36/36/36 5/5/5 74/74/74
f 36/36/36 74/74/74 76/76/76
f 34/34/34 36/36/36 76/76/76
f 34/34/34 76/76/76 77/77/77
f 32/32/32 34/34/34 77/77/77
f 32/32/32 77/77/77 78/78/78
f 30/30/30 32/32/32 78/78/78
f 30/30/30 78/78/78 79/79/79
f 28/28/28 30/30/30 79/79/79
f 28/28/28 79/79/79 80/80/80
f 26/26/26 28/28/28 80/80/80
f 26/26/26 80/80/80 81/81/81
f 24/24/24 26/26/26 81/81/81
f 24/24/24 81/81/81 82/82/82
f 22/22/22 24/24/24 82/82/82
f 22/22/22 82/82/82 83/83/83
f 20/20/20 22/22/22 83/83/83
f 20/20/20 83/83/83 84/84/84
f 18/18/18 20/20/20 84/84/84
f 18/18/18 84/84/84 85/85/85
f 16/16/16 18/18/18 85/85/85
f 16/16/16 85/85/85 86/86/86
f 14/14/14 16/16/16 86/86/86
f 14/14/14 86/86/86 87/87/87
f 12/12/12 14/14/14 87/87/87
f 12/12/12 87/87/87 88/88/88
f 10/10/10 12/12/12 88/88/88
f 10/10/10 88/88/88 89/89/89
f 8/8/8 10/10/10 89/89/89
f 8/8/8 89/89/89 90/90/90
f 2/2/2 8/8/8 90/90/90
f 2/2/2 90/90/90 91/91/91
f 1/1/1 2/2/2 91/91/91
f 1/1/1 91/91/91 75/75/75
f 5/5/5 1/1/1 75/75/75
