g Broom(Clone)
v 0.04249626 0.3397488 -0.01698959
v 0.04249626 0.3397488 0.01697981
v 0.04249626 3.279704 0.01697981
v 0.04249626 3.279704 -0.01698959
v 0.01698959 3.279704 0.04248655
v 0.01698959 3.303376 0.01697981
v 0.01698959 0.3397488 0.04248655
v 0.01698959 3.303376 -0.01698959
v -0.01697981 3.303376 0.01697981
v -0.01697981 3.303376 -0.01698959
v -0.04248655 3.279704 -0.01698959
v -0.04248655 3.279704 0.01697981
v -0.01697981 3.279704 0.04248655
v -0.01697981 0.3397488 0.04248655
v -0.04248655 0.3397488 0.01697981
v -0.04248655 3.279704 -0.01698959
v -0.04248655 0.3397488 -0.01698959
v -0.01697981 3.279704 -0.04249626
v -0.01697981 3.303376 -0.01698959
v -0.01697981 0.3397488 -0.04249626
v 0.01698959 3.279704 -0.04249626
v 0.01698959 0.3397488 -0.04249626
v 0.04249626 3.279704 -0.01698959
v 0.01698959 3.303376 -0.01698959
v 0.04249626 0.3397488 -0.01698959
v 0.5500259 0.2755975 -0.1500268
v 0.5500259 0.2755975 0.150017
v 0.5500259 0.3556091 0.150017
v 0.5500259 0.3556091 -0.1500268
v -0.5500162 0.3556091 0.150017
v -0.5500162 0.2755975 0.150017
v -0.5500162 0.3556091 -0.1500268
v -0.5500162 0.2755975 -0.1500268
v -0.5500162 0.2755975 -0.1500268
v 0.5500259 0.2755975 -0.1500268
v 0.5500259 0.3556091 -0.1500268
v -0.5500162 0.3556091 -0.1500268
v 0.5500259 0.2755975 0.150017
v 0.5500259 0.2755975 -0.1500268
v -0.5500162 0.2755975 -0.1500268
v -0.5500162 0.2755975 0.150017
v 0.531325 0.2090788 -0.1130391
v 0.531325 0.2133399 0.1209595
v 0.5120322 0.2867233 0.1113131
v 0.5120322 0.2867233 -0.1113229
v 0.575 0.03313607 -0.1170042
v 0.575 0.04686588 0.1429154
v 0.531325 0.2133399 0.1209595
v -0.5313153 0.2133399 0.1209595
v -0.5120817 0.2867233 0.1113131
v 0.5120322 0.2867233 0.1113131
v 0.575 0.04686588 0.1429154
v -0.5749902 0.04686588 0.1429154
v -0.5749902 0.03313607 -0.1170042
v 0.575 0.03313607 -0.1170042
v -0.5313153 0.2133399 0.1209595
v -0.5313153 0.2090788 -0.1130391
v -0.5120817 0.2867233 -0.1113229
v -0.5120817 0.2867233 0.1113131
v -0.5749902 0.04686588 0.1429154
v -0.5749902 0.03313607 -0.1170042
v -0.5313153 0.2090788 -0.1130391
v 0.531325 0.2090788 -0.1130391
v 0.5120322 0.2867233 -0.1113229
v -0.5120817 0.2867233 -0.1113229
v -0.5749902 0.03313607 -0.1170042
v 0.575 0.03313607 -0.1170042
vt 0.3860652 0.971521
vt 0.3860652 0.971521
vt 0.3860652 0.7420224
vt 0.3860652 0.7420224
vt 0.3840579 0.7420224
vt 0.3840579 0.740015
vt 0.3840579 0.971521
vt 0.3840579 0.740015
vt 0.3820506 0.740015
vt 0.3820506 0.740015
vt 0.3793742 0.7420224
vt 0.3793742 0.7420224
vt 0.3820506 0.7420224
vt 0.3820506 0.971521
vt 0.3793742 0.971521
vt 0.3793742 0.7420224
vt 0.3793742 0.971521
vt 0.3820506 0.7420224
vt 0.3820506 0.740015
vt 0.3820506 0.971521
vt 0.3840579 0.7420224
vt 0.3840579 0.971521
vt 0.3860652 0.7420224
vt 0.3840579 0.740015
vt 0.3860652 0.971521
vt 0.3599705 0.9481028
vt 0.3599705 0.9481028
vt 0.3599705 0.9581392
vt 0.3599705 0.9581392
vt 0.4978036 0.9581392
vt 0.4978036 0.9481028
vt 0.4978036 0.9581392
vt 0.4978036 0.9481028
vt 0.4978036 0.9481028
vt 0.3599705 0.9481028
vt 0.3599705 0.9581392
vt 0.4978036 0.9581392
vt 0.3599705 0.7386769
vt 0.3599705 0.7386769
vt 0.4978036 0.7386769
vt 0.4978036 0.7386769
vt 0.4235343 0.4583271
vt 0.4248725 0.399447
vt 0.4436071 0.4014543
vt 0.4436071 0.4583271
vt 0.3793742 0.4596653
vt 0.3827197 0.3940943
vt 0.4242034 0.3459196
vt 0.4242034 0.580102
vt 0.4402616 0.5754184
vt 0.4402616 0.3499342
vt 0.3874033 0.3365523
vt 0.3874033 0.5894692
vt 0.3840579 0.5894692
vt 0.3840579 0.3365523
vt 0.4248725 0.399447
vt 0.4235343 0.4583271
vt 0.4436071 0.4583271
vt 0.4436071 0.4014543
vt 0.3827197 0.3940943
vt 0.3793742 0.4596653
vt 0.4228652 0.580102
vt 0.4228652 0.3459196
vt 0.4402616 0.3499342
vt 0.4402616 0.5754184
vt 0.3840579 0.5894692
vt 0.3840579 0.3365523
vn 0.9238803 0.003623068 -0.3826643
vn 0.9238803 0.003623068 0.3826643
vn 0.8731575 0.358683 0.3300644
vn 0.8731575 0.358683 -0.3300644
vn 0.3369446 0.358683 0.8705257
vn 0.3296984 0.8876498 0.3215226
vn 0.3804213 0.003623068 0.9248062
vn 0.3296984 0.8876498 -0.3215226
vn -0.3296984 0.8876498 0.3215226
vn -0.3296984 0.8876498 -0.3215226
vn -0.8731575 0.358683 -0.3300644
vn -0.8731575 0.358683 0.3300644
vn -0.3369446 0.358683 0.8705257
vn -0.3804213 0.003623068 0.9248062
vn -0.9238803 0.003623068 0.3826643
vn -0.8731575 0.358683 -0.3300644
vn -0.9238803 0.003623068 -0.3826643
vn -0.3369446 0.358683 -0.8705257
vn -0.3296984 0.8876498 -0.3215226
vn -0.3804213 0.003623068 -0.9248062
vn 0.3369446 0.358683 -0.8705257
vn 0.3804213 0.003623068 -0.9248062
vn 0.8731575 0.358683 -0.3300644
vn 0.3296984 0.8876498 -0.3215226
vn 0.9238803 0.003623068 -0.3826643
vn 0.5760666 -0.5760666 -0.5799091
vn 0.5760666 -0.5760666 0.5799091
vn 0.5760666 0.5760666 0.5799091
vn 0.5760666 0.5760666 -0.5799091
vn -0.5760666 0.5760666 0.5799091
vn -0.5760666 -0.5760666 0.5799091
vn -0.5760666 0.5760666 -0.5799091
vn -0.5760666 -0.5760666 -0.5799091
vn -0.5760666 -0.5760666 -0.5799091
vn 0.5760666 -0.5760666 -0.5799091
vn 0.5760666 0.5760666 -0.5799091
vn -0.5760666 0.5760666 -0.5799091
vn 0.5760666 -0.5760666 0.5799091
vn 0.5760666 -0.5760666 -0.5799091
vn -0.5760666 -0.5760666 -0.5799091
vn -0.5760666 -0.5760666 0.5799091
vn 0.6847584 0.1920222 -0.7030174
vn 0.6775122 0.2644835 0.6863131
vn 0.6485277 0.2572373 0.7164082
vn 0.6340355 0.1775299 -0.7526501
vn 0.6485277 -0.5180976 -0.5576617
vn 0.6485277 -0.4601286 0.6063772
vn 0.6775122 0.2644835 0.6863131
vn -0.6775123 0.2644835 0.686313
vn -0.6485277 0.2572373 0.7164082
vn 0.6485277 0.2572373 0.7164082
vn 0.6485277 -0.4601286 0.6063772
vn -0.6485277 -0.4601286 0.6063772
vn -0.6485277 -0.5180976 -0.5576617
vn 0.6485277 -0.5180976 -0.5576617
vn -0.6775123 0.2644835 0.686313
vn -0.6847584 0.1920222 -0.7030173
vn -0.6340356 0.1775299 -0.75265
vn -0.6485277 0.2572373 0.7164082
vn -0.6485277 -0.4601286 0.6063772
vn -0.6485277 -0.5180976 -0.5576617
vn -0.6847584 0.1920222 -0.7030173
vn 0.6847584 0.1920222 -0.7030174
vn 0.6340355 0.1775299 -0.7526501
vn -0.6340356 0.1775299 -0.75265
vn -0.6485277 -0.5180976 -0.5576617
vn 0.6485277 -0.5180976 -0.5576617
g Broom(Clone)_0
f 3/3/3 2/2/2 1/1/1
f 4/4/4 3/3/3 1/1/1
f 2/2/2 3/3/3 5/5/5
f 3/3/3 6/6/6 5/5/5
f 7/7/7 2/2/2 5/5/5
f 3/3/3 4/4/4 8/8/8
f 6/6/6 3/3/3 8/8/8
f 6/6/6 8/8/8 9/9/9
f 8/8/8 10/10/10 9/9/9
f 10/10/10 11/11/11 9/9/9
f 11/11/11 12/12/12 9/9/9
f 9/9/9 12/12/12 13/13/13
f 13/13/13 5/5/5 6/6/6
f 9/9/9 13/13/13 6/6/6
f 5/5/5 13/13/13 7/7/7
f 14/14/14 13/13/13 12/12/12
f 13/13/13 14/14/14 7/7/7
f 15/15/15 14/14/14 12/12/12
f 12/12/12 16/16/16 15/15/15
f 16/16/16 17/17/17 15/15/15
f 17/17/17 16/16/16 18/18/18
f 19/19/19 18/18/18 16/16/16
f 20/20/20 17/17/17 18/18/18
f 18/18/18 21/21/21 20/20/20
f 21/21/21 18/18/18 19/19/19
f 21/21/21 22/22/22 20/20/20
f 21/21/21 23/23/23 22/22/22
f 21/21/21 24/24/24 23/23/23
f 24/24/24 21/21/21 19/19/19
f 23/23/23 25/25/25 22/22/22
f 28/28/28 27/27/27 26/26/26
f 29/29/29 28/28/28 26/26/26
f 28/28/28 30/30/30 27/27/27
f 28/28/28 29/29/29 30/30/30
f 30/30/30 31/31/31 27/27/27
f 30/30/30 32/32/32 31/31/31
f 29/29/29 32/32/32 30/30/30
f 32/32/32 33/33/33 31/31/31
f 36/36/36 35/35/35 34/34/34
f 37/37/37 36/36/36 34/34/34
f 40/40/40 39/39/39 38/38/38
f 41/41/41 40/40/40 38/38/38
f 44/44/44 43/43/43 42/42/42
f 45/45/45 44/44/44 42/42/42
f 42/42/42 43/43/43 46/46/46
f 43/43/43 47/47/47 46/46/46
f 50/50/50 49/49/49 48/48/48
f 51/51/51 50/50/50 48/48/48
f 48/48/48 49/49/49 52/52/52
f 49/49/49 53/53/53 52/52/52
f 53/53/53 54/54/54 52/52/52
f 54/54/54 55/55/55 52/52/52
f 58/58/58 57/57/57 56/56/56
f 59/59/59 58/58/58 56/56/56
f 56/56/56 57/57/57 60/60/60
f 57/57/57 61/61/61 60/60/60
f 64/64/64 63/63/63 62/62/62
f 65/65/65 64/64/64 62/62/62
f 62/62/62 63/63/63 66/66/66
f 63/63/63 67/67/67 66/66/66
