g ButterflyBody2
v 1.966953E-06 0.06830385 0.05838275
v 1.966953E-06 0.1525351 0.02869311
v 0.02834097 0.1525351 0.004479736
v 0.05767453 0.06830385 0.009121031
v -0.02833703 0.1525351 0.004479736
v -0.05767059 0.06830385 0.009121031
v 1.966953E-06 0.1652311 0.01473236
v 0.01455209 0.1652311 0.002294153
v 1.966953E-06 0.1652311 -0.01472399
v 1.966953E-06 -0.01213321 0.05494475
v -0.05426943 -0.01213321 0.008580774
v 1.966953E-06 0.06830385 -0.05838668
v 1.966953E-06 -0.01213321 -0.05494866
v -0.03594977 -0.09075305 0.005683035
v 1.966953E-06 -0.09075305 -0.0363957
v 1.966953E-06 -0.09075305 0.03639179
v 1.966953E-06 -0.1845615 -0.04275602
v 0.03594139 -0.09075305 0.005683035
v 0.04222804 -0.1845615 0.006677598
v 1.966953E-06 -0.1845615 0.04275212
v 1.966953E-06 -0.2982122 -0.03779548
v 0.03732887 -0.2982122 0.005904049
v 1.966953E-06 -0.2982122 0.03779155
v -0.03732497 -0.2982122 0.005904049
v -0.02110496 -0.3604524 0.00333783
v 1.966953E-06 -0.3604524 0.02136281
v 1.966953E-06 -0.3604524 -0.02136672
v -0.04222414 -0.1845615 0.006677598
v 0.02110887 -0.3604524 0.00333783
v 1.966953E-06 -0.3832906 -0.01084396
v 0.0107089 -0.3832906 0.001692504
v 1.966953E-06 -0.3832906 0.01084003
v -0.01070496 -0.3832906 0.001692504
v 0.05427334 -0.01213321 0.008580774
v 1.966953E-06 0.1525351 -0.02868477
v -0.01454818 0.1652311 0.002294153
v -0.01588655 0.1640155 0.002515167
v -0.07369417 0.2690711 -0.007283151
v -0.08053336 0.2614707 -0.005981624
v -0.02701095 0.1537629 0.004271001
v -0.1141767 0.3632848 -0.02850059
v -0.1070183 0.3677543 -0.02929869
v -0.1199722 0.4051916 -0.04060727
v -0.1086636 0.4126325 -0.04211754
v -0.1192232 0.4178386 -0.04088968
v -0.1116841 0.4213871 -0.04183513
v 0.01587817 0.1640155 0.002515167
v 0.02701485 0.1537629 0.004271001
v 0.08053726 0.2614707 -0.005981624
v 0.07369807 0.2690711 -0.007283151
v 0.1141683 0.3632848 -0.02850059
v 0.1070099 0.3677543 -0.02929869
v 0.1199761 0.4051916 -0.04060727
v 0.1086675 0.4126325 -0.04211754
v 0.1192271 0.4178386 -0.04088968
v 0.1116758 0.4213871 -0.04183513
vt 0.9564254 0.02770638
vt 0.9564254 0.02770638
vt 0.9564254 0.02770638
vt 0.9564254 0.02770638
vt 0.9564254 0.02770638
vt 0.9564254 0.02770638
vt 0.9564254 0.02770638
vt 0.9564254 0.02770638
vt 0.9564254 0.02770638
vt 0.9564254 0.02770638
vt 0.9564254 0.02770638
vt 0.9564254 0.02770638
vt 0.9564254 0.02770638
vt 0.9564254 0.02770638
vt 0.9564254 0.02770638
vt 0.9564254 0.02770638
vt 0.9564254 0.02770638
vt 0.9564254 0.02770638
vt 0.9564254 0.02770638
vt 0.9564254 0.02770638
vt 0.9564254 0.02770638
vt 0.9564254 0.02770638
vt 0.9564254 0.02770638
vt 0.9564254 0.02770638
vt 0.9564254 0.02770638
vt 0.9564254 0.02770638
vt 0.9564254 0.02770638
vt 0.9564254 0.02770638
vt 0.9564254 0.02770638
vt 0.9564254 0.02770638
vt 0.9564254 0.02770638
vt 0.9564254 0.02770638
vt 0.9564254 0.02770638
vt 0.9564254 0.02770638
vt 0.9564254 0.02770638
vt 0.9564254 0.02770638
vt 0.9564254 0.02770638
vt 0.9564254 0.02770638
vt 0.9564254 0.02770638
vt 0.9564254 0.02770638
vt 0.9564254 0.02770638
vt 0.9564254 0.02770638
vt 0.9564254 0.02770638
vt 0.9564254 0.02770638
vt 0.9564254 0.02770638
vt 0.9564254 0.02770638
vt 0.9564254 0.02770638
vt 0.9564254 0.02770638
vt 0.9564254 0.02770638
vt 0.9564254 0.02770638
vt 0.9564254 0.02770638
vt 0.9564254 0.02770638
vt 0.9564254 0.02770638
vt 0.9564254 0.02770638
vt 0.9564254 0.02770638
vt 0.9564254 0.02770638
vn -0.003908575 0.1368032 0.9905905
vn -0.003908575 0.5120351 0.8589557
vn 0.8636372 0.5041139 0
vn 0.9888923 0.1368032 0.05811081
vn -0.8636372 0.504114 0
vn -0.9888921 0.1368032 0.05811388
vn -0.003908575 0.8794495 0.4759761
vn 0.4948795 0.8689616 0
vn -0.003908575 0.8638149 -0.5037941
vn -0.003908575 -0.128986 0.9916387
vn -0.9888921 -0.128986 0.07385766
vn -0.003908575 0.1368032 -0.9905905
vn -0.003908575 -0.128986 -0.9916387
vn -0.995957 -0.08983148 0
vn -0.003908575 -0.08989936 -0.9959432
vn -0.003908575 -0.08989936 0.9959432
vn -0.003908575 0.01172596 -0.9999236
vn 0.995957 -0.08983147 0
vn 0.9967096 0.01172596 0.08020202
vn -0.003908575 0.01172596 0.9999236
vn -0.003908575 -0.1446207 -0.9894795
vn 0.9888923 -0.1446207 0.03430526
vn -0.003908575 -0.1446207 0.9894795
vn -0.9888921 -0.1446207 0.03431047
vn -0.9419882 -0.3244193 0.08608372
vn -0.003908575 -0.3244193 0.9459053
vn -0.003908575 -0.3244193 -0.9459053
vn -0.9967095 0.01172596 0.08020351
vn 0.9419883 -0.3244193 0.08608199
vn -0.003908575 -0.7309204 -0.6824515
vn 0.6761991 -0.7309204 0.09225027
vn -0.003908575 -0.7465551 0.6653121
vn -0.676199 -0.7309204 0.09225092
vn 0.9888923 -0.128986 0.07385524
vn -0.003908575 0.5042177 -0.8635677
vn -0.4948795 0.8689617 0
vn -0.05081254 -0.1211687 -0.9913306
vn 0.003908753 -0.17589 -0.9844021
vn -0.01954323 -0.152438 -0.9881198
vn -0.05081254 -0.1211687 -0.9913306
vn 0.04299539 -0.2306113 -0.9720956
vn 0.04299539 -0.246246 -0.9682533
vn -0.003908575 -0.1915246 -0.9814801
vn -0.05862993 -0.105534 -0.9926858
vn -0.1211686 -0.01172608 -0.9925627
vn -0.1211686 -0.01172608 -0.9925627
vn 0.05081272 -0.1211687 -0.9913305
vn 0.05081272 -0.1211687 -0.9913305
vn 0.01954341 -0.152438 -0.9881198
vn -0.003908575 -0.17589 -0.9844021
vn -0.04299527 -0.2306113 -0.9720956
vn -0.04299527 -0.246246 -0.9682533
vn 0.003908753 -0.1915246 -0.9814801
vn 0.05863005 -0.105534 -0.9926858
vn 0.1211687 -0.01172608 -0.9925627
vn 0.1211687 -0.01172608 -0.9925627
g ButterflyBody2_0
f 3/3/3 2/2/2 1/1/1
f 4/4/4 3/3/3 1/1/1
f 2/2/2 5/5/5 1/1/1
f 5/5/5 6/6/6 1/1/1
f 2/2/2 3/3/3 7/7/7
f 5/5/5 2/2/2 7/7/7
f 3/3/3 8/8/8 7/7/7
f 9/9/9 7/7/7 8/8/8
f 1/1/1 6/6/6 10/10/10
f 4/4/4 1/1/1 10/10/10
f 6/6/6 11/11/11 10/10/10
f 6/6/6 12/12/12 11/11/11
f 12/12/12 13/13/13 11/11/11
f 11/11/11 13/13/13 14/14/14
f 13/13/13 15/15/15 14/14/14
f 11/11/11 14/14/14 16/16/16
f 10/10/10 11/11/11 16/16/16
f 15/15/15 17/17/17 14/14/14
f 17/17/17 15/15/15 18/18/18
f 15/15/15 13/13/13 18/18/18
f 19/19/19 18/18/18 16/16/16
f 19/19/19 17/17/17 18/18/18
f 20/20/20 19/19/19 16/16/16
f 21/21/21 17/17/17 19/19/19
f 22/22/22 21/21/21 19/19/19
f 22/22/22 19/19/19 20/20/20
f 23/23/23 22/22/22 20/20/20
f 24/24/24 23/23/23 20/20/20
f 24/24/24 25/25/25 23/23/23
f 25/25/25 26/26/26 23/23/23
f 27/27/27 25/25/25 24/24/24
f 21/21/21 27/27/27 24/24/24
f 27/27/27 21/21/21 22/22/22
f 28/28/28 24/24/24 20/20/20
f 21/21/21 24/24/24 28/28/28
f 17/17/17 21/21/21 28/28/28
f 17/17/17 28/28/28 14/14/14
f 28/28/28 20/20/20 16/16/16
f 14/14/14 28/28/28 16/16/16
f 29/29/29 27/27/27 22/22/22
f 29/29/29 22/22/22 23/23/23
f 26/26/26 29/29/29 23/23/23
f 27/27/27 29/29/29 30/30/30
f 25/25/25 27/27/27 30/30/30
f 29/29/29 31/31/31 30/30/30
f 29/29/29 26/26/26 31/31/31
f 26/26/26 32/32/32 31/31/31
f 30/30/30 31/31/31 32/32/32
f 33/33/33 30/30/30 32/32/32
f 26/26/26 25/25/25 33/33/33
f 32/32/32 26/26/26 33/33/33
f 33/33/33 25/25/25 30/30/30
f 18/18/18 34/34/34 16/16/16
f 34/34/34 10/10/10 16/16/16
f 34/34/34 4/4/4 10/10/10
f 12/12/12 4/4/4 34/34/34
f 13/13/13 12/12/12 34/34/34
f 13/13/13 34/34/34 18/18/18
f 12/12/12 35/35/35 4/4/4
f 35/35/35 12/12/12 6/6/6
f 5/5/5 35/35/35 6/6/6
f 35/35/35 5/5/5 36/36/36
f 36/36/36 5/5/5 7/7/7
f 7/7/7 9/9/9 36/36/36
f 9/9/9 35/35/35 36/36/36
f 35/35/35 9/9/9 8/8/8
f 3/3/3 35/35/35 8/8/8
f 35/35/35 3/3/3 4/4/4
f 39/39/39 38/38/38 37/37/37
f 40/40/40 39/39/39 37/37/37
f 39/39/39 41/41/41 38/38/38
f 41/41/41 42/42/42 38/38/38
f 41/41/41 43/43/43 42/42/42
f 43/43/43 44/44/44 42/42/42
f 43/43/43 45/45/45 44/44/44
f 45/45/45 46/46/46 44/44/44
f 49/49/49 48/48/48 47/47/47
f 50/50/50 49/49/49 47/47/47
f 51/51/51 49/49/49 50/50/50
f 52/52/52 51/51/51 50/50/50
f 53/53/53 51/51/51 52/52/52
f 54/54/54 53/53/53 52/52/52
f 55/55/55 53/53/53 54/54/54
f 56/56/56 55/55/55 54/54/54
