g butterflyDisplayFrame3
v -1.340396 0.6751323 0.03207338
v -1.340396 0.6751323 -0.2600576
v -1.340396 1.080102 -0.2600576
v -1.340396 1.080102 0.03207338
v -1.340396 0.3375838 0.03207338
v -1.340396 0.3375838 -0.2600576
v -1.340396 -5.00679E-06 0.03207338
v -1.340396 -5.00679E-06 -0.2600576
v -1.340396 -0.3375535 0.03207338
v -1.340396 -0.3375535 -0.2600576
v -1.340396 -0.6751423 0.03207338
v -1.340396 -0.6751423 -0.2600576
v -1.340396 -1.080112 0.03207338
v -1.340396 -1.080112 -0.2600576
v 1.214833 -0.6751423 -0.2600576
v 1.214833 -0.6751423 -0.07427692
v 1.214833 -0.9943545 -0.07427692
v 1.214833 -0.9943545 -0.2600576
v 1.214833 -0.3375535 -0.2600576
v 1.214833 -0.3375535 -0.07427692
v 1.214833 -5.00679E-06 -0.2600576
v 1.214833 -5.00679E-06 -0.07427692
v 1.214833 0.3375838 -0.2600576
v 1.214833 0.3375838 -0.07427692
v 1.214833 0.6751323 -0.2600576
v 1.214833 0.6751323 -0.07427692
v 1.214833 0.9943445 -0.2600576
v 1.214833 0.9943445 -0.07427692
v 0.159591 -0.6751423 -0.07427692
v 0.159591 -0.3375535 -0.07427692
v -0.1993566 -0.3375535 -0.07427692
v -0.1993566 -0.6751423 -0.07427692
v -0.1993566 -5.00679E-06 -0.07427692
v -0.5582638 -5.00679E-06 -0.07427692
v -0.5582638 0.3375838 -0.07427692
v -0.917171 0.3375838 -0.07427692
v -0.917171 0.6751323 -0.07427692
v -0.5582638 0.6751323 -0.07427692
v -0.1993566 0.3375838 -0.07427692
v 0.159591 -5.00679E-06 -0.07427692
v 0.159591 0.3375838 -0.07427692
v -0.1993566 0.6751323 -0.07427692
v 0.159591 0.6751323 -0.07427692
v -0.917171 -5.00679E-06 -0.07427692
v -0.5582638 -0.3375535 -0.07427692
v -0.917171 -0.3375535 -0.07427692
v 0.5184982 -5.00679E-06 -0.07427692
v 0.5184982 0.3375838 -0.07427692
v 0.8774054 -5.00679E-06 -0.07427692
v 0.8774054 0.3375838 -0.07427692
v 0.5184982 0.6751323 -0.07427692
v 0.8774054 0.6751323 -0.07427692
v 1.214833 0.3375838 -0.07427692
v 1.214833 0.6751323 -0.07427692
v 1.214833 -5.00679E-06 -0.07427692
v 0.8774054 0.9943445 -0.07427692
v 0.5184982 0.9943445 -0.07427692
v 0.8774054 -0.3375535 -0.07427692
v 0.5184982 -0.3375535 -0.07427692
v 0.8774054 -0.6751423 -0.07427692
v 0.5184982 -0.6751423 -0.07427692
v 0.8774054 -0.9943545 -0.07427692
v 0.5184982 -0.9943545 -0.07427692
v 0.159591 -0.9943545 -0.07427692
v -0.1993566 -0.9943545 -0.07427692
v 1.214833 -0.9943545 -0.07427692
v 1.214833 -0.6751423 -0.07427692
v 1.214833 -0.3375535 -0.07427692
v -0.5582638 -0.6751423 -0.07427692
v -0.5582638 -0.9943545 -0.07427692
v -0.917171 -0.6751423 -0.07427692
v -0.917171 -0.9943545 -0.07427692
v -1.254599 -0.3375535 -0.07427692
v -1.254599 -5.00679E-06 -0.07427692
v -1.254599 0.3375838 -0.07427692
v -1.254599 0.6751323 -0.07427692
v -0.917171 0.9943445 -0.07427692
v -0.5582638 0.9943445 -0.07427692
v -0.1993566 0.9943445 -0.07427692
v 0.159591 0.9943445 -0.07427692
v -1.254599 0.9943445 -0.07427692
v -1.254599 -0.6751423 -0.07427692
v -1.254599 -0.9943545 -0.07427692
v 1.300631 -0.6751423 -0.2600576
v 1.300631 -1.080112 -0.2600576
v 1.300631 -1.080112 0.03207338
v 1.300631 -0.6751423 0.03207338
v 1.300631 -0.3375535 -0.2600576
v 1.300631 -0.3375535 0.03207338
v 1.300631 -5.00679E-06 -0.2600576
v 1.300631 -5.00679E-06 0.03207338
v 1.300631 0.3375838 -0.2600576
v 1.300631 0.3375838 0.03207338
v 1.300631 0.6751323 -0.2600576
v 1.300631 0.6751323 0.03207338
v 1.300631 1.080102 -0.2600576
v 1.300631 1.080102 0.03207338
v 1.214833 0.6751323 -0.2600576
v 1.300631 0.6751323 -0.2600576
v 1.300631 1.080102 -0.2600576
v 1.214833 0.9943445 -0.2600576
v 0.8774054 1.080102 -0.2600576
v 0.8774054 0.9943445 -0.2600576
v 1.214833 0.3375838 -0.2600576
v 1.300631 0.3375838 -0.2600576
v 1.214833 -5.00679E-06 -0.2600576
v 1.300631 -5.00679E-06 -0.2600576
v 1.214833 -0.3375535 -0.2600576
v 1.300631 -0.3375535 -0.2600576
v 1.214833 -0.6751423 -0.2600576
v 1.300631 -0.6751423 -0.2600576
v 1.214833 -0.9943545 -0.2600576
v 1.300631 -1.080112 -0.2600576
v 0.5184982 1.080102 -0.2600576
v 0.5184982 0.9943445 -0.2600576
v 0.159591 1.080102 -0.2600576
v 0.159591 0.9943445 -0.2600576
v -0.1993566 1.080102 -0.2600576
v -0.1993566 0.9943445 -0.2600576
v -0.5582638 1.080102 -0.2600576
v -0.5582638 0.9943445 -0.2600576
v -0.917171 1.080102 -0.2600576
v -0.917171 0.9943445 -0.2600576
v -1.340396 1.080102 -0.2600576
v -1.254599 0.9943445 -0.2600576
v -1.340396 0.6751323 -0.2600576
v -1.254599 0.6751323 -0.2600576
v -1.340396 0.3375838 -0.2600576
v -1.254599 0.3375838 -0.2600576
v -1.340396 -5.00679E-06 -0.2600576
v -1.254599 -5.00679E-06 -0.2600576
v -1.340396 -0.3375535 -0.2600576
v -1.254599 -0.3375535 -0.2600576
v -1.340396 -0.6751423 -0.2600576
v -1.254599 -0.6751423 -0.2600576
v -1.340396 -1.080112 -0.2600576
v -1.254599 -0.9943545 -0.2600576
v -0.917171 -1.080112 -0.2600576
v -0.917171 -0.9943545 -0.2600576
v -0.5582638 -1.080112 -0.2600576
v -0.5582638 -0.9943545 -0.2600576
v -0.1993566 -1.080112 -0.2600576
v -0.1993566 -0.9943545 -0.2600576
v 0.159591 -1.080112 -0.2600576
v 0.159591 -0.9943545 -0.2600576
v 0.5184982 -1.080112 -0.2600576
v 0.5184982 -0.9943545 -0.2600576
v 0.8774054 -1.080112 -0.2600576
v 0.8774054 -0.9943545 -0.2600576
v -0.1993566 1.080102 0.03207338
v -0.1993566 1.080102 -0.2600576
v 0.159591 1.080102 -0.2600576
v 0.159591 1.080102 0.03207338
v -0.5582638 1.080102 0.03207338
v -0.5582638 1.080102 -0.2600576
v 0.5184982 1.080102 -0.2600576
v 0.5184982 1.080102 0.03207338
v 0.8774054 1.080102 -0.2600576
v 0.8774054 1.080102 0.03207338
v -0.917171 1.080102 0.03207338
v -0.917171 1.080102 -0.2600576
v -1.340396 1.080102 0.03207338
v -1.340396 1.080102 -0.2600576
v 1.300631 1.080102 -0.2600576
v 1.300631 1.080102 0.03207338
v -1.254599 0.6751323 -0.2600576
v -1.254599 0.6751323 -0.07427692
v -1.254599 0.9943445 -0.07427692
v -1.254599 0.9943445 -0.2600576
v -1.254599 0.3375838 -0.2600576
v -1.254599 0.3375838 -0.07427692
v -1.254599 -5.00679E-06 -0.2600576
v -1.254599 -5.00679E-06 -0.07427692
v -1.254599 -0.3375535 -0.2600576
v -1.254599 -0.3375535 -0.07427692
v -1.254599 -0.6751423 -0.2600576
v -1.254599 -0.6751423 -0.07427692
v -1.254599 -0.9943545 -0.2600576
v -1.254599 -0.9943545 -0.07427692
v 1.214833 -0.9943545 -0.2600576
v 1.214833 -0.9943545 -0.07427692
v 0.8774054 -0.9943545 -0.07427692
v 0.8774054 -0.9943545 -0.2600576
v 0.5184982 -0.9943545 -0.07427692
v 0.5184982 -0.9943545 -0.2600576
v 0.159591 -0.9943545 -0.07427692
v 0.159591 -0.9943545 -0.2600576
v -0.1993566 -0.9943545 -0.07427692
v -0.1993566 -0.9943545 -0.2600576
v -0.5582638 -0.9943545 -0.07427692
v -0.5582638 -0.9943545 -0.2600576
v -0.917171 -0.9943545 -0.07427692
v -0.917171 -0.9943545 -0.2600576
v -1.254599 -0.9943545 -0.07427692
v -1.254599 -0.9943545 -0.2600576
v -0.5582638 0.9943445 -0.2600576
v -0.5582638 0.9943445 -0.07427692
v -0.1993566 0.9943445 -0.07427692
v -0.1993566 0.9943445 -0.2600576
v -0.917171 0.9943445 -0.2600576
v -0.917171 0.9943445 -0.07427692
v -1.254599 0.9943445 -0.2600576
v -1.254599 0.9943445 -0.07427692
v 0.159591 0.9943445 -0.07427692
v 0.159591 0.9943445 -0.2600576
v 0.5184982 0.9943445 -0.07427692
v 0.5184982 0.9943445 -0.2600576
v 0.8774054 0.9943445 -0.07427692
v 0.8774054 0.9943445 -0.2600576
v 1.214833 0.9943445 -0.07427692
v 1.214833 0.9943445 -0.2600576
v -0.5582638 -1.080112 0.03207338
v -0.5582638 -1.080112 -0.2600576
v -0.917171 -1.080112 -0.2600576
v -0.917171 -1.080112 0.03207338
v -0.1993566 -1.080112 0.03207338
v -0.1993566 -1.080112 -0.2600576
v 0.159591 -1.080112 0.03207338
v 0.159591 -1.080112 -0.2600576
v 0.5184982 -1.080112 0.03207338
v 0.5184982 -1.080112 -0.2600576
v 0.8774054 -1.080112 0.03207338
v 0.8774054 -1.080112 -0.2600576
v 1.300631 -1.080112 0.03207338
v 1.300631 -1.080112 -0.2600576
v -1.340396 -1.080112 -0.2600576
v -1.340396 -1.080112 0.03207338
v 1.214833 0.9943445 -0.07427692
vn -0.9999923 0.003921509 -0.0003449296
vn -0.9999923 0.003921509 -0.0003449296
vn -0.9999923 0.003921509 -0.0003449296
vn -0.9999923 0.003921509 -0.0003449296
vn -0.9999923 0.003921509 -0.0003449296
vn -0.9999923 0.003921509 -0.0003449296
vn -0.9999923 0.003921509 -0.0003449296
vn -0.9999923 0.003921509 -0.0003449296
vn -0.9999923 0.003921509 -0.0003449296
vn -0.9999923 0.003921509 -0.0003449296
vn -0.9999923 0.003921509 -0.0003449296
vn -0.9999923 0.003921509 -0.0003449296
vn -0.9999923 0.003921509 -0.0003449296
vn -0.9999923 0.003921509 -0.0003449296
vn -0.9999923 0.003921509 -0.0003449296
vn -0.9999923 0.003921509 -0.0003449296
vn -0.9999923 0.003921509 -0.0003449296
vn -0.9999923 0.003921509 -0.0003449296
vn -0.9999923 0.003921509 -0.0003449296
vn -0.9999923 0.003921509 -0.0003449296
vn -0.9999923 0.003921509 -0.0003449296
vn -0.9999923 0.003921509 -0.0003449296
vn -0.9999923 0.003921509 -0.0003449296
vn -0.9999923 0.003921509 -0.0003449296
vn -0.9999923 0.003921509 -0.0003449296
vn -0.9999923 0.003921509 -0.0003449296
vn -0.9999923 0.003921509 -0.0003449296
vn -0.9999923 0.003921509 -0.0003449296
vn -0.003921509 0.003921509 -0.9999846
vn -0.003921509 0.003921509 -0.9999846
vn -0.003921509 0.003921509 -0.9999846
vn -0.003921509 0.003921509 -0.9999846
vn -0.003921509 0.003921509 -0.9999846
vn -0.003921509 0.003921509 -0.9999846
vn -0.003921509 0.003921509 -0.9999846
vn -0.003921509 0.003921509 -0.9999846
vn -0.003921509 0.003921509 -0.9999846
vn -0.003921509 0.003921509 -0.9999846
vn -0.003921509 0.003921509 -0.9999846
vn -0.003921509 0.003921509 -0.9999846
vn -0.003921509 0.003921509 -0.9999846
vn -0.003921509 0.003921509 -0.9999846
vn -0.003921509 0.003921509 -0.9999846
vn -0.003921509 0.003921509 -0.9999846
vn -0.003921509 0.003921509 -0.9999846
vn -0.003921509 0.003921509 -0.9999846
vn -0.003921509 0.003921509 -0.9999846
vn -0.003921509 0.003921509 -0.9999846
vn -0.003921509 0.003921509 -0.9999846
vn -0.003921509 0.003921509 -0.9999846
vn -0.003921509 0.003921509 -0.9999846
vn -0.003921509 0.003921509 -0.9999846
vn -0.003921509 0.003921509 -0.9999846
vn -0.003921509 0.003921509 -0.9999846
vn -0.003921509 0.003921509 -0.9999846
vn -0.003921509 0.003921509 -0.9999846
vn -0.003921509 0.003921509 -0.9999846
vn -0.003921509 0.003921509 -0.9999846
vn -0.003921509 0.003921509 -0.9999846
vn -0.003921509 0.003921509 -0.9999846
vn -0.003921509 0.003921509 -0.9999846
vn -0.003921509 0.003921509 -0.9999846
vn -0.003921509 0.003921509 -0.9999846
vn -0.003921509 0.003921509 -0.9999846
vn -0.003921509 0.003921509 -0.9999846
vn -0.003921509 0.003921509 -0.9999846
vn -0.003921509 0.003921509 -0.9999846
vn -0.003921509 0.003921509 -0.9999846
vn -0.003921509 0.003921509 -0.9999846
vn -0.003921509 0.003921509 -0.9999846
vn -0.003921509 0.003921509 -0.9999846
vn -0.003921509 0.003921509 -0.9999846
vn -0.003921509 0.003921509 -0.9999846
vn -0.003921509 0.003921509 -0.9999846
vn -0.003921509 0.003921509 -0.9999846
vn -0.003921509 0.003921509 -0.9999846
vn -0.003921509 0.003921509 -0.9999846
vn -0.003921509 0.003921509 -0.9999846
vn -0.003921509 0.003921509 -0.9999846
vn -0.003921509 0.003921509 -0.9999846
vn -0.003921509 0.003921509 -0.9999846
vn -0.003921509 0.003921509 -0.9999846
vn -0.003921509 0.003921509 -0.9999846
vn 0.9999924 0.003921509 0
vn 0.9999924 0.003921509 0
vn 0.9999924 0.003921509 0
vn 0.9999924 0.003921509 0
vn 0.9999924 0.003921509 0
vn 0.9999924 0.003921509 0
vn 0.9999924 0.003921509 0
vn 0.9999924 0.003921509 0
vn 0.9999924 0.003921509 0
vn 0.9999924 0.003921509 0
vn 0.9999924 0.003921509 0
vn 0.9999924 0.003921509 0
vn 0.9999924 0.003921509 0
vn 0.9999924 0.003921509 0
vn -0.003921509 0.003921509 -0.9999846
vn -0.003921509 0.003921509 -0.9999846
vn -0.003921509 0.003921509 -0.9999846
vn -0.003921509 0.003921509 -0.9999846
vn -0.003921509 0.003921509 -0.9999846
vn -0.003921509 0.003921509 -0.9999846
vn -0.003921509 0.003921509 -0.9999846
vn -0.003921509 0.003921509 -0.9999846
vn -0.003921509 0.003921509 -0.9999846
vn -0.003921509 0.003921509 -0.9999846
vn -0.003921509 0.003921509 -0.9999846
vn -0.003921509 0.003921509 -0.9999846
vn -0.003921509 0.003921509 -0.9999846
vn -0.003921509 0.003921509 -0.9999846
vn -0.003921509 0.003921509 -0.9999846
vn -0.003921509 0.003921509 -0.9999846
vn -0.003921509 0.003921509 -0.9999846
vn -0.003921509 0.003921509 -0.9999846
vn -0.003921509 0.003921509 -0.9999846
vn -0.003921509 0.003921509 -0.9999846
vn -0.003921509 0.003921509 -0.9999846
vn -0.003921509 0.003921509 -0.9999846
vn -0.003921509 0.003921509 -0.9999846
vn -0.003921509 0.003921509 -0.9999846
vn -0.003921509 0.003921509 -0.9999846
vn -0.003921509 0.003921509 -0.9999846
vn -0.003921509 0.003921509 -0.9999846
vn -0.003921509 0.003921509 -0.9999846
vn -0.003921509 0.003921509 -0.9999846
vn -0.003921509 0.003921509 -0.9999846
vn -0.003921509 0.003921509 -0.9999846
vn -0.003921509 0.003921509 -0.9999846
vn -0.003921509 0.003921509 -0.9999846
vn -0.003921509 0.003921509 -0.9999846
vn -0.003921509 0.003921509 -0.9999846
vn -0.003921509 0.003921509 -0.9999846
vn -0.003921509 0.003921509 -0.9999846
vn -0.003921509 0.003921509 -0.9999846
vn -0.003921509 0.003921509 -0.9999846
vn -0.003921509 0.003921509 -0.9999846
vn -0.003921509 0.003921509 -0.9999846
vn -0.003921509 0.003921509 -0.9999846
vn -0.003921509 0.003921509 -0.9999846
vn -0.003921509 0.003921509 -0.9999846
vn -0.003921509 0.003921509 -0.9999846
vn -0.003921509 0.003921509 -0.9999846
vn -0.003921509 0.003921509 -0.9999846
vn -0.003921509 0.003921509 -0.9999846
vn -0.003921509 0.003921509 -0.9999846
vn -0.003921509 0.003921509 -0.9999846
vn -0.003921509 0.003921509 -0.9999846
vn -0.003921509 0.003921509 -0.9999846
vn -0.003921509 0.9999923 -0.000345267
vn -0.003921509 0.9999923 -0.000345267
vn -0.003921509 0.9999923 -0.000345267
vn -0.003921509 0.9999923 -0.000345267
vn -0.003921509 0.9999923 -0.000345267
vn -0.003921509 0.9999923 -0.000345267
vn -0.003921509 0.9999923 -0.000345267
vn -0.003921509 0.9999923 -0.000345267
vn -0.003921509 0.9999923 -0.000345267
vn -0.003921509 0.9999923 -0.000345267
vn -0.003921509 0.9999923 -0.000345267
vn -0.003921509 0.9999923 -0.000345267
vn -0.003921509 0.9999923 -0.000345267
vn -0.003921509 0.9999923 -0.000345267
vn -0.003921509 0.9999923 -0.000345267
vn -0.003921509 0.9999923 -0.000345267
vn 0.9999924 0.003921509 0
vn 0.9999924 0.003921509 0
vn 0.9999924 0.003921509 0
vn 0.9999924 0.003921509 0
vn 0.9999924 0.003921509 0
vn 0.9999924 0.003921509 0
vn 0.9999924 0.003921509 0
vn 0.9999924 0.003921509 0
vn 0.9999924 0.003921509 0
vn 0.9999924 0.003921509 0
vn 0.9999924 0.003921509 0
vn 0.9999924 0.003921509 0
vn 0.9999924 0.003921509 0
vn 0.9999924 0.003921509 0
vn -0.003921509 0.9999923 -0.000345267
vn -0.003921509 0.9999923 -0.000345267
vn -0.003921509 0.9999923 -0.000345267
vn -0.003921509 0.9999923 -0.000345267
vn -0.003921509 0.9999923 -0.000345267
vn -0.003921509 0.9999923 -0.000345267
vn -0.003921509 0.9999923 -0.000345267
vn -0.003921509 0.9999923 -0.000345267
vn -0.003921509 0.9999923 -0.000345267
vn -0.003921509 0.9999923 -0.000345267
vn -0.003921509 0.9999923 -0.000345267
vn -0.003921509 0.9999923 -0.000345267
vn -0.003921509 0.9999923 -0.000345267
vn -0.003921509 0.9999923 -0.000345267
vn -0.003921509 0.9999923 -0.000345267
vn -0.003921509 0.9999923 -0.000345267
vn -0.003921509 -0.9999924 0
vn -0.003921509 -0.9999924 0
vn -0.003921509 -0.9999924 0
vn -0.003921509 -0.9999924 0
vn -0.003921509 -0.9999924 0
vn -0.003921509 -0.9999924 0
vn -0.003921509 -0.9999924 0
vn -0.003921509 -0.9999924 0
vn -0.003921509 -0.9999924 0
vn -0.003921509 -0.9999924 0
vn -0.003921509 -0.9999924 0
vn -0.003921509 -0.9999924 0
vn -0.003921509 -0.9999924 0
vn -0.003921509 -0.9999924 0
vn -0.003921509 -0.9999924 0
vn -0.003921509 -0.9999924 0
vn -0.003921509 -0.9999924 0
vn -0.003921509 -0.9999924 0
vn -0.003921509 -0.9999924 0
vn -0.003921509 -0.9999924 0
vn -0.003921509 -0.9999924 0
vn -0.003921509 -0.9999924 0
vn -0.003921509 -0.9999924 0
vn -0.003921509 -0.9999924 0
vn -0.003921509 -0.9999924 0
vn -0.003921509 -0.9999924 0
vn -0.003921509 -0.9999924 0
vn -0.003921509 -0.9999924 0
vn -0.003921509 -0.9999924 0
vn -0.003921509 -0.9999924 0
vn -0.003921509 -0.9999924 0
vn -0.003921509 -0.9999924 0
vn -0.003921509 0.003921509 -0.9999846
g butterflyDisplayFrame3_0
f 3/3/3 2/2/2 1/1/1
f 4/4/4 3/3/3 1/1/1
f 1/1/1 2/2/2 5/5/5
f 2/2/2 6/6/6 5/5/5
f 5/5/5 6/6/6 7/7/7
f 6/6/6 8/8/8 7/7/7
f 7/7/7 8/8/8 9/9/9
f 8/8/8 10/10/10 9/9/9
f 9/9/9 10/10/10 11/11/11
f 10/10/10 12/12/12 11/11/11
f 11/11/11 12/12/12 13/13/13
f 12/12/12 14/14/14 13/13/13
f 17/17/17 16/16/16 15/15/15
f 18/18/18 17/17/17 15/15/15
f 15/15/15 16/16/16 19/19/19
f 16/16/16 20/20/20 19/19/19
f 19/19/19 20/20/20 21/21/21
f 20/20/20 22/22/22 21/21/21
f 21/21/21 22/22/22 23/23/23
f 22/22/22 24/24/24 23/23/23
f 23/23/23 24/24/24 25/25/25
f 24/24/24 26/26/26 25/25/25
f 25/25/25 26/26/26 27/27/27
f 26/26/26 28/28/28 27/27/27
f 31/31/31 30/30/30 29/29/29
f 32/32/32 31/31/31 29/29/29
f 31/31/31 33/33/33 30/30/30
f 34/34/34 33/33/33 31/31/31
f 34/34/34 35/35/35 33/33/33
f 36/36/36 35/35/35 34/34/34
f 36/36/36 37/37/37 35/35/35
f 37/37/37 38/38/38 35/35/35
f 35/35/35 38/38/38 39/39/39
f 35/35/35 39/39/39 33/33/33
f 33/33/33 39/39/39 40/40/40
f 33/33/33 40/40/40 30/30/30
f 39/39/39 41/41/41 40/40/40
f 38/38/38 42/42/42 39/39/39
f 39/39/39 42/42/42 41/41/41
f 42/42/42 43/43/43 41/41/41
f 44/44/44 36/36/36 34/34/34
f 44/44/44 34/34/34 45/45/45
f 45/45/45 34/34/34 31/31/31
f 45/45/45 31/31/31 32/32/32
f 46/46/46 44/44/44 45/45/45
f 40/40/40 41/41/41 47/47/47
f 41/41/41 48/48/48 47/47/47
f 41/41/41 43/43/43 48/48/48
f 47/47/47 48/48/48 49/49/49
f 48/48/48 50/50/50 49/49/49
f 48/48/48 51/51/51 50/50/50
f 43/43/43 51/51/51 48/48/48
f 51/51/51 52/52/52 50/50/50
f 50/50/50 52/52/52 53/53/53
f 52/52/52 54/54/54 53/53/53
f 50/50/50 53/53/53 55/55/55
f 49/49/49 50/50/50 55/55/55
f 56/56/56 52/52/52 51/51/51
f 57/57/57 56/56/56 51/51/51
f 57/57/57 51/51/51 43/43/43
f 47/47/47 49/49/49 58/58/58
f 59/59/59 47/47/47 58/58/58
f 59/59/59 58/58/58 60/60/60
f 61/61/61 59/59/59 60/60/60
f 61/61/61 60/60/60 62/62/62
f 63/63/63 61/61/61 62/62/62
f 29/29/29 61/61/61 63/63/63
f 64/64/64 29/29/29 63/63/63
f 32/32/32 29/29/29 64/64/64
f 65/65/65 32/32/32 64/64/64
f 62/62/62 60/60/60 66/66/66
f 60/60/60 67/67/67 66/66/66
f 60/60/60 58/58/58 67/67/67
f 30/30/30 59/59/59 61/61/61
f 29/29/29 30/30/30 61/61/61
f 58/58/58 68/68/68 67/67/67
f 69/69/69 32/32/32 65/65/65
f 70/70/70 69/69/69 65/65/65
f 71/71/71 69/69/69 70/70/70
f 72/72/72 71/71/71 70/70/70
f 71/71/71 46/46/46 69/69/69
f 46/46/46 45/45/45 69/69/69
f 69/69/69 45/45/45 32/32/32
f 73/73/73 46/46/46 71/71/71
f 73/73/73 74/74/74 46/46/46
f 74/74/74 44/44/44 46/46/46
f 74/74/74 75/75/75 44/44/44
f 75/75/75 36/36/36 44/44/44
f 75/75/75 76/76/76 36/36/36
f 76/76/76 37/37/37 36/36/36
f 77/77/77 37/37/37 76/76/76
f 77/77/77 78/78/78 37/37/37
f 78/78/78 38/38/38 37/37/37
f 78/78/78 79/79/79 38/38/38
f 79/79/79 42/42/42 38/38/38
f 79/79/79 80/80/80 42/42/42
f 80/80/80 43/43/43 42/42/42
f 80/80/80 57/57/57 43/43/43
f 81/81/81 77/77/77 76/76/76
f 82/82/82 73/73/73 71/71/71
f 82/82/82 71/71/71 72/72/72
f 83/83/83 82/82/82 72/72/72
f 86/86/86 85/85/85 84/84/84
f 87/87/87 86/86/86 84/84/84
f 87/87/87 84/84/84 88/88/88
f 89/89/89 87/87/87 88/88/88
f 89/89/89 88/88/88 90/90/90
f 91/91/91 89/89/89 90/90/90
f 91/91/91 90/90/90 92/92/92
f 93/93/93 91/91/91 92/92/92
f 93/93/93 92/92/92 94/94/94
f 95/95/95 93/93/93 94/94/94
f 95/95/95 94/94/94 96/96/96
f 97/97/97 95/95/95 96/96/96
f 100/100/100 99/99/99 98/98/98
f 101/101/101 100/100/100 98/98/98
f 102/102/102 100/100/100 101/101/101
f 103/103/103 102/102/102 101/101/101
f 98/98/98 99/99/99 104/104/104
f 99/99/99 105/105/105 104/104/104
f 104/104/104 105/105/105 106/106/106
f 105/105/105 107/107/107 106/106/106
f 106/106/106 107/107/107 108/108/108
f 107/107/107 109/109/109 108/108/108
f 108/108/108 109/109/109 110/110/110
f 109/109/109 111/111/111 110/110/110
f 110/110/110 111/111/111 112/112/112
f 111/111/111 113/113/113 112/112/112
f 114/114/114 102/102/102 103/103/103
f 115/115/115 114/114/114 103/103/103
f 116/116/116 114/114/114 115/115/115
f 117/117/117 116/116/116 115/115/115
f 118/118/118 116/116/116 117/117/117
f 119/119/119 118/118/118 117/117/117
f 120/120/120 118/118/118 119/119/119
f 121/121/121 120/120/120 119/119/119
f 122/122/122 120/120/120 121/121/121
f 123/123/123 122/122/122 121/121/121
f 124/124/124 122/122/122 123/123/123
f 125/125/125 124/124/124 123/123/123
f 126/126/126 124/124/124 125/125/125
f 127/127/127 126/126/126 125/125/125
f 128/128/128 126/126/126 127/127/127
f 129/129/129 128/128/128 127/127/127
f 130/130/130 128/128/128 129/129/129
f 131/131/131 130/130/130 129/129/129
f 132/132/132 130/130/130 131/131/131
f 133/133/133 132/132/132 131/131/131
f 134/134/134 132/132/132 133/133/133
f 135/135/135 134/134/134 133/133/133
f 136/136/136 134/134/134 135/135/135
f 137/137/137 136/136/136 135/135/135
f 138/138/138 136/136/136 137/137/137
f 139/139/139 138/138/138 137/137/137
f 140/140/140 138/138/138 139/139/139
f 141/141/141 140/140/140 139/139/139
f 142/142/142 140/140/140 141/141/141
f 143/143/143 142/142/142 141/141/141
f 144/144/144 142/142/142 143/143/143
f 145/145/145 144/144/144 143/143/143
f 146/146/146 144/144/144 145/145/145
f 147/147/147 146/146/146 145/145/145
f 148/148/148 146/146/146 147/147/147
f 149/149/149 148/148/148 147/147/147
f 113/113/113 148/148/148 149/149/149
f 112/112/112 113/113/113 149/149/149
f 152/152/152 151/151/151 150/150/150
f 153/153/153 152/152/152 150/150/150
f 150/150/150 151/151/151 154/154/154
f 151/151/151 155/155/155 154/154/154
f 156/156/156 152/152/152 153/153/153
f 157/157/157 156/156/156 153/153/153
f 158/158/158 156/156/156 157/157/157
f 159/159/159 158/158/158 157/157/157
f 154/154/154 155/155/155 160/160/160
f 155/155/155 161/161/161 160/160/160
f 160/160/160 161/161/161 162/162/162
f 161/161/161 163/163/163 162/162/162
f 164/164/164 158/158/158 159/159/159
f 165/165/165 164/164/164 159/159/159
f 168/168/168 167/167/167 166/166/166
f 169/169/169 168/168/168 166/166/166
f 166/166/166 167/167/167 170/170/170
f 167/167/167 171/171/171 170/170/170
f 170/170/170 171/171/171 172/172/172
f 171/171/171 173/173/173 172/172/172
f 172/172/172 173/173/173 174/174/174
f 173/173/173 175/175/175 174/174/174
f 174/174/174 175/175/175 176/176/176
f 175/175/175 177/177/177 176/176/176
f 176/176/176 177/177/177 178/178/178
f 177/177/177 179/179/179 178/178/178
f 182/182/182 181/181/181 180/180/180
f 183/183/183 182/182/182 180/180/180
f 184/184/184 182/182/182 183/183/183
f 185/185/185 184/184/184 183/183/183
f 186/186/186 184/184/184 185/185/185
f 187/187/187 186/186/186 185/185/185
f 188/188/188 186/186/186 187/187/187
f 189/189/189 188/188/188 187/187/187
f 190/190/190 188/188/188 189/189/189
f 191/191/191 190/190/190 189/189/189
f 192/192/192 190/190/190 191/191/191
f 193/193/193 192/192/192 191/191/191
f 194/194/194 192/192/192 193/193/193
f 195/195/195 194/194/194 193/193/193
f 198/198/198 197/197/197 196/196/196
f 199/199/199 198/198/198 196/196/196
f 196/196/196 197/197/197 200/200/200
f 197/197/197 201/201/201 200/200/200
f 200/200/200 201/201/201 202/202/202
f 201/201/201 203/203/203 202/202/202
f 204/204/204 198/198/198 199/199/199
f 205/205/205 204/204/204 199/199/199
f 206/206/206 204/204/204 205/205/205
f 207/207/207 206/206/206 205/205/205
f 208/208/208 206/206/206 207/207/207
f 209/209/209 208/208/208 207/207/207
f 210/210/210 208/208/208 209/209/209
f 211/211/211 210/210/210 209/209/209
f 40/40/40 47/47/47 59/59/59
f 30/30/30 40/40/40 59/59/59
f 49/49/49 55/55/55 68/68/68
f 58/58/58 49/49/49 68/68/68
f 214/214/214 213/213/213 212/212/212
f 215/215/215 214/214/214 212/212/212
f 212/212/212 213/213/213 216/216/216
f 213/213/213 217/217/217 216/216/216
f 216/216/216 217/217/217 218/218/218
f 217/217/217 219/219/219 218/218/218
f 218/218/218 219/219/219 220/220/220
f 219/219/219 221/221/221 220/220/220
f 220/220/220 221/221/221 222/222/222
f 221/221/221 223/223/223 222/222/222
f 222/222/222 223/223/223 224/224/224
f 223/223/223 225/225/225 224/224/224
f 226/226/226 214/214/214 215/215/215
f 227/227/227 226/226/226 215/215/215
f 228/228/228 54/54/54 52/52/52
f 56/56/56 228/228/228 52/52/52
