g carrotArm1_mesh
v 0.13 0 0
v -0.13 0 0
v 0.13 -0.1357143 0
v -0.13 -0.1357143 0
v 0.13 -0.2488095 0
v -0.13 -0.2488095 0
v 0.13 -0.3392857 0
v -0.13 -0.3392857 0
v 0.13 -0.4071429 0
v -0.13 -0.4071429 0
v 0.13 -0.452381 0
v -0.13 -0.452381 0
v 0.13 -0.475 0
v -0.13 -0.475 0
v 0.13 -0.475 0
v -0.13 -0.475 0
v 0.13 -0.4976191 0
v -0.13 -0.4976191 0
v 0.13 -0.5428572 0
v -0.13 -0.5428572 0
v 0.13 -0.6107143 0
v -0.13 -0.6107143 0
v 0.13 -0.7011905 0
v -0.13 -0.7011905 0
v 0.13 -0.8142858 0
v -0.13 -0.8142858 0
v 0.13 -0.95 0
v -0.13 -0.95 0
vt 0.8444824 0.8474121
vt 0.873291 0.8474121
vt 0.8444824 0.8361816
vt 0.873291 0.8361816
vt 0.8444824 0.8268229
vt 0.873291 0.8268229
vt 0.8444824 0.8193359
vt 0.873291 0.8193359
vt 0.8444824 0.8137207
vt 0.873291 0.8137207
vt 0.8444824 0.8099772
vt 0.873291 0.8099772
vt 0.8444824 0.8081055
vt 0.873291 0.8081055
vt 0.8444824 0.8081055
vt 0.873291 0.8081055
vt 0.8444824 0.8062337
vt 0.873291 0.8062337
vt 0.8444824 0.8024902
vt 0.873291 0.8024902
vt 0.8444824 0.796875
vt 0.873291 0.796875
vt 0.8444824 0.789388
vt 0.873291 0.789388
vt 0.8444824 0.7800293
vt 0.873291 0.7800293
vt 0.8444824 0.7687988
vt 0.873291 0.7687988
vn 0 0 -1
vn 0 0 -1
vn 0 0 -0.9999999
vn 0 0 -0.9999999
vn 0 0 -1
vn 0 0 -1
vn 0 0 -1
vn 0 0 -1
vn 0 0 -0.9999999
vn 0 0 -1
vn 0 0 -1
vn 0 0 -1
vn 0 0 -1
vn 0 0 -1
vn 0 0 -1
vn 0 0 -1
vn 0 0 -1
vn 0 0 -1
vn 0 0 -1
vn 0 0 -0.9999999
vn 0 0 -1
vn 0 0 -1
vn 0 0 -1
vn 0 0 -1
vn 0 0 -1
vn 0 0 -1
vn 0 0 -1
vn 0 0 -1
g carrotArm1_mesh_0
f 3/3/3 2/2/2 1/1/1
f 4/4/4 2/2/2 3/3/3
f 5/5/5 4/4/4 3/3/3
f 6/6/6 4/4/4 5/5/5
f 7/7/7 6/6/6 5/5/5
f 8/8/8 6/6/6 7/7/7
f 9/9/9 8/8/8 7/7/7
f 10/10/10 8/8/8 9/9/9
f 11/11/11 10/10/10 9/9/9
f 12/12/12 10/10/10 11/11/11
f 13/13/13 12/12/12 11/11/11
f 14/14/14 12/12/12 13/13/13
f 15/15/15 14/14/14 13/13/13
f 16/16/16 14/14/14 15/15/15
f 17/17/17 16/16/16 15/15/15
f 18/18/18 16/16/16 17/17/17
f 19/19/19 18/18/18 17/17/17
f 20/20/20 18/18/18 19/19/19
f 21/21/21 20/20/20 19/19/19
f 22/22/22 20/20/20 21/21/21
f 23/23/23 22/22/22 21/21/21
f 24/24/24 22/22/22 23/23/23
f 25/25/25 24/24/24 23/23/23
f 26/26/26 24/24/24 25/25/25
f 27/27/27 26/26/26 25/25/25
f 28/28/28 26/26/26 27/27/27
