g carrotLeaves1_mesh
v 0.5 0 0
v -0.5 0 0
v 0.5 -0.1052632 0
v -0.5 -0.1052632 0
v 0.5 -0.2105263 0
v -0.5 -0.2105263 0
v 0.5 -0.3157895 0
v -0.5 -0.3157895 0
v 0.5 -0.4210526 0
v -0.5 -0.4210526 0
v 0.5 -0.5263158 0
v -0.5 -0.5263158 0
v 0.5 -0.631579 0
v -0.5 -0.631579 0
v 0.5 -0.7368422 0
v -0.5 -0.7368422 0
v 0.5 -0.8421053 0
v -0.5 -0.8421053 0
v 0.5 -0.9473685 0
v -0.5 -0.9473685 0
v 0.5 -1.052632 0
v -0.5 -1.052632 0
v 0.5 -1.157895 0
v -0.5 -1.157895 0
v 0.5 -1.263158 0
v -0.5 -1.263158 0
v 0.5 -1.368421 0
v -0.5 -1.368421 0
v 0.5 -1.473684 0
v -0.5 -1.473684 0
v 0.5 -1.578947 0
v -0.5 -1.578947 0
v 0.5 -1.68421 0
v -0.5 -1.68421 0
v 0.5 -1.789473 0
v -0.5 -1.789473 0
v 0.5 -1.894737 0
v -0.5 -1.894737 0
v 0.5 -2 0
v -0.5 -2 0
vt 0.3916016 0.1821289
vt 0.4643555 0.1821289
vt 0.3916016 0.173237
vt 0.4643555 0.173237
vt 0.3916016 0.1643452
vt 0.4643555 0.1643452
vt 0.3916016 0.1554533
vt 0.4643555 0.1554533
vt 0.3916016 0.1465615
vt 0.4643555 0.1465615
vt 0.3916016 0.1376696
vt 0.4643555 0.1376696
vt 0.3916016 0.1287777
vt 0.4643555 0.1287777
vt 0.3916016 0.1198859
vt 0.4643555 0.1198859
vt 0.3916016 0.110994
vt 0.4643555 0.110994
vt 0.3916016 0.1021022
vt 0.4643555 0.1021022
vt 0.3916016 0.0932103
vt 0.4643555 0.0932103
vt 0.3916016 0.08431844
vt 0.4643555 0.08431844
vt 0.3916016 0.07542659
vt 0.4643555 0.07542659
vt 0.3916016 0.06653474
vt 0.4643555 0.06653474
vt 0.3916016 0.05764288
vt 0.4643555 0.05764288
vt 0.3916016 0.04875102
vt 0.4643555 0.04875102
vt 0.3916016 0.03985916
vt 0.4643555 0.03985916
vt 0.3916016 0.03096731
vt 0.4643555 0.03096731
vt 0.3916016 0.02207545
vt 0.4643555 0.02207545
vt 0.3916016 0.01318359
vt 0.4643555 0.01318359
vn 0 0 -1
vn 0 0 -1
vn 0 0 -1
vn 0 0 -1
vn 0 0 -1
vn 0 0 -1
vn 0 0 -1
vn 0 0 -1
vn 0 0 -1
vn 0 0 -1
vn 0 0 -1
vn 0 0 -1
vn 0 0 -1
vn 0 0 -1
vn 0 0 -1
vn 0 0 -1
vn 0 0 -1
vn 0 0 -1
vn 0 0 -1
vn 0 0 -1
vn 0 0 -1
vn 0 0 -1
vn 0 0 -1
vn 0 0 -1
vn 0 0 -1
vn 0 0 -1
vn 0 0 -1
vn 0 0 -1
vn 0 0 -1
vn 0 0 -1
vn 0 0 -1
vn 0 0 -1
vn 0 0 -1
vn 0 0 -1
vn 0 0 -1
vn 0 0 -1
vn 0 0 -1
vn 0 0 -1
vn 0 0 -1
vn 0 0 -1
g carrotLeaves1_mesh_0
f 3/3/3 2/2/2 1/1/1
f 4/4/4 2/2/2 3/3/3
f 5/5/5 4/4/4 3/3/3
f 6/6/6 4/4/4 5/5/5
f 7/7/7 6/6/6 5/5/5
f 8/8/8 6/6/6 7/7/7
f 9/9/9 8/8/8 7/7/7
f 10/10/10 8/8/8 9/9/9
f 11/11/11 10/10/10 9/9/9
f 12/12/12 10/10/10 11/11/11
f 13/13/13 12/12/12 11/11/11
f 14/14/14 12/12/12 13/13/13
f 15/15/15 14/14/14 13/13/13
f 16/16/16 14/14/14 15/15/15
f 17/17/17 16/16/16 15/15/15
f 18/18/18 16/16/16 17/17/17
f 19/19/19 18/18/18 17/17/17
f 20/20/20 18/18/18 19/19/19
f 21/21/21 20/20/20 19/19/19
f 22/22/22 20/20/20 21/21/21
f 23/23/23 22/22/22 21/21/21
f 24/24/24 22/22/22 23/23/23
f 25/25/25 24/24/24 23/23/23
f 26/26/26 24/24/24 25/25/25
f 27/27/27 26/26/26 25/25/25
f 28/28/28 26/26/26 27/27/27
f 29/29/29 28/28/28 27/27/27
f 30/30/30 28/28/28 29/29/29
f 31/31/31 30/30/30 29/29/29
f 32/32/32 30/30/30 31/31/31
f 33/33/33 32/32/32 31/31/31
f 34/34/34 32/32/32 33/33/33
f 35/35/35 34/34/34 33/33/33
f 36/36/36 34/34/34 35/35/35
f 37/37/37 36/36/36 35/35/35
f 38/38/38 36/36/36 37/37/37
f 39/39/39 38/38/38 37/37/37
f 40/40/40 38/38/38 39/39/39
