g cat1Tail_mesh
v 0.09 0 0
v -0.09 0 0
v 0.09033334 -0.09090909 0
v -0.09033334 -0.09090909 0
v 0.09066667 -0.1818182 0
v -0.09066667 -0.1818182 0
v 0.091 -0.2727273 0
v -0.091 -0.2727273 0
v 0.09133333 -0.3636364 0
v -0.09133333 -0.3636364 0
v 0.09166666 -0.4545455 0
v -0.09166666 -0.4545455 0
v 0.09199999 -0.5454546 0
v -0.09199999 -0.5454546 0
v 0.09233332 -0.6363636 0
v -0.09233332 -0.6363636 0
v 0.09266666 -0.7272727 0
v -0.09266666 -0.7272727 0
v 0.09299999 -0.8181819 0
v -0.09299999 -0.8181819 0
v 0.09333332 -0.909091 0
v -0.09333332 -0.909091 0
v 0.09366665 -1 0
v -0.09366665 -1 0
vt 0.9790039 0.9980469
vt 0.9936523 0.9980469
vt 0.9790039 0.9889915
vt 0.9936523 0.9889915
vt 0.9790039 0.9799361
vt 0.9936523 0.9799361
vt 0.9790039 0.9708807
vt 0.9936523 0.9708807
vt 0.9790039 0.9618253
vt 0.9936523 0.9618253
vt 0.9790039 0.9527699
vt 0.9936523 0.9527699
vt 0.9790039 0.9437145
vt 0.9936523 0.9437145
vt 0.9790039 0.9346591
vt 0.9936523 0.9346591
vt 0.9790039 0.9256037
vt 0.9936523 0.9256037
vt 0.9790039 0.9165483
vt 0.9936523 0.9165483
vt 0.9790039 0.9074929
vt 0.9936523 0.9074929
vt 0.9790039 0.8984375
vt 0.9936523 0.8984375
vn 0 0 -1
vn 0 0 -1
vn 0 0 -1
vn 0 0 -0.9999999
vn 0 0 -0.9999999
vn 0 0 -1
vn 0 0 -1
vn 0 0 -1
vn 0 0 -0.9999999
vn 0 0 -1
vn 0 0 -0.9999999
vn 0 0 -1
vn 0 0 -0.9999999
vn 0 0 -0.9999999
vn 0 0 -1
vn 0 0 -1
vn 0 0 -1
vn 0 0 -1
vn 0 0 -1
vn 0 0 -1
vn 0 0 -1
vn 0 0 -0.9999999
vn 0 0 -1
vn 0 0 -1
g cat1Tail_mesh_0
f 3/3/3 2/2/2 1/1/1
f 4/4/4 2/2/2 3/3/3
f 5/5/5 4/4/4 3/3/3
f 6/6/6 4/4/4 5/5/5
f 7/7/7 6/6/6 5/5/5
f 8/8/8 6/6/6 7/7/7
f 9/9/9 8/8/8 7/7/7
f 10/10/10 8/8/8 9/9/9
f 11/11/11 10/10/10 9/9/9
f 12/12/12 10/10/10 11/11/11
f 13/13/13 12/12/12 11/11/11
f 14/14/14 12/12/12 13/13/13
f 15/15/15 14/14/14 13/13/13
f 16/16/16 14/14/14 15/15/15
f 17/17/17 16/16/16 15/15/15
f 18/18/18 16/16/16 17/17/17
f 19/19/19 18/18/18 17/17/17
f 20/20/20 18/18/18 19/19/19
f 21/21/21 20/20/20 19/19/19
f 22/22/22 20/20/20 21/21/21
f 23/23/23 22/22/22 21/21/21
f 24/24/24 22/22/22 23/23/23
