g cellBed--matress_AO+LightBaked
v 0.8210653 1.010198 1.916327
v -0.9380893 1.010198 1.861879
v -0.9380893 1.0402 1.861879
v 0.8210653 1.0402 1.916327
v -1.014818 1.0402 1.827258
v -1.014818 1.010198 1.827258
v 0.8998413 1.010198 1.886559
v 0.8998413 1.0402 1.886559
v 0.934463 1.010198 1.809771
v 0.934463 1.0402 1.809771
v 1.044585 1.010198 -1.74854
v 1.044585 1.0402 -1.74854
v 0.9022391 0.9324163 1.808777
v 0.885981 0.9466861 1.871821
v 0.8998413 1.010198 1.886559
v 1.01242 0.9324163 -1.749534
v 1.00008 0.9466861 -1.813455
v 1.014818 1.010198 -1.827257
v 1.01242 1.117982 -1.749534
v 0.9022391 1.117982 1.808777
v 0.9346384 1.150205 -1.751932
v 0.8245158 1.150205 1.806379
v -0.9346389 1.150205 1.751932
v -0.8245162 1.150205 -1.806379
v -0.9022394 1.117982 -1.808777
v -0.8859812 1.103712 -1.871821
v -0.8221184 1.117982 -1.884102
v -1.012421 1.117982 1.749534
v -1.000081 1.103712 1.813456
v -0.937095 1.117982 1.829656
v 0.9370947 1.117982 -1.829655
v 1.00008 1.103712 -1.813455
v 1.01242 1.117982 -1.749534
v 0.822118 1.117982 1.884103
v 0.885981 1.103712 1.871821
v 0.9022391 1.117982 1.808777
v -1.044586 1.010198 1.74854
v -0.9344634 1.010198 -1.809771
v -0.9344634 1.0402 -1.809771
v -1.044586 1.0402 1.74854
v -1.012421 1.117982 1.749534
v -1.000081 1.103712 1.813456
v -1.014818 1.0402 1.827258
v -0.9022394 1.117982 -1.808777
v -0.8859812 1.103712 -1.871821
v -0.8998417 1.0402 -1.886559
v -0.8998417 1.010198 -1.886559
v -0.8859812 0.9466861 -1.871821
v -0.9022394 0.9324163 -1.808777
v -0.8210658 1.010198 -1.916326
v 0.9380888 1.010198 -1.861879
v 0.9380888 1.0402 -1.861879
v -0.8210658 1.0402 -1.916326
v -0.8998417 1.010198 -1.886559
v -0.8859812 0.9466861 -1.871821
v -0.8221184 0.9324163 -1.884102
v -0.8998417 1.0402 -1.886559
v -0.8859812 1.103712 -1.871821
v -0.8221184 1.117982 -1.884102
v 0.9370947 0.9324163 -1.829655
v 1.00008 0.9466861 -1.813455
v 1.014818 1.010198 -1.827257
v 0.9370947 1.117982 -1.829655
v -0.9346389 0.9001926 1.751932
v -1.012421 0.9324163 1.749534
v -1.000081 0.9466861 1.813456
v -0.937095 0.9324163 1.829656
v -0.937095 0.9324163 1.829656
v -1.000081 0.9466861 1.813456
v -1.014818 1.010198 1.827258
v 0.822118 0.9324163 1.884103
v 0.885981 0.9466861 1.871821
v 0.8998413 1.010198 1.886559
v -1.044586 1.010198 1.74854
v -1.014818 1.010198 1.827258
v -1.000081 0.9466861 1.813456
v -1.012421 0.9324163 1.749534
v -1.014818 1.0402 1.827258
v -1.000081 1.103712 1.813456
v -0.937095 1.117982 1.829656
v 0.822118 1.117982 1.884103
v -0.8245162 0.9001926 -1.806379
v -0.8221184 0.9324163 -1.884102
v -0.8859812 0.9466861 -1.871821
v -0.9022394 0.9324163 -1.808777
v 0.9346384 0.9001926 -1.751932
v 0.9370947 0.9324163 -1.829655
v 1.00008 0.9466861 -1.813455
v 1.01242 0.9324163 -1.749534
v 0.8245158 0.9001926 1.806379
v 0.9022391 0.9324163 1.808777
v 0.885981 0.9466861 1.871821
v 0.822118 0.9324163 1.884103
v -0.9346389 0.9001926 1.751932
v -0.937095 0.9324163 1.829656
v 0.8210653 1.0402 1.916327
v 0.822118 1.117982 1.884103
v 0.885981 1.103712 1.871821
v 0.8998413 1.0402 1.886559
v 0.8998413 1.0402 1.886559
v 0.885981 1.103712 1.871821
v 0.9022391 1.117982 1.808777
v 1.01242 1.117982 -1.749534
v 1.00008 1.103712 -1.813455
v 1.014818 1.0402 -1.827257
v 0.9380888 1.0402 -1.861879
v 1.014818 1.0402 -1.827257
v 1.00008 1.103712 -1.813455
v 0.9370947 1.117982 -1.829655
v -0.8245162 0.9001926 -1.806379
v -0.9022394 0.9324163 -1.808777
v -1.012421 0.9324163 1.749534
v -0.9346389 0.9001926 1.751932
v -1.044586 1.010198 1.74854
v -0.9344634 1.010198 -1.809771
v -1.014818 1.010198 1.827258
v -1.044586 1.010198 1.74854
v -1.044586 1.0402 1.74854
v -1.014818 1.0402 1.827258
v 1.044585 1.0402 -1.74854
v 1.014818 1.0402 -1.827257
v 1.014818 1.010198 -1.827257
v 1.044585 1.010198 -1.74854
v 0.9380888 1.010198 -1.861879
v 0.9380888 1.0402 -1.861879
vt 0.2843657 0.165235
vt 0.2843657 0.1685259
vt 0.2843657 0.1685259
vt 0.2843657 0.165235
vt 0.2843657 0.1691841
vt 0.2843657 0.1691841
vt 0.2843657 0.165235
vt 0.2843657 0.165235
vt 0.2843657 0.165235
vt 0.2843657 0.165235
vt 0.2843657 0.1705005
vt 0.2843657 0.1705005
vt 0.2843657 0.165235
vt 0.2843657 0.165235
vt 0.2843657 0.165235
vt 0.2843657 0.1705005
vt 0.2843657 0.1705005
vt 0.2843657 0.1705005
vt 0.2823912 0.1705005
vt 0.2823912 0.165235
vt 0.281733 0.1705005
vt 0.281733 0.165235
vt 0.2797585 0.165235
vt 0.2797585 0.1705005
vt 0.2784421 0.1705005
vt 0.2784421 0.1705005
vt 0.2797585 0.1705005
vt 0.2784421 0.165235
vt 0.2784421 0.165235
vt 0.2797585 0.165235
vt 0.281733 0.1705005
vt 0.2837075 0.1691841
vt 0.281733 0.1705005
vt 0.281733 0.165235
vt 0.2837075 0.165235
vt 0.281733 0.165235
vt 0.2837075 0.1705005
vt 0.2837075 0.165235
vt 0.2837075 0.165235
vt 0.2837075 0.1705005
vt 0.2837075 0.1705005
vt 0.2837075 0.1705005
vt 0.2837075 0.1705005
vt 0.2837075 0.165235
vt 0.2837075 0.165235
vt 0.2837075 0.165235
vt 0.2837075 0.165235
vt 0.2837075 0.165235
vt 0.2837075 0.165235
vt 0.2843657 0.1705005
vt 0.2843657 0.1685259
vt 0.2843657 0.1685259
vt 0.2843657 0.1705005
vt 0.2843657 0.1711586
vt 0.2843657 0.1711586
vt 0.2843657 0.1705005
vt 0.2843657 0.1711586
vt 0.2843657 0.1711586
vt 0.2843657 0.1705005
vt 0.2843657 0.1685259
vt 0.2843657 0.1685259
vt 0.2843657 0.1685259
vt 0.2843657 0.1685259
vt 0.281733 0.1705005
vt 0.281733 0.1705005
vt 0.2837075 0.1691841
vt 0.281733 0.1705005
vt 0.2843657 0.1685259
vt 0.2837075 0.1691841
vt 0.2843657 0.1685259
vt 0.2843657 0.165235
vt 0.2843657 0.165235
vt 0.2843657 0.165235
vt 0.2837075 0.1705005
vt 0.2837075 0.1705005
vt 0.2837075 0.1691841
vt 0.2837075 0.1705005
vt 0.2843657 0.1685259
vt 0.2843657 0.1685259
vt 0.2843657 0.1685259
vt 0.2843657 0.165235
vt 0.281733 0.165235
vt 0.281733 0.165235
vt 0.281733 0.165235
vt 0.281733 0.165235
vt 0.2837075 0.165235
vt 0.2837075 0.165235
vt 0.2837075 0.165235
vt 0.2837075 0.165235
vt 0.2837075 0.1705005
vt 0.2837075 0.1705005
vt 0.2837075 0.1705005
vt 0.2837075 0.1705005
vt 0.281733 0.1705005
vt 0.281733 0.1705005
vt 0.2843657 0.165235
vt 0.2843657 0.165235
vt 0.2837075 0.165235
vt 0.2843657 0.165235
vt 0.2843657 0.165235
vt 0.2837075 0.165235
vt 0.2837075 0.165235
vt 0.2837075 0.1705005
vt 0.2837075 0.1691841
vt 0.2843657 0.1705005
vt 0.2843657 0.1685259
vt 0.2843657 0.1685259
vt 0.2837075 0.1691841
vt 0.2843657 0.1685259
vt 0.281733 0.165235
vt 0.2823912 0.165235
vt 0.2823912 0.1705005
vt 0.281733 0.1705005
vt 0.2837075 0.1705005
vt 0.2837075 0.165235
vt 0.2843657 0.1691841
vt 0.2837075 0.1705005
vt 0.2837075 0.1705005
vt 0.2843657 0.1691841
vt 0.2843657 0.1705005
vt 0.2843657 0.1691841
vt 0.2843657 0.1691841
vt 0.2843657 0.1705005
vt 0.2843657 0.1685259
vt 0.2843657 0.1685259
vn 0.1487174 -0.1792235 0.972503
vn -0.2097297 -0.1792235 0.9611932
vn -0.2097297 0.1792235 0.9611932
vn 0.1487174 0.1792235 0.972503
vn -0.7207074 0.171597 0.671666
vn -0.7207074 -0.171597 0.671666
vn 0.6749482 -0.171597 0.7176346
vn 0.6749482 0.171597 0.7176346
vn 0.9647565 -0.1792235 0.1926755
vn 0.9647565 0.1792235 0.1926755
vn 0.972383 -0.1792235 -0.1494998
vn 0.972383 0.1792235 -0.1494998
vn 0.6902013 -0.6978278 0.1914641
vn 0.5605502 -0.5758033 0.5951756
vn 0.6749482 -0.171597 0.7176346
vn 0.6978278 -0.6978278 -0.1614705
vn 0.5986829 -0.5758033 -0.5568028
vn 0.7207074 -0.171597 -0.671666
vn 0.6978278 0.6978278 -0.1614705
vn 0.6902013 0.6978278 0.1914641
vn 0.1868501 0.9647565 -0.1852889
vn 0.171597 0.9647565 0.1994978
vn -0.1868501 0.9647565 0.1852889
vn -0.171597 0.9647565 -0.1994978
vn -0.6902013 0.6978278 -0.1914641
vn -0.5605502 0.5758033 -0.5951756
vn -0.1487174 0.6978278 -0.7006565
vn -0.6978278 0.6978278 0.1614705
vn -0.5986829 0.5758033 0.5568028
vn -0.1944766 0.6978278 0.6893585
vn 0.1944766 0.6978278 -0.6893585
vn 0.5986829 0.5758033 -0.5568028
vn 0.6978278 0.6978278 -0.1614705
vn 0.1487174 0.6978278 0.7006565
vn 0.5605502 0.5758033 0.5951756
vn 0.6902013 0.6978278 0.1914641
vn -0.972383 -0.1792235 0.1494998
vn -0.9647565 -0.1792235 -0.1926755
vn -0.9647565 0.1792235 -0.1926755
vn -0.972383 0.1792235 0.1494998
vn -0.6978278 0.6978278 0.1614705
vn -0.5986829 0.5758033 0.5568028
vn -0.7207074 0.171597 0.671666
vn -0.6902013 0.6978278 -0.1914641
vn -0.5605502 0.5758033 -0.5951756
vn -0.6749482 0.171597 -0.7176346
vn -0.6749482 -0.171597 -0.7176346
vn -0.5605502 -0.5758033 -0.5951756
vn -0.6902013 -0.6978278 -0.1914641
vn -0.1487174 -0.1792235 -0.972503
vn 0.2097297 -0.1792235 -0.9611932
vn 0.2097297 0.1792235 -0.9611932
vn -0.1487174 0.1792235 -0.972503
vn -0.6749482 -0.171597 -0.7176346
vn -0.5605502 -0.5758033 -0.5951756
vn -0.1487174 -0.6978278 -0.7006565
vn -0.6749482 0.171597 -0.7176346
vn -0.5605502 0.5758033 -0.5951756
vn -0.1487174 0.6978278 -0.7006565
vn 0.1944766 -0.6978278 -0.6893585
vn 0.5986829 -0.5758033 -0.5568028
vn 0.7207074 -0.171597 -0.671666
vn 0.1944766 0.6978278 -0.6893585
vn -0.1868501 -0.9647565 0.1852889
vn -0.6978278 -0.6978278 0.1614705
vn -0.5986829 -0.5758033 0.5568028
vn -0.1944766 -0.6978278 0.6893585
vn -0.1944766 -0.6978278 0.6893585
vn -0.5986829 -0.5758033 0.5568028
vn -0.7207074 -0.171597 0.671666
vn 0.1487174 -0.6978278 0.7006565
vn 0.5605502 -0.5758033 0.5951756
vn 0.6749482 -0.171597 0.7176346
vn -0.972383 -0.1792235 0.1494998
vn -0.7207074 -0.171597 0.671666
vn -0.5986829 -0.5758033 0.5568028
vn -0.6978278 -0.6978278 0.1614705
vn -0.7207074 0.171597 0.671666
vn -0.5986829 0.5758033 0.5568028
vn -0.1944766 0.6978278 0.6893585
vn 0.1487174 0.6978278 0.7006565
vn -0.171597 -0.9647565 -0.1994978
vn -0.1487174 -0.6978278 -0.7006565
vn -0.5605502 -0.5758033 -0.5951756
vn -0.6902013 -0.6978278 -0.1914641
vn 0.1868501 -0.9647565 -0.1852889
vn 0.1944766 -0.6978278 -0.6893585
vn 0.5986829 -0.5758033 -0.5568028
vn 0.6978278 -0.6978278 -0.1614705
vn 0.171597 -0.9647565 0.1994978
vn 0.6902013 -0.6978278 0.1914641
vn 0.5605502 -0.5758033 0.5951756
vn 0.1487174 -0.6978278 0.7006565
vn -0.1868501 -0.9647565 0.1852889
vn -0.1944766 -0.6978278 0.6893585
vn 0.1487174 0.1792235 0.972503
vn 0.1487174 0.6978278 0.7006565
vn 0.5605502 0.5758033 0.5951756
vn 0.6749482 0.171597 0.7176346
vn 0.6749482 0.171597 0.7176346
vn 0.5605502 0.5758033 0.5951756
vn 0.6902013 0.6978278 0.1914641
vn 0.6978278 0.6978278 -0.1614705
vn 0.5986829 0.5758033 -0.5568028
vn 0.7207074 0.171597 -0.671666
vn 0.2097297 0.1792235 -0.9611932
vn 0.7207074 0.171597 -0.671666
vn 0.5986829 0.5758033 -0.5568028
vn 0.1944766 0.6978278 -0.6893585
vn -0.171597 -0.9647565 -0.1994978
vn -0.6902013 -0.6978278 -0.1914641
vn -0.6978278 -0.6978278 0.1614705
vn -0.1868501 -0.9647565 0.1852889
vn -0.972383 -0.1792235 0.1494998
vn -0.9647565 -0.1792235 -0.1926755
vn -0.7207074 -0.171597 0.671666
vn -0.972383 -0.1792235 0.1494998
vn -0.972383 0.1792235 0.1494998
vn -0.7207074 0.171597 0.671666
vn 0.972383 0.1792235 -0.1494998
vn 0.7207074 0.171597 -0.671666
vn 0.7207074 -0.171597 -0.671666
vn 0.972383 -0.1792235 -0.1494998
vn 0.2097297 -0.1792235 -0.9611932
vn 0.2097297 0.1792235 -0.9611932
g cellBed--matress_AO+LightBaked_0
f 3/3/3 2/2/2 1/1/1
f 4/4/4 3/3/3 1/1/1
f 3/3/3 5/5/5 2/2/2
f 5/5/5 6/6/6 2/2/2
f 1/1/1 7/7/7 4/4/4
f 7/7/7 8/8/8 4/4/4
f 7/7/7 9/9/9 8/8/8
f 9/9/9 10/10/10 8/8/8
f 10/10/10 9/9/9 11/11/11
f 12/12/12 10/10/10 11/11/11
f 11/11/11 9/9/9 13/13/13
f 14/14/14 13/13/13 9/9/9
f 15/15/15 14/14/14 9/9/9
f 16/16/16 11/11/11 13/13/13
f 16/16/16 17/17/17 11/11/11
f 17/17/17 18/18/18 11/11/11
f 10/10/10 12/12/12 19/19/19
f 20/20/20 10/10/10 19/19/19
f 20/20/20 19/19/19 21/21/21
f 22/22/22 20/20/20 21/21/21
f 23/23/23 22/22/22 21/21/21
f 24/24/24 23/23/23 21/21/21
f 24/24/24 25/25/25 23/23/23
f 26/26/26 25/25/25 24/24/24
f 27/27/27 26/26/26 24/24/24
f 25/25/25 28/28/28 23/23/23
f 28/28/28 29/29/29 23/23/23
f 29/29/29 30/30/30 23/23/23
f 23/23/23 30/30/30 22/22/22
f 31/31/31 27/27/27 24/24/24
f 21/21/21 31/31/31 24/24/24
f 32/32/32 31/31/31 21/21/21
f 33/33/33 32/32/32 21/21/21
f 30/30/30 34/34/34 22/22/22
f 34/34/34 35/35/35 22/22/22
f 35/35/35 36/36/36 22/22/22
f 39/39/39 38/38/38 37/37/37
f 40/40/40 39/39/39 37/37/37
f 39/39/39 40/40/40 41/41/41
f 42/42/42 41/41/41 40/40/40
f 43/43/43 42/42/42 40/40/40
f 44/44/44 39/39/39 41/41/41
f 44/44/44 45/45/45 39/39/39
f 45/45/45 46/46/46 39/39/39
f 38/38/38 39/39/39 46/46/46
f 47/47/47 38/38/38 46/46/46
f 47/47/47 48/48/48 38/38/38
f 48/48/48 49/49/49 38/38/38
f 52/52/52 51/51/51 50/50/50
f 53/53/53 52/52/52 50/50/50
f 50/50/50 54/54/54 53/53/53
f 55/55/55 54/54/54 50/50/50
f 56/56/56 55/55/55 50/50/50
f 54/54/54 57/57/57 53/53/53
f 57/57/57 58/58/58 53/53/53
f 58/58/58 59/59/59 53/53/53
f 52/52/52 53/53/53 59/59/59
f 50/50/50 51/51/51 60/60/60
f 56/56/56 50/50/50 60/60/60
f 61/61/61 60/60/60 51/51/51
f 62/62/62 61/61/61 51/51/51
f 63/63/63 52/52/52 59/59/59
f 66/66/66 65/65/65 64/64/64
f 67/67/67 66/66/66 64/64/64
f 69/69/69 68/68/68 2/2/2
f 70/70/70 69/69/69 2/2/2
f 1/1/1 2/2/2 68/68/68
f 71/71/71 1/1/1 68/68/68
f 71/71/71 72/72/72 1/1/1
f 72/72/72 73/73/73 1/1/1
f 76/76/76 75/75/75 74/74/74
f 77/77/77 76/76/76 74/74/74
f 79/79/79 78/78/78 3/3/3
f 80/80/80 79/79/79 3/3/3
f 80/80/80 3/3/3 81/81/81
f 3/3/3 4/4/4 81/81/81
f 84/84/84 83/83/83 82/82/82
f 85/85/85 84/84/84 82/82/82
f 82/82/82 83/83/83 86/86/86
f 83/83/83 87/87/87 86/86/86
f 87/87/87 88/88/88 86/86/86
f 88/88/88 89/89/89 86/86/86
f 86/86/86 89/89/89 90/90/90
f 86/86/86 90/90/90 82/82/82
f 89/89/89 91/91/91 90/90/90
f 91/91/91 92/92/92 90/90/90
f 92/92/92 93/93/93 90/90/90
f 90/90/90 93/93/93 94/94/94
f 90/90/90 94/94/94 82/82/82
f 93/93/93 95/95/95 94/94/94
f 98/98/98 97/97/97 96/96/96
f 99/99/99 98/98/98 96/96/96
f 101/101/101 100/100/100 10/10/10
f 102/102/102 101/101/101 10/10/10
f 104/104/104 103/103/103 12/12/12
f 105/105/105 104/104/104 12/12/12
f 108/108/108 107/107/107 106/106/106
f 109/109/109 108/108/108 106/106/106
f 112/112/112 111/111/111 110/110/110
f 113/113/113 112/112/112 110/110/110
f 112/112/112 114/114/114 111/111/111
f 114/114/114 115/115/115 111/111/111
f 118/118/118 117/117/117 116/116/116
f 119/119/119 118/118/118 116/116/116
f 122/122/122 121/121/121 120/120/120
f 123/123/123 122/122/122 120/120/120
f 122/122/122 124/124/124 121/121/121
f 124/124/124 125/125/125 121/121/121
