g chickenLeg_mesh
v 0.16 0 0
v -0.16 0 0
v 0.1566667 -0.125 0
v -0.1566667 -0.125 0
v 0.154 -0.225 0
v -0.154 -0.225 0
v 0.152 -0.3 0
v -0.152 -0.3 0
v 0.1506667 -0.35 0
v -0.1506667 -0.35 0
v 0.15 -0.375 0
v -0.15 -0.375 0
v 0.15 -0.375 0
v -0.15 -0.375 0
v 0.1493333 -0.4 0
v -0.1493333 -0.4 0
v 0.148 -0.45 0
v -0.148 -0.45 0
v 0.146 -0.525 0
v -0.146 -0.525 0
v 0.1433333 -0.6250001 0
v -0.1433333 -0.6250001 0
v 0.14 -0.7500001 0
v -0.14 -0.7500001 0
vt 0.8194336 0.2484375
vt 0.8446289 0.2484375
vt 0.8194336 0.2371582
vt 0.8446289 0.2371582
vt 0.8194336 0.2281348
vt 0.8446289 0.2281348
vt 0.8194336 0.2213672
vt 0.8446289 0.2213672
vt 0.8194336 0.2168555
vt 0.8446289 0.2168555
vt 0.8194336 0.2145996
vt 0.8446289 0.2145996
vt 0.8194336 0.2145996
vt 0.8446289 0.2145996
vt 0.8194336 0.2123438
vt 0.8446289 0.2123438
vt 0.8194336 0.207832
vt 0.8446289 0.207832
vt 0.8194336 0.2010645
vt 0.8446289 0.2010645
vt 0.8194336 0.192041
vt 0.8446289 0.192041
vt 0.8194336 0.1807617
vt 0.8446289 0.1807617
vn 0 0 -1
vn 0 0 -1
vn 0 0 -1
vn 0 0 -0.9999999
vn 0 0 -1
vn 0 0 -1
vn 0 0 -1
vn 0 0 -1
vn 0 0 -0.9999999
vn 0 0 -1
vn 0 0 -1
vn 0 0 -1
vn 0 0 -1
vn 0 0 -0.9999999
vn 0 0 -1
vn 0 0 -1
vn 0 0 -0.9999999
vn 0 0 -1
vn 0 0 -1
vn 0 0 -1
vn 0 0 -1
vn 0 0 -1
vn 0 0 -1
vn 0 0 -0.9999999
g chickenLeg_mesh_0
f 3/3/3 2/2/2 1/1/1
f 4/4/4 2/2/2 3/3/3
f 5/5/5 4/4/4 3/3/3
f 6/6/6 4/4/4 5/5/5
f 7/7/7 6/6/6 5/5/5
f 8/8/8 6/6/6 7/7/7
f 9/9/9 8/8/8 7/7/7
f 10/10/10 8/8/8 9/9/9
f 11/11/11 10/10/10 9/9/9
f 12/12/12 10/10/10 11/11/11
f 13/13/13 12/12/12 11/11/11
f 14/14/14 12/12/12 13/13/13
f 15/15/15 14/14/14 13/13/13
f 16/16/16 14/14/14 15/15/15
f 17/17/17 16/16/16 15/15/15
f 18/18/18 16/16/16 17/17/17
f 19/19/19 18/18/18 17/17/17
f 20/20/20 18/18/18 19/19/19
f 21/21/21 20/20/20 19/19/19
f 22/22/22 20/20/20 21/21/21
f 23/23/23 22/22/22 21/21/21
f 24/24/24 22/22/22 23/23/23
