g Cookware_tray(Clone)
v -0.6000131 -1.293421E-05 0.8500001
v -0.6000131 -1.293421E-05 -0.85
v -0.6000131 0.1750065 -0.85
v -0.6000131 0.1750065 0.8500001
v -0.5434372 0.1750065 0.7934242
v -0.5434372 0.1750065 -0.7934241
v -0.1999871 -1.293421E-05 0.8500001
v -0.6000131 0.1750065 0.8500001
v -0.1999871 0.1750065 0.8500001
v -0.1999871 -1.293421E-05 -0.85
v 0.2000129 -1.293421E-05 0.8500001
v -0.1999871 -1.293421E-05 -0.85
v 0.2000129 -1.293421E-05 -0.85
v 0.2000129 0.1750065 0.8500001
v 0.600013 -1.293421E-05 0.8500001
v 0.600013 0.1750065 0.8500001
v 0.2000129 0.1750065 -0.85
v 0.600013 0.1750065 -0.85
v 0.600013 -1.293421E-05 -0.85
v 0.600013 -1.293421E-05 0.8500001
v 0.600013 0.1750065 0.8500001
v 0.600013 0.1750065 -0.85
v 0.2000129 -1.293421E-05 0.8500001
v 0.5434371 0.1750065 -0.7934241
v 0.5434371 0.1750065 0.7934242
v -0.1999871 0.1750065 -0.85
v -0.6000131 -1.293421E-05 -0.85
v -0.6000131 0.1750065 -0.85
v -0.1999871 0.2625034 -0.85
v -0.1999871 0.3500001 -0.85
v 0.199987 0.2625034 -0.85
v 0.199987 0.3500001 -0.85
v -0.5434372 0.04618686 0.7934242
v -0.5434372 0.1750065 0.7934242
v -0.5434372 0.1750065 -0.7934241
v -0.5434372 0.04618686 -0.7934241
v -0.1999871 0.04618686 0.7934242
v -0.5434372 0.1750065 0.7934242
v -0.1999871 0.1750065 0.7934242
v -0.1999871 0.04618686 -0.7934241
v 0.2000129 0.04618686 0.7934242
v -0.1999871 0.04618686 -0.7934241
v 0.2000129 0.04618686 -0.7934241
v 0.2000129 0.1750065 0.7934242
v 0.5434371 0.04618686 0.7934242
v 0.5434371 0.1750065 0.7934242
v 0.2000129 0.1750065 -0.7934241
v 0.5434371 0.1750065 -0.7934241
v 0.5434371 0.04618686 -0.7934241
v 0.5434371 0.04618686 0.7934242
v 0.5434371 0.1750065 0.7934242
v 0.5434371 0.1750065 -0.7934241
v 0.2000129 0.04618686 0.7934242
v -0.1999871 0.1750065 -0.7934241
v -0.5434372 0.04618686 -0.7934241
v -0.5434372 0.1750065 -0.7934241
v -0.6000131 0.1750065 -0.7934241
v -0.1999871 0.2625034 -0.7934241
v -0.1999871 0.3500001 -0.7934241
v 0.199987 0.2625034 -0.7934241
v 0.600013 0.1750065 -0.7934241
v 0.199987 0.3500001 -0.7934241
v 0.600013 0.1750065 -0.85
v 0.600013 0.1750065 -0.7934241
v 0.199987 0.3500001 -0.7934241
v 0.199987 0.3500001 -0.85
v -0.1999871 0.3500001 -0.85
v -0.1999871 0.3500001 -0.7934241
v -0.6000131 0.1750065 -0.7934241
v -0.6000131 0.1750065 -0.85
v -0.1999871 0.1750065 0.8500001
v -0.1999871 0.1750065 0.7934242
v 0.2000129 0.1750065 0.7934242
v 0.2000129 0.1750065 0.8500001
v 0.199987 0.2625034 0.7934242
v 0.199987 0.2625034 0.8500001
v -0.200013 0.2625034 0.8500001
v -0.200013 0.2625034 0.7934242
v 0.2000129 0.1750065 -0.85
v 0.2000129 0.1750065 -0.7934241
v -0.1999871 0.1750065 -0.7934241
v -0.1999871 0.1750065 -0.85
v -0.1999871 0.2625034 -0.7934241
v -0.1999871 0.2625034 -0.85
v 0.199987 0.2625034 -0.85
v 0.199987 0.2625034 -0.7934241
v -0.200013 0.3500001 0.8500001
v 0.199987 0.3500001 0.8500001
v 0.199987 0.2625034 0.8500001
v -0.200013 0.2625034 0.8500001
v -0.6000131 0.1750065 0.7934242
v -0.200013 0.2625034 0.7934242
v -0.200013 0.3500001 0.7934242
v 0.199987 0.3500001 0.7934242
v 0.199987 0.2625034 0.7934242
v 0.600013 0.1750065 0.7934242
v -0.6000131 0.1750065 0.8500001
v -0.6000131 0.1750065 0.7934242
v -0.200013 0.3500001 0.7934242
v -0.200013 0.3500001 0.8500001
v 0.199987 0.3500001 0.8500001
v 0.199987 0.3500001 0.7934242
v 0.600013 0.1750065 0.7934242
v 0.600013 0.1750065 0.8500001
vt 0.776091 0.542315
vt 0.776091 0.542315
vt 0.776091 0.5476281
vt 0.776091 0.5476281
vt 0.7776091 0.5476281
vt 0.7776091 0.5476281
vt 0.7882353 0.542315
vt 0.776091 0.5476281
vt 0.7882353 0.5476281
vt 0.7882353 0.542315
vt 0.7996205 0.542315
vt 0.7882353 0.542315
vt 0.7996205 0.542315
vt 0.7996205 0.5476281
vt 0.8117647 0.542315
vt 0.8117647 0.5476281
vt 0.7996205 0.5476281
vt 0.8117647 0.5476281
vt 0.8117647 0.542315
vt 0.8117647 0.542315
vt 0.8117647 0.5476281
vt 0.8117647 0.5476281
vt 0.7996205 0.542315
vt 0.8102466 0.5476281
vt 0.8102466 0.5476281
vt 0.7882353 0.5476281
vt 0.776091 0.542315
vt 0.776091 0.5476281
vt 0.7882353 0.5499051
vt 0.7882353 0.5529412
vt 0.7996205 0.5499051
vt 0.7996205 0.5529412
vt 0.7776091 0.543833
vt 0.7776091 0.5476281
vt 0.7776091 0.5476281
vt 0.7776091 0.543833
vt 0.7882353 0.543833
vt 0.7776091 0.5476281
vt 0.7882353 0.5476281
vt 0.7882353 0.543833
vt 0.7996205 0.543833
vt 0.7882353 0.543833
vt 0.7996205 0.543833
vt 0.7996205 0.5476281
vt 0.8102466 0.543833
vt 0.8102466 0.5476281
vt 0.7996205 0.5476281
vt 0.8102466 0.5476281
vt 0.8102466 0.543833
vt 0.8102466 0.543833
vt 0.8102466 0.5476281
vt 0.8102466 0.5476281
vt 0.7996205 0.543833
vt 0.7882353 0.5476281
vt 0.7776091 0.543833
vt 0.7776091 0.5476281
vt 0.776091 0.5476281
vt 0.7882353 0.5499051
vt 0.7882353 0.5529412
vt 0.7996205 0.5499051
vt 0.8117647 0.5476281
vt 0.7996205 0.5529412
vt 0.8117647 0.5476281
vt 0.8117647 0.5476281
vt 0.7996205 0.5529412
vt 0.7996205 0.5529412
vt 0.7882353 0.5529412
vt 0.7882353 0.5529412
vt 0.776091 0.5476281
vt 0.776091 0.5476281
vt 0.7882353 0.5476281
vt 0.7882353 0.5476281
vt 0.7996205 0.5476281
vt 0.7996205 0.5476281
vt 0.7996205 0.5499051
vt 0.7996205 0.5499051
vt 0.7882353 0.5499051
vt 0.7882353 0.5499051
vt 0.7996205 0.5476281
vt 0.7996205 0.5476281
vt 0.7882353 0.5476281
vt 0.7882353 0.5476281
vt 0.7882353 0.5499051
vt 0.7882353 0.5499051
vt 0.7996205 0.5499051
vt 0.7996205 0.5499051
vt 0.7882353 0.5529412
vt 0.7996205 0.5529412
vt 0.7996205 0.5499051
vt 0.7882353 0.5499051
vt 0.776091 0.5476281
vt 0.7882353 0.5499051
vt 0.7882353 0.5529412
vt 0.7996205 0.5529412
vt 0.7996205 0.5499051
vt 0.8117647 0.5476281
vt 0.776091 0.5476281
vt 0.776091 0.5476281
vt 0.7882353 0.5529412
vt 0.7882353 0.5529412
vt 0.7996205 0.5529412
vt 0.7996205 0.5529412
vt 0.8117647 0.5476281
vt 0.8117647 0.5476281
vn -0.5764661 -0.5764662 0.5791144
vn -0.5764661 -0.5764662 -0.5791144
vn -0.8901892 0.4509768 -0.06467688
vn -0.8901892 0.4509768 -0.06467688
vn -0.003921509 0.9999923 -0.000345267
vn -0.003921509 0.9999923 -0.000345267
vn -0.003921509 -0.7097985 0.7043939
vn -0.003921509 0.003921509 0.9999846
vn -0.003921509 0.003921509 0.9999846
vn -0.003921509 -0.7097985 -0.7043939
vn -0.003921509 -0.7097985 0.7043939
vn -0.003921509 -0.7097985 -0.7043939
vn -0.003921509 -0.7097985 -0.7043939
vn -0.003921509 0.003921509 0.9999846
vn 0.5764662 -0.5764662 0.5791144
vn -0.003921509 0.003921509 0.9999846
vn -0.003921509 0.003921509 -0.9999846
vn -0.003921509 0.003921509 -0.9999846
vn 0.5764662 -0.5764662 -0.5791144
vn 0.5764662 -0.5764662 0.5791144
vn 0.8901893 0.4509768 -0.0646755
vn 0.8901893 0.4509768 -0.0646755
vn -0.003921509 -0.7097985 0.7043939
vn -0.003921509 0.9999923 -0.000345267
vn -0.003921509 0.9999923 -0.000345267
vn -0.003921509 0.003921509 -0.9999846
vn -0.5764661 -0.5764662 -0.5791144
vn -0.003921509 0.003921509 -0.9999846
vn -0.003921509 0.003921509 -0.9999846
vn -0.003921509 0.003921509 -0.9999846
vn -0.003921509 0.003921509 -0.9999846
vn -0.003921509 0.003921509 -0.9999846
vn 0.5764662 0.5764661 -0.5791144
vn 0.9999924 0.003921509 0
vn 0.9999924 0.003921509 0
vn 0.5764662 0.5764661 0.5791144
vn -0.003921509 0.7097985 -0.7043939
vn -0.003921509 0.003921509 -0.9999846
vn -0.003921509 0.003921509 -0.9999846
vn -0.003921509 0.7097985 0.7043939
vn -0.003921509 0.7097985 -0.7043939
vn -0.003921509 0.7097985 0.7043939
vn -0.003921509 0.7097985 0.7043939
vn -0.003921509 0.003921509 -0.9999846
vn -0.5764661 0.5764661 -0.5791146
vn -0.003921509 0.003921509 -0.9999846
vn -0.003921509 0.003921509 0.9999846
vn -0.003921509 0.003921509 0.9999846
vn -0.5764661 0.5764661 0.5791146
vn -0.5764661 0.5764661 -0.5791146
vn -0.9999923 0.003921509 -0.0003449296
vn -0.9999923 0.003921509 -0.0003449296
vn -0.003921509 0.7097985 -0.7043939
vn -0.003921509 0.003921509 0.9999846
vn 0.5764662 0.5764661 0.5791144
vn -0.003921509 0.003921509 0.9999846
vn -0.003921509 0.003921509 0.9999846
vn -0.003921509 0.003921509 0.9999846
vn -0.003921509 0.003921509 0.9999846
vn -0.003921509 0.003921509 0.9999846
vn -0.003921509 0.003921509 0.9999846
vn -0.003921509 0.003921509 0.9999846
vn 0.4039185 0.9137185 -0.04436647
vn 0.4039185 0.9137185 -0.04436647
vn 0.2078416 0.9764631 -0.05763477
vn 0.2078416 0.9764631 -0.05763477
vn -0.2078415 0.9764631 -0.05763477
vn -0.2078415 0.9764631 -0.05763477
vn -0.4039184 0.9137185 -0.04436782
vn -0.4039184 0.9137185 -0.04436782
vn 0.7071068 0.7071068 0
vn 0.7071068 0.7071068 0
vn -0.7071068 0.7071068 0
vn -0.7071068 0.7071068 0
vn -0.7071068 -0.7071068 0
vn -0.7071068 -0.7071068 0
vn 0.7071068 -0.7071068 0
vn 0.7071068 -0.7071068 0
vn -0.7071068 0.7071068 0
vn -0.7071068 0.7071068 0
vn 0.7071068 0.7071068 0
vn 0.7071068 0.7071068 0
vn 0.7071068 -0.7071068 0
vn 0.7071068 -0.7071068 0
vn -0.7071068 -0.7071068 0
vn -0.7071068 -0.7071068 0
vn -0.003921509 0.003921509 0.9999846
vn -0.003921509 0.003921509 0.9999846
vn -0.003921509 0.003921509 0.9999846
vn -0.003921509 0.003921509 0.9999846
vn -0.003921509 0.003921509 -0.9999846
vn -0.003921509 0.003921509 -0.9999846
vn -0.003921509 0.003921509 -0.9999846
vn -0.003921509 0.003921509 -0.9999846
vn -0.003921509 0.003921509 -0.9999846
vn -0.003921509 0.003921509 -0.9999846
vn -0.4039184 0.9137185 -0.04436782
vn -0.4039184 0.9137185 -0.04436782
vn -0.2078415 0.9764631 -0.05763477
vn -0.2078415 0.9764631 -0.05763477
vn 0.2078416 0.9764631 -0.05763477
vn 0.2078416 0.9764631 -0.05763477
vn 0.4039185 0.9137185 -0.04436647
vn 0.4039185 0.9137185 -0.04436647
g Cookware_tray(Clone)_0
f 3/3/3 2/2/2 1/1/1
f 4/4/4 3/3/3 1/1/1
f 4/4/4 5/5/5 3/3/3
f 5/5/5 6/6/6 3/3/3
f 7/7/7 1/1/1 2/2/2
f 8/8/8 1/1/1 7/7/7
f 9/9/9 8/8/8 7/7/7
f 10/10/10 7/7/7 2/2/2
f 9/9/9 7/7/7 11/11/11
f 11/11/11 7/7/7 12/12/12
f 13/13/13 11/11/11 12/12/12
f 14/14/14 9/9/9 11/11/11
f 14/14/14 11/11/11 15/15/15
f 16/16/16 14/14/14 15/15/15
f 17/17/17 13/13/13 12/12/12
f 17/17/17 18/18/18 13/13/13
f 18/18/18 19/19/19 13/13/13
f 19/19/19 20/20/20 13/13/13
f 21/21/21 20/20/20 19/19/19
f 22/22/22 21/21/21 19/19/19
f 20/20/20 23/23/23 13/13/13
f 22/22/22 24/24/24 21/21/21
f 24/24/24 25/25/25 21/21/21
f 26/26/26 17/17/17 12/12/12
f 26/26/26 12/12/12 27/27/27
f 28/28/28 26/26/26 27/27/27
f 29/29/29 26/26/26 28/28/28
f 30/30/30 29/29/29 28/28/28
f 31/31/31 18/18/18 17/17/17
f 32/32/32 18/18/18 31/31/31
f 29/29/29 30/30/30 32/32/32
f 31/31/31 29/29/29 32/32/32
f 35/35/35 34/34/34 33/33/33
f 36/36/36 35/35/35 33/33/33
f 33/33/33 37/37/37 36/36/36
f 33/33/33 38/38/38 37/37/37
f 38/38/38 39/39/39 37/37/37
f 37/37/37 40/40/40 36/36/36
f 37/37/37 39/39/39 41/41/41
f 37/37/37 41/41/41 42/42/42
f 41/41/41 43/43/43 42/42/42
f 39/39/39 44/44/44 41/41/41
f 41/41/41 44/44/44 45/45/45
f 44/44/44 46/46/46 45/45/45
f 43/43/43 47/47/47 42/42/42
f 48/48/48 47/47/47 43/43/43
f 49/49/49 48/48/48 43/43/43
f 50/50/50 49/49/49 43/43/43
f 50/50/50 51/51/51 49/49/49
f 51/51/51 52/52/52 49/49/49
f 53/53/53 50/50/50 43/43/43
f 47/47/47 54/54/54 42/42/42
f 42/42/42 54/54/54 55/55/55
f 54/54/54 56/56/56 55/55/55
f 58/58/58 57/57/57 54/54/54
f 59/59/59 57/57/57 58/58/58
f 59/59/59 58/58/58 60/60/60
f 60/60/60 47/47/47 61/61/61
f 62/62/62 60/60/60 61/61/61
f 62/62/62 59/59/59 60/60/60
f 65/65/65 64/64/64 63/63/63
f 66/66/66 65/65/65 63/63/63
f 66/66/66 67/67/67 65/65/65
f 67/67/67 68/68/68 65/65/65
f 68/68/68 67/67/67 69/69/69
f 67/67/67 70/70/70 69/69/69
f 73/73/73 72/72/72 71/71/71
f 74/74/74 73/73/73 71/71/71
f 75/75/75 73/73/73 74/74/74
f 76/76/76 75/75/75 74/74/74
f 76/76/76 77/77/77 75/75/75
f 77/77/77 71/71/71 72/72/72
f 77/77/77 78/78/78 75/75/75
f 78/78/78 77/77/77 72/72/72
f 81/81/81 80/80/80 79/79/79
f 82/82/82 81/81/81 79/79/79
f 83/83/83 81/81/81 82/82/82
f 84/84/84 83/83/83 82/82/82
f 85/85/85 79/79/79 80/80/80
f 83/83/83 84/84/84 85/85/85
f 86/86/86 85/85/85 80/80/80
f 86/86/86 83/83/83 85/85/85
f 89/89/89 88/88/88 87/87/87
f 90/90/90 89/89/89 87/87/87
f 87/87/87 8/8/8 90/90/90
f 88/88/88 89/89/89 16/16/16
f 89/89/89 14/14/14 16/16/16
f 90/90/90 8/8/8 9/9/9
f 93/93/93 92/92/92 91/91/91
f 92/92/92 39/39/39 91/91/91
f 92/92/92 93/93/93 94/94/94
f 95/95/95 92/92/92 94/94/94
f 94/94/94 96/96/96 95/95/95
f 95/95/95 96/96/96 44/44/44
f 99/99/99 98/98/98 97/97/97
f 100/100/100 99/99/99 97/97/97
f 99/99/99 100/100/100 101/101/101
f 102/102/102 99/99/99 101/101/101
f 102/102/102 101/101/101 103/103/103
f 101/101/101 104/104/104 103/103/103
