g cookware_bottleRed(Clone)
v -9.089708E-07 0.01834857 9.089708E-07
v 0.09281062 9.089708E-07 -0.09281062
v -9.089708E-07 9.089708E-07 -0.1312515
v 0.1312515 9.089708E-07 9.089708E-07
v -0.09281243 9.089708E-07 -0.09281062
v -0.1312533 9.089708E-07 9.089708E-07
v -9.089708E-07 9.089708E-07 -0.1312515
v 0.09281062 9.089708E-07 -0.09281062
v 0.09687065 0.01847787 -0.09687065
v -9.089708E-07 0.01847787 -0.1369924
v 0.1369924 0.01847787 9.089708E-07
v 0.1312515 9.089708E-07 9.089708E-07
v -0.09281243 9.089708E-07 -0.09281062
v -0.09687245 0.01847787 -0.09687065
v -0.1312533 9.089708E-07 9.089708E-07
v -0.1369942 0.01847787 9.089708E-07
v -9.089708E-07 0.06162527 -0.1390224
v -0.09830768 0.06162527 -0.09830587
v -0.1390243 0.06162527 9.089708E-07
v -0.1017471 0.1652333 -0.1017452
v -0.1438988 0.1652333 9.089708E-07
v -0.1060657 0.2949212 -0.1060639
v -0.1500018 0.2949212 9.089708E-07
v -0.09334256 0.3641097 -0.09334075
v -9.089708E-07 0.3641097 -0.1320014
v -9.089708E-07 0.433311 -0.07902724
v 0.05588255 0.433311 -0.05588255
v 0.09334075 0.3641097 -0.09334075
v 0.07902724 0.433311 9.089708E-07
v 0.1320014 0.3641097 9.089708E-07
v -0.05588436 0.433311 -0.05588255
v -0.1320032 0.3641097 9.089708E-07
v -0.07902905 0.433311 9.089708E-07
v -9.089708E-07 0.2949212 -0.15
v 0.1060639 0.2949212 -0.1060639
v 0.15 0.2949212 9.089708E-07
v 0.1017452 0.1652333 -0.1017452
v 0.143897 0.1652333 9.089708E-07
v 0.038621 0.4910434 -0.038621
v 0.05461541 0.4910434 9.089708E-07
v -0.03862281 0.4910434 -0.038621
v -9.089708E-07 0.4910434 -0.05461541
v -0.05461721 0.4910434 9.089708E-07
v -9.089708E-07 0.6090555 -0.04242242
v 0.02999669 0.6090555 -0.02999669
v -9.089708E-07 0.6167618 -0.05395598
v -0.03815733 0.6167618 -0.03815552
v -0.03637299 0.6472378 -0.03637118
v -0.05143644 0.6472378 9.089708E-07
v -0.05395779 0.6167618 9.089708E-07
v -9.089708E-07 0.6472378 -0.05144756
v 0.03815552 0.6167618 -0.03815552
v 0.03637118 0.6472378 -0.03637118
v 0.05395598 0.6167618 9.089708E-07
v 0.05144756 0.6472378 9.089708E-07
v -0.02393433 0.6472378 -0.02393252
v -9.089708E-07 0.6472378 -0.03384984
v 0.02393252 0.6472378 -0.02393252
v 0.03384984 0.6472378 9.089708E-07
v -0.03385164 0.6472378 9.089708E-07
v -0.02393433 0.6472378 0.02393433
v -0.03637299 0.6472378 0.03637299
v -9.089708E-07 0.6472378 0.03385164
v -9.089708E-07 0.6472378 0.05143644
v -0.03815733 0.6167618 0.03815733
v -9.089708E-07 0.6167618 0.05395779
v 0.03637118 0.6472378 0.03637299
v 0.03815552 0.6167618 0.03815733
v 0.05144756 0.6472378 9.089708E-07
v 0.05395598 0.6167618 9.089708E-07
v -0.05395779 0.6167618 9.089708E-07
v -0.05143644 0.6472378 9.089708E-07
v 0.02393252 0.6472378 0.02393433
v -0.04242423 0.6090555 9.089708E-07
v -0.0299985 0.6090555 0.0299985
v -9.089708E-07 0.6090555 0.04242423
v 0.02999669 0.6090555 0.0299985
v 0.04242242 0.6090555 9.089708E-07
v 0.038621 0.4910434 0.03862281
v 0.05461541 0.4910434 9.089708E-07
v 0.05588255 0.433311 0.05588436
v -9.089708E-07 0.433311 0.07902905
v 0.09334075 0.3641097 0.09334256
v 0.1320014 0.3641097 9.089708E-07
v 0.07902724 0.433311 9.089708E-07
v -9.089708E-07 0.3641097 0.1320032
v -0.05588436 0.433311 0.05588436
v -0.09334256 0.3641097 0.09334256
v -0.07902905 0.433311 9.089708E-07
v -0.1320032 0.3641097 9.089708E-07
v -0.1060657 0.2949212 0.1060657
v -0.1500018 0.2949212 9.089708E-07
v -0.1017471 0.1652333 0.1017471
v -0.1438988 0.1652333 9.089708E-07
v -9.089708E-07 0.1652333 0.1438988
v -9.089708E-07 0.2949212 0.1500018
v 0.1017452 0.1652333 0.1017471
v 0.1060639 0.2949212 0.1060657
v 0.143897 0.1652333 9.089708E-07
v 0.15 0.2949212 9.089708E-07
v -0.03862281 0.4910434 0.03862281
v -0.05461721 0.4910434 9.089708E-07
v -9.089708E-07 0.4910434 0.05461721
v 0.1390224 0.06162527 9.089708E-07
v 0.09830587 0.06162527 0.09830768
v -9.089708E-07 0.06162527 0.1390243
v -0.09830768 0.06162527 0.09830768
v -0.1390243 0.06162527 9.089708E-07
v -0.09687245 0.01847787 0.09687245
v -0.1369942 0.01847787 9.089708E-07
v -0.09281243 9.089708E-07 0.09281243
v -9.089708E-07 9.089708E-07 0.1312533
v -9.089708E-07 0.01847787 0.1369942
v 0.09281062 9.089708E-07 0.09281243
v 0.09687065 0.01847787 0.09687245
v 0.1312515 9.089708E-07 9.089708E-07
v 0.1369924 0.01847787 9.089708E-07
v -0.1312533 9.089708E-07 9.089708E-07
v -9.089708E-07 0.01834857 9.089708E-07
v 0.09281062 9.089708E-07 0.09281243
v 0.1312515 9.089708E-07 9.089708E-07
v -9.089708E-07 9.089708E-07 0.1312533
v -0.09281243 9.089708E-07 0.09281243
v -0.1312533 9.089708E-07 9.089708E-07
v -0.1017471 0.1652333 -0.1017452
v -9.089708E-07 0.1652333 -0.143897
v -9.089708E-07 0.2949212 -0.15
v -0.1060657 0.2949212 -0.1060639
v 0.1060639 0.2949212 -0.1060639
v 0.1017452 0.1652333 -0.1017452
v -9.089708E-07 0.06162527 -0.1390224
v 0.09830587 0.06162527 -0.09830587
v -0.09830768 0.06162527 -0.09830587
v -0.0299985 0.6090555 -0.02999669
v -0.04242423 0.6090555 9.089708E-07
v -9.089708E-07 0.6973674 9.089708E-07
v -9.089708E-07 0.6973674 -0.03447047
v 0.02437215 0.6973674 -0.02437215
v -9.089708E-07 0.6352518 -0.03132848
v 0.02216111 0.6352518 -0.02216111
v 0.03447047 0.6973674 9.089708E-07
v 0.03132848 0.6352518 9.089708E-07
v 0.02437215 0.6973674 0.02437395
v 0.02216111 0.6352518 0.02214999
v -9.089708E-07 0.6973674 0.03447227
v -9.089708E-07 0.6352518 0.03133029
v -0.02437395 0.6973674 0.02437395
v -0.02437395 0.6973674 -0.02437215
v -0.02437395 0.6973674 0.02437395
v -0.03447227 0.6973674 9.089708E-07
v -0.02214999 0.6352518 0.02214999
v -9.089708E-07 0.6352518 0.03133029
v -9.089708E-07 0.6973674 0.03447227
v -0.03133029 0.6352518 9.089708E-07
v -0.02437395 0.6973674 -0.02437215
v -0.02214999 0.6352518 -0.02216111
v -9.089708E-07 0.6973674 -0.03447047
v -9.089708E-07 0.6352518 -0.03132848
v 0.04242242 0.6090555 9.089708E-07
v 0.09830587 0.06162527 -0.09830587
v 0.1390224 0.06162527 9.089708E-07
vt 0.7197881 0.6984133
vt 0.7192911 0.6984133
vt 0.7197881 0.6984133
vt 0.718794 0.6984133
vt 0.7207823 0.6984133
vt 0.7207823 0.6984133
vt 0.7197881 0.6984133
vt 0.7192911 0.6984133
vt 0.7192911 0.6984133
vt 0.7197881 0.6984133
vt 0.718794 0.6984133
vt 0.718794 0.6984133
vt 0.7207823 0.6984133
vt 0.7207823 0.6984133
vt 0.7207823 0.6984133
vt 0.7207823 0.6984133
vt 0.7197881 0.6989103
vt 0.7207823 0.6989103
vt 0.7212794 0.6989103
vt 0.7207823 0.6994074
vt 0.7212794 0.6994074
vt 0.7207823 0.7013958
vt 0.7212794 0.7013958
vt 0.7207823 0.7018929
vt 0.7197881 0.7018929
vt 0.7197881 0.70239
vt 0.7192911 0.70239
vt 0.7192911 0.7018929
vt 0.7192911 0.70239
vt 0.718794 0.7018929
vt 0.7202852 0.70239
vt 0.7207823 0.7018929
vt 0.7207823 0.70239
vt 0.7197881 0.7013958
vt 0.7192911 0.7013958
vt 0.718794 0.7013958
vt 0.7192911 0.6994074
vt 0.718794 0.6994074
vt 0.7197881 0.7028871
vt 0.7192911 0.7028871
vt 0.7202852 0.7028871
vt 0.7197881 0.7028871
vt 0.7202852 0.7028871
vt 0.7197881 0.7043783
vt 0.7197881 0.7043783
vt 0.7197881 0.7043783
vt 0.7202852 0.7043783
vt 0.7202852 0.7043783
vt 0.7202852 0.7043783
vt 0.7202852 0.7043783
vt 0.7197881 0.7043783
vt 0.7197881 0.7043783
vt 0.7197881 0.7043783
vt 0.7192911 0.7043783
vt 0.7192911 0.7043783
vt 0.7202852 0.7043783
vt 0.7197881 0.7043783
vt 0.7197881 0.7043783
vt 0.7197881 0.7043783
vt 0.7202852 0.7043783
vt 0.7202852 0.7043783
vt 0.7202852 0.7043783
vt 0.7197881 0.7043783
vt 0.7197881 0.7043783
vt 0.7202852 0.7043783
vt 0.7197881 0.7043783
vt 0.7197881 0.7043783
vt 0.7197881 0.7043783
vt 0.7192911 0.7043783
vt 0.7192911 0.7043783
vt 0.7202852 0.7043783
vt 0.7202852 0.7043783
vt 0.7197881 0.7043783
vt 0.7202852 0.7043783
vt 0.7202852 0.7043783
vt 0.7197881 0.7043783
vt 0.7197881 0.7043783
vt 0.7197881 0.7043783
vt 0.7197881 0.7028871
vt 0.7192911 0.7028871
vt 0.7192911 0.70239
vt 0.7197881 0.70239
vt 0.7192911 0.7018929
vt 0.718794 0.7018929
vt 0.7192911 0.70239
vt 0.7197881 0.7018929
vt 0.7202852 0.70239
vt 0.7207823 0.7018929
vt 0.7207823 0.70239
vt 0.7207823 0.7018929
vt 0.7207823 0.7013958
vt 0.7212794 0.7013958
vt 0.7207823 0.6994074
vt 0.7212794 0.6994074
vt 0.7197881 0.6994074
vt 0.7197881 0.7013958
vt 0.7192911 0.6994074
vt 0.7192911 0.7013958
vt 0.718794 0.6994074
vt 0.718794 0.7013958
vt 0.7202852 0.7028871
vt 0.7202852 0.7028871
vt 0.7197881 0.7028871
vt 0.718794 0.6989103
vt 0.7192911 0.6989103
vt 0.7197881 0.6989103
vt 0.7207823 0.6989103
vt 0.7212794 0.6989103
vt 0.7207823 0.6984133
vt 0.7207823 0.6984133
vt 0.7207823 0.6984133
vt 0.7197881 0.6984133
vt 0.7197881 0.6984133
vt 0.7192911 0.6984133
vt 0.7192911 0.6984133
vt 0.718794 0.6984133
vt 0.718794 0.6984133
vt 0.7207823 0.6984133
vt 0.7197881 0.6984133
vt 0.7192911 0.6984133
vt 0.718794 0.6984133
vt 0.7197881 0.6984133
vt 0.7207823 0.6984133
vt 0.7207823 0.6984133
vt 0.6705761 0.865933
vt 0.5512742 0.865933
vt 0.5512742 1.017546
vt 0.6760441 1.017546
vt 0.4270014 1.017546
vt 0.4324694 0.865933
vt 0.5512742 0.7441456
vt 0.4364461 0.7441456
vt 0.6665994 0.7441456
vt 0.7202852 0.7043783
vt 0.7202852 0.7043783
vt 0.451856 0.9608774
vt 0.4662716 0.9608774
vt 0.4622949 0.9608774
vt 0.4652774 0.9345316
vt 0.4613007 0.9345316
vt 0.451856 0.9608774
vt 0.451856 0.9345316
vt 0.44092 0.9608774
vt 0.4419141 0.9345316
vt 0.4369432 0.9608774
vt 0.4379374 0.9345316
vt 0.44092 0.9608774
vt 0.4622949 0.9608774
vt 0.44092 0.9608774
vt 0.451856 0.9608774
vt 0.4419141 0.9345316
vt 0.4379374 0.9345316
vt 0.4369432 0.9608774
vt 0.451856 0.9345316
vt 0.4622949 0.9608774
vt 0.4613007 0.9345316
vt 0.4662716 0.9608774
vt 0.4652774 0.9345316
vt 0.7197881 0.7043783
vt 0.7192911 0.6989103
vt 0.718794 0.6989103
vn -0.003921509 -0.9999924 0
vn 0.4431339 -0.7725431 -0.4547631
vn -0.003921509 -0.7725431 -0.6349502
vn 0.6313677 -0.7725431 -0.06746724
vn -0.4431338 -0.7725431 -0.4547631
vn -0.6313677 -0.7725431 -0.06746812
vn -0.003921509 -0.7725431 -0.6349502
vn 0.4431339 -0.7725431 -0.4547631
vn 0.6941124 -0.1686262 -0.699838
vn -0.003921509 -0.1686262 -0.9856722
vn 0.9843062 -0.1686262 -0.05202392
vn 0.6313677 -0.7725431 -0.06746724
vn -0.4431338 -0.7725431 -0.4547631
vn -0.6941123 -0.1686262 -0.6998381
vn -0.6313677 -0.7725431 -0.06746812
vn -0.9843061 -0.1686262 -0.05202622
vn -0.003921509 -0.04313695 -0.9990615
vn -0.7097985 -0.04313695 -0.7030827
vn -0.9990709 -0.04309721 0
vn -0.7097985 -0.04313695 -0.7030827
vn -0.9990709 -0.04309721 0
vn -0.7019553 0.09803843 -0.7054412
vn -0.9921492 0.09803843 -0.07764255
vn -0.6392107 0.4196045 -0.6444701
vn -0.003921509 0.4196045 -0.9076986
vn -0.003921509 0.5137215 -0.8579481
vn 0.6078385 0.5137215 -0.6054937
vn 0.6392108 0.4196045 -0.64447
vn 0.8581837 0.5133427 0
vn 0.9058754 0.4196045 -0.05763413
vn -0.6078384 0.5137215 -0.6054938
vn -0.9058753 0.4196045 -0.05763619
vn -0.8581837 0.5133427 0
vn -0.003921509 0.09803843 -0.9951749
vn 0.7019554 0.09803843 -0.705441
vn 0.9921493 0.09803843 -0.07764179
vn 0.7097985 -0.04313695 -0.7030827
vn 0.9990709 -0.04309721 0
vn 0.6862693 0.2549 -0.6812199
vn 0.9670746 0.2544933 0
vn -0.6862692 0.2549 -0.6812199
vn -0.003921509 0.2549 -0.9669595
vn -0.9670746 0.2544933 0
vn -0.003921509 -0.4823493 -0.8759702
vn 0.6156816 -0.4823493 -0.6231174
vn -0.003921509 -0.3960754 -0.9182096
vn -0.6470538 -0.3960754 -0.6514949
vn -0.5294076 0.66274 -0.5296256
vn -0.7489218 0.6626585 0
vn -0.9187401 -0.3948628 0
vn -0.003921509 0.66274 -0.7488393
vn 0.6470539 -0.3960754 -0.6514948
vn 0.5294077 0.66274 -0.5296255
vn 0.9187401 -0.3948628 0
vn 0.7489218 0.6626585 0
vn -0.003921509 0.9999923 -0.000345267
vn -0.003921509 0.9999923 -0.000345267
vn -0.003921509 0.9999923 -0.000345267
vn -0.003921509 0.9999923 -0.000345267
vn -0.003921509 0.9999923 -0.000345267
vn -0.003921509 0.9999923 -0.000345267
vn -0.5294076 0.66274 0.5296256
vn -0.003921509 0.9999923 -0.000345267
vn -0.003921509 0.66274 0.7488393
vn -0.6470538 -0.3960754 0.6514949
vn -0.003921509 -0.3960754 0.9182096
vn 0.5294077 0.66274 0.5296255
vn 0.6470539 -0.3960754 0.6514948
vn 0.7489218 0.6626585 0
vn 0.9187401 -0.3948628 0
vn -0.9187401 -0.3948628 0
vn -0.7489218 0.6626585 0
vn -0.003921509 0.9999923 -0.000345267
vn -0.874503 -0.4823493 -0.05082935
vn -0.6156815 -0.4823493 0.6231175
vn -0.003921509 -0.4823493 0.8759702
vn 0.6156816 -0.4823493 0.6231174
vn 0.8745031 -0.4823493 -0.05082759
vn 0.6862693 0.2549 0.6812199
vn 0.9670746 0.2544933 0
vn 0.6078385 0.5137215 0.6054937
vn -0.003921509 0.5137215 0.8579481
vn 0.6392108 0.4196045 0.64447
vn 0.9058754 0.4196045 -0.05763413
vn 0.8581837 0.5133427 0
vn -0.003921509 0.4196045 0.9076986
vn -0.6078384 0.5137215 0.6054938
vn -0.6392107 0.4196045 0.6444701
vn -0.8581837 0.5133427 0
vn -0.9058753 0.4196045 -0.05763619
vn -0.7019553 0.09803843 0.7054412
vn -0.9921492 0.09803843 -0.07764255
vn -0.7097985 -0.04313695 0.7030827
vn -0.9990709 -0.04309721 0
vn -0.003921509 -0.04313695 0.9990615
vn -0.003921509 0.09803843 0.9951749
vn 0.7097985 -0.04313695 0.7030827
vn 0.7019554 0.09803843 0.705441
vn 0.9990709 -0.04309721 0
vn 0.9921493 0.09803843 -0.07764179
vn -0.6862692 0.2549 0.6812199
vn -0.9670746 0.2544933 0
vn -0.003921509 0.2549 0.9669595
vn 0.9990709 -0.04309721 0
vn 0.7097985 -0.04313695 0.7030827
vn -0.003921509 -0.04313695 0.9990615
vn -0.7097985 -0.04313695 0.7030827
vn -0.9990709 -0.04309721 0
vn -0.6941123 -0.1686262 0.6998381
vn -0.9843061 -0.1686262 -0.05202622
vn -0.4431338 -0.7725431 0.4547631
vn -0.003921509 -0.7725431 0.6349502
vn -0.003921509 -0.1686262 0.9856722
vn 0.4431339 -0.7725431 0.4547631
vn 0.6941124 -0.1686262 0.699838
vn 0.6313677 -0.7725431 -0.06746724
vn 0.9843062 -0.1686262 -0.05202392
vn -0.6313677 -0.7725431 -0.06746812
vn -0.003921509 -0.9999924 0
vn 0.4431339 -0.7725431 0.4547631
vn 0.6313677 -0.7725431 -0.06746724
vn -0.003921509 -0.7725431 0.6349502
vn -0.4431338 -0.7725431 0.4547631
vn -0.6313677 -0.7725431 -0.06746812
vn -0.7097985 -0.04313695 -0.7030827
vn -0.003921509 -0.04313695 -0.9990615
vn -0.003921509 0.09803843 -0.9951749
vn -0.7019553 0.09803843 -0.7054412
vn 0.7019554 0.09803843 -0.705441
vn 0.7097985 -0.04313695 -0.7030827
vn -0.003921509 -0.04313695 -0.9990615
vn 0.7097985 -0.04313695 -0.7030827
vn -0.7097985 -0.04313695 -0.7030827
vn -0.6156815 -0.4823493 -0.6231175
vn -0.874503 -0.4823493 -0.05082935
vn -0.003921509 0.9999923 -0.000345267
vn -0.003921509 0.6078384 -0.7940511
vn 0.56078 0.6078384 -0.5621906
vn -0.003921509 -0.05098003 -0.998692
vn 0.7097985 -0.05098003 -0.7025576
vn 0.7882293 0.6078384 -0.09605778
vn 0.998703 -0.0509143 0
vn 0.56078 0.6078384 0.5621906
vn 0.7097985 -0.05098003 0.7025576
vn -0.003921509 0.6078384 0.7940511
vn -0.003921509 -0.05098003 0.998692
vn -0.5607799 0.6078384 0.5621907
vn -0.5607799 0.6078384 -0.5621907
vn -0.5607799 0.6078384 0.5621907
vn -0.7882292 0.6078384 -0.0960584
vn -0.7097985 -0.05098003 0.7025576
vn -0.003921509 -0.05098003 0.998692
vn -0.003921509 0.6078384 0.7940511
vn -0.998703 -0.05091431 0
vn -0.5607799 0.6078384 -0.5621907
vn -0.7097985 -0.05098003 -0.7025576
vn -0.003921509 0.6078384 -0.7940511
vn -0.003921509 -0.05098003 -0.998692
vn 0.8745031 -0.4823493 -0.05082759
vn 0.7097985 -0.04313695 -0.7030827
vn 0.9990709 -0.04309721 0
g cookware_bottleRed(Clone)_0
f 3/3/3 2/2/2 1/1/1
f 2/2/2 4/4/4 1/1/1
f 5/5/5 3/3/3 1/1/1
f 6/6/6 5/5/5 1/1/1
f 9/9/9 8/8/8 7/7/7
f 10/10/10 9/9/9 7/7/7
f 9/9/9 11/11/11 8/8/8
f 11/11/11 12/12/12 8/8/8
f 10/10/10 7/7/7 13/13/13
f 14/14/14 10/10/10 13/13/13
f 14/14/14 13/13/13 15/15/15
f 16/16/16 14/14/14 15/15/15
f 17/17/17 10/10/10 14/14/14
f 18/18/18 17/17/17 14/14/14
f 18/18/18 14/14/14 16/16/16
f 19/19/19 18/18/18 16/16/16
f 20/20/20 18/18/18 19/19/19
f 21/21/21 20/20/20 19/19/19
f 22/22/22 20/20/20 21/21/21
f 23/23/23 22/22/22 21/21/21
f 24/24/24 22/22/22 23/23/23
f 24/24/24 25/25/25 22/22/22
f 26/26/26 25/25/25 24/24/24
f 26/26/26 27/27/27 25/25/25
f 27/27/27 28/28/28 25/25/25
f 27/27/27 29/29/29 28/28/28
f 29/29/29 30/30/30 28/28/28
f 31/31/31 26/26/26 24/24/24
f 31/31/31 24/24/24 32/32/32
f 32/32/32 24/24/24 23/23/23
f 33/33/33 31/31/31 32/32/32
f 25/25/25 34/34/34 22/22/22
f 25/25/25 28/28/28 34/34/34
f 28/28/28 30/30/30 35/35/35
f 28/28/28 35/35/35 34/34/34
f 30/30/30 36/36/36 35/35/35
f 35/35/35 36/36/36 37/37/37
f 36/36/36 38/38/38 37/37/37
f 27/27/27 39/39/39 29/29/29
f 39/39/39 40/40/40 29/29/29
f 31/31/31 41/41/41 26/26/26
f 41/41/41 42/42/42 26/26/26
f 42/42/42 39/39/39 27/27/27
f 43/43/43 41/41/41 31/31/31
f 33/33/33 43/43/43 31/31/31
f 42/42/42 44/44/44 39/39/39
f 44/44/44 45/45/45 39/39/39
f 39/39/39 45/45/45 40/40/40
f 44/44/44 46/46/46 45/45/45
f 47/47/47 46/46/46 44/44/44
f 47/47/47 48/48/48 46/46/46
f 49/49/49 48/48/48 47/47/47
f 50/50/50 49/49/49 47/47/47
f 48/48/48 51/51/51 46/46/46
f 46/46/46 51/51/51 52/52/52
f 46/46/46 52/52/52 45/45/45
f 51/51/51 53/53/53 52/52/52
f 52/52/52 53/53/53 54/54/54
f 53/53/53 55/55/55 54/54/54
f 48/48/48 56/56/56 51/51/51
f 56/56/56 57/57/57 51/51/51
f 51/51/51 57/57/57 53/53/53
f 53/53/53 58/58/58 55/55/55
f 57/57/57 58/58/58 53/53/53
f 58/58/58 59/59/59 55/55/55
f 60/60/60 56/56/56 48/48/48
f 49/49/49 60/60/60 48/48/48
f 61/61/61 60/60/60 49/49/49
f 62/62/62 61/61/61 49/49/49
f 63/63/63 61/61/61 62/62/62
f 64/64/64 63/63/63 62/62/62
f 64/64/64 62/62/62 65/65/65
f 66/66/66 64/64/64 65/65/65
f 67/67/67 64/64/64 66/66/66
f 68/68/68 67/67/67 66/66/66
f 69/69/69 67/67/67 68/68/68
f 69/69/69 59/59/59 67/67/67
f 70/70/70 69/69/69 68/68/68
f 65/65/65 62/62/62 71/71/71
f 62/62/62 72/72/72 71/71/71
f 73/73/73 63/63/63 64/64/64
f 67/67/67 73/73/73 64/64/64
f 59/59/59 73/73/73 67/67/67
f 65/65/65 71/71/71 74/74/74
f 75/75/75 65/65/65 74/74/74
f 66/66/66 65/65/65 75/75/75
f 76/76/76 66/66/66 75/75/75
f 68/68/68 66/66/66 76/76/76
f 77/77/77 68/68/68 76/76/76
f 70/70/70 68/68/68 77/77/77
f 78/78/78 70/70/70 77/77/77
f 78/78/78 77/77/77 79/79/79
f 80/80/80 78/78/78 79/79/79
f 80/80/80 79/79/79 81/81/81
f 81/81/81 79/79/79 82/82/82
f 81/81/81 82/82/82 83/83/83
f 81/81/81 83/83/83 84/84/84
f 85/85/85 81/81/81 84/84/84
f 85/85/85 80/80/80 81/81/81
f 82/82/82 86/86/86 83/83/83
f 82/82/82 87/87/87 86/86/86
f 87/87/87 88/88/88 86/86/86
f 87/87/87 89/89/89 88/88/88
f 89/89/89 90/90/90 88/88/88
f 88/88/88 90/90/90 91/91/91
f 90/90/90 92/92/92 91/91/91
f 91/91/91 92/92/92 93/93/93
f 92/92/92 94/94/94 93/93/93
f 91/91/91 93/93/93 95/95/95
f 96/96/96 91/91/91 95/95/95
f 88/88/88 91/91/91 96/96/96
f 86/86/86 88/88/88 96/96/96
f 96/96/96 95/95/95 97/97/97
f 98/98/98 96/96/96 97/97/97
f 86/86/86 96/96/96 98/98/98
f 83/83/83 86/86/86 98/98/98
f 98/98/98 97/97/97 99/99/99
f 100/100/100 98/98/98 99/99/99
f 83/83/83 98/98/98 100/100/100
f 84/84/84 83/83/83 100/100/100
f 87/87/87 101/101/101 89/89/89
f 101/101/101 102/102/102 89/89/89
f 103/103/103 101/101/101 87/87/87
f 82/82/82 103/103/103 87/87/87
f 79/79/79 103/103/103 82/82/82
f 79/79/79 77/77/77 103/103/103
f 77/77/77 76/76/76 103/103/103
f 103/103/103 76/76/76 101/101/101
f 76/76/76 75/75/75 101/101/101
f 101/101/101 75/75/75 102/102/102
f 75/75/75 74/74/74 102/102/102
f 99/99/99 97/97/97 104/104/104
f 97/97/97 105/105/105 104/104/104
f 97/97/97 95/95/95 105/105/105
f 95/95/95 106/106/106 105/105/105
f 95/95/95 93/93/93 106/106/106
f 93/93/93 107/107/107 106/106/106
f 93/93/93 94/94/94 107/107/107
f 94/94/94 108/108/108 107/107/107
f 107/107/107 108/108/108 109/109/109
f 108/108/108 110/110/110 109/109/109
f 109/109/109 110/110/110 111/111/111
f 109/109/109 111/111/111 112/112/112
f 113/113/113 109/109/109 112/112/112
f 107/107/107 109/109/109 113/113/113
f 106/106/106 107/107/107 113/113/113
f 113/113/113 112/112/112 114/114/114
f 115/115/115 113/113/113 114/114/114
f 106/106/106 113/113/113 115/115/115
f 105/105/105 106/106/106 115/115/115
f 115/115/115 114/114/114 116/116/116
f 117/117/117 115/115/115 116/116/116
f 105/105/105 115/115/115 117/117/117
f 110/110/110 118/118/118 111/111/111
f 104/104/104 105/105/105 117/117/117
f 121/121/121 120/120/120 119/119/119
f 120/120/120 122/122/122 119/119/119
f 122/122/122 123/123/123 119/119/119
f 123/123/123 124/124/124 119/119/119
f 127/127/127 126/126/126 125/125/125
f 128/128/128 127/127/127 125/125/125
f 127/127/127 129/129/129 126/126/126
f 129/129/129 130/130/130 126/126/126
f 126/126/126 130/130/130 131/131/131
f 130/130/130 132/132/132 131/131/131
f 126/126/126 131/131/131 133/133/133
f 125/125/125 126/126/126 133/133/133
f 26/26/26 42/42/42 27/27/27
f 134/134/134 44/44/44 42/42/42
f 134/134/134 47/47/47 44/44/44
f 50/50/50 47/47/47 134/134/134
f 135/135/135 50/50/50 134/134/134
f 135/135/135 134/134/134 41/41/41
f 41/41/41 134/134/134 42/42/42
f 43/43/43 135/135/135 41/41/41
f 138/138/138 137/137/137 136/136/136
f 137/137/137 138/138/138 139/139/139
f 138/138/138 140/140/140 139/139/139
f 141/141/141 138/138/138 136/136/136
f 138/138/138 141/141/141 140/140/140
f 141/141/141 142/142/142 140/140/140
f 143/143/143 141/141/141 136/136/136
f 141/141/141 143/143/143 142/142/142
f 143/143/143 144/144/144 142/142/142
f 145/145/145 143/143/143 136/136/136
f 143/143/143 145/145/145 144/144/144
f 145/145/145 146/146/146 144/144/144
f 147/147/147 145/145/145 136/136/136
f 137/137/137 148/148/148 136/136/136
f 150/150/150 149/149/149 136/136/136
f 149/149/149 150/150/150 151/151/151
f 149/149/149 151/151/151 152/152/152
f 153/153/153 149/149/149 152/152/152
f 150/150/150 154/154/154 151/151/151
f 150/150/150 155/155/155 154/154/154
f 155/155/155 150/150/150 136/136/136
f 155/155/155 156/156/156 154/154/154
f 155/155/155 157/157/157 156/156/156
f 157/157/157 158/158/158 156/156/156
f 52/52/52 54/54/54 159/159/159
f 45/45/45 52/52/52 159/159/159
f 45/45/45 159/159/159 40/40/40
f 38/38/38 161/161/161 160/160/160
f 37/37/37 38/38/38 160/160/160
f 160/160/160 161/161/161 9/9/9
f 161/161/161 11/11/11 9/9/9
f 160/160/160 9/9/9 10/10/10
f 17/17/17 160/160/160 10/10/10
