g cookware_servingDish(Clone)
v 6.353855E-05 -0.01749671 -8.910894E-05
v 0.2825475 -0.01749671 -0.6820281
v 6.353855E-05 -0.01749671 -0.7382131
v 0.2947406 0.05251718 -0.7114754
v 6.353855E-05 0.05251718 -0.7700887
v 0.5220109 -0.01749671 -0.5220109
v 0.5445565 0.05251718 -0.5445565
v 0.6820281 -0.01749671 -0.2825475
v 0.7114754 0.05251718 -0.2947406
v 0.7382131 -0.01749671 -8.910894E-05
v 0.7700887 0.05251718 -8.910894E-05
v 0.6820281 -0.01749671 0.2823949
v 0.7114754 0.05251718 0.2945879
v 0.5220109 -0.01749671 0.5218583
v 0.5445565 0.05251718 0.5444039
v 0.2825475 -0.01749671 0.6818755
v 0.2947406 0.05251718 0.7113227
v 6.353855E-05 0.05251718 0.769936
v 6.353855E-05 -0.01749671 0.7380604
v -0.2823949 -0.01749671 0.6818755
v 0.8376742 0.06997591 -8.910894E-05
v 0.7739229 0.06997591 0.3204564
v 0.5923572 0.06997591 0.5922045
v 0.3206091 0.06997591 0.7737703
v 0.7739229 0.06997591 -0.3206091
v 6.353855E-05 0.06997591 0.8375216
v -0.2945879 0.05251718 0.7113227
v -0.3204564 0.06997591 0.7737703
v -0.5444039 0.05251718 0.5444039
v -0.2823949 -0.01749671 0.6818755
v 6.353855E-05 -0.01749671 0.7380604
v 6.353855E-05 0.05251718 0.769936
v -0.5218583 -0.01749671 0.5218583
v -0.6818755 -0.01749671 0.2823949
v -0.7113227 0.05251718 0.2945879
v -0.769936 0.05251718 -8.910894E-05
v -0.7380604 -0.01749671 -8.910894E-05
v -0.6818755 -0.01749671 -0.2825475
v -0.7113227 0.05251718 -0.2947406
v -0.5218583 -0.01749671 -0.5220109
v -0.5444039 0.05251718 -0.5445565
v -0.2823949 -0.01749671 -0.6820281
v -0.2945879 0.05251718 -0.7114754
v 6.353855E-05 0.05251718 -0.7700887
v 6.353855E-05 -0.01749671 -0.7382131
v -0.8375216 0.06997591 -8.910894E-05
v -0.7737703 0.06997591 -0.3206091
v -0.5922045 0.06997591 -0.5923572
v -0.3204564 0.06997591 -0.7739229
v -0.7737703 0.06997591 0.3204564
v -0.5922045 0.06997591 0.5922045
v 6.353855E-05 0.06997591 -0.8376742
v 0.3206091 0.06997591 -0.7739229
v 0.5923572 0.06997591 -0.5923572
v -0.7737703 0.1005991 -0.3206091
v -0.8375216 0.1005991 -8.910894E-05
v 6.353855E-05 0.1005991 -0.8376742
v 0.3206091 0.1005991 -0.7739229
v -0.3204564 0.1005991 -0.7739229
v -0.5922045 0.1005991 -0.5923572
v 0.5923572 0.1005991 -0.5923572
v 0.7739229 0.1005991 -0.3206091
v 0.8376742 0.1005991 -8.910894E-05
v 0.7739229 0.1005991 0.3204564
v 0.5923572 0.1005991 0.5922045
v 0.3206091 0.1005991 0.7737703
v 6.353855E-05 0.1005991 0.8375216
v -0.3204564 0.1005991 0.7737703
v -0.5922045 0.1005991 0.5922045
v -0.7737703 0.1005991 0.3204564
v -0.2593892 0.01841766 0.6263296
v -0.479349 0.01841766 0.479349
v -0.6263296 0.01841766 0.2593892
v -0.677939 0.01841766 -6.353855E-05
v -0.6263296 0.01841766 -0.2595419
v -0.479349 0.01841766 -0.4795016
v -0.2593892 0.01841766 -0.6264822
v 6.353855E-05 0.01841766 -0.6780916
v 0.2595419 0.01841766 -0.6264822
v 0.4795016 0.01841766 -0.4795016
v 0.6264822 0.01841766 -0.2595419
v 0.6780916 0.01841766 -6.353855E-05
v 0.6264822 0.01841766 0.2593892
v 0.4795016 0.01841766 0.479349
v 0.2595419 0.01841766 0.6263296
v 6.353855E-05 0.01841766 0.677939
v -0.006173551 0.01841766 0.006173551
v -0.006173551 0.01841766 0.006173551
v -0.006173551 0.01841766 0.006173551
v -0.006173551 0.01841766 0.006173551
v -0.006173551 0.01841766 0.006173551
v -0.006173551 0.01841766 0.006173551
v -0.006173551 0.01841766 0.006173551
v -0.2823949 -0.01749671 -0.6820281
vt 0.4746766 0.4631311
vt 0.481499 0.4631311
vt 0.4820238 0.4631311
vt 0.481499 0.4647055
vt 0.4820238 0.4647055
vt 0.4799246 0.4631311
vt 0.4799246 0.4647055
vt 0.4773006 0.4631311
vt 0.4773006 0.4647055
vt 0.4746766 0.4631311
vt 0.4746766 0.4647055
vt 0.4715278 0.4631311
vt 0.4715278 0.4647055
vt 0.4689038 0.4631311
vt 0.4689038 0.4647055
vt 0.4673295 0.4631311
vt 0.4673295 0.4647055
vt 0.4668047 0.4647055
vt 0.4668047 0.4631311
vt 0.4673295 0.4631311
vt 0.4746766 0.4647055
vt 0.4715278 0.4647055
vt 0.4689038 0.4647055
vt 0.4673295 0.4647055
vt 0.4773006 0.4647055
vt 0.4668047 0.4647055
vt 0.4673295 0.4647055
vt 0.4673295 0.4647055
vt 0.4689038 0.4647055
vt 0.4673295 0.4631311
vt 0.4668047 0.4631311
vt 0.4668047 0.4647055
vt 0.4689038 0.4631311
vt 0.4715278 0.4631311
vt 0.4715278 0.4647055
vt 0.4746766 0.4647055
vt 0.4746766 0.4631311
vt 0.4773006 0.4631311
vt 0.4773006 0.4647055
vt 0.4799246 0.4631311
vt 0.4799246 0.4647055
vt 0.481499 0.4631311
vt 0.481499 0.4647055
vt 0.4820238 0.4647055
vt 0.4820238 0.4631311
vt 0.4746766 0.4647055
vt 0.4773006 0.4647055
vt 0.4799246 0.4647055
vt 0.481499 0.4647055
vt 0.4715278 0.4647055
vt 0.4689038 0.4647055
vt 0.4820238 0.4647055
vt 0.481499 0.4647055
vt 0.4799246 0.4647055
vt 0.4773006 0.4647055
vt 0.4746766 0.4647055
vt 0.4820238 0.4647055
vt 0.481499 0.4647055
vt 0.481499 0.4647055
vt 0.4799246 0.4647055
vt 0.4799246 0.4647055
vt 0.4773006 0.4647055
vt 0.4746766 0.4647055
vt 0.4715278 0.4647055
vt 0.4689038 0.4647055
vt 0.4673295 0.4647055
vt 0.4668047 0.4647055
vt 0.4673295 0.4647055
vt 0.4689038 0.4647055
vt 0.4715278 0.4647055
vt 0.4673295 0.4647055
vt 0.4689038 0.4647055
vt 0.4715278 0.4647055
vt 0.4746766 0.4647055
vt 0.4773006 0.4647055
vt 0.4799246 0.4647055
vt 0.481499 0.4647055
vt 0.4820238 0.4647055
vt 0.481499 0.4647055
vt 0.4799246 0.4647055
vt 0.4773006 0.4647055
vt 0.4746766 0.4647055
vt 0.4715278 0.4647055
vt 0.4689038 0.4647055
vt 0.4673295 0.4647055
vt 0.4668047 0.4647055
vt 0.4668047 0.4647055
vt 0.4773006 0.4647055
vt 0.4746766 0.4647055
vt 0.4715278 0.4647055
vt 0.4689038 0.4647055
vt 0.4799246 0.4647055
vt 0.481499 0.4647055
vt 0.481499 0.4631311
vn -0.003921509 -0.9999924 0
vn 0.2235277 -0.8117585 -0.5395215
vn -0.003921509 -0.8117585 -0.5839801
vn 0.2313708 -0.7960724 -0.5592284
vn -0.003921509 -0.7960724 -0.6051888
vn 0.4117616 -0.8117585 -0.4141262
vn 0.4274477 -0.7960724 -0.4284358
vn 0.5372508 -0.8117585 -0.2289315
vn 0.56078 -0.7960724 -0.2275842
vn 0.5842015 -0.8116088 0
vn 0.6068687 -0.7948022 0
vn 0.5372508 -0.8117585 0.2289315
vn 0.56078 -0.7960724 0.2275842
vn 0.4117616 -0.8117585 0.4141262
vn 0.4274477 -0.7960724 0.4284358
vn 0.2235277 -0.8117585 0.5395215
vn 0.2313708 -0.7960724 0.5592284
vn -0.003921509 -0.7960724 0.6051888
vn -0.003921509 -0.8117585 0.5839801
vn -0.2235277 -0.8117585 0.5395216
vn 0.8179428 -0.5752995 0
vn 0.756857 -0.5764662 0.3079842
vn 0.5764662 -0.5764662 0.5791144
vn 0.3098016 -0.5764662 0.7561149
vn 0.756857 -0.5764662 -0.3079842
vn -0.003921509 -0.5764662 0.8171116
vn -0.2313707 -0.7960724 0.5592284
vn -0.3098015 -0.5764662 0.7561149
vn -0.4274477 -0.7960724 0.4284359
vn -0.2235277 -0.8117585 0.5395216
vn -0.003921509 -0.8117585 0.5839801
vn -0.003921509 -0.7960724 0.6051888
vn -0.4117615 -0.8117585 0.4141263
vn -0.5372508 -0.8117585 0.2289318
vn -0.5607799 -0.7960724 0.2275845
vn -0.6068686 -0.7948023 0
vn -0.5842015 -0.8116088 0
vn -0.5372508 -0.8117585 -0.2289318
vn -0.5607799 -0.7960724 -0.2275845
vn -0.4117615 -0.8117585 -0.4141263
vn -0.4274477 -0.7960724 -0.4284359
vn -0.2235277 -0.8117585 -0.5395216
vn -0.2313707 -0.7960724 -0.5592284
vn -0.003921509 -0.7960724 -0.6051888
vn -0.003921509 -0.8117585 -0.5839801
vn -0.8179429 -0.5752996 0
vn -0.7568569 -0.5764662 -0.3079843
vn -0.5764661 -0.5764662 -0.5791144
vn -0.3098015 -0.5764662 -0.7561149
vn -0.7568569 -0.5764662 0.3079843
vn -0.5764661 -0.5764662 0.5791144
vn -0.003921509 -0.5764662 -0.8171116
vn 0.3098016 -0.5764662 -0.7561149
vn 0.5764662 -0.5764662 -0.5791144
vn -0.5450938 0.8039154 -0.2378925
vn -0.5921522 0.8039154 -0.05546024
vn -0.003921509 0.8039154 -0.5947308
vn 0.2235277 0.8039154 -0.5511401
vn -0.2235277 0.8039154 -0.5511401
vn -0.4196045 0.8039154 -0.421488
vn 0.4196047 0.8039154 -0.4214878
vn 0.5450939 0.8039154 -0.2378922
vn 0.5921524 0.8039154 -0.05545863
vn 0.5450939 0.8039154 0.2378922
vn 0.4196047 0.8039154 0.4214878
vn 0.2235277 0.8039154 0.5511401
vn -0.003921509 0.8039154 0.5947308
vn -0.2235277 0.8039154 0.5511401
vn -0.4196045 0.8039154 0.421488
vn -0.5450938 0.8039154 0.2378925
vn 0.09803849 0.9686199 -0.228394
vn 0.1843123 0.9686199 -0.1667463
vn 0.2392139 0.9686199 -0.06746945
vn 0.2617947 0.9651236 0
vn 0.2392139 0.9686199 0.06746945
vn 0.1843123 0.9686199 0.1667463
vn 0.09803849 0.9686199 0.228394
vn -0.003921509 0.9686199 0.2485156
vn -0.09803843 0.9686199 0.228394
vn -0.1843122 0.9686199 0.1667464
vn -0.2392138 0.9686199 0.06746945
vn -0.2617946 0.9651236 0
vn -0.2392138 0.9686199 -0.06746945
vn -0.1843122 0.9686199 -0.1667464
vn -0.09803843 0.9686199 -0.228394
vn -0.003921509 0.9686199 -0.2485156
vn -0.003921509 0.9999923 -0.000345267
vn -0.003921509 0.9999923 -0.000345267
vn -0.003921509 0.9999923 -0.000345267
vn -0.003921509 0.9999923 -0.000345267
vn -0.003921509 0.9999923 -0.000345267
vn -0.003921509 0.9999923 -0.000345267
vn -0.003921509 0.9999923 -0.000345267
vn -0.2235277 -0.8117585 -0.5395216
g cookware_servingDish(Clone)_0
f 3/3/3 2/2/2 1/1/1
f 4/4/4 2/2/2 3/3/3
f 5/5/5 4/4/4 3/3/3
f 2/2/2 6/6/6 1/1/1
f 7/7/7 6/6/6 2/2/2
f 4/4/4 7/7/7 2/2/2
f 6/6/6 8/8/8 1/1/1
f 9/9/9 8/8/8 6/6/6
f 7/7/7 9/9/9 6/6/6
f 8/8/8 10/10/10 1/1/1
f 11/11/11 10/10/10 8/8/8
f 9/9/9 11/11/11 8/8/8
f 10/10/10 12/12/12 1/1/1
f 13/13/13 12/12/12 10/10/10
f 11/11/11 13/13/13 10/10/10
f 12/12/12 14/14/14 1/1/1
f 15/15/15 14/14/14 12/12/12
f 13/13/13 15/15/15 12/12/12
f 14/14/14 16/16/16 1/1/1
f 17/17/17 16/16/16 14/14/14
f 15/15/15 17/17/17 14/14/14
f 17/17/17 18/18/18 16/16/16
f 18/18/18 19/19/19 16/16/16
f 16/16/16 19/19/19 1/1/1
f 19/19/19 20/20/20 1/1/1
f 11/11/11 21/21/21 13/13/13
f 21/21/21 22/22/22 13/13/13
f 13/13/13 22/22/22 15/15/15
f 15/15/15 23/23/23 17/17/17
f 22/22/22 23/23/23 15/15/15
f 23/23/23 24/24/24 17/17/17
f 17/17/17 24/24/24 18/18/18
f 25/25/25 21/21/21 11/11/11
f 9/9/9 25/25/25 11/11/11
f 24/24/24 26/26/26 18/18/18
f 18/18/18 26/26/26 27/27/27
f 26/26/26 28/28/28 27/27/27
f 27/27/27 28/28/28 29/29/29
f 27/27/27 29/29/29 30/30/30
f 27/27/27 30/30/30 31/31/31
f 32/32/32 27/27/27 31/31/31
f 30/30/30 33/33/33 1/1/1
f 29/29/29 33/33/33 30/30/30
f 33/33/33 34/34/34 1/1/1
f 35/35/35 34/34/34 33/33/33
f 29/29/29 35/35/35 33/33/33
f 35/35/35 36/36/36 34/34/34
f 36/36/36 37/37/37 34/34/34
f 34/34/34 37/37/37 1/1/1
f 37/37/37 38/38/38 1/1/1
f 39/39/39 38/38/38 37/37/37
f 36/36/36 39/39/39 37/37/37
f 38/38/38 40/40/40 1/1/1
f 41/41/41 40/40/40 38/38/38
f 39/39/39 41/41/41 38/38/38
f 40/40/40 42/42/42 1/1/1
f 43/43/43 42/42/42 40/40/40
f 41/41/41 43/43/43 40/40/40
f 43/43/43 44/44/44 42/42/42
f 44/44/44 45/45/45 42/42/42
f 36/36/36 46/46/46 39/39/39
f 46/46/46 47/47/47 39/39/39
f 39/39/39 47/47/47 41/41/41
f 41/41/41 48/48/48 43/43/43
f 47/47/47 48/48/48 41/41/41
f 48/48/48 49/49/49 43/43/43
f 50/50/50 46/46/46 36/36/36
f 35/35/35 50/50/50 36/36/36
f 51/51/51 50/50/50 35/35/35
f 29/29/29 51/51/51 35/35/35
f 28/28/28 51/51/51 29/29/29
f 43/43/43 49/49/49 5/5/5
f 49/49/49 52/52/52 5/5/5
f 5/5/5 52/52/52 4/4/4
f 52/52/52 53/53/53 4/4/4
f 4/4/4 53/53/53 7/7/7
f 53/53/53 54/54/54 7/7/7
f 7/7/7 54/54/54 9/9/9
f 54/54/54 25/25/25 9/9/9
f 47/47/47 55/55/55 48/48/48
f 56/56/56 55/55/55 47/47/47
f 46/46/46 56/56/56 47/47/47
f 52/52/52 57/57/57 53/53/53
f 57/57/57 58/58/58 53/53/53
f 53/53/53 58/58/58 54/54/54
f 59/59/59 57/57/57 52/52/52
f 49/49/49 59/59/59 52/52/52
f 60/60/60 59/59/59 49/49/49
f 55/55/55 60/60/60 48/48/48
f 48/48/48 60/60/60 49/49/49
f 58/58/58 61/61/61 54/54/54
f 54/54/54 61/61/61 25/25/25
f 61/61/61 62/62/62 25/25/25
f 25/25/25 62/62/62 21/21/21
f 62/62/62 63/63/63 21/21/21
f 21/21/21 63/63/63 22/22/22
f 63/63/63 64/64/64 22/22/22
f 22/22/22 64/64/64 23/23/23
f 64/64/64 65/65/65 23/23/23
f 23/23/23 65/65/65 24/24/24
f 65/65/65 66/66/66 24/24/24
f 24/24/24 66/66/66 26/26/26
f 66/66/66 67/67/67 26/26/26
f 26/26/26 67/67/67 28/28/28
f 67/67/67 68/68/68 28/28/28
f 28/28/28 68/68/68 51/51/51
f 68/68/68 69/69/69 51/51/51
f 51/51/51 69/69/69 50/50/50
f 69/69/69 70/70/70 50/50/50
f 50/50/50 70/70/70 46/46/46
f 70/70/70 56/56/56 46/46/46
f 68/68/68 71/71/71 69/69/69
f 71/71/71 72/72/72 69/69/69
f 69/69/69 72/72/72 70/70/70
f 72/72/72 73/73/73 70/70/70
f 70/70/70 73/73/73 56/56/56
f 73/73/73 74/74/74 56/56/56
f 56/56/56 74/74/74 55/55/55
f 74/74/74 75/75/75 55/55/55
f 55/55/55 75/75/75 60/60/60
f 75/75/75 76/76/76 60/60/60
f 60/60/60 76/76/76 59/59/59
f 76/76/76 77/77/77 59/59/59
f 59/59/59 77/77/77 57/57/57
f 77/77/77 78/78/78 57/57/57
f 57/57/57 78/78/78 58/58/58
f 78/78/78 79/79/79 58/58/58
f 58/58/58 79/79/79 61/61/61
f 79/79/79 80/80/80 61/61/61
f 61/61/61 80/80/80 62/62/62
f 80/80/80 81/81/81 62/62/62
f 62/62/62 81/81/81 63/63/63
f 81/81/81 82/82/82 63/63/63
f 63/63/63 82/82/82 64/64/64
f 82/82/82 83/83/83 64/64/64
f 64/64/64 83/83/83 65/65/65
f 83/83/83 84/84/84 65/65/65
f 65/65/65 84/84/84 66/66/66
f 84/84/84 85/85/85 66/66/66
f 66/66/66 85/85/85 67/67/67
f 85/85/85 86/86/86 67/67/67
f 67/67/67 86/86/86 68/68/68
f 86/86/86 71/71/71 68/68/68
f 85/85/85 87/87/87 86/86/86
f 86/86/86 87/87/87 71/71/71
f 84/84/84 87/87/87 85/85/85
f 80/80/80 88/88/88 81/81/81
f 81/81/81 89/89/89 82/82/82
f 82/82/82 90/90/90 83/83/83
f 83/83/83 91/91/91 84/84/84
f 71/71/71 91/91/91 72/72/72
f 72/72/72 90/90/90 73/73/73
f 73/73/73 89/89/89 74/74/74
f 74/74/74 88/88/88 75/75/75
f 79/79/79 92/92/92 80/80/80
f 75/75/75 92/92/92 76/76/76
f 76/76/76 93/93/93 77/77/77
f 78/78/78 93/93/93 79/79/79
f 77/77/77 93/93/93 78/78/78
f 94/94/94 3/3/3 1/1/1
