g cookware_bottleRed_floatTopHalf
v 0.0008979738 0.0003265142 0.01831605
v -0.04440805 0.1235047 8.493662E-07
v -0.1186198 0.05597554 0.004859716
v -0.1212511 8.493662E-07 0.005979985
v -8.493662E-07 8.493662E-07 0.01823789
v -0.1186198 0.05597554 0.004859716
v -0.04440805 0.1235047 8.493662E-07
v -0.04543714 0.1292363 0.01845933
v -0.1228925 0.05875018 0.02352664
v -0.1212511 8.493662E-07 0.005979985
v -0.04400423 0.1319198 0.06153785
v -0.1256671 8.493662E-07 0.02469902
v -0.1226059 0.06037849 0.06668329
v -0.04055221 0.1383418 0.165007
v -0.1254457 8.493662E-07 0.06789476
v -0.1219155 0.06429945 0.1703218
v -0.03622743 0.1463792 0.2945161
v -0.1249376 8.493662E-07 0.1716114
v -0.1210427 0.0691974 0.3000653
v -0.02673115 0.1306693 0.3636214
v -0.1242993 8.493662E-07 0.3014461
v -0.1013597 0.06273627 0.3685063
v -0.1043167 8.493662E-07 0.3697569
v -0.005393803 0.08204149 0.4327268
v -0.05007456 0.04137288 0.4356447
v -0.05202852 8.493662E-07 0.4364784
v -0.02667904 8.493662E-07 0.4930393
v -0.02516797 0.03198081 0.492401
v 0.005704746 0.06009191 0.4903819
v -0.009705558 8.493662E-07 0.6103686
v -0.008337781 0.02888051 0.6097955
v 0.01564392 0.05069983 0.6082323
v -0.01998344 8.493662E-07 0.6186013
v -0.0183942 0.03393477 0.617911
v 0.01211376 0.06169416 0.6159179
v -0.01619273 8.493662E-07 0.648927
v -0.01461653 0.03340068 0.6482626
v 0.01447155 0.05987045 0.6463608
v 6.428361E-05 2.68966E-05 0.6481323
v 0.001288772 0.02589744 0.6476113
v 0.01447155 0.05987045 0.6463608
v 0.02042465 0.04331383 0.6463608
v 0.05374633 0.05798163 0.6444459
v 0.04626914 0.0420763 0.6450971
v 0.05331645 0.05971414 0.6139249
v 0.01211376 0.06169416 0.6159179
v 0.08021609 0.02884142 0.6436642
v 0.06368551 0.02290136 0.6445892
v 0.07886134 8.493662E-07 0.6442374
v 0.06260432 8.493662E-07 0.645045
v 0.07970806 8.493662E-07 0.6136774
v 0.08107584 0.02915406 0.6130912
v 0.06867465 8.493662E-07 0.6065128
v 0.06986006 0.02511586 0.6060048
v 0.07422392 8.493662E-07 0.4880632
v 0.04802771 0.04914968 0.6066561
v 0.01564392 0.05069983 0.6082323
v 0.07550052 0.02714799 0.4875161
v 0.09398507 8.493662E-07 0.4292748
v 0.04740244 0.05808583 0.4883498
v 0.005704746 0.06009191 0.4903819
v 0.09560034 0.03437768 0.4285844
v 0.05494476 0.0791366 0.4297958
v -0.005393803 0.08204149 0.4327268
v -0.02673115 0.1306693 0.3636214
v 0.07406761 0.1258234 0.3587365
v -0.03622743 0.1463792 0.2945161
v 0.1419745 0.05105154 0.3567044
v 0.1395777 8.493662E-07 0.3577335
v 0.07831423 0.140869 0.2889538
v -0.04055221 0.1383418 0.165007
v 0.155483 0.05591041 0.2866611
v 0.1528516 8.493662E-07 0.2877814
v 0.06932598 0.1330531 0.1596792
v -0.04400423 0.1319198 0.06153785
v 0.06214839 0.1268134 0.05639239
v -0.04543714 0.1292363 0.01845933
v 0.05916534 0.1242082 0.01337902
v -0.04440805 0.1235047 8.493662E-07
v 0.1336767 0.04806848 0.05426908
v 0.05580451 0.1186979 -0.004858017
v 0.1296515 0.04662254 0.01128176
v 0.1314101 8.493662E-07 0.05523303
v 0.1233337 0.04434292 -0.006864101
v 0.12745 8.493662E-07 0.01221967
v 0.1212494 8.493662E-07 -0.005978301
v 0.0008979738 0.0003265142 0.01831605
v 0.05580451 0.1186979 -0.004858017
v -0.04440805 0.1235047 8.493662E-07
v 0.1233337 0.04434292 -0.006864101
v 0.1212494 8.493662E-07 -0.005978301
v 0.001588374 8.493662E-07 0.01818578
v 0.06932598 0.1330531 0.1596792
v 0.155483 0.05591041 0.2866611
v 0.07831423 0.140869 0.2889538
v 0.1433553 0.05154654 0.1574777
v 0.06214839 0.1268134 0.05639239
v 0.1528516 8.493662E-07 0.2877814
v 0.1336767 0.04806848 0.05426908
v 0.1409324 8.493662E-07 0.1585068
v 0.1314101 8.493662E-07 0.05523303
v 0.04461478 0.03958826 0.6332171
v 0.06072851 0.0218332 0.6327351
v 0.06673371 0.02399558 0.6946107
v 0.0490047 0.04352225 0.6951318
v 0.03434993 0.01234993 0.6964084
v 0.0655483 -0.001171529 0.6951188
v 0.02068517 0.04073459 0.6343764
v 0.02267823 0.04478581 0.6964084
v 0.00296919 0.02460782 0.6355357
v 0.003190637 0.02704377 0.697685
v 0.0021355 0.0003265142 0.6360047
v 0.00227879 0.0003525615 0.6982061
v 0.02854012 8.493662E-07 0.6969165
v 0.00227879 0.0003525615 0.6982061
v 0.03877892 8.493662E-07 0.6964084
v 0.0655483 -0.001171529 0.6951188
v 0.06072851 0.0218332 0.6327351
v 0.05964731 -0.001054302 0.633191
v 0.0655483 -0.001171529 0.6951188
v 0.06673371 0.02399558 0.6946107
vt 0.01610737 0.2720958
vt 0.01708629 0.2720958
vt 0.01708629 0.2720958
vt 0.01659683 0.2720958
vt 0.01610737 0.2720958
vt 0.01708629 0.2720958
vt 0.01708629 0.2720958
vt 0.01757575 0.2720958
vt 0.01708629 0.2720958
vt 0.01659683 0.2720958
vt 0.01757575 0.2725852
vt 0.01659683 0.2720958
vt 0.01708629 0.2725852
vt 0.01757575 0.2735642
vt 0.01659683 0.2725852
vt 0.01708629 0.2735642
vt 0.01757575 0.2745431
vt 0.01659683 0.2735642
vt 0.01708629 0.2745431
vt 0.01708629 0.275522
vt 0.01659683 0.2745431
vt 0.01708629 0.275522
vt 0.01659683 0.275522
vt 0.01659683 0.2760115
vt 0.01659683 0.2760115
vt 0.01610737 0.2760115
vt 0.01610737 0.2765009
vt 0.01659683 0.2765009
vt 0.01659683 0.2765009
vt 0.01610737 0.2774799
vt 0.01659683 0.2774799
vt 0.01659683 0.2774799
vt 0.01610737 0.2774799
vt 0.01659683 0.2774799
vt 0.01659683 0.2774799
vt 0.01610737 0.2779693
vt 0.01659683 0.2779693
vt 0.01659683 0.2779693
vt 0.01610737 0.2779693
vt 0.01610737 0.2779693
vt 0.01659683 0.2779693
vt 0.01659683 0.2779693
vt 0.01659683 0.2779693
vt 0.01610737 0.2779693
vt 0.01659683 0.2774799
vt 0.01659683 0.2774799
vt 0.01610737 0.2779693
vt 0.01610737 0.2779693
vt 0.01561791 0.2779693
vt 0.01610737 0.2779693
vt 0.01561791 0.2774799
vt 0.01610737 0.2774799
vt 0.01610737 0.2774799
vt 0.01610737 0.2774799
vt 0.01610737 0.2765009
vt 0.01659683 0.2774799
vt 0.01659683 0.2774799
vt 0.01610737 0.2765009
vt 0.01561791 0.2760115
vt 0.01659683 0.2765009
vt 0.01659683 0.2765009
vt 0.01610737 0.2760115
vt 0.01659683 0.2760115
vt 0.01659683 0.2760115
vt 0.01708629 0.275522
vt 0.01708629 0.275522
vt 0.01757575 0.2745431
vt 0.01610737 0.275522
vt 0.01561791 0.275522
vt 0.01708629 0.2745431
vt 0.01757575 0.2735642
vt 0.01610737 0.2745431
vt 0.01561791 0.2745431
vt 0.01708629 0.2735642
vt 0.01757575 0.2725852
vt 0.01708629 0.2725852
vt 0.01757575 0.2720958
vt 0.01708629 0.2720958
vt 0.01708629 0.2720958
vt 0.01610737 0.2725852
vt 0.01708629 0.2720958
vt 0.01610737 0.2720958
vt 0.01561791 0.2725852
vt 0.01610737 0.2720958
vt 0.01561791 0.2720958
vt 0.01561791 0.2720958
vt 0.01610737 0.2720958
vt 0.01708629 0.2720958
vt 0.01708629 0.2720958
vt 0.01610737 0.2720958
vt 0.01561791 0.2720958
vt 0.01610737 0.2720958
vt 0.6705175 0.8653232
vt 0.5515783 1.017546
vt 0.6759016 1.017546
vt 0.5515783 0.8653232
vt 0.6666018 0.7439367
vt 0.4908851 1.017546
vt 0.5515783 0.7439367
vt 0.4957797 0.8653232
vt 0.4992059 0.7439367
vt 0.461028 0.9343373
vt 0.4649436 0.9343373
vt 0.466412 0.9612577
vt 0.4620069 0.9612577
vt 0.4517282 0.9612577
vt 0.4624963 0.9612577
vt 0.4517282 0.9343373
vt 0.4517282 0.9612577
vt 0.4419389 0.9343373
vt 0.44096 0.9612577
vt 0.4380232 0.9343373
vt 0.4370443 0.9612577
vt 0.447323 0.9612577
vt 0.4370443 0.9612577
vt 0.4517282 0.9612577
vt 0.4605385 0.9612577
vt 0.4649436 0.9343373
vt 0.4615174 0.9343373
vt 0.4624963 0.9612577
vt 0.466412 0.9612577
vn -0.051727 -0.0892415 -0.9946659
vn -0.2553481 0.5842747 -0.7703378
vn -0.6077694 0.2553481 -0.75194
vn -0.5999379 0.01256913 -0.7999479
vn 0.09707308 -0.02658886 -0.994922
vn -0.6077694 0.2553481 -0.75194
vn -0.2553481 0.5842747 -0.7703378
vn -0.3414956 0.9210328 -0.1872945
vn -0.8975381 0.4198114 -0.1348468
vn -0.5999379 0.01256913 -0.7999479
vn -0.3414956 0.936696 -0.07733942
vn -0.9915171 0.04389542 -0.1223397
vn -0.9042073 0.427094 0
vn -0.3414956 0.936696 -0.07733942
vn -0.9990367 0.04388172 0
vn -0.9042073 0.427094 0
vn -0.333664 0.936696 0.1061554
vn -0.9990367 0.04388172 0
vn -0.8975381 0.427643 0.1074558
vn -0.2866746 0.8583801 0.4254424
vn -0.9915171 0.051727 0.1192398
vn -0.7957274 0.3963167 0.4579857
vn -0.8897066 0.051727 0.453593
vn -0.2631797 0.8113907 0.5219018
vn -0.748738 0.372822 0.5480832
vn -0.8583801 0.051727 0.5103997
vn -0.9601907 0.051727 0.2745143
vn -0.8583801 0.4198114 0.2948591
vn -0.3180009 0.9132013 0.2548311
vn -0.9288644 0.03606385 -0.3686602
vn -0.8113907 0.3649904 -0.4565382
vn -0.3180009 0.8192223 -0.477232
vn -0.9288644 0.03606385 -0.3686602
vn -0.8505486 0.3884851 -0.3544664
vn -0.333664 0.8583801 -0.3896818
vn -0.6469274 0.04389542 0.7612872
vn -0.6469274 0.333664 0.6856772
vn -0.2240219 0.7174117 0.6596473
vn 0.05008358 0.0204007 0.9985367
vn 0.05008358 0.0204007 0.9985367
vn -0.2240219 0.7174117 0.6596473
vn 0.05008358 0.0204007 0.9985367
vn 0.3555154 0.6939169 0.6261695
vn 0.05008358 0.0204007 0.9985367
vn 0.3711786 0.8270538 -0.4221474
vn -0.333664 0.8583801 -0.3896818
vn 0.739263 0.2631797 0.6198602
vn 0.05008358 0.0204007 0.9985367
vn 0.7001051 -0.01875728 0.7137934
vn 0.05008358 0.0204007 0.9985367
vn 0.8802315 -0.05008358 -0.4718942
vn 0.8410736 0.3023377 -0.4485388
vn 0.8880631 -0.05008358 -0.4569854
vn 0.8019156 0.2866746 -0.524165
vn 0.9820421 -0.042252 0.1838696
vn 0.3476838 0.7800643 -0.5202073
vn -0.3180009 0.8192223 -0.477232
vn 0.9193894 0.333664 0.2083061
vn 0.9037263 -0.03442043 0.4267248
vn 0.4259996 0.8818749 0.2020421
vn -0.3180009 0.9132013 0.2548311
vn 0.833242 0.2945061 0.4679465
vn 0.3868417 0.7800643 0.4917857
vn -0.2631797 0.8113907 0.5219018
vn -0.2866746 0.8583801 0.4254424
vn 0.4103365 0.8270538 0.3841951
vn -0.333664 0.936696 0.1061554
vn 0.8723999 0.3101693 0.3777742
vn 0.927221 -0.03442043 0.3729296
vn 0.4257506 0.9048405 0
vn -0.3414956 0.936696 -0.07733942
vn 0.9402319 0.3405349 0
vn 0.9977053 -0.042252 0.05290521
vn 0.4257506 0.9048405 0
vn -0.3414956 0.936696 -0.07733942
vn 0.4257506 0.9048405 0
vn -0.3414956 0.9210328 -0.1872945
vn 0.4103365 0.8897066 -0.2001155
vn -0.2553481 0.5842747 -0.7703378
vn 0.9350526 0.333664 -0.1197702
vn 0.23021 0.56078 -0.795317
vn 0.9193894 0.333664 -0.2083061
vn 0.9977053 -0.05008358 -0.04556126
vn 0.5591366 0.2005271 -0.8044596
vn 0.9742105 -0.05008358 -0.2200126
vn 0.4886523 -0.042252 -0.871455
vn -0.051727 -0.0892415 -0.9946659
vn 0.23021 0.56078 -0.795317
vn -0.2553481 0.5842747 -0.7703378
vn 0.5591366 0.2005271 -0.8044596
vn 0.4886523 -0.042252 -0.871455
vn -0.2005271 -0.01092565 -0.9796272
vn 0.4257506 0.9048405 0
vn 0.9402319 0.3405349 0
vn 0.4257506 0.9048405 0
vn 0.9350526 0.333664 -0.1197702
vn 0.4257506 0.9048405 0
vn 0.9977053 -0.042252 0.05290521
vn 0.9350526 0.333664 -0.1197702
vn 0.9977053 -0.05008358 -0.04556126
vn 0.9977053 -0.05008358 -0.04556126
vn 0.4257506 0.9048405 0
vn 0.9350526 0.333664 -0.1197702
vn 0.7705894 0.278843 0.5730957
vn 0.363347 0.7252433 0.5848086
vn 0.05008358 0.0204007 0.9985367
vn 0.7470946 -0.01875728 0.664453
vn -0.3414956 0.936696 -0.07733942
vn -0.239685 0.7565696 0.6084024
vn -0.9053697 0.4198114 -0.06375016
vn -0.6860853 0.3414956 0.6423922
vn -0.9993487 0.03606385 -0.001257532
vn -0.6860853 0.03606385 0.7266268
vn 0.05008358 0.0204007 0.9985367
vn -0.6860853 0.03606385 0.7266268
vn 0.05008358 0.0204007 0.9985367
vn 0.7470946 -0.01875728 0.664453
vn 0.9350526 0.333664 -0.1197702
vn 0.9977053 -0.05008358 -0.04556126
vn 0.7470946 -0.01875728 0.664453
vn 0.7705894 0.278843 0.5730957
g cookware_bottleRed_floatTopHalf_0
f 3/3/3 2/2/2 1/1/1
f 4/4/4 3/3/3 1/1/1
f 5/5/5 4/4/4 1/1/1
f 8/8/8 7/7/7 6/6/6
f 9/9/9 8/8/8 6/6/6
f 9/9/9 6/6/6 10/10/10
f 11/11/11 8/8/8 9/9/9
f 12/12/12 9/9/9 10/10/10
f 13/13/13 11/11/11 9/9/9
f 13/13/13 9/9/9 12/12/12
f 14/14/14 11/11/11 13/13/13
f 15/15/15 13/13/13 12/12/12
f 16/16/16 14/14/14 13/13/13
f 16/16/16 13/13/13 15/15/15
f 17/17/17 14/14/14 16/16/16
f 18/18/18 16/16/16 15/15/15
f 19/19/19 17/17/17 16/16/16
f 19/19/19 16/16/16 18/18/18
f 20/20/20 17/17/17 19/19/19
f 21/21/21 19/19/19 18/18/18
f 22/22/22 20/20/20 19/19/19
f 22/22/22 19/19/19 21/21/21
f 23/23/23 22/22/22 21/21/21
f 24/24/24 20/20/20 22/22/22
f 25/25/25 22/22/22 23/23/23
f 25/25/25 24/24/24 22/22/22
f 26/26/26 25/25/25 23/23/23
f 26/26/26 27/27/27 25/25/25
f 25/25/25 28/28/28 24/24/24
f 27/27/27 28/28/28 25/25/25
f 28/28/28 29/29/29 24/24/24
f 27/27/27 30/30/30 28/28/28
f 28/28/28 31/31/31 29/29/29
f 30/30/30 31/31/31 28/28/28
f 31/31/31 32/32/32 29/29/29
f 30/30/30 33/33/33 31/31/31
f 31/31/31 34/34/34 32/32/32
f 33/33/33 34/34/34 31/31/31
f 34/34/34 35/35/35 32/32/32
f 33/33/33 36/36/36 34/34/34
f 34/34/34 37/37/37 35/35/35
f 36/36/36 37/37/37 34/34/34
f 37/37/37 38/38/38 35/35/35
f 36/36/36 39/39/39 37/37/37
f 39/39/39 40/40/40 37/37/37
f 37/37/37 40/40/40 41/41/41
f 40/40/40 42/42/42 41/41/41
f 41/41/41 42/42/42 43/43/43
f 42/42/42 44/44/44 43/43/43
f 41/41/41 43/43/43 45/45/45
f 46/46/46 41/41/41 45/45/45
f 43/43/43 44/44/44 47/47/47
f 44/44/44 48/48/48 47/47/47
f 47/47/47 48/48/48 49/49/49
f 48/48/48 50/50/50 49/49/49
f 47/47/47 49/49/49 51/51/51
f 43/43/43 47/47/47 52/52/52
f 52/52/52 47/47/47 51/51/51
f 45/45/45 43/43/43 52/52/52
f 52/52/52 51/51/51 53/53/53
f 54/54/54 52/52/52 53/53/53
f 45/45/45 52/52/52 54/54/54
f 54/54/54 53/53/53 55/55/55
f 46/46/46 45/45/45 56/56/56
f 56/56/56 45/45/45 54/54/54
f 57/57/57 46/46/46 56/56/56
f 58/58/58 54/54/54 55/55/55
f 56/56/56 54/54/54 58/58/58
f 58/58/58 55/55/55 59/59/59
f 57/57/57 56/56/56 60/60/60
f 60/60/60 56/56/56 58/58/58
f 61/61/61 57/57/57 60/60/60
f 62/62/62 58/58/58 59/59/59
f 60/60/60 58/58/58 62/62/62
f 61/61/61 60/60/60 63/63/63
f 63/63/63 60/60/60 62/62/62
f 64/64/64 61/61/61 63/63/63
f 64/64/64 63/63/63 65/65/65
f 63/63/63 66/66/66 65/65/65
f 63/63/63 62/62/62 66/66/66
f 65/65/65 66/66/66 67/67/67
f 62/62/62 59/59/59 68/68/68
f 62/62/62 68/68/68 66/66/66
f 59/59/59 69/69/69 68/68/68
f 66/66/66 70/70/70 67/67/67
f 66/66/66 68/68/68 70/70/70
f 67/67/67 70/70/70 71/71/71
f 68/68/68 69/69/69 72/72/72
f 68/68/68 72/72/72 70/70/70
f 69/69/69 73/73/73 72/72/72
f 70/70/70 74/74/74 71/71/71
f 71/71/71 74/74/74 75/75/75
f 74/74/74 76/76/76 75/75/75
f 75/75/75 76/76/76 77/77/77
f 76/76/76 78/78/78 77/77/77
f 77/77/77 78/78/78 79/79/79
f 76/76/76 80/80/80 78/78/78
f 78/78/78 81/81/81 79/79/79
f 80/80/80 82/82/82 78/78/78
f 78/78/78 82/82/82 81/81/81
f 80/80/80 83/83/83 82/82/82
f 82/82/82 84/84/84 81/81/81
f 83/83/83 85/85/85 82/82/82
f 82/82/82 85/85/85 84/84/84
f 85/85/85 86/86/86 84/84/84
f 89/89/89 88/88/88 87/87/87
f 88/88/88 90/90/90 87/87/87
f 90/90/90 91/91/91 87/87/87
f 91/91/91 92/92/92 87/87/87
f 95/95/95 94/94/94 93/93/93
f 94/94/94 96/96/96 93/93/93
f 93/93/93 96/96/96 97/97/97
f 94/94/94 98/98/98 96/96/96
f 96/96/96 99/99/99 97/97/97
f 98/98/98 100/100/100 96/96/96
f 96/96/96 100/100/100 99/99/99
f 100/100/100 101/101/101 99/99/99
f 104/104/104 103/103/103 102/102/102
f 105/105/105 104/104/104 102/102/102
f 104/104/104 105/105/105 106/106/106
f 107/107/107 104/104/104 106/106/106
f 105/105/105 102/102/102 108/108/108
f 109/109/109 105/105/105 108/108/108
f 105/105/105 109/109/109 106/106/106
f 109/109/109 108/108/108 110/110/110
f 111/111/111 109/109/109 110/110/110
f 109/109/109 111/111/111 106/106/106
f 111/111/111 110/110/110 112/112/112
f 113/113/113 111/111/111 112/112/112
f 111/111/111 113/113/113 106/106/106
f 115/115/115 114/114/114 106/106/106
f 114/114/114 116/116/116 106/106/106
f 116/116/116 117/117/117 106/106/106
f 120/120/120 119/119/119 118/118/118
f 121/121/121 120/120/120 118/118/118
