g cookware_bottleRed(Clone)
v -9.089708E-07 0.01834857 9.089708E-07
v 0.09281062 9.089708E-07 -0.09281062
v -9.089708E-07 9.089708E-07 -0.1312515
v 0.09687065 0.01847787 -0.09687065
v -9.089708E-07 0.01847787 -0.1369924
v 0.1312515 9.089708E-07 9.089708E-07
v 0.1369924 0.01847787 9.089708E-07
v 0.09281062 9.089708E-07 0.09281243
v 0.09687065 0.01847787 0.09687245
v -9.089708E-07 9.089708E-07 0.1312533
v -9.089708E-07 0.01847787 0.1369942
v -0.09281243 9.089708E-07 0.09281243
v -0.09687245 0.01847787 0.09687245
v -0.1312533 9.089708E-07 9.089708E-07
v -0.1369942 0.01847787 9.089708E-07
v -0.09281243 9.089708E-07 -0.09281062
v -0.09687245 0.01847787 -0.09687065
v -9.089708E-07 0.06162527 -0.1390224
v -0.09830768 0.06162527 -0.09830587
v -0.1390243 0.06162527 9.089708E-07
v -0.1017471 0.1652333 -0.1017452
v -0.1438988 0.1652333 9.089708E-07
v -0.1060657 0.2949212 -0.1060639
v -0.1500018 0.2949212 9.089708E-07
v -0.1017471 0.1652333 0.1017471
v -0.1060657 0.2949212 0.1060657
v -9.089708E-07 0.1652333 0.1438988
v -9.089708E-07 0.2949212 0.1500018
v 0.1017452 0.1652333 0.1017471
v 0.1060639 0.2949212 0.1060657
v 0.143897 0.1652333 9.089708E-07
v 0.15 0.2949212 9.089708E-07
v 0.1017452 0.1652333 -0.1017452
v 0.1060639 0.2949212 -0.1060639
v -0.09334256 0.3641097 -0.09334075
v -9.089708E-07 0.3641097 -0.1320014
v -9.089708E-07 0.433311 -0.07902724
v 0.05588255 0.433311 -0.05588255
v 0.09334075 0.3641097 -0.09334075
v 0.07902724 0.433311 9.089708E-07
v 0.1320014 0.3641097 9.089708E-07
v 0.05588255 0.433311 0.05588436
v 0.09334075 0.3641097 0.09334256
v -9.089708E-07 0.433311 0.07902905
v -9.089708E-07 0.3641097 0.1320032
v -0.05588436 0.433311 0.05588436
v -0.09334256 0.3641097 0.09334256
v -0.07902905 0.433311 9.089708E-07
v -0.1320032 0.3641097 9.089708E-07
v -0.05588436 0.433311 -0.05588255
v -0.03862281 0.4910434 0.03862281
v -0.05461721 0.4910434 9.089708E-07
v -9.089708E-07 0.4910434 0.05461721
v 0.038621 0.4910434 0.03862281
v -0.03862281 0.4910434 -0.038621
v -9.089708E-07 0.4910434 -0.05461541
v 0.05461541 0.4910434 9.089708E-07
v 0.038621 0.4910434 -0.038621
v -9.089708E-07 0.6090555 -0.04242242
v 0.02999669 0.6090555 -0.02999669
v -9.089708E-07 0.6167618 -0.05395598
v -0.03815733 0.6167618 -0.03815552
v -0.03637299 0.6472378 -0.03637118
v -0.05143644 0.6472378 9.089708E-07
v -0.05395779 0.6167618 9.089708E-07
v -9.089708E-07 0.6472378 -0.05144756
v 0.03815552 0.6167618 -0.03815552
v 0.03637118 0.6472378 -0.03637118
v 0.05395598 0.6167618 9.089708E-07
v 0.05144756 0.6472378 9.089708E-07
v 0.03815552 0.6167618 0.03815733
v 0.03637118 0.6472378 0.03637299
v -9.089708E-07 0.6167618 0.05395779
v -9.089708E-07 0.6472378 0.05143644
v -0.03815733 0.6167618 0.03815733
v -0.03637299 0.6472378 0.03637299
v -0.02393433 0.6472378 -0.02393252
v -9.089708E-07 0.6472378 -0.03384984
v -0.02393433 0.6472378 0.02393433
v -0.03385164 0.6472378 9.089708E-07
v 0.02393252 0.6472378 0.02393433
v -9.089708E-07 0.6472378 0.03385164
v 0.02393252 0.6472378 -0.02393252
v 0.03384984 0.6472378 9.089708E-07
v -0.0299985 0.6090555 0.0299985
v -0.04242423 0.6090555 9.089708E-07
v -0.0299985 0.6090555 -0.02999669
v -9.089708E-07 0.6090555 0.04242423
v 0.02999669 0.6090555 0.0299985
v 0.04242242 0.6090555 9.089708E-07
v -0.1017471 0.1652333 -0.1017452
v -9.089708E-07 0.1652333 -0.143897
v -9.089708E-07 0.2949212 -0.15
v -0.1060657 0.2949212 -0.1060639
v 0.1060639 0.2949212 -0.1060639
v 0.1017452 0.1652333 -0.1017452
v -9.089708E-07 0.06162527 -0.1390224
v 0.09830587 0.06162527 -0.09830587
v -0.09830768 0.06162527 -0.09830587
v -9.089708E-07 0.2949212 -0.15
v -9.089708E-07 0.6973674 9.089708E-07
v -9.089708E-07 0.6973674 -0.03447047
v 0.02437215 0.6973674 -0.02437215
v -9.089708E-07 0.6352518 -0.03132848
v 0.02216111 0.6352518 -0.02216111
v 0.03447047 0.6973674 9.089708E-07
v 0.03132848 0.6352518 9.089708E-07
v 0.02437215 0.6973674 0.02437395
v 0.02216111 0.6352518 0.02214999
v -9.089708E-07 0.6973674 0.03447227
v -9.089708E-07 0.6352518 0.03133029
v -0.02437395 0.6973674 0.02437395
v -0.02214999 0.6352518 0.02214999
v -0.03447227 0.6973674 9.089708E-07
v -0.03133029 0.6352518 9.089708E-07
v -0.02437395 0.6973674 -0.02437215
v -0.02214999 0.6352518 -0.02216111
v 0.09830587 0.06162527 -0.09830587
v 0.1390224 0.06162527 9.089708E-07
v 0.09830587 0.06162527 0.09830768
v -9.089708E-07 0.06162527 0.1390243
v -0.09830768 0.06162527 0.09830768
vt 0.717454 0.6988187
vt 0.717454 0.6988187
vt 0.717454 0.6988187
vt 0.717454 0.6988187
vt 0.717454 0.6988187
vt 0.717454 0.6988187
vt 0.717454 0.6988187
vt 0.717454 0.6988187
vt 0.717454 0.6988187
vt 0.717454 0.6988187
vt 0.717454 0.6988187
vt 0.717454 0.6988187
vt 0.717454 0.6988187
vt 0.717454 0.6988187
vt 0.717454 0.6988187
vt 0.717454 0.6988187
vt 0.717454 0.6988187
vt 0.717454 0.6988187
vt 0.717454 0.6988187
vt 0.717454 0.6988187
vt 0.717454 0.6988187
vt 0.717454 0.6988187
vt 0.717454 0.6988187
vt 0.717454 0.6988187
vt 0.717454 0.6988187
vt 0.717454 0.6988187
vt 0.717454 0.6988187
vt 0.717454 0.6988187
vt 0.717454 0.6988187
vt 0.717454 0.6988187
vt 0.717454 0.6988187
vt 0.717454 0.6988187
vt 0.717454 0.6988187
vt 0.717454 0.6988187
vt 0.717454 0.6988187
vt 0.717454 0.6988187
vt 0.717454 0.6988187
vt 0.717454 0.6988187
vt 0.717454 0.6988187
vt 0.717454 0.6988187
vt 0.717454 0.6988187
vt 0.717454 0.6988187
vt 0.717454 0.6988187
vt 0.717454 0.6988187
vt 0.717454 0.6988187
vt 0.717454 0.6988187
vt 0.717454 0.6988187
vt 0.717454 0.6988187
vt 0.717454 0.6988187
vt 0.717454 0.6988187
vt 0.717454 0.6988187
vt 0.717454 0.6988187
vt 0.717454 0.6988187
vt 0.717454 0.6988187
vt 0.717454 0.6988187
vt 0.717454 0.6988187
vt 0.717454 0.6988187
vt 0.717454 0.6988187
vt 0.717454 0.6988187
vt 0.717454 0.6988187
vt 0.717454 0.6988187
vt 0.717454 0.6988187
vt 0.717454 0.6988187
vt 0.717454 0.6988187
vt 0.717454 0.6988187
vt 0.717454 0.6988187
vt 0.717454 0.6988187
vt 0.717454 0.6988187
vt 0.717454 0.6988187
vt 0.717454 0.6988187
vt 0.717454 0.6988187
vt 0.717454 0.6988187
vt 0.717454 0.6988187
vt 0.717454 0.6988187
vt 0.717454 0.6988187
vt 0.717454 0.6988187
vt 0.717454 0.6988187
vt 0.717454 0.6988187
vt 0.717454 0.6988187
vt 0.717454 0.6988187
vt 0.717454 0.6988187
vt 0.717454 0.6988187
vt 0.717454 0.6988187
vt 0.717454 0.6988187
vt 0.717454 0.6988187
vt 0.717454 0.6988187
vt 0.717454 0.6988187
vt 0.717454 0.6988187
vt 0.717454 0.6988187
vt 0.717454 0.6988187
vt 0.6705445 0.8658934
vt 0.5510218 0.8658934
vt 0.5510218 1.017546
vt 0.6756853 1.017546
vt 0.4270009 1.017546
vt 0.4321416 0.8658934
vt 0.5510218 0.7438003
vt 0.4366398 0.7438003
vt 0.6666889 0.7438003
vt 0.717454 0.6988187
vt 0.4289287 0.9352937
vt 0.4289287 0.9352937
vt 0.4289287 0.9352937
vt 0.4289287 0.9352937
vt 0.4289287 0.9352937
vt 0.4289287 0.9352937
vt 0.4289287 0.9352937
vt 0.4289287 0.9352937
vt 0.4289287 0.9352937
vt 0.4289287 0.9352937
vt 0.4289287 0.9352937
vt 0.4289287 0.9352937
vt 0.4289287 0.9352937
vt 0.4289287 0.9352937
vt 0.4289287 0.9352937
vt 0.4289287 0.9352937
vt 0.4289287 0.9352937
vt 0.717454 0.6988187
vt 0.717454 0.6988187
vt 0.717454 0.6988187
vt 0.717454 0.6988187
vt 0.717454 0.6988187
vn -0.003921509 -0.9999924 0
vn 0.4431339 -0.7725431 -0.4547631
vn -0.003921509 -0.7725431 -0.6349502
vn 0.6941124 -0.1686262 -0.699838
vn -0.003921509 -0.1686262 -0.9856722
vn 0.6313677 -0.7725431 -0.06746724
vn 0.9843062 -0.1686262 -0.05202392
vn 0.4431339 -0.7725431 0.4547631
vn 0.6941124 -0.1686262 0.699838
vn -0.003921509 -0.7725431 0.6349502
vn -0.003921509 -0.1686262 0.9856722
vn -0.4431338 -0.7725431 0.4547631
vn -0.6941123 -0.1686262 0.6998381
vn -0.6313677 -0.7725431 -0.06746812
vn -0.9843061 -0.1686262 -0.05202622
vn -0.4431338 -0.7725431 -0.4547631
vn -0.6941123 -0.1686262 -0.6998381
vn -0.003921509 -0.04313695 -0.9990615
vn -0.7097985 -0.04313695 -0.7030827
vn -0.9990709 -0.04309721 0
vn -0.7097985 -0.04313695 -0.7030827
vn -0.9990709 -0.04309721 0
vn -0.7019553 0.09803843 -0.7054412
vn -0.9921492 0.09803843 -0.07764255
vn -0.7097985 -0.04313695 0.7030827
vn -0.7019553 0.09803843 0.7054412
vn -0.003921509 -0.04313695 0.9990615
vn -0.003921509 0.09803843 0.9951749
vn 0.7097985 -0.04313695 0.7030827
vn 0.7019554 0.09803843 0.705441
vn 0.9990709 -0.04309721 0
vn 0.9921493 0.09803843 -0.07764179
vn 0.7097985 -0.04313695 -0.7030827
vn 0.7019554 0.09803843 -0.705441
vn -0.6392107 0.4196045 -0.6444701
vn -0.003921509 0.4196045 -0.9076986
vn -0.003921509 0.5137215 -0.8579481
vn 0.6078385 0.5137215 -0.6054937
vn 0.6392108 0.4196045 -0.64447
vn 0.8581837 0.5133427 0
vn 0.9058754 0.4196045 -0.05763413
vn 0.6078385 0.5137215 0.6054937
vn 0.6392108 0.4196045 0.64447
vn -0.003921509 0.5137215 0.8579481
vn -0.003921509 0.4196045 0.9076986
vn -0.6078384 0.5137215 0.6054938
vn -0.6392107 0.4196045 0.6444701
vn -0.8581837 0.5133427 0
vn -0.9058753 0.4196045 -0.05763619
vn -0.6078384 0.5137215 -0.6054938
vn -0.6862692 0.2549 0.6812199
vn -0.9670746 0.2544933 0
vn -0.003921509 0.2549 0.9669595
vn 0.6862693 0.2549 0.6812199
vn -0.6862692 0.2549 -0.6812199
vn -0.003921509 0.2549 -0.9669595
vn 0.9670746 0.2544933 0
vn 0.6862693 0.2549 -0.6812199
vn -0.003921509 -0.4823493 -0.8759702
vn 0.6156816 -0.4823493 -0.6231174
vn -0.003921509 -0.3960754 -0.9182096
vn -0.6470538 -0.3960754 -0.6514949
vn -0.5294076 0.66274 -0.5296256
vn -0.7489218 0.6626585 0
vn -0.9187401 -0.3948628 0
vn -0.003921509 0.66274 -0.7488393
vn 0.6470539 -0.3960754 -0.6514948
vn 0.5294077 0.66274 -0.5296255
vn 0.9187401 -0.3948628 0
vn 0.7489218 0.6626585 0
vn 0.6470539 -0.3960754 0.6514948
vn 0.5294077 0.66274 0.5296255
vn -0.003921509 -0.3960754 0.9182096
vn -0.003921509 0.66274 0.7488393
vn -0.6470538 -0.3960754 0.6514949
vn -0.5294076 0.66274 0.5296256
vn -0.003921509 0.9999923 -0.000345267
vn -0.003921509 0.9999923 -0.000345267
vn -0.003921509 0.9999923 -0.000345267
vn -0.003921509 0.9999923 -0.000345267
vn -0.003921509 0.9999923 -0.000345267
vn -0.003921509 0.9999923 -0.000345267
vn -0.003921509 0.9999923 -0.000345267
vn -0.003921509 0.9999923 -0.000345267
vn -0.6156815 -0.4823493 0.6231175
vn -0.874503 -0.4823493 -0.05082935
vn -0.6156815 -0.4823493 -0.6231175
vn -0.003921509 -0.4823493 0.8759702
vn 0.6156816 -0.4823493 0.6231174
vn 0.8745031 -0.4823493 -0.05082759
vn -0.7097985 -0.04313695 -0.7030827
vn -0.003921509 -0.04313695 -0.9990615
vn -0.003921509 0.09803843 -0.9951749
vn -0.7019553 0.09803843 -0.7054412
vn 0.7019554 0.09803843 -0.705441
vn 0.7097985 -0.04313695 -0.7030827
vn -0.003921509 -0.04313695 -0.9990615
vn 0.7097985 -0.04313695 -0.7030827
vn -0.7097985 -0.04313695 -0.7030827
vn -0.003921509 0.09803843 -0.9951749
vn -0.003921509 0.9999923 -0.000345267
vn -0.003921509 0.6078384 -0.7940511
vn 0.56078 0.6078384 -0.5621906
vn -0.003921509 -0.05098003 -0.998692
vn 0.7097985 -0.05098003 -0.7025576
vn 0.7882293 0.6078384 -0.09605778
vn 0.998703 -0.0509143 0
vn 0.56078 0.6078384 0.5621906
vn 0.7097985 -0.05098003 0.7025576
vn -0.003921509 0.6078384 0.7940511
vn -0.003921509 -0.05098003 0.998692
vn -0.5607799 0.6078384 0.5621907
vn -0.7097985 -0.05098003 0.7025576
vn -0.7882292 0.6078384 -0.0960584
vn -0.998703 -0.05091431 0
vn -0.5607799 0.6078384 -0.5621907
vn -0.7097985 -0.05098003 -0.7025576
vn 0.7097985 -0.04313695 -0.7030827
vn 0.9990709 -0.04309721 0
vn 0.7097985 -0.04313695 0.7030827
vn -0.003921509 -0.04313695 0.9990615
vn -0.7097985 -0.04313695 0.7030827
g cookware_bottleRed(Clone)_0
f 3/3/3 2/2/2 1/1/1
f 4/4/4 2/2/2 3/3/3
f 5/5/5 4/4/4 3/3/3
f 2/2/2 6/6/6 1/1/1
f 7/7/7 6/6/6 2/2/2
f 4/4/4 7/7/7 2/2/2
f 6/6/6 8/8/8 1/1/1
f 9/9/9 8/8/8 6/6/6
f 7/7/7 9/9/9 6/6/6
f 8/8/8 10/10/10 1/1/1
f 11/11/11 10/10/10 8/8/8
f 9/9/9 11/11/11 8/8/8
f 10/10/10 12/12/12 1/1/1
f 13/13/13 12/12/12 10/10/10
f 11/11/11 13/13/13 10/10/10
f 12/12/12 14/14/14 1/1/1
f 15/15/15 14/14/14 12/12/12
f 13/13/13 15/15/15 12/12/12
f 14/14/14 16/16/16 1/1/1
f 16/16/16 3/3/3 1/1/1
f 5/5/5 3/3/3 16/16/16
f 17/17/17 16/16/16 14/14/14
f 15/15/15 17/17/17 14/14/14
f 17/17/17 5/5/5 16/16/16
f 18/18/18 5/5/5 17/17/17
f 19/19/19 18/18/18 17/17/17
f 19/19/19 17/17/17 15/15/15
f 20/20/20 19/19/19 15/15/15
f 20/20/20 15/15/15 13/13/13
f 21/21/21 19/19/19 20/20/20
f 22/22/22 21/21/21 20/20/20
f 23/23/23 21/21/21 22/22/22
f 24/24/24 23/23/23 22/22/22
f 24/24/24 22/22/22 25/25/25
f 26/26/26 24/24/24 25/25/25
f 26/26/26 25/25/25 27/27/27
f 28/28/28 26/26/26 27/27/27
f 28/28/28 27/27/27 29/29/29
f 30/30/30 28/28/28 29/29/29
f 30/30/30 29/29/29 31/31/31
f 32/32/32 30/30/30 31/31/31
f 32/32/32 31/31/31 33/33/33
f 34/34/34 32/32/32 33/33/33
f 35/35/35 23/23/23 24/24/24
f 35/35/35 36/36/36 23/23/23
f 37/37/37 36/36/36 35/35/35
f 37/37/37 38/38/38 36/36/36
f 38/38/38 39/39/39 36/36/36
f 38/38/38 40/40/40 39/39/39
f 40/40/40 41/41/41 39/39/39
f 41/41/41 32/32/32 34/34/34
f 39/39/39 41/41/41 34/34/34
f 40/40/40 42/42/42 41/41/41
f 42/42/42 43/43/43 41/41/41
f 43/43/43 30/30/30 32/32/32
f 41/41/41 43/43/43 32/32/32
f 42/42/42 44/44/44 43/43/43
f 44/44/44 45/45/45 43/43/43
f 43/43/43 45/45/45 30/30/30
f 44/44/44 46/46/46 45/45/45
f 46/46/46 47/47/47 45/45/45
f 46/46/46 48/48/48 47/47/47
f 48/48/48 49/49/49 47/47/47
f 50/50/50 35/35/35 49/49/49
f 48/48/48 50/50/50 49/49/49
f 50/50/50 37/37/37 35/35/35
f 49/49/49 35/35/35 24/24/24
f 49/49/49 24/24/24 26/26/26
f 47/47/47 49/49/49 26/26/26
f 47/47/47 26/26/26 28/28/28
f 45/45/45 47/47/47 28/28/28
f 45/45/45 28/28/28 30/30/30
f 46/46/46 51/51/51 48/48/48
f 51/51/51 52/52/52 48/48/48
f 48/48/48 52/52/52 50/50/50
f 53/53/53 51/51/51 46/46/46
f 44/44/44 53/53/53 46/46/46
f 54/54/54 53/53/53 44/44/44
f 42/42/42 54/54/54 44/44/44
f 52/52/52 55/55/55 50/50/50
f 50/50/50 55/55/55 37/37/37
f 55/55/55 56/56/56 37/37/37
f 57/57/57 54/54/54 42/42/42
f 40/40/40 57/57/57 42/42/42
f 58/58/58 57/57/57 40/40/40
f 38/38/38 58/58/58 40/40/40
f 56/56/56 58/58/58 38/38/38
f 37/37/37 56/56/56 38/38/38
f 56/56/56 59/59/59 58/58/58
f 59/59/59 60/60/60 58/58/58
f 58/58/58 60/60/60 57/57/57
f 59/59/59 61/61/61 60/60/60
f 62/62/62 61/61/61 59/59/59
f 62/62/62 63/63/63 61/61/61
f 64/64/64 63/63/63 62/62/62
f 65/65/65 64/64/64 62/62/62
f 63/63/63 66/66/66 61/61/61
f 61/61/61 66/66/66 67/67/67
f 61/61/61 67/67/67 60/60/60
f 66/66/66 68/68/68 67/67/67
f 67/67/67 68/68/68 69/69/69
f 68/68/68 70/70/70 69/69/69
f 69/69/69 70/70/70 71/71/71
f 70/70/70 72/72/72 71/71/71
f 71/71/71 72/72/72 73/73/73
f 72/72/72 74/74/74 73/73/73
f 73/73/73 74/74/74 75/75/75
f 74/74/74 76/76/76 75/75/75
f 76/76/76 64/64/64 65/65/65
f 75/75/75 76/76/76 65/65/65
f 63/63/63 77/77/77 66/66/66
f 77/77/77 78/78/78 66/66/66
f 66/66/66 78/78/78 68/68/68
f 76/76/76 79/79/79 64/64/64
f 79/79/79 80/80/80 64/64/64
f 72/72/72 81/81/81 74/74/74
f 81/81/81 82/82/82 74/74/74
f 82/82/82 79/79/79 76/76/76
f 74/74/74 82/82/82 76/76/76
f 68/68/68 83/83/83 70/70/70
f 78/78/78 83/83/83 68/68/68
f 83/83/83 84/84/84 70/70/70
f 84/84/84 81/81/81 72/72/72
f 70/70/70 84/84/84 72/72/72
f 80/80/80 77/77/77 63/63/63
f 64/64/64 80/80/80 63/63/63
f 73/73/73 75/75/75 85/85/85
f 85/85/85 75/75/75 86/86/86
f 75/75/75 65/65/65 86/86/86
f 86/86/86 65/65/65 87/87/87
f 65/65/65 62/62/62 87/87/87
f 87/87/87 62/62/62 59/59/59
f 86/86/86 87/87/87 55/55/55
f 52/52/52 86/86/86 55/55/55
f 85/85/85 86/86/86 52/52/52
f 87/87/87 59/59/59 56/56/56
f 55/55/55 87/87/87 56/56/56
f 51/51/51 85/85/85 52/52/52
f 88/88/88 85/85/85 51/51/51
f 88/88/88 73/73/73 85/85/85
f 71/71/71 73/73/73 88/88/88
f 89/89/89 71/71/71 88/88/88
f 69/69/69 71/71/71 89/89/89
f 90/90/90 69/69/69 89/89/89
f 67/67/67 69/69/69 90/90/90
f 60/60/60 67/67/67 90/90/90
f 90/90/90 89/89/89 54/54/54
f 57/57/57 90/90/90 54/54/54
f 60/60/60 90/90/90 57/57/57
f 89/89/89 88/88/88 53/53/53
f 54/54/54 89/89/89 53/53/53
f 53/53/53 88/88/88 51/51/51
f 93/93/93 92/92/92 91/91/91
f 94/94/94 93/93/93 91/91/91
f 93/93/93 95/95/95 92/92/92
f 95/95/95 96/96/96 92/92/92
f 92/92/92 96/96/96 97/97/97
f 96/96/96 98/98/98 97/97/97
f 92/92/92 97/97/97 99/99/99
f 91/91/91 92/92/92 99/99/99
f 36/36/36 100/100/100 23/23/23
f 36/36/36 39/39/39 100/100/100
f 39/39/39 34/34/34 100/100/100
f 103/103/103 102/102/102 101/101/101
f 102/102/102 103/103/103 104/104/104
f 103/103/103 105/105/105 104/104/104
f 106/106/106 103/103/103 101/101/101
f 103/103/103 106/106/106 105/105/105
f 106/106/106 107/107/107 105/105/105
f 108/108/108 106/106/106 101/101/101
f 106/106/106 108/108/108 107/107/107
f 108/108/108 109/109/109 107/107/107
f 110/110/110 108/108/108 101/101/101
f 108/108/108 110/110/110 109/109/109
f 110/110/110 111/111/111 109/109/109
f 112/112/112 110/110/110 101/101/101
f 110/110/110 112/112/112 111/111/111
f 112/112/112 113/113/113 111/111/111
f 114/114/114 112/112/112 101/101/101
f 112/112/112 114/114/114 113/113/113
f 114/114/114 115/115/115 113/113/113
f 116/116/116 114/114/114 101/101/101
f 114/114/114 116/116/116 115/115/115
f 102/102/102 116/116/116 101/101/101
f 116/116/116 117/117/117 115/115/115
f 102/102/102 104/104/104 117/117/117
f 116/116/116 102/102/102 117/117/117
f 31/31/31 119/119/119 118/118/118
f 33/33/33 31/31/31 118/118/118
f 31/31/31 29/29/29 119/119/119
f 29/29/29 120/120/120 119/119/119
f 29/29/29 27/27/27 120/120/120
f 27/27/27 121/121/121 120/120/120
f 27/27/27 25/25/25 121/121/121
f 25/25/25 122/122/122 121/121/121
f 25/25/25 22/22/22 122/122/122
f 22/22/22 20/20/20 122/122/122
f 122/122/122 20/20/20 13/13/13
f 122/122/122 13/13/13 11/11/11
f 121/121/121 122/122/122 11/11/11
f 121/121/121 11/11/11 9/9/9
f 120/120/120 121/121/121 9/9/9
f 120/120/120 9/9/9 7/7/7
f 119/119/119 120/120/120 7/7/7
f 119/119/119 7/7/7 4/4/4
f 118/118/118 119/119/119 4/4/4
f 118/118/118 4/4/4 5/5/5
f 18/18/18 118/118/118 5/5/5
