g cookware_servingCover(Clone)
v -4.172325E-07 0.3761588 -0.6469669
v 0.2475853 0.3761588 -0.5977201
v 0.2021527 0.5308757 -0.4880254
v -4.172325E-07 0.5308757 -0.5282436
v -4.172325E-07 0.1959977 -0.7216096
v 0.2761436 0.1959977 -0.6666656
v -4.172325E-07 0.002631724 -0.7470537
v 0.2858964 0.002631724 -0.6901786
v 0.1396769 0.6592553 -0.3372434
v -4.172325E-07 0.6592553 -0.3650292
v 0.05815423 0.7319425 -0.140377
v -4.172325E-07 0.7319425 -0.1519403
v -4.172325E-07 0.7496859 4.172325E-07
v 0.1074493 0.7319425 -0.1074493
v 0.2581106 0.6592553 -0.2581106
v 0.5102589 0.1959977 -0.5102589
v 0.5282436 0.002631724 -0.5282436
v 0.3735267 0.5308757 -0.3735267
v 0.4574634 0.3761588 -0.4574634
v 0.4880254 0.5308757 -0.2021527
v 0.5977201 0.3761588 -0.2475853
v 0.140377 0.7319425 -0.05815423
v 0.6666656 0.1959977 -0.2761436
v 0.3372434 0.6592553 -0.1396769
v 0.6901786 0.002631724 -0.2858964
v 0.3650292 0.6592553 4.172325E-07
v 0.5282436 0.5308757 4.172325E-07
v 0.6469669 0.3761588 4.172325E-07
v 0.7216096 0.1959977 4.172325E-07
v 0.1519403 0.7319425 4.172325E-07
v 0.7470537 0.002631724 4.172325E-07
v 0.5977201 0.3761588 0.2475861
v 0.6666656 0.1959977 0.2761444
v 0.140377 0.7319425 0.05815506
v 0.3372434 0.6592553 0.1396778
v 0.6901786 0.002631724 0.2858973
v 0.4880254 0.5308757 0.2021536
v 0.3735267 0.5308757 0.3735275
v 0.4574634 0.3761588 0.4574642
v 0.1074493 0.7319425 0.1074501
v 0.5102589 0.1959977 0.5102355
v 0.2581106 0.6592553 0.2581114
v 0.5282436 0.002631724 0.5282444
v 0.2761436 0.1959977 0.6666664
v 0.2858964 0.002631724 0.6901793
v 0.1396769 0.6592553 0.3372442
v 0.2021527 0.5308757 0.4880263
v 0.2475853 0.3761588 0.597721
v 0.05815423 0.7319425 0.1403778
v -4.172325E-07 0.3761588 0.6469678
v -4.172325E-07 0.1959977 0.7215862
v -4.172325E-07 0.7319425 0.1519412
v -4.172325E-07 0.6592553 0.3650301
v -4.172325E-07 0.002631724 0.7470546
v -4.172325E-07 0.5308757 0.5282444
v -4.172325E-07 0.3761588 0.6469678
v -0.2475861 0.3761588 0.597721
v -0.2021536 0.5308757 0.4880263
v -4.172325E-07 0.5308757 0.5282444
v -4.172325E-07 0.1959977 0.7215862
v -0.2761444 0.1959977 0.6666664
v -4.172325E-07 0.002631724 0.7470546
v -0.2858973 0.002631724 0.6901793
v -0.1396778 0.6592553 0.3372442
v -4.172325E-07 0.6592553 0.3650301
v -0.05815506 0.7319425 0.1403778
v -4.172325E-07 0.7319425 0.1519412
v -4.172325E-07 0.7496859 4.172325E-07
v -0.5102355 0.1959977 0.5102355
v -0.5282444 0.002631724 0.5282444
v -0.2581114 0.6592553 0.2581114
v -0.3735275 0.5308757 0.3735275
v -0.4574642 0.3761588 0.4574642
v -0.1074501 0.7319425 0.1074501
v -0.597721 0.3761588 0.2475861
v -0.6666664 0.1959977 0.2761444
v -0.1403778 0.7319425 0.05815506
v -0.3372442 0.6592553 0.1396778
v -0.6901793 0.002631724 0.2858731
v -0.4880263 0.5308757 0.2021536
v -0.5282444 0.5308757 4.172325E-07
v -0.6469678 0.3761588 4.172325E-07
v -0.1519412 0.7319425 4.172325E-07
v -0.7215862 0.1959977 4.172325E-07
v -0.3650301 0.6592553 4.172325E-07
v -0.7470546 0.002631724 4.172325E-07
v -0.6666664 0.1959977 -0.2761436
v -0.6901793 0.002631724 -0.2858964
v -0.3372442 0.6592553 -0.1396769
v -0.4880263 0.5308757 -0.2021527
v -0.597721 0.3761588 -0.2475853
v -0.1403778 0.7319425 -0.05815423
v -0.1074501 0.7319425 -0.1074493
v -0.4574642 0.3761588 -0.4574634
v -0.5102355 0.1959977 -0.5102589
v -0.2581114 0.6592553 -0.2581106
v -0.5282444 0.002631724 -0.5282436
v -0.3735275 0.5308757 -0.3735267
v -0.2021536 0.5308757 -0.4880254
v -0.2475861 0.3761588 -0.5977201
v -0.2761444 0.1959977 -0.6666656
v -0.05815506 0.7319425 -0.140377
v -0.1396778 0.6592553 -0.3372434
v -0.2858731 0.002631724 -0.6901786
v -4.172325E-07 0.7319425 -0.1519403
v -4.172325E-07 0.6592553 -0.3650292
v -4.172325E-07 0.1959977 -0.7216096
v -4.172325E-07 0.002631724 -0.7470537
v -4.172325E-07 0.5308757 -0.5282436
v -4.172325E-07 0.3761588 -0.6469669
v -4.172325E-07 0.8349986 4.172325E-07
v -4.172325E-07 0.8349986 -0.08029115
v 0.06952447 0.8349986 -0.0401454
v -4.172325E-07 0.7386777 -0.05646437
v 0.04890841 0.7386777 -0.02824408
v 0.06952447 0.8349986 0.04014617
v 0.04890841 0.7386777 0.02824485
v -4.172325E-07 0.8349986 0.08029193
v -4.172325E-07 0.7386777 0.05646521
v -0.06952524 0.8349986 0.04014617
v -0.06952524 0.8349986 -0.0401454
v -0.06952524 0.8349986 0.04014617
v -0.06952524 0.8349986 -0.0401454
v -0.04890919 0.7386777 0.02824485
v -4.172325E-07 0.7386777 0.05646521
v -4.172325E-07 0.8349986 0.08029193
v -0.04890919 0.7386777 -0.02824408
v -4.172325E-07 0.8349986 -0.08029115
v -4.172325E-07 0.7386777 -0.05646437
vt 0.481703 0.5238458
vt 0.481703 0.5238458
vt 0.4807868 0.5302588
vt 0.4807868 0.5302588
vt 0.4826191 0.5156004
vt 0.4826191 0.5156004
vt 0.4826191 0.506439
vt 0.4826191 0.506439
vt 0.4789545 0.5357558
vt 0.4789545 0.5357558
vt 0.4771222 0.5385041
vt 0.4771222 0.5385041
vt 0.4752899 0.5403365
vt 0.4771222 0.5385041
vt 0.4780384 0.5357558
vt 0.4807868 0.5156004
vt 0.4807868 0.506439
vt 0.4789545 0.5302588
vt 0.4798707 0.5238458
vt 0.4771222 0.5302588
vt 0.4780384 0.5238458
vt 0.4762061 0.5385041
vt 0.4780384 0.5156004
vt 0.4771222 0.5357558
vt 0.4780384 0.506439
vt 0.4752899 0.5357558
vt 0.4752899 0.5302588
vt 0.4752899 0.5238458
vt 0.4752899 0.5156004
vt 0.4752899 0.5385041
vt 0.4752899 0.506439
vt 0.4725415 0.5238458
vt 0.4725415 0.5156004
vt 0.4743738 0.5385041
vt 0.4743738 0.5357558
vt 0.4725415 0.506439
vt 0.4734577 0.5302588
vt 0.4716254 0.5302588
vt 0.4707092 0.5238458
vt 0.4743738 0.5385041
vt 0.4697931 0.5156004
vt 0.4725415 0.5357558
vt 0.4697931 0.506439
vt 0.4688769 0.5156004
vt 0.4679607 0.506439
vt 0.4716254 0.5357558
vt 0.4707092 0.5302588
vt 0.4688769 0.5238458
vt 0.4734577 0.5385041
vt 0.4688769 0.5238458
vt 0.4679607 0.5156004
vt 0.4734577 0.5385041
vt 0.4716254 0.5357558
vt 0.4679607 0.506439
vt 0.4697931 0.5302588
vt 0.4688769 0.5238458
vt 0.4688769 0.5238458
vt 0.4707092 0.5302588
vt 0.4697931 0.5302588
vt 0.4679607 0.5156004
vt 0.4688769 0.5156004
vt 0.4679607 0.506439
vt 0.4679607 0.506439
vt 0.4716254 0.5357558
vt 0.4716254 0.5357558
vt 0.4734577 0.5385041
vt 0.4734577 0.5385041
vt 0.4752899 0.5403365
vt 0.4697931 0.5156004
vt 0.4697931 0.506439
vt 0.4725415 0.5357558
vt 0.4716254 0.5302588
vt 0.4707092 0.5238458
vt 0.4743738 0.5385041
vt 0.4725415 0.5238458
vt 0.4725415 0.5156004
vt 0.4743738 0.5385041
vt 0.4743738 0.5357558
vt 0.4725415 0.506439
vt 0.4734577 0.5302588
vt 0.4752899 0.5302588
vt 0.4752899 0.5238458
vt 0.4752899 0.5385041
vt 0.4752899 0.5156004
vt 0.4752899 0.5357558
vt 0.4752899 0.506439
vt 0.4780384 0.5156004
vt 0.4780384 0.506439
vt 0.4771222 0.5357558
vt 0.4771222 0.5302588
vt 0.4780384 0.5238458
vt 0.4762061 0.5385041
vt 0.4771222 0.5385041
vt 0.4798707 0.5238458
vt 0.4807868 0.5156004
vt 0.4780384 0.5357558
vt 0.4807868 0.506439
vt 0.4789545 0.5302588
vt 0.4807868 0.5302588
vt 0.481703 0.5238458
vt 0.4826191 0.5156004
vt 0.4771222 0.5385041
vt 0.4789545 0.5357558
vt 0.4826191 0.506439
vt 0.4771222 0.5385041
vt 0.4789545 0.5357558
vt 0.4826191 0.5156004
vt 0.4826191 0.506439
vt 0.4807868 0.5302588
vt 0.481703 0.5238458
vt 0.4752899 0.3809266
vt 0.481703 0.3809266
vt 0.4789545 0.3809266
vt 0.4798707 0.3717652
vt 0.4780384 0.3717652
vt 0.4725415 0.3809266
vt 0.4734577 0.3717652
vt 0.4697931 0.3809266
vt 0.4716254 0.3717652
vt 0.4725415 0.3809266
vt 0.4789545 0.3809266
vt 0.4725415 0.3809266
vt 0.4789545 0.3809266
vt 0.4734577 0.3717652
vt 0.4716254 0.3717652
vt 0.4697931 0.3809266
vt 0.4780384 0.3717652
vt 0.481703 0.3809266
vt 0.4798707 0.3717652
vn -0.0005577803 0.4924707 -0.8703288
vn 0.3351923 0.4924707 -0.8031928
vn 0.2727272 0.6954825 -0.6647736
vn -0.0005577803 0.6954825 -0.7185428
vn -0.0005577803 0.2582265 -0.9660842
vn 0.3664249 0.2582265 -0.893897
vn -0.0005577803 0.1332963 -0.9910761
vn 0.3820412 0.1332963 -0.9144816
vn 0.1868376 0.8672615 -0.4614641
vn -0.0005577803 0.8672615 -0.4978525
vn 0.08533174 0.9687674 -0.2328266
vn -0.0005577803 0.9687674 -0.2479706
vn -0.0005577802 0.9999999 0
vn 0.1634132 0.9687674 -0.1865097
vn 0.3508086 0.8672615 -0.3532574
vn 0.6865587 0.2582265 -0.6796736
vn 0.702175 0.1332963 -0.6994157
vn 0.5069714 0.6954825 -0.5091995
vn 0.6162854 0.4924707 -0.6145445
vn 0.6631343 0.6954825 -0.2766894
vn 0.8036808 0.4924707 -0.3340205
vn 0.2180701 0.9687674 -0.118047
vn 0.8895704 0.2582265 -0.3768072
vn 0.4523144 0.8672615 -0.2080123
vn 0.9129948 0.1332963 -0.3855809
vn 0.4913552 0.8672615 -0.08017223
vn 0.7177913 0.6954825 -0.03286073
vn 0.866146 0.4924707 -0.08522746
vn 0.9661887 0.2578361 0
vn 0.2336864 0.9687674 -0.08294784
vn 0.9910762 0.1332963 -0.0001220703
vn 0.8036808 0.4924707 0.3340205
vn 0.8895704 0.2582265 0.3768072
vn 0.2180701 0.9687674 0.118047
vn 0.4523144 0.8672615 0.2080123
vn 0.9129948 0.1332963 0.3855809
vn 0.6631343 0.6954825 0.2766894
vn 0.5069714 0.6954825 0.5091995
vn 0.6162854 0.4924707 0.6145445
vn 0.1634132 0.9687674 0.1865097
vn 0.6865587 0.2582265 0.6796736
vn 0.3508086 0.8672615 0.3532574
vn 0.702175 0.1332963 0.6994157
vn 0.3664249 0.2582265 0.893897
vn 0.3820412 0.1332963 0.9144816
vn 0.1868376 0.8672615 0.4614641
vn 0.2727272 0.6954825 0.6647736
vn 0.3351923 0.4924707 0.8031928
vn 0.08533174 0.9687674 0.2328266
vn -0.0005577803 0.4924707 0.8703288
vn -0.0005577803 0.2582265 0.9660842
vn -0.0005577803 0.9687674 0.2479706
vn -0.0005577803 0.8672615 0.4978525
vn -0.0005577803 0.1332963 0.9910761
vn -0.0005577803 0.6954825 0.7185428
vn -0.0005577803 0.4924707 0.8703288
vn -0.3363079 0.4924707 0.8027263
vn -0.2738428 0.6954825 0.6643148
vn -0.0005577803 0.6954825 0.7185428
vn -0.0005577803 0.2582265 0.9660842
vn -0.3675405 0.2582265 0.8934389
vn -0.0005577803 0.1332963 0.9910761
vn -0.3831568 0.1332963 0.9140148
vn -0.1879532 0.8672615 0.4610109
vn -0.0005577803 0.8672615 0.4978525
vn -0.08644736 0.9687674 0.2324146
vn -0.0005577803 0.9687674 0.2479706
vn -0.0005577802 0.9999999 0
vn -0.6876743 0.2582265 0.6785449
vn -0.7032906 0.1332963 0.698294
vn -0.3519242 0.8672615 0.352146
vn -0.508087 0.6954825 0.5080863
vn -0.617401 0.4924707 0.6134236
vn -0.1645287 0.9687674 0.1855263
vn -0.8047965 0.4924707 0.3313235
vn -0.890686 0.2582265 0.3741623
vn -0.2191858 0.9687674 0.1159624
vn -0.4534301 0.8672615 0.205569
vn -0.9141104 0.1332963 0.3829285
vn -0.6642499 0.6954825 0.2740003
vn -0.718719 0.6953007 0
vn -0.8672615 0.4924707 -0.07300702
vn -0.234802 0.9687674 -0.07973537
vn -0.9662626 0.2575589 0
vn -0.4924707 0.8672615 -0.07300702
vn -0.9910961 0.133149 0
vn -0.890686 0.2582265 -0.3741623
vn -0.9141104 0.1332963 -0.3829285
vn -0.4534301 0.8672615 -0.205569
vn -0.6642499 0.6954825 -0.2740003
vn -0.8047965 0.4924707 -0.3313235
vn -0.2191858 0.9687674 -0.1159624
vn -0.1645287 0.9687674 -0.1855263
vn -0.617401 0.4924707 -0.6134236
vn -0.6876743 0.2582265 -0.6785449
vn -0.3519242 0.8672615 -0.352146
vn -0.7032906 0.1332963 -0.698294
vn -0.508087 0.6954825 -0.5080863
vn -0.2738428 0.6954825 -0.6643148
vn -0.3363079 0.4924707 -0.8027263
vn -0.3675405 0.2582265 -0.8934389
vn -0.08644736 0.9687674 -0.2324146
vn -0.1879532 0.8672615 -0.4610109
vn -0.3831568 0.1332963 -0.9140148
vn -0.0005577803 0.9687674 -0.2479706
vn -0.0005577803 0.8672615 -0.4978525
vn -0.0005577803 0.2582265 -0.9660842
vn -0.0005577803 0.1332963 -0.9910761
vn -0.0005577803 0.6954825 -0.7185428
vn -0.0005577803 0.4924707 -0.8703288
vn -0.0005577802 0.9999999 0
vn -0.0005577803 0.5158951 -0.8566515
vn 0.7412157 0.5158951 -0.4294781
vn -0.0005577803 -0.2414946 -0.970402
vn 0.8427215 -0.2414946 -0.4811453
vn 0.7412157 0.5158951 0.4294781
vn 0.8427215 -0.2414946 0.4811453
vn -0.0005577803 0.5158951 0.8566515
vn -0.0005577803 -0.2414946 0.970402
vn -0.7423313 0.5158951 0.427547
vn -0.7423313 0.5158951 -0.427547
vn -0.7423313 0.5158951 0.427547
vn -0.7423313 0.5158951 -0.427547
vn -0.8438371 -0.2414946 0.479186
vn -0.0005577803 -0.2414946 0.970402
vn -0.0005577803 0.5158951 0.8566515
vn -0.8438371 -0.2414946 -0.479186
vn -0.0005577803 0.5158951 -0.8566515
vn -0.0005577803 -0.2414946 -0.970402
g cookware_servingCover(Clone)_0
f 3/3/3 2/2/2 1/1/1
f 4/4/4 3/3/3 1/1/1
f 1/1/1 2/2/2 5/5/5
f 2/2/2 6/6/6 5/5/5
f 5/5/5 6/6/6 7/7/7
f 6/6/6 8/8/8 7/7/7
f 9/9/9 3/3/3 4/4/4
f 10/10/10 9/9/9 4/4/4
f 11/11/11 9/9/9 10/10/10
f 12/12/12 11/11/11 10/10/10
f 13/13/13 11/11/11 12/12/12
f 11/11/11 14/14/14 9/9/9
f 13/13/13 14/14/14 11/11/11
f 14/14/14 15/15/15 9/9/9
f 9/9/9 15/15/15 3/3/3
f 6/6/6 16/16/16 8/8/8
f 16/16/16 17/17/17 8/8/8
f 15/15/15 18/18/18 3/3/3
f 3/3/3 18/18/18 2/2/2
f 18/18/18 19/19/19 2/2/2
f 19/19/19 16/16/16 6/6/6
f 2/2/2 19/19/19 6/6/6
f 18/18/18 20/20/20 19/19/19
f 20/20/20 21/21/21 19/19/19
f 19/19/19 21/21/21 16/16/16
f 13/13/13 22/22/22 14/14/14
f 14/14/14 22/22/22 15/15/15
f 21/21/21 23/23/23 16/16/16
f 16/16/16 23/23/23 17/17/17
f 22/22/22 24/24/24 15/15/15
f 24/24/24 20/20/20 18/18/18
f 15/15/15 24/24/24 18/18/18
f 23/23/23 25/25/25 17/17/17
f 24/24/24 26/26/26 20/20/20
f 26/26/26 27/27/27 20/20/20
f 20/20/20 27/27/27 21/21/21
f 27/27/27 28/28/28 21/21/21
f 21/21/21 28/28/28 23/23/23
f 28/28/28 29/29/29 23/23/23
f 23/23/23 29/29/29 25/25/25
f 30/30/30 26/26/26 24/24/24
f 22/22/22 30/30/30 24/24/24
f 13/13/13 30/30/30 22/22/22
f 29/29/29 31/31/31 25/25/25
f 28/28/28 32/32/32 29/29/29
f 32/32/32 33/33/33 29/29/29
f 29/29/29 33/33/33 31/31/31
f 30/30/30 34/34/34 26/26/26
f 13/13/13 34/34/34 30/30/30
f 34/34/34 35/35/35 26/26/26
f 26/26/26 35/35/35 27/27/27
f 33/33/33 36/36/36 31/31/31
f 35/35/35 37/37/37 27/27/27
f 37/37/37 32/32/32 28/28/28
f 27/27/27 37/37/37 28/28/28
f 37/37/37 38/38/38 32/32/32
f 38/38/38 39/39/39 32/32/32
f 32/32/32 39/39/39 33/33/33
f 13/13/13 40/40/40 34/34/34
f 34/34/34 40/40/40 35/35/35
f 39/39/39 41/41/41 33/33/33
f 33/33/33 41/41/41 36/36/36
f 40/40/40 42/42/42 35/35/35
f 42/42/42 38/38/38 37/37/37
f 35/35/35 42/42/42 37/37/37
f 41/41/41 43/43/43 36/36/36
f 41/41/41 44/44/44 43/43/43
f 44/44/44 45/45/45 43/43/43
f 42/42/42 46/46/46 38/38/38
f 46/46/46 47/47/47 38/38/38
f 38/38/38 47/47/47 39/39/39
f 47/47/47 48/48/48 39/39/39
f 48/48/48 44/44/44 41/41/41
f 39/39/39 48/48/48 41/41/41
f 49/49/49 46/46/46 42/42/42
f 40/40/40 49/49/49 42/42/42
f 13/13/13 49/49/49 40/40/40
f 48/48/48 50/50/50 44/44/44
f 50/50/50 51/51/51 44/44/44
f 44/44/44 51/51/51 45/45/45
f 49/49/49 52/52/52 46/46/46
f 13/13/13 52/52/52 49/49/49
f 52/52/52 53/53/53 46/46/46
f 46/46/46 53/53/53 47/47/47
f 51/51/51 54/54/54 45/45/45
f 53/53/53 55/55/55 47/47/47
f 55/55/55 50/50/50 48/48/48
f 47/47/47 55/55/55 48/48/48
f 58/58/58 57/57/57 56/56/56
f 59/59/59 58/58/58 56/56/56
f 56/56/56 57/57/57 60/60/60
f 57/57/57 61/61/61 60/60/60
f 60/60/60 61/61/61 62/62/62
f 61/61/61 63/63/63 62/62/62
f 64/64/64 58/58/58 59/59/59
f 65/65/65 64/64/64 59/59/59
f 66/66/66 64/64/64 65/65/65
f 67/67/67 66/66/66 65/65/65
f 68/68/68 66/66/66 67/67/67
f 61/61/61 69/69/69 63/63/63
f 69/69/69 70/70/70 63/63/63
f 64/64/64 71/71/71 58/58/58
f 71/71/71 72/72/72 58/58/58
f 58/58/58 72/72/72 57/57/57
f 72/72/72 73/73/73 57/57/57
f 73/73/73 69/69/69 61/61/61
f 68/68/68 74/74/74 66/66/66
f 74/74/74 71/71/71 64/64/64
f 66/66/66 74/74/74 64/64/64
f 57/57/57 73/73/73 61/61/61
f 73/73/73 75/75/75 69/69/69
f 75/75/75 76/76/76 69/69/69
f 69/69/69 76/76/76 70/70/70
f 74/74/74 77/77/77 71/71/71
f 68/68/68 77/77/77 74/74/74
f 77/77/77 78/78/78 71/71/71
f 71/71/71 78/78/78 72/72/72
f 76/76/76 79/79/79 70/70/70
f 78/78/78 80/80/80 72/72/72
f 80/80/80 75/75/75 73/73/73
f 72/72/72 80/80/80 73/73/73
f 80/80/80 81/81/81 75/75/75
f 81/81/81 82/82/82 75/75/75
f 75/75/75 82/82/82 76/76/76
f 68/68/68 83/83/83 77/77/77
f 77/77/77 83/83/83 78/78/78
f 82/82/82 84/84/84 76/76/76
f 76/76/76 84/84/84 79/79/79
f 83/83/83 85/85/85 78/78/78
f 85/85/85 81/81/81 80/80/80
f 78/78/78 85/85/85 80/80/80
f 84/84/84 86/86/86 79/79/79
f 84/84/84 87/87/87 86/86/86
f 87/87/87 88/88/88 86/86/86
f 85/85/85 89/89/89 81/81/81
f 89/89/89 90/90/90 81/81/81
f 81/81/81 90/90/90 82/82/82
f 90/90/90 91/91/91 82/82/82
f 91/91/91 87/87/87 84/84/84
f 82/82/82 91/91/91 84/84/84
f 68/68/68 92/92/92 83/83/83
f 92/92/92 89/89/89 85/85/85
f 83/83/83 92/92/92 85/85/85
f 68/68/68 93/93/93 92/92/92
f 92/92/92 93/93/93 89/89/89
f 91/91/91 94/94/94 87/87/87
f 94/94/94 95/95/95 87/87/87
f 87/87/87 95/95/95 88/88/88
f 93/93/93 96/96/96 89/89/89
f 89/89/89 96/96/96 90/90/90
f 95/95/95 97/97/97 88/88/88
f 96/96/96 98/98/98 90/90/90
f 98/98/98 94/94/94 91/91/91
f 90/90/90 98/98/98 91/91/91
f 98/98/98 99/99/99 94/94/94
f 99/99/99 100/100/100 94/94/94
f 94/94/94 100/100/100 95/95/95
f 100/100/100 101/101/101 95/95/95
f 95/95/95 101/101/101 97/97/97
f 93/93/93 102/102/102 96/96/96
f 68/68/68 102/102/102 93/93/93
f 102/102/102 103/103/103 96/96/96
f 103/103/103 99/99/99 98/98/98
f 96/96/96 103/103/103 98/98/98
f 101/101/101 104/104/104 97/97/97
f 102/102/102 105/105/105 103/103/103
f 68/68/68 105/105/105 102/102/102
f 105/105/105 106/106/106 103/103/103
f 103/103/103 106/106/106 99/99/99
f 101/101/101 107/107/107 104/104/104
f 107/107/107 108/108/108 104/104/104
f 106/106/106 109/109/109 99/99/99
f 99/99/99 109/109/109 100/100/100
f 109/109/109 110/110/110 100/100/100
f 110/110/110 107/107/107 101/101/101
f 100/100/100 110/110/110 101/101/101
f 113/113/113 112/112/112 111/111/111
f 112/112/112 113/113/113 114/114/114
f 113/113/113 115/115/115 114/114/114
f 116/116/116 113/113/113 111/111/111
f 113/113/113 116/116/116 115/115/115
f 116/116/116 117/117/117 115/115/115
f 118/118/118 116/116/116 111/111/111
f 116/116/116 118/118/118 117/117/117
f 118/118/118 119/119/119 117/117/117
f 120/120/120 118/118/118 111/111/111
f 112/112/112 121/121/121 111/111/111
f 123/123/123 122/122/122 111/111/111
f 122/122/122 123/123/123 124/124/124
f 122/122/122 124/124/124 125/125/125
f 126/126/126 122/122/122 125/125/125
f 123/123/123 127/127/127 124/124/124
f 123/123/123 128/128/128 127/127/127
f 128/128/128 129/129/129 127/127/127
