g cookware_servingDish
v 6.353855E-05 -0.01749671 -8.910894E-05
v -0.2823949 -0.01749671 0.6818755
v 6.353855E-05 -0.01749671 0.7380604
v 0.2825475 -0.01749671 0.6818755
v 6.353855E-05 0.05251718 0.769936
v 0.5220109 -0.01749671 0.5218583
v 0.2947406 0.05251718 0.7113227
v 0.6820281 -0.01749671 0.2823949
v 0.5445565 0.05251718 0.5444039
v 0.3206091 0.06997591 0.7737703
v 0.5923572 0.06997591 0.5922045
v 6.353855E-05 0.06997591 0.8375216
v -0.2945879 0.05251718 0.7113227
v 0.7114754 0.05251718 0.2945879
v 0.7382131 -0.01749671 -8.910894E-05
v 0.7739229 0.06997591 0.3204564
v 0.5923572 0.1005991 0.5922045
v 0.3206091 0.1005991 0.7737703
v 0.7739229 0.1005991 0.3204564
v 0.6820281 -0.01749671 -0.2825475
v 0.7700887 0.05251718 -8.910894E-05
v 0.8376742 0.06997591 -8.910894E-05
v 0.5220109 -0.01749671 -0.5220109
v 0.2825475 -0.01749671 -0.6820281
v 6.353855E-05 -0.01749671 -0.7382131
v -0.2823949 -0.01749671 -0.6820281
v 0.7114754 0.05251718 -0.2947406
v 0.2947406 0.05251718 -0.7114754
v 6.353855E-05 0.05251718 -0.7700887
v 0.5445565 0.05251718 -0.5445565
v 0.7739229 0.06997591 -0.3206091
v 0.8376742 0.1005991 -8.910894E-05
v 0.5923572 0.06997591 -0.5923572
v 0.3206091 0.06997591 -0.7739229
v 6.353855E-05 0.06997591 -0.8376742
v 0.7739229 0.1005991 -0.3206091
v 0.5923572 0.1005991 -0.5923572
v 0.3206091 0.1005991 -0.7739229
v -0.3204564 0.06997591 -0.7739229
v -0.2945879 0.05251718 -0.7114754
v 6.353855E-05 0.1005991 -0.8376742
v -0.3204564 0.1005991 -0.7739229
v 0.6264822 0.01841766 -0.2595419
v 0.4795016 0.01841766 -0.4795016
v -0.006173551 0.01841766 0.006173551
v 0.6780916 0.01841766 -6.353855E-05
v -0.006173551 0.01841766 0.006173551
v 0.2595419 0.01841766 -0.6264822
v -0.006173551 0.01841766 0.006173551
v 0.6264822 0.01841766 0.2593892
v -0.006173551 0.01841766 0.006173551
v 6.353855E-05 0.01841766 -0.6780916
v -0.006173551 0.01841766 0.006173551
v 0.4795016 0.01841766 0.479349
v -0.006173551 0.01841766 0.006173551
v -0.2593892 0.01841766 -0.6264822
v -0.479349 0.01841766 -0.4795016
v 0.2595419 0.01841766 0.6263296
v -0.006173551 0.01841766 0.006173551
v -0.5922045 0.1005991 -0.5923572
v 6.353855E-05 0.1005991 0.8375216
v 6.353855E-05 0.01841766 0.677939
v -0.2593892 0.01841766 0.6263296
v -0.3204564 0.06997591 0.7737703
v -0.3204564 0.1005991 0.7737703
v -0.6263296 0.01841766 -0.2595419
v -0.5922045 0.06997591 -0.5923572
v -0.7737703 0.1005991 -0.3206091
v -0.677939 0.01841766 -6.353855E-05
v -0.5922045 0.1005991 0.5922045
v -0.5922045 0.06997591 0.5922045
v -0.479349 0.01841766 0.479349
v -0.5444039 0.05251718 0.5444039
v -0.7737703 0.06997591 -0.3206091
v -0.8375216 0.1005991 -8.910894E-05
v -0.5444039 0.05251718 -0.5445565
v -0.6263296 0.01841766 0.2593892
v -0.7737703 0.1005991 0.3204564
v -0.8375216 0.06997591 -8.910894E-05
v -0.7737703 0.06997591 0.3204564
v -0.7113227 0.05251718 -0.2947406
v -0.7113227 0.05251718 0.2945879
v -0.769936 0.05251718 -8.910894E-05
v -0.6818755 -0.01749671 -0.2825475
v -0.7380604 -0.01749671 -8.910894E-05
v -0.6818755 -0.01749671 0.2823949
v -0.5218583 -0.01749671 0.5218583
v -0.5218583 -0.01749671 -0.5220109
v -0.2823949 -0.01749671 0.6818755
v 6.353855E-05 -0.01749671 0.7380604
v 6.353855E-05 0.05251718 0.769936
v -0.2823949 -0.01749671 -0.6820281
v 6.353855E-05 0.05251718 -0.7700887
v 6.353855E-05 -0.01749671 -0.7382131
vt 0.4744177 0.4631311
vt 0.4674877 0.4631311
vt 0.4668994 0.4631311
vt 0.4674877 0.4631311
vt 0.4668994 0.46462
vt 0.4691053 0.4631311
vt 0.4674877 0.46462
vt 0.4715501 0.4631311
vt 0.4691053 0.46462
vt 0.4674877 0.46462
vt 0.4691053 0.46462
vt 0.4668994 0.46462
vt 0.4674877 0.46462
vt 0.4715501 0.46462
vt 0.4744177 0.4631311
vt 0.4715501 0.46462
vt 0.4691053 0.46462
vt 0.4674877 0.46462
vt 0.4715501 0.46462
vt 0.4773037 0.4631311
vt 0.4744177 0.46462
vt 0.4744177 0.46462
vt 0.4797302 0.4631311
vt 0.4813662 0.4631311
vt 0.4819361 0.4631311
vt 0.4813662 0.4631311
vt 0.4773037 0.46462
vt 0.4813662 0.46462
vt 0.4819361 0.46462
vt 0.4797302 0.46462
vt 0.4773037 0.46462
vt 0.4744177 0.46462
vt 0.4797302 0.46462
vt 0.4813662 0.46462
vt 0.4819361 0.46462
vt 0.4773037 0.46462
vt 0.4797302 0.46462
vt 0.4813662 0.46462
vt 0.4813662 0.46462
vt 0.4813662 0.46462
vt 0.4819361 0.46462
vt 0.4813662 0.46462
vt 0.4773037 0.46462
vt 0.4797302 0.46462
vt 0.4773037 0.46462
vt 0.4744177 0.46462
vt 0.4744177 0.46462
vt 0.4813662 0.46462
vt 0.4797302 0.46462
vt 0.4715501 0.46462
vt 0.4715501 0.46462
vt 0.4819361 0.46462
vt 0.4813662 0.46462
vt 0.4691053 0.46462
vt 0.4691053 0.46462
vt 0.4813662 0.46462
vt 0.4797302 0.46462
vt 0.4674877 0.46462
vt 0.4668994 0.46462
vt 0.4797302 0.46462
vt 0.4668994 0.46462
vt 0.4668994 0.46462
vt 0.4674877 0.46462
vt 0.4674877 0.46462
vt 0.4674877 0.46462
vt 0.4773037 0.46462
vt 0.4797302 0.46462
vt 0.4773037 0.46462
vt 0.4744177 0.46462
vt 0.4691053 0.46462
vt 0.4691053 0.46462
vt 0.4691053 0.46462
vt 0.4691053 0.46462
vt 0.4773037 0.46462
vt 0.4744177 0.46462
vt 0.4797302 0.46462
vt 0.4715501 0.46462
vt 0.4715501 0.46462
vt 0.4744177 0.46462
vt 0.4715501 0.46462
vt 0.4773037 0.46462
vt 0.4715501 0.46462
vt 0.4744177 0.46462
vt 0.4773037 0.4631311
vt 0.4744177 0.4631311
vt 0.4715501 0.4631311
vt 0.4691053 0.4631311
vt 0.4797302 0.4631311
vt 0.4674877 0.4631311
vt 0.4668994 0.4631311
vt 0.4668994 0.46462
vt 0.4813662 0.4631311
vt 0.4819361 0.46462
vt 0.4819361 0.4631311
vn -0.003921509 -0.9999924 0
vn -0.2235277 -0.8117585 0.5395216
vn -0.003921509 -0.8117585 0.5839801
vn 0.2235277 -0.8117585 0.5395215
vn -0.003921509 -0.7960724 0.6051888
vn 0.4117616 -0.8117585 0.4141262
vn 0.2313708 -0.7960724 0.5592284
vn 0.5372508 -0.8117585 0.2289315
vn 0.4274477 -0.7960724 0.4284358
vn 0.3098016 -0.5764662 0.7561149
vn 0.5764662 -0.5764662 0.5791144
vn -0.003921509 -0.5764662 0.8171116
vn -0.2313707 -0.7960724 0.5592284
vn 0.56078 -0.7960724 0.2275842
vn 0.5842015 -0.8116088 0
vn 0.756857 -0.5764662 0.3079842
vn 0.4196047 0.8039154 0.4214878
vn 0.2235277 0.8039154 0.5511401
vn 0.5450939 0.8039154 0.2378922
vn 0.5372508 -0.8117585 -0.2289315
vn 0.6068687 -0.7948022 0
vn 0.8179428 -0.5752995 0
vn 0.4117616 -0.8117585 -0.4141262
vn 0.2235277 -0.8117585 -0.5395215
vn -0.003921509 -0.8117585 -0.5839801
vn -0.2235277 -0.8117585 -0.5395216
vn 0.56078 -0.7960724 -0.2275842
vn 0.2313708 -0.7960724 -0.5592284
vn -0.003921509 -0.7960724 -0.6051888
vn 0.4274477 -0.7960724 -0.4284358
vn 0.756857 -0.5764662 -0.3079842
vn 0.5921524 0.8039154 -0.05545863
vn 0.5764662 -0.5764662 -0.5791144
vn 0.3098016 -0.5764662 -0.7561149
vn -0.003921509 -0.5764662 -0.8171116
vn 0.5450939 0.8039154 -0.2378922
vn 0.4196047 0.8039154 -0.4214878
vn 0.2235277 0.8039154 -0.5511401
vn -0.3098015 -0.5764662 -0.7561149
vn -0.2313707 -0.7960724 -0.5592284
vn -0.003921509 0.8039154 -0.5947308
vn -0.2235277 0.8039154 -0.5511401
vn -0.2392138 0.9686199 0.06746945
vn -0.1843122 0.9686199 0.1667464
vn -0.003921509 0.9999923 -0.000345267
vn -0.2617946 0.9651236 0
vn -0.003921509 0.9999923 -0.000345267
vn -0.09803843 0.9686199 0.228394
vn -0.003921509 0.9999923 -0.000345267
vn -0.2392138 0.9686199 -0.06746945
vn -0.003921509 0.9999923 -0.000345267
vn -0.003921509 0.9686199 0.2485156
vn -0.003921509 0.9999923 -0.000345267
vn -0.1843122 0.9686199 -0.1667464
vn -0.003921509 0.9999923 -0.000345267
vn 0.09803849 0.9686199 0.228394
vn 0.1843123 0.9686199 0.1667463
vn -0.09803843 0.9686199 -0.228394
vn -0.003921509 0.9999923 -0.000345267
vn -0.4196045 0.8039154 -0.421488
vn -0.003921509 0.8039154 0.5947308
vn -0.003921509 0.9686199 -0.2485156
vn 0.09803849 0.9686199 -0.228394
vn -0.3098015 -0.5764662 0.7561149
vn -0.2235277 0.8039154 0.5511401
vn 0.2392139 0.9686199 0.06746945
vn -0.5764661 -0.5764662 -0.5791144
vn -0.5450938 0.8039154 -0.2378925
vn 0.2617947 0.9651236 0
vn -0.4196045 0.8039154 0.421488
vn -0.5764661 -0.5764662 0.5791144
vn 0.1843123 0.9686199 -0.1667463
vn -0.4274477 -0.7960724 0.4284359
vn -0.7568569 -0.5764662 -0.3079843
vn -0.5921522 0.8039154 -0.05546024
vn -0.4274477 -0.7960724 -0.4284359
vn 0.2392139 0.9686199 -0.06746945
vn -0.5450938 0.8039154 0.2378925
vn -0.8179429 -0.5752996 0
vn -0.7568569 -0.5764662 0.3079843
vn -0.5607799 -0.7960724 -0.2275845
vn -0.5607799 -0.7960724 0.2275845
vn -0.6068686 -0.7948023 0
vn -0.5372508 -0.8117585 -0.2289318
vn -0.5842015 -0.8116088 0
vn -0.5372508 -0.8117585 0.2289318
vn -0.4117615 -0.8117585 0.4141263
vn -0.4117615 -0.8117585 -0.4141263
vn -0.2235277 -0.8117585 0.5395216
vn -0.003921509 -0.8117585 0.5839801
vn -0.003921509 -0.7960724 0.6051888
vn -0.2235277 -0.8117585 -0.5395216
vn -0.003921509 -0.7960724 -0.6051888
vn -0.003921509 -0.8117585 -0.5839801
g cookware_servingDish_0
f 3/3/3 2/2/2 1/1/1
f 4/4/4 3/3/3 1/1/1
f 5/5/5 3/3/3 4/4/4
f 6/6/6 4/4/4 1/1/1
f 7/7/7 5/5/5 4/4/4
f 7/7/7 4/4/4 6/6/6
f 8/8/8 6/6/6 1/1/1
f 9/9/9 7/7/7 6/6/6
f 9/9/9 6/6/6 8/8/8
f 7/7/7 10/10/10 5/5/5
f 9/9/9 11/11/11 7/7/7
f 11/11/11 10/10/10 7/7/7
f 10/10/10 12/12/12 5/5/5
f 5/5/5 12/12/12 13/13/13
f 14/14/14 9/9/9 8/8/8
f 15/15/15 8/8/8 1/1/1
f 14/14/14 8/8/8 15/15/15
f 16/16/16 11/11/11 9/9/9
f 14/14/14 16/16/16 9/9/9
f 11/11/11 17/17/17 10/10/10
f 10/10/10 18/18/18 12/12/12
f 17/17/17 18/18/18 10/10/10
f 16/16/16 19/19/19 11/11/11
f 19/19/19 17/17/17 11/11/11
f 20/20/20 15/15/15 1/1/1
f 21/21/21 14/14/14 15/15/15
f 21/21/21 15/15/15 20/20/20
f 22/22/22 16/16/16 14/14/14
f 21/21/21 22/22/22 14/14/14
f 23/23/23 20/20/20 1/1/1
f 24/24/24 23/23/23 1/1/1
f 25/25/25 24/24/24 1/1/1
f 26/26/26 25/25/25 1/1/1
f 27/27/27 21/21/21 20/20/20
f 27/27/27 20/20/20 23/23/23
f 28/28/28 24/24/24 25/25/25
f 29/29/29 28/28/28 25/25/25
f 30/30/30 23/23/23 24/24/24
f 30/30/30 27/27/27 23/23/23
f 28/28/28 30/30/30 24/24/24
f 27/27/27 31/31/31 21/21/21
f 31/31/31 22/22/22 21/21/21
f 22/22/22 32/32/32 16/16/16
f 32/32/32 19/19/19 16/16/16
f 30/30/30 33/33/33 27/27/27
f 33/33/33 31/31/31 27/27/27
f 28/28/28 34/34/34 30/30/30
f 34/34/34 33/33/33 30/30/30
f 29/29/29 35/35/35 28/28/28
f 35/35/35 34/34/34 28/28/28
f 31/31/31 36/36/36 22/22/22
f 36/36/36 32/32/32 22/22/22
f 33/33/33 37/37/37 31/31/31
f 37/37/37 36/36/36 31/31/31
f 34/34/34 38/38/38 33/33/33
f 38/38/38 37/37/37 33/33/33
f 39/39/39 35/35/35 29/29/29
f 40/40/40 39/39/39 29/29/29
f 35/35/35 41/41/41 34/34/34
f 41/41/41 38/38/38 34/34/34
f 39/39/39 42/42/42 35/35/35
f 42/42/42 41/41/41 35/35/35
f 36/36/36 43/43/43 32/32/32
f 37/37/37 44/44/44 36/36/36
f 44/44/44 43/43/43 36/36/36
f 44/44/44 45/45/45 43/43/43
f 43/43/43 46/46/46 32/32/32
f 43/43/43 47/47/47 46/46/46
f 32/32/32 46/46/46 19/19/19
f 48/48/48 44/44/44 37/37/37
f 38/38/38 48/48/48 37/37/37
f 48/48/48 49/49/49 44/44/44
f 46/46/46 50/50/50 19/19/19
f 46/46/46 51/51/51 50/50/50
f 19/19/19 50/50/50 17/17/17
f 52/52/52 48/48/48 38/38/38
f 41/41/41 52/52/52 38/38/38
f 52/52/52 53/53/53 48/48/48
f 50/50/50 54/54/54 17/17/17
f 50/50/50 55/55/55 54/54/54
f 17/17/17 54/54/54 18/18/18
f 56/56/56 52/52/52 41/41/41
f 56/56/56 53/53/53 52/52/52
f 42/42/42 56/56/56 41/41/41
f 57/57/57 53/53/53 56/56/56
f 57/57/57 56/56/56 42/42/42
f 54/54/54 58/58/58 18/18/18
f 54/54/54 59/59/59 58/58/58
f 60/60/60 57/57/57 42/42/42
f 60/60/60 42/42/42 39/39/39
f 18/18/18 58/58/58 61/61/61
f 18/18/18 61/61/61 12/12/12
f 58/58/58 59/59/59 62/62/62
f 58/58/58 62/62/62 61/61/61
f 62/62/62 59/59/59 63/63/63
f 12/12/12 61/61/61 64/64/64
f 12/12/12 64/64/64 13/13/13
f 61/61/61 62/62/62 65/65/65
f 62/62/62 63/63/63 65/65/65
f 61/61/61 65/65/65 64/64/64
f 66/66/66 57/57/57 60/60/60
f 66/66/66 49/49/49 57/57/57
f 67/67/67 60/60/60 39/39/39
f 67/67/67 39/39/39 40/40/40
f 68/68/68 66/66/66 60/60/60
f 68/68/68 60/60/60 67/67/67
f 69/69/69 66/66/66 68/68/68
f 69/69/69 45/45/45 66/66/66
f 65/65/65 63/63/63 70/70/70
f 64/64/64 65/65/65 71/71/71
f 65/65/65 70/70/70 71/71/71
f 63/63/63 72/72/72 70/70/70
f 63/63/63 55/55/55 72/72/72
f 64/64/64 71/71/71 73/73/73
f 13/13/13 64/64/64 73/73/73
f 74/74/74 68/68/68 67/67/67
f 75/75/75 69/69/69 68/68/68
f 75/75/75 68/68/68 74/74/74
f 74/74/74 67/67/67 76/76/76
f 76/76/76 67/67/67 40/40/40
f 77/77/77 69/69/69 75/75/75
f 77/77/77 47/47/47 69/69/69
f 72/72/72 51/51/51 77/77/77
f 72/72/72 77/77/77 78/78/78
f 78/78/78 77/77/77 75/75/75
f 70/70/70 72/72/72 78/78/78
f 79/79/79 75/75/75 74/74/74
f 78/78/78 75/75/75 79/79/79
f 70/70/70 78/78/78 80/80/80
f 80/80/80 78/78/78 79/79/79
f 71/71/71 70/70/70 80/80/80
f 79/79/79 74/74/74 81/81/81
f 81/81/81 74/74/74 76/76/76
f 71/71/71 80/80/80 82/82/82
f 73/73/73 71/71/71 82/82/82
f 80/80/80 79/79/79 83/83/83
f 83/83/83 79/79/79 81/81/81
f 82/82/82 80/80/80 83/83/83
f 81/81/81 76/76/76 84/84/84
f 83/83/83 81/81/81 85/85/85
f 81/81/81 84/84/84 85/85/85
f 82/82/82 83/83/83 86/86/86
f 83/83/83 85/85/85 86/86/86
f 73/73/73 82/82/82 87/87/87
f 82/82/82 86/86/86 87/87/87
f 86/86/86 85/85/85 1/1/1
f 85/85/85 84/84/84 1/1/1
f 87/87/87 86/86/86 1/1/1
f 76/76/76 88/88/88 84/84/84
f 84/84/84 88/88/88 1/1/1
f 76/76/76 40/40/40 88/88/88
f 73/73/73 87/87/87 89/89/89
f 89/89/89 87/87/87 1/1/1
f 13/13/13 73/73/73 89/89/89
f 13/13/13 89/89/89 90/90/90
f 91/91/91 13/13/13 90/90/90
f 88/88/88 92/92/92 1/1/1
f 40/40/40 92/92/92 88/88/88
f 40/40/40 93/93/93 92/92/92
f 93/93/93 94/94/94 92/92/92
