g cornLeg_mesh
v 0.09 0 0
v -0.09 0 0
v 0.125 -0.1333333 0
v -0.125 -0.1333333 0
v 0.141 -0.24 0
v -0.141 -0.24 0
v 0.1458 -0.32 0
v -0.1458 -0.32 0
v 0.1454 -0.3733334 0
v -0.1454 -0.3733334 0
v 0.144 -0.4 0
v -0.144 -0.4 0
v 0.144 -0.4 0
v -0.144 -0.4 0
v 0.142 -0.4266667 0
v -0.142 -0.4266667 0
v 0.1368 -0.48 0
v -0.1368 -0.48 0
v 0.1254 -0.5600001 0
v -0.1254 -0.5600001 0
v 0.103 -0.6666667 0
v -0.103 -0.6666667 0
v 0.06300001 -0.8000001 0
v -0.06300001 -0.8000001 0
vt 0.8336914 0.09550782
vt 0.844043 0.09550782
vt 0.8336914 0.08474936
vt 0.844043 0.08474936
vt 0.8336914 0.07614258
vt 0.844043 0.07614258
vt 0.8336914 0.0696875
vt 0.844043 0.0696875
vt 0.8336914 0.06538412
vt 0.844043 0.06538412
vt 0.8336914 0.06323242
vt 0.844043 0.06323242
vt 0.8336914 0.06323242
vt 0.844043 0.06323242
vt 0.8336914 0.06108073
vt 0.844043 0.06108073
vt 0.8336914 0.05677735
vt 0.844043 0.05677735
vt 0.8336914 0.05032227
vt 0.844043 0.05032227
vt 0.8336914 0.0417155
vt 0.844043 0.0417155
vt 0.8336914 0.03095703
vt 0.844043 0.03095703
vn 0 0 -1
vn 0 0 -1
vn 0 0 -1
vn 0 0 -1
vn 0 0 -1
vn 0 0 -1
vn 0 0 -1
vn 0 0 -1
vn 0 0 -1
vn 0 0 -0.9999999
vn 0 0 -1
vn 0 0 -0.9999999
vn 0 0 -0.9999999
vn 0 0 -1
vn 0 0 -1
vn 0 0 -1
vn 0 0 -1
vn 0 0 -1
vn 0 0 -1
vn 0 0 -1
vn 0 0 -1
vn 0 0 -1
vn 0 0 -1
vn 0 0 -1
g cornLeg_mesh_0
f 3/3/3 2/2/2 1/1/1
f 4/4/4 2/2/2 3/3/3
f 5/5/5 4/4/4 3/3/3
f 6/6/6 4/4/4 5/5/5
f 7/7/7 6/6/6 5/5/5
f 8/8/8 6/6/6 7/7/7
f 9/9/9 8/8/8 7/7/7
f 10/10/10 8/8/8 9/9/9
f 11/11/11 10/10/10 9/9/9
f 12/12/12 10/10/10 11/11/11
f 13/13/13 12/12/12 11/11/11
f 14/14/14 12/12/12 13/13/13
f 15/15/15 14/14/14 13/13/13
f 16/16/16 14/14/14 15/15/15
f 17/17/17 16/16/16 15/15/15
f 18/18/18 16/16/16 17/17/17
f 19/19/19 18/18/18 17/17/17
f 20/20/20 18/18/18 19/19/19
f 21/21/21 20/20/20 19/19/19
f 22/22/22 20/20/20 21/21/21
f 23/23/23 22/22/22 21/21/21
f 24/24/24 22/22/22 23/23/23
