g cornSilk2_mesh
v 0.25 0 0
v -0.25 0 0
v 0.25 -0.06481481 0
v -0.25 -0.06481481 0
v 0.25 -0.1296296 0
v -0.25 -0.1296296 0
v 0.25 -0.1944444 0
v -0.25 -0.1944444 0
v 0.25 -0.2592593 0
v -0.25 -0.2592593 0
v 0.25 -0.3240741 0
v -0.25 -0.3240741 0
v 0.25 -0.3888889 0
v -0.25 -0.3888889 0
v 0.25 -0.4537037 0
v -0.25 -0.4537037 0
v 0.25 -0.5185185 0
v -0.25 -0.5185185 0
v 0.25 -0.5833333 0
v -0.25 -0.5833333 0
v 0.25 -0.6481481 0
v -0.25 -0.6481481 0
v 0.25 -0.7129629 0
v -0.25 -0.7129629 0
v 0.25 -0.7777777 0
v -0.25 -0.7777777 0
v 0.25 -0.8425925 0
v -0.25 -0.8425925 0
v 0.25 -0.9074073 0
v -0.25 -0.9074073 0
v 0.25 -0.9722221 0
v -0.25 -0.9722221 0
v 0.25 -1.037037 0
v -0.25 -1.037037 0
v 0.25 -1.101852 0
v -0.25 -1.101852 0
v 0.25 -1.166667 0
v -0.25 -1.166667 0
v 0.25 -1.231481 0
v -0.25 -1.231481 0
v 0.25 -1.296296 0
v -0.25 -1.296296 0
v 0.25 -1.361111 0
v -0.25 -1.361111 0
v 0.25 -1.425926 0
v -0.25 -1.425926 0
v 0.25 -1.490741 0
v -0.25 -1.490741 0
v 0.25 -1.555555 0
v -0.25 -1.555555 0
v 0.25 -1.62037 0
v -0.25 -1.62037 0
v 0.25 -1.685185 0
v -0.25 -1.685185 0
v 0.25 -1.75 0
v -0.25 -1.75 0
vt 0.4873047 0.6689453
vt 0.5092773 0.6689453
vt 0.4873047 0.6649306
vt 0.5092773 0.6649306
vt 0.4873047 0.6609158
vt 0.5092773 0.6609158
vt 0.4873047 0.6569011
vt 0.5092773 0.6569011
vt 0.4873047 0.6528863
vt 0.5092773 0.6528863
vt 0.4873047 0.6488715
vt 0.5092773 0.6488715
vt 0.4873047 0.6448568
vt 0.5092773 0.6448568
vt 0.4873047 0.640842
vt 0.5092773 0.640842
vt 0.4873047 0.6368272
vt 0.5092773 0.6368272
vt 0.4873047 0.6328125
vt 0.5092773 0.6328125
vt 0.4873047 0.6287978
vt 0.5092773 0.6287978
vt 0.4873047 0.624783
vt 0.5092773 0.624783
vt 0.4873047 0.6207682
vt 0.5092773 0.6207682
vt 0.4873047 0.6167535
vt 0.5092773 0.6167535
vt 0.4873047 0.6127387
vt 0.5092773 0.6127387
vt 0.4873047 0.6087239
vt 0.5092773 0.6087239
vt 0.4873047 0.6047092
vt 0.5092773 0.6047092
vt 0.4873047 0.6006944
vt 0.5092773 0.6006944
vt 0.4873047 0.5966797
vt 0.5092773 0.5966797
vt 0.4873047 0.5926649
vt 0.5092773 0.5926649
vt 0.4873047 0.5886502
vt 0.5092773 0.5886502
vt 0.4873047 0.5846354
vt 0.5092773 0.5846354
vt 0.4873047 0.5806206
vt 0.5092773 0.5806206
vt 0.4873047 0.5766059
vt 0.5092773 0.5766059
vt 0.4873047 0.5725911
vt 0.5092773 0.5725911
vt 0.4873047 0.5685764
vt 0.5092773 0.5685764
vt 0.4873047 0.5645616
vt 0.5092773 0.5645616
vt 0.4873047 0.5605469
vt 0.5092773 0.5605469
vn 0 0 -1
vn 0 0 -1
vn 0 0 -1
vn 0 0 -1
vn 0 0 -1
vn 0 0 -1
vn 0 0 -1
vn 0 0 -1
vn 0 0 -1
vn 0 0 -1
vn 0 0 -1
vn 0 0 -1
vn 0 0 -1
vn 0 0 -1
vn 0 0 -1
vn 0 0 -1
vn 0 0 -1
vn 0 0 -1
vn 0 0 -1
vn 0 0 -1
vn 0 0 -1
vn 0 0 -1
vn 0 0 -1
vn 0 0 -1
vn 0 0 -1
vn 0 0 -1
vn 0 0 -1
vn 0 0 -1
vn 0 0 -1
vn 0 0 -1
vn 0 0 -1
vn 0 0 -1
vn 0 0 -1
vn 0 0 -1
vn 0 0 -1
vn 0 0 -1
vn 0 0 -1
vn 0 0 -1
vn 0 0 -1
vn 0 0 -1
vn 0 0 -1
vn 0 0 -1
vn 0 0 -1
vn 0 0 -1
vn 0 0 -1
vn 0 0 -1
vn 0 0 -1
vn 0 0 -1
vn 0 0 -1
vn 0 0 -1
vn 0 0 -1
vn 0 0 -1
vn 0 0 -1
vn 0 0 -1
vn 0 0 -1
vn 0 0 -1
g cornSilk2_mesh_0
f 3/3/3 2/2/2 1/1/1
f 4/4/4 2/2/2 3/3/3
f 5/5/5 4/4/4 3/3/3
f 6/6/6 4/4/4 5/5/5
f 7/7/7 6/6/6 5/5/5
f 8/8/8 6/6/6 7/7/7
f 9/9/9 8/8/8 7/7/7
f 10/10/10 8/8/8 9/9/9
f 11/11/11 10/10/10 9/9/9
f 12/12/12 10/10/10 11/11/11
f 13/13/13 12/12/12 11/11/11
f 14/14/14 12/12/12 13/13/13
f 15/15/15 14/14/14 13/13/13
f 16/16/16 14/14/14 15/15/15
f 17/17/17 16/16/16 15/15/15
f 18/18/18 16/16/16 17/17/17
f 19/19/19 18/18/18 17/17/17
f 20/20/20 18/18/18 19/19/19
f 21/21/21 20/20/20 19/19/19
f 22/22/22 20/20/20 21/21/21
f 23/23/23 22/22/22 21/21/21
f 24/24/24 22/22/22 23/23/23
f 25/25/25 24/24/24 23/23/23
f 26/26/26 24/24/24 25/25/25
f 27/27/27 26/26/26 25/25/25
f 28/28/28 26/26/26 27/27/27
f 29/29/29 28/28/28 27/27/27
f 30/30/30 28/28/28 29/29/29
f 31/31/31 30/30/30 29/29/29
f 32/32/32 30/30/30 31/31/31
f 33/33/33 32/32/32 31/31/31
f 34/34/34 32/32/32 33/33/33
f 35/35/35 34/34/34 33/33/33
f 36/36/36 34/34/34 35/35/35
f 37/37/37 36/36/36 35/35/35
f 38/38/38 36/36/36 37/37/37
f 39/39/39 38/38/38 37/37/37
f 40/40/40 38/38/38 39/39/39
f 41/41/41 40/40/40 39/39/39
f 42/42/42 40/40/40 41/41/41
f 43/43/43 42/42/42 41/41/41
f 44/44/44 42/42/42 43/43/43
f 45/45/45 44/44/44 43/43/43
f 46/46/46 44/44/44 45/45/45
f 47/47/47 46/46/46 45/45/45
f 48/48/48 46/46/46 47/47/47
f 49/49/49 48/48/48 47/47/47
f 50/50/50 48/48/48 49/49/49
f 51/51/51 50/50/50 49/49/49
f 52/52/52 50/50/50 51/51/51
f 53/53/53 52/52/52 51/51/51
f 54/54/54 52/52/52 53/53/53
f 55/55/55 54/54/54 53/53/53
f 56/56/56 54/54/54 55/55/55
