g dog1Tail_mesh
v 0.14 0 0
v -0.14 0 0
v 0.14 -0.09999999 0
v -0.14 -0.09999999 0
v 0.14 -0.2 0
v -0.14 -0.2 0
v 0.14 -0.3 0
v -0.14 -0.3 0
v 0.14 -0.4 0
v -0.14 -0.4 0
v 0.14 -0.5 0
v -0.14 -0.5 0
v 0.14 -0.6 0
v -0.14 -0.6 0
v 0.14 -0.6999999 0
v -0.14 -0.6999999 0
v 0.14 -0.8 0
v -0.14 -0.8 0
v 0.14 -0.9 0
v -0.14 -0.9 0
vt 0.5288086 0.2104492
vt 0.5493164 0.2104492
vt 0.5288086 0.1954753
vt 0.5493164 0.1954753
vt 0.5288086 0.1805013
vt 0.5493164 0.1805013
vt 0.5288086 0.1655273
vt 0.5493164 0.1655273
vt 0.5288086 0.1505534
vt 0.5493164 0.1505534
vt 0.5288086 0.1355794
vt 0.5493164 0.1355794
vt 0.5288086 0.1206055
vt 0.5493164 0.1206055
vt 0.5288086 0.1056315
vt 0.5493164 0.1056315
vt 0.5288086 0.09065755
vt 0.5493164 0.09065755
vt 0.5288086 0.07568359
vt 0.5493164 0.07568359
vn 0 0 -1
vn 0 0 -1
vn 0 0 -1
vn 0 0 -1
vn 0 0 -1
vn 0 0 -1
vn 0 0 -1
vn 0 0 -1
vn 0 0 -1
vn 0 0 -1
vn 0 0 -1
vn 0 0 -1
vn 0 0 -1
vn 0 0 -1
vn 0 0 -1
vn 0 0 -1
vn 0 0 -0.9999999
vn 0 0 -0.9999999
vn 0 0 -1
vn 0 0 -1
g dog1Tail_mesh_0
f 3/3/3 2/2/2 1/1/1
f 4/4/4 2/2/2 3/3/3
f 5/5/5 4/4/4 3/3/3
f 6/6/6 4/4/4 5/5/5
f 7/7/7 6/6/6 5/5/5
f 8/8/8 6/6/6 7/7/7
f 9/9/9 8/8/8 7/7/7
f 10/10/10 8/8/8 9/9/9
f 11/11/11 10/10/10 9/9/9
f 12/12/12 10/10/10 11/11/11
f 13/13/13 12/12/12 11/11/11
f 14/14/14 12/12/12 13/13/13
f 15/15/15 14/14/14 13/13/13
f 16/16/16 14/14/14 15/15/15
f 17/17/17 16/16/16 15/15/15
f 18/18/18 16/16/16 17/17/17
f 19/19/19 18/18/18 17/17/17
f 20/20/20 18/18/18 19/19/19
