g dog2Leg1_mesh
v 0.16 0 0
v -0.16 0 0
v 0.1566667 -0.1416667 0
v -0.1566667 -0.1416667 0
v 0.1494 -0.255 0
v -0.1494 -0.255 0
v 0.14119 -0.34 0
v -0.14119 -0.34 0
v 0.1343367 -0.3966667 0
v -0.1343367 -0.3966667 0
v 0.13045 -0.425 0
v -0.13045 -0.425 0
v 0.13045 -0.425 0
v -0.13045 -0.425 0
v 0.1263333 -0.4533333 0
v -0.1263333 -0.4533333 0
v 0.11764 -0.51 0
v -0.11764 -0.51 0
v 0.10322 -0.595 0
v -0.10322 -0.595 0
v 0.08123332 -0.7083333 0
v -0.08123332 -0.7083333 0
v 0.04914999 -0.85 0
v -0.04914999 -0.85 0
vt 0.6889648 0.1611328
vt 0.7050781 0.1611328
vt 0.6889648 0.1488444
vt 0.7050781 0.1488444
vt 0.6889648 0.1390137
vt 0.7050781 0.1390137
vt 0.6889648 0.1316406
vt 0.7050781 0.1316406
vt 0.6889648 0.1267253
vt 0.7050781 0.1267253
vt 0.6889648 0.1242676
vt 0.7050781 0.1242676
vt 0.6889648 0.1242676
vt 0.7050781 0.1242676
vt 0.6889648 0.1218099
vt 0.7050781 0.1218099
vt 0.6889648 0.1168945
vt 0.7050781 0.1168945
vt 0.6889648 0.1095215
vt 0.7050781 0.1095215
vt 0.6889648 0.09969076
vt 0.7050781 0.09969076
vt 0.6889648 0.08740234
vt 0.7050781 0.08740234
vn 0 0 -0.9999999
vn 0 0 -1
vn 0 0 -1
vn 0 0 -1
vn 0 0 -1
vn 0 0 -1
vn 0 0 -1
vn 0 0 -1
vn 0 0 -1
vn 0 0 -0.9999999
vn 0 0 -1
vn 0 0 -0.9999999
vn 0 0 -0.9999999
vn 0 0 -1
vn 0 0 -1
vn 0 0 -1
vn 0 0 -0.9999999
vn 0 0 -1
vn 0 0 -0.9999999
vn 0 0 -1
vn 0 0 -1
vn 0 0 -1
vn 0 0 -1
vn 0 0 -1
g dog2Leg1_mesh_0
f 3/3/3 2/2/2 1/1/1
f 4/4/4 2/2/2 3/3/3
f 5/5/5 4/4/4 3/3/3
f 6/6/6 4/4/4 5/5/5
f 7/7/7 6/6/6 5/5/5
f 8/8/8 6/6/6 7/7/7
f 9/9/9 8/8/8 7/7/7
f 10/10/10 8/8/8 9/9/9
f 11/11/11 10/10/10 9/9/9
f 12/12/12 10/10/10 11/11/11
f 13/13/13 12/12/12 11/11/11
f 14/14/14 12/12/12 13/13/13
f 15/15/15 14/14/14 13/13/13
f 16/16/16 14/14/14 15/15/15
f 17/17/17 16/16/16 15/15/15
f 18/18/18 16/16/16 17/17/17
f 19/19/19 18/18/18 17/17/17
f 20/20/20 18/18/18 19/19/19
f 21/21/21 20/20/20 19/19/19
f 22/22/22 20/20/20 21/21/21
f 23/23/23 22/22/22 21/21/21
f 24/24/24 22/22/22 23/23/23
