g dog2Ear1_mesh
v 0.16 0 0
v -0.16 0 0
v 0.1583333 -0.04545455 0
v -0.1583333 -0.04545455 0
v 0.1566667 -0.09090909 0
v -0.1566667 -0.09090909 0
v 0.155 -0.1363636 0
v -0.155 -0.1363636 0
v 0.1533333 -0.1818182 0
v -0.1533333 -0.1818182 0
v 0.1516667 -0.2272727 0
v -0.1516667 -0.2272727 0
v 0.15 -0.2727273 0
v -0.15 -0.2727273 0
v 0.1483333 -0.3181818 0
v -0.1483333 -0.3181818 0
v 0.1466667 -0.3636364 0
v -0.1466667 -0.3636364 0
v 0.145 -0.4090909 0
v -0.145 -0.4090909 0
v 0.1433333 -0.4545455 0
v -0.1433333 -0.4545455 0
v 0.1416667 -0.5000001 0
v -0.1416667 -0.5000001 0
vt 0.6853027 0.4519043
vt 0.7062988 0.4519043
vt 0.6853027 0.449019
vt 0.7062988 0.449019
vt 0.6853027 0.4461337
vt 0.7062988 0.4461337
vt 0.6853027 0.4432484
vt 0.7062988 0.4432484
vt 0.6853027 0.4403631
vt 0.7062988 0.4403631
vt 0.6853027 0.4374778
vt 0.7062988 0.4374778
vt 0.6853027 0.4345925
vt 0.7062988 0.4345925
vt 0.6853027 0.4317072
vt 0.7062988 0.4317072
vt 0.6853027 0.4288219
vt 0.7062988 0.4288219
vt 0.6853027 0.4259366
vt 0.7062988 0.4259366
vt 0.6853027 0.4230513
vt 0.7062988 0.4230513
vt 0.6853027 0.420166
vt 0.7062988 0.420166
vn 0 0 -1
vn 0 0 -1
vn 0 0 -1
vn 0 0 -1
vn 0 0 -1
vn 0 0 -1
vn 0 0 -1
vn 0 0 -1
vn 0 0 -1
vn 0 0 -1
vn 0 0 -1
vn 0 0 -1
vn 0 0 -1
vn 0 0 -1
vn 0 0 -1
vn 0 0 -1
vn 0 0 -1
vn 0 0 -1
vn 0 0 -1
vn 0 0 -1
vn 0 0 -0.9999999
vn 0 0 -1
vn 0 0 -1
vn 0 0 -1
g dog2Ear1_mesh_0
f 3/3/3 2/2/2 1/1/1
f 4/4/4 2/2/2 3/3/3
f 5/5/5 4/4/4 3/3/3
f 6/6/6 4/4/4 5/5/5
f 7/7/7 6/6/6 5/5/5
f 8/8/8 6/6/6 7/7/7
f 9/9/9 8/8/8 7/7/7
f 10/10/10 8/8/8 9/9/9
f 11/11/11 10/10/10 9/9/9
f 12/12/12 10/10/10 11/11/11
f 13/13/13 12/12/12 11/11/11
f 14/14/14 12/12/12 13/13/13
f 15/15/15 14/14/14 13/13/13
f 16/16/16 14/14/14 15/15/15
f 17/17/17 16/16/16 15/15/15
f 18/18/18 16/16/16 17/17/17
f 19/19/19 18/18/18 17/17/17
f 20/20/20 18/18/18 19/19/19
f 21/21/21 20/20/20 19/19/19
f 22/22/22 20/20/20 21/21/21
f 23/23/23 22/22/22 21/21/21
f 24/24/24 22/22/22 23/23/23
