g DoorNum12
v 1.126685 2.477847 -0.08241773
v 1.553317 2.477847 -0.08241773
v 1.553317 2.904478 -0.08241773
v 1.126685 2.904478 -0.08241773
v 1.126685 2.477847 -0.03235388
v 1.126685 2.477847 -0.08241773
v 1.126685 2.904478 -0.08241773
v 1.126685 2.904478 -0.03235388
v 1.553317 2.477847 -0.03235388
v 1.553317 2.477847 -0.08241773
v 1.126685 2.477847 -0.08241773
v 1.126685 2.477847 -0.03235388
v 1.553317 2.904478 -0.03235388
v 1.553317 2.904478 -0.08241773
v 1.553317 2.477847 -0.08241773
v 1.553317 2.477847 -0.03235388
v 1.126685 2.904478 -0.03235388
v 1.126685 2.904478 -0.08241773
v 1.553317 2.904478 -0.08241773
v 1.553317 2.904478 -0.03235388
vt 0.6035396 0.1719832
vt 0.417924 0.1719832
vt 0.417924 0.2647911
vt 0.6035396 0.2647911
vt 0.6035396 0.1719832
vt 0.6035396 0.1719832
vt 0.6035396 0.2647911
vt 0.6035396 0.2647911
vt 0.417924 0.1719832
vt 0.417924 0.1719832
vt 0.6035396 0.1719832
vt 0.6035396 0.1719832
vt 0.417924 0.2647911
vt 0.417924 0.2647911
vt 0.417924 0.1719832
vt 0.417924 0.1719832
vt 0.6035396 0.2647911
vt 0.6035396 0.2647911
vt 0.417924 0.2647911
vt 0.417924 0.2647911
vn -0.003921509 0.003921509 -0.9999846
vn -0.003921509 0.003921509 -0.9999846
vn -0.003921509 0.003921509 -0.9999846
vn -0.003921509 0.003921509 -0.9999846
vn -0.9999923 0.003921509 -0.0003449296
vn -0.9999923 0.003921509 -0.0003449296
vn -0.9999923 0.003921509 -0.0003449296
vn -0.9999923 0.003921509 -0.0003449296
vn -0.003921509 -0.9999924 0
vn -0.003921509 -0.9999924 0
vn -0.003921509 -0.9999924 0
vn -0.003921509 -0.9999924 0
vn 0.9999924 0.003921509 0
vn 0.9999924 0.003921509 0
vn 0.9999924 0.003921509 0
vn 0.9999924 0.003921509 0
vn -0.003921509 0.9999923 -0.000345267
vn -0.003921509 0.9999923 -0.000345267
vn -0.003921509 0.9999923 -0.000345267
vn -0.003921509 0.9999923 -0.000345267
g DoorNum12_0
f 3/3/3 2/2/2 1/1/1
f 4/4/4 3/3/3 1/1/1
f 7/7/7 6/6/6 5/5/5
f 8/8/8 7/7/7 5/5/5
f 11/11/11 10/10/10 9/9/9
f 12/12/12 11/11/11 9/9/9
f 15/15/15 14/14/14 13/13/13
f 16/16/16 15/15/15 13/13/13
f 19/19/19 18/18/18 17/17/17
f 20/20/20 19/19/19 17/17/17
