g DoorFrameDecoration_AO+LightBaked
v 0.4832159 0.1668717 -0.03740078
v 0.5259547 0.1668717 -0.03740078
v 0.5259547 0.2099374 -0.03740078
v 0.4832159 0.2099374 -0.03740078
v 0.162229 0.1668717 -0.03740078
v 0.162229 0.2099374 -0.03740078
v 0.162229 0.01250076 -0.03740078
v 0.4832159 0.01250076 -0.03740078
v 0.5259547 0.01250076 -0.03740078
v -0.1587579 0.01250076 -0.03740078
v -0.1587579 0.1668717 -0.03740078
v -0.4797447 0.01250076 -0.03740078
v -0.4797447 0.1668717 -0.03740078
v -0.5259609 0.01250076 -0.03740078
v -0.5259609 0.1668717 -0.03740078
v -0.4797447 0.2099374 -0.03740078
v -0.5259609 0.2099374 -0.03740078
v -0.1587579 0.2099374 -0.03740078
v -0.1587579 -0.1418701 -0.03740078
v 0.162229 -0.1418701 -0.03740078
v -0.1587579 -0.1699268 -0.03740078
v -0.4797447 -0.1699268 -0.03740078
v -0.4797447 -0.1418701 -0.03740078
v -0.5259609 -0.1699268 -0.03740078
v -0.5259609 -0.1418701 -0.03740078
v 0.162229 -0.1699268 -0.03740078
v 0.4832159 -0.1418701 -0.03740078
v 0.4832159 -0.1699268 -0.03740078
v 0.5259547 -0.1418701 -0.03740078
v 0.5259547 -0.1699268 -0.03740078
v 1.174212E-05 1.193821 -0.1932875
v 0.02985165 1.275792 -0.1759304
v 1.174212E-05 1.281053 -0.1759304
v 0.05514422 1.345309 -0.1265044
v 1.174212E-05 1.355028 -0.1265044
v 0.07205549 1.391763 -0.05252877
v 1.174212E-05 1.404454 -0.05252877
v 0.07796997 1.408051 0.03470236
v 1.174212E-05 1.421811 0.03470236
v 0.1036192 1.317312 -0.1265044
v 0.0560953 1.260664 -0.1759304
v 0.146566 1.368462 0.03470236
v 0.1353909 1.355177 -0.05252877
v 0.1396113 1.274425 -0.1265044
v 0.07556257 1.237452 -0.1759304
v 0.1974484 1.307801 0.03470236
v 0.1824096 1.299123 -0.05252877
v 0.2074347 1.230378 -0.05252877
v 0.1587814 1.221819 -0.1265044
v 0.08593521 1.20895 -0.1759304
v 0.2245242 1.23341 0.03470236
v 0.08593521 1.178664 -0.1759304
v 0.2074347 1.157235 -0.05252877
v 0.1587814 1.165824 -0.1265044
v 0.2245242 1.154233 0.03470236
v 0.1396113 1.113189 -0.1265044
v 0.07556257 1.150191 -0.1759304
v 0.1974484 1.079812 0.03470236
v 0.1824096 1.08849 -0.05252877
v 0.1036192 1.070301 -0.1265044
v 0.0560953 1.126979 -0.1759304
v 0.146566 1.019151 0.03470236
v 0.1353909 1.032436 -0.05252877
v 0.02985165 1.111821 -0.1759304
v 0.07205549 0.9958797 -0.05252877
v 0.05514422 1.042304 -0.1265044
v 0.07796997 0.9795628 0.03470236
v 1.174212E-05 0.983159 -0.05252877
v 1.174212E-05 1.032585 -0.1265044
v 1.174212E-05 1.106561 -0.1759304
v 1.174212E-05 0.965802 0.03470236
v -0.05515039 1.042304 -0.1265044
v -0.02982813 1.111821 -0.1759304
v -0.07797617 0.9795628 0.03470236
v -0.07203197 0.9958797 -0.05252877
v -0.1465425 1.019151 0.03470236
v -0.1353971 1.032436 -0.05252877
v -0.05607176 1.126979 -0.1759304
v -0.1036254 1.070301 -0.1265044
v -0.07556874 1.150191 -0.1759304
v -0.1824158 1.08849 -0.05252877
v -0.1396175 1.113189 -0.1265044
v -0.1974546 1.079812 0.03470236
v -0.1587579 1.165824 -0.1265044
v -0.08591163 1.178664 -0.1759304
v -0.2245304 1.154233 0.03470236
v -0.2074409 1.157235 -0.05252877
v -0.1587579 1.221819 -0.1265044
v -0.08591163 1.20895 -0.1759304
v -0.2245304 1.23341 0.03470236
v -0.2074409 1.230378 -0.05252877
v -0.07556874 1.237452 -0.1759304
v -0.1824158 1.299123 -0.05252877
v -0.1396175 1.274425 -0.1265044
v -0.1974546 1.307801 0.03470236
v -0.05607176 1.260664 -0.1759304
v -0.1353971 1.355177 -0.05252877
v -0.1036254 1.317312 -0.1265044
v -0.1465425 1.368462 0.03470236
v -0.05515039 1.345309 -0.1265044
v -0.02982813 1.275792 -0.1759304
v -0.07797617 1.408051 0.03470236
v -0.07203197 1.391763 -0.05252877
vt 0.8983341 0.8983341
vt -0.0001219213 -0.0001219213
vt -0.0001219213 -0.0001219213
vt -0.0001219213 -0.0001219213
vt 0.9375306 0.9375306
vt -0.0001219213 -0.0001219213
vt 1 1
vt 0.9571289 0.9571289
vt -0.0001219213 -0.0001219213
vt 1 1
vt 0.9375306 0.9375306
vt 1 1
vt 0.9375306 0.9375306
vt -0.0001219213 -0.0001219213
vt -0.0001219213 -0.0001219213
vt -0.0001219213 -0.0001219213
vt -0.0001219213 -0.0001219213
vt -0.0001219213 -0.0001219213
vt 0.8585253 0.8585253
vt 0.8585253 0.8585253
vt 0.513719 0.513719
vt 0.513719 0.513719
vt 0.8585253 0.8585253
vt -0.0001219213 -0.0001219213
vt -0.0001219213 -0.0001219213
vt 0.513719 0.513719
vt 0.8236159 0.8236159
vt 0.4941208 0.4941208
vt -0.0001219213 -0.0001219213
vt -0.0001219213 -0.0001219213
vt 1 1
vt 1 1
vt 1 1
vt 0.9295689 0.9295689
vt 0.9412053 0.9412053
vt 0.03539985 0.03539985
vt -0.0001219213 -0.0001219213
vt -0.0001219213 -0.0001219213
vt -0.0001219213 -0.0001219213
vt 0.9099706 0.9099706
vt 1 1
vt -0.0001219213 -0.0001219213
vt 0.02376342 0.02376342
vt 0.8860853 0.8860853
vt 1 1
vt -0.0001219213 -0.0001219213
vt 0.007839859 0.007839859
vt -0.0001219213 -0.0001219213
vt 0.8468889 0.8468889
vt 1 1
vt -0.0001219213 -0.0001219213
vt 1 1
vt -0.0001219213 -0.0001219213
vt 0.8468889 0.8468889
vt -0.0001219213 -0.0001219213
vt 0.8707741 0.8707741
vt 1 1
vt -0.0001219213 -0.0001219213
vt 0.007839859 0.007839859
vt 0.878736 0.878736
vt 1 1
vt -0.0001219213 -0.0001219213
vt 0.01947629 0.01947629
vt 1 1
vt 0.02743807 0.02743807
vt 0.894047 0.894047
vt -0.0001219213 -0.0001219213
vt -0.0001219213 -0.0001219213
vt 0.878736 0.878736
vt 1 1
vt -0.0001219213 -0.0001219213
vt 0.894047 0.894047
vt 1 1
vt -0.0001219213 -0.0001219213
vt 0.02743807 0.02743807
vt -0.0001219213 -0.0001219213
vt 0.01947629 0.01947629
vt 1 1
vt 0.878736 0.878736
vt 1 1
vt 0.007839859 0.007839859
vt 0.8707741 0.8707741
vt -0.0001219213 -0.0001219213
vt 0.8468889 0.8468889
vt 1 1
vt -0.0001219213 -0.0001219213
vt -0.0001219213 -0.0001219213
vt 0.8468889 0.8468889
vt 1 1
vt -0.0001219213 -0.0001219213
vt -0.0001219213 -0.0001219213
vt 1 1
vt 0.007839859 0.007839859
vt 0.8860853 0.8860853
vt -0.0001219213 -0.0001219213
vt 1 1
vt 0.02376342 0.02376342
vt 0.9099706 0.9099706
vt -0.0001219213 -0.0001219213
vt 0.9295689 0.9295689
vt 1 1
vt -0.0001219213 -0.0001219213
vt 0.03539985 0.03539985
vn 0.003846169 -0.003846169 -0.9999852
vn 0.003846169 -0.003846169 -0.9999852
vn 0.003846169 -0.003846169 -0.9999852
vn 0.003846169 -0.003846169 -0.9999852
vn 0.003846169 -0.003846169 -0.9999852
vn 0.003846169 -0.003846169 -0.9999852
vn 0.003846169 -0.003846169 -0.9999852
vn 0.003846169 -0.003846169 -0.9999852
vn 0.003846169 -0.003846169 -0.9999852
vn 0.003846169 -0.003846169 -0.9999852
vn 0.003846169 -0.003846169 -0.9999852
vn 0.003846169 -0.003846169 -0.9999852
vn 0.003846169 -0.003846169 -0.9999852
vn 0.003846169 -0.003846169 -0.9999852
vn 0.003846169 -0.003846169 -0.9999852
vn 0.003846169 -0.003846169 -0.9999852
vn 0.003846169 -0.003846169 -0.9999852
vn 0.003846169 -0.003846169 -0.9999852
vn 0.003846169 -0.003846169 -0.9999852
vn 0.003846169 -0.003846169 -0.9999852
vn 0.003846169 -0.003846169 -0.9999852
vn 0.003846169 -0.003846169 -0.9999852
vn 0.003846169 -0.003846169 -0.9999852
vn 0.003846169 -0.003846169 -0.9999852
vn 0.003846169 -0.003846169 -0.9999852
vn 0.003846169 -0.003846169 -0.9999852
vn 0.003846169 -0.003846169 -0.9999852
vn 0.003846169 -0.003846169 -0.9999852
vn 0.003846169 -0.003846169 -0.9999852
vn 0.003846169 -0.003846169 -0.9999852
vn 0.003846169 -0.003846169 -0.9999852
vn 0.1346179 0.3730841 -0.9179795
vn 0.003846169 0.403854 -0.9148154
vn 0.2423123 0.6730899 -0.698738
vn 0.003846169 0.7192445 -0.6947464
vn 0.3192368 0.8730937 -0.3685041
vn 0.003846169 0.9269409 -0.3751878
vn 0.3346217 0.9192484 -0.2073902
vn 0.003846169 0.9807881 -0.1950386
vn 0.457701 0.5500106 -0.6985686
vn 0.2576972 0.303852 -0.9172056
vn 0.626935 0.7500144 -0.2107864
vn 0.5961652 0.7115521 -0.3718611
vn 0.6192425 0.3576992 -0.6989921
vn 0.3500066 0.2038501 -0.9142978
vn 0.8500162 0.488471 -0.1971509
vn 0.8038615 0.4653936 -0.3704261
vn 0.9115558 0.1576954 -0.3797343
vn 0.7038596 0.1269255 -0.6989074
vn 0.3961614 0.07307833 -0.9152681
vn 0.965403 0.1730803 -0.195039
vn 0.3961614 -0.07307827 -0.9152681
vn 0.9115558 -0.1576952 -0.3797343
vn 0.7038596 -0.1269255 -0.6989074
vn 0.965403 -0.1730801 -0.1950391
vn 0.6192425 -0.3576991 -0.6989921
vn 0.3500066 -0.20385 -0.9142978
vn 0.8500162 -0.4884708 -0.1971513
vn 0.8038615 -0.4653935 -0.3704262
vn 0.457701 -0.5500104 -0.6985688
vn 0.2576972 -0.3038519 -0.9172056
vn 0.626935 -0.7500143 -0.2107867
vn 0.5961652 -0.711552 -0.3718612
vn 0.1346179 -0.373084 -0.9179795
vn 0.3192368 -0.8730935 -0.3685045
vn 0.2423123 -0.6730897 -0.6987381
vn 0.3346217 -0.9192483 -0.2073907
vn 0.003846169 -0.9269407 -0.3751881
vn 0.003846169 -0.7192445 -0.6947464
vn 0.003846169 -0.4038538 -0.9148154
vn 0.003846169 -0.9807879 -0.195039
vn -0.2423124 -0.6730897 -0.6987381
vn -0.134618 -0.373084 -0.9179795
vn -0.3346218 -0.9192483 -0.2073904
vn -0.3192369 -0.8730935 -0.3685044
vn -0.6269352 -0.7500143 -0.2107863
vn -0.5961654 -0.711552 -0.371861
vn -0.2576973 -0.3038519 -0.9172056
vn -0.4577011 -0.5500104 -0.6985686
vn -0.3500068 -0.20385 -0.9142978
vn -0.8038616 -0.4653935 -0.3704261
vn -0.6192427 -0.3576991 -0.698992
vn -0.8500163 -0.4884708 -0.1971512
vn -0.7038596 -0.1269255 -0.6989074
vn -0.3961615 -0.07307827 -0.9152681
vn -0.9654031 -0.1730801 -0.1950386
vn -0.9115559 -0.1576952 -0.3797341
vn -0.7038596 0.1269255 -0.6989074
vn -0.3961615 0.07307833 -0.9152681
vn -0.9654031 0.1730803 -0.1950385
vn -0.9115559 0.1576954 -0.379734
vn -0.3500068 0.2038501 -0.9142978
vn -0.8038616 0.4653936 -0.370426
vn -0.6192427 0.3576992 -0.6989919
vn -0.8500163 0.488471 -0.1971508
vn -0.2576973 0.303852 -0.9172056
vn -0.5961654 0.7115521 -0.3718609
vn -0.4577011 0.5500106 -0.6985685
vn -0.6269352 0.7500144 -0.210786
vn -0.2423124 0.6730899 -0.6987379
vn -0.134618 0.3730841 -0.9179794
vn -0.3346218 0.9192484 -0.20739
vn -0.3192369 0.8730937 -0.368504
g DoorFrameDecoration_AO+LightBaked_0
f 3/3/3 2/2/2 1/1/1
f 4/4/4 3/3/3 1/1/1
f 4/4/4 1/1/1 5/5/5
f 6/6/6 4/4/4 5/5/5
f 5/5/5 1/1/1 7/7/7
f 1/1/1 8/8/8 7/7/7
f 1/1/1 2/2/2 8/8/8
f 2/2/2 9/9/9 8/8/8
f 5/5/5 7/7/7 10/10/10
f 11/11/11 5/5/5 10/10/10
f 6/6/6 5/5/5 11/11/11
f 11/11/11 10/10/10 12/12/12
f 13/13/13 11/11/11 12/12/12
f 13/13/13 12/12/12 14/14/14
f 15/15/15 13/13/13 14/14/14
f 16/16/16 13/13/13 15/15/15
f 17/17/17 16/16/16 15/15/15
f 18/18/18 11/11/11 13/13/13
f 16/16/16 18/18/18 13/13/13
f 18/18/18 6/6/6 11/11/11
f 10/10/10 7/7/7 19/19/19
f 7/7/7 20/20/20 19/19/19
f 7/7/7 8/8/8 20/20/20
f 19/19/19 20/20/20 21/21/21
f 19/19/19 21/21/21 22/22/22
f 23/23/23 19/19/19 22/22/22
f 10/10/10 19/19/19 23/23/23
f 12/12/12 10/10/10 23/23/23
f 23/23/23 22/22/22 24/24/24
f 25/25/25 23/23/23 24/24/24
f 12/12/12 23/23/23 25/25/25
f 14/14/14 12/12/12 25/25/25
f 20/20/20 26/26/26 21/21/21
f 20/20/20 27/27/27 26/26/26
f 27/27/27 28/28/28 26/26/26
f 27/27/27 29/29/29 28/28/28
f 29/29/29 30/30/30 28/28/28
f 9/9/9 29/29/29 27/27/27
f 8/8/8 9/9/9 27/27/27
f 8/8/8 27/27/27 20/20/20
f 33/33/33 32/32/32 31/31/31
f 34/34/34 32/32/32 33/33/33
f 35/35/35 34/34/34 33/33/33
f 36/36/36 34/34/34 35/35/35
f 37/37/37 36/36/36 35/35/35
f 38/38/38 36/36/36 37/37/37
f 39/39/39 38/38/38 37/37/37
f 34/34/34 40/40/40 32/32/32
f 40/40/40 41/41/41 32/32/32
f 32/32/32 41/41/41 31/31/31
f 38/38/38 42/42/42 36/36/36
f 42/42/42 43/43/43 36/36/36
f 43/43/43 40/40/40 34/34/34
f 36/36/36 43/43/43 34/34/34
f 40/40/40 44/44/44 41/41/41
f 44/44/44 45/45/45 41/41/41
f 41/41/41 45/45/45 31/31/31
f 42/42/42 46/46/46 43/43/43
f 46/46/46 47/47/47 43/43/43
f 47/47/47 44/44/44 40/40/40
f 43/43/43 47/47/47 40/40/40
f 47/47/47 48/48/48 44/44/44
f 48/48/48 49/49/49 44/44/44
f 44/44/44 49/49/49 45/45/45
f 49/49/49 50/50/50 45/45/45
f 45/45/45 50/50/50 31/31/31
f 51/51/51 48/48/48 47/47/47
f 46/46/46 51/51/51 47/47/47
f 50/50/50 52/52/52 31/31/31
f 48/48/48 53/53/53 49/49/49
f 53/53/53 54/54/54 49/49/49
f 54/54/54 52/52/52 50/50/50
f 49/49/49 54/54/54 50/50/50
f 55/55/55 53/53/53 48/48/48
f 51/51/51 55/55/55 48/48/48
f 54/54/54 56/56/56 52/52/52
f 56/56/56 57/57/57 52/52/52
f 52/52/52 57/57/57 31/31/31
f 55/55/55 58/58/58 53/53/53
f 58/58/58 59/59/59 53/53/53
f 59/59/59 56/56/56 54/54/54
f 53/53/53 59/59/59 54/54/54
f 56/56/56 60/60/60 57/57/57
f 60/60/60 61/61/61 57/57/57
f 57/57/57 61/61/61 31/31/31
f 58/58/58 62/62/62 59/59/59
f 62/62/62 63/63/63 59/59/59
f 63/63/63 60/60/60 56/56/56
f 59/59/59 63/63/63 56/56/56
f 61/61/61 64/64/64 31/31/31
f 63/63/63 65/65/65 60/60/60
f 65/65/65 66/66/66 60/60/60
f 66/66/66 64/64/64 61/61/61
f 60/60/60 66/66/66 61/61/61
f 67/67/67 65/65/65 63/63/63
f 62/62/62 67/67/67 63/63/63
f 65/65/65 68/68/68 66/66/66
f 68/68/68 69/69/69 66/66/66
f 66/66/66 69/69/69 64/64/64
f 69/69/69 70/70/70 64/64/64
f 71/71/71 68/68/68 65/65/65
f 67/67/67 71/71/71 65/65/65
f 64/64/64 70/70/70 31/31/31
f 69/69/69 72/72/72 70/70/70
f 72/72/72 73/73/73 70/70/70
f 70/70/70 73/73/73 31/31/31
f 71/71/71 74/74/74 68/68/68
f 74/74/74 75/75/75 68/68/68
f 75/75/75 72/72/72 69/69/69
f 68/68/68 75/75/75 69/69/69
f 74/74/74 76/76/76 75/75/75
f 76/76/76 77/77/77 75/75/75
f 75/75/75 77/77/77 72/72/72
f 73/73/73 78/78/78 31/31/31
f 77/77/77 79/79/79 72/72/72
f 79/79/79 78/78/78 73/73/73
f 72/72/72 79/79/79 73/73/73
f 78/78/78 80/80/80 31/31/31
f 77/77/77 81/81/81 79/79/79
f 81/81/81 82/82/82 79/79/79
f 82/82/82 80/80/80 78/78/78
f 79/79/79 82/82/82 78/78/78
f 83/83/83 81/81/81 77/77/77
f 76/76/76 83/83/83 77/77/77
f 82/82/82 84/84/84 80/80/80
f 84/84/84 85/85/85 80/80/80
f 80/80/80 85/85/85 31/31/31
f 83/83/83 86/86/86 81/81/81
f 86/86/86 87/87/87 81/81/81
f 87/87/87 84/84/84 82/82/82
f 81/81/81 87/87/87 82/82/82
f 84/84/84 88/88/88 85/85/85
f 88/88/88 89/89/89 85/85/85
f 86/86/86 90/90/90 87/87/87
f 90/90/90 91/91/91 87/87/87
f 91/91/91 88/88/88 84/84/84
f 87/87/87 91/91/91 84/84/84
f 85/85/85 89/89/89 31/31/31
f 89/89/89 92/92/92 31/31/31
f 91/91/91 93/93/93 88/88/88
f 93/93/93 94/94/94 88/88/88
f 94/94/94 92/92/92 89/89/89
f 88/88/88 94/94/94 89/89/89
f 95/95/95 93/93/93 91/91/91
f 90/90/90 95/95/95 91/91/91
f 92/92/92 96/96/96 31/31/31
f 93/93/93 97/97/97 94/94/94
f 97/97/97 98/98/98 94/94/94
f 98/98/98 96/96/96 92/92/92
f 94/94/94 98/98/98 92/92/92
f 99/99/99 97/97/97 93/93/93
f 95/95/95 99/99/99 93/93/93
f 98/98/98 100/100/100 96/96/96
f 100/100/100 101/101/101 96/96/96
f 96/96/96 101/101/101 31/31/31
f 99/99/99 102/102/102 97/97/97
f 102/102/102 103/103/103 97/97/97
f 103/103/103 100/100/100 98/98/98
f 97/97/97 103/103/103 98/98/98
f 100/100/100 35/35/35 101/101/101
f 35/35/35 33/33/33 101/101/101
f 101/101/101 33/33/33 31/31/31
f 102/102/102 39/39/39 103/103/103
f 39/39/39 37/37/37 103/103/103
f 37/37/37 35/35/35 100/100/100
f 103/103/103 37/37/37 100/100/100
