g drainGrate_VertAO
v -0.5874979 0.6249933 0.1249979
v -0.5874979 0.6249933 -0.1249999
v -0.5874979 0.8000002 -0.1249999
v -0.5874979 0.8000002 0.1249979
v -0.412491 0.8000002 -0.1249999
v -0.412491 0.6249933 -0.1249999
v -0.5874979 0.05000699 -0.1249999
v -0.412491 0.05000699 -0.1249999
v -0.412491 0.6249933 0.1249979
v 1.013279E-06 0.6249933 -0.1249999
v 1.013279E-06 0.6249933 0.1249979
v -0.412491 0.05000699 0.1249979
v -0.5874979 0.6249933 0.1249979
v -0.5874979 0.8000002 0.1249979
v -0.412491 0.8000002 0.1249979
v -0.5874979 0.8000002 0.1249979
v -0.5874979 0.8000002 -0.1249999
v -0.5874979 0.05000699 0.1249979
v 1.013279E-06 0.8000002 0.1249979
v 1.013279E-06 0.8000002 -0.1249999
v -0.5874979 -1.013279E-06 -0.1249999
v -0.5874979 -1.013279E-06 0.1249979
v -0.5874979 0.05000699 0.1249979
v -0.412491 -1.013279E-06 -0.1249999
v -0.412491 -1.013279E-06 0.1249979
v -0.5874979 -1.013279E-06 -0.1249999
v -0.5874979 -1.013279E-06 0.1249979
v -0.5874979 -1.013279E-06 0.1249979
v -0.3254957 0.05000699 -0.1249999
v -0.3254957 -1.013279E-06 -0.1249999
v 1.013279E-06 0.05000699 -0.1249999
v 1.013279E-06 0.05000699 0.1249979
v 1.013279E-06 -1.013279E-06 -0.1249999
v 1.013279E-06 -1.013279E-06 0.1249979
v -0.3254957 0.05000699 0.1249979
v -0.3254957 -1.013279E-06 0.1249979
v 0.4124931 0.6249933 0.1249979
v 1.013279E-06 0.6249933 0.1249979
v 1.013279E-06 0.8000002 0.1249979
v 0.4124931 0.8000002 0.1249979
v 0.5875 0.6249933 0.1249979
v 0.5875 0.8000002 0.1249979
v 0.5875 0.6249933 -0.1249999
v 0.5875 0.8000002 -0.1249999
v 0.4124931 0.6249933 -0.1249999
v 0.4124931 0.8000002 -0.1249999
v 0.4124931 0.8000002 0.1249979
v 0.4124931 0.8000002 -0.1249999
v 0.5875 0.05000699 0.1249979
v 0.4124931 0.05000699 0.1249979
v 0.5875 0.05000699 -0.1249999
v 0.4124931 0.05000699 -0.1249999
v 0.4124931 0.05000699 0.1249979
v 0.4124931 0.6249933 0.1249979
v 1.013279E-06 0.6249933 -0.1249999
v 1.013279E-06 0.8000002 -0.1249999
v 1.013279E-06 0.8000002 -0.1249999
v 1.013279E-06 0.8000002 0.1249979
v 1.013279E-06 0.6249933 0.1249979
v 0.4124931 -1.013279E-06 -0.1249999
v 0.5875 -1.013279E-06 -0.1249999
v 0.5875 -1.013279E-06 0.1249979
v 0.4124931 -1.013279E-06 -0.1249999
v 0.4124931 -1.013279E-06 0.1249979
v 0.4124931 -1.013279E-06 0.1249979
v 0.3337548 -1.013279E-06 -0.1249999
v 0.3337548 0.05000699 -0.1249999
v 1.013279E-06 -1.013279E-06 -0.1249999
v 1.013279E-06 0.05000699 -0.1249999
v 0.3337548 0.05000699 0.1249979
v 1.013279E-06 0.05000699 0.1249979
v 0.3337548 -1.013279E-06 0.1249979
v 0.3337548 -1.013279E-06 -0.1249999
v 1.013279E-06 -1.013279E-06 0.1249979
v 1.013279E-06 -1.013279E-06 -0.1249999
v 0.3337548 -1.013279E-06 0.1249979
v 0.3337548 0.05000699 0.1249979
v 1.013279E-06 0.05000699 0.1249979
v 1.013279E-06 -1.013279E-06 0.1249979
v -0.2499967 0.5633831 0.0749898
v -0.2499967 0.5633831 -0.07499188
v -0.2499967 0.6249933 -0.07499188
v -0.2499967 0.6249933 0.0749898
v -0.09999382 0.6249933 -0.07499188
v -0.09999382 0.5633831 -0.07499188
v -0.09999382 0.6249933 0.0749898
v -0.09999382 0.5633831 0.0749898
v -0.2499967 0.6249933 0.0749898
v -0.2499967 0.5633831 0.0749898
v -0.09999382 0.1022381 0.0749898
v -0.2499967 0.1022381 0.0749898
v -0.09999382 0.1022381 -0.07499188
v -0.2499967 0.1022381 -0.07499188
v -0.2499967 0.1022381 0.0749898
v -0.2499967 0.05000699 0.0749898
v -0.2499967 0.05000699 -0.07499188
v -0.09999382 0.05000699 -0.07499188
v -0.09999382 0.05000699 0.0749898
v -0.2499967 0.05000699 0.0749898
v 0.09999591 0.5633831 0.0749898
v 0.09999591 0.5633831 -0.07499188
v 0.09999591 0.6249933 -0.07499188
v 0.09999591 0.6249933 0.0749898
v 0.2499988 0.6249933 -0.07499188
v 0.2499988 0.5633831 -0.07499188
v 0.2499988 0.6249933 0.0749898
v 0.2499988 0.5633831 0.0749898
v 0.09999591 0.6249933 0.0749898
v 0.09999591 0.5633831 0.0749898
v 0.2499988 0.1022381 0.0749898
v 0.09999591 0.1022381 0.0749898
v 0.2499988 0.1022381 -0.07499188
v 0.09999591 0.1022381 -0.07499188
v 0.09999591 0.1022381 0.0749898
v 0.09999591 0.05000699 0.0749898
v 0.09999591 0.05000699 -0.07499188
v 0.2499988 0.05000699 -0.07499188
v 0.2499988 0.05000699 0.0749898
v 0.09999591 0.05000699 0.0749898
vt 0.5003325 -1.204014E-05
vt 0.5003325 0.2504988
vt 0.6249108 0.2504988
vt 0.6249108 -1.204014E-05
vt 0.6249108 0.5003325
vt 0.5003325 0.5003325
vt 0.4380434 0.2504988
vt 0.4380434 0.5003325
vt 0.5003325 0.7494892
vt 0.5003325 0.5003325
vt 0.5003325 0.7494892
vt 0.4380434 0.7494892
vt 0.5003325 1
vt 0.6249108 1
vt 0.6249108 0.7494892
vt 0.8747447 0.7494892
vt 0.8747447 0.5003325
vt 0.4380434 1
vt 0.6249108 0.7494892
vt 0.6249108 0.5003325
vt 0.3750772 0.2504988
vt 0.3750772 -1.204014E-05
vt 0.4380434 -1.204014E-05
vt 0.3750772 0.5003325
vt 0.3750772 0.7494892
vt 0.1252434 0.5003325
vt 0.1252434 0.7494892
vt 0.3750772 1
vt 0.4380434 0.5003325
vt 0.3750772 0.5003325
vt 0.4380434 0.5003325
vt 0.4380434 0.7494892
vt 0.3750772 0.5003325
vt 0.3750772 0.7494892
vt 0.4380434 0.7494892
vt 0.3750772 0.7494892
vt 0.5003325 1
vt 0.5003325 1
vt 0.6249108 1
vt 0.6249108 1
vt 0.5003325 0.7494892
vt 0.6249108 0.7494892
vt 0.5003325 0.5003325
vt 0.6249108 0.5003325
vt 0.5003325 0.2504988
vt 0.6249108 0.2504988
vt 0.8747447 0.7494892
vt 0.8747447 0.5003325
vt 0.4380434 0.7494892
vt 0.4380434 1
vt 0.4380434 0.5003325
vt 0.4380434 0.2504988
vt 0.4380434 -1.204014E-05
vt 0.5003325 -1.204014E-05
vt 0.5003325 0.2504988
vt 0.6249108 0.2504988
vt 0.8747447 0.5003325
vt 0.8747447 0.7494892
vt 0.5003325 -1.204014E-05
vt 0.3750772 0.2504988
vt 0.3750772 0.5003325
vt 0.3750772 0.7494892
vt 0.1252434 0.5003325
vt 0.1252434 0.7494892
vt 0.3750772 1
vt 0.3750772 0.2504988
vt 0.4380434 0.2504988
vt 0.3750772 0.2504988
vt 0.4380434 0.2504988
vt 0.4380434 -1.204014E-05
vt 0.4380434 -1.204014E-05
vt 0.1252434 0.7494892
vt 0.1252434 0.5003325
vt 0.1252434 0.7494892
vt 0.1252434 0.5003325
vt 0.3750772 1
vt 0.4380434 1
vt 0.4380434 1
vt 0.3750772 1
vt 0.5003325 -1.204014E-05
vt 0.5003325 0.2504988
vt 0.6249108 0.2504988
vt 0.6249108 -1.204014E-05
vt 0.6249108 0.5003325
vt 0.5003325 0.5003325
vt 0.6249108 0.7494892
vt 0.5003325 0.7494892
vt 0.6249108 1
vt 0.5003325 1
vt 0.4380434 0.7494892
vt 0.4380434 1
vt 0.4380434 0.5003325
vt 0.4380434 0.2504988
vt 0.4380434 -1.204014E-05
vt 0.3750772 -1.204014E-05
vt 0.3750772 0.2504988
vt 0.3750772 0.5003325
vt 0.3750772 0.7494892
vt 0.3750772 1
vt 0.5003325 -1.204014E-05
vt 0.5003325 0.2504988
vt 0.6249108 0.2504988
vt 0.6249108 -1.204014E-05
vt 0.6249108 0.5003325
vt 0.5003325 0.5003325
vt 0.6249108 0.7494892
vt 0.5003325 0.7494892
vt 0.6249108 1
vt 0.5003325 1
vt 0.4380434 0.7494892
vt 0.4380434 1
vt 0.4380434 0.5003325
vt 0.4380434 0.2504988
vt 0.4380434 -1.204014E-05
vt 0.3750772 -1.204014E-05
vt 0.3750772 0.2504988
vt 0.3750772 0.5003325
vt 0.3750772 0.7494892
vt 0.3750772 1
vn -0.7071068 -0.002772927 0.7071013
vn -0.7071068 -0.002772927 -0.7071013
vn -0.5795503 0.5795503 -0.5729248
vn -0.5795503 0.5795503 0.5729248
vn 0.002772927 0.7071068 -0.7071013
vn 0.3022535 -0.3022535 -0.9040385
vn -0.7071068 -0.002772927 -0.7071013
vn 0.3022535 0.3022535 -0.9040385
vn 0.3022535 -0.3022535 0.9040385
vn 0.3355291 -0.6682853 -0.6639391
vn 0.3355291 -0.6682853 0.6639391
vn 0.3022535 0.3022535 0.9040385
vn -0.7071068 -0.002772927 0.7071013
vn -0.5795503 0.5795503 0.5729248
vn 0.002772927 0.7071068 0.7071013
vn -0.5795503 0.5795503 0.5729248
vn -0.5795503 0.5795503 -0.5729248
vn -0.7071068 -0.002772927 0.7071013
vn 0.3355291 0.6682853 0.663939
vn 0.3355291 0.6682853 -0.663939
vn -0.5795503 -0.5795503 -0.5729249
vn -0.5795503 -0.5795503 0.5729249
vn -0.7071068 -0.002772927 0.7071013
vn 0.002772927 -0.7071068 -0.7071013
vn 0.002772927 -0.7071068 0.7071013
vn -0.5795503 -0.5795503 -0.5729249
vn -0.5795503 -0.5795503 0.5729249
vn -0.5795503 -0.5795503 0.5729249
vn 0.002772927 0.7071068 -0.7071013
vn 0.002772927 -0.7071068 -0.7071013
vn 0.3355291 0.6682853 -0.663939
vn 0.3355291 0.6682853 0.663939
vn 0.3355291 -0.6682853 -0.6639391
vn 0.3355291 -0.6682853 0.6639391
vn 0.002772927 0.7071068 0.7071013
vn 0.002772927 -0.7071068 0.7071013
vn -0.3022535 -0.3022535 0.9040385
vn 0.3355291 -0.6682853 0.6639391
vn 0.3355291 0.6682853 0.663939
vn 0.002772927 0.7071068 0.7071013
vn 0.7071068 -0.002772927 0.7071013
vn 0.5795503 0.5795503 0.5729249
vn 0.7071068 -0.002772927 -0.7071013
vn 0.5795503 0.5795503 -0.5729249
vn -0.3022535 -0.3022535 -0.9040385
vn 0.002772927 0.7071068 -0.7071013
vn 0.002772927 0.7071068 0.7071013
vn 0.002772927 0.7071068 -0.7071013
vn 0.7071068 -0.002772927 0.7071013
vn -0.3022535 0.3022535 0.9040385
vn 0.7071068 -0.002772927 -0.7071013
vn -0.3022535 0.3022535 -0.9040385
vn -0.3022535 0.3022535 0.9040385
vn -0.3022535 -0.3022535 0.9040385
vn 0.3355291 -0.6682853 -0.6639391
vn 0.3355291 0.6682853 -0.663939
vn 0.3355291 0.6682853 -0.663939
vn 0.3355291 0.6682853 0.663939
vn 0.3355291 -0.6682853 0.6639391
vn 0.002772927 -0.7071068 -0.7071013
vn 0.5795503 -0.5795503 -0.5729249
vn 0.5795503 -0.5795503 0.5729249
vn 0.002772927 -0.7071068 -0.7071013
vn 0.002772927 -0.7071068 0.7071013
vn 0.002772927 -0.7071068 0.7071013
vn 0.002772927 -0.7071068 -0.7071013
vn 0.002772927 0.7071068 -0.7071013
vn 0.3355291 -0.6682853 -0.6639391
vn 0.3355291 0.6682853 -0.663939
vn 0.002772927 0.7071068 0.7071013
vn 0.3355291 0.6682853 0.663939
vn 0.002772927 -0.7071068 0.7071013
vn 0.002772927 -0.7071068 -0.7071013
vn 0.3355291 -0.6682853 0.6639391
vn 0.3355291 -0.6682853 -0.6639391
vn 0.002772927 -0.7071068 0.7071013
vn 0.002772927 0.7071068 0.7071013
vn 0.3355291 0.6682853 0.663939
vn 0.3355291 -0.6682853 0.6639391
vn -0.7071068 -0.002772927 0.7071013
vn -0.7071068 -0.002772927 -0.7071013
vn -0.7071068 -0.002772927 -0.7071013
vn -0.7071068 -0.002772927 0.7071013
vn 0.7071068 -0.002772927 -0.7071013
vn 0.7071068 -0.002772927 -0.7071013
vn 0.7071068 -0.002772927 0.7071013
vn 0.7071068 -0.002772927 0.7071013
vn -0.7071068 -0.002772927 0.7071013
vn -0.7071068 -0.002772927 0.7071013
vn 0.7071068 -0.002772927 0.7071013
vn -0.7071068 -0.002772927 0.7071013
vn 0.7071068 -0.002772927 -0.7071013
vn -0.7071068 -0.002772927 -0.7071013
vn -0.7071068 -0.002772927 0.7071013
vn -0.7071068 -0.002772927 0.7071013
vn -0.7071068 -0.002772927 -0.7071013
vn 0.7071068 -0.002772927 -0.7071013
vn 0.7071068 -0.002772927 0.7071013
vn -0.7071068 -0.002772927 0.7071013
vn -0.7071068 -0.002772927 0.7071013
vn -0.7071068 -0.002772927 -0.7071013
vn -0.7071068 -0.002772927 -0.7071013
vn -0.7071068 -0.002772927 0.7071013
vn 0.7071068 -0.002772927 -0.7071013
vn 0.7071068 -0.002772927 -0.7071013
vn 0.7071068 -0.002772927 0.7071013
vn 0.7071068 -0.002772927 0.7071013
vn -0.7071068 -0.002772927 0.7071013
vn -0.7071068 -0.002772927 0.7071013
vn 0.7071068 -0.002772927 0.7071013
vn -0.7071068 -0.002772927 0.7071013
vn 0.7071068 -0.002772927 -0.7071013
vn -0.7071068 -0.002772927 -0.7071013
vn -0.7071068 -0.002772927 0.7071013
vn -0.7071068 -0.002772927 0.7071013
vn -0.7071068 -0.002772927 -0.7071013
vn 0.7071068 -0.002772927 -0.7071013
vn 0.7071068 -0.002772927 0.7071013
vn -0.7071068 -0.002772927 0.7071013
g drainGrate_VertAO_0
f 3/3/3 2/2/2 1/1/1
f 4/4/4 3/3/3 1/1/1
f 3/3/3 5/5/5 2/2/2
f 5/5/5 6/6/6 2/2/2
f 2/2/2 6/6/6 7/7/7
f 6/6/6 8/8/8 7/7/7
f 6/6/6 9/9/9 8/8/8
f 6/6/6 10/10/10 9/9/9
f 10/10/10 11/11/11 9/9/9
f 9/9/9 12/12/12 8/8/8
f 9/9/9 13/13/13 12/12/12
f 14/14/14 13/13/13 9/9/9
f 15/15/15 14/14/14 9/9/9
f 9/9/9 11/11/11 15/15/15
f 16/16/16 15/15/15 5/5/5
f 17/17/17 16/16/16 5/5/5
f 13/13/13 18/18/18 12/12/12
f 19/19/19 11/11/11 10/10/10
f 11/11/11 19/19/19 15/15/15
f 15/15/15 19/19/19 5/5/5
f 20/20/20 19/19/19 10/10/10
f 19/19/19 20/20/20 5/5/5
f 20/20/20 10/10/10 6/6/6
f 5/5/5 20/20/20 6/6/6
f 7/7/7 8/8/8 21/21/21
f 7/7/7 21/21/21 22/22/22
f 23/23/23 7/7/7 22/22/22
f 8/8/8 24/24/24 21/21/21
f 12/12/12 18/18/18 25/25/25
f 24/24/24 25/25/25 26/26/26
f 25/25/25 27/27/27 26/26/26
f 18/18/18 28/28/28 25/25/25
f 8/8/8 29/29/29 24/24/24
f 29/29/29 30/30/30 24/24/24
f 24/24/24 30/30/30 25/25/25
f 29/29/29 31/31/31 30/30/30
f 32/32/32 31/31/31 29/29/29
f 31/31/31 32/32/32 33/33/33
f 31/31/31 33/33/33 30/30/30
f 32/32/32 34/34/34 33/33/33
f 34/34/34 32/32/32 35/35/35
f 35/35/35 32/32/32 29/29/29
f 35/35/35 29/29/29 8/8/8
f 36/36/36 34/34/34 35/35/35
f 33/33/33 34/34/34 36/36/36
f 30/30/30 33/33/33 36/36/36
f 30/30/30 36/36/36 25/25/25
f 12/12/12 35/35/35 8/8/8
f 36/36/36 35/35/35 12/12/12
f 25/25/25 36/36/36 12/12/12
f 2/2/2 7/7/7 23/23/23
f 1/1/1 2/2/2 23/23/23
f 39/39/39 38/38/38 37/37/37
f 40/40/40 39/39/39 37/37/37
f 40/40/40 37/37/37 41/41/41
f 42/42/42 40/40/40 41/41/41
f 42/42/42 41/41/41 43/43/43
f 44/44/44 42/42/42 43/43/43
f 44/44/44 43/43/43 45/45/45
f 46/46/46 44/44/44 45/45/45
f 47/47/47 42/42/42 44/44/44
f 48/48/48 47/47/47 44/44/44
f 41/41/41 37/37/37 49/49/49
f 37/37/37 50/50/50 49/49/49
f 41/41/41 49/49/49 51/51/51
f 43/43/43 41/41/41 51/51/51
f 43/43/43 51/51/51 52/52/52
f 45/45/45 43/43/43 52/52/52
f 45/45/45 52/52/52 53/53/53
f 54/54/54 45/45/45 53/53/53
f 45/45/45 55/55/55 46/46/46
f 55/55/55 56/56/56 46/46/46
f 48/48/48 57/57/57 47/47/47
f 57/57/57 58/58/58 47/47/47
f 59/59/59 55/55/55 45/45/45
f 54/54/54 59/59/59 45/45/45
f 52/52/52 51/51/51 60/60/60
f 51/51/51 61/61/61 60/60/60
f 51/51/51 49/49/49 61/61/61
f 49/49/49 62/62/62 61/61/61
f 49/49/49 50/50/50 62/62/62
f 61/61/61 62/62/62 63/63/63
f 62/62/62 64/64/64 63/63/63
f 50/50/50 65/65/65 62/62/62
f 60/60/60 66/66/66 52/52/52
f 66/66/66 67/67/67 52/52/52
f 52/52/52 67/67/67 53/53/53
f 66/66/66 68/68/68 67/67/67
f 68/68/68 69/69/69 67/67/67
f 67/67/67 69/69/69 70/70/70
f 69/69/69 71/71/71 70/70/70
f 64/64/64 72/72/72 63/63/63
f 72/72/72 73/73/73 63/63/63
f 72/72/72 74/74/74 73/73/73
f 74/74/74 75/75/75 73/73/73
f 67/67/67 70/70/70 53/53/53
f 77/77/77 76/76/76 65/65/65
f 77/77/77 78/78/78 76/76/76
f 78/78/78 79/79/79 76/76/76
f 50/50/50 77/77/77 65/65/65
f 82/82/82 81/81/81 80/80/80
f 83/83/83 82/82/82 80/80/80
f 82/82/82 84/84/84 81/81/81
f 84/84/84 85/85/85 81/81/81
f 84/84/84 86/86/86 85/85/85
f 86/86/86 87/87/87 85/85/85
f 86/86/86 88/88/88 87/87/87
f 88/88/88 89/89/89 87/87/87
f 87/87/87 89/89/89 90/90/90
f 89/89/89 91/91/91 90/90/90
f 87/87/87 90/90/90 92/92/92
f 85/85/85 87/87/87 92/92/92
f 85/85/85 92/92/92 93/93/93
f 81/81/81 85/85/85 93/93/93
f 81/81/81 93/93/93 94/94/94
f 80/80/80 81/81/81 94/94/94
f 94/94/94 93/93/93 95/95/95
f 93/93/93 96/96/96 95/95/95
f 93/93/93 92/92/92 96/96/96
f 92/92/92 97/97/97 96/96/96
f 92/92/92 90/90/90 97/97/97
f 90/90/90 98/98/98 97/97/97
f 90/90/90 91/91/91 98/98/98
f 91/91/91 99/99/99 98/98/98
f 102/102/102 101/101/101 100/100/100
f 103/103/103 102/102/102 100/100/100
f 102/102/102 104/104/104 101/101/101
f 104/104/104 105/105/105 101/101/101
f 104/104/104 106/106/106 105/105/105
f 106/106/106 107/107/107 105/105/105
f 106/106/106 108/108/108 107/107/107
f 108/108/108 109/109/109 107/107/107
f 107/107/107 109/109/109 110/110/110
f 109/109/109 111/111/111 110/110/110
f 107/107/107 110/110/110 112/112/112
f 105/105/105 107/107/107 112/112/112
f 105/105/105 112/112/112 113/113/113
f 101/101/101 105/105/105 113/113/113
f 101/101/101 113/113/113 114/114/114
f 100/100/100 101/101/101 114/114/114
f 114/114/114 113/113/113 115/115/115
f 113/113/113 116/116/116 115/115/115
f 113/113/113 112/112/112 116/116/116
f 112/112/112 117/117/117 116/116/116
f 112/112/112 110/110/110 117/117/117
f 110/110/110 118/118/118 117/117/117
f 110/110/110 111/111/111 118/118/118
f 111/111/111 119/119/119 118/118/118
