g DrapesPull
v -0.03981066 -4.121911 -0.03975725
v -0.03981066 -4.121911 0.03981066
v 0.03975725 -4.121911 0.03981066
v 0.03975725 -4.121911 -0.03975725
v 0.02773762 -0.6732094 -0.02773762
v 0.02773762 2.670288E-05 -0.02773762
v -2.670288E-05 2.670288E-05 -0.03926516
v -2.670288E-05 -0.6732094 -0.03926516
v -0.02772093 2.670288E-05 -0.02773762
v 0.03926516 -0.6732094 2.670288E-05
v 0.03926516 2.670288E-05 2.670288E-05
v -0.02772093 -0.6732094 -0.02773762
v -0.03924847 2.670288E-05 2.670288E-05
v 0.02773762 -0.6732094 0.02772093
v 0.02773762 2.670288E-05 0.02772093
v -0.03924847 -0.6732094 2.670288E-05
v -0.02772093 2.670288E-05 0.02772093
v -2.670288E-05 -0.6732094 0.03924847
v -2.670288E-05 2.670288E-05 0.03924847
v -0.02772093 -0.6732094 0.02772093
v 0.03926516 -1.346446 2.670288E-05
v 0.02773762 -1.346446 -0.02773762
v -2.670288E-05 -1.346446 -0.03926516
v 0.02773762 -1.346446 0.02772093
v -0.02772093 -1.346446 -0.02773762
v -0.03924847 -1.346446 2.670288E-05
v -2.670288E-05 -1.346446 0.03924847
v -0.02772093 -1.346446 0.02772093
v 0.03926516 -2.019752 2.670288E-05
v 0.02773762 -2.019752 -0.02773762
v -2.670288E-05 -2.019752 -0.03926516
v 0.02773762 -2.019752 0.02772093
v -0.02772093 -2.019752 -0.02773762
v -0.03924847 -2.019752 2.670288E-05
v -2.670288E-05 -2.019752 0.03924847
v -0.02772093 -2.019752 0.02772093
v 0.03926516 -2.692988 2.670288E-05
v 0.02773762 -2.692988 -0.02773762
v -2.670288E-05 -2.692988 -0.03926516
v 0.02773762 -2.692988 0.02772093
v -0.02772093 -2.692988 -0.02773762
v -0.03924847 -2.692988 2.670288E-05
v -2.670288E-05 -2.692988 0.03924847
v -0.02772093 -2.692988 0.02772093
v 0.03926516 -3.366224 2.670288E-05
v 0.02773762 -3.366224 -0.02773762
v -2.670288E-05 -3.366224 -0.03926516
v 0.02773762 -3.366224 0.02772093
v -0.02772093 -3.366224 -0.02773762
v -0.03924847 -3.366224 2.670288E-05
v -2.670288E-05 -3.366224 0.03924847
v -0.02772093 -3.366224 0.02772093
v 0.03926516 -4.039461 2.670288E-05
v 0.02773762 -4.039461 -0.02773762
v -2.670288E-05 -4.039461 -0.03926516
v 0.02773762 -4.039461 0.02772093
v -0.02772093 -4.039461 -0.02773762
v -0.03924847 -4.039461 2.670288E-05
v -2.670288E-05 -4.039461 0.03924847
v -0.02772093 -4.039461 0.02772093
v 0.0532527 -4.047333 2.670288E-05
v 0.03764868 -4.047333 -0.03764868
v -2.670288E-05 -4.047333 -0.0532527
v 0.03764868 -4.047333 0.03763199
v -0.03763199 -4.047333 -0.03764868
v -0.05323601 -4.047333 2.670288E-05
v -2.670288E-05 -4.047333 0.05323601
v -0.03763199 -4.047333 0.03763199
v -2.670288E-05 -4.086274 -0.0921936
v 0.06520224 -4.086274 -0.06520224
v -0.06518555 -4.086274 -0.06520224
v 0.0921936 -4.086274 2.670288E-05
v -0.09217691 -4.086274 2.670288E-05
v -0.06518555 -4.086274 0.06518555
v 0.06520224 -4.086274 0.06518555
v -2.670288E-05 -4.086274 0.09217691
v -2.670288E-05 -4.139483 -0.1064625
v -0.0752368 -4.139483 -0.07525349
v -0.1064458 -4.139483 2.670288E-05
v 0.07525349 -4.139483 -0.07525349
v -0.0752368 -4.139483 0.0752368
v 0.1064625 -4.139483 2.670288E-05
v 0.07525349 -4.139483 0.0752368
v -2.670288E-05 -4.139483 0.1064458
v -0.09217691 -4.192692 2.670288E-05
v -0.06518555 -4.192692 -0.06520224
v -2.670288E-05 -4.192692 -0.0921936
v 0.06520224 -4.192692 -0.06520224
v -0.06518555 -4.192692 0.06518555
v 0.0921936 -4.192692 2.670288E-05
v 0.06520224 -4.192692 0.06518555
v -2.670288E-05 -4.192692 0.09217691
v -0.05323601 -4.231703 2.670288E-05
v -0.03763199 -4.231703 -0.03764868
v -2.670288E-05 -4.231703 -0.0532527
v 0.03764868 -4.231703 -0.03764868
v -0.03763199 -4.231703 0.03763199
v 0.0532527 -4.231703 2.670288E-05
v 0.03764868 -4.231703 0.03763199
v -2.670288E-05 -4.231703 0.05323601
v -2.670288E-05 -4.5 -0.07975197
v -0.05639935 -4.5 -0.05641603
v 0.05641603 -4.5 -0.05641603
v 0.07975197 -4.5 2.670288E-05
v -0.07980585 -4.5 2.670288E-05
v -0.05639935 -4.5 0.05639935
v 0.05641603 -4.5 0.05639935
v -2.670288E-05 -4.5 0.07980585
vn -0.003921509 -0.9999924 0
vn -0.003921509 -0.9999924 0
vn -0.003921509 -0.9999924 0
vn -0.003921509 -0.9999924 0
vn 0.7097985 0.003921509 -0.7043939
vn 0.7097985 0.003921509 -0.7043939
vn -0.003921509 0.003921509 -0.9999846
vn -0.003921509 0.003921509 -0.9999846
vn -0.7097985 0.003921509 -0.7043939
vn 0.9999924 0.003921509 0
vn 0.9999924 0.003921509 0
vn -0.7097985 0.003921509 -0.7043939
vn -0.9999923 0.003921509 -0.0003449296
vn 0.7097985 0.003921509 0.7043939
vn 0.7097985 0.003921509 0.7043939
vn -0.9999923 0.003921509 -0.0003449296
vn -0.7097985 0.003921509 0.7043939
vn -0.003921509 0.003921509 0.9999846
vn -0.003921509 0.003921509 0.9999846
vn -0.7097985 0.003921509 0.7043939
vn 0.9999924 0.003921509 0
vn 0.7097985 0.003921509 -0.7043939
vn -0.003921509 0.003921509 -0.9999846
vn 0.7097985 0.003921509 0.7043939
vn -0.7097985 0.003921509 -0.7043939
vn -0.9999923 0.003921509 -0.0003449296
vn -0.003921509 0.003921509 0.9999846
vn -0.7097985 0.003921509 0.7043939
vn 0.9999924 0.003921509 0
vn 0.7097985 0.003921509 -0.7043939
vn -0.003921509 0.003921509 -0.9999846
vn 0.7097985 0.003921509 0.7043939
vn -0.7097985 0.003921509 -0.7043939
vn -0.9999923 0.003921509 -0.0003449296
vn -0.003921509 0.003921509 0.9999846
vn -0.7097985 0.003921509 0.7043939
vn 0.9999924 0.003921509 0
vn 0.7097985 0.003921509 -0.7043939
vn -0.003921509 0.003921509 -0.9999846
vn 0.7097985 0.003921509 0.7043939
vn -0.7097985 0.003921509 -0.7043939
vn -0.9999923 0.003921509 -0.0003449296
vn -0.003921509 0.003921509 0.9999846
vn -0.7097985 0.003921509 0.7043939
vn 0.9999924 0.003921509 0
vn 0.7097985 0.003921509 -0.7043939
vn -0.003921509 0.003921509 -0.9999846
vn 0.7097985 0.003921509 0.7043939
vn -0.7097985 0.003921509 -0.7043939
vn -0.9999923 0.003921509 -0.0003449296
vn -0.003921509 0.003921509 0.9999846
vn -0.7097985 0.003921509 0.7043939
vn 0.8196016 0.5686231 -0.07014997
vn 0.5843093 0.5686231 -0.5790082
vn -0.003921509 0.5686231 -0.8225889
vn 0.5843093 0.5686231 0.5790082
vn -0.5843092 0.5686231 -0.5790083
vn -0.8196015 0.5686231 -0.07015082
vn -0.003921509 0.5686231 0.8225889
vn -0.5843092 0.5686231 0.5790083
vn 0.6235247 0.7803861 -0.04705901
vn 0.4431339 0.7803861 -0.4411688
vn -0.003921509 0.7803861 -0.6252857
vn 0.4431339 0.7803861 0.4411688
vn -0.4431338 0.7803861 -0.4411688
vn -0.6235245 0.7803861 -0.04706028
vn -0.003921509 0.7803861 0.6252857
vn -0.4431338 0.7803861 0.4411688
vn -0.003921509 0.4745061 -0.8802435
vn 0.6235247 0.4745061 -0.621338
vn -0.6235245 0.4745061 -0.6213381
vn 0.8807223 0.4736328 0
vn -0.8807224 0.4736329 0
vn -0.6235245 0.4745061 0.6213381
vn 0.6235247 0.4745061 0.621338
vn -0.003921509 0.4745061 0.8802435
vn -0.003921509 0.003921509 -0.9999846
vn -0.7097985 0.003921509 -0.7043939
vn -0.9999923 0.003921509 -0.0003449296
vn 0.7097985 0.003921509 -0.7043939
vn -0.7097985 0.003921509 0.7043939
vn 0.9999924 0.003921509 0
vn 0.7097985 0.003921509 0.7043939
vn -0.003921509 0.003921509 0.9999846
vn -0.8807224 -0.473633 0
vn -0.6235245 -0.4745062 -0.6213381
vn -0.003921509 -0.4745062 -0.8802434
vn 0.6235247 -0.4745062 -0.621338
vn -0.6235245 -0.4745062 0.6213381
vn 0.8807223 -0.4736329 0
vn 0.6235247 -0.4745062 0.621338
vn -0.003921509 -0.4745062 0.8802434
vn -0.9282063 -0.3720658 0
vn -0.6548969 -0.3725462 -0.65751
vn -0.003921509 -0.3725462 -0.9280053
vn 0.654897 -0.3725462 -0.6575099
vn -0.6548969 -0.3725462 0.65751
vn 0.9282063 -0.3720658 0
vn 0.654897 -0.3725462 0.6575099
vn -0.003921509 -0.3725462 0.9280053
vn -0.003921509 -0.5921524 -0.8058165
vn -0.5686231 -0.5921524 -0.5709846
vn 0.5686231 -0.5921524 -0.5709845
vn 0.8039154 -0.5921524 -0.05545755
vn -0.8039154 -0.5921524 -0.05545863
vn -0.5686231 -0.5921524 0.5709846
vn 0.5686231 -0.5921524 0.5709845
vn -0.003921509 -0.5921524 0.8058165
g DrapesPull_0
f 3/3/3 2/2/2 1/1/1
f 4/4/4 3/3/3 1/1/1
f 7/7/7 6/6/6 5/5/5
f 8/8/8 7/7/7 5/5/5
f 9/9/9 7/7/7 8/8/8
f 5/5/5 6/6/6 10/10/10
f 6/6/6 11/11/11 10/10/10
f 12/12/12 9/9/9 8/8/8
f 13/13/13 9/9/9 12/12/12
f 10/10/10 11/11/11 14/14/14
f 11/11/11 15/15/15 14/14/14
f 16/16/16 13/13/13 12/12/12
f 17/17/17 13/13/13 16/16/16
f 14/14/14 15/15/15 18/18/18
f 15/15/15 19/19/19 18/18/18
f 19/19/19 17/17/17 20/20/20
f 20/20/20 17/17/17 16/16/16
f 18/18/18 19/19/19 20/20/20
f 5/5/5 10/10/10 21/21/21
f 8/8/8 5/5/5 22/22/22
f 22/22/22 5/5/5 21/21/21
f 12/12/12 8/8/8 23/23/23
f 23/23/23 8/8/8 22/22/22
f 10/10/10 14/14/14 24/24/24
f 21/21/21 10/10/10 24/24/24
f 16/16/16 12/12/12 25/25/25
f 25/25/25 12/12/12 23/23/23
f 20/20/20 16/16/16 26/26/26
f 26/26/26 16/16/16 25/25/25
f 14/14/14 18/18/18 27/27/27
f 24/24/24 14/14/14 27/27/27
f 18/18/18 20/20/20 28/28/28
f 28/28/28 20/20/20 26/26/26
f 27/27/27 18/18/18 28/28/28
f 22/22/22 21/21/21 29/29/29
f 23/23/23 22/22/22 30/30/30
f 30/30/30 22/22/22 29/29/29
f 25/25/25 23/23/23 31/31/31
f 31/31/31 23/23/23 30/30/30
f 21/21/21 24/24/24 32/32/32
f 29/29/29 21/21/21 32/32/32
f 26/26/26 25/25/25 33/33/33
f 33/33/33 25/25/25 31/31/31
f 28/28/28 26/26/26 34/34/34
f 34/34/34 26/26/26 33/33/33
f 24/24/24 27/27/27 35/35/35
f 32/32/32 24/24/24 35/35/35
f 27/27/27 28/28/28 36/36/36
f 36/36/36 28/28/28 34/34/34
f 35/35/35 27/27/27 36/36/36
f 30/30/30 29/29/29 37/37/37
f 31/31/31 30/30/30 38/38/38
f 38/38/38 30/30/30 37/37/37
f 33/33/33 31/31/31 39/39/39
f 39/39/39 31/31/31 38/38/38
f 29/29/29 32/32/32 40/40/40
f 37/37/37 29/29/29 40/40/40
f 34/34/34 33/33/33 41/41/41
f 41/41/41 33/33/33 39/39/39
f 36/36/36 34/34/34 42/42/42
f 42/42/42 34/34/34 41/41/41
f 32/32/32 35/35/35 43/43/43
f 40/40/40 32/32/32 43/43/43
f 35/35/35 36/36/36 44/44/44
f 44/44/44 36/36/36 42/42/42
f 43/43/43 35/35/35 44/44/44
f 38/38/38 37/37/37 45/45/45
f 39/39/39 38/38/38 46/46/46
f 46/46/46 38/38/38 45/45/45
f 41/41/41 39/39/39 47/47/47
f 47/47/47 39/39/39 46/46/46
f 37/37/37 40/40/40 48/48/48
f 45/45/45 37/37/37 48/48/48
f 42/42/42 41/41/41 49/49/49
f 49/49/49 41/41/41 47/47/47
f 44/44/44 42/42/42 50/50/50
f 50/50/50 42/42/42 49/49/49
f 40/40/40 43/43/43 51/51/51
f 48/48/48 40/40/40 51/51/51
f 43/43/43 44/44/44 52/52/52
f 52/52/52 44/44/44 50/50/50
f 51/51/51 43/43/43 52/52/52
f 46/46/46 45/45/45 53/53/53
f 47/47/47 46/46/46 54/54/54
f 54/54/54 46/46/46 53/53/53
f 49/49/49 47/47/47 55/55/55
f 55/55/55 47/47/47 54/54/54
f 45/45/45 48/48/48 56/56/56
f 53/53/53 45/45/45 56/56/56
f 50/50/50 49/49/49 57/57/57
f 57/57/57 49/49/49 55/55/55
f 52/52/52 50/50/50 58/58/58
f 58/58/58 50/50/50 57/57/57
f 48/48/48 51/51/51 59/59/59
f 56/56/56 48/48/48 59/59/59
f 51/51/51 52/52/52 60/60/60
f 60/60/60 52/52/52 58/58/58
f 59/59/59 51/51/51 60/60/60
f 54/54/54 53/53/53 61/61/61
f 55/55/55 54/54/54 62/62/62
f 62/62/62 54/54/54 61/61/61
f 57/57/57 55/55/55 63/63/63
f 63/63/63 55/55/55 62/62/62
f 53/53/53 56/56/56 64/64/64
f 61/61/61 53/53/53 64/64/64
f 58/58/58 57/57/57 65/65/65
f 65/65/65 57/57/57 63/63/63
f 60/60/60 58/58/58 66/66/66
f 66/66/66 58/58/58 65/65/65
f 56/56/56 59/59/59 67/67/67
f 64/64/64 56/56/56 67/67/67
f 59/59/59 60/60/60 68/68/68
f 68/68/68 60/60/60 66/66/66
f 67/67/67 59/59/59 68/68/68
f 63/63/63 62/62/62 69/69/69
f 62/62/62 61/61/61 70/70/70
f 62/62/62 70/70/70 69/69/69
f 65/65/65 63/63/63 71/71/71
f 63/63/63 69/69/69 71/71/71
f 61/61/61 64/64/64 72/72/72
f 61/61/61 72/72/72 70/70/70
f 66/66/66 65/65/65 73/73/73
f 65/65/65 71/71/71 73/73/73
f 68/68/68 66/66/66 74/74/74
f 66/66/66 73/73/73 74/74/74
f 64/64/64 67/67/67 75/75/75
f 64/64/64 75/75/75 72/72/72
f 67/67/67 68/68/68 76/76/76
f 68/68/68 74/74/74 76/76/76
f 67/67/67 76/76/76 75/75/75
f 69/69/69 70/70/70 77/77/77
f 71/71/71 69/69/69 78/78/78
f 69/69/69 77/77/77 78/78/78
f 73/73/73 71/71/71 79/79/79
f 71/71/71 78/78/78 79/79/79
f 70/70/70 72/72/72 80/80/80
f 70/70/70 80/80/80 77/77/77
f 74/74/74 73/73/73 81/81/81
f 73/73/73 79/79/79 81/81/81
f 72/72/72 75/75/75 82/82/82
f 72/72/72 82/82/82 80/80/80
f 75/75/75 76/76/76 83/83/83
f 75/75/75 83/83/83 82/82/82
f 76/76/76 74/74/74 84/84/84
f 74/74/74 81/81/81 84/84/84
f 76/76/76 84/84/84 83/83/83
f 79/79/79 78/78/78 85/85/85
f 78/78/78 77/77/77 86/86/86
f 78/78/78 86/86/86 85/85/85
f 77/77/77 80/80/80 87/87/87
f 77/77/77 87/87/87 86/86/86
f 80/80/80 82/82/82 88/88/88
f 80/80/80 88/88/88 87/87/87
f 81/81/81 79/79/79 89/89/89
f 79/79/79 85/85/85 89/89/89
f 82/82/82 83/83/83 90/90/90
f 82/82/82 90/90/90 88/88/88
f 83/83/83 84/84/84 91/91/91
f 83/83/83 91/91/91 90/90/90
f 84/84/84 81/81/81 92/92/92
f 81/81/81 89/89/89 92/92/92
f 84/84/84 92/92/92 91/91/91
f 85/85/85 86/86/86 93/93/93
f 86/86/86 87/87/87 94/94/94
f 86/86/86 94/94/94 93/93/93
f 87/87/87 88/88/88 95/95/95
f 87/87/87 95/95/95 94/94/94
f 88/88/88 90/90/90 96/96/96
f 88/88/88 96/96/96 95/95/95
f 89/89/89 85/85/85 97/97/97
f 85/85/85 93/93/93 97/97/97
f 90/90/90 91/91/91 98/98/98
f 90/90/90 98/98/98 96/96/96
f 91/91/91 92/92/92 99/99/99
f 91/91/91 99/99/99 98/98/98
f 92/92/92 89/89/89 100/100/100
f 89/89/89 97/97/97 100/100/100
f 92/92/92 100/100/100 99/99/99
f 95/95/95 101/101/101 94/94/94
f 94/94/94 102/102/102 93/93/93
f 101/101/101 102/102/102 94/94/94
f 103/103/103 101/101/101 95/95/95
f 96/96/96 103/103/103 95/95/95
f 102/102/102 101/101/101 103/103/103
f 104/104/104 103/103/103 96/96/96
f 98/98/98 104/104/104 96/96/96
f 103/103/103 104/104/104 102/102/102
f 102/102/102 105/105/105 93/93/93
f 93/93/93 105/105/105 97/97/97
f 104/104/104 105/105/105 102/102/102
f 105/105/105 106/106/106 97/97/97
f 97/97/97 106/106/106 100/100/100
f 104/104/104 106/106/106 105/105/105
f 107/107/107 104/104/104 98/98/98
f 99/99/99 107/107/107 98/98/98
f 104/104/104 107/107/107 106/106/106
f 106/106/106 108/108/108 100/100/100
f 100/100/100 108/108/108 99/99/99
f 108/108/108 107/107/107 99/99/99
f 107/107/107 108/108/108 106/106/106
