g duckLegBronze_mesh
v 0.066 0 0
v -0.066 0 0
v 0.066 -0.125 0
v -0.066 -0.125 0
v 0.066 -0.225 0
v -0.066 -0.225 0
v 0.066 -0.3 0
v -0.066 -0.3 0
v 0.066 -0.35 0
v -0.066 -0.35 0
v 0.066 -0.375 0
v -0.066 -0.375 0
v 0.066 -0.375 0
v -0.066 -0.375 0
v 0.066 -0.4 0
v -0.066 -0.4 0
v 0.066 -0.45 0
v -0.066 -0.45 0
v 0.066 -0.525 0
v -0.066 -0.525 0
v 0.066 -0.6250001 0
v -0.066 -0.6250001 0
v 0.066 -0.7500001 0
v -0.066 -0.7500001 0
vt 0.5890625 0.090625
vt 0.6023437 0.090625
vt 0.5890625 0.07954102
vt 0.6023437 0.07954102
vt 0.5890625 0.07067383
vt 0.6023437 0.07067383
vt 0.5890625 0.06402344
vt 0.6023437 0.06402344
vt 0.5890625 0.05958985
vt 0.6023437 0.05958985
vt 0.5890625 0.05737305
vt 0.6023437 0.05737305
vt 0.5890625 0.05737305
vt 0.6023437 0.05737305
vt 0.5890625 0.05515625
vt 0.6023437 0.05515625
vt 0.5890625 0.05072266
vt 0.6023437 0.05072266
vt 0.5890625 0.04407227
vt 0.6023437 0.04407227
vt 0.5890625 0.03520508
vt 0.6023437 0.03520508
vt 0.5890625 0.02412109
vt 0.6023437 0.02412109
vn 0 0 -1
vn 0 0 -1
vn 0 0 -1
vn 0 0 -1
vn 0 0 -1
vn 0 0 -1
vn 0 0 -1
vn 0 0 -1
vn 0 0 -1
vn 0 0 -1
vn 0 0 -1
vn 0 0 -1
vn 0 0 -1
vn 0 0 -1
vn 0 0 -1
vn 0 0 -1
vn 0 0 -0.9999999
vn 0 0 -1
vn 0 0 -1
vn 0 0 -1
vn 0 0 -1
vn 0 0 -1
vn 0 0 -1
vn 0 0 -1
g duckLegBronze_mesh_0
f 3/3/3 2/2/2 1/1/1
f 4/4/4 2/2/2 3/3/3
f 5/5/5 4/4/4 3/3/3
f 6/6/6 4/4/4 5/5/5
f 7/7/7 6/6/6 5/5/5
f 8/8/8 6/6/6 7/7/7
f 9/9/9 8/8/8 7/7/7
f 10/10/10 8/8/8 9/9/9
f 11/11/11 10/10/10 9/9/9
f 12/12/12 10/10/10 11/11/11
f 13/13/13 12/12/12 11/11/11
f 14/14/14 12/12/12 13/13/13
f 15/15/15 14/14/14 13/13/13
f 16/16/16 14/14/14 15/15/15
f 17/17/17 16/16/16 15/15/15
f 18/18/18 16/16/16 17/17/17
f 19/19/19 18/18/18 17/17/17
f 20/20/20 18/18/18 19/19/19
f 21/21/21 20/20/20 19/19/19
f 22/22/22 20/20/20 21/21/21
f 23/23/23 22/22/22 21/21/21
f 24/24/24 22/22/22 23/23/23
