g FallenLeavesAndFlowers (2)(Clone)
v -4.713841 0.001517507 0.9228503
v -4.728005 0.1300053 0.9160781
v -4.660024 0.1000559 0.8584448
v -4.730732 0.09999792 1.005141
v -4.665478 0.04004122 1.03657
v -4.597501 0.01009766 0.978934
v -4.594769 0.0400992 0.8898739
v -4.802622 0.1954927 0.9854838
v -4.717048 0.1910113 0.8206073
v -4.567447 0.09078006 0.7891922
v -4.504553 0.001517507 0.9268565
v -4.576446 0.001517507 1.091563
v -4.729729 0.09064671 1.125855
v -2.218789 0.02057455 0.6343904
v -2.272356 0.04377096 0.7436856
v -2.377571 0.03044182 0.6160505
v -2.258291 0.005134964 0.5229657
v -2.491705 0.005134964 0.7153778
v -2.389872 0.02057455 0.77542
v -2.553416 0.007310206 0.5770248
v -2.467724 0.02272202 0.5066857
v -2.577048 0.04770491 0.3740652
v -2.382334 0.007310206 0.4359953
v -6.943135 0.03637484 0.5427199
v -7.039587 0.05181442 0.4743671
v -6.917541 0.02649832 0.3849387
v -6.823376 0.01317845 0.5209302
v -6.79089 0.05181442 0.3021615
v -6.760851 0.03637484 0.4165008
v -6.907221 0.04963918 0.2051166
v -6.998227 0.03421811 0.2684137
v -7.09607 0.009235243 0.1271105
v -7.089504 0.04963918 0.3313357
v -5.137573 0.03637484 0.5131484
v -5.169412 0.05181442 0.6269963
v -5.294747 0.02649832 0.5422401
v -5.198458 0.01317845 0.4077443
v -5.415373 0.05181442 0.4509058
v -5.317852 0.03637484 0.3840818
v -5.467523 0.04963918 0.593141
v -5.377253 0.03421811 0.6574834
v -5.477304 0.009235243 0.7972325
v -5.287245 0.04963918 0.7222075
v -5.607873 0.02425465 0.5987592
v -5.698965 0.0225306 0.5147806
v -5.547001 0.04542441 0.4521589
v -5.489556 0.03820028 0.594218
v -5.599277 0.001859227 0.3146733
v -5.688294 -0.002381742 0.3938653
v -5.453916 0.04042653 0.2963068
v -5.4177 0.06862719 0.3983921
v -5.269347 0.1300389 0.3321799
v -5.373495 0.06706291 0.5012008
v -1.358612 0.03637484 -0.4451984
v -1.244123 0.05181442 -0.4157509
v -1.326236 0.02649832 -0.2886683
v -1.462718 0.01317845 -0.3821199
v -1.415024 0.05181442 -0.1661563
v -1.483875 0.03637484 -0.2622565
v -1.271728 0.04963918 -0.1169959
v -1.20929 0.03421811 -0.2085938
v -1.067476 0.009235243 -0.1114919
v -1.146465 0.04963918 -0.2999378
vt 0.3921569 0.3921569
vt 0.4588235 0.4588235
vt 0.4784314 0.4784314
vt 0.6078432 0.6078432
vt 0.8470588 0.8470588
vt 0.7607843 0.7607843
vt 0.6078432 0.6078432
vt 0.6196079 0.6196079
vt 0.6117647 0.6117647
vt 0.6745098 0.6745098
vt 0.7098039 0.7098039
vt 0.7215686 0.7215686
vt 0.6627451 0.6627451
vt 0.9058824 0.9058824
vt 0.8392157 0.8392157
vt 0.8901961 0.8901961
vt 0.9411765 0.9411765
vt 0.854902 0.854902
vt 0.8235294 0.8235294
vt 0.8980392 0.8980392
vt 0.9058824 0.9058824
vt 0.9333333 0.9333333
vt 0.9215686 0.9215686
vt 0.9490196 0.9490196
vt 0.9529412 0.9529412
vt 0.9568627 0.9568627
vt 0.9254902 0.9254902
vt 0.9568627 0.9568627
vt 0.9254902 0.9254902
vt 0.9764706 0.9764706
vt 0.9803922 0.9803922
vt 0.9960784 0.9960784
vt 0.9803922 0.9803922
vt 0.9686275 0.9686275
vt 0.9411765 0.9411765
vt 0.945098 0.945098
vt 0.9411765 0.9411765
vt 0 0
vt 0.5372549 0.5372549
vt 0.9019608 0.9019608
vt 0.8980392 0.8980392
vt 0.8392157 0.8392157
vt 0.9058824 0.9058824
vt 0.9019608 0.9019608
vt 0.9607843 0.9607843
vt 0.972549 0.972549
vt 0.9019608 0.9019608
vt 0.9882353 0.9882353
vt 0 0
vt 0.9882353 0.9882353
vt 0.9882353 0.9882353
vt 1 1
vt 0.9294118 0.9294118
vt 0.9411765 0.9411765
vt 0.9137255 0.9137255
vt 0.9019608 0.9019608
vt 0.9490196 0.9490196
vt 0.8862745 0.8862745
vt 0.9176471 0.9176471
vt 0.8392157 0.8392157
vt 0.8313726 0.8313726
vt 0.7529412 0.7529412
vt 0.8352941 0.8352941
vn 0.5765183 0.7702986 0.272519
vn 0.8116884 0.3811474 0.4425929
vn 0.4978133 0.5310469 0.6856902
vn 0.8415741 0.5385419 -0.04154125
vn 0.5008687 0.8383411 -0.2152087
vn 0.14681 0.9882407 0.04274588
vn 0.1451937 0.8308461 0.5372276
vn 0.7568647 0.6134917 0.2253524
vn 0.6509306 0.5985017 0.4669958
vn 0.4512295 0.7484013 0.4860941
vn 0.2587306 0.9132909 0.3145763
vn 0.4069709 0.9132909 -0.01656646
vn 0.6604288 0.7484013 0.06106737
vn 0.08345861 0.9817508 -0.1708797
vn -0.0500154 0.9969037 -0.06067351
vn -0.03933064 0.9980864 -0.04771187
vn 0.08418292 0.985976 -0.1440983
vn -0.1575136 0.985976 0.05514104
vn -0.1836648 0.9817508 0.04931992
vn -0.09193274 0.9902012 0.1051184
vn 0.03321027 0.9986361 0.04028726
vn 0.09226428 0.989424 0.1119255
vn 0.1207287 0.9902012 -0.07018618
vn 0.1911668 0.9807302 -0.04029191
vn 0.1655146 0.9852105 -0.0443278
vn 0.03288259 0.9983304 0.04748845
vn 0.04556101 0.9967921 0.0657984
vn -0.09972829 0.9852105 0.1393353
vn -0.1049759 0.9807302 0.1647672
vn -0.1292536 0.9896909 0.06168712
vn -0.04051647 0.9986516 -0.03245493
vn -0.08187511 0.9896035 -0.1182426
vn 0.1032195 0.9896909 -0.09928507
vn -0.1023751 0.9807301 -0.1663957
vn -0.0975275 0.9852104 -0.1408845
vn 0.03362441 0.9983302 -0.04696612
vn 0.04658886 0.996792 -0.06507467
vn 0.164798 0.9852104 0.046922
vn 0.1905104 0.9807301 0.04328952
vn 0.1016474 0.9896908 0.100894
vn -0.01689745 0.9986514 0.04908547
vn -0.0837222 0.9896033 0.116942
vn -0.1282688 0.9896908 -0.06370964
vn -0.107746 0.9890329 0.1010189
vn -0.1743782 0.9828895 -0.05933303
vn -0.1897684 0.980399 -0.05296861
vn -0.1337508 0.9865739 0.09371641
vn -0.2473652 0.9489434 -0.1957473
vn -0.2333128 0.9474437 -0.2188969
vn -0.3137412 0.9379187 -0.1479025
vn -0.2924169 0.9562435 -0.009538898
vn -0.3736063 0.9272202 0.02610097
vn -0.2137753 0.9710286 0.1067878
vn -0.1642153 0.9807302 0.1058373
vn -0.1388111 0.9852106 0.1004566
vn -0.04765999 0.9983304 -0.03263346
vn -0.06603608 0.9967922 -0.04521583
vn 0.04346047 0.9852106 -0.1657445
vn 0.0392903 0.9807302 -0.1913752
vn 0.09874319 0.989691 -0.103738
vn 0.04942857 0.9986516 0.01586578
vn 0.1186697 0.9896035 0.0812548
vn -0.06100943 0.989691 0.1295749
g FallenLeavesAndFlowers (2)(Clone)_0
f 3/3/3 2/2/2 1/1/1
f 2/2/2 4/4/4 1/1/1
f 4/4/4 5/5/5 1/1/1
f 5/5/5 6/6/6 1/1/1
f 6/6/6 7/7/7 1/1/1
f 7/7/7 3/3/3 1/1/1
f 2/2/2 8/8/8 4/4/4
f 3/3/3 9/9/9 2/2/2
f 7/7/7 10/10/10 3/3/3
f 6/6/6 11/11/11 7/7/7
f 5/5/5 12/12/12 6/6/6
f 4/4/4 13/13/13 5/5/5
f 16/16/16 15/15/15 14/14/14
f 17/17/17 16/16/16 14/14/14
f 16/16/16 18/18/18 15/15/15
f 18/18/18 19/19/19 15/15/15
f 20/20/20 18/18/18 16/16/16
f 21/21/21 20/20/20 16/16/16
f 21/21/21 16/16/16 17/17/17
f 22/22/22 20/20/20 21/21/21
f 22/22/22 21/21/21 23/23/23
f 23/23/23 21/21/21 17/17/17
f 26/26/26 25/25/25 24/24/24
f 27/27/27 26/26/26 24/24/24
f 28/28/28 26/26/26 27/27/27
f 29/29/29 28/28/28 27/27/27
f 28/28/28 30/30/30 26/26/26
f 30/30/30 31/31/31 26/26/26
f 26/26/26 31/31/31 25/25/25
f 30/30/30 32/32/32 31/31/31
f 31/31/31 32/32/32 33/33/33
f 31/31/31 33/33/33 25/25/25
f 36/36/36 35/35/35 34/34/34
f 37/37/37 36/36/36 34/34/34
f 38/38/38 36/36/36 37/37/37
f 39/39/39 38/38/38 37/37/37
f 38/38/38 40/40/40 36/36/36
f 40/40/40 41/41/41 36/36/36
f 36/36/36 41/41/41 35/35/35
f 40/40/40 42/42/42 41/41/41
f 41/41/41 42/42/42 43/43/43
f 41/41/41 43/43/43 35/35/35
f 46/46/46 45/45/45 44/44/44
f 47/47/47 46/46/46 44/44/44
f 46/46/46 48/48/48 45/45/45
f 48/48/48 49/49/49 45/45/45
f 50/50/50 48/48/48 46/46/46
f 51/51/51 50/50/50 46/46/46
f 51/51/51 46/46/46 47/47/47
f 52/52/52 50/50/50 51/51/51
f 52/52/52 51/51/51 53/53/53
f 53/53/53 51/51/51 47/47/47
f 56/56/56 55/55/55 54/54/54
f 57/57/57 56/56/56 54/54/54
f 58/58/58 56/56/56 57/57/57
f 59/59/59 58/58/58 57/57/57
f 58/58/58 60/60/60 56/56/56
f 60/60/60 61/61/61 56/56/56
f 56/56/56 61/61/61 55/55/55
f 60/60/60 62/62/62 61/61/61
f 61/61/61 62/62/62 63/63/63
f 61/61/61 63/63/63 55/55/55
