g FishLeg_mesh
v 0.066 0 0
v -0.066 0 0
v 0.066 -0.1566667 0
v -0.066 -0.1566667 0
v 0.066 -0.282 0
v -0.066 -0.282 0
v 0.066 -0.376 0
v -0.066 -0.376 0
v 0.066 -0.4386667 0
v -0.066 -0.4386667 0
v 0.066 -0.47 0
v -0.066 -0.47 0
v 0.066 -0.47 0
v -0.066 -0.47 0
v 0.066 -0.5013334 0
v -0.066 -0.5013334 0
v 0.066 -0.564 0
v -0.066 -0.564 0
v 0.066 -0.658 0
v -0.066 -0.658 0
v 0.066 -0.7833333 0
v -0.066 -0.7833333 0
v 0.066 -0.94 0
v -0.066 -0.94 0
vt 0.5514649 0.1648438
vt 0.5666992 0.1648438
vt 0.5514649 0.1500163
vt 0.5666992 0.1500163
vt 0.5514649 0.1381543
vt 0.5666992 0.1381543
vt 0.5514649 0.1292578
vt 0.5666992 0.1292578
vt 0.5514649 0.1233268
vt 0.5666992 0.1233268
vt 0.5514649 0.1203613
vt 0.5666992 0.1203613
vt 0.5514649 0.1203613
vt 0.5666992 0.1203613
vt 0.5514649 0.1173958
vt 0.5666992 0.1173958
vt 0.5514649 0.1114648
vt 0.5666992 0.1114648
vt 0.5514649 0.1025684
vt 0.5666992 0.1025684
vt 0.5514649 0.09070638
vt 0.5666992 0.09070638
vt 0.5514649 0.0758789
vt 0.5666992 0.0758789
vn 0 0 -0.9999999
vn 0 0 -0.9999999
vn 0 0 -0.9999999
vn 0 0 -1
vn 0 0 -1
vn 0 0 -1
vn 0 0 -1
vn 0 0 -1
vn 0 0 -1
vn 0 0 -1
vn 0 0 -1
vn 0 0 -1
vn 0 0 -1
vn 0 0 -1
vn 0 0 -1
vn 0 0 -1
vn 0 0 -0.9999999
vn 0 0 -1
vn 0 0 -1
vn 0 0 -1
vn 0 0 -0.9999999
vn 0 0 -1
vn 0 0 -1
vn 0 0 -1
g FishLeg_mesh_0
f 3/3/3 2/2/2 1/1/1
f 4/4/4 2/2/2 3/3/3
f 5/5/5 4/4/4 3/3/3
f 6/6/6 4/4/4 5/5/5
f 7/7/7 6/6/6 5/5/5
f 8/8/8 6/6/6 7/7/7
f 9/9/9 8/8/8 7/7/7
f 10/10/10 8/8/8 9/9/9
f 11/11/11 10/10/10 9/9/9
f 12/12/12 10/10/10 11/11/11
f 13/13/13 12/12/12 11/11/11
f 14/14/14 12/12/12 13/13/13
f 15/15/15 14/14/14 13/13/13
f 16/16/16 14/14/14 15/15/15
f 17/17/17 16/16/16 15/15/15
f 18/18/18 16/16/16 17/17/17
f 19/19/19 18/18/18 17/17/17
f 20/20/20 18/18/18 19/19/19
f 21/21/21 20/20/20 19/19/19
f 22/22/22 20/20/20 21/21/21
f 23/23/23 22/22/22 21/21/21
f 24/24/24 22/22/22 23/23/23
