g Floor_QuartersLev
v -10 -2.625011 9.059906E-05
v -7.500024 9.059906E-05 9.059906E-05
v -10 9.059906E-05 9.059906E-05
v -7.500024 -2.625011 9.059906E-05
v -10 -5.250113 9.059906E-05
v -5.000046 9.059906E-05 9.059906E-05
v -7.500024 -5.250113 9.059906E-05
v -10 -7.874901 9.059906E-05
v -5.000046 -2.625011 9.059906E-05
v -2.500069 9.059906E-05 9.059906E-05
v -7.500024 -7.874901 9.059906E-05
v -10 -10.48499 9.059906E-05
v -2.500069 -2.625011 9.059906E-05
v -9.059906E-05 9.059906E-05 9.059906E-05
v -5.000046 -5.250113 9.059906E-05
v -9.059906E-05 -2.625011 9.059906E-05
v 2.499887 9.059906E-05 9.059906E-05
v -2.500069 -5.250113 9.059906E-05
v -5.000046 -7.874901 9.059906E-05
v -7.500024 -10.48499 9.059906E-05
v 2.499887 -2.625011 9.059906E-05
v 4.999865 9.059906E-05 9.059906E-05
v -9.059906E-05 -5.250113 9.059906E-05
v -2.500069 -7.874901 9.059906E-05
v 4.999865 -2.625011 9.059906E-05
v 7.500154 9.059906E-05 9.059906E-05
v 2.499887 -5.250113 9.059906E-05
v 7.500154 -2.625011 9.059906E-05
v 10.00013 9.059906E-05 9.059906E-05
v 10.00013 -2.625011 9.059906E-05
v 4.999865 -5.250113 9.059906E-05
v 7.500154 -5.250113 9.059906E-05
v 10.00013 -5.250113 9.059906E-05
v -9.059906E-05 -7.874901 9.059906E-05
v -5.000046 -10.48499 9.059906E-05
v 2.499887 -7.874901 9.059906E-05
v 4.999865 -7.874901 9.059906E-05
v 7.500154 -7.874901 9.059906E-05
v 10.00013 -7.874901 9.059906E-05
v -2.500069 -10.48499 9.059906E-05
v -9.059906E-05 -10.48499 9.059906E-05
v 2.499887 -10.48499 9.059906E-05
v 7.500154 -10.48499 9.059906E-05
v 10.00013 -10.48499 9.059906E-05
v 10.00013 -10.5 0.0151062
v 4.999865 -10.48499 9.059906E-05
v 7.500154 -10.5 0.0151062
v 10.00013 -10.5 0.09987736
v 4.999865 -10.5 0.0151062
v 7.500154 -10.5 0.09987736
v 10.00013 -10.3999 0.09987736
v 7.500154 -10.3999 0.09987736
v 4.999865 -10.5 0.09987736
v 4.999865 -10.3999 0.09987736
v 2.499887 -10.5 0.0151062
v 2.499887 -10.5 0.09987736
v 2.499887 -10.3999 0.09987736
v -9.059906E-05 -10.5 0.0151062
v -9.059906E-05 -10.5 0.09987736
v -9.059906E-05 -10.3999 0.09987736
v -2.500069 -10.5 0.0151062
v -2.500069 -10.5 0.09987736
v -2.500069 -10.3999 0.09987736
v -5.000046 -10.5 0.0151062
v -5.000046 -10.5 0.09987736
v -5.000046 -10.3999 0.09987736
v -7.500024 -10.5 0.0151062
v -10 -10.5 0.0151062
v -7.500024 -10.5 0.09987736
v -7.500024 -10.3999 0.09987736
v -10 -10.5 0.09987736
v -10 -10.3999 0.09987736
vt 4 1.500366
vt 3.499877 2.000488
vt 4 2.000488
vt 3.499877 1.500366
vt 4 1.000244
vt 2.999755 2.000488
vt 3.499877 1.000244
vt 4 0.500122
vt 2.999755 1.500366
vt 2.499633 2.000488
vt 3.499877 0.500122
vt 4 0.002930403
vt 2.499633 1.500366
vt 1.999511 2.000488
vt 2.999755 1.000244
vt 1.999511 1.500366
vt 1.500366 2.000488
vt 2.499633 1.000244
vt 2.999755 0.500122
vt 3.499877 0.002930403
vt 1.500366 1.500366
vt 1.000244 2.000488
vt 1.999511 1.000244
vt 2.499633 0.500122
vt 1.000244 1.500366
vt 0.500122 2.000488
vt 1.500366 1.000244
vt 0.500122 1.500366
vt 0 2.000488
vt 0 1.500366
vt 1.000244 1.000244
vt 0.500122 1.000244
vt 0 1.000244
vt 1.999511 0.500122
vt 2.999755 0.002930403
vt 1.500366 0.500122
vt 1.000244 0.500122
vt 0.500122 0.500122
vt 0 0.500122
vt 2.499633 0.002930403
vt 1.999511 0.002930403
vt 1.500366 0.002930403
vt 0.500122 0.002930403
vt 0 0.002930403
vt 0 0
vt 1.000244 0.002930403
vt 0.500122 0
vt 0 0
vt 1.000244 0
vt 0.500122 0
vt 0 0
vt 0.500122 0
vt 1.000244 0
vt 1.000244 0
vt 1.500366 0
vt 1.500366 0
vt 1.500366 0
vt 1.999511 0
vt 1.999511 0
vt 1.999511 0
vt 2.499633 0
vt 2.499633 0
vt 2.499633 0
vt 2.999755 0
vt 2.999755 0
vt 2.999755 0
vt 3.499877 0
vt 4 0
vt 3.499877 0
vt 3.499877 0
vt 4 0
vt 4 0
vn -0.0003009439 0.0003009439 -0.9999999
vn -0.0003009439 0.0003009439 -0.9999999
vn -0.0003009439 0.0003009439 -0.9999999
vn -0.0003009439 0.0003009439 -0.9999999
vn -0.0003009439 0.0003009439 -0.9999999
vn -0.0003009439 0.0003009439 -0.9999999
vn -0.0003009439 0.0003009439 -0.9999999
vn -0.0003009439 0.0003009439 -0.9999999
vn -0.0003009439 0.0003009439 -0.9999999
vn -0.0003009439 0.0003009439 -0.9999999
vn -0.0003009439 0.0003009439 -0.9999999
vn -0.0003009439 -0.03594136 -0.9993538
vn -0.0003009439 0.0003009439 -0.9999999
vn -0.0003009439 0.0003009439 -0.9999999
vn -0.0003009439 0.0003009439 -0.9999999
vn -0.0003009439 0.0003009439 -0.9999999
vn -0.0003009439 0.0003009439 -0.9999999
vn -0.0003009439 0.0003009439 -0.9999999
vn -0.0003009439 0.0003009439 -0.9999999
vn -0.0003009439 -0.03594136 -0.9993538
vn -0.0003009439 0.0003009439 -0.9999999
vn -0.0003009439 0.0003009439 -0.9999999
vn -0.0003009439 0.0003009439 -0.9999999
vn -0.0003009439 0.0003009439 -0.9999999
vn -0.0003009439 0.0003009439 -0.9999999
vn -0.0003009439 0.0003009439 -0.9999999
vn -0.0003009439 0.0003009439 -0.9999999
vn -0.0003009439 0.0003009439 -0.9999999
vn -0.0003009439 0.0003009439 -0.9999999
vn -0.0003009439 0.0003009439 -0.9999999
vn -0.0003009439 0.0003009439 -0.9999999
vn -0.0003009439 0.0003009439 -0.9999999
vn -0.0003009439 0.0003009439 -0.9999999
vn -0.0003009439 0.0003009439 -0.9999999
vn -0.0003009439 -0.03594136 -0.9993538
vn -0.0003009439 0.0003009439 -0.9999999
vn -0.0003009439 0.0003009439 -0.9999999
vn -0.0003009439 0.0003009439 -0.9999999
vn -0.0003009439 0.0003009439 -0.9999999
vn -0.0003009439 -0.03594136 -0.9993538
vn -0.0003009439 -0.03594136 -0.9993538
vn -0.0003009439 -0.03594136 -0.9993538
vn -0.0003009439 -0.03594136 -0.9993538
vn -0.0003009439 -0.03594136 -0.9993538
vn -0.0003009439 -0.9238773 -0.3826887
vn -0.0003009439 -0.03594136 -0.9993538
vn -0.0003009439 -0.9238773 -0.3826887
vn -0.0003009439 -0.9093804 0.4159654
vn -0.0003009439 -0.9238773 -0.3826887
vn -0.0003009439 -0.9093804 0.4159654
vn -0.0003009439 0.0003009439 0.9999999
vn -0.0003009439 0.0003009439 0.9999999
vn -0.0003009439 -0.9093804 0.4159654
vn -0.0003009439 0.0003009439 0.9999999
vn -0.0003009439 -0.9238773 -0.3826887
vn -0.0003009439 -0.9093804 0.4159654
vn -0.0003009439 0.0003009439 0.9999999
vn -0.0003009439 -0.9238773 -0.3826887
vn -0.0003009439 -0.9093804 0.4159654
vn -0.0003009439 0.0003009439 0.9999999
vn -0.0003009439 -0.9238773 -0.3826887
vn -0.0003009439 -0.9093804 0.4159654
vn -0.0003009439 0.0003009439 0.9999999
vn -0.0003009439 -0.9238773 -0.3826887
vn -0.0003009439 -0.9093804 0.4159654
vn -0.0003009439 0.0003009439 0.9999999
vn -0.0003009439 -0.9238773 -0.3826887
vn -0.0003009439 -0.9238773 -0.3826887
vn -0.0003009439 -0.9093804 0.4159654
vn -0.0003009439 0.0003009439 0.9999999
vn -0.0003009439 -0.9093804 0.4159654
vn -0.0003009439 0.0003009439 0.9999999
g Floor_QuartersLev_0
f 3/3/3 2/2/2 1/1/1
f 2/2/2 4/4/4 1/1/1
f 1/1/1 4/4/4 5/5/5
f 2/2/2 6/6/6 4/4/4
f 4/4/4 7/7/7 5/5/5
f 8/8/8 5/5/5 7/7/7
f 6/6/6 9/9/9 4/4/4
f 4/4/4 9/9/9 7/7/7
f 9/9/9 6/6/6 10/10/10
f 11/11/11 8/8/8 7/7/7
f 12/12/12 8/8/8 11/11/11
f 13/13/13 9/9/9 10/10/10
f 13/13/13 10/10/10 14/14/14
f 9/9/9 15/15/15 7/7/7
f 11/11/11 7/7/7 15/15/15
f 9/9/9 13/13/13 15/15/15
f 16/16/16 13/13/13 14/14/14
f 16/16/16 14/14/14 17/17/17
f 13/13/13 18/18/18 15/15/15
f 13/13/13 16/16/16 18/18/18
f 19/19/19 11/11/11 15/15/15
f 15/15/15 18/18/18 19/19/19
f 20/20/20 12/12/12 11/11/11
f 20/20/20 11/11/11 19/19/19
f 21/21/21 16/16/16 17/17/17
f 21/21/21 17/17/17 22/22/22
f 16/16/16 23/23/23 18/18/18
f 23/23/23 16/16/16 21/21/21
f 18/18/18 24/24/24 19/19/19
f 18/18/18 23/23/23 24/24/24
f 25/25/25 21/21/21 22/22/22
f 25/25/25 22/22/22 26/26/26
f 27/27/27 23/23/23 21/21/21
f 27/27/27 21/21/21 25/25/25
f 28/28/28 25/25/25 26/26/26
f 28/28/28 26/26/26 29/29/29
f 30/30/30 28/28/28 29/29/29
f 31/31/31 25/25/25 28/28/28
f 31/31/31 27/27/27 25/25/25
f 32/32/32 28/28/28 30/30/30
f 32/32/32 31/31/31 28/28/28
f 33/33/33 32/32/32 30/30/30
f 34/34/34 23/23/23 27/27/27
f 23/23/23 34/34/34 24/24/24
f 35/35/35 19/19/19 24/24/24
f 35/35/35 20/20/20 19/19/19
f 36/36/36 27/27/27 31/31/31
f 36/36/36 34/34/34 27/27/27
f 37/37/37 31/31/31 32/32/32
f 37/37/37 36/36/36 31/31/31
f 38/38/38 32/32/32 33/33/33
f 38/38/38 37/37/37 32/32/32
f 39/39/39 38/38/38 33/33/33
f 40/40/40 24/24/24 34/34/34
f 40/40/40 35/35/35 24/24/24
f 41/41/41 34/34/34 36/36/36
f 41/41/41 40/40/40 34/34/34
f 42/42/42 36/36/36 37/37/37
f 42/42/42 41/41/41 36/36/36
f 43/43/43 38/38/38 39/39/39
f 44/44/44 43/43/43 39/39/39
f 44/44/44 45/45/45 43/43/43
f 46/46/46 37/37/37 38/38/38
f 43/43/43 46/46/46 38/38/38
f 46/46/46 42/42/42 37/37/37
f 45/45/45 47/47/47 43/43/43
f 43/43/43 47/47/47 46/46/46
f 45/45/45 48/48/48 47/47/47
f 46/46/46 49/49/49 42/42/42
f 47/47/47 49/49/49 46/46/46
f 48/48/48 50/50/50 47/47/47
f 47/47/47 50/50/50 49/49/49
f 48/48/48 51/51/51 50/50/50
f 51/51/51 52/52/52 50/50/50
f 50/50/50 52/52/52 53/53/53
f 50/50/50 53/53/53 49/49/49
f 52/52/52 54/54/54 53/53/53
f 49/49/49 55/55/55 42/42/42
f 49/49/49 53/53/53 55/55/55
f 42/42/42 55/55/55 41/41/41
f 53/53/53 54/54/54 56/56/56
f 53/53/53 56/56/56 55/55/55
f 54/54/54 57/57/57 56/56/56
f 55/55/55 58/58/58 41/41/41
f 55/55/55 56/56/56 58/58/58
f 41/41/41 58/58/58 40/40/40
f 56/56/56 57/57/57 59/59/59
f 56/56/56 59/59/59 58/58/58
f 57/57/57 60/60/60 59/59/59
f 58/58/58 61/61/61 40/40/40
f 58/58/58 59/59/59 61/61/61
f 40/40/40 61/61/61 35/35/35
f 59/59/59 60/60/60 62/62/62
f 59/59/59 62/62/62 61/61/61
f 60/60/60 63/63/63 62/62/62
f 61/61/61 64/64/64 35/35/35
f 61/61/61 62/62/62 64/64/64
f 35/35/35 64/64/64 20/20/20
f 62/62/62 63/63/63 65/65/65
f 62/62/62 65/65/65 64/64/64
f 63/63/63 66/66/66 65/65/65
f 64/64/64 67/67/67 20/20/20
f 64/64/64 65/65/65 67/67/67
f 20/20/20 67/67/67 12/12/12
f 67/67/67 68/68/68 12/12/12
f 65/65/65 66/66/66 69/69/69
f 65/65/65 69/69/69 67/67/67
f 67/67/67 69/69/69 68/68/68
f 66/66/66 70/70/70 69/69/69
f 69/69/69 71/71/71 68/68/68
f 69/69/69 70/70/70 71/71/71
f 70/70/70 72/72/72 71/71/71
