g floorSurface_noLip
v 10.00013 -7.874898 9.155413E-05
v 7.500153 -10.5 9.155413E-05
v 10.00013 -10.5 9.155413E-05
v 7.500153 -7.874898 9.155413E-05
v 10.00013 -5.25011 9.155413E-05
v 4.999863 -10.5 9.155413E-05
v 7.500153 -5.25011 9.155413E-05
v 10.00013 -2.625009 9.155413E-05
v 4.999863 -7.874898 9.155413E-05
v 2.499886 -10.5 9.155413E-05
v 7.500153 -2.625009 9.155413E-05
v 10.00013 9.155413E-05 9.155413E-05
v 7.500153 9.155413E-05 9.155413E-05
v 2.499886 -7.874898 9.155413E-05
v -9.155413E-05 -10.5 9.155413E-05
v 4.999863 -5.25011 9.155413E-05
v 4.999863 -2.625009 9.155413E-05
v 4.999863 9.155413E-05 9.155413E-05
v -9.155413E-05 -7.874898 9.155413E-05
v -2.500069 -10.5 9.155413E-05
v 2.499886 -5.25011 9.155413E-05
v 2.499886 -2.625009 9.155413E-05
v 2.499886 9.155413E-05 9.155413E-05
v -2.500069 -7.874898 9.155413E-05
v -5.000046 -10.5 9.155413E-05
v -9.155413E-05 -5.25011 9.155413E-05
v -9.155413E-05 -2.625009 9.155413E-05
v -9.155413E-05 9.155413E-05 9.155413E-05
v -5.000046 -7.874898 9.155413E-05
v -7.500023 -10.5 9.155413E-05
v -2.500069 -5.25011 9.155413E-05
v -2.500069 -2.625009 9.155413E-05
v -2.500069 9.155413E-05 9.155413E-05
v -7.500023 -7.874898 9.155413E-05
v -10 -10.5 9.155413E-05
v -10 -7.874898 9.155413E-05
v -5.000046 -5.25011 9.155413E-05
v -5.000046 -2.625009 9.155413E-05
v -5.000046 9.155413E-05 9.155413E-05
v -7.500023 -5.25011 9.155413E-05
v -10 -5.25011 9.155413E-05
v -7.500023 -2.625009 9.155413E-05
v -7.500023 9.155413E-05 9.155413E-05
v -10 -2.625009 9.155413E-05
v -10 9.155413E-05 9.155413E-05
vt 0 0.5001221
vt 0.5001221 0
vt 0 0
vt 0.5001221 0.5001221
vt 0 1.000244
vt 1.000244 0
vt 0.5001221 1.000244
vt 0 1.500366
vt 1.000244 0.5001221
vt 1.500366 0
vt 0.5001221 1.500366
vt 0 2.000488
vt 0.5001221 2.000488
vt 1.500366 0.5001221
vt 1.999511 0
vt 1.000244 1.000244
vt 1.000244 1.500366
vt 1.000244 2.000488
vt 1.999511 0.5001221
vt 2.499634 0
vt 1.500366 1.000244
vt 1.500366 1.500366
vt 1.500366 2.000488
vt 2.499634 0.5001221
vt 2.999756 0
vt 1.999511 1.000244
vt 1.999511 1.500366
vt 1.999511 2.000488
vt 2.999756 0.5001221
vt 3.499878 0
vt 2.499634 1.000244
vt 2.499634 1.500366
vt 2.499634 2.000488
vt 3.499878 0.5001221
vt 4 0
vt 4 0.5001221
vt 2.999756 1.000244
vt 2.999756 1.500366
vt 2.999756 2.000488
vt 3.499878 1.000244
vt 4 1.000244
vt 3.499878 1.500366
vt 3.499878 2.000488
vt 4 1.500366
vt 4 2.000488
vn 0 0 -1
vn 0 0 -1
vn 0 0 -1
vn 0 0 -1
vn 0 0 -1
vn 0 0 -1
vn 0 0 -1
vn 0 0 -1
vn 0 0 -1
vn 0 0 -1
vn 0 0 -1
vn 0 0 -1
vn 0 0 -1
vn 0 0 -1
vn 0 0 -1
vn 0 0 -1
vn 0 0 -1
vn 0 0 -1
vn 0 0 -1
vn 0 0 -1
vn 0 0 -1
vn 0 0 -1
vn 0 0 -1
vn 0 0 -1
vn 0 0 -1
vn 0 0 -1
vn 0 0 -1
vn 0 0 -1
vn 0 0 -1
vn 0 0 -1
vn 0 0 -1
vn 0 0 -1
vn 0 0 -1
vn 0 0 -1
vn 0 0 -1
vn 0 0 -1
vn 0 0 -1
vn 0 0 -1
vn 0 0 -1
vn 0 0 -1
vn 0 0 -1
vn 0 0 -1
vn 0 0 -1
vn 0 0 -1
vn 0 0 -1
g floorSurface_noLip_0
f 3/3/3 2/2/2 1/1/1
f 2/2/2 4/4/4 1/1/1
f 1/1/1 4/4/4 5/5/5
f 2/2/2 6/6/6 4/4/4
f 4/4/4 7/7/7 5/5/5
f 5/5/5 7/7/7 8/8/8
f 6/6/6 9/9/9 4/4/4
f 4/4/4 9/9/9 7/7/7
f 6/6/6 10/10/10 9/9/9
f 7/7/7 11/11/11 8/8/8
f 8/8/8 11/11/11 12/12/12
f 11/11/11 13/13/13 12/12/12
f 10/10/10 14/14/14 9/9/9
f 10/10/10 15/15/15 14/14/14
f 9/9/9 16/16/16 7/7/7
f 7/7/7 16/16/16 11/11/11
f 9/9/9 14/14/14 16/16/16
f 11/11/11 17/17/17 13/13/13
f 16/16/16 17/17/17 11/11/11
f 17/17/17 18/18/18 13/13/13
f 15/15/15 19/19/19 14/14/14
f 15/15/15 20/20/20 19/19/19
f 14/14/14 21/21/21 16/16/16
f 16/16/16 21/21/21 17/17/17
f 14/14/14 19/19/19 21/21/21
f 17/17/17 22/22/22 18/18/18
f 21/21/21 22/22/22 17/17/17
f 22/22/22 23/23/23 18/18/18
f 20/20/20 24/24/24 19/19/19
f 20/20/20 25/25/25 24/24/24
f 19/19/19 26/26/26 21/21/21
f 21/21/21 26/26/26 22/22/22
f 19/19/19 24/24/24 26/26/26
f 22/22/22 27/27/27 23/23/23
f 26/26/26 27/27/27 22/22/22
f 27/27/27 28/28/28 23/23/23
f 25/25/25 29/29/29 24/24/24
f 25/25/25 30/30/30 29/29/29
f 24/24/24 31/31/31 26/26/26
f 26/26/26 31/31/31 27/27/27
f 24/24/24 29/29/29 31/31/31
f 27/27/27 32/32/32 28/28/28
f 31/31/31 32/32/32 27/27/27
f 32/32/32 33/33/33 28/28/28
f 30/30/30 34/34/34 29/29/29
f 30/30/30 35/35/35 34/34/34
f 35/35/35 36/36/36 34/34/34
f 29/29/29 37/37/37 31/31/31
f 31/31/31 37/37/37 32/32/32
f 29/29/29 34/34/34 37/37/37
f 32/32/32 38/38/38 33/33/33
f 37/37/37 38/38/38 32/32/32
f 38/38/38 39/39/39 33/33/33
f 34/34/34 36/36/36 40/40/40
f 34/34/34 40/40/40 37/37/37
f 37/37/37 40/40/40 38/38/38
f 36/36/36 41/41/41 40/40/40
f 38/38/38 42/42/42 39/39/39
f 40/40/40 42/42/42 38/38/38
f 40/40/40 41/41/41 42/42/42
f 42/42/42 43/43/43 39/39/39
f 41/41/41 44/44/44 42/42/42
f 42/42/42 44/44/44 43/43/43
f 44/44/44 45/45/45 43/43/43
