g Floor_CellarLevStairs
v -10 -10.46997 0.2500257
v -10 -10.34985 0.2500257
v 10.00013 -10.34985 0.2500257
v 10.00013 -10.46997 0.2500257
v -10 -10.5 0.2099867
v 10.00013 -10.5 0.2099867
v -10 -10.5 0.04013062
v 10.00013 -10.5 0.04013062
v 10.00013 -10.46997 9.059906E-05
v -10 -10.46997 9.059906E-05
v -10 -10.35173 9.059906E-05
v 10.00013 -10.35173 9.059906E-05
v -10 9.059906E-05 9.059906E-05
v 10.00013 9.059906E-05 9.059906E-05
vt 0.6521719 0.515625
vt 0.6521719 0.515625
vt 0.6407166 0.515625
vt 0.6407166 0.515625
vt 0.6521719 0.515625
vt 0.6407166 0.515625
vt 0.6521719 0.515625
vt 0.6407166 0.515625
vt 0.6407166 0.5188325
vt 0.6521719 0.5188325
vt 0.6521719 0.5220399
vt 0.6407166 0.5220399
vt 0.6521719 0.984375
vt 0.6407166 0.984375
vn 0 -0.4464378 0.8948147
vn 0 0 1
vn 0 0 1
vn 0 -0.4464378 0.8948147
vn 0 -0.9486803 0.3162367
vn 0 -0.9486803 0.3162367
vn 0 -0.9486803 -0.3162367
vn 0 -0.9486803 -0.3162367
vn 0 -0.4464378 -0.8948147
vn 0 -0.4464378 -0.8948147
vn 0 0 -1
vn 0 0 -1
vn 0 0 -1
vn 0 0 -1
g Floor_CellarLevStairs_0
f 3/3/3 2/2/2 1/1/1
f 4/4/4 3/3/3 1/1/1
f 1/1/1 5/5/5 4/4/4
f 5/5/5 6/6/6 4/4/4
f 6/6/6 5/5/5 7/7/7
f 8/8/8 6/6/6 7/7/7
f 9/9/9 8/8/8 7/7/7
f 10/10/10 9/9/9 7/7/7
f 9/9/9 10/10/10 11/11/11
f 12/12/12 9/9/9 11/11/11
f 12/12/12 11/11/11 13/13/13
f 14/14/14 12/12/12 13/13/13
