g Floor_CellarLevStairsBorder
v -5.179912 -10.46997 0.2500257
v -5.179912 -10.34985 0.2500257
v -4.819867 -10.34985 0.2500257
v -4.819867 -10.46997 0.2500257
v -5.179912 -10.5 0.2099867
v -4.819867 -10.5 0.2099867
v -5.179912 -10.5 0.04013062
v -4.819867 -10.5 0.04013062
v -4.819867 -10.46997 9.059906E-05
v -5.179912 -10.46997 9.059906E-05
v -5.179912 -10.35173 9.059906E-05
v -4.819867 -10.35173 9.059906E-05
v -5.179912 9.059906E-05 9.059906E-05
v -4.819867 9.059906E-05 9.059906E-05
v -8.019914 -10.46997 0.2500257
v -8.019914 -10.34985 0.2500257
v -5.179912 -10.34985 0.2500257
v -5.179912 -10.46997 0.2500257
v -8.019914 -10.5 0.2099867
v -5.179912 -10.5 0.2099867
v -5.179912 -10.5 0.04013062
v -8.019914 -10.5 0.04013062
v -5.179912 -10.46997 9.059906E-05
v -8.019914 -10.46997 9.059906E-05
v -8.019914 -10.35173 9.059906E-05
v -5.179912 -10.35173 9.059906E-05
v -8.019914 9.059906E-05 9.059906E-05
v -5.179912 9.059906E-05 9.059906E-05
v -4.819867 -10.46997 0.2500257
v -4.819867 -10.34985 0.2500257
v 2.279982 -10.34985 0.2500257
v 2.279982 -10.46997 0.2500257
v -4.819867 -10.5 0.2099867
v 2.279982 -10.5 0.2099867
v 2.279982 -10.5 0.04013062
v -4.819867 -10.5 0.04013062
v 2.279982 -10.46997 9.059906E-05
v -4.819867 -10.46997 9.059906E-05
v -4.819867 -10.35173 9.059906E-05
v 2.279982 -10.35173 9.059906E-05
v -4.819867 9.059906E-05 9.059906E-05
v 2.279982 9.059906E-05 9.059906E-05
v -10 -10.46997 0.2500257
v -10 -10.34985 0.2500257
v -8.770032 -10.34985 0.2500257
v -8.770032 -10.46997 0.2500257
v -10 -10.5 0.2099867
v -8.770032 -10.5 0.2099867
v -10 -10.5 0.04013062
v -8.770032 -10.5 0.04013062
v -8.770032 -10.46997 9.059906E-05
v -10 -10.46997 9.059906E-05
v -10 -10.35173 9.059906E-05
v -8.770032 -10.35173 9.059906E-05
v -10 9.059906E-05 9.059906E-05
v -8.770032 9.059906E-05 9.059906E-05
v 2.279982 -10.46997 0.2500257
v 2.279982 -10.34985 0.2500257
v 3.00007 -10.34985 0.2500257
v 3.00007 -10.46997 0.2500257
v 2.279982 -10.5 0.2099867
v 3.00007 -10.5 0.2099867
v 3.00007 -10.5 0.04013062
v 2.279982 -10.5 0.04013062
v 3.00007 -10.46997 9.059906E-05
v 2.279982 -10.46997 9.059906E-05
v 2.279982 -10.35173 9.059906E-05
v 3.00007 -10.35173 9.059906E-05
v 2.279982 9.059906E-05 9.059906E-05
v 3.00007 9.059906E-05 9.059906E-05
v -8.770032 -10.46997 0.2500257
v -8.770032 -10.34985 0.2500257
v -8.019914 -10.34985 0.2500257
v -8.019914 -10.46997 0.2500257
v -8.770032 -10.5 0.2099867
v -8.019914 -10.5 0.2099867
v -8.019914 -10.5 0.04013062
v -8.770032 -10.5 0.04013062
v -8.019914 -10.46997 9.059906E-05
v -8.770032 -10.46997 9.059906E-05
v -8.770032 -10.35173 9.059906E-05
v -8.019914 -10.35173 9.059906E-05
v -8.770032 9.059906E-05 9.059906E-05
v -8.019914 9.059906E-05 9.059906E-05
v 3.00007 -10.46997 0.2500257
v 3.00007 -10.34985 0.2500257
v 10.00013 -10.34985 0.2500257
v 10.00013 -10.46997 0.2500257
v 3.00007 -10.5 0.2099867
v 10.00013 -10.5 0.2099867
v 10.00013 -10.5 0.04013062
v 3.00007 -10.5 0.04013062
v 10.00013 -10.46997 9.059906E-05
v 3.00007 -10.46997 9.059906E-05
v 3.00007 -10.35173 9.059906E-05
v 10.00013 -10.35173 9.059906E-05
v 3.00007 9.059906E-05 9.059906E-05
v 10.00013 9.059906E-05 9.059906E-05
vt 0.4059025 0.5154914
vt 0.4059025 0.5154914
vt 0.3714603 0.5154914
vt 0.3714603 0.5154914
vt 0.4059025 0.5154914
vt 0.3714603 0.5154914
vt 0.4059025 0.5154914
vt 0.3714603 0.5154914
vt 0.3714603 0.5186225
vt 0.4059025 0.5186225
vt 0.4059025 0.5225363
vt 0.3714603 0.5225363
vt 0.4059025 0.984375
vt 0.3714603 0.984375
vt 0.3401492 0.5154914
vt 0.3401492 0.5154914
vt 0.3284076 0.5154914
vt 0.3284076 0.5154914
vt 0.3401492 0.5154914
vt 0.3284076 0.5154914
vt 0.3284076 0.5154914
vt 0.3401492 0.5154914
vt 0.3284076 0.5186225
vt 0.3401492 0.5186225
vt 0.3401492 0.5225363
vt 0.3284076 0.5225363
vt 0.3401492 0.984375
vt 0.3284076 0.984375
vt 0.3401492 0.5154914
vt 0.3401492 0.5154914
vt 0.3284076 0.5154914
vt 0.3284076 0.5154914
vt 0.3401492 0.5154914
vt 0.3284076 0.5154914
vt 0.3284076 0.5154914
vt 0.3401492 0.5154914
vt 0.3284076 0.5186225
vt 0.3401492 0.5186225
vt 0.3401492 0.5225363
vt 0.3284076 0.5225363
vt 0.3401492 0.984375
vt 0.3284076 0.984375
vt 0.1953354 0.5154914
vt 0.1953354 0.5154914
vt 0.1835938 0.5154914
vt 0.1835938 0.5154914
vt 0.1953354 0.5154914
vt 0.1835938 0.5154914
vt 0.1953354 0.5154914
vt 0.1835938 0.5154914
vt 0.1835938 0.5186225
vt 0.1953354 0.5186225
vt 0.1953354 0.5225363
vt 0.1835938 0.5225363
vt 0.1953354 0.984375
vt 0.1835938 0.984375
vt 0.6094247 0.5154914
vt 0.6094247 0.5154914
vt 0.5389746 0.5154914
vt 0.5389746 0.5154914
vt 0.6094247 0.5154914
vt 0.5389746 0.5154914
vt 0.5389746 0.5154914
vt 0.6094247 0.5154914
vt 0.5389746 0.5186225
vt 0.6094247 0.5186225
vt 0.6094247 0.5225363
vt 0.5389746 0.5225363
vt 0.6094247 0.984375
vt 0.5389746 0.984375
vt 0.5076636 0.5154914
vt 0.5076636 0.5154914
vt 0.4372136 0.5154914
vt 0.4372136 0.5154914
vt 0.5076636 0.5154914
vt 0.4372136 0.5154914
vt 0.4372136 0.5154914
vt 0.5076636 0.5154914
vt 0.4372136 0.5186225
vt 0.5076636 0.5186225
vt 0.5076636 0.5225363
vt 0.4372136 0.5225363
vt 0.5076636 0.984375
vt 0.4372136 0.984375
vt 0.6524774 0.5154914
vt 0.6524774 0.5154914
vt 0.6407357 0.5154914
vt 0.6407357 0.5154914
vt 0.6524774 0.5154914
vt 0.6407357 0.5154914
vt 0.6407357 0.5154914
vt 0.6524774 0.5154914
vt 0.6407357 0.5186225
vt 0.6524774 0.5186225
vt 0.6524774 0.5225363
vt 0.6407357 0.5225363
vt 0.6524774 0.984375
vt 0.6407357 0.984375
vn 0 -0.4464378 0.8948147
vn 0 0 1
vn 0 0 1
vn 0 -0.4464378 0.8948147
vn 0 -0.9486803 0.3162367
vn 0 -0.9486803 0.3162367
vn 0 -0.9486803 -0.3162367
vn 0 -0.9486803 -0.3162367
vn 0 -0.4464378 -0.8948147
vn 0 -0.4464378 -0.8948147
vn 0 0 -1
vn 0 0 -1
vn 0 0 -1
vn 0 0 -1
vn 0 -0.4464378 0.8948147
vn 0 0 1
vn 0 0 1
vn 0 -0.4464378 0.8948147
vn 0 -0.9486803 0.3162367
vn 0 -0.9486803 0.3162367
vn 0 -0.9486803 -0.3162367
vn 0 -0.9486803 -0.3162367
vn 0 -0.4464378 -0.8948147
vn 0 -0.4464378 -0.8948147
vn 0 0 -1
vn 0 0 -1
vn 0 0 -1
vn 0 0 -1
vn 0 -0.4464378 0.8948147
vn 0 0 1
vn 0 0 1
vn 0 -0.4464378 0.8948147
vn 0 -0.9486803 0.3162367
vn 0 -0.9486803 0.3162367
vn 0 -0.9486803 -0.3162367
vn 0 -0.9486803 -0.3162367
vn 0 -0.4464378 -0.8948147
vn 0 -0.4464378 -0.8948147
vn 0 0 -1
vn 0 0 -1
vn 0 0 -1
vn 0 0 -1
vn 0 -0.4464378 0.8948147
vn 0 0 1
vn 0 0 1
vn 0 -0.4464378 0.8948147
vn 0 -0.9486803 0.3162367
vn 0 -0.9486803 0.3162367
vn 0 -0.9486803 -0.3162367
vn 0 -0.9486803 -0.3162367
vn 0 -0.4464378 -0.8948147
vn 0 -0.4464378 -0.8948147
vn 0 0 -1
vn 0 0 -1
vn 0 0 -1
vn 0 0 -1
vn 0 -0.4464378 0.8948147
vn 0 0 1
vn 0 0 1
vn 0 -0.4464378 0.8948147
vn 0 -0.9486803 0.3162367
vn 0 -0.9486803 0.3162367
vn 0 -0.9486803 -0.3162367
vn 0 -0.9486803 -0.3162367
vn 0 -0.4464378 -0.8948147
vn 0 -0.4464378 -0.8948147
vn 0 0 -1
vn 0 0 -1
vn 0 0 -1
vn 0 0 -1
vn 0 -0.4464378 0.8948147
vn 0 0 1
vn 0 0 1
vn 0 -0.4464378 0.8948147
vn 0 -0.9486803 0.3162367
vn 0 -0.9486803 0.3162367
vn 0 -0.9486803 -0.3162367
vn 0 -0.9486803 -0.3162367
vn 0 -0.4464378 -0.8948147
vn 0 -0.4464378 -0.8948147
vn 0 0 -1
vn 0 0 -1
vn 0 0 -1
vn 0 0 -1
vn 0 -0.4464378 0.8948147
vn 0 0 1
vn 0 0 1
vn 0 -0.4464378 0.8948147
vn 0 -0.9486803 0.3162367
vn 0 -0.9486803 0.3162367
vn 0 -0.9486803 -0.3162367
vn 0 -0.9486803 -0.3162367
vn 0 -0.4464378 -0.8948147
vn 0 -0.4464378 -0.8948147
vn 0 0 -1
vn 0 0 -1
vn 0 0 -1
vn 0 0 -1
g Floor_CellarLevStairsBorder_0
f 3/3/3 2/2/2 1/1/1
f 4/4/4 3/3/3 1/1/1
f 1/1/1 5/5/5 4/4/4
f 5/5/5 6/6/6 4/4/4
f 6/6/6 5/5/5 7/7/7
f 8/8/8 6/6/6 7/7/7
f 9/9/9 8/8/8 7/7/7
f 10/10/10 9/9/9 7/7/7
f 9/9/9 10/10/10 11/11/11
f 12/12/12 9/9/9 11/11/11
f 12/12/12 11/11/11 13/13/13
f 14/14/14 12/12/12 13/13/13
f 17/17/17 16/16/16 15/15/15
f 18/18/18 17/17/17 15/15/15
f 15/15/15 19/19/19 18/18/18
f 19/19/19 20/20/20 18/18/18
f 20/20/20 19/19/19 21/21/21
f 19/19/19 22/22/22 21/21/21
f 23/23/23 21/21/21 22/22/22
f 24/24/24 23/23/23 22/22/22
f 23/23/23 24/24/24 25/25/25
f 26/26/26 23/23/23 25/25/25
f 26/26/26 25/25/25 27/27/27
f 28/28/28 26/26/26 27/27/27
f 31/31/31 30/30/30 29/29/29
f 32/32/32 31/31/31 29/29/29
f 29/29/29 33/33/33 32/32/32
f 33/33/33 34/34/34 32/32/32
f 34/34/34 33/33/33 35/35/35
f 33/33/33 36/36/36 35/35/35
f 37/37/37 35/35/35 36/36/36
f 38/38/38 37/37/37 36/36/36
f 37/37/37 38/38/38 39/39/39
f 40/40/40 37/37/37 39/39/39
f 40/40/40 39/39/39 41/41/41
f 42/42/42 40/40/40 41/41/41
f 45/45/45 44/44/44 43/43/43
f 46/46/46 45/45/45 43/43/43
f 43/43/43 47/47/47 46/46/46
f 47/47/47 48/48/48 46/46/46
f 48/48/48 47/47/47 49/49/49
f 50/50/50 48/48/48 49/49/49
f 51/51/51 50/50/50 49/49/49
f 52/52/52 51/51/51 49/49/49
f 51/51/51 52/52/52 53/53/53
f 54/54/54 51/51/51 53/53/53
f 54/54/54 53/53/53 55/55/55
f 56/56/56 54/54/54 55/55/55
f 59/59/59 58/58/58 57/57/57
f 60/60/60 59/59/59 57/57/57
f 57/57/57 61/61/61 60/60/60
f 61/61/61 62/62/62 60/60/60
f 62/62/62 61/61/61 63/63/63
f 61/61/61 64/64/64 63/63/63
f 65/65/65 63/63/63 64/64/64
f 66/66/66 65/65/65 64/64/64
f 65/65/65 66/66/66 67/67/67
f 68/68/68 65/65/65 67/67/67
f 68/68/68 67/67/67 69/69/69
f 70/70/70 68/68/68 69/69/69
f 73/73/73 72/72/72 71/71/71
f 74/74/74 73/73/73 71/71/71
f 71/71/71 75/75/75 74/74/74
f 75/75/75 76/76/76 74/74/74
f 76/76/76 75/75/75 77/77/77
f 75/75/75 78/78/78 77/77/77
f 79/79/79 77/77/77 78/78/78
f 80/80/80 79/79/79 78/78/78
f 79/79/79 80/80/80 81/81/81
f 82/82/82 79/79/79 81/81/81
f 82/82/82 81/81/81 83/83/83
f 84/84/84 82/82/82 83/83/83
f 87/87/87 86/86/86 85/85/85
f 88/88/88 87/87/87 85/85/85
f 85/85/85 89/89/89 88/88/88
f 89/89/89 90/90/90 88/88/88
f 90/90/90 89/89/89 91/91/91
f 89/89/89 92/92/92 91/91/91
f 93/93/93 91/91/91 92/92/92
f 94/94/94 93/93/93 92/92/92
f 93/93/93 94/94/94 95/95/95
f 96/96/96 93/93/93 95/95/95
f 96/96/96 95/95/95 97/97/97
f 98/98/98 96/96/96 97/97/97
