g FloorAOmesh_10x6(Clone)
v 4.5 0 -1
v 5 0 -1
v 5 0 0
v 4.5 0 0
v 4 0 -1
v 4 0 0
v 3.5 0 -1
v 3.5 0 0
v 3 0 -1
v 3 0 0
v 2.5 0 -1
v 2.5 0 0
v 2 0 -1
v 2 0 0
v 1.5 0 -1
v 1.5 0 0
v 1 0 -1
v 1 0 0
v 0.5 0 -1
v 0.5 0 0
v 0 0 -1
v 0 0 0
v -0.5 0 -1
v -0.5 0 0
v -1 0 -1
v -1 0 0
v -1.5 0 -1
v -1.5 0 0
v -2 0 -1
v -2 0 0
v -2.5 0 -1
v -2.5 0 0
v -3 0 -1
v -3 0 0
v -3.5 0 -1
v -3.5 0 0
v -4 0 -1
v -4 0 0
v -4.5 0 -1
v -4.5 0 0
v -5 0 -1
v -5 0 0
v -2 0 -2
v -1.5 0 -2
v -1 0 -2
v -0.5 0 -2
v 0 0 -2
v 0.5 0 -2
v 1 0 -2
v 1.5 0 -2
v 2 0 -2
v 2.5 0 -2
v 3 0 -2
v 3.5 0 -2
v 4 0 -2
v 4.5 0 -2
v 4 0 -3
v 4.5 0 -3
v 4 0 -4
v 4.5 0 -4
v 4 0 -5
v 4.5 0 -5
v 4 0 -6
v 4.5 0 -6
v 3.5 0 -6
v 3.5 0 -5
v 3.5 0 -4
v 3.5 0 -3
v 3 0 -6
v 3 0 -5
v 3 0 -4
v 3 0 -3
v 2.5 0 -6
v 2.5 0 -5
v 2.5 0 -4
v 2.5 0 -3
v 2 0 -6
v 2 0 -5
v 2 0 -4
v 2 0 -3
v 1.5 0 -6
v 1.5 0 -5
v 1.5 0 -4
v 1.5 0 -3
v 1 0 -6
v 1 0 -5
v 1 0 -4
v 1 0 -3
v 0.5 0 -6
v 0.5 0 -5
v 0.5 0 -4
v 0.5 0 -3
v 0 0 -6
v 0 0 -5
v 0 0 -4
v 0 0 -3
v -0.5 0 -6
v -0.5 0 -5
v -0.5 0 -4
v -0.5 0 -3
v -1 0 -6
v -1 0 -5
v -1 0 -4
v -1 0 -3
v -1.5 0 -6
v -1.5 0 -5
v -1.5 0 -4
v -1.5 0 -3
v -2 0 -6
v -2 0 -5
v -2 0 -4
v -2 0 -3
v -2.5 0 -6
v -2.5 0 -5
v -2.5 0 -4
v -2.5 0 -3
v -2.5 0 -2
v -3 0 -6
v -3 0 -5
v -3 0 -4
v -3 0 -3
v -3 0 -2
v -3.5 0 -6
v -3.5 0 -5
v -3.5 0 -4
v -3.5 0 -3
v -3.5 0 -2
v -4 0 -6
v -4 0 -5
v -4 0 -4
v -4 0 -3
v -4 0 -2
v -4.5 0 -6
v -4.5 0 -5
v -4.5 0 -4
v -4.5 0 -3
v -4.5 0 -2
v -5 0 -6
v -5 0 -5
v -5 0 -4
v -5 0 -3
v -5 0 -2
v 5 0 -6
v 5 0 -5
v 5 0 -4
v 5 0 -3
v 5 0 -2
vn 0 1 0
vn 0 1 0
vn 0 1 0
vn 0 1 0
vn 0 1 0
vn 0 1 0
vn 0 1 0
vn 0 1 0
vn 0 1 0
vn 0 1 0
vn 0 1 0
vn 0 1 0
vn 0 1 0
vn 0 1 0
vn 0 1 0
vn 0 1 0
vn 0 1 0
vn 0 1 0
vn 0 1 0
vn 0 1 0
vn 0 1 0
vn 0 1 0
vn 0 1 0
vn 0 1 0
vn 0 1 0
vn 0 1 0
vn 0 1 0
vn 0 1 0
vn 0 1 0
vn 0 1 0
vn 0 1 0
vn 0 1 0
vn 0 1 0
vn 0 1 0
vn 0 1 0
vn 0 1 0
vn 0 1 0
vn 0 1 0
vn 0 1 0
vn 0 1 0
vn 0 1 0
vn 0 1 0
vn 0 1 0
vn 0 1 0
vn 0 1 0
vn 0 1 0
vn 0 1 0
vn 0 1 0
vn 0 1 0
vn 0 1 0
vn 0 1 0
vn 0 1 0
vn 0 1 0
vn 0 1 0
vn 0 1 0
vn 0 1 0
vn 0 1 0
vn 0 1 0
vn 0 1 0
vn 0 1 0
vn 0 1 0
vn 0 1 0
vn 0 1 0
vn 0 1 0
vn 0 1 0
vn 0 1 0
vn 0 1 0
vn 0 1 0
vn 0 1 0
vn 0 1 0
vn 0 1 0
vn 0 1 0
vn 0 1 0
vn 0 1 0
vn 0 1 0
vn 0 1 0
vn 0 1 0
vn 0 1 0
vn 0 1 0
vn 0 1 0
vn 0 1 0
vn 0 1 0
vn 0 1 0
vn 0 1 0
vn 0 1 0
vn 0 1 0
vn 0 1 0
vn 0 1 0
vn 0 1 0
vn 0 1 0
vn 0 1 0
vn 0 1 0
vn 0 1 0
vn 0 1 0
vn 0 1 0
vn 0 1 0
vn 0 1 0
vn 0 1 0
vn 0 1 0
vn 0 1 0
vn 0 1 0
vn 0 1 0
vn 0 1 0
vn 0 1 0
vn 0 1 0
vn 0 1 0
vn 0 1 0
vn 0 1 0
vn 0 1 0
vn 0 1 0
vn 0 1 0
vn 0 1 0
vn 0 1 0
vn 0 1 0
vn 0 1 0
vn 0 1 0
vn 0 1 0
vn 0 1 0
vn 0 1 0
vn 0 1 0
vn 0 1 0
vn 0 1 0
vn 0 1 0
vn 0 1 0
vn 0 1 0
vn 0 1 0
vn 0 1 0
vn 0 1 0
vn 0 1 0
vn 0 1 0
vn 0 1 0
vn 0 1 0
vn 0 1 0
vn 0 1 0
vn 0 1 0
vn 0 1 0
vn 0 1 0
vn 0 1 0
vn 0 1 0
vn 0 1 0
vn 0 1 0
vn 0 1 0
vn 0 1 0
vn 0 1 0
vn 0 1 0
vn 0 1 0
vn 0 1 0
g FloorAOmesh_10x6(Clone)_0
f 3/3/3 2/2/2 1/1/1
f 4/4/4 3/3/3 1/1/1
f 4/4/4 1/1/1 5/5/5
f 6/6/6 4/4/4 5/5/5
f 6/6/6 5/5/5 7/7/7
f 8/8/8 6/6/6 7/7/7
f 8/8/8 7/7/7 9/9/9
f 10/10/10 8/8/8 9/9/9
f 10/10/10 9/9/9 11/11/11
f 12/12/12 10/10/10 11/11/11
f 12/12/12 11/11/11 13/13/13
f 14/14/14 12/12/12 13/13/13
f 14/14/14 13/13/13 15/15/15
f 16/16/16 14/14/14 15/15/15
f 16/16/16 15/15/15 17/17/17
f 18/18/18 16/16/16 17/17/17
f 18/18/18 17/17/17 19/19/19
f 20/20/20 18/18/18 19/19/19
f 20/20/20 19/19/19 21/21/21
f 22/22/22 20/20/20 21/21/21
f 22/22/22 21/21/21 23/23/23
f 24/24/24 22/22/22 23/23/23
f 24/24/24 23/23/23 25/25/25
f 26/26/26 24/24/24 25/25/25
f 26/26/26 25/25/25 27/27/27
f 28/28/28 26/26/26 27/27/27
f 28/28/28 27/27/27 29/29/29
f 30/30/30 28/28/28 29/29/29
f 30/30/30 29/29/29 31/31/31
f 32/32/32 30/30/30 31/31/31
f 32/32/32 31/31/31 33/33/33
f 34/34/34 32/32/32 33/33/33
f 34/34/34 33/33/33 35/35/35
f 36/36/36 34/34/34 35/35/35
f 36/36/36 35/35/35 37/37/37
f 38/38/38 36/36/36 37/37/37
f 38/38/38 37/37/37 39/39/39
f 40/40/40 38/38/38 39/39/39
f 40/40/40 39/39/39 41/41/41
f 42/42/42 40/40/40 41/41/41
f 29/29/29 27/27/27 43/43/43
f 27/27/27 44/44/44 43/43/43
f 27/27/27 25/25/25 44/44/44
f 25/25/25 45/45/45 44/44/44
f 25/25/25 23/23/23 45/45/45
f 23/23/23 46/46/46 45/45/45
f 23/23/23 21/21/21 46/46/46
f 21/21/21 47/47/47 46/46/46
f 21/21/21 19/19/19 47/47/47
f 19/19/19 48/48/48 47/47/47
f 19/19/19 17/17/17 48/48/48
f 17/17/17 49/49/49 48/48/48
f 17/17/17 15/15/15 49/49/49
f 15/15/15 50/50/50 49/49/49
f 15/15/15 13/13/13 50/50/50
f 13/13/13 51/51/51 50/50/50
f 13/13/13 11/11/11 51/51/51
f 11/11/11 52/52/52 51/51/51
f 11/11/11 9/9/9 52/52/52
f 9/9/9 53/53/53 52/52/52
f 9/9/9 7/7/7 53/53/53
f 7/7/7 54/54/54 53/53/53
f 7/7/7 5/5/5 54/54/54
f 5/5/5 55/55/55 54/54/54
f 5/5/5 1/1/1 55/55/55
f 1/1/1 56/56/56 55/55/55
f 55/55/55 56/56/56 57/57/57
f 56/56/56 58/58/58 57/57/57
f 57/57/57 58/58/58 59/59/59
f 58/58/58 60/60/60 59/59/59
f 59/59/59 60/60/60 61/61/61
f 60/60/60 62/62/62 61/61/61
f 61/61/61 62/62/62 63/63/63
f 62/62/62 64/64/64 63/63/63
f 61/61/61 63/63/63 65/65/65
f 66/66/66 61/61/61 65/65/65
f 59/59/59 61/61/61 66/66/66
f 67/67/67 59/59/59 66/66/66
f 57/57/57 59/59/59 67/67/67
f 68/68/68 57/57/57 67/67/67
f 55/55/55 57/57/57 68/68/68
f 54/54/54 55/55/55 68/68/68
f 66/66/66 65/65/65 69/69/69
f 70/70/70 66/66/66 69/69/69
f 67/67/67 66/66/66 70/70/70
f 71/71/71 67/67/67 70/70/70
f 68/68/68 67/67/67 71/71/71
f 72/72/72 68/68/68 71/71/71
f 54/54/54 68/68/68 72/72/72
f 53/53/53 54/54/54 72/72/72
f 70/70/70 69/69/69 73/73/73
f 74/74/74 70/70/70 73/73/73
f 71/71/71 70/70/70 74/74/74
f 75/75/75 71/71/71 74/74/74
f 72/72/72 71/71/71 75/75/75
f 76/76/76 72/72/72 75/75/75
f 53/53/53 72/72/72 76/76/76
f 52/52/52 53/53/53 76/76/76
f 74/74/74 73/73/73 77/77/77
f 78/78/78 74/74/74 77/77/77
f 75/75/75 74/74/74 78/78/78
f 79/79/79 75/75/75 78/78/78
f 76/76/76 75/75/75 79/79/79
f 80/80/80 76/76/76 79/79/79
f 52/52/52 76/76/76 80/80/80
f 51/51/51 52/52/52 80/80/80
f 78/78/78 77/77/77 81/81/81
f 82/82/82 78/78/78 81/81/81
f 79/79/79 78/78/78 82/82/82
f 83/83/83 79/79/79 82/82/82
f 80/80/80 79/79/79 83/83/83
f 84/84/84 80/80/80 83/83/83
f 51/51/51 80/80/80 84/84/84
f 50/50/50 51/51/51 84/84/84
f 82/82/82 81/81/81 85/85/85
f 86/86/86 82/82/82 85/85/85
f 83/83/83 82/82/82 86/86/86
f 87/87/87 83/83/83 86/86/86
f 84/84/84 83/83/83 87/87/87
f 88/88/88 84/84/84 87/87/87
f 50/50/50 84/84/84 88/88/88
f 49/49/49 50/50/50 88/88/88
f 86/86/86 85/85/85 89/89/89
f 90/90/90 86/86/86 89/89/89
f 87/87/87 86/86/86 90/90/90
f 91/91/91 87/87/87 90/90/90
f 88/88/88 87/87/87 91/91/91
f 92/92/92 88/88/88 91/91/91
f 49/49/49 88/88/88 92/92/92
f 48/48/48 49/49/49 92/92/92
f 90/90/90 89/89/89 93/93/93
f 94/94/94 90/90/90 93/93/93
f 91/91/91 90/90/90 94/94/94
f 95/95/95 91/91/91 94/94/94
f 92/92/92 91/91/91 95/95/95
f 96/96/96 92/92/92 95/95/95
f 48/48/48 92/92/92 96/96/96
f 47/47/47 48/48/48 96/96/96
f 94/94/94 93/93/93 97/97/97
f 98/98/98 94/94/94 97/97/97
f 95/95/95 94/94/94 98/98/98
f 99/99/99 95/95/95 98/98/98
f 96/96/96 95/95/95 99/99/99
f 100/100/100 96/96/96 99/99/99
f 47/47/47 96/96/96 100/100/100
f 46/46/46 47/47/47 100/100/100
f 98/98/98 97/97/97 101/101/101
f 102/102/102 98/98/98 101/101/101
f 99/99/99 98/98/98 102/102/102
f 103/103/103 99/99/99 102/102/102
f 100/100/100 99/99/99 103/103/103
f 104/104/104 100/100/100 103/103/103
f 46/46/46 100/100/100 104/104/104
f 45/45/45 46/46/46 104/104/104
f 102/102/102 101/101/101 105/105/105
f 106/106/106 102/102/102 105/105/105
f 103/103/103 102/102/102 106/106/106
f 107/107/107 103/103/103 106/106/106
f 104/104/104 103/103/103 107/107/107
f 108/108/108 104/104/104 107/107/107
f 45/45/45 104/104/104 108/108/108
f 44/44/44 45/45/45 108/108/108
f 106/106/106 105/105/105 109/109/109
f 110/110/110 106/106/106 109/109/109
f 107/107/107 106/106/106 110/110/110
f 111/111/111 107/107/107 110/110/110
f 108/108/108 107/107/107 111/111/111
f 112/112/112 108/108/108 111/111/111
f 44/44/44 108/108/108 112/112/112
f 43/43/43 44/44/44 112/112/112
f 110/110/110 109/109/109 113/113/113
f 114/114/114 110/110/110 113/113/113
f 111/111/111 110/110/110 114/114/114
f 115/115/115 111/111/111 114/114/114
f 112/112/112 111/111/111 115/115/115
f 116/116/116 112/112/112 115/115/115
f 43/43/43 112/112/112 116/116/116
f 117/117/117 43/43/43 116/116/116
f 29/29/29 43/43/43 117/117/117
f 31/31/31 29/29/29 117/117/117
f 114/114/114 113/113/113 118/118/118
f 119/119/119 114/114/114 118/118/118
f 115/115/115 114/114/114 119/119/119
f 120/120/120 115/115/115 119/119/119
f 116/116/116 115/115/115 120/120/120
f 121/121/121 116/116/116 120/120/120
f 117/117/117 116/116/116 121/121/121
f 122/122/122 117/117/117 121/121/121
f 31/31/31 117/117/117 122/122/122
f 33/33/33 31/31/31 122/122/122
f 119/119/119 118/118/118 123/123/123
f 124/124/124 119/119/119 123/123/123
f 120/120/120 119/119/119 124/124/124
f 125/125/125 120/120/120 124/124/124
f 121/121/121 120/120/120 125/125/125
f 126/126/126 121/121/121 125/125/125
f 122/122/122 121/121/121 126/126/126
f 127/127/127 122/122/122 126/126/126
f 33/33/33 122/122/122 127/127/127
f 35/35/35 33/33/33 127/127/127
f 124/124/124 123/123/123 128/128/128
f 129/129/129 124/124/124 128/128/128
f 125/125/125 124/124/124 129/129/129
f 130/130/130 125/125/125 129/129/129
f 126/126/126 125/125/125 130/130/130
f 131/131/131 126/126/126 130/130/130
f 127/127/127 126/126/126 131/131/131
f 132/132/132 127/127/127 131/131/131
f 35/35/35 127/127/127 132/132/132
f 37/37/37 35/35/35 132/132/132
f 129/129/129 128/128/128 133/133/133
f 134/134/134 129/129/129 133/133/133
f 130/130/130 129/129/129 134/134/134
f 135/135/135 130/130/130 134/134/134
f 131/131/131 130/130/130 135/135/135
f 136/136/136 131/131/131 135/135/135
f 132/132/132 131/131/131 136/136/136
f 137/137/137 132/132/132 136/136/136
f 37/37/37 132/132/132 137/137/137
f 39/39/39 37/37/37 137/137/137
f 134/134/134 133/133/133 138/138/138
f 139/139/139 134/134/134 138/138/138
f 135/135/135 134/134/134 139/139/139
f 140/140/140 135/135/135 139/139/139
f 136/136/136 135/135/135 140/140/140
f 141/141/141 136/136/136 140/140/140
f 137/137/137 136/136/136 141/141/141
f 142/142/142 137/137/137 141/141/141
f 39/39/39 137/137/137 142/142/142
f 41/41/41 39/39/39 142/142/142
f 144/144/144 143/143/143 64/64/64
f 62/62/62 144/144/144 64/64/64
f 145/145/145 144/144/144 62/62/62
f 60/60/60 145/145/145 62/62/62
f 146/146/146 145/145/145 60/60/60
f 58/58/58 146/146/146 60/60/60
f 147/147/147 146/146/146 58/58/58
f 56/56/56 147/147/147 58/58/58
f 2/2/2 147/147/147 56/56/56
f 1/1/1 2/2/2 56/56/56
