g foxArm_mesh
v 0.11 0 0
v -0.11 0 0
v 0.104 -0.15 0
v -0.104 -0.15 0
v 0.0995 -0.2625 0
v -0.0995 -0.2625 0
v 0.0965 -0.3375 0
v -0.0965 -0.3375 0
v 0.095 -0.375 0
v -0.095 -0.375 0
v 0.095 -0.375 0
v -0.095 -0.375 0
v 0.0935 -0.4125 0
v -0.0935 -0.4125 0
v 0.0905 -0.4875 0
v -0.0905 -0.4875 0
v 0.086 -0.6 0
v -0.086 -0.6 0
v 0.08 -0.75 0
v -0.08 -0.75 0
vt 0.8791016 0.3373047
vt 0.91875 0.3373047
vt 0.8791016 0.3252344
vt 0.91875 0.3252344
vt 0.8791016 0.3161816
vt 0.91875 0.3161816
vt 0.8791016 0.3101465
vt 0.91875 0.3101465
vt 0.8791016 0.3071289
vt 0.91875 0.3071289
vt 0.8791016 0.3071289
vt 0.91875 0.3071289
vt 0.8791016 0.3041113
vt 0.91875 0.3041113
vt 0.8791016 0.2980762
vt 0.91875 0.2980762
vt 0.8791016 0.2890234
vt 0.91875 0.2890234
vt 0.8791016 0.2769531
vt 0.91875 0.2769531
vn 0 0 -1
vn 0 0 -1
vn 0 0 -1
vn 0 0 -1
vn 0 0 -0.9999999
vn 0 0 -1
vn 0 0 -1
vn 0 0 -1
vn 0 0 -1
vn 0 0 -1
vn 0 0 -1
vn 0 0 -1
vn 0 0 -0.9999999
vn 0 0 -1
vn 0 0 -1
vn 0 0 -1
vn 0 0 -1
vn 0 0 -1
vn 0 0 -1
vn 0 0 -1
g foxArm_mesh_0
f 3/3/3 2/2/2 1/1/1
f 4/4/4 2/2/2 3/3/3
f 5/5/5 4/4/4 3/3/3
f 6/6/6 4/4/4 5/5/5
f 7/7/7 6/6/6 5/5/5
f 8/8/8 6/6/6 7/7/7
f 9/9/9 8/8/8 7/7/7
f 10/10/10 8/8/8 9/9/9
f 11/11/11 10/10/10 9/9/9
f 12/12/12 10/10/10 11/11/11
f 13/13/13 12/12/12 11/11/11
f 14/14/14 12/12/12 13/13/13
f 15/15/15 14/14/14 13/13/13
f 16/16/16 14/14/14 15/15/15
f 17/17/17 16/16/16 15/15/15
f 18/18/18 16/16/16 17/17/17
f 19/19/19 18/18/18 17/17/17
f 20/20/20 18/18/18 19/19/19
