g foxLeg_mesh
v 0.14 0 0
v -0.14 0 0
v 0.138 -0.14 0
v -0.138 -0.14 0
v 0.1311 -0.245 0
v -0.1311 -0.245 0
v 0.1238 -0.315 0
v -0.1238 -0.315 0
v 0.11925 -0.35 0
v -0.11925 -0.35 0
v 0.11925 -0.35 0
v -0.11925 -0.35 0
v 0.11425 -0.385 0
v -0.11425 -0.385 0
v 0.10335 -0.455 0
v -0.10335 -0.455 0
v 0.08429999 -0.56 0
v -0.08429999 -0.56 0
v 0.05349999 -0.7 0
v -0.05349999 -0.7 0
vt 0.9083984 0.4305664
vt 0.9548828 0.4305664
vt 0.9083984 0.4178125
vt 0.9548828 0.4178125
vt 0.9083984 0.4082471
vt 0.9548828 0.4082471
vt 0.9083984 0.4018701
vt 0.9548828 0.4018701
vt 0.9083984 0.3986816
vt 0.9548828 0.3986816
vt 0.9083984 0.3986816
vt 0.9548828 0.3986816
vt 0.9083984 0.3954932
vt 0.9548828 0.3954932
vt 0.9083984 0.3891162
vt 0.9548828 0.3891162
vt 0.9083984 0.3795508
vt 0.9548828 0.3795508
vt 0.9083984 0.3667969
vt 0.9548828 0.3667969
vn 0 0 -1
vn 0 0 -1
vn 0 0 -1
vn 0 0 -1
vn 0 0 -1
vn 0 0 -1
vn 0 0 -1
vn 0 0 -1
vn 0 0 -1
vn 0 0 -1
vn 0 0 -1
vn 0 0 -1
vn 0 0 -1
vn 0 0 -1
vn 0 0 -1
vn 0 0 -1
vn 0 0 -1
vn 0 0 -1
vn 0 0 -1
vn 0 0 -1
g foxLeg_mesh_0
f 3/3/3 2/2/2 1/1/1
f 4/4/4 2/2/2 3/3/3
f 5/5/5 4/4/4 3/3/3
f 6/6/6 4/4/4 5/5/5
f 7/7/7 6/6/6 5/5/5
f 8/8/8 6/6/6 7/7/7
f 9/9/9 8/8/8 7/7/7
f 10/10/10 8/8/8 9/9/9
f 11/11/11 10/10/10 9/9/9
f 12/12/12 10/10/10 11/11/11
f 13/13/13 12/12/12 11/11/11
f 14/14/14 12/12/12 13/13/13
f 15/15/15 14/14/14 13/13/13
f 16/16/16 14/14/14 15/15/15
f 17/17/17 16/16/16 15/15/15
f 18/18/18 16/16/16 17/17/17
f 19/19/19 18/18/18 17/17/17
f 20/20/20 18/18/18 19/19/19
