g foxTail_mesh
v 0.19 0 0
v -0.19 0 0
v 0.19 -0.09230769 0
v -0.19 -0.09230769 0
v 0.19 -0.1846154 0
v -0.19 -0.1846154 0
v 0.19 -0.2769231 0
v -0.19 -0.2769231 0
v 0.19 -0.3692308 0
v -0.19 -0.3692308 0
v 0.19 -0.4615385 0
v -0.19 -0.4615385 0
v 0.19 -0.5538462 0
v -0.19 -0.5538462 0
v 0.19 -0.6461539 0
v -0.19 -0.6461539 0
v 0.19 -0.7384616 0
v -0.19 -0.7384616 0
v 0.19 -0.8307692 0
v -0.19 -0.8307692 0
v 0.19 -0.9230769 0
v -0.19 -0.9230769 0
v 0.19 -1.015385 0
v -0.19 -1.015385 0
v 0.19 -1.107692 0
v -0.19 -1.107692 0
v 0.19 -1.2 0
v -0.19 -1.2 0
vt 0.8486328 0.4306641
vt 0.9042969 0.4306641
vt 0.8486328 0.4236403
vt 0.9042969 0.4236403
vt 0.8486328 0.4166166
vt 0.9042969 0.4166166
vt 0.8486328 0.4095928
vt 0.9042969 0.4095928
vt 0.8486328 0.4025691
vt 0.9042969 0.4025691
vt 0.8486328 0.3955454
vt 0.9042969 0.3955454
vt 0.8486328 0.3885216
vt 0.9042969 0.3885216
vt 0.8486328 0.3814979
vt 0.9042969 0.3814979
vt 0.8486328 0.3744742
vt 0.9042969 0.3744742
vt 0.8486328 0.3674504
vt 0.9042969 0.3674504
vt 0.8486328 0.3604267
vt 0.9042969 0.3604267
vt 0.8486328 0.3534029
vt 0.9042969 0.3534029
vt 0.8486328 0.3463792
vt 0.9042969 0.3463792
vt 0.8486328 0.3393555
vt 0.9042969 0.3393555
vn 0 0 -1
vn 0 0 -1
vn 0 0 -1
vn 0 0 -1
vn 0 0 -1
vn 0 0 -1
vn 0 0 -1
vn 0 0 -1
vn 0 0 -1
vn 0 0 -1
vn 0 0 -1
vn 0 0 -1
vn 0 0 -1
vn 0 0 -1
vn 0 0 -1
vn 0 0 -1
vn 0 0 -1
vn 0 0 -1
vn 0 0 -1
vn 0 0 -1
vn 0 0 -1
vn 0 0 -0.9999999
vn 0 0 -0.9999999
vn 0 0 -1
vn 0 0 -1
vn 0 0 -1
vn 0 0 -1
vn 0 0 -1
g foxTail_mesh_0
f 3/3/3 2/2/2 1/1/1
f 4/4/4 2/2/2 3/3/3
f 5/5/5 4/4/4 3/3/3
f 6/6/6 4/4/4 5/5/5
f 7/7/7 6/6/6 5/5/5
f 8/8/8 6/6/6 7/7/7
f 9/9/9 8/8/8 7/7/7
f 10/10/10 8/8/8 9/9/9
f 11/11/11 10/10/10 9/9/9
f 12/12/12 10/10/10 11/11/11
f 13/13/13 12/12/12 11/11/11
f 14/14/14 12/12/12 13/13/13
f 15/15/15 14/14/14 13/13/13
f 16/16/16 14/14/14 15/15/15
f 17/17/17 16/16/16 15/15/15
f 18/18/18 16/16/16 17/17/17
f 19/19/19 18/18/18 17/17/17
f 20/20/20 18/18/18 19/19/19
f 21/21/21 20/20/20 19/19/19
f 22/22/22 20/20/20 21/21/21
f 23/23/23 22/22/22 21/21/21
f 24/24/24 22/22/22 23/23/23
f 25/25/25 24/24/24 23/23/23
f 26/26/26 24/24/24 25/25/25
f 27/27/27 26/26/26 25/25/25
f 28/28/28 26/26/26 27/27/27
