g GrapeLeg_mesh
v 0.045 0 0
v -0.045 0 0
v 0.045 -0.175 0
v -0.045 -0.175 0
v 0.0436 -0.315 0
v -0.0436 -0.315 0
v 0.04171 -0.42 0
v -0.04171 -0.42 0
v 0.04003 -0.49 0
v -0.04003 -0.49 0
v 0.03905 -0.525 0
v -0.03905 -0.525 0
v 0.03905 -0.525 0
v -0.03905 -0.525 0
v 0.038 -0.56 0
v -0.038 -0.56 0
v 0.03576 -0.63 0
v -0.03576 -0.63 0
v 0.03198 -0.735 0
v -0.03198 -0.735 0
v 0.0261 -0.875 0
v -0.0261 -0.875 0
v 0.01735 -1.05 0
v -0.01735 -1.05 0
vt 0.89375 0.1887695
vt 0.9070312 0.1887695
vt 0.89375 0.1791504
vt 0.9070312 0.1791504
vt 0.89375 0.1714551
vt 0.9070312 0.1714551
vt 0.89375 0.1656836
vt 0.9070312 0.1656836
vt 0.89375 0.1618359
vt 0.9070312 0.1618359
vt 0.89375 0.1599121
vt 0.9070312 0.1599121
vt 0.89375 0.1599121
vt 0.9070312 0.1599121
vt 0.89375 0.1579883
vt 0.9070312 0.1579883
vt 0.89375 0.1541406
vt 0.9070312 0.1541406
vt 0.89375 0.1483691
vt 0.9070312 0.1483691
vt 0.89375 0.1406738
vt 0.9070312 0.1406738
vt 0.89375 0.1310547
vt 0.9070312 0.1310547
vn 0 0 -1
vn 0 0 -1
vn 0 0 -0.9999999
vn 0 0 -1
vn 0 0 -1
vn 0 0 -0.9999999
vn 0 0 -1
vn 0 0 -1
vn 0 0 -1
vn 0 0 -1
vn 0 0 -1
vn 0 0 -1
vn 0 0 -1
vn 0 0 -1
vn 0 0 -1
vn 0 0 -1
vn 0 0 -1
vn 0 0 -1
vn 0 0 -1
vn 0 0 -1
vn 0 0 -0.9999999
vn 0 0 -1
vn 0 0 -1
vn 0 0 -1
g GrapeLeg_mesh_0
f 3/3/3 2/2/2 1/1/1
f 4/4/4 2/2/2 3/3/3
f 5/5/5 4/4/4 3/3/3
f 6/6/6 4/4/4 5/5/5
f 7/7/7 6/6/6 5/5/5
f 8/8/8 6/6/6 7/7/7
f 9/9/9 8/8/8 7/7/7
f 10/10/10 8/8/8 9/9/9
f 11/11/11 10/10/10 9/9/9
f 12/12/12 10/10/10 11/11/11
f 13/13/13 12/12/12 11/11/11
f 14/14/14 12/12/12 13/13/13
f 15/15/15 14/14/14 13/13/13
f 16/16/16 14/14/14 15/15/15
f 17/17/17 16/16/16 15/15/15
f 18/18/18 16/16/16 17/17/17
f 19/19/19 18/18/18 17/17/17
f 20/20/20 18/18/18 19/19/19
f 21/21/21 20/20/20 19/19/19
f 22/22/22 20/20/20 21/21/21
f 23/23/23 22/22/22 21/21/21
f 24/24/24 22/22/22 23/23/23
