g halfBarrelGrain
v -0.2502278 0.7500066 0.5196114
v 8.761883E-06 0.7500066 0.4902176
v 8.761883E-06 0.7500066 0.5767367
v -0.2126913 0.7500066 0.4416768
v -0.4509136 0.7500066 0.3595971
v -0.3832679 0.7500066 0.3056489
v -0.5622819 0.7500066 0.1283393
v -0.4779299 0.7500066 0.109087
v -0.5622819 0.7500066 -0.1283358
v -0.4779299 0.7500066 -0.1090836
v -0.4509136 0.7500066 -0.3595937
v -0.3832679 0.7500066 -0.3056454
v -0.2502278 0.7500066 -0.5196289
v -0.2126913 0.7500066 -0.4416733
v 8.761883E-06 0.7500066 -0.5767333
v 8.761883E-06 0.7500066 -0.4902141
v 0.2502454 0.7500066 -0.5196289
v 8.761883E-06 0.7500066 -0.4902141
v 8.761883E-06 0.7500066 -0.5767333
v 0.2127088 0.7500066 -0.4416733
v 0.4509102 0.7500066 -0.3595937
v 0.3832644 0.7500066 -0.3056454
v 0.5622783 0.7500066 -0.1283358
v 0.4779263 0.7500066 -0.1090836
v 0.5622783 0.7500066 0.1283393
v 0.4779263 0.7500066 0.109087
v 0.4509102 0.7500066 0.3595971
v 0.3832644 0.7500066 0.3056489
v 0.2502454 0.7500066 0.5196114
v 0.2127088 0.7500066 0.4416768
v 8.761883E-06 0.7500066 0.5767367
v 8.761883E-06 0.7500066 0.4902176
v -0.2155107 -8.761883E-06 -0.4475015
v 8.761883E-06 -8.761883E-06 -0.4966946
v 8.761883E-06 0.3696546 -0.5566605
v -0.241517 0.3696546 -0.501534
v 8.761883E-06 0.7500066 -0.5767333
v -0.3883387 -8.761883E-06 -0.3096852
v -0.2502278 0.7500066 -0.5196289
v -0.4352173 0.3696546 -0.3470745
v -0.484242 -8.761883E-06 -0.1105143
v -0.4509136 0.7500066 -0.3595937
v -0.542693 0.3696546 -0.1238751
v -0.484242 -8.761883E-06 0.1105178
v -0.5622819 0.7500066 -0.1283358
v -0.542693 0.3696546 0.1238576
v -0.3883387 -8.761883E-06 0.3096887
v -0.5622819 0.7500066 0.1283393
v -0.4352173 0.3696546 0.347078
v -0.2155107 -8.761883E-06 0.4475051
v -0.4509136 0.7500066 0.3595971
v -0.241517 0.3696546 0.5015375
v 8.761883E-06 -8.761883E-06 0.4966981
v -0.2502278 0.7500066 0.5196114
v 8.761883E-06 0.3696546 0.556664
v 8.761883E-06 0.7500066 0.5767367
v 0.2155072 -8.761883E-06 0.4475051
v 8.761883E-06 -8.761883E-06 0.4966981
v 8.761883E-06 0.3696546 0.556664
v 0.2415345 0.3696546 0.5015375
v 8.761883E-06 0.7500066 0.5767367
v 0.3883352 -8.761883E-06 0.3096887
v 0.2502454 0.7500066 0.5196114
v 0.4352138 0.3696546 0.347078
v 0.4842385 -8.761883E-06 0.1105178
v 0.4509102 0.7500066 0.3595971
v 0.5427105 0.3696546 0.1238576
v 0.4842385 -8.761883E-06 -0.1105143
v 0.5622783 0.7500066 0.1283393
v 0.5427105 0.3696546 -0.1238751
v 0.3883352 -8.761883E-06 -0.3096852
v 0.5622783 0.7500066 -0.1283358
v 0.4352138 0.3696546 -0.3470745
v 0.2155072 -8.761883E-06 -0.4475015
v 0.4509102 0.7500066 -0.3595937
v 0.2415345 0.3696546 -0.501534
v 8.761883E-06 -8.761883E-06 -0.4966946
v 0.2502454 0.7500066 -0.5196289
v 8.761883E-06 0.3696546 -0.5566605
v 8.761883E-06 0.7500066 -0.5767333
v 8.761883E-06 0.7500066 0.4902176
v 8.761883E-06 0.5572532 0.4902176
v 0.2127088 0.5572532 0.4416768
v 0.2127088 0.7500066 0.4416768
v 0.3832644 0.5572532 0.3056489
v 0.3832644 0.7500066 0.3056489
v 0.4779263 0.5572532 0.109087
v 0.4779263 0.7500066 0.109087
v 0.4779263 0.5572532 -0.1090836
v 0.4779263 0.7500066 -0.1090836
v 0.3832644 0.5572532 -0.3056454
v 0.3832644 0.7500066 -0.3056454
v 0.2127088 0.5572532 -0.4416733
v 0.2127088 0.7500066 -0.4416733
v 8.761883E-06 0.5572532 -0.4902141
v 8.761883E-06 0.7500066 -0.4902141
v 8.761883E-06 0.7500066 -0.4902141
v 8.761883E-06 0.5572532 -0.4902141
v -0.2126913 0.5572532 -0.4416733
v -0.2126913 0.7500066 -0.4416733
v -0.3832679 0.5572532 -0.3056454
v -0.3832679 0.7500066 -0.3056454
v -0.4779299 0.5572532 -0.1090836
v -0.4779299 0.7500066 -0.1090836
v -0.4779299 0.5572532 0.109087
v -0.4779299 0.7500066 0.109087
v -0.3832679 0.5572532 0.3056489
v -0.3832679 0.7500066 0.3056489
v -0.2126913 0.5572532 0.4416768
v -0.2126913 0.7500066 0.4416768
v 8.761883E-06 0.5572532 0.4902176
v 8.761883E-06 0.7500066 0.4902176
v 0.0345996 0.7861544 -0.03525186
v 0.495832 0.6883575 0.08590025
v 0.4050836 0.6500425 0.2916358
v 0.4883415 0.7044746 -0.138814
v 0.1449579 0.6909245 0.2263467
v 0.2340651 0.6500425 0.437595
v 0.01665193 0.6500425 0.4949097
v -0.004157305 0.6916398 0.2687646
v -0.2041067 0.5889825 0.4522181
v 0.2809857 0.7248631 -0.2456164
v -0.1351985 0.6791627 0.2354994
v 0.1551836 0.7790007 -0.2693923
v 0.384085 0.7015499 -0.338027
v -0.3844883 0.629086 0.3179787
v 0.2037244 0.6986884 -0.4722874
v -0.2356677 0.668411 0.1925343
v -0.4887448 0.6062569 0.1187447
v -0.4962352 0.6443194 -0.1059695
v -0.4054869 0.6157462 -0.3117051
v 0.04246885 0.7976637 -0.2844785
v -0.01705521 0.6671485 -0.5149789
v -0.08472198 0.8021664 -0.2885604
v -0.2344683 0.6671485 -0.4576642
vt 0.9021349 0.07950209
vt 0.994234 0.07950209
vt 0.994234 0.07950209
vt 0.9021349 0.07950209
vt 0.8118241 0.07950209
vt 0.8118241 0.07950209
vt 0.7224075 0.07950209
vt 0.7224075 0.07950209
vt 0.6329909 0.07950209
vt 0.6329909 0.07950209
vt 0.5435743 0.07950209
vt 0.5435743 0.07950209
vt 0.4523693 0.07950209
vt 0.4523693 0.07950209
vt 0.3611644 0.07950209
vt 0.3611644 0.07950209
vt 0.9021349 0.07950209
vt 0.994234 0.07950209
vt 0.994234 0.07950209
vt 0.9021349 0.07950209
vt 0.8118241 0.07950209
vt 0.8118241 0.07950209
vt 0.7224075 0.07950209
vt 0.7224075 0.07950209
vt 0.6329909 0.07950209
vt 0.6329909 0.07950209
vt 0.5435743 0.07950209
vt 0.5435743 0.07950209
vt 0.4523693 0.07950209
vt 0.4523693 0.07950209
vt 0.3611644 0.07950209
vt 0.3611644 0.07950209
vt 0.4523693 0.1143746
vt 0.3611644 0.1143746
vt 0.3611644 0.2637003
vt 0.4523693 0.2637003
vt 0.3611644 0.4157085
vt 0.5435743 0.1143746
vt 0.4523693 0.4157085
vt 0.5435743 0.2637003
vt 0.6329909 0.1143746
vt 0.5435743 0.4157085
vt 0.6329909 0.2637003
vt 0.7224075 0.1143746
vt 0.6329909 0.4157085
vt 0.7224075 0.2637003
vt 0.8118241 0.1143746
vt 0.7224075 0.4157085
vt 0.8118241 0.2637003
vt 0.9021349 0.1143746
vt 0.8118241 0.4157085
vt 0.9021349 0.2637003
vt 0.994234 0.1143746
vt 0.9021349 0.4157085
vt 0.994234 0.2637003
vt 0.994234 0.4157085
vt 0.4523693 0.1143746
vt 0.3611644 0.1143746
vt 0.3611644 0.2637003
vt 0.4523693 0.2637003
vt 0.3611644 0.4157085
vt 0.5435743 0.1143746
vt 0.4523693 0.4157085
vt 0.5435743 0.2637003
vt 0.6329909 0.1143746
vt 0.5435743 0.4157085
vt 0.6329909 0.2637003
vt 0.7224075 0.1143746
vt 0.6329909 0.4157085
vt 0.7224075 0.2637003
vt 0.8118241 0.1143746
vt 0.7224075 0.4157085
vt 0.8118241 0.2637003
vt 0.9021349 0.1143746
vt 0.8118241 0.4157085
vt 0.9021349 0.2637003
vt 0.994234 0.1143746
vt 0.9021349 0.4157085
vt 0.994234 0.2637003
vt 0.994234 0.4157085
vt 0.3611644 0.07950209
vt 0.3611644 0.07950209
vt 0.4523693 0.07950209
vt 0.4523693 0.07950209
vt 0.5435743 0.07950209
vt 0.5435743 0.07950209
vt 0.6329909 0.07950209
vt 0.6329909 0.07950209
vt 0.7224075 0.07950209
vt 0.7224075 0.07950209
vt 0.8118241 0.07950209
vt 0.8118241 0.07950209
vt 0.9021349 0.07950209
vt 0.9021349 0.07950209
vt 0.994234 0.07950209
vt 0.994234 0.07950209
vt 0.3611644 0.07950209
vt 0.3611644 0.07950209
vt 0.4523693 0.07950209
vt 0.4523693 0.07950209
vt 0.5435743 0.07950209
vt 0.5435743 0.07950209
vt 0.6329909 0.07950209
vt 0.6329909 0.07950209
vt 0.7224075 0.07950209
vt 0.7224075 0.07950209
vt 0.8118241 0.07950209
vt 0.8118241 0.07950209
vt 0.9021349 0.07950209
vt 0.9021349 0.07950209
vt 0.994234 0.07950209
vt 0.994234 0.07950209
vt 0.6508743 0.6633925
vt 0.6508743 0.6016951
vt 0.6240492 0.6070601
vt 0.6776992 0.6079543
vt 0.6240492 0.6419325
vt 0.6025892 0.6249434
vt 0.5909651 0.6490859
vt 0.6168959 0.6553451
vt 0.5909651 0.676805
vt 0.6812759 0.6392501
vt 0.6142134 0.6714401
vt 0.6884292 0.6544509
vt 0.6991592 0.6249434
vt 0.6025892 0.7009475
vt 0.7107834 0.6490859
vt 0.6195784 0.687535
vt 0.6240492 0.7188308
vt 0.6508743 0.7241958
vt 0.6776992 0.7188308
vt 0.687535 0.6714401
vt 0.7107834 0.676805
vt 0.6812759 0.687535
vt 0.6991592 0.7018417
vn -0.0009186268 0.9999995 -0.000345267
vn -0.0009186268 0.9999995 -0.000345267
vn -0.0009186268 0.9999995 -0.000345267
vn -0.0009186268 0.9999995 -0.000345267
vn -0.0009186268 0.9999995 -0.000345267
vn -0.0009186268 0.9999995 -0.000345267
vn -0.0009186268 0.9999995 -0.000345267
vn -0.0009186268 0.9999995 -0.000345267
vn -0.0009186268 0.9999995 -0.000345267
vn -0.0009186268 0.9999995 -0.000345267
vn -0.0009186268 0.9999995 -0.000345267
vn -0.0009186268 0.9999995 -0.000345267
vn -0.0009186268 0.9999995 -0.000345267
vn -0.0009186268 0.9999995 -0.000345267
vn -0.0009186268 0.9999995 -0.000345267
vn -0.0009186268 0.9999995 -0.000345267
vn -0.0009186268 0.9999995 -0.000345267
vn -0.0009186268 0.9999995 -0.000345267
vn -0.0009186268 0.9999995 -0.000345267
vn -0.0009186268 0.9999995 -0.000345267
vn -0.0009186268 0.9999995 -0.000345267
vn -0.0009186268 0.9999995 -0.000345267
vn -0.0009186268 0.9999995 -0.000345267
vn -0.0009186268 0.9999995 -0.000345267
vn -0.0009186268 0.9999995 -0.000345267
vn -0.0009186268 0.9999995 -0.000345267
vn -0.0009186268 0.9999995 -0.000345267
vn -0.0009186268 0.9999995 -0.000345267
vn -0.0009186268 0.9999995 -0.000345267
vn -0.0009186268 0.9999995 -0.000345267
vn -0.0009186268 0.9999995 -0.000345267
vn -0.0009186268 0.9999995 -0.000345267
vn -0.4268833 -0.1617225 -0.8897283
vn -0.0009186268 -0.1617225 -0.9868358
vn -0.0009186268 -0.1075088 -0.9942037
vn -0.4346281 -0.1075088 -0.8941702
vn -0.0009186268 -0.05329508 -0.9985784
vn -0.7753999 -0.1617225 -0.6104103
vn -0.4346281 -0.05329508 -0.8990318
vn -0.7753999 -0.1075088 -0.6222514
vn -0.9612755 -0.1617225 -0.2231487
vn -0.7831447 -0.05329508 -0.6195514
vn -0.9690202 -0.1075088 -0.2223547
vn -0.9612755 -0.1617225 0.2231487
vn -0.9767652 -0.05329508 -0.2075801
vn -0.9690202 -0.1075088 0.2223547
vn -0.7753999 -0.1617225 0.6104103
vn -0.9767652 -0.05329508 0.2075801
vn -0.7753999 -0.1075088 0.6222514
vn -0.4268833 -0.1617225 0.8897283
vn -0.7831447 -0.05329508 0.6195514
vn -0.4346281 -0.1075088 0.8941702
vn -0.0009186268 -0.1617225 0.9868358
vn -0.4346281 -0.05329508 0.8990318
vn -0.0009186268 -0.1075088 0.9942037
vn -0.0009186268 -0.05329508 0.9985784
vn 0.4250461 -0.1617225 0.8906074
vn -0.0009186268 -0.1617225 0.9868358
vn -0.0009186268 -0.1075088 0.9942037
vn 0.4327909 -0.1075088 0.8950608
vn -0.0009186268 -0.05329508 0.9985784
vn 0.7735627 -0.1617225 0.6127369
vn 0.4327909 -0.05329508 0.8999176
vn 0.7813076 -0.1075088 0.6148173
vn 0.9594383 -0.1617225 0.23092
vn 0.7813076 -0.05329508 0.6218666
vn 0.9671831 -0.1075088 0.2302145
vn 0.9594383 -0.1617225 -0.23092
vn 0.9749279 -0.05329508 0.2160445
vn 0.9671831 -0.1075088 -0.2302145
vn 0.7735627 -0.1617225 -0.6127369
vn 0.9749279 -0.05329508 -0.2160445
vn 0.7813076 -0.1075088 -0.6148173
vn 0.4250461 -0.1617225 -0.8906074
vn 0.7813076 -0.05329508 -0.6218666
vn 0.4327909 -0.1075088 -0.8950608
vn -0.0009186268 -0.1617225 -0.9868358
vn 0.4327909 -0.05329508 -0.8999176
vn -0.0009186268 -0.1075088 -0.9942037
vn -0.0009186268 -0.05329508 -0.9985784
vn -0.0009186268 0.0009186268 -0.9999992
vn -0.0009186268 0.0009186268 -0.9999992
vn -0.4346281 0.0009186268 -0.9006096
vn -0.4346281 0.0009186268 -0.9006096
vn -0.7831447 0.0009186268 -0.6218388
vn -0.7831447 0.0009186268 -0.6218388
vn -0.9767652 0.0009186268 -0.2143105
vn -0.9767652 0.0009186268 -0.2143105
vn -0.9767652 0.0009186268 0.2143105
vn -0.9767652 0.0009186268 0.2143105
vn -0.7831447 0.0009186268 0.6218388
vn -0.7831447 0.0009186268 0.6218388
vn -0.4346281 0.0009186268 0.9006096
vn -0.4346281 0.0009186268 0.9006096
vn -0.0009186268 0.0009186268 0.9999992
vn -0.0009186268 0.0009186268 0.9999992
vn -0.0009186268 0.0009186268 0.9999992
vn -0.0009186268 0.0009186268 0.9999992
vn 0.4327909 0.0009186268 0.9014938
vn 0.4327909 0.0009186268 0.9014938
vn 0.7813076 0.0009186268 0.6241456
vn 0.7813076 0.0009186268 0.6241456
vn 0.9749279 0.0009186268 0.2225191
vn 0.9749279 0.0009186268 0.2225191
vn 0.9749279 0.0009186268 -0.2225191
vn 0.9749279 0.0009186268 -0.2225191
vn 0.7813076 0.0009186268 -0.6241456
vn 0.7813076 0.0009186268 -0.6241456
vn 0.4327909 0.0009186268 -0.9014938
vn 0.4327909 0.0009186268 -0.9014938
vn -0.0009186268 0.0009186268 -0.9999992
vn -0.0009186268 0.0009186268 -0.9999992
vn -0.03964269 0.9845099 0.1707882
vn 0.1617225 0.9767652 0.1406261
vn 0.1229984 0.9690202 0.2141755
vn 0.1694673 0.9845099 -0.0449557
vn 0.07652956 0.9612755 0.2647503
vn 0.08427435 0.9845099 0.1537464
vn -0.1016011 0.9690202 0.2251154
vn -0.08611155 0.9690202 0.2314834
vn -0.1790493 0.9457859 0.2709805
vn 0.223681 0.9690202 -0.1047215
vn -0.1790493 0.9457859 0.2709805
vn 0.2159362 0.9690202 -0.1198805
vn 0.2004465 0.9690202 -0.1442945
vn -0.1713045 0.9690202 0.1779172
vn 0.1384881 0.9302962 -0.3396617
vn -0.2022837 0.9612755 0.1871651
vn -0.2642423 0.9535307 0.1447593
vn -0.2558852 0.9667072 0
vn -0.35718 0.9225514 -0.1460183
vn 0.04555029 0.9690202 -0.2427446
vn -0.02415305 0.8683378 -0.4953849
vn -0.2642423 0.9535307 -0.1447593
vn -0.3184559 0.8683378 -0.3802307
g halfBarrelGrain_0
f 3/3/3 2/2/2 1/1/1
f 2/2/2 4/4/4 1/1/1
f 1/1/1 4/4/4 5/5/5
f 4/4/4 6/6/6 5/5/5
f 5/5/5 6/6/6 7/7/7
f 6/6/6 8/8/8 7/7/7
f 7/7/7 8/8/8 9/9/9
f 8/8/8 10/10/10 9/9/9
f 9/9/9 10/10/10 11/11/11
f 10/10/10 12/12/12 11/11/11
f 11/11/11 12/12/12 13/13/13
f 12/12/12 14/14/14 13/13/13
f 13/13/13 14/14/14 15/15/15
f 14/14/14 16/16/16 15/15/15
f 19/19/19 18/18/18 17/17/17
f 18/18/18 20/20/20 17/17/17
f 17/17/17 20/20/20 21/21/21
f 20/20/20 22/22/22 21/21/21
f 21/21/21 22/22/22 23/23/23
f 22/22/22 24/24/24 23/23/23
f 23/23/23 24/24/24 25/25/25
f 24/24/24 26/26/26 25/25/25
f 25/25/25 26/26/26 27/27/27
f 26/26/26 28/28/28 27/27/27
f 27/27/27 28/28/28 29/29/29
f 28/28/28 30/30/30 29/29/29
f 29/29/29 30/30/30 31/31/31
f 30/30/30 32/32/32 31/31/31
f 35/35/35 34/34/34 33/33/33
f 36/36/36 35/35/35 33/33/33
f 37/37/37 35/35/35 36/36/36
f 36/36/36 33/33/33 38/38/38
f 39/39/39 37/37/37 36/36/36
f 40/40/40 36/36/36 38/38/38
f 39/39/39 36/36/36 40/40/40
f 40/40/40 38/38/38 41/41/41
f 42/42/42 39/39/39 40/40/40
f 43/43/43 40/40/40 41/41/41
f 42/42/42 40/40/40 43/43/43
f 43/43/43 41/41/41 44/44/44
f 45/45/45 42/42/42 43/43/43
f 46/46/46 43/43/43 44/44/44
f 45/45/45 43/43/43 46/46/46
f 46/46/46 44/44/44 47/47/47
f 48/48/48 45/45/45 46/46/46
f 49/49/49 46/46/46 47/47/47
f 48/48/48 46/46/46 49/49/49
f 49/49/49 47/47/47 50/50/50
f 51/51/51 48/48/48 49/49/49
f 52/52/52 49/49/49 50/50/50
f 51/51/51 49/49/49 52/52/52
f 52/52/52 50/50/50 53/53/53
f 54/54/54 51/51/51 52/52/52
f 55/55/55 52/52/52 53/53/53
f 54/54/54 52/52/52 55/55/55
f 56/56/56 54/54/54 55/55/55
f 59/59/59 58/58/58 57/57/57
f 60/60/60 59/59/59 57/57/57
f 61/61/61 59/59/59 60/60/60
f 60/60/60 57/57/57 62/62/62
f 63/63/63 61/61/61 60/60/60
f 64/64/64 60/60/60 62/62/62
f 63/63/63 60/60/60 64/64/64
f 64/64/64 62/62/62 65/65/65
f 66/66/66 63/63/63 64/64/64
f 67/67/67 64/64/64 65/65/65
f 66/66/66 64/64/64 67/67/67
f 67/67/67 65/65/65 68/68/68
f 69/69/69 66/66/66 67/67/67
f 70/70/70 67/67/67 68/68/68
f 69/69/69 67/67/67 70/70/70
f 70/70/70 68/68/68 71/71/71
f 72/72/72 69/69/69 70/70/70
f 73/73/73 70/70/70 71/71/71
f 72/72/72 70/70/70 73/73/73
f 73/73/73 71/71/71 74/74/74
f 75/75/75 72/72/72 73/73/73
f 76/76/76 73/73/73 74/74/74
f 75/75/75 73/73/73 76/76/76
f 76/76/76 74/74/74 77/77/77
f 78/78/78 75/75/75 76/76/76
f 79/79/79 76/76/76 77/77/77
f 78/78/78 76/76/76 79/79/79
f 80/80/80 78/78/78 79/79/79
f 83/83/83 82/82/82 81/81/81
f 84/84/84 83/83/83 81/81/81
f 85/85/85 83/83/83 84/84/84
f 86/86/86 85/85/85 84/84/84
f 87/87/87 85/85/85 86/86/86
f 88/88/88 87/87/87 86/86/86
f 89/89/89 87/87/87 88/88/88
f 90/90/90 89/89/89 88/88/88
f 91/91/91 89/89/89 90/90/90
f 92/92/92 91/91/91 90/90/90
f 93/93/93 91/91/91 92/92/92
f 94/94/94 93/93/93 92/92/92
f 95/95/95 93/93/93 94/94/94
f 96/96/96 95/95/95 94/94/94
f 99/99/99 98/98/98 97/97/97
f 100/100/100 99/99/99 97/97/97
f 101/101/101 99/99/99 100/100/100
f 102/102/102 101/101/101 100/100/100
f 103/103/103 101/101/101 102/102/102
f 104/104/104 103/103/103 102/102/102
f 105/105/105 103/103/103 104/104/104
f 106/106/106 105/105/105 104/104/104
f 107/107/107 105/105/105 106/106/106
f 108/108/108 107/107/107 106/106/106
f 109/109/109 107/107/107 108/108/108
f 110/110/110 109/109/109 108/108/108
f 111/111/111 109/109/109 110/110/110
f 112/112/112 111/111/111 110/110/110
f 115/115/115 114/114/114 113/113/113
f 114/114/114 116/116/116 113/113/113
f 117/117/117 115/115/115 113/113/113
f 117/117/117 118/118/118 115/115/115
f 119/119/119 118/118/118 117/117/117
f 120/120/120 119/119/119 117/117/117
f 120/120/120 117/117/117 113/113/113
f 121/121/121 119/119/119 120/120/120
f 116/116/116 122/122/122 113/113/113
f 123/123/123 120/120/120 113/113/113
f 123/123/123 121/121/121 120/120/120
f 122/122/122 124/124/124 113/113/113
f 116/116/116 125/125/125 122/122/122
f 122/122/122 125/125/125 124/124/124
f 126/126/126 121/121/121 123/123/123
f 125/125/125 127/127/127 124/124/124
f 128/128/128 126/126/126 123/123/123
f 128/128/128 123/123/123 113/113/113
f 129/129/129 126/126/126 128/128/128
f 129/129/129 128/128/128 113/113/113
f 130/130/130 129/129/129 113/113/113
f 131/131/131 130/130/130 113/113/113
f 124/124/124 127/127/127 132/132/132
f 124/124/124 132/132/132 113/113/113
f 127/127/127 133/133/133 132/132/132
f 134/134/134 131/131/131 113/113/113
f 132/132/132 134/134/134 113/113/113
f 132/132/132 133/133/133 134/134/134
f 134/134/134 135/135/135 131/131/131
f 133/133/133 135/135/135 134/134/134
