g hareLegR_alt_mesh
v 0.2 0 0
v -0.2 0 0
v 0.2116667 -0.1083333 0
v -0.2116667 -0.1083333 0
v 0.2126 -0.195 0
v -0.2126 -0.195 0
v 0.20826 -0.26 0
v -0.20826 -0.26 0
v 0.2028467 -0.3033333 0
v -0.2028467 -0.3033333 0
v 0.1993 -0.325 0
v -0.1993 -0.325 0
v 0.1993 -0.325 0
v -0.1993 -0.325 0
v 0.1953333 -0.3466667 0
v -0.1953333 -0.3466667 0
v 0.18656 -0.39 0
v -0.18656 -0.39 0
v 0.17088 -0.455 0
v -0.17088 -0.455 0
v 0.1449334 -0.5416666 0
v -0.1449334 -0.5416666 0
v 0.1041 -0.65 0
v -0.1041 -0.65 0
vt 0.0001953125 0.08583985
vt 0.07304688 0.08583985
vt 0.0001953125 0.0743164
vt 0.07304688 0.0743164
vt 0.0001953125 0.06509766
vt 0.07304688 0.06509766
vt 0.0001953125 0.0581836
vt 0.07304688 0.0581836
vt 0.0001953125 0.05357422
vt 0.07304688 0.05357422
vt 0.0001953125 0.05126953
vt 0.07304688 0.05126953
vt 0.0001953125 0.05126953
vt 0.07304688 0.05126953
vt 0.0001953125 0.04896484
vt 0.07304688 0.04896484
vt 0.0001953125 0.04435547
vt 0.07304688 0.04435547
vt 0.0001953125 0.03744141
vt 0.07304688 0.03744141
vt 0.0001953125 0.02822266
vt 0.07304688 0.02822266
vt 0.0001953125 0.01669922
vt 0.07304688 0.01669922
vn 0 0 -1
vn 0 0 -1
vn 0 0 -1
vn 0 0 -1
vn 0 0 -1
vn 0 0 -1
vn 0 0 -1
vn 0 0 -1
vn 0 0 -1
vn 0 0 -1
vn 0 0 -1
vn 0 0 -1
vn 0 0 -1
vn 0 0 -1
vn 0 0 -1
vn 0 0 -1
vn 0 0 -1
vn 0 0 -1
vn 0 0 -1
vn 0 0 -1
vn 0 0 -1
vn 0 0 -1
vn 0 0 -1
vn 0 0 -1
g hareLegR_alt_mesh_0
f 3/3/3 2/2/2 1/1/1
f 4/4/4 2/2/2 3/3/3
f 5/5/5 4/4/4 3/3/3
f 6/6/6 4/4/4 5/5/5
f 7/7/7 6/6/6 5/5/5
f 8/8/8 6/6/6 7/7/7
f 9/9/9 8/8/8 7/7/7
f 10/10/10 8/8/8 9/9/9
f 11/11/11 10/10/10 9/9/9
f 12/12/12 10/10/10 11/11/11
f 13/13/13 12/12/12 11/11/11
f 14/14/14 12/12/12 13/13/13
f 15/15/15 14/14/14 13/13/13
f 16/16/16 14/14/14 15/15/15
f 17/17/17 16/16/16 15/15/15
f 18/18/18 16/16/16 17/17/17
f 19/19/19 18/18/18 17/17/17
f 20/20/20 18/18/18 19/19/19
f 21/21/21 20/20/20 19/19/19
f 22/22/22 20/20/20 21/21/21
f 23/23/23 22/22/22 21/21/21
f 24/24/24 22/22/22 23/23/23
