g hareArm_D2_mesh
v 0.09 0 0
v -0.09 0 0
v 0.096 -0.1 0
v -0.096 -0.1 0
v 0.1005 -0.175 0
v -0.1005 -0.175 0
v 0.1035 -0.225 0
v -0.1035 -0.225 0
v 0.105 -0.25 0
v -0.105 -0.25 0
v 0.105 -0.25 0
v -0.105 -0.25 0
v 0.1065 -0.275 0
v -0.1065 -0.275 0
v 0.1095 -0.325 0
v -0.1095 -0.325 0
v 0.114 -0.4 0
v -0.114 -0.4 0
v 0.12 -0.5 0
v -0.12 -0.5 0
vt 0.9591797 0.5047852
vt 0.9949219 0.5047852
vt 0.9591797 0.4945703
vt 0.9949219 0.4945703
vt 0.9591797 0.4869092
vt 0.9949219 0.4869092
vt 0.9591797 0.4818018
vt 0.9949219 0.4818018
vt 0.9591797 0.479248
vt 0.9949219 0.479248
vt 0.9591797 0.479248
vt 0.9949219 0.479248
vt 0.9591797 0.4766943
vt 0.9949219 0.4766943
vt 0.9591797 0.4715869
vt 0.9949219 0.4715869
vt 0.9591797 0.4639258
vt 0.9949219 0.4639258
vt 0.9591797 0.4537109
vt 0.9949219 0.4537109
vn 0 0 -1
vn 0 0 -1
vn 0 0 -1
vn 0 0 -0.9999999
vn 0 0 -1
vn 0 0 -1
vn 0 0 -0.9999999
vn 0 0 -1
vn 0 0 -1
vn 0 0 -0.9999999
vn 0 0 -0.9999999
vn 0 0 -1
vn 0 0 -1
vn 0 0 -1
vn 0 0 -1
vn 0 0 -0.9999999
vn 0 0 -1
vn 0 0 -1
vn 0 0 -0.9999999
vn 0 0 -1
g hareArm_D2_mesh_0
f 3/3/3 2/2/2 1/1/1
f 4/4/4 2/2/2 3/3/3
f 5/5/5 4/4/4 3/3/3
f 6/6/6 4/4/4 5/5/5
f 7/7/7 6/6/6 5/5/5
f 8/8/8 6/6/6 7/7/7
f 9/9/9 8/8/8 7/7/7
f 10/10/10 8/8/8 9/9/9
f 11/11/11 10/10/10 9/9/9
f 12/12/12 10/10/10 11/11/11
f 13/13/13 12/12/12 11/11/11
f 14/14/14 12/12/12 13/13/13
f 15/15/15 14/14/14 13/13/13
f 16/16/16 14/14/14 15/15/15
f 17/17/17 16/16/16 15/15/15
f 18/18/18 16/16/16 17/17/17
f 19/19/19 18/18/18 17/17/17
f 20/20/20 18/18/18 19/19/19
