g headband2_mesh
v 0.04 0 0
v -0.04 0 0
v 0.041 -0.08333334 0
v -0.041 -0.08333334 0
v 0.042 -0.1666667 0
v -0.042 -0.1666667 0
v 0.04299999 -0.25 0
v -0.04299999 -0.25 0
v 0.04399999 -0.3333333 0
v -0.04399999 -0.3333333 0
v 0.04499999 -0.4166667 0
v -0.04499999 -0.4166667 0
v 0.04599999 -0.5 0
v -0.04599999 -0.5 0
v 0.04699999 -0.5833333 0
v -0.04699999 -0.5833333 0
v 0.04799999 -0.6666666 0
v -0.04799999 -0.6666666 0
v 0.04899998 -0.7499999 0
v -0.04899998 -0.7499999 0
vt 0.8671875 0.3325195
vt 0.8671875 0.3325195
vt 0.8671875 0.3325195
vt 0.8671875 0.3325195
vt 0.8671875 0.3325195
vt 0.8671875 0.3325195
vt 0.8671875 0.3325195
vt 0.8671875 0.3325195
vt 0.8671875 0.3325195
vt 0.8671875 0.3325195
vt 0.8671875 0.3325195
vt 0.8671875 0.3325195
vt 0.8671875 0.3325195
vt 0.8671875 0.3325195
vt 0.8671875 0.3325195
vt 0.8671875 0.3325195
vt 0.8671875 0.3325195
vt 0.8671875 0.3325195
vt 0.8671875 0.3325195
vt 0.8671875 0.3325195
vn 0 0 -1
vn 0 0 -0.9999999
vn 0 0 -1
vn 0 0 -1
vn 0 0 -1
vn 0 0 -1
vn 0 0 -1
vn 0 0 -1
vn 0 0 -1
vn 0 0 -1
vn 0 0 -1
vn 0 0 -1
vn 0 0 -1
vn 0 0 -1
vn 0 0 -1
vn 0 0 -1
vn 0 0 -0.9999999
vn 0 0 -1
vn 0 0 -1
vn 0 0 -1
g headband2_mesh_0
f 3/3/3 2/2/2 1/1/1
f 4/4/4 2/2/2 3/3/3
f 5/5/5 4/4/4 3/3/3
f 6/6/6 4/4/4 5/5/5
f 7/7/7 6/6/6 5/5/5
f 8/8/8 6/6/6 7/7/7
f 9/9/9 8/8/8 7/7/7
f 10/10/10 8/8/8 9/9/9
f 11/11/11 10/10/10 9/9/9
f 12/12/12 10/10/10 11/11/11
f 13/13/13 12/12/12 11/11/11
f 14/14/14 12/12/12 13/13/13
f 15/15/15 14/14/14 13/13/13
f 16/16/16 14/14/14 15/15/15
f 17/17/17 16/16/16 15/15/15
f 18/18/18 16/16/16 17/17/17
f 19/19/19 18/18/18 17/17/17
f 20/20/20 18/18/18 19/19/19
