g Lev9_TopSectionBannistersAndTrim_ref
v 0.4999712 1.649955 -0.5475522
v -0.09962654 1.649955 0.08754045
v 0.4999712 1.649955 0.08754045
v 0.4999712 1.959995 0.08754045
v -0.09962654 1.959995 0.08754045
v 0.4999712 1.999943 0.0474655
v -0.09962654 1.649955 -0.5475522
v -0.4828194 1.649955 0.08754045
v -0.09962654 1.69003 -0.5875
v 0.4999712 1.69003 -0.5875
v -0.09962654 1.959995 -0.5875
v 0.4999712 1.959995 -0.5875
v -0.09962654 1.999943 -0.5475522
v 0.4999712 1.999943 -0.5475522
v -0.09962654 1.999943 0.0474655
v -0.4828194 1.999943 -0.5475522
v -0.4828194 1.959995 -0.5875
v -0.4828194 1.69003 -0.5875
v -0.4828194 1.959995 0.08754045
v -0.4828194 1.999943 0.0474655
v -0.4828194 1.649955 -0.5475522
v -2.640379 1.999943 -0.5475522
v -2.640379 1.649955 0.08754045
v -2.640379 1.959995 -0.5875
v -2.640379 1.959995 0.08754045
v -2.640379 1.69003 -0.5875
v -2.640379 1.999943 0.0474655
v -2.640379 1.649955 -0.5475522
v -2.983243 1.999943 -0.5475522
v -2.983243 1.649955 0.08754045
v -2.983243 1.959995 -0.5875
v -2.983243 1.959995 0.08754045
v -2.983243 1.69003 -0.5875
v -2.983243 1.999943 0.0474655
v -2.983243 1.649955 -0.5475522
v -4.242105 1.999943 -0.5475522
v -4.242105 1.649955 0.08754045
v -4.242105 1.959995 -0.5875
v -4.242105 1.959995 0.08754045
v -4.242105 1.69003 -0.5875
v -4.242105 1.999943 0.0474655
v -4.242105 1.649955 -0.5475522
v -4.623135 1.999943 -0.5475522
v -4.623135 1.649955 0.08754045
v -4.623135 1.959995 -0.5875
v -4.623135 1.959995 0.08754045
v -4.623135 1.69003 -0.5875
v -4.623135 1.999943 0.0474655
v -4.623135 1.649955 -0.5475522
v -6.724717 1.999943 -0.5475522
v -6.724717 1.649955 0.08754045
v -6.724717 1.959995 -0.5875
v -6.724717 1.959995 0.08754045
v -6.724717 1.69003 -0.5875
v -6.724717 1.999943 0.0474655
v -6.724717 1.649955 -0.5475522
v -7.144931 1.999943 -0.5475522
v -7.144931 1.649955 0.08754045
v -7.144931 1.959995 -0.5875
v -7.144931 1.959995 0.08754045
v -7.144931 1.69003 -0.5875
v -7.144931 1.999943 0.0474655
v -7.144931 1.649955 -0.5475522
v -7.75 1.999943 -0.5475522
v -7.75 1.959995 -0.5875
v -7.75 1.999943 0.0474655
v -7.75 1.69003 -0.5875
v -7.75 1.959995 0.08754045
v -7.75 1.649955 -0.5475522
v -7.75 1.649955 0.08754045
vn -0.003623068 -0.9238803 -0.3826643
vn -0.003623068 -0.7064967 0.707707
vn -0.003623068 -0.7064967 0.707707
vn -0.003623068 0.3804213 0.9248062
vn -0.003623068 0.3804213 0.9248062
vn -0.003623068 0.9238803 0.3826643
vn -0.003623068 -0.9238803 -0.3826643
vn -0.003623068 -0.7064967 0.707707
vn -0.003623068 -0.3804213 -0.9248062
vn -0.003623068 -0.3804213 -0.9248062
vn -0.003623068 0.3804213 -0.9248062
vn -0.003623068 0.3804213 -0.9248062
vn -0.003623068 0.9238803 -0.3826643
vn -0.003623068 0.9238803 -0.3826643
vn -0.003623068 0.9238803 0.3826643
vn -0.003623068 0.9238803 -0.3826643
vn -0.003623068 0.3804213 -0.9248062
vn -0.003623068 -0.3804213 -0.9248062
vn -0.003623068 0.3804213 0.9248062
vn -0.003623068 0.9238803 0.3826643
vn -0.003623068 -0.9238803 -0.3826643
vn -0.003623068 0.9238803 -0.3826643
vn -0.003623068 -0.7064967 0.707707
vn -0.003623068 0.3804213 -0.9248062
vn -0.003623068 0.3804213 0.9248062
vn -0.003623068 -0.3804213 -0.9248062
vn -0.003623068 0.9238803 0.3826643
vn -0.003623068 -0.9238803 -0.3826643
vn -0.003623068 0.9238803 -0.3826643
vn -0.003623068 -0.7064967 0.707707
vn -0.003623068 0.3804213 -0.9248062
vn -0.003623068 0.3804213 0.9248062
vn -0.003623068 -0.3804213 -0.9248062
vn -0.003623068 0.9238803 0.3826643
vn -0.003623068 -0.9238803 -0.3826643
vn -0.003623068 0.9238803 -0.3826643
vn -0.003623068 -0.7064967 0.707707
vn -0.003623068 0.3804213 -0.9248062
vn -0.003623068 0.3804213 0.9248062
vn -0.003623068 -0.3804213 -0.9248062
vn -0.003623068 0.9238803 0.3826643
vn -0.003623068 -0.9238803 -0.3826643
vn -0.003623068 0.9238803 -0.3826643
vn -0.003623068 -0.7064967 0.707707
vn -0.003623068 0.3804213 -0.9248062
vn -0.003623068 0.3804213 0.9248062
vn -0.003623068 -0.3804213 -0.9248062
vn -0.003623068 0.9238803 0.3826643
vn -0.003623068 -0.9238803 -0.3826643
vn -0.003623068 0.9238803 -0.3826643
vn -0.003623068 -0.7064967 0.707707
vn -0.003623068 0.3804213 -0.9248062
vn -0.003623068 0.3804213 0.9248062
vn -0.003623068 -0.3804213 -0.9248062
vn -0.003623068 0.9238803 0.3826643
vn -0.003623068 -0.9238803 -0.3826643
vn -0.003623068 0.9238803 -0.3826643
vn -0.003623068 -0.7064967 0.707707
vn -0.003623068 0.3804213 -0.9248062
vn -0.003623068 0.3804213 0.9248062
vn -0.003623068 -0.3804213 -0.9248062
vn -0.003623068 0.9238803 0.3826643
vn -0.003623068 -0.9238803 -0.3826643
vn -0.003623068 0.9238803 -0.3826643
vn -0.003623068 0.3804213 -0.9248062
vn -0.003623068 0.9238803 0.3826643
vn -0.003623068 -0.3804213 -0.9248062
vn -0.003623068 0.3804213 0.9248062
vn -0.003623068 -0.9238803 -0.3826643
vn -0.003623068 -0.7064967 0.707707
g Lev9_TopSectionBannistersAndTrim_ref_0
f 3/3/3 2/2/2 1/1/1
f 2/2/2 3/3/3 4/4/4
f 5/5/5 2/2/2 4/4/4
f 5/5/5 4/4/4 6/6/6
f 2/2/2 7/7/7 1/1/1
f 8/8/8 2/2/2 5/5/5
f 2/2/2 8/8/8 7/7/7
f 7/7/7 9/9/9 1/1/1
f 9/9/9 10/10/10 1/1/1
f 10/10/10 9/9/9 11/11/11
f 12/12/12 10/10/10 11/11/11
f 12/12/12 11/11/11 13/13/13
f 14/14/14 12/12/12 13/13/13
f 6/6/6 14/14/14 13/13/13
f 15/15/15 5/5/5 6/6/6
f 15/15/15 6/6/6 13/13/13
f 13/13/13 11/11/11 16/16/16
f 15/15/15 13/13/13 16/16/16
f 11/11/11 9/9/9 17/17/17
f 11/11/11 17/17/17 16/16/16
f 18/18/18 9/9/9 7/7/7
f 9/9/9 18/18/18 17/17/17
f 19/19/19 5/5/5 15/15/15
f 19/19/19 8/8/8 5/5/5
f 20/20/20 15/15/15 16/16/16
f 20/20/20 19/19/19 15/15/15
f 8/8/8 21/21/21 7/7/7
f 21/21/21 18/18/18 7/7/7
f 16/16/16 17/17/17 22/22/22
f 20/20/20 16/16/16 22/22/22
f 23/23/23 8/8/8 19/19/19
f 8/8/8 23/23/23 21/21/21
f 17/17/17 18/18/18 24/24/24
f 17/17/17 24/24/24 22/22/22
f 25/25/25 19/19/19 20/20/20
f 25/25/25 23/23/23 19/19/19
f 26/26/26 18/18/18 21/21/21
f 18/18/18 26/26/26 24/24/24
f 27/27/27 20/20/20 22/22/22
f 27/27/27 25/25/25 20/20/20
f 23/23/23 28/28/28 21/21/21
f 28/28/28 26/26/26 21/21/21
f 22/22/22 24/24/24 29/29/29
f 27/27/27 22/22/22 29/29/29
f 30/30/30 23/23/23 25/25/25
f 23/23/23 30/30/30 28/28/28
f 24/24/24 26/26/26 31/31/31
f 24/24/24 31/31/31 29/29/29
f 32/32/32 25/25/25 27/27/27
f 32/32/32 30/30/30 25/25/25
f 33/33/33 26/26/26 28/28/28
f 26/26/26 33/33/33 31/31/31
f 34/34/34 27/27/27 29/29/29
f 34/34/34 32/32/32 27/27/27
f 30/30/30 35/35/35 28/28/28
f 35/35/35 33/33/33 28/28/28
f 29/29/29 31/31/31 36/36/36
f 34/34/34 29/29/29 36/36/36
f 37/37/37 30/30/30 32/32/32
f 30/30/30 37/37/37 35/35/35
f 31/31/31 33/33/33 38/38/38
f 31/31/31 38/38/38 36/36/36
f 39/39/39 32/32/32 34/34/34
f 39/39/39 37/37/37 32/32/32
f 40/40/40 33/33/33 35/35/35
f 33/33/33 40/40/40 38/38/38
f 41/41/41 34/34/34 36/36/36
f 41/41/41 39/39/39 34/34/34
f 37/37/37 42/42/42 35/35/35
f 42/42/42 40/40/40 35/35/35
f 36/36/36 38/38/38 43/43/43
f 41/41/41 36/36/36 43/43/43
f 44/44/44 37/37/37 39/39/39
f 37/37/37 44/44/44 42/42/42
f 38/38/38 40/40/40 45/45/45
f 38/38/38 45/45/45 43/43/43
f 46/46/46 39/39/39 41/41/41
f 46/46/46 44/44/44 39/39/39
f 47/47/47 40/40/40 42/42/42
f 40/40/40 47/47/47 45/45/45
f 48/48/48 41/41/41 43/43/43
f 48/48/48 46/46/46 41/41/41
f 44/44/44 49/49/49 42/42/42
f 49/49/49 47/47/47 42/42/42
f 43/43/43 45/45/45 50/50/50
f 48/48/48 43/43/43 50/50/50
f 51/51/51 44/44/44 46/46/46
f 44/44/44 51/51/51 49/49/49
f 45/45/45 47/47/47 52/52/52
f 45/45/45 52/52/52 50/50/50
f 53/53/53 46/46/46 48/48/48
f 53/53/53 51/51/51 46/46/46
f 54/54/54 47/47/47 49/49/49
f 47/47/47 54/54/54 52/52/52
f 55/55/55 48/48/48 50/50/50
f 55/55/55 53/53/53 48/48/48
f 51/51/51 56/56/56 49/49/49
f 56/56/56 54/54/54 49/49/49
f 50/50/50 52/52/52 57/57/57
f 55/55/55 50/50/50 57/57/57
f 58/58/58 51/51/51 53/53/53
f 51/51/51 58/58/58 56/56/56
f 52/52/52 54/54/54 59/59/59
f 52/52/52 59/59/59 57/57/57
f 60/60/60 53/53/53 55/55/55
f 60/60/60 58/58/58 53/53/53
f 61/61/61 54/54/54 56/56/56
f 54/54/54 61/61/61 59/59/59
f 62/62/62 55/55/55 57/57/57
f 62/62/62 60/60/60 55/55/55
f 58/58/58 63/63/63 56/56/56
f 63/63/63 61/61/61 56/56/56
f 57/57/57 59/59/59 64/64/64
f 62/62/62 57/57/57 64/64/64
f 59/59/59 65/65/65 64/64/64
f 59/59/59 61/61/61 65/65/65
f 66/66/66 62/62/62 64/64/64
f 61/61/61 67/67/67 65/65/65
f 67/67/67 61/61/61 63/63/63
f 66/66/66 68/68/68 62/62/62
f 68/68/68 60/60/60 62/62/62
f 69/69/69 67/67/67 63/63/63
f 68/68/68 70/70/70 60/60/60
f 70/70/70 58/58/58 60/60/60
f 70/70/70 69/69/69 63/63/63
f 58/58/58 70/70/70 63/63/63
