g lev9_windowFrame_AO+LightBaked
v -0.6341779 1.580288 0.02613354
v -0.6341779 1.580288 0.2110562
v 0.634181 1.580288 0.2110562
v 0.634181 1.580288 0.02613354
v -0.6341779 1.580288 -0.1353502
v 0.634181 1.580288 -0.1353502
v -0.6341779 -0.4946263 -0.1353502
v -0.6341779 -0.4946263 0.02613354
v -0.699965 -0.4946263 -0.1353502
v -0.699965 -0.8746092 -0.1353502
v -0.6341779 -0.8746092 -0.1353502
v -0.699965 -2.93421 -0.1353502
v -0.6341779 -2.868423 -0.1353502
v -0.699965 1.646076 -0.1353502
v -0.7564051 -0.4946263 -0.1353502
v -0.7563334 1.697843 -0.1353502
v 0.634181 -0.4946263 0.2110562
v 0.634181 -0.4946263 0.02613354
v 0.634181 -0.8746092 0.2110562
v 0.634181 -0.8746092 0.02613354
v 0.634181 -0.4946263 -0.1353502
v 0.634181 -0.8746092 -0.1353502
v 0.634181 -2.868423 0.02613354
v 0.634181 -2.868423 -0.1353502
v -0.6341779 -2.868423 0.02613354
v 0.6999681 -0.4946263 -0.1353502
v 0.6999681 -0.8746092 -0.1353502
v 0.6999681 -2.93421 -0.1353502
v 0.634181 -2.868423 0.2110562
v -0.6341779 -2.868423 0.2110562
v -0.6341779 -0.8746092 0.2110562
v -0.6341779 -0.8746092 0.02613354
v -0.6341779 -0.4946263 0.2110562
v 0.7564082 -0.8746092 -0.1353502
v 0.7563365 -2.985976 -0.1353502
v 0.7564082 -0.4946263 -0.1353502
v 0.7563365 1.697843 -0.1353502
v -0.7563334 -2.985976 -0.1353502
v -0.7564051 -0.8746092 -0.1353502
v 0.7716508 -0.8746092 -0.1203234
v 0.7716508 -2.999997 -0.1203234
v 0.7716508 -0.8746092 0.2288151
v 0.7716508 -2.999997 0.2288151
v -0.7716477 -2.999997 0.2288151
v -0.7716477 -2.999997 -0.1203234
v -0.7716477 -0.8746092 0.2288151
v -0.7716477 -0.8746092 -0.1203234
v -0.7716477 -0.4946263 -0.1203234
v -0.7716477 -0.4946263 0.2288151
v -0.7716477 1.711863 0.2288151
v -0.7716477 1.711863 -0.1203234
v 0.7716508 -0.4946263 -0.1203234
v 0.7716508 -0.4946263 0.2288151
v 0.7716508 1.711863 0.2288151
v 0.7716508 1.711863 -0.1203234
v 0.6999681 1.646076 -0.1353502
v 0.4810376 -0.7187335 -0.04296088
v 0.6305861 -0.7187335 -0.04296088
v 0.6305861 -0.5694005 -0.04296088
v 0.4810376 -0.5694005 -0.04296088
v 0.6305861 -0.7187335 0.05870342
v 0.4810376 -0.7187335 0.05870342
v 0.4810376 -0.5694005 0.05870342
v -0.4721911 -0.5694005 0.05870342
v -0.4721911 -0.5694005 -0.04296088
v -0.630583 -0.5694005 0.05870342
v -0.4721911 -0.7187335 0.05870342
v -0.630583 -0.7187335 0.05870342
v -0.630583 -0.5694005 -0.04296088
v -0.630583 -0.7187335 -0.04296088
v -0.4721911 -0.7187335 -0.04296088
v 0.6305861 -0.5694005 0.05870342
vt 1 1
vt 1 1
vt 1 1
vt 1 1
vt 1 1
vt 1 1
vt 1 1
vt 1 1
vt 1 1
vt 1 1
vt 1 1
vt 1 1
vt 1 1
vt 1 1
vt 1 1
vt 1 1
vt 1 1
vt 1 1
vt 1 1
vt 1 1
vt 1 1
vt 1 1
vt 1 1
vt 1 1
vt 1 1
vt 1 1
vt 1 1
vt 1 1
vt 1 1
vt 1 1
vt 1 1
vt 1 1
vt 1 1
vt 1 1
vt 1 1
vt 1 1
vt 1 1
vt 1 1
vt 1 1
vt 1 1
vt 1 1
vt 1 1
vt 1 1
vt 1 1
vt 1 1
vt 1 1
vt 1 1
vt 1 1
vt 1 1
vt 1 1
vt 1 1
vt 1 1
vt 1 1
vt 1 1
vt 1 1
vt 1 1
vt 1 1
vt 1 1
vt 1 1
vt 1 1
vt 1 1
vt 1 1
vt 1 1
vt 1 1
vt 1 1
vt 1 1
vt 1 1
vt 1 1
vt 1 1
vt 1 1
vt 1 1
vt 1 1
vn 0.7071068 -0.7071068 0
vn 0.7071068 -0.7071068 0
vn -0.7071068 -0.7071068 0
vn -0.7071068 -0.7071068 0
vn 0.3019585 -0.3019585 -0.9042357
vn -0.3019584 -0.3019585 -0.9042357
vn 0.7097985 0.003921509 -0.7043939
vn 0.9999924 0.003921509 0
vn -0.003921509 0.003921509 -0.9999846
vn -0.003921509 0.003921509 -0.9999846
vn 0.7097985 0.003921509 -0.7043939
vn -0.003921509 0.003921509 -0.9999846
vn 0.3019585 0.3019584 -0.9042357
vn -0.003921509 0.003921509 -0.9999846
vn -0.3803892 0.003921509 -0.9248182
vn -0.2941153 0.3176446 -0.9014422
vn -0.9999923 0.003921509 -0.0003449296
vn -0.9999923 0.003921509 -0.0003449296
vn -0.9999923 0.003921509 -0.0003449296
vn -0.9999923 0.003921509 -0.0003449296
vn -0.7097985 0.003921509 -0.7043939
vn -0.7097985 0.003921509 -0.7043939
vn -0.7071068 0.7071068 0
vn -0.3019584 0.3019584 -0.9042357
vn 0.7071068 0.7071068 0
vn -0.003921509 0.003921509 -0.9999846
vn -0.003921509 0.003921509 -0.9999846
vn -0.003921509 0.003921509 -0.9999846
vn -0.7071068 0.7071068 0
vn 0.7071068 0.7071068 0
vn 0.9999924 0.003921509 0
vn 0.9999924 0.003921509 0
vn 0.9999924 0.003921509 0
vn 0.3803893 0.003921509 -0.9248182
vn 0.2941154 -0.3176447 -0.9014422
vn 0.3803893 0.003921509 -0.9248182
vn 0.2941154 0.3176446 -0.9014422
vn -0.2941153 -0.3176447 -0.9014422
vn -0.3803892 0.003921509 -0.9248182
vn 0.9215616 0.003921509 -0.3882124
vn 0.654897 -0.6470539 -0.3904244
vn 0.9999924 0.003921509 0
vn 0.7071068 -0.7071068 0
vn -0.7071068 -0.7071068 0
vn -0.6548969 -0.6470539 -0.3904246
vn -0.9999923 0.003921509 -0.0003449296
vn -0.9215615 0.003921509 -0.3882126
vn -0.9215615 0.003921509 -0.3882126
vn -0.9999923 0.003921509 -0.0003449296
vn -0.7071068 0.7071068 0
vn -0.6548969 0.6470538 -0.3904247
vn 0.9215616 0.003921509 -0.3882124
vn 0.9999924 0.003921509 0
vn 0.7071068 0.7071068 0
vn 0.654897 0.6470538 -0.3904245
vn -0.003921509 0.003921509 -0.9999846
vn -0.003921509 -0.7097985 -0.7043939
vn -0.003921509 -0.7097985 -0.7043939
vn -0.003921509 0.7097985 -0.7043939
vn -0.003921509 0.7097985 -0.7043939
vn -0.003921509 -0.7097985 0.7043939
vn -0.003921509 -0.7097985 0.7043939
vn -0.003921509 0.7097985 0.7043939
vn -0.003921509 0.7097985 0.7043939
vn -0.003921509 0.7097985 -0.7043939
vn -0.003921509 0.7097985 0.7043939
vn -0.003921509 -0.7097985 0.7043939
vn -0.003921509 -0.7097985 0.7043939
vn -0.003921509 0.7097985 -0.7043939
vn -0.003921509 -0.7097985 -0.7043939
vn -0.003921509 -0.7097985 -0.7043939
vn -0.003921509 0.7097985 0.7043939
g lev9_windowFrame_AO+LightBaked_0
f 3/3/3 2/2/2 1/1/1
f 4/4/4 3/3/3 1/1/1
f 4/4/4 1/1/1 5/5/5
f 6/6/6 4/4/4 5/5/5
f 5/5/5 1/1/1 7/7/7
f 1/1/1 8/8/8 7/7/7
f 1/1/1 2/2/2 8/8/8
f 7/7/7 9/9/9 5/5/5
f 10/10/10 9/9/9 7/7/7
f 11/11/11 10/10/10 7/7/7
f 7/7/7 8/8/8 11/11/11
f 12/12/12 10/10/10 11/11/11
f 13/13/13 12/12/12 11/11/11
f 9/9/9 14/14/14 5/5/5
f 5/5/5 14/14/14 6/6/6
f 9/9/9 15/15/15 14/14/14
f 15/15/15 16/16/16 14/14/14
f 17/17/17 3/3/3 4/4/4
f 18/18/18 17/17/17 4/4/4
f 18/18/18 4/4/4 6/6/6
f 19/19/19 17/17/17 18/18/18
f 20/20/20 19/19/19 18/18/18
f 20/20/20 18/18/18 21/21/21
f 21/21/21 18/18/18 6/6/6
f 22/22/22 20/20/20 21/21/21
f 23/23/23 20/20/20 22/22/22
f 23/23/23 24/24/24 13/13/13
f 24/24/24 23/23/23 22/22/22
f 25/25/25 23/23/23 13/13/13
f 21/21/21 26/26/26 22/22/22
f 26/26/26 27/27/27 22/22/22
f 22/22/22 27/27/27 24/24/24
f 27/27/27 28/28/28 24/24/24
f 24/24/24 28/28/28 13/13/13
f 29/29/29 19/19/19 20/20/20
f 23/23/23 29/29/29 20/20/20
f 30/30/30 29/29/29 23/23/23
f 25/25/25 30/30/30 23/23/23
f 31/31/31 30/30/30 25/25/25
f 32/32/32 31/31/31 25/25/25
f 33/33/33 31/31/31 32/32/32
f 8/8/8 33/33/33 32/32/32
f 32/32/32 25/25/25 13/13/13
f 11/11/11 32/32/32 13/13/13
f 8/8/8 32/32/32 11/11/11
f 2/2/2 33/33/33 8/8/8
f 28/28/28 12/12/12 13/13/13
f 27/27/27 34/34/34 28/28/28
f 34/34/34 35/35/35 28/28/28
f 28/28/28 35/35/35 12/12/12
f 36/36/36 34/34/34 27/27/27
f 26/26/26 36/36/36 27/27/27
f 37/37/37 36/36/36 26/26/26
f 35/35/35 38/38/38 12/12/12
f 12/12/12 38/38/38 10/10/10
f 38/38/38 39/39/39 10/10/10
f 10/10/10 39/39/39 9/9/9
f 39/39/39 15/15/15 9/9/9
f 35/35/35 34/34/34 40/40/40
f 41/41/41 35/35/35 40/40/40
f 38/38/38 35/35/35 41/41/41
f 40/40/40 42/42/42 41/41/41
f 42/42/42 43/43/43 41/41/41
f 43/43/43 44/44/44 41/41/41
f 44/44/44 45/45/45 41/41/41
f 45/45/45 38/38/38 41/41/41
f 38/38/38 45/45/45 39/39/39
f 45/45/45 44/44/44 46/46/46
f 47/47/47 45/45/45 46/46/46
f 39/39/39 47/47/47 15/15/15
f 45/45/45 47/47/47 39/39/39
f 47/47/47 46/46/46 48/48/48
f 47/47/47 48/48/48 15/15/15
f 46/46/46 49/49/49 48/48/48
f 48/48/48 49/49/49 50/50/50
f 51/51/51 48/48/48 50/50/50
f 42/42/42 40/40/40 52/52/52
f 53/53/53 42/42/42 52/52/52
f 54/54/54 53/53/53 52/52/52
f 55/55/55 54/54/54 52/52/52
f 50/50/50 54/54/54 55/55/55
f 51/51/51 50/50/50 55/55/55
f 55/55/55 37/37/37 51/51/51
f 37/37/37 16/16/16 51/51/51
f 48/48/48 51/51/51 16/16/16
f 16/16/16 37/37/37 56/56/56
f 56/56/56 37/37/37 26/26/26
f 56/56/56 26/26/26 21/21/21
f 6/6/6 56/56/56 21/21/21
f 14/14/14 56/56/56 6/6/6
f 14/14/14 16/16/16 56/56/56
f 15/15/15 48/48/48 16/16/16
f 36/36/36 37/37/37 55/55/55
f 52/52/52 36/36/36 55/55/55
f 34/34/34 36/36/36 52/52/52
f 40/40/40 34/34/34 52/52/52
f 59/59/59 58/58/58 57/57/57
f 60/60/60 59/59/59 57/57/57
f 58/58/58 61/61/61 57/57/57
f 61/61/61 62/62/62 57/57/57
f 63/63/63 62/62/62 61/61/61
f 60/60/60 63/63/63 59/59/59
f 64/64/64 63/63/63 60/60/60
f 63/63/63 64/64/64 62/62/62
f 65/65/65 64/64/64 60/60/60
f 66/66/66 64/64/64 65/65/65
f 64/64/64 66/66/66 67/67/67
f 64/64/64 67/67/67 62/62/62
f 66/66/66 68/68/68 67/67/67
f 69/69/69 66/66/66 65/65/65
f 67/67/67 68/68/68 70/70/70
f 69/69/69 65/65/65 70/70/70
f 71/71/71 67/67/67 70/70/70
f 65/65/65 71/71/71 70/70/70
f 62/62/62 67/67/67 71/71/71
f 57/57/57 62/62/62 71/71/71
f 60/60/60 57/57/57 71/71/71
f 65/65/65 60/60/60 71/71/71
f 72/72/72 63/63/63 61/61/61
f 63/63/63 72/72/72 59/59/59
