g Lev9_TopSectionBannistersAndTrim_NonRef
v 0.5 1.650053 4.202519
v -0.1044729 1.650053 4.837524
v 0.5 1.650053 4.837524
v 0.5 1.959955 4.837524
v -0.1044729 1.959955 4.837524
v 0.5 2.000052 4.797557
v -0.1044729 1.650053 4.202519
v -0.4129337 1.650053 4.837524
v -0.1044729 1.690019 4.162553
v 0.5 1.690019 4.162553
v -0.1044729 1.959955 4.162553
v 0.5 1.959955 4.162553
v -0.1044729 2.000052 4.202519
v 0.5 2.000052 4.202519
v -0.1044729 2.000052 4.797557
v -0.4129337 2.000052 4.202519
v -0.4129337 1.959955 4.162553
v -0.4129337 1.690019 4.162553
v -0.4129337 1.959955 4.837524
v -0.4129337 2.000052 4.797557
v -0.4129337 1.650053 4.202519
v -2.678299 2.000052 4.202519
v -2.678299 1.650053 4.837524
v -2.678299 1.959955 4.162553
v -2.678299 1.959955 4.837524
v -2.678299 1.690019 4.162553
v -2.678299 2.000052 4.797557
v -2.678299 1.650053 4.202519
v -2.991477 2.000052 4.202519
v -2.991477 1.650053 4.837524
v -2.991477 1.959955 4.162553
v -2.991477 1.959955 4.837524
v -2.991477 1.690019 4.162553
v -2.991477 2.000052 4.797557
v -2.991477 1.650053 4.202519
v -4.2759 2.000052 4.202519
v -4.2759 1.650053 4.837524
v -4.2759 1.959955 4.162553
v -4.2759 1.959955 4.837524
v -4.2759 1.690019 4.162553
v -4.2759 2.000052 4.797557
v -4.2759 1.650053 4.202519
v -4.57545 2.000052 4.202519
v -4.57545 1.650053 4.837524
v -4.57545 1.959955 4.162553
v -4.57545 1.959955 4.837524
v -4.57545 1.690019 4.162553
v -4.57545 2.000052 4.797557
v -4.57545 1.650053 4.202519
v -6.820242 2.000052 4.202519
v -6.820242 1.650053 4.837524
v -6.820242 1.959955 4.162553
v -6.820242 1.959955 4.837524
v -6.820242 1.690019 4.162553
v -6.820242 2.000052 4.797557
v -6.820242 1.650053 4.202519
v -7.140759 2.000052 4.202519
v -7.140759 1.650053 4.837524
v -7.140759 1.959955 4.162553
v -7.140759 1.959955 4.837524
v -7.140759 1.690019 4.162553
v -7.140759 2.000052 4.797557
v -7.140759 1.650053 4.202519
v -7.749949 2.000052 4.202519
v -7.749949 1.959955 4.162553
v -7.749949 2.000052 4.797557
v -7.749949 1.690019 4.162553
v -7.749949 1.959955 4.837524
v -7.749949 1.650053 4.202519
v -7.749949 1.650053 4.837524
v -8.0875 1.959955 4.499973
v -8.0875 1.650053 4.499973
v -8.0875 1.650053 3.8917
v -7.452495 1.650053 4.499973
v -8.0875 1.959955 3.8917
v -8.047533 2.000052 4.499973
v -7.452495 1.650053 3.8917
v -8.0875 1.650053 3.486403
v -7.412529 1.690019 3.8917
v -7.412529 1.690019 4.499973
v -7.412529 1.959955 3.8917
v -7.412529 1.959955 4.499973
v -7.452495 2.000052 3.8917
v -7.452495 2.000052 4.499973
v -8.047533 2.000052 3.8917
v -7.452495 2.000052 3.486403
v -7.412529 1.959955 3.486403
v -7.412529 1.690019 3.486403
v -8.0875 1.959955 3.486403
v -8.047533 2.000052 3.486403
v -7.452495 1.650053 3.486403
v -7.452495 2.000052 2.116282
v -8.0875 1.650053 2.116282
v -7.412529 1.959955 2.116282
v -8.0875 1.959955 2.116282
v -7.412529 1.690019 2.116282
v -8.047533 2.000052 2.116282
v -7.452495 1.650053 2.116282
v -7.452495 2.000052 0.7461604
v -8.0875 1.650053 0.7461604
v -7.412529 1.959955 0.7461604
v -8.0875 1.959955 0.7461604
v -7.412529 1.690019 0.7461604
v -8.047533 2.000052 0.7461604
v -7.452495 1.650053 0.7461604
v -7.452495 2.000052 0.3495119
v -8.0875 1.650053 0.3495119
v -7.412529 1.959955 0.3495119
v -8.0875 1.959955 0.3495119
v -7.412529 1.690019 0.3495119
v -8.047533 2.000052 0.3495119
v -7.452495 1.650053 0.3495119
v -7.452495 2.000052 -0.2499817
v -7.412529 1.959955 -0.2499817
v -8.047533 2.000052 -0.2499817
v -7.412529 1.690019 -0.2499817
v -8.0875 1.959955 -0.2499817
v -7.452495 1.650053 -0.2499817
v -8.0875 1.650053 -0.2499817
vn -0.003623068 -0.9238803 -0.3826643
vn -0.003623068 -0.7064967 0.707707
vn -0.003623068 -0.7064967 0.707707
vn -0.003623068 0.3804213 0.9248062
vn -0.003623068 0.3804213 0.9248062
vn -0.003623068 0.9238803 0.3826643
vn -0.003623068 -0.9238803 -0.3826643
vn -0.003623068 -0.7064967 0.707707
vn -0.003623068 -0.3804213 -0.9248062
vn -0.003623068 -0.3804213 -0.9248062
vn -0.003623068 0.3804213 -0.9248062
vn -0.003623068 0.3804213 -0.9248062
vn -0.003623068 0.9238803 -0.3826643
vn -0.003623068 0.9238803 -0.3826643
vn -0.003623068 0.9238803 0.3826643
vn -0.003623068 0.9238803 -0.3826643
vn -0.003623068 0.3804213 -0.9248062
vn -0.003623068 -0.3804213 -0.9248062
vn -0.003623068 0.3804213 0.9248062
vn -0.003623068 0.9238803 0.3826643
vn -0.003623068 -0.9238803 -0.3826643
vn -0.003623068 0.9238803 -0.3826643
vn -0.003623068 -0.7064967 0.707707
vn -0.003623068 0.3804213 -0.9248062
vn -0.003623068 0.3804213 0.9248062
vn -0.003623068 -0.3804213 -0.9248062
vn -0.003623068 0.9238803 0.3826643
vn -0.003623068 -0.9238803 -0.3826643
vn -0.003623068 0.9238803 -0.3826643
vn -0.003623068 -0.7064967 0.707707
vn -0.003623068 0.3804213 -0.9248062
vn -0.003623068 0.3804213 0.9248062
vn -0.003623068 -0.3804213 -0.9248062
vn -0.003623068 0.9238803 0.3826643
vn -0.003623068 -0.9238803 -0.3826643
vn -0.003623068 0.9238803 -0.3826643
vn -0.003623068 -0.7064967 0.707707
vn -0.003623068 0.3804213 -0.9248062
vn -0.003623068 0.3804213 0.9248062
vn -0.003623068 -0.3804213 -0.9248062
vn -0.003623068 0.9238803 0.3826643
vn -0.003623068 -0.9238803 -0.3826643
vn -0.003623068 0.9238803 -0.3826643
vn -0.003623068 -0.7064967 0.707707
vn -0.003623068 0.3804213 -0.9248062
vn -0.003623068 0.3804213 0.9248062
vn -0.003623068 -0.3804213 -0.9248062
vn -0.003623068 0.9238803 0.3826643
vn -0.003623068 -0.9238803 -0.3826643
vn -0.003623068 0.9238803 -0.3826643
vn -0.003623068 -0.7064967 0.707707
vn -0.003623068 0.3804213 -0.9248062
vn -0.003623068 0.3804213 0.9248062
vn -0.003623068 -0.3804213 -0.9248062
vn -0.003623068 0.9238803 0.3826643
vn -0.003623068 -0.9238803 -0.3826643
vn -0.003623068 0.9238803 -0.3826643
vn -0.003623068 -0.7064967 0.707707
vn -0.003623068 0.3804213 -0.9248062
vn -0.003623068 0.3804213 0.9248062
vn -0.003623068 -0.3804213 -0.9248062
vn -0.003623068 0.9238803 0.3826643
vn -0.003623068 -0.9238803 -0.3826643
vn -0.003623068 0.9238803 -0.3826643
vn -0.003623068 0.3804213 -0.9248062
vn -0.003623068 0.9238803 0.3826643
vn -0.003623068 -0.3804213 -0.9248062
vn -0.003623068 0.3804213 0.9248062
vn -0.003623068 -0.9238803 -0.3826643
vn -0.003623068 -0.7064967 0.707707
vn -0.9238803 0.3804213 -0.04153011
vn -0.7064967 -0.7064967 -0.04153011
vn -0.7064967 -0.7064967 -0.04153011
vn 0.3804213 -0.9238803 -0.04153047
vn -0.9238803 0.3804213 -0.04153011
vn -0.3804213 0.9238803 -0.04153047
vn 0.3804213 -0.9238803 -0.04153047
vn -0.7064967 -0.7064967 -0.04153011
vn 0.9238803 -0.3804213 -0.04153011
vn 0.9238803 -0.3804213 -0.04153011
vn 0.9238803 0.3804213 -0.04153011
vn 0.9238803 0.3804213 -0.04153011
vn 0.3804213 0.9238803 -0.04153047
vn 0.3804213 0.9238803 -0.04153047
vn -0.3804213 0.9238803 -0.04153047
vn 0.3804213 0.9238803 -0.04153047
vn 0.9238803 0.3804213 -0.04153011
vn 0.9238803 -0.3804213 -0.04153011
vn -0.9238803 0.3804213 -0.04153011
vn -0.3804213 0.9238803 -0.04153047
vn 0.3804213 -0.9238803 -0.04153047
vn 0.3804213 0.9238803 -0.04153047
vn -0.7064967 -0.7064967 -0.04153011
vn 0.9238803 0.3804213 -0.04153011
vn -0.9238803 0.3804213 -0.04153011
vn 0.9238803 -0.3804213 -0.04153011
vn -0.3804213 0.9238803 -0.04153047
vn 0.3804213 -0.9238803 -0.04153047
vn 0.3804213 0.9238803 -0.04153047
vn -0.7064967 -0.7064967 -0.04153011
vn 0.9238803 0.3804213 -0.04153011
vn -0.9238803 0.3804213 -0.04153011
vn 0.9238803 -0.3804213 -0.04153011
vn -0.3804213 0.9238803 -0.04153047
vn 0.3804213 -0.9238803 -0.04153047
vn 0.3804213 0.9238803 -0.04153047
vn -0.7064967 -0.7064967 -0.04153011
vn 0.9238803 0.3804213 -0.04153011
vn -0.9238803 0.3804213 -0.04153011
vn 0.9238803 -0.3804213 -0.04153011
vn -0.3804213 0.9238803 -0.04153047
vn 0.3804213 -0.9238803 -0.04153047
vn 0.3804213 0.9238803 -0.04153047
vn 0.9238803 0.3804213 -0.04153011
vn -0.3804213 0.9238803 -0.04153047
vn 0.9238803 -0.3804213 -0.04153011
vn -0.9238803 0.3804213 -0.04153011
vn 0.3804213 -0.9238803 -0.04153047
vn -0.7064967 -0.7064967 -0.04153011
g Lev9_TopSectionBannistersAndTrim_NonRef_0
f 3/3/3 2/2/2 1/1/1
f 2/2/2 3/3/3 4/4/4
f 5/5/5 2/2/2 4/4/4
f 5/5/5 4/4/4 6/6/6
f 2/2/2 7/7/7 1/1/1
f 8/8/8 2/2/2 5/5/5
f 2/2/2 8/8/8 7/7/7
f 7/7/7 9/9/9 1/1/1
f 9/9/9 10/10/10 1/1/1
f 10/10/10 9/9/9 11/11/11
f 12/12/12 10/10/10 11/11/11
f 12/12/12 11/11/11 13/13/13
f 14/14/14 12/12/12 13/13/13
f 6/6/6 14/14/14 13/13/13
f 15/15/15 5/5/5 6/6/6
f 15/15/15 6/6/6 13/13/13
f 13/13/13 11/11/11 16/16/16
f 15/15/15 13/13/13 16/16/16
f 11/11/11 9/9/9 17/17/17
f 11/11/11 17/17/17 16/16/16
f 18/18/18 9/9/9 7/7/7
f 9/9/9 18/18/18 17/17/17
f 19/19/19 5/5/5 15/15/15
f 19/19/19 8/8/8 5/5/5
f 20/20/20 15/15/15 16/16/16
f 20/20/20 19/19/19 15/15/15
f 8/8/8 21/21/21 7/7/7
f 21/21/21 18/18/18 7/7/7
f 16/16/16 17/17/17 22/22/22
f 20/20/20 16/16/16 22/22/22
f 23/23/23 8/8/8 19/19/19
f 8/8/8 23/23/23 21/21/21
f 17/17/17 18/18/18 24/24/24
f 17/17/17 24/24/24 22/22/22
f 25/25/25 19/19/19 20/20/20
f 25/25/25 23/23/23 19/19/19
f 26/26/26 18/18/18 21/21/21
f 18/18/18 26/26/26 24/24/24
f 27/27/27 20/20/20 22/22/22
f 27/27/27 25/25/25 20/20/20
f 23/23/23 28/28/28 21/21/21
f 28/28/28 26/26/26 21/21/21
f 22/22/22 24/24/24 29/29/29
f 27/27/27 22/22/22 29/29/29
f 30/30/30 23/23/23 25/25/25
f 23/23/23 30/30/30 28/28/28
f 24/24/24 26/26/26 31/31/31
f 24/24/24 31/31/31 29/29/29
f 32/32/32 25/25/25 27/27/27
f 32/32/32 30/30/30 25/25/25
f 33/33/33 26/26/26 28/28/28
f 26/26/26 33/33/33 31/31/31
f 34/34/34 27/27/27 29/29/29
f 34/34/34 32/32/32 27/27/27
f 30/30/30 35/35/35 28/28/28
f 35/35/35 33/33/33 28/28/28
f 29/29/29 31/31/31 36/36/36
f 34/34/34 29/29/29 36/36/36
f 37/37/37 30/30/30 32/32/32
f 30/30/30 37/37/37 35/35/35
f 31/31/31 33/33/33 38/38/38
f 31/31/31 38/38/38 36/36/36
f 39/39/39 32/32/32 34/34/34
f 39/39/39 37/37/37 32/32/32
f 40/40/40 33/33/33 35/35/35
f 33/33/33 40/40/40 38/38/38
f 41/41/41 34/34/34 36/36/36
f 41/41/41 39/39/39 34/34/34
f 37/37/37 42/42/42 35/35/35
f 42/42/42 40/40/40 35/35/35
f 36/36/36 38/38/38 43/43/43
f 41/41/41 36/36/36 43/43/43
f 44/44/44 37/37/37 39/39/39
f 37/37/37 44/44/44 42/42/42
f 38/38/38 40/40/40 45/45/45
f 38/38/38 45/45/45 43/43/43
f 46/46/46 39/39/39 41/41/41
f 46/46/46 44/44/44 39/39/39
f 47/47/47 40/40/40 42/42/42
f 40/40/40 47/47/47 45/45/45
f 48/48/48 41/41/41 43/43/43
f 48/48/48 46/46/46 41/41/41
f 44/44/44 49/49/49 42/42/42
f 49/49/49 47/47/47 42/42/42
f 43/43/43 45/45/45 50/50/50
f 48/48/48 43/43/43 50/50/50
f 51/51/51 44/44/44 46/46/46
f 44/44/44 51/51/51 49/49/49
f 45/45/45 47/47/47 52/52/52
f 45/45/45 52/52/52 50/50/50
f 53/53/53 46/46/46 48/48/48
f 53/53/53 51/51/51 46/46/46
f 54/54/54 47/47/47 49/49/49
f 47/47/47 54/54/54 52/52/52
f 55/55/55 48/48/48 50/50/50
f 55/55/55 53/53/53 48/48/48
f 51/51/51 56/56/56 49/49/49
f 56/56/56 54/54/54 49/49/49
f 50/50/50 52/52/52 57/57/57
f 55/55/55 50/50/50 57/57/57
f 58/58/58 51/51/51 53/53/53
f 51/51/51 58/58/58 56/56/56
f 52/52/52 54/54/54 59/59/59
f 52/52/52 59/59/59 57/57/57
f 60/60/60 53/53/53 55/55/55
f 60/60/60 58/58/58 53/53/53
f 61/61/61 54/54/54 56/56/56
f 54/54/54 61/61/61 59/59/59
f 62/62/62 55/55/55 57/57/57
f 62/62/62 60/60/60 55/55/55
f 58/58/58 63/63/63 56/56/56
f 63/63/63 61/61/61 56/56/56
f 57/57/57 59/59/59 64/64/64
f 62/62/62 57/57/57 64/64/64
f 59/59/59 65/65/65 64/64/64
f 59/59/59 61/61/61 65/65/65
f 66/66/66 62/62/62 64/64/64
f 61/61/61 67/67/67 65/65/65
f 67/67/67 61/61/61 63/63/63
f 66/66/66 68/68/68 62/62/62
f 68/68/68 60/60/60 62/62/62
f 69/69/69 67/67/67 63/63/63
f 68/68/68 70/70/70 60/60/60
f 70/70/70 58/58/58 60/60/60
f 70/70/70 69/69/69 63/63/63
f 58/58/58 70/70/70 63/63/63
f 73/73/73 72/72/72 71/71/71
f 72/72/72 73/73/73 74/74/74
f 75/75/75 73/73/73 71/71/71
f 75/75/75 71/71/71 76/76/76
f 73/73/73 77/77/77 74/74/74
f 78/78/78 73/73/73 75/75/75
f 73/73/73 78/78/78 77/77/77
f 77/77/77 79/79/79 74/74/74
f 79/79/79 80/80/80 74/74/74
f 80/80/80 79/79/79 81/81/81
f 82/82/82 80/80/80 81/81/81
f 82/82/82 81/81/81 83/83/83
f 84/84/84 82/82/82 83/83/83
f 84/84/84 83/83/83 76/76/76
f 85/85/85 75/75/75 76/76/76
f 83/83/83 85/85/85 76/76/76
f 83/83/83 81/81/81 86/86/86
f 83/83/83 86/86/86 85/85/85
f 81/81/81 79/79/79 87/87/87
f 81/81/81 87/87/87 86/86/86
f 88/88/88 79/79/79 77/77/77
f 79/79/79 88/88/88 87/87/87
f 89/89/89 75/75/75 85/85/85
f 89/89/89 78/78/78 75/75/75
f 86/86/86 90/90/90 85/85/85
f 90/90/90 89/89/89 85/85/85
f 78/78/78 91/91/91 77/77/77
f 91/91/91 88/88/88 77/77/77
f 86/86/86 87/87/87 92/92/92
f 86/86/86 92/92/92 90/90/90
f 93/93/93 78/78/78 89/89/89
f 78/78/78 93/93/93 91/91/91
f 87/87/87 88/88/88 94/94/94
f 87/87/87 94/94/94 92/92/92
f 95/95/95 89/89/89 90/90/90
f 95/95/95 93/93/93 89/89/89
f 96/96/96 88/88/88 91/91/91
f 88/88/88 96/96/96 94/94/94
f 92/92/92 97/97/97 90/90/90
f 97/97/97 95/95/95 90/90/90
f 93/93/93 98/98/98 91/91/91
f 98/98/98 96/96/96 91/91/91
f 92/92/92 94/94/94 99/99/99
f 92/92/92 99/99/99 97/97/97
f 100/100/100 93/93/93 95/95/95
f 93/93/93 100/100/100 98/98/98
f 94/94/94 96/96/96 101/101/101
f 94/94/94 101/101/101 99/99/99
f 102/102/102 95/95/95 97/97/97
f 102/102/102 100/100/100 95/95/95
f 103/103/103 96/96/96 98/98/98
f 96/96/96 103/103/103 101/101/101
f 99/99/99 104/104/104 97/97/97
f 104/104/104 102/102/102 97/97/97
f 100/100/100 105/105/105 98/98/98
f 105/105/105 103/103/103 98/98/98
f 99/99/99 101/101/101 106/106/106
f 99/99/99 106/106/106 104/104/104
f 107/107/107 100/100/100 102/102/102
f 100/100/100 107/107/107 105/105/105
f 101/101/101 103/103/103 108/108/108
f 101/101/101 108/108/108 106/106/106
f 109/109/109 102/102/102 104/104/104
f 109/109/109 107/107/107 102/102/102
f 110/110/110 103/103/103 105/105/105
f 103/103/103 110/110/110 108/108/108
f 106/106/106 111/111/111 104/104/104
f 111/111/111 109/109/109 104/104/104
f 107/107/107 112/112/112 105/105/105
f 112/112/112 110/110/110 105/105/105
f 106/106/106 108/108/108 113/113/113
f 106/106/106 113/113/113 111/111/111
f 108/108/108 114/114/114 113/113/113
f 108/108/108 110/110/110 114/114/114
f 113/113/113 115/115/115 111/111/111
f 110/110/110 116/116/116 114/114/114
f 116/116/116 110/110/110 112/112/112
f 115/115/115 117/117/117 111/111/111
f 117/117/117 109/109/109 111/111/111
f 118/118/118 116/116/116 112/112/112
f 117/117/117 119/119/119 109/109/109
f 119/119/119 107/107/107 109/109/109
f 119/119/119 118/118/118 112/112/112
f 107/107/107 119/119/119 112/112/112
