g Lev9_TopSectionBannistersAndTrim_ref(Clone)
v -7.144931 1.999943 -0.5475522
v -6.724717 1.999943 -0.5475522
v -6.724717 1.999943 0.0474655
v -7.144931 1.999943 0.0474655
v -4.623135 1.999943 0.0474655
v -4.623135 1.999943 -0.5475522
v -4.623135 1.959995 -0.5875
v -6.724717 1.959995 -0.5875
v -4.623135 1.69003 -0.5875
v -6.724717 1.69003 -0.5875
v -7.144931 1.959995 -0.5875
v -7.144931 1.69003 -0.5875
v -4.623135 1.649955 -0.5475522
v -4.242105 1.649955 -0.5475522
v -4.623135 1.649955 0.08754045
v -4.242105 1.649955 0.08754045
v -4.242105 1.959995 0.08754045
v -4.623135 1.959995 0.08754045
v -6.724717 1.649955 0.08754045
v -6.724717 1.959995 0.08754045
v -6.724717 1.649955 -0.5475522
v -4.242105 1.69003 -0.5875
v -4.242105 1.999943 0.0474655
v -4.242105 1.999943 -0.5475522
v -2.983243 1.999943 0.0474655
v -2.983243 1.999943 -0.5475522
v -2.640379 1.999943 0.0474655
v -2.640379 1.999943 -0.5475522
v -0.4828194 1.999943 0.0474655
v -0.4828194 1.999943 -0.5475522
v -2.640379 1.959995 -0.5875
v -2.983243 1.959995 -0.5875
v -2.640379 1.69003 -0.5875
v -2.983243 1.69003 -0.5875
v -0.4828194 1.69003 -0.5875
v -0.4828194 1.959995 -0.5875
v -0.4828194 1.649955 -0.5475522
v -2.640379 1.649955 -0.5475522
v -2.640379 1.649955 0.08754045
v -0.4828194 1.649955 0.08754045
v -0.09962654 1.649955 -0.5475522
v -0.09962654 1.649955 0.08754045
v -0.09962654 1.959995 0.08754045
v -0.4828194 1.959995 0.08754045
v -2.640379 1.959995 0.08754045
v -0.09962654 1.69003 -0.5875
v -0.09962654 1.999943 0.0474655
v -2.983243 1.959995 0.08754045
v -2.983243 1.649955 0.08754045
v -2.983243 1.649955 -0.5475522
v -4.242105 1.959995 -0.5875
v -0.09962654 1.959995 -0.5875
v 0.4999712 1.69003 -0.5875
v 0.4999712 1.959995 -0.5875
v -0.09962654 1.999943 -0.5475522
v 0.4999712 1.999943 -0.5475522
v 0.4999712 1.999943 0.0474655
v 0.4999712 1.959995 0.08754045
v 0.4999712 1.649955 -0.5475522
v 0.4999712 1.649955 0.08754045
v -7.144931 1.649955 -0.5475522
v -7.75 1.649955 -0.5475522
v -7.75 1.649955 0.08754045
v -7.144931 1.649955 0.08754045
v -7.75 1.69003 -0.5875
v -7.144931 1.959995 0.08754045
v -7.75 1.959995 0.08754045
v -7.75 1.999943 0.0474655
v -7.75 1.959995 -0.5875
v -7.75 1.999943 -0.5475522
vt 0.6392937 0.6392937
vt 1.000004 1.000004
vt 1.000004 1.000004
vt 0.6350285 0.6350285
vt 1.000004 1.000004
vt 1.000004 1.000004
vt 1.000004 1.000004
vt 1.000004 1.000004
vt 0.6703684 0.6703684
vt 0.6703684 0.6703684
vt 0.9920834 0.9920834
vt 0.6703684 0.6703684
vt 0.0001289696 0.0001289696
vt 0.0001289696 0.0001289696
vt 0.3096578 0.3096578
vt 0.3096578 0.3096578
vt 0.9920834 0.9920834
vt 1.000004 1.000004
vt 0.2237452 0.2237452
vt 0.9488224 0.9488224
vt 0.0001289696 0.0001289696
vt 0.6703684 0.6703684
vt 0.6703684 0.6703684
vt 0.6703684 0.6703684
vt 0.7099735 0.7099735
vt 0.7099735 0.7099735
vt 1.000004 1.000004
vt 1.000004 1.000004
vt 1.000004 1.000004
vt 1.000004 1.000004
vt 1.000004 1.000004
vt 0.9963484 0.9963484
vt 0.6703684 0.6703684
vt 0.6703684 0.6703684
vt 0.6703684 0.6703684
vt 1.000004 1.000004
vt 0.0001289696 0.0001289696
vt 0.0001289696 0.0001289696
vt 0.3096578 0.3096578
vt 0.3096578 0.3096578
vt 0.0001289696 0.0001289696
vt 0.3096578 0.3096578
vt 0.9920834 0.9920834
vt 1.000004 1.000004
vt 1.000004 1.000004
vt 0.6703684 0.6703684
vt 0.6350285 0.6350285
vt 0.9920834 0.9920834
vt 0.3096578 0.3096578
vt 0.0001289696 0.0001289696
vt 0.9920834 0.9920834
vt 0.9920834 0.9920834
vt 0.0001289696 0.0001289696
vt 0.0001289696 0.0001289696
vt 0.6350285 0.6350285
vt 0.0001289696 0.0001289696
vt 0.0001289696 0.0001289696
vt 0.0001289696 0.0001289696
vt 0.0001289696 0.0001289696
vt 0.0001289696 0.0001289696
vt 0.0001289696 0.0001289696
vt 0.0001289696 0.0001289696
vt 0.0001289696 0.0001289696
vt 0.1841402 0.1841402
vt 0.0001289696 0.0001289696
vt 0.9098267 0.9098267
vt 0.0001289696 0.0001289696
vt 0.0001289696 0.0001289696
vt 0.0001289696 0.0001289696
vt 0.0001289696 0.0001289696
vn -0.003623068 0.9238803 -0.3826643
vn -0.003623068 0.9238803 -0.3826643
vn -0.003623068 0.9238803 0.3826643
vn -0.003623068 0.9238803 0.3826643
vn -0.003623068 0.9238803 0.3826643
vn -0.003623068 0.9238803 -0.3826643
vn -0.003623068 0.3804213 -0.9248062
vn -0.003623068 0.3804213 -0.9248062
vn -0.003623068 -0.3804213 -0.9248062
vn -0.003623068 -0.3804213 -0.9248062
vn -0.003623068 0.3804213 -0.9248062
vn -0.003623068 -0.3804213 -0.9248062
vn -0.003623068 -0.9238803 -0.3826643
vn -0.003623068 -0.9238803 -0.3826643
vn -0.003623068 -0.7064967 0.707707
vn -0.003623068 -0.7064967 0.707707
vn -0.003623068 0.3804213 0.9248062
vn -0.003623068 0.3804213 0.9248062
vn -0.003623068 -0.7064967 0.707707
vn -0.003623068 0.3804213 0.9248062
vn -0.003623068 -0.9238803 -0.3826643
vn -0.003623068 -0.3804213 -0.9248062
vn -0.003623068 0.9238803 0.3826643
vn -0.003623068 0.9238803 -0.3826643
vn -0.003623068 0.9238803 0.3826643
vn -0.003623068 0.9238803 -0.3826643
vn -0.003623068 0.9238803 0.3826643
vn -0.003623068 0.9238803 -0.3826643
vn -0.003623068 0.9238803 0.3826643
vn -0.003623068 0.9238803 -0.3826643
vn -0.003623068 0.3804213 -0.9248062
vn -0.003623068 0.3804213 -0.9248062
vn -0.003623068 -0.3804213 -0.9248062
vn -0.003623068 -0.3804213 -0.9248062
vn -0.003623068 -0.3804213 -0.9248062
vn -0.003623068 0.3804213 -0.9248062
vn -0.003623068 -0.9238803 -0.3826643
vn -0.003623068 -0.9238803 -0.3826643
vn -0.003623068 -0.7064967 0.707707
vn -0.003623068 -0.7064967 0.707707
vn -0.003623068 -0.9238803 -0.3826643
vn -0.003623068 -0.7064967 0.707707
vn -0.003623068 0.3804213 0.9248062
vn -0.003623068 0.3804213 0.9248062
vn -0.003623068 0.3804213 0.9248062
vn -0.003623068 -0.3804213 -0.9248062
vn -0.003623068 0.9238803 0.3826643
vn -0.003623068 0.3804213 0.9248062
vn -0.003623068 -0.7064967 0.707707
vn -0.003623068 -0.9238803 -0.3826643
vn -0.003623068 0.3804213 -0.9248062
vn -0.003623068 0.3804213 -0.9248062
vn -0.003623068 -0.3804213 -0.9248062
vn -0.003623068 0.3804213 -0.9248062
vn -0.003623068 0.9238803 -0.3826643
vn -0.003623068 0.9238803 -0.3826643
vn -0.003623068 0.9238803 0.3826643
vn -0.003623068 0.3804213 0.9248062
vn -0.003623068 -0.9238803 -0.3826643
vn -0.003623068 -0.7064967 0.707707
vn -0.003623068 -0.9238803 -0.3826643
vn -0.003623068 -0.9238803 -0.3826643
vn -0.003623068 -0.7064967 0.707707
vn -0.003623068 -0.7064967 0.707707
vn -0.003623068 -0.3804213 -0.9248062
vn -0.003623068 0.3804213 0.9248062
vn -0.003623068 0.3804213 0.9248062
vn -0.003623068 0.9238803 0.3826643
vn -0.003623068 0.3804213 -0.9248062
vn -0.003623068 0.9238803 -0.3826643
g Lev9_TopSectionBannistersAndTrim_ref(Clone)_0
f 3/3/3 2/2/2 1/1/1
f 4/4/4 3/3/3 1/1/1
f 3/3/3 5/5/5 2/2/2
f 5/5/5 6/6/6 2/2/2
f 6/6/6 7/7/7 2/2/2
f 7/7/7 8/8/8 2/2/2
f 2/2/2 8/8/8 1/1/1
f 7/7/7 9/9/9 8/8/8
f 9/9/9 10/10/10 8/8/8
f 8/8/8 10/10/10 11/11/11
f 8/8/8 11/11/11 1/1/1
f 10/10/10 12/12/12 11/11/11
f 10/10/10 9/9/9 13/13/13
f 13/13/13 9/9/9 14/14/14
f 15/15/15 13/13/13 14/14/14
f 16/16/16 15/15/15 14/14/14
f 15/15/15 16/16/16 17/17/17
f 18/18/18 15/15/15 17/17/17
f 19/19/19 15/15/15 18/18/18
f 15/15/15 19/19/19 13/13/13
f 20/20/20 19/19/19 18/18/18
f 20/20/20 18/18/18 5/5/5
f 19/19/19 21/21/21 13/13/13
f 21/21/21 10/10/10 13/13/13
f 12/12/12 10/10/10 21/21/21
f 9/9/9 22/22/22 14/14/14
f 22/22/22 9/9/9 7/7/7
f 18/18/18 17/17/17 23/23/23
f 5/5/5 18/18/18 23/23/23
f 3/3/3 20/20/20 5/5/5
f 5/5/5 23/23/23 6/6/6
f 23/23/23 24/24/24 6/6/6
f 23/23/23 25/25/25 24/24/24
f 23/23/23 17/17/17 25/25/25
f 25/25/25 26/26/26 24/24/24
f 25/25/25 27/27/27 26/26/26
f 27/27/27 28/28/28 26/26/26
f 27/27/27 29/29/29 28/28/28
f 29/29/29 30/30/30 28/28/28
f 28/28/28 31/31/31 26/26/26
f 31/31/31 32/32/32 26/26/26
f 26/26/26 32/32/32 24/24/24
f 31/31/31 33/33/33 32/32/32
f 33/33/33 34/34/34 32/32/32
f 35/35/35 33/33/33 31/31/31
f 36/36/36 35/35/35 31/31/31
f 36/36/36 31/31/31 28/28/28
f 30/30/30 36/36/36 28/28/28
f 33/33/33 35/35/35 37/37/37
f 38/38/38 33/33/33 37/37/37
f 34/34/34 33/33/33 38/38/38
f 39/39/39 38/38/38 37/37/37
f 40/40/40 39/39/39 37/37/37
f 40/40/40 37/37/37 41/41/41
f 37/37/37 35/35/35 41/41/41
f 42/42/42 40/40/40 41/41/41
f 40/40/40 42/42/42 43/43/43
f 44/44/44 40/40/40 43/43/43
f 39/39/39 40/40/40 44/44/44
f 45/45/45 39/39/39 44/44/44
f 45/45/45 44/44/44 29/29/29
f 27/27/27 45/45/45 29/29/29
f 35/35/35 46/46/46 41/41/41
f 46/46/46 35/35/35 36/36/36
f 44/44/44 43/43/43 47/47/47
f 29/29/29 44/44/44 47/47/47
f 48/48/48 45/45/45 27/27/27
f 25/25/25 48/48/48 27/27/27
f 49/49/49 39/39/39 45/45/45
f 48/48/48 49/49/49 45/45/45
f 39/39/39 49/49/49 38/38/38
f 49/49/49 50/50/50 38/38/38
f 50/50/50 34/34/34 38/38/38
f 17/17/17 48/48/48 25/25/25
f 22/22/22 34/34/34 50/50/50
f 34/34/34 22/22/22 51/51/51
f 32/32/32 34/34/34 51/51/51
f 32/32/32 51/51/51 24/24/24
f 51/51/51 22/22/22 7/7/7
f 51/51/51 7/7/7 6/6/6
f 24/24/24 51/51/51 6/6/6
f 14/14/14 22/22/22 50/50/50
f 16/16/16 49/49/49 48/48/48
f 17/17/17 16/16/16 48/48/48
f 16/16/16 14/14/14 50/50/50
f 49/49/49 16/16/16 50/50/50
f 53/53/53 46/46/46 52/52/52
f 54/54/54 53/53/53 52/52/52
f 54/54/54 52/52/52 55/55/55
f 56/56/56 54/54/54 55/55/55
f 57/57/57 56/56/56 55/55/55
f 47/47/47 57/57/57 55/55/55
f 47/47/47 43/43/43 57/57/57
f 43/43/43 58/58/58 57/57/57
f 46/46/46 53/53/53 59/59/59
f 41/41/41 46/46/46 59/59/59
f 55/55/55 52/52/52 30/30/30
f 47/47/47 55/55/55 30/30/30
f 52/52/52 36/36/36 30/30/30
f 52/52/52 46/46/46 36/36/36
f 29/29/29 47/47/47 30/30/30
f 42/42/42 41/41/41 59/59/59
f 43/43/43 42/42/42 58/58/58
f 60/60/60 42/42/42 59/59/59
f 42/42/42 60/60/60 58/58/58
f 63/63/63 62/62/62 61/61/61
f 64/64/64 63/63/63 61/61/61
f 62/62/62 65/65/65 61/61/61
f 65/65/65 12/12/12 61/61/61
f 63/63/63 64/64/64 66/66/66
f 67/67/67 63/63/63 66/66/66
f 67/67/67 66/66/66 4/4/4
f 68/68/68 67/67/67 4/4/4
f 66/66/66 64/64/64 20/20/20
f 64/64/64 19/19/19 20/20/20
f 66/66/66 20/20/20 3/3/3
f 4/4/4 66/66/66 3/3/3
f 61/61/61 12/12/12 21/21/21
f 64/64/64 61/61/61 21/21/21
f 19/19/19 64/64/64 21/21/21
f 12/12/12 65/65/65 69/69/69
f 11/11/11 12/12/12 69/69/69
f 11/11/11 69/69/69 70/70/70
f 68/68/68 4/4/4 70/70/70
f 1/1/1 11/11/11 70/70/70
f 4/4/4 1/1/1 70/70/70
