g Lev9_StairsEndWallPart
v -17.32714 4.749864 -4.613053
v -17.32714 4.749864 -4.980001
v -17.32714 3.050605 -4.980001
v -17.32714 3.050605 -4.613053
v -17.32714 1.951598 -4.980001
v -17.32714 1.951598 -4.613053
v -17.32714 6.5001 -4.613053
v -17.32714 6.5001 -4.980001
v -17.32714 8.500175 -4.613053
v -17.32714 8.500175 -4.980001
v -17.32714 10.05017 -4.613053
v -17.32714 10.05017 -4.980001
v -17.32714 1.151568 -4.980001
v -17.32714 1.151568 -4.613053
v -17.32714 0.2013607 -4.980001
v -17.32714 0.2013607 -4.613053
v -17.32714 -0.7502241 -4.980001
v -17.32714 -0.7502241 -4.613053
v -17.32714 1.951598 -3.917735
v -17.32714 1.151568 -3.917735
v -17.32714 1.951598 -3.499809
v -17.32714 1.151568 -3.499809
v -17.32714 3.050605 -3.499809
v -17.32714 3.050605 -3.917735
v -17.32714 0.2013607 -3.917735
v -17.32714 0.2013607 -3.499809
v -17.32714 -0.7502241 -3.917735
v -17.32714 -0.7502241 -3.499809
v -17.32714 4.749864 -3.499809
v -17.32714 4.749864 -3.917735
v -17.32714 6.5001 -3.499809
v -17.32714 6.5001 -3.917735
v -17.32714 8.500175 -3.499809
v -17.32714 8.500175 -3.917735
v -17.32714 10.05017 -3.499809
v -17.32714 10.05017 -3.917735
v -23.16983 10.05017 -4.980001
v -25.11755 10.05017 -4.980001
v -25.11755 8.500175 -4.980001
v -23.16983 8.500175 -4.980001
v -25.11755 6.5001 -4.980001
v -23.16983 6.5001 -4.980001
v -25.11755 4.749864 -4.980001
v -23.16983 4.749864 -4.980001
v -25.11755 3.050605 -4.980001
v -23.16983 3.050605 -4.980001
v -25.11755 1.951598 -4.980001
v -23.16983 1.951598 -4.980001
v -25.11755 1.151568 -4.980001
v -23.16983 1.151568 -4.980001
v -25.11755 0.2013607 -4.980001
v -23.16983 0.2013607 -4.980001
v -25.11755 -0.7502241 -4.980001
v -23.16983 -0.7502241 -4.980001
v -21.22211 3.050605 -4.980001
v -21.22211 1.951598 -4.980001
v -19.27485 3.050605 -4.980001
v -19.27485 1.951598 -4.980001
v -17.32714 3.050605 -4.980001
v -17.32714 1.951598 -4.980001
v -21.22211 0.2013607 -4.980001
v -21.22211 -0.7502241 -4.980001
v -19.27485 0.2013607 -4.980001
v -19.27485 -0.7502241 -4.980001
v -17.32714 0.2013607 -4.980001
v -17.32714 -0.7502241 -4.980001
v -19.27485 1.151568 -4.980001
v -17.32714 1.151568 -4.980001
v -21.22211 1.151568 -4.980001
v -17.32714 4.749864 -4.980001
v -19.27485 4.749864 -4.980001
v -17.32714 6.5001 -4.980001
v -19.27485 6.5001 -4.980001
v -21.22211 4.749864 -4.980001
v -21.22211 6.5001 -4.980001
v -17.32714 8.500175 -4.980001
v -19.27485 8.500175 -4.980001
v -21.22211 8.500175 -4.980001
v -17.32714 10.05017 -4.980001
v -19.27485 10.05017 -4.980001
v -21.22211 10.05017 -4.980001
v -16.25017 0.2013607 -3.499809
v -17.32714 0.2013607 -3.499809
v -17.32714 -0.7502241 -3.499809
v -16.25017 -0.7502241 -3.499809
v -16.25017 1.151568 -3.499809
v -17.32714 1.151568 -3.499809
v -16.25017 1.951598 -3.499809
v -17.32714 1.951598 -3.499809
v -16.25017 3.050605 -3.499809
v -17.32714 3.050605 -3.499809
v -16.25017 4.749864 -3.499809
v -17.32714 4.749864 -3.499809
v -16.25017 6.5001 -3.499809
v -17.32714 6.5001 -3.499809
v -16.25017 8.500175 -3.499809
v -17.32714 8.500175 -3.499809
v -16.25017 10.05017 -3.499809
v -17.32714 10.05017 -3.499809
vt 0.7442149 0.5047948
vt 0.8389447 0.5047948
vt 0.8389447 0.0869453
vt 0.7442149 0.0869453
vt 0.8389447 -0.1829699
vt 0.7442149 -0.1829699
vt 0.7442149 0.9349723
vt 0.8389447 0.9349723
vt 0.7442149 1.42614
vt 0.8389447 1.42614
vt 0.7442149 1.807006
vt 0.8389447 1.807006
vt 0.8389447 -0.3795668
vt 0.7442149 -0.3795668
vt 0.8389447 -0.6131474
vt 0.7442149 -0.6131474
vt 0.8389447 -0.8467278
vt 0.7442149 -0.8467278
vt 0.5729225 -0.1829699
vt 0.5729225 -0.3795668
vt 0.4704067 -0.1829699
vt 0.4704067 -0.3795668
vt 0.4704067 0.0869453
vt 0.5729225 0.0869453
vt 0.5729225 -0.6131474
vt 0.4704067 -0.6131474
vt 0.5729225 -0.8467278
vt 0.4704067 -0.8467278
vt 0.4704067 0.5047948
vt 0.5729225 0.5047948
vt 0.4704067 0.9349723
vt 0.5729225 0.9349723
vt 0.4704067 1.42614
vt 0.5729225 1.42614
vt 0.4704067 1.807006
vt 0.5729225 1.807006
vt 1.269771 1.805708
vt 1.748611 1.805708
vt 1.748611 1.424194
vt 1.269771 1.424194
vt 1.748611 0.9323769
vt 1.269771 0.9323769
vt 1.748611 0.5021995
vt 1.269771 0.5021995
vt 1.748611 0.08434993
vt 1.269771 0.08434993
vt 1.748611 -0.1855653
vt 1.269771 -0.1855653
vt 1.748611 -0.3821622
vt 1.269771 -0.3821622
vt 1.748611 -0.6157427
vt 1.269771 -0.6157427
vt 1.748611 -0.849972
vt 1.269771 -0.849972
vt 0.790931 0.08434993
vt 0.790931 -0.1855653
vt 0.3120909 0.08434993
vt 0.3120909 -0.1855653
vt -0.1667491 0.08434993
vt -0.1667491 -0.1855653
vt 0.790931 -0.6157427
vt 0.790931 -0.849972
vt 0.3120909 -0.6157427
vt 0.3120909 -0.849972
vt -0.1667491 -0.6157427
vt -0.1667491 -0.849972
vt 0.3120909 -0.3821622
vt -0.1667491 -0.3821622
vt 0.790931 -0.3821622
vt -0.1667491 0.5021995
vt 0.3120909 0.5021995
vt -0.1667491 0.9323769
vt 0.3120909 0.9323769
vt 0.790931 0.5021995
vt 0.790931 0.9323769
vt -0.1667491 1.424194
vt 0.3120909 1.424194
vt 0.790931 1.424194
vt -0.1667491 1.805708
vt 0.3120909 1.805708
vt 0.790931 1.805708
vt -0.4314736 -0.6157427
vt -0.1667491 -0.6157427
vt -0.1667491 -0.849972
vt -0.4314736 -0.849972
vt -0.4314736 -0.3821622
vt -0.1667491 -0.3821622
vt -0.4314736 -0.1855653
vt -0.1667491 -0.1855653
vt -0.4314736 0.08434993
vt -0.1667491 0.08434993
vt -0.4314736 0.5021995
vt -0.1667491 0.5021995
vt -0.4314736 0.9323769
vt -0.1667491 0.9323769
vt -0.4314736 1.424194
vt -0.1667491 1.424194
vt -0.4314736 1.805708
vt -0.1667491 1.805708
vn 1 0 0
vn 1 0 0
vn 1 0 0
vn 1 0 0
vn 1 0 0
vn 1 0 0
vn 1 0 0
vn 1 0 0
vn 1 0 0
vn 1 0 0
vn 1 0 0
vn 1 0 0
vn 1 0 0
vn 1 0 0
vn 1 0 0
vn 1 0 0
vn 1 0 0
vn 1 0 0
vn 1 0 0
vn 1 0 0
vn 1 0 0
vn 1 0 0
vn 1 0 0
vn 1 0 0
vn 1 0 0
vn 1 0 0
vn 1 0 0
vn 1 0 0
vn 1 0 0
vn 1 0 0
vn 1 0 0
vn 1 0 0
vn 1 0 0
vn 1 0 0
vn 1 0 0
vn 1 0 0
vn 0 0 -1
vn 0 0 -1
vn 0 0 -1
vn 0 0 -1
vn 0 0 -1
vn 0 0 -1
vn 0 0 -1
vn 0 0 -1
vn 0 0 -1
vn 0 0 -1
vn 0 0 -1
vn 0 0 -1
vn 0 0 -1
vn 0 0 -1
vn 0 0 -1
vn 0 0 -1
vn 0 0 -1
vn 0 0 -1
vn 0 0 -1
vn 0 0 -1
vn 0 0 -1
vn 0 0 -1
vn 0 0 -1
vn 0 0 -1
vn 0 0 -1
vn 0 0 -1
vn 0 0 -1
vn 0 0 -1
vn 0 0 -1
vn 0 0 -1
vn 0 0 -1
vn 0 0 -1
vn 0 0 -1
vn 0 0 -1
vn 0 0 -1
vn 0 0 -1
vn 0 0 -1
vn 0 0 -1
vn 0 0 -1
vn 0 0 -1
vn 0 0 -1
vn 0 0 -1
vn 0 0 -1
vn 0 0 -1
vn 0 0 -1
vn 0 0 -1
vn 0 0 -1
vn 0 0 -1
vn 0 0 -1
vn 0 0 -1
vn 0 0 -1
vn 0 0 -1
vn 0 0 -1
vn 0 0 -1
vn 0 0 -1
vn 0 0 -1
vn 0 0 -1
vn 0 0 -1
vn 0 0 -1
vn 0 0 -1
vn 0 0 -1
vn 0 0 -1
vn 0 0 -1
g Lev9_StairsEndWallPart_0
f 3/3/3 2/2/2 1/1/1
f 4/4/4 3/3/3 1/1/1
f 5/5/5 3/3/3 4/4/4
f 6/6/6 5/5/5 4/4/4
f 1/1/1 2/2/2 7/7/7
f 2/2/2 8/8/8 7/7/7
f 7/7/7 8/8/8 9/9/9
f 8/8/8 10/10/10 9/9/9
f 9/9/9 10/10/10 11/11/11
f 10/10/10 12/12/12 11/11/11
f 13/13/13 5/5/5 6/6/6
f 14/14/14 13/13/13 6/6/6
f 15/15/15 13/13/13 14/14/14
f 16/16/16 15/15/15 14/14/14
f 17/17/17 15/15/15 16/16/16
f 18/18/18 17/17/17 16/16/16
f 14/14/14 6/6/6 19/19/19
f 20/20/20 14/14/14 19/19/19
f 16/16/16 14/14/14 20/20/20
f 20/20/20 19/19/19 21/21/21
f 22/22/22 20/20/20 21/21/21
f 21/21/21 19/19/19 23/23/23
f 19/19/19 24/24/24 23/23/23
f 25/25/25 20/20/20 22/22/22
f 18/18/18 16/16/16 25/25/25
f 25/25/25 16/16/16 20/20/20
f 26/26/26 25/25/25 22/22/22
f 27/27/27 25/25/25 26/26/26
f 27/27/27 18/18/18 25/25/25
f 28/28/28 27/27/27 26/26/26
f 23/23/23 24/24/24 29/29/29
f 24/24/24 30/30/30 29/29/29
f 29/29/29 30/30/30 31/31/31
f 30/30/30 32/32/32 31/31/31
f 31/31/31 32/32/32 33/33/33
f 32/32/32 34/34/34 33/33/33
f 33/33/33 34/34/34 35/35/35
f 34/34/34 36/36/36 35/35/35
f 30/30/30 1/1/1 32/32/32
f 1/1/1 7/7/7 32/32/32
f 32/32/32 7/7/7 34/34/34
f 7/7/7 9/9/9 34/34/34
f 34/34/34 9/9/9 36/36/36
f 9/9/9 11/11/11 36/36/36
f 4/4/4 1/1/1 30/30/30
f 24/24/24 4/4/4 30/30/30
f 6/6/6 4/4/4 24/24/24
f 19/19/19 6/6/6 24/24/24
f 39/39/39 38/38/38 37/37/37
f 40/40/40 39/39/39 37/37/37
f 41/41/41 39/39/39 40/40/40
f 42/42/42 41/41/41 40/40/40
f 43/43/43 41/41/41 42/42/42
f 44/44/44 43/43/43 42/42/42
f 45/45/45 43/43/43 44/44/44
f 46/46/46 45/45/45 44/44/44
f 47/47/47 45/45/45 46/46/46
f 48/48/48 47/47/47 46/46/46
f 49/49/49 47/47/47 48/48/48
f 50/50/50 49/49/49 48/48/48
f 51/51/51 49/49/49 50/50/50
f 52/52/52 51/51/51 50/50/50
f 53/53/53 51/51/51 52/52/52
f 54/54/54 53/53/53 52/52/52
f 48/48/48 46/46/46 55/55/55
f 56/56/56 48/48/48 55/55/55
f 50/50/50 48/48/48 56/56/56
f 56/56/56 55/55/55 57/57/57
f 58/58/58 56/56/56 57/57/57
f 58/58/58 57/57/57 59/59/59
f 60/60/60 58/58/58 59/59/59
f 54/54/54 52/52/52 61/61/61
f 62/62/62 54/54/54 61/61/61
f 62/62/62 61/61/61 63/63/63
f 64/64/64 62/62/62 63/63/63
f 64/64/64 63/63/63 65/65/65
f 66/66/66 64/64/64 65/65/65
f 67/67/67 58/58/58 60/60/60
f 63/63/63 61/61/61 67/67/67
f 68/68/68 67/67/67 60/60/60
f 63/63/63 67/67/67 68/68/68
f 65/65/65 63/63/63 68/68/68
f 69/69/69 56/56/56 58/58/58
f 67/67/67 69/69/69 58/58/58
f 61/61/61 69/69/69 67/67/67
f 69/69/69 50/50/50 56/56/56
f 59/59/59 57/57/57 70/70/70
f 57/57/57 71/71/71 70/70/70
f 70/70/70 71/71/71 72/72/72
f 71/71/71 73/73/73 72/72/72
f 71/71/71 74/74/74 73/73/73
f 74/74/74 75/75/75 73/73/73
f 74/74/74 44/44/44 75/75/75
f 44/44/44 42/42/42 75/75/75
f 72/72/72 73/73/73 76/76/76
f 73/73/73 77/77/77 76/76/76
f 73/73/73 75/75/75 77/77/77
f 75/75/75 78/78/78 77/77/77
f 75/75/75 42/42/42 78/78/78
f 42/42/42 40/40/40 78/78/78
f 55/55/55 74/74/74 71/71/71
f 57/57/57 55/55/55 71/71/71
f 46/46/46 44/44/44 74/74/74
f 55/55/55 46/46/46 74/74/74
f 76/76/76 77/77/77 79/79/79
f 77/77/77 80/80/80 79/79/79
f 77/77/77 78/78/78 80/80/80
f 78/78/78 81/81/81 80/80/80
f 78/78/78 40/40/40 81/81/81
f 40/40/40 37/37/37 81/81/81
f 52/52/52 50/50/50 69/69/69
f 61/61/61 52/52/52 69/69/69
f 84/84/84 83/83/83 82/82/82
f 85/85/85 84/84/84 82/82/82
f 82/82/82 83/83/83 86/86/86
f 83/83/83 87/87/87 86/86/86
f 86/86/86 87/87/87 88/88/88
f 87/87/87 89/89/89 88/88/88
f 88/88/88 89/89/89 90/90/90
f 89/89/89 91/91/91 90/90/90
f 90/90/90 91/91/91 92/92/92
f 91/91/91 93/93/93 92/92/92
f 92/92/92 93/93/93 94/94/94
f 93/93/93 95/95/95 94/94/94
f 94/94/94 95/95/95 96/96/96
f 95/95/95 97/97/97 96/96/96
f 96/96/96 97/97/97 98/98/98
f 97/97/97 99/99/99 98/98/98
