g Level10--BGObjects--tiger_ThroneRearWall
v 0 8.750057 5
v 0 10 5
v 0 10 3.733349
v 0 8.750057 3.733349
v 0 7.500114 5
v 0 10 2.466697
v 0 7.500114 3.733349
v 0 6 5
v 0 8.750057 2.466697
v 0 10 1.200046
v 0 6 3.733349
v 0 4.500114 5
v 0 7.500114 2.466697
v 0 8.750057 1.200046
v 0 4.500114 3.733349
v 0 3 5
v 0 6 2.466697
v 0 3 3.733349
v 0 1.500114 5
v 0 8.750057 0
v 0 10 0
v 0 7.500114 1.200046
v 0 7.500114 0
v 0 6 1.200046
v 0 7.500114 -1.200046
v 0 4.500114 2.466697
v 0 4.500114 1.200046
v 0 8.750057 -1.200046
v 0 10 -1.200046
v 0 10 -2.466697
v 0 3 2.466697
v 0 3 1.200046
v 0 8.750057 -2.466697
v 0 10 -3.733349
v 0 1.500114 3.733349
v 0 0 5
v 0 0 3.733349
v 0 1.500114 2.466697
v 0 1.500114 1.200046
v 0 0 2.466697
v 0 0 1.200046
v 0 7.500114 -2.466697
v 0 6 -1.200046
v 0 8.750057 -3.733349
v 0 10 -5
v 0 8.750057 -5
v 0 7.500114 -3.733349
v 0 7.500114 -5
v 0 6 -2.466697
v 0 4.500114 -1.200046
v 0 6 -3.733349
v 0 6 -5
v 0 4.500114 -2.466697
v 0 3 -1.200046
v 0 4.500114 -3.733349
v 0 4.500114 -5
v 0 3 -2.466697
v 0 1.500114 -1.200046
v 0 3 -3.733349
v 0 3 -5
v 0 1.500114 -2.466697
v 0 0 -1.200046
v 0 0 -2.466697
v 0 1.500114 -3.733349
v 0 1.500114 -5
v 0 0 -3.733349
v 0 0 -5
vn 1 0 0
vn 1 0 0
vn 1 0 0
vn 1 0 0
vn 1 0 0
vn 1 0 0
vn 1 0 0
vn 1 0 0
vn 1 0 0
vn 1 0 0
vn 1 0 0
vn 1 0 0
vn 1 0 0
vn 1 0 0
vn 1 0 0
vn 1 0 0
vn 1 0 0
vn 1 0 0
vn 1 0 0
vn 1 0 0
vn 1 0 0
vn 1 0 0
vn 1 0 0
vn 1 0 0
vn 1 0 0
vn 1 0 0
vn 1 0 0
vn 1 0 0
vn 1 0 0
vn 1 0 0
vn 1 0 0
vn 1 0 0
vn 1 0 0
vn 1 0 0
vn 1 0 0
vn 1 0 0
vn 1 0 0
vn 1 0 0
vn 1 0 0
vn 1 0 0
vn 1 0 0
vn 1 0 0
vn 1 0 0
vn 1 0 0
vn 1 0 0
vn 1 0 0
vn 1 0 0
vn 1 0 0
vn 1 0 0
vn 1 0 0
vn 1 0 0
vn 1 0 0
vn 1 0 0
vn 1 0 0
vn 1 0 0
vn 1 0 0
vn 1 0 0
vn 1 0 0
vn 1 0 0
vn 1 0 0
vn 1 0 0
vn 1 0 0
vn 1 0 0
vn 1 0 0
vn 1 0 0
vn 1 0 0
vn 1 0 0
g Level10--BGObjects--tiger_ThroneRearWall_0
f 3/3/3 2/2/2 1/1/1
f 4/4/4 3/3/3 1/1/1
f 4/4/4 1/1/1 5/5/5
f 6/6/6 3/3/3 4/4/4
f 7/7/7 4/4/4 5/5/5
f 7/7/7 5/5/5 8/8/8
f 9/9/9 6/6/6 4/4/4
f 9/9/9 4/4/4 7/7/7
f 10/10/10 6/6/6 9/9/9
f 11/11/11 7/7/7 8/8/8
f 11/11/11 8/8/8 12/12/12
f 13/13/13 9/9/9 7/7/7
f 13/13/13 7/7/7 11/11/11
f 14/14/14 10/10/10 9/9/9
f 14/14/14 9/9/9 13/13/13
f 15/15/15 11/11/11 12/12/12
f 15/15/15 12/12/12 16/16/16
f 17/17/17 13/13/13 11/11/11
f 17/17/17 11/11/11 15/15/15
f 18/18/18 15/15/15 16/16/16
f 18/18/18 16/16/16 19/19/19
f 14/14/14 20/20/20 10/10/10
f 20/20/20 21/21/21 10/10/10
f 22/22/22 14/14/14 13/13/13
f 22/22/22 13/13/13 17/17/17
f 22/22/22 23/23/23 14/14/14
f 23/23/23 20/20/20 14/14/14
f 24/24/24 22/22/22 17/17/17
f 20/20/20 23/23/23 25/25/25
f 26/26/26 17/17/17 15/15/15
f 24/24/24 17/17/17 26/26/26
f 26/26/26 15/15/15 18/18/18
f 27/27/27 24/24/24 26/26/26
f 21/21/21 20/20/20 28/28/28
f 28/28/28 20/20/20 25/25/25
f 29/29/29 21/21/21 28/28/28
f 30/30/30 29/29/29 28/28/28
f 27/27/27 26/26/26 31/31/31
f 31/31/31 26/26/26 18/18/18
f 32/32/32 27/27/27 31/31/31
f 33/33/33 30/30/30 28/28/28
f 33/33/33 28/28/28 25/25/25
f 34/34/34 30/30/30 33/33/33
f 31/31/31 18/18/18 35/35/35
f 35/35/35 18/18/18 19/19/19
f 35/35/35 19/19/19 36/36/36
f 37/37/37 35/35/35 36/36/36
f 32/32/32 31/31/31 38/38/38
f 38/38/38 31/31/31 35/35/35
f 38/38/38 35/35/35 37/37/37
f 39/39/39 32/32/32 38/38/38
f 40/40/40 38/38/38 37/37/37
f 39/39/39 38/38/38 40/40/40
f 41/41/41 39/39/39 40/40/40
f 42/42/42 33/33/33 25/25/25
f 42/42/42 25/25/25 43/43/43
f 44/44/44 34/34/34 33/33/33
f 44/44/44 33/33/33 42/42/42
f 45/45/45 34/34/34 44/44/44
f 46/46/46 45/45/45 44/44/44
f 46/46/46 44/44/44 47/47/47
f 47/47/47 44/44/44 42/42/42
f 48/48/48 46/46/46 47/47/47
f 49/49/49 42/42/42 43/43/43
f 47/47/47 42/42/42 49/49/49
f 49/49/49 43/43/43 50/50/50
f 48/48/48 47/47/47 51/51/51
f 51/51/51 47/47/47 49/49/49
f 52/52/52 48/48/48 51/51/51
f 53/53/53 49/49/49 50/50/50
f 51/51/51 49/49/49 53/53/53
f 53/53/53 50/50/50 54/54/54
f 52/52/52 51/51/51 55/55/55
f 55/55/55 51/51/51 53/53/53
f 56/56/56 52/52/52 55/55/55
f 57/57/57 53/53/53 54/54/54
f 55/55/55 53/53/53 57/57/57
f 57/57/57 54/54/54 58/58/58
f 56/56/56 55/55/55 59/59/59
f 59/59/59 55/55/55 57/57/57
f 60/60/60 56/56/56 59/59/59
f 61/61/61 57/57/57 58/58/58
f 59/59/59 57/57/57 61/61/61
f 61/61/61 58/58/58 62/62/62
f 63/63/63 61/61/61 62/62/62
f 60/60/60 59/59/59 64/64/64
f 64/64/64 59/59/59 61/61/61
f 64/64/64 61/61/61 63/63/63
f 65/65/65 60/60/60 64/64/64
f 66/66/66 64/64/64 63/63/63
f 65/65/65 64/64/64 66/66/66
f 67/67/67 65/65/65 66/66/66
