g LibraryPillarFoot
v -1.305917 -1.990795E-05 1.305917
v 1.305917 -1.990795E-05 -1.305917
v -1.305917 -1.990795E-05 -1.305917
v -1.305917 0.01755571 -1.305917
v 1.305917 0.01755571 -1.305917
v 1.305917 -1.990795E-05 1.305917
v -1.305917 0.01755571 1.305917
v 1.305917 0.01755571 1.305917
v -1.305917 0.1404257 -1.305917
v 1.305917 0.1404257 -1.305917
v 1.305917 0.1404257 1.305917
v -1.305917 0.1404257 1.305917
v 1.305917 0.1614686 -1.305917
v -1.305917 0.1614686 -1.305917
v -1.305917 0.1614686 1.305917
v 1.305917 0.1614686 1.305917
v -1.237089 0.2303364 -1.237089
v 1.237089 0.2303364 -1.237089
v 1.237089 0.2303364 1.237089
v -1.237089 0.2303364 1.237089
v -1.217401 0.2499845 -1.217401
v -1.217401 0.2499845 1.217401
v 1.217401 0.2499845 -1.217401
v 1.217401 0.2499845 1.217401
vn -0.5765867 -0.5743109 0.5811324
vn 0.5743109 -0.5743109 -0.5833815
vn -0.5765867 -0.5743109 -0.5811324
vn -0.7093825 0.001137853 -0.7048228
vn 0.7071068 0.001137853 -0.7071059
vn 0.5743109 -0.5743109 0.5833815
vn -0.7093825 0.001137853 0.7048228
vn 0.7071068 0.001137853 0.7071059
vn -0.7093825 0.001137853 -0.7048228
vn 0.7071068 0.001137853 -0.7071059
vn 0.7071068 0.001137853 0.7071059
vn -0.7093825 0.001137853 0.7048228
vn 0.6501942 0.3932019 -0.6501075
vn -0.6524699 0.3932019 -0.6478235
vn -0.6524699 0.3932019 0.6478235
vn 0.6501942 0.3932019 0.6501075
vn -0.405849 0.8168839 -0.4098625
vn 0.409897 0.8168839 -0.4058142
vn 0.409897 0.8168839 0.4058142
vn -0.405849 0.8168839 0.4098625
vn -0.2983477 0.9054145 -0.3020153
vn -0.2983477 0.9054145 0.3020153
vn 0.3023956 0.9054145 -0.2979622
vn 0.3023956 0.9054145 0.2979622
g LibraryPillarFoot_0
f 3/3/3 2/2/2 1/1/1
f 4/4/4 3/3/3 1/1/1
f 2/2/2 3/3/3 5/5/5
f 3/3/3 4/4/4 5/5/5
f 2/2/2 6/6/6 1/1/1
f 1/1/1 6/6/6 7/7/7
f 7/7/7 4/4/4 1/1/1
f 8/8/8 6/6/6 2/2/2
f 5/5/5 8/8/8 2/2/2
f 6/6/6 8/8/8 7/7/7
f 9/9/9 4/4/4 7/7/7
f 5/5/5 4/4/4 10/10/10
f 4/4/4 9/9/9 10/10/10
f 11/11/11 8/8/8 5/5/5
f 10/10/10 11/11/11 5/5/5
f 7/7/7 8/8/8 12/12/12
f 12/12/12 9/9/9 7/7/7
f 8/8/8 11/11/11 12/12/12
f 11/11/11 10/10/10 13/13/13
f 10/10/10 9/9/9 14/14/14
f 13/13/13 10/10/10 14/14/14
f 9/9/9 12/12/12 15/15/15
f 14/14/14 9/9/9 15/15/15
f 12/12/12 11/11/11 16/16/16
f 16/16/16 11/11/11 13/13/13
f 15/15/15 12/12/12 16/16/16
f 14/14/14 15/15/15 17/17/17
f 13/13/13 14/14/14 18/18/18
f 14/14/14 17/17/17 18/18/18
f 16/16/16 13/13/13 19/19/19
f 13/13/13 18/18/18 19/19/19
f 15/15/15 16/16/16 20/20/20
f 15/15/15 20/20/20 17/17/17
f 16/16/16 19/19/19 20/20/20
f 18/18/18 17/17/17 21/21/21
f 17/17/17 20/20/20 22/22/22
f 21/21/21 17/17/17 22/22/22
f 23/23/23 18/18/18 21/21/21
f 19/19/19 18/18/18 23/23/23
f 23/23/23 21/21/21 22/22/22
f 20/20/20 19/19/19 24/24/24
f 22/22/22 20/20/20 24/24/24
f 24/24/24 23/23/23 22/22/22
f 24/24/24 19/19/19 23/23/23
