g libraryStairsPillarBases_refl_BAKED
v -0.2993517 0.2999744 0.2993517
v -0.2993517 0.2999744 0.498879
v -0.498879 0.2999744 0.498879
v -0.498879 0.2999744 0.2993517
v -0.5411515 0.2499595 0.5411515
v -0.3247151 0.2499595 0.5411515
v -0.3247151 0.02497911 0.5411515
v -0.5411515 0.02497911 0.5411515
v -0.5200601 -2.813339E-05 0.5200601
v -0.5200601 -2.813339E-05 0.3119888
v -0.5411515 0.02497911 0.3247151
v -0.3119888 -2.813339E-05 0.5200601
v -0.1081901 0.02497911 0.5411515
v -0.1040072 -2.813339E-05 0.5200601
v 0.1082468 0.02497911 0.5411515
v 0.1039748 -2.813339E-05 0.5200601
v 0.3246832 0.02497911 0.5411515
v 0.3120456 -2.813339E-05 0.5200601
v 0.5411196 0.02497911 0.5411515
v 0.5200276 -2.813339E-05 0.5200601
v 0.3246832 0.2499595 0.5411515
v 0.5411196 0.2499595 0.5411515
v 0.5411196 0.02497911 0.3247151
v 0.5411196 0.2499595 0.3247151
v 0.4988465 0.2999744 0.2993517
v 0.4988465 0.2999744 0.498879
v 0.2993193 0.2999744 0.498879
v 0.1082468 0.2499595 0.5411515
v 0.099792 0.2999744 0.498879
v -0.1081901 0.2499595 0.5411515
v -0.09973526 0.2999744 0.498879
v 0.2993193 0.2999744 0.2993517
v 0.099792 0.2999744 0.2993517
v -0.09973526 0.2999744 0.2993517
v -0.09973526 0.2999744 0.09973526
v -0.2993517 0.2999744 0.09973526
v -0.09973526 0.2999744 -0.099792
v -0.2993517 0.2999744 -0.099792
v -0.09973526 0.2999744 -0.2993193
v -0.2993517 0.2999744 -0.2993193
v -0.09973526 0.2999744 -0.4988465
v -0.2993517 0.2999744 -0.4988465
v -0.1081901 0.2499595 -0.5411196
v -0.3247151 0.2499595 -0.5411196
v -0.498879 0.2999744 -0.4988465
v -0.5411515 0.2499595 -0.5411196
v -0.498879 0.2999744 -0.2993193
v -0.5411515 0.2499595 -0.3246832
v -0.5411515 0.02497911 -0.3246832
v -0.5411515 0.02497911 -0.5411196
v 0.1082468 0.2499595 -0.5411196
v 0.099792 0.2999744 -0.4988465
v 0.3246832 0.2499595 -0.5411196
v 0.2993193 0.2999744 -0.4988465
v 0.5411196 0.2499595 -0.5411196
v 0.3246832 0.02497911 -0.5411196
v 0.5411196 0.02497911 -0.5411196
v 0.4988465 0.2999744 -0.4988465
v 0.5200276 -2.813339E-05 -0.5200276
v 0.5200276 -2.813339E-05 -0.3120456
v 0.5411196 0.02497911 -0.3246832
v 0.3120456 -2.813339E-05 -0.5200276
v 0.1082468 0.02497911 -0.5411196
v 0.1039748 -2.813339E-05 -0.5200276
v -0.1081901 0.02497911 -0.5411196
v -0.1040072 -2.813339E-05 -0.5200276
v -0.3247151 0.02497911 -0.5411196
v -0.3119888 -2.813339E-05 -0.5200276
v -0.5200601 -2.813339E-05 -0.5200276
v 0.5200276 -2.813339E-05 -0.1039748
v 0.5411196 0.02497911 -0.1082468
v 0.5200276 -2.813339E-05 0.1040072
v 0.5411196 0.02497911 0.1081901
v 0.5200276 -2.813339E-05 0.3119888
v -0.5200601 -2.813339E-05 -0.3120456
v -0.5411515 0.02497911 -0.1082468
v -0.5200601 -2.813339E-05 -0.1039748
v -0.5411515 0.02497911 0.1081901
v -0.5200601 -2.813339E-05 0.1040072
v -0.5411515 0.2499595 0.1081901
v -0.5411515 0.2499595 0.3247151
v -0.5411515 0.2499595 -0.1082468
v -0.498879 0.2999744 0.09973526
v -0.498879 0.2999744 -0.099792
v -0.2993517 0.2999744 -4.45068
v -0.2993517 0.2999744 -4.251153
v -0.498879 0.2999744 -4.251153
v -0.498879 0.2999744 -4.45068
v -0.5411515 0.2499595 -4.20888
v -0.3247151 0.2499595 -4.20888
v -0.3247151 0.02497911 -4.20888
v -0.5411515 0.02497911 -4.20888
v -0.5200601 -2.813339E-05 -4.229972
v -0.5200601 -2.813339E-05 -4.437954
v -0.5411515 0.02497911 -4.425317
v -0.3119888 -2.813339E-05 -4.229972
v -0.1081901 0.02497911 -4.20888
v -0.1040072 -2.813339E-05 -4.229972
v 0.1082468 0.02497911 -4.20888
v 0.1039748 -2.813339E-05 -4.229972
v 0.3246832 0.02497911 -4.20888
v 0.3120456 -2.813339E-05 -4.229972
v 0.5411196 0.02497911 -4.20888
v 0.5200276 -2.813339E-05 -4.229972
v 0.3246832 0.2499595 -4.20888
v 0.5411196 0.2499595 -4.20888
v 0.5411196 0.02497911 -4.425317
v 0.5411196 0.2499595 -4.425317
v 0.4988465 0.2999744 -4.45068
v 0.4988465 0.2999744 -4.251153
v 0.2993193 0.2999744 -4.251153
v 0.1082468 0.2499595 -4.20888
v 0.099792 0.2999744 -4.251153
v -0.1081901 0.2499595 -4.20888
v -0.09973526 0.2999744 -4.251153
v 0.2993193 0.2999744 -4.45068
v 0.099792 0.2999744 -4.45068
v -0.09973526 0.2999744 -4.45068
v -0.09973526 0.2999744 -4.650208
v -0.2993517 0.2999744 -4.650208
v -0.09973526 0.2999744 -4.849735
v -0.2993517 0.2999744 -4.849735
v -0.09973526 0.2999744 -5.049352
v -0.2993517 0.2999744 -5.049352
v -0.09973526 0.2999744 -5.248879
v -0.2993517 0.2999744 -5.248879
v -0.1081901 0.2499595 -5.291152
v -0.3247151 0.2499595 -5.291152
v -0.498879 0.2999744 -5.248879
v -0.5411515 0.2499595 -5.291152
v -0.498879 0.2999744 -5.049352
v -0.5411515 0.2499595 -5.074715
v -0.5411515 0.02497911 -5.074715
v -0.5411515 0.02497911 -5.291152
v 0.1082468 0.2499595 -5.291152
v 0.099792 0.2999744 -5.248879
v 0.3246832 0.2499595 -5.291152
v 0.2993193 0.2999744 -5.248879
v 0.5411196 0.2499595 -5.291152
v 0.3246832 0.02497911 -5.291152
v 0.5411196 0.02497911 -5.291152
v 0.4988465 0.2999744 -5.248879
v 0.5200276 -2.813339E-05 -5.27006
v 0.5200276 -2.813339E-05 -5.061989
v 0.5411196 0.02497911 -5.074715
v 0.3120456 -2.813339E-05 -5.27006
v 0.1082468 0.02497911 -5.291152
v 0.1039748 -2.813339E-05 -5.27006
v -0.1081901 0.02497911 -5.291152
v -0.1040072 -2.813339E-05 -5.27006
v -0.3247151 0.02497911 -5.291152
v -0.3119888 -2.813339E-05 -5.27006
v -0.5200601 -2.813339E-05 -5.27006
v 0.5200276 -2.813339E-05 -4.854007
v 0.5411196 0.02497911 -4.85819
v 0.5200276 -2.813339E-05 -4.646025
v 0.5411196 0.02497911 -4.641753
v 0.5200276 -2.813339E-05 -4.437954
v -0.5200601 -2.813339E-05 -5.061989
v -0.5411515 0.02497911 -4.85819
v -0.5200601 -2.813339E-05 -4.854007
v -0.5411515 0.02497911 -4.641753
v -0.5200601 -2.813339E-05 -4.646025
v -0.5411515 0.2499595 -4.641753
v -0.5411515 0.2499595 -4.425317
v -0.5411515 0.2499595 -4.85819
v -0.498879 0.2999744 -4.650208
v -0.498879 0.2999744 -4.849735
v 0.099792 0.2999744 -5.049352
v 0.099792 0.2999744 -4.849735
v 0.099792 0.2999744 -4.650208
v 0.2993193 0.2999744 -5.049352
v 0.2993193 0.2999744 -4.849735
v 0.2993193 0.2999744 -4.650208
v 0.4988465 0.2999744 -5.049352
v 0.4988465 0.2999744 -4.849735
v 0.4988465 0.2999744 -4.650208
v 0.5411196 0.2499595 -5.074715
v 0.5411196 0.2499595 -4.85819
v 0.5411196 0.2499595 -4.641753
v 0.099792 0.2999744 -0.2993193
v 0.099792 0.2999744 -0.099792
v 0.099792 0.2999744 0.09973526
v 0.2993193 0.2999744 -0.2993193
v 0.2993193 0.2999744 -0.099792
v 0.2993193 0.2999744 0.09973526
v 0.4988465 0.2999744 -0.2993193
v 0.4988465 0.2999744 -0.099792
v 0.4988465 0.2999744 0.09973526
v 0.5411196 0.2499595 -0.3246832
v 0.5411196 0.2499595 -0.1082468
v 0.5411196 0.2499595 0.1081901
vn 0.003385305 0.9999928 -0.001691456
vn 0.003385305 0.9087766 0.4172692
vn -0.3310741 0.8859726 0.324719
vn -0.4214054 0.9068723 0
vn -0.6579322 0.3614795 0.6606495
vn 0.003385305 0.3462768 0.9381263
vn 0.003385305 -0.345446 0.9384326
vn -0.6579322 -0.3606487 0.6611035
vn -0.4526957 -0.7635202 0.4605469
vn -0.764351 -0.6418986 -0.06110397
vn -0.9385273 -0.3452052 0
vn 0.003385305 -0.6418986 0.766782
vn 0.003385305 -0.345446 0.9384326
vn 0.003385305 -0.6418986 0.766782
vn 0.003385305 -0.345446 0.9384326
vn 0.003385305 -0.6418986 0.766782
vn 0.003385305 -0.345446 0.9384326
vn 0.003385305 -0.6418986 0.766782
vn 0.6571013 -0.3606487 0.6619293
vn 0.4518649 -0.7635202 0.461362
vn 0.003385305 0.3462768 0.9381263
vn 0.6571013 0.3614795 0.661476
vn 0.9383513 -0.345446 -0.0128043
vn 0.9381587 0.3462057 0
vn 0.4207232 0.9071891 0
vn 0.3302433 0.8859726 0.325564
vn 0.003385305 0.9087766 0.4172692
vn 0.003385305 0.3462768 0.9381263
vn 0.003385305 0.9087766 0.4172692
vn 0.003385305 0.3462768 0.9381263
vn 0.003385305 0.9087766 0.4172692
vn 0.003385305 0.9999928 -0.001691456
vn 0.003385305 0.9999928 -0.001691456
vn 0.003385305 0.9999928 -0.001691456
vn 0.003385305 0.9999928 -0.001691456
vn 0.003385305 0.9999928 -0.001691456
vn 0.003385305 0.9999928 -0.001691456
vn 0.003385305 0.9999928 -0.001691456
vn 0.003385305 0.9999928 -0.001691456
vn 0.003385305 0.9999928 -0.001691456
vn 0.003385305 0.9087766 -0.4172692
vn 0.003385305 0.9087766 -0.4172692
vn 0.003385305 0.3462768 -0.9381263
vn 0.003385305 0.3462768 -0.9381263
vn -0.3310741 0.8859726 -0.324719
vn -0.6579322 0.3614795 -0.6606495
vn -0.4214054 0.9068723 0
vn -0.9382581 0.3459361 0
vn -0.9385273 -0.3452052 0
vn -0.6579322 -0.3606487 -0.6611035
vn 0.003385305 0.3462768 -0.9381263
vn 0.003385305 0.9087766 -0.4172692
vn 0.003385305 0.3462768 -0.9381263
vn 0.003385305 0.9087766 -0.4172692
vn 0.6571013 0.3614795 -0.661476
vn 0.003385305 -0.345446 -0.9384326
vn 0.6571013 -0.3606487 -0.6619293
vn 0.3302433 0.8859726 -0.325564
vn 0.4518649 -0.7635202 -0.461362
vn 0.7635202 -0.6418986 -0.07073171
vn 0.9383513 -0.345446 -0.0128043
vn 0.003385305 -0.6418986 -0.766782
vn 0.003385305 -0.345446 -0.9384326
vn 0.003385305 -0.6418986 -0.766782
vn 0.003385305 -0.345446 -0.9384326
vn 0.003385305 -0.6418986 -0.766782
vn 0.003385305 -0.345446 -0.9384326
vn 0.003385305 -0.6418986 -0.766782
vn -0.4526957 -0.7635202 -0.4605469
vn 0.7635202 -0.6418986 -0.07073171
vn 0.9383513 -0.345446 -0.0128043
vn 0.7635202 -0.6418986 -0.07073171
vn 0.9383513 -0.345446 -0.0128043
vn 0.7635202 -0.6418986 -0.07073171
vn -0.764351 -0.6418986 -0.06110397
vn -0.9385273 -0.3452052 0
vn -0.764351 -0.6418986 -0.06110397
vn -0.9385273 -0.3452052 0
vn -0.764351 -0.6418986 -0.06110397
vn -0.9382581 0.3459361 0
vn -0.9382581 0.3459361 0
vn -0.9382581 0.3459361 0
vn -0.4214054 0.9068723 0
vn -0.4214054 0.9068723 0
vn 0.003385305 0.9999928 -0.001691456
vn 0.003385305 0.9087766 0.4172692
vn -0.3310741 0.8859726 0.324719
vn -0.4214054 0.9068723 0
vn -0.6579322 0.3614795 0.6606495
vn 0.003385305 0.3462768 0.9381263
vn 0.003385305 -0.345446 0.9384326
vn -0.6579322 -0.3606487 0.6611035
vn -0.4526957 -0.7635202 0.4605469
vn -0.764351 -0.6418986 -0.06110397
vn -0.9385273 -0.3452052 0
vn 0.003385305 -0.6418986 0.766782
vn 0.003385305 -0.345446 0.9384326
vn 0.003385305 -0.6418986 0.766782
vn 0.003385305 -0.345446 0.9384326
vn 0.003385305 -0.6418986 0.766782
vn 0.003385305 -0.345446 0.9384326
vn 0.003385305 -0.6418986 0.766782
vn 0.6571013 -0.3606487 0.6619293
vn 0.4518649 -0.7635202 0.461362
vn 0.003385305 0.3462768 0.9381263
vn 0.6571013 0.3614795 0.661476
vn 0.9383513 -0.345446 -0.0128043
vn 0.9381587 0.3462057 0
vn 0.4207232 0.9071891 0
vn 0.3302433 0.8859726 0.325564
vn 0.003385305 0.9087766 0.4172692
vn 0.003385305 0.3462768 0.9381263
vn 0.003385305 0.9087766 0.4172692
vn 0.003385305 0.3462768 0.9381263
vn 0.003385305 0.9087766 0.4172692
vn 0.003385305 0.9999928 -0.001691456
vn 0.003385305 0.9999928 -0.001691456
vn 0.003385305 0.9999928 -0.001691456
vn 0.003385305 0.9999928 -0.001691456
vn 0.003385305 0.9999928 -0.001691456
vn 0.003385305 0.9999928 -0.001691456
vn 0.003385305 0.9999928 -0.001691456
vn 0.003385305 0.9999928 -0.001691456
vn 0.003385305 0.9999928 -0.001691456
vn 0.003385305 0.9087766 -0.4172692
vn 0.003385305 0.9087766 -0.4172692
vn 0.003385305 0.3462768 -0.9381263
vn 0.003385305 0.3462768 -0.9381263
vn -0.3310741 0.8859726 -0.324719
vn -0.6579322 0.3614795 -0.6606495
vn -0.4214054 0.9068723 0
vn -0.9382581 0.3459361 0
vn -0.9385273 -0.3452052 0
vn -0.6579322 -0.3606487 -0.6611035
vn 0.003385305 0.3462768 -0.9381263
vn 0.003385305 0.9087766 -0.4172692
vn 0.003385305 0.3462768 -0.9381263
vn 0.003385305 0.9087766 -0.4172692
vn 0.6571013 0.3614795 -0.661476
vn 0.003385305 -0.345446 -0.9384326
vn 0.6571013 -0.3606487 -0.6619293
vn 0.3302433 0.8859726 -0.325564
vn 0.4518649 -0.7635202 -0.461362
vn 0.7635202 -0.6418986 -0.07073171
vn 0.9383513 -0.345446 -0.0128043
vn 0.003385305 -0.6418986 -0.766782
vn 0.003385305 -0.345446 -0.9384326
vn 0.003385305 -0.6418986 -0.766782
vn 0.003385305 -0.345446 -0.9384326
vn 0.003385305 -0.6418986 -0.766782
vn 0.003385305 -0.345446 -0.9384326
vn 0.003385305 -0.6418986 -0.766782
vn -0.4526957 -0.7635202 -0.4605469
vn 0.7635202 -0.6418986 -0.07073171
vn 0.9383513 -0.345446 -0.0128043
vn 0.7635202 -0.6418986 -0.07073171
vn 0.9383513 -0.345446 -0.0128043
vn 0.7635202 -0.6418986 -0.07073171
vn -0.764351 -0.6418986 -0.06110397
vn -0.9385273 -0.3452052 0
vn -0.764351 -0.6418986 -0.06110397
vn -0.9385273 -0.3452052 0
vn -0.764351 -0.6418986 -0.06110397
vn -0.9382581 0.3459361 0
vn -0.9382581 0.3459361 0
vn -0.9382581 0.3459361 0
vn -0.4214054 0.9068723 0
vn -0.4214054 0.9068723 0
vn 0.003385305 0.9999928 -0.001691456
vn 0.003385305 0.9999928 -0.001691456
vn 0.003385305 0.9999928 -0.001691456
vn 0.003385305 0.9999928 -0.001691456
vn 0.003385305 0.9999928 -0.001691456
vn 0.003385305 0.9999928 -0.001691456
vn 0.4207232 0.9071891 0
vn 0.4207232 0.9071891 0
vn 0.4207232 0.9071891 0
vn 0.9381587 0.3462057 0
vn 0.9381587 0.3462057 0
vn 0.9381587 0.3462057 0
vn 0.003385305 0.9999928 -0.001691456
vn 0.003385305 0.9999928 -0.001691456
vn 0.003385305 0.9999928 -0.001691456
vn 0.003385305 0.9999928 -0.001691456
vn 0.003385305 0.9999928 -0.001691456
vn 0.003385305 0.9999928 -0.001691456
vn 0.4207232 0.9071891 0
vn 0.4207232 0.9071891 0
vn 0.4207232 0.9071891 0
vn 0.9381587 0.3462057 0
vn 0.9381587 0.3462057 0
vn 0.9381587 0.3462057 0
g libraryStairsPillarBases_refl_BAKED_0
f 3/3/3 2/2/2 1/1/1
f 4/4/4 3/3/3 1/1/1
f 3/3/3 5/5/5 2/2/2
f 5/5/5 6/6/6 2/2/2
f 6/6/6 5/5/5 7/7/7
f 5/5/5 8/8/8 7/7/7
f 7/7/7 8/8/8 9/9/9
f 9/9/9 8/8/8 10/10/10
f 8/8/8 11/11/11 10/10/10
f 12/12/12 7/7/7 9/9/9
f 13/13/13 7/7/7 12/12/12
f 6/6/6 7/7/7 13/13/13
f 14/14/14 13/13/13 12/12/12
f 15/15/15 13/13/13 14/14/14
f 16/16/16 15/15/15 14/14/14
f 17/17/17 15/15/15 16/16/16
f 18/18/18 17/17/17 16/16/16
f 19/19/19 17/17/17 18/18/18
f 20/20/20 19/19/19 18/18/18
f 21/21/21 17/17/17 19/19/19
f 22/22/22 21/21/21 19/19/19
f 22/22/22 19/19/19 23/23/23
f 23/23/23 19/19/19 20/20/20
f 24/24/24 22/22/22 23/23/23
f 22/22/22 24/24/24 25/25/25
f 26/26/26 22/22/22 25/25/25
f 21/21/21 22/22/22 26/26/26
f 27/27/27 21/21/21 26/26/26
f 27/27/27 26/26/26 25/25/25
f 28/28/28 21/21/21 27/27/27
f 28/28/28 15/15/15 17/17/17
f 21/21/21 28/28/28 17/17/17
f 29/29/29 28/28/28 27/27/27
f 30/30/30 28/28/28 29/29/29
f 28/28/28 30/30/30 15/15/15
f 31/31/31 30/30/30 29/29/29
f 6/6/6 30/30/30 31/31/31
f 2/2/2 6/6/6 31/31/31
f 30/30/30 6/6/6 13/13/13
f 30/30/30 13/13/13 15/15/15
f 32/32/32 27/27/27 25/25/25
f 29/29/29 27/27/27 32/32/32
f 33/33/33 29/29/29 32/32/32
f 31/31/31 29/29/29 33/33/33
f 34/34/34 31/31/31 33/33/33
f 2/2/2 31/31/31 34/34/34
f 1/1/1 2/2/2 34/34/34
f 1/1/1 34/34/34 35/35/35
f 36/36/36 1/1/1 35/35/35
f 36/36/36 35/35/35 37/37/37
f 38/38/38 36/36/36 37/37/37
f 38/38/38 37/37/37 39/39/39
f 40/40/40 38/38/38 39/39/39
f 40/40/40 39/39/39 41/41/41
f 42/42/42 40/40/40 41/41/41
f 41/41/41 43/43/43 42/42/42
f 43/43/43 44/44/44 42/42/42
f 42/42/42 44/44/44 45/45/45
f 44/44/44 46/46/46 45/45/45
f 45/45/45 46/46/46 47/47/47
f 47/47/47 40/40/40 42/42/42
f 45/45/45 47/47/47 42/42/42
f 46/46/46 48/48/48 47/47/47
f 48/48/48 46/46/46 49/49/49
f 46/46/46 50/50/50 49/49/49
f 46/46/46 44/44/44 50/50/50
f 51/51/51 43/43/43 41/41/41
f 52/52/52 51/51/51 41/41/41
f 41/41/41 39/39/39 52/52/52
f 53/53/53 51/51/51 52/52/52
f 54/54/54 53/53/53 52/52/52
f 55/55/55 53/53/53 54/54/54
f 53/53/53 55/55/55 56/56/56
f 55/55/55 57/57/57 56/56/56
f 58/58/58 55/55/55 54/54/54
f 56/56/56 57/57/57 59/59/59
f 59/59/59 57/57/57 60/60/60
f 57/57/57 61/61/61 60/60/60
f 62/62/62 56/56/56 59/59/59
f 63/63/63 56/56/56 62/62/62
f 53/53/53 56/56/56 63/63/63
f 51/51/51 53/53/53 63/63/63
f 64/64/64 63/63/63 62/62/62
f 65/65/65 63/63/63 64/64/64
f 51/51/51 63/63/63 65/65/65
f 66/66/66 65/65/65 64/64/64
f 67/67/67 65/65/65 66/66/66
f 68/68/68 67/67/67 66/66/66
f 50/50/50 67/67/67 68/68/68
f 69/69/69 50/50/50 68/68/68
f 44/44/44 67/67/67 50/50/50
f 43/43/43 65/65/65 67/67/67
f 44/44/44 43/43/43 67/67/67
f 43/43/43 51/51/51 65/65/65
f 60/60/60 61/61/61 70/70/70
f 61/61/61 71/71/71 70/70/70
f 70/70/70 71/71/71 72/72/72
f 71/71/71 73/73/73 72/72/72
f 72/72/72 73/73/73 74/74/74
f 73/73/73 23/23/23 74/74/74
f 74/74/74 23/23/23 20/20/20
f 49/49/49 50/50/50 69/69/69
f 75/75/75 49/49/49 69/69/69
f 76/76/76 49/49/49 75/75/75
f 77/77/77 76/76/76 75/75/75
f 78/78/78 76/76/76 77/77/77
f 79/79/79 78/78/78 77/77/77
f 11/11/11 78/78/78 79/79/79
f 10/10/10 11/11/11 79/79/79
f 80/80/80 78/78/78 11/11/11
f 81/81/81 80/80/80 11/11/11
f 81/81/81 11/11/11 8/8/8
f 5/5/5 81/81/81 8/8/8
f 82/82/82 76/76/76 78/78/78
f 80/80/80 82/82/82 78/78/78
f 48/48/48 49/49/49 76/76/76
f 82/82/82 48/48/48 76/76/76
f 81/81/81 5/5/5 3/3/3
f 4/4/4 81/81/81 3/3/3
f 80/80/80 81/81/81 4/4/4
f 83/83/83 80/80/80 4/4/4
f 82/82/82 80/80/80 83/83/83
f 84/84/84 82/82/82 83/83/83
f 48/48/48 82/82/82 84/84/84
f 47/47/47 48/48/48 84/84/84
f 47/47/47 84/84/84 40/40/40
f 84/84/84 38/38/38 40/40/40
f 84/84/84 83/83/83 38/38/38
f 83/83/83 36/36/36 38/38/38
f 83/83/83 4/4/4 36/36/36
f 4/4/4 1/1/1 36/36/36
f 87/87/87 86/86/86 85/85/85
f 88/88/88 87/87/87 85/85/85
f 87/87/87 89/89/89 86/86/86
f 89/89/89 90/90/90 86/86/86
f 90/90/90 89/89/89 91/91/91
f 89/89/89 92/92/92 91/91/91
f 91/91/91 92/92/92 93/93/93
f 93/93/93 92/92/92 94/94/94
f 92/92/92 95/95/95 94/94/94
f 96/96/96 91/91/91 93/93/93
f 97/97/97 91/91/91 96/96/96
f 90/90/90 91/91/91 97/97/97
f 98/98/98 97/97/97 96/96/96
f 99/99/99 97/97/97 98/98/98
f 100/100/100 99/99/99 98/98/98
f 101/101/101 99/99/99 100/100/100
f 102/102/102 101/101/101 100/100/100
f 103/103/103 101/101/101 102/102/102
f 104/104/104 103/103/103 102/102/102
f 105/105/105 101/101/101 103/103/103
f 106/106/106 105/105/105 103/103/103
f 106/106/106 103/103/103 107/107/107
f 107/107/107 103/103/103 104/104/104
f 108/108/108 106/106/106 107/107/107
f 106/106/106 108/108/108 109/109/109
f 110/110/110 106/106/106 109/109/109
f 105/105/105 106/106/106 110/110/110
f 111/111/111 105/105/105 110/110/110
f 111/111/111 110/110/110 109/109/109
f 112/112/112 105/105/105 111/111/111
f 112/112/112 99/99/99 101/101/101
f 105/105/105 112/112/112 101/101/101
f 113/113/113 112/112/112 111/111/111
f 114/114/114 112/112/112 113/113/113
f 112/112/112 114/114/114 99/99/99
f 115/115/115 114/114/114 113/113/113
f 90/90/90 114/114/114 115/115/115
f 86/86/86 90/90/90 115/115/115
f 114/114/114 90/90/90 97/97/97
f 114/114/114 97/97/97 99/99/99
f 116/116/116 111/111/111 109/109/109
f 113/113/113 111/111/111 116/116/116
f 117/117/117 113/113/113 116/116/116
f 115/115/115 113/113/113 117/117/117
f 118/118/118 115/115/115 117/117/117
f 86/86/86 115/115/115 118/118/118
f 85/85/85 86/86/86 118/118/118
f 85/85/85 118/118/118 119/119/119
f 120/120/120 85/85/85 119/119/119
f 120/120/120 119/119/119 121/121/121
f 122/122/122 120/120/120 121/121/121
f 122/122/122 121/121/121 123/123/123
f 124/124/124 122/122/122 123/123/123
f 124/124/124 123/123/123 125/125/125
f 126/126/126 124/124/124 125/125/125
f 125/125/125 127/127/127 126/126/126
f 127/127/127 128/128/128 126/126/126
f 126/126/126 128/128/128 129/129/129
f 128/128/128 130/130/130 129/129/129
f 129/129/129 130/130/130 131/131/131
f 131/131/131 124/124/124 126/126/126
f 129/129/129 131/131/131 126/126/126
f 130/130/130 132/132/132 131/131/131
f 132/132/132 130/130/130 133/133/133
f 130/130/130 134/134/134 133/133/133
f 130/130/130 128/128/128 134/134/134
f 135/135/135 127/127/127 125/125/125
f 136/136/136 135/135/135 125/125/125
f 125/125/125 123/123/123 136/136/136
f 137/137/137 135/135/135 136/136/136
f 138/138/138 137/137/137 136/136/136
f 139/139/139 137/137/137 138/138/138
f 137/137/137 139/139/139 140/140/140
f 139/139/139 141/141/141 140/140/140
f 142/142/142 139/139/139 138/138/138
f 140/140/140 141/141/141 143/143/143
f 143/143/143 141/141/141 144/144/144
f 141/141/141 145/145/145 144/144/144
f 146/146/146 140/140/140 143/143/143
f 147/147/147 140/140/140 146/146/146
f 137/137/137 140/140/140 147/147/147
f 135/135/135 137/137/137 147/147/147
f 148/148/148 147/147/147 146/146/146
f 149/149/149 147/147/147 148/148/148
f 135/135/135 147/147/147 149/149/149
f 150/150/150 149/149/149 148/148/148
f 151/151/151 149/149/149 150/150/150
f 152/152/152 151/151/151 150/150/150
f 134/134/134 151/151/151 152/152/152
f 153/153/153 134/134/134 152/152/152
f 128/128/128 151/151/151 134/134/134
f 127/127/127 149/149/149 151/151/151
f 128/128/128 127/127/127 151/151/151
f 127/127/127 135/135/135 149/149/149
f 144/144/144 145/145/145 154/154/154
f 145/145/145 155/155/155 154/154/154
f 154/154/154 155/155/155 156/156/156
f 155/155/155 157/157/157 156/156/156
f 156/156/156 157/157/157 158/158/158
f 157/157/157 107/107/107 158/158/158
f 158/158/158 107/107/107 104/104/104
f 133/133/133 134/134/134 153/153/153
f 159/159/159 133/133/133 153/153/153
f 160/160/160 133/133/133 159/159/159
f 161/161/161 160/160/160 159/159/159
f 162/162/162 160/160/160 161/161/161
f 163/163/163 162/162/162 161/161/161
f 95/95/95 162/162/162 163/163/163
f 94/94/94 95/95/95 163/163/163
f 164/164/164 162/162/162 95/95/95
f 165/165/165 164/164/164 95/95/95
f 165/165/165 95/95/95 92/92/92
f 89/89/89 165/165/165 92/92/92
f 166/166/166 160/160/160 162/162/162
f 164/164/164 166/166/166 162/162/162
f 132/132/132 133/133/133 160/160/160
f 166/166/166 132/132/132 160/160/160
f 165/165/165 89/89/89 87/87/87
f 88/88/88 165/165/165 87/87/87
f 164/164/164 165/165/165 88/88/88
f 167/167/167 164/164/164 88/88/88
f 166/166/166 164/164/164 167/167/167
f 168/168/168 166/166/166 167/167/167
f 132/132/132 166/166/166 168/168/168
f 131/131/131 132/132/132 168/168/168
f 131/131/131 168/168/168 124/124/124
f 168/168/168 122/122/122 124/124/124
f 168/168/168 167/167/167 122/122/122
f 167/167/167 120/120/120 122/122/122
f 167/167/167 88/88/88 120/120/120
f 88/88/88 85/85/85 120/120/120
f 123/123/123 169/169/169 136/136/136
f 123/123/123 121/121/121 169/169/169
f 121/121/121 170/170/170 169/169/169
f 121/121/121 119/119/119 170/170/170
f 119/119/119 171/171/171 170/170/170
f 119/119/119 118/118/118 171/171/171
f 118/118/118 117/117/117 171/171/171
f 136/136/136 169/169/169 138/138/138
f 169/169/169 172/172/172 138/138/138
f 169/169/169 170/170/170 172/172/172
f 170/170/170 173/173/173 172/172/172
f 170/170/170 171/171/171 173/173/173
f 171/171/171 174/174/174 173/173/173
f 171/171/171 117/117/117 174/174/174
f 117/117/117 116/116/116 174/174/174
f 138/138/138 172/172/172 142/142/142
f 172/172/172 175/175/175 142/142/142
f 172/172/172 173/173/173 175/175/175
f 173/173/173 176/176/176 175/175/175
f 173/173/173 174/174/174 176/176/176
f 174/174/174 177/177/177 176/176/176
f 174/174/174 116/116/116 177/177/177
f 116/116/116 109/109/109 177/177/177
f 175/175/175 178/178/178 142/142/142
f 178/178/178 139/139/139 142/142/142
f 179/179/179 178/178/178 175/175/175
f 176/176/176 179/179/179 175/175/175
f 180/180/180 179/179/179 176/176/176
f 177/177/177 180/180/180 176/176/176
f 108/108/108 180/180/180 177/177/177
f 109/109/109 108/108/108 177/177/177
f 139/139/139 178/178/178 141/141/141
f 178/178/178 145/145/145 141/141/141
f 178/178/178 179/179/179 145/145/145
f 179/179/179 155/155/155 145/145/145
f 179/179/179 180/180/180 155/155/155
f 180/180/180 157/157/157 155/155/155
f 180/180/180 108/108/108 157/157/157
f 108/108/108 107/107/107 157/157/157
f 39/39/39 181/181/181 52/52/52
f 39/39/39 37/37/37 181/181/181
f 37/37/37 182/182/182 181/181/181
f 37/37/37 35/35/35 182/182/182
f 35/35/35 183/183/183 182/182/182
f 35/35/35 34/34/34 183/183/183
f 34/34/34 33/33/33 183/183/183
f 52/52/52 181/181/181 54/54/54
f 181/181/181 184/184/184 54/54/54
f 181/181/181 182/182/182 184/184/184
f 182/182/182 185/185/185 184/184/184
f 182/182/182 183/183/183 185/185/185
f 183/183/183 186/186/186 185/185/185
f 183/183/183 33/33/33 186/186/186
f 33/33/33 32/32/32 186/186/186
f 54/54/54 184/184/184 58/58/58
f 184/184/184 187/187/187 58/58/58
f 184/184/184 185/185/185 187/187/187
f 185/185/185 188/188/188 187/187/187
f 185/185/185 186/186/186 188/188/188
f 186/186/186 189/189/189 188/188/188
f 186/186/186 32/32/32 189/189/189
f 32/32/32 25/25/25 189/189/189
f 187/187/187 190/190/190 58/58/58
f 190/190/190 55/55/55 58/58/58
f 191/191/191 190/190/190 187/187/187
f 188/188/188 191/191/191 187/187/187
f 192/192/192 191/191/191 188/188/188
f 189/189/189 192/192/192 188/188/188
f 24/24/24 192/192/192 189/189/189
f 25/25/25 24/24/24 189/189/189
f 55/55/55 190/190/190 57/57/57
f 190/190/190 61/61/61 57/57/57
f 190/190/190 191/191/191 61/61/61
f 191/191/191 71/71/71 61/61/61
f 191/191/191 192/192/192 71/71/71
f 192/192/192 73/73/73 71/71/71
f 192/192/192 24/24/24 73/73/73
f 24/24/24 23/23/23 73/73/73
