g LibraryWallTableTop(Clone)
v 6.914139E-06 1.819668 -1.599238
v 0.3944401 1.819668 -1.54252
v 0.3944401 1.940775 -1.54252
v 6.914139E-06 1.940775 -1.599238
v 0.7568949 1.940775 -1.377012
v 0.7568949 1.819668 -1.377012
v 1.05804 1.940775 -1.116055
v 1.05804 1.819668 -1.116055
v 1.273461 1.940775 -0.7808245
v 1.273461 1.819668 -0.7808245
v 1.385762 1.940775 -0.3984913
v 1.385762 1.819668 -0.3984913
v -0.3944262 1.819668 -1.54252
v -0.3944262 1.940775 -1.54252
v -0.7568812 1.819668 -1.377012
v -0.7568812 1.940775 -1.377012
v -1.058027 1.819668 -1.116055
v -1.058027 1.940775 -1.116055
v -1.273501 1.819668 -0.7808245
v -1.273501 1.940775 -0.7808245
v -1.385749 1.819668 -0.3984913
v -1.385749 1.940775 -0.3984913
v -1.385749 1.819668 -0.1992221
v -1.385749 1.940775 -0.1992221
v -1.154771 1.940775 -0.3984913
v 1.385762 1.819668 -0.1992221
v 1.385762 1.819668 -6.914139E-06
v 1.385762 1.940775 -6.914139E-06
v 1.385762 1.940775 -0.1992221
v -1.385749 1.819668 -6.914139E-06
v -1.154771 1.940775 -0.1992221
v -1.385749 1.940775 -6.914139E-06
v -1.154771 1.940775 -6.914139E-06
v 1.154785 1.940775 -0.1992221
v 1.154785 1.940775 -0.3984913
v 0.8272253 1.940775 -0.1992221
v 0.8272253 1.940775 -6.914139E-06
v 1.154785 1.940775 -6.914139E-06
v 0.4619074 1.940775 -6.914139E-06
v 0.4619074 1.940775 -0.1992221
v 6.914139E-06 1.940775 -6.914139E-06
v 6.914139E-06 1.940775 -0.1992221
v -0.4618936 1.940775 -6.914139E-06
v -0.4618936 1.940775 -0.1992221
v -0.8184607 1.940775 -6.914139E-06
v -0.8184607 1.940775 -0.1992221
v -0.4618936 1.940775 -0.3984913
v -0.8184607 1.940775 -0.3984913
v 6.914139E-06 1.940775 -0.3984913
v 0.4619074 1.940775 -0.3984913
v 0.8272253 1.940775 -0.3984913
v 6.914139E-06 1.736914 -1.442534
v 0.3502539 1.736914 -1.39219
v 0.3502539 1.819668 -1.39219
v 6.914139E-06 1.819668 -1.442534
v 0.6721961 1.819668 -1.245156
v 0.6721961 1.736914 -1.245156
v 0.9396349 1.819668 -1.013422
v 0.9396349 1.736914 -1.013422
v 1.130964 1.819668 -0.7157339
v 1.130964 1.736914 -0.7157339
v 1.230679 1.819668 -0.3761822
v 1.230679 1.736914 -0.3761822
v -0.3502942 1.736914 -1.39219
v -0.3502942 1.819668 -1.39219
v -0.6721823 1.736914 -1.245156
v -0.6721823 1.819668 -1.245156
v -0.9396212 1.736914 -1.013422
v -0.9396212 1.819668 -1.013422
v -1.13095 1.736914 -0.7157339
v -1.13095 1.819668 -0.7157339
v -1.230665 1.736914 -0.3761822
v -1.230665 1.819668 -0.3761822
v -1.230665 1.736914 -6.914139E-06
v -1.230665 1.819668 -6.914139E-06
v 1.230679 1.819668 -6.914139E-06
v 1.230679 1.736914 -6.914139E-06
v -0.6462541 1.736914 -1.204859
v -0.9034297 1.736914 -0.9820384
v -1.183239 1.736914 -0.3693761
v -1.183239 1.736914 -6.914139E-06
v -0.9034297 1.657617 -0.9820384
v -0.6462541 1.657617 -1.204859
v -0.6721823 1.657617 -1.245156
v -0.9396212 1.657617 -1.013422
v -1.087358 1.657617 -0.6958016
v -1.13095 1.657617 -0.7157339
v -0.9396212 1.575943 -1.013422
v -0.6721823 1.575943 -1.245156
v 0.9396349 1.575943 -1.013422
v 0.6721961 1.575943 -1.245156
v -0.3502942 1.575943 -1.39219
v 0.3502539 1.575943 -1.39219
v 6.914139E-06 1.575943 -1.442534
v 1.130964 1.575943 -0.7157339
v -1.13095 1.575943 -0.7157339
v 1.230679 1.575943 -0.3761822
v -1.230665 1.575943 -0.3761822
v 1.230679 1.575943 -6.914139E-06
v -1.230665 1.575943 -6.914139E-06
v 1.230679 1.657617 -6.914139E-06
v 1.230679 1.657617 -0.3761822
v 6.914139E-06 1.657617 -1.442534
v -0.3502942 1.657617 -1.39219
v -1.230665 1.657617 -0.3761822
v -1.230665 1.657617 -6.914139E-06
v 1.130964 1.657617 -0.7157339
v 1.087372 1.657617 -0.6958016
v 0.9034435 1.657617 -0.9820384
v 0.9396349 1.657617 -1.013422
v 1.183198 1.657617 -0.3693761
v 0.6721961 1.657617 -1.245156
v 0.3502539 1.657617 -1.39219
v 6.914139E-06 1.657617 -1.394621
v 0.3368037 1.657617 -1.346222
v 1.183198 1.736914 -0.3693761
v 1.183198 1.736914 -6.914139E-06
v 1.087372 1.736914 -0.6958016
v 0.9034435 1.736914 -0.9820384
v 0.6462679 1.657617 -1.204859
v 0.6462679 1.736914 -1.204859
v 0.3368037 1.736914 -1.346222
v 6.914139E-06 1.736914 -1.394621
v -0.33679 1.657617 -1.346222
v -0.33679 1.736914 -1.346222
v 1.183198 1.657617 -6.914139E-06
v -1.087358 1.736914 -0.6958016
v -1.183239 1.657617 -0.3693761
v -1.183239 1.657617 -6.914139E-06
vt 0.7558921 0.8246879
vt 0.7558921 0.8246879
vt 0.7558921 0.8246879
vt 0.7558921 0.8246879
vt 0.7558921 0.8246879
vt 0.7558921 0.8246879
vt 0.7558921 0.8246879
vt 0.7558921 0.8246879
vt 0.7558921 0.8246879
vt 0.7558921 0.8246879
vt 0.7558921 0.8246879
vt 0.7558921 0.8246879
vt 0.7558921 0.8246879
vt 0.7558921 0.8246879
vt 0.7558921 0.8246879
vt 0.7558921 0.8246879
vt 0.7558921 0.8246879
vt 0.7558921 0.8246879
vt 0.7558921 0.8246879
vt 0.7558921 0.8246879
vt 0.7558921 0.8246879
vt 0.7558921 0.8246879
vt 0.7558921 0.8246879
vt 0.7558921 0.8246879
vt 0.7558921 0.8246879
vt 0.7558921 0.8246879
vt 0.7558921 0.8246879
vt 0.7558921 0.8246879
vt 0.7558921 0.8246879
vt 0.7558921 0.8246879
vt 0.7558921 0.8246879
vt 0.7558921 0.8246879
vt 0.7558921 0.8246879
vt 0.7558921 0.8246879
vt 0.7558921 0.8246879
vt 0.7558921 0.8246879
vt 0.7558921 0.8246879
vt 0.7558921 0.8246879
vt 0.7558921 0.8246879
vt 0.7558921 0.8246879
vt 0.7558921 0.8246879
vt 0.7558921 0.8246879
vt 0.7558921 0.8246879
vt 0.7558921 0.8246879
vt 0.7558921 0.8246879
vt 0.7558921 0.8246879
vt 0.7558921 0.8246879
vt 0.7558921 0.8246879
vt 0.7558921 0.8246879
vt 0.7558921 0.8246879
vt 0.7558921 0.8246879
vt 0.7558921 0.8246879
vt 0.7558921 0.8246879
vt 0.7558921 0.8246879
vt 0.7558921 0.8246879
vt 0.7558921 0.8246879
vt 0.7558921 0.8246879
vt 0.7558921 0.8246879
vt 0.7558921 0.8246879
vt 0.7558921 0.8246879
vt 0.7558921 0.8246879
vt 0.7558921 0.8246879
vt 0.7558921 0.8246879
vt 0.7558921 0.8246879
vt 0.7558921 0.8246879
vt 0.7558921 0.8246879
vt 0.7558921 0.8246879
vt 0.7558921 0.8246879
vt 0.7558921 0.8246879
vt 0.7558921 0.8246879
vt 0.7558921 0.8246879
vt 0.7558921 0.8246879
vt 0.7558921 0.8246879
vt 0.7558921 0.8246879
vt 0.7558921 0.8246879
vt 0.7558921 0.8246879
vt 0.7558921 0.8246879
vt 0.7558921 0.8246879
vt 0.7558921 0.8246879
vt 0.7558921 0.8246879
vt 0.7558921 0.8246879
vt 0.7558921 0.8246879
vt 0.7558921 0.8246879
vt 0.7558921 0.8246879
vt 0.7558921 0.8246879
vt 0.7558921 0.8246879
vt 0.7558921 0.8246879
vt 0.7558921 0.8246879
vt 0.7558921 0.8246879
vt 0.7558921 0.8246879
vt 0.7558921 0.8246879
vt 0.7558921 0.8246879
vt 0.7558921 0.8246879
vt 0.7558921 0.8246879
vt 0.7558921 0.8246879
vt 0.7558921 0.8246879
vt 0.7558921 0.8246879
vt 0.7558921 0.8246879
vt 0.7558921 0.8246879
vt 0.7558921 0.8246879
vt 0.7558921 0.8246879
vt 0.7558921 0.8246879
vt 0.7558921 0.8246879
vt 0.7558921 0.8246879
vt 0.7558921 0.8246879
vt 0.7558921 0.8246879
vt 0.7558921 0.8246879
vt 0.7558921 0.8246879
vt 0.7558921 0.8246879
vt 0.7558921 0.8246879
vt 0.7558921 0.8246879
vt 0.7558921 0.8246879
vt 0.7558921 0.8246879
vt 0.7558921 0.8246879
vt 0.7558921 0.8246879
vt 0.7558921 0.8246879
vt 0.7558921 0.8246879
vt 0.7558921 0.8246879
vt 0.7558921 0.8246879
vt 0.7558921 0.8246879
vt 0.7558921 0.8246879
vt 0.7558921 0.8246879
vt 0.7558921 0.8246879
vt 0.7558921 0.8246879
vt 0.7558921 0.8246879
vt 0.7558921 0.8246879
vt 0.7558921 0.8246879
vt 0.7558921 0.8246879
vt 0.7558921 0.8246879
vn -0.003921509 -0.6784262 -0.7346581
vn 0.2078416 -0.6784262 -0.7046558
vn 0.2078416 0.6784261 -0.7046558
vn -0.003921509 0.6784261 -0.7346581
vn 0.3960754 0.6784261 -0.6187586
vn 0.3960754 -0.6784262 -0.6187586
vn 0.552937 0.6784261 -0.4837341
vn 0.552937 -0.6784262 -0.483734
vn 0.6705831 0.6784261 -0.3000937
vn 0.6705831 -0.6784262 -0.3000935
vn 0.7254847 0.6784261 -0.1158013
vn 0.7254847 -0.6784262 -0.1158009
vn -0.2078415 -0.6784262 -0.7046558
vn -0.2078415 0.6784261 -0.7046558
vn -0.3960754 -0.6784262 -0.6187586
vn -0.3960754 0.6784261 -0.6187586
vn -0.5529369 -0.6784262 -0.4837341
vn -0.5529369 0.6784261 -0.4837342
vn -0.670583 -0.6784262 -0.3000938
vn -0.670583 0.6784261 -0.300094
vn -0.7254846 -0.6784262 -0.1158014
vn -0.7254846 0.6784261 -0.1158018
vn -0.7071068 -0.7071068 0
vn -0.7071068 0.7071068 0
vn -0.003921509 0.9999923 -0.000345267
vn 0.7071068 -0.7071068 0
vn 0.7071068 -0.7071068 0
vn 0.7071068 0.7071068 0
vn 0.7071068 0.7071068 0
vn -0.7071068 -0.7071068 0
vn -0.003921509 0.9999923 -0.000345267
vn -0.7071068 0.7071068 0
vn -0.003921509 0.9999923 -0.000345267
vn -0.003921509 0.9999923 -0.000345267
vn -0.003921509 0.9999923 -0.000345267
vn -0.003921509 0.9999923 -0.000345267
vn -0.003921509 0.9999923 -0.000345267
vn -0.003921509 0.9999923 -0.000345267
vn -0.003921509 0.9999923 -0.000345267
vn -0.003921509 0.9999923 -0.000345267
vn -0.003921509 0.9999923 -0.000345267
vn -0.003921509 0.9999923 -0.000345267
vn -0.003921509 0.9999923 -0.000345267
vn -0.003921509 0.9999923 -0.000345267
vn -0.003921509 0.9999923 -0.000345267
vn -0.003921509 0.9999923 -0.000345267
vn -0.003921509 0.9999923 -0.000345267
vn -0.003921509 0.9999923 -0.000345267
vn -0.003921509 0.9999923 -0.000345267
vn -0.003921509 0.9999923 -0.000345267
vn -0.003921509 0.9999923 -0.000345267
vn -0.003921509 -0.6784262 -0.7346581
vn 0.2078416 -0.6784262 -0.7046558
vn 0.2784293 0.003921509 -0.9604487
vn -0.003921509 0.003921509 -0.9999846
vn 0.5372508 0.003921509 -0.8434134
vn 0.3960754 -0.6784262 -0.6187586
vn 0.756857 0.003921509 -0.6535688
vn 0.552937 -0.6784262 -0.483734
vn 0.9058754 0.003921509 -0.423526
vn 0.6705831 -0.6784262 -0.3000935
vn 0.9921493 0.003921509 -0.1249976
vn 0.7254847 -0.6784262 -0.1158009
vn -0.2078415 -0.6784262 -0.7046558
vn -0.2784292 0.003921509 -0.9604487
vn -0.3960754 -0.6784262 -0.6187586
vn -0.5372508 0.003921509 -0.8434135
vn -0.5529369 -0.6784262 -0.4837341
vn -0.7568569 0.003921509 -0.6535688
vn -0.670583 -0.6784262 -0.3000938
vn -0.9058753 0.003921509 -0.4235263
vn -0.7254846 -0.6784262 -0.1158014
vn -0.9921492 0.003921509 -0.1249981
vn -0.7071068 -0.7071068 0
vn -0.9999923 0.003921509 -0.0003449296
vn 0.9999924 0.003921509 0
vn 0.7071068 -0.7071068 0
vn -0.3647031 -0.7411708 -0.5636111
vn -0.5058784 -0.7411708 -0.4413081
vn -0.66274 -0.7411708 -0.1069651
vn -0.7071068 -0.7071068 0
vn -0.5058784 0.7411708 -0.4413081
vn -0.3647031 0.7411708 -0.5636112
vn -0.3960754 0.6784261 -0.6187586
vn -0.5529369 0.6784261 -0.4837342
vn -0.6078384 0.7411708 -0.2849533
vn -0.670583 0.6784261 -0.300094
vn -0.5529369 -0.6784262 -0.4837341
vn -0.3960754 -0.6784262 -0.6187586
vn 0.552937 -0.6784262 -0.483734
vn 0.3960754 -0.6784262 -0.6187586
vn -0.2078415 -0.6784262 -0.7046558
vn 0.2078416 -0.6784262 -0.7046558
vn -0.003921509 -0.6784262 -0.7346581
vn 0.6705831 -0.6784262 -0.3000935
vn -0.670583 -0.6784262 -0.3000938
vn 0.7254847 -0.6784262 -0.1158009
vn -0.7254846 -0.6784262 -0.1158014
vn 0.7071068 -0.7071068 0
vn -0.7071068 -0.7071068 0
vn 0.7071068 0.7071068 0
vn 0.7254847 0.6784261 -0.1158013
vn -0.003921509 0.6784261 -0.7346581
vn -0.2078415 0.6784261 -0.7046558
vn -0.7254846 0.6784261 -0.1158018
vn -0.7071068 0.7071068 0
vn 0.6705831 0.6784261 -0.3000937
vn 0.6078385 0.7411708 -0.2849531
vn 0.5058785 0.7411708 -0.4413081
vn 0.552937 0.6784261 -0.4837341
vn 0.6627401 0.7411708 -0.1069651
vn 0.3960754 0.6784261 -0.6187586
vn 0.2078416 0.6784261 -0.7046558
vn -0.003921509 0.7411708 -0.6713051
vn 0.1921554 0.7411708 -0.6432279
vn 0.6627401 -0.7411708 -0.1069648
vn 0.7071068 -0.7071068 0
vn 0.6078385 -0.7411708 -0.284953
vn 0.5058785 -0.7411708 -0.441308
vn 0.3647031 0.7411708 -0.5636111
vn 0.3647031 -0.7411708 -0.5636111
vn 0.1921554 -0.7411708 -0.6432279
vn -0.003921509 -0.7411708 -0.6713051
vn -0.1921554 0.7411708 -0.6432279
vn -0.1921554 -0.7411708 -0.6432279
vn 0.7071068 0.7071068 0
vn -0.6078384 -0.7411708 -0.2849532
vn -0.66274 0.7411708 -0.1069654
vn -0.7071068 0.7071068 0
g LibraryWallTableTop(Clone)_0
f 3/3/3 2/2/2 1/1/1
f 4/4/4 3/3/3 1/1/1
f 3/3/3 5/5/5 2/2/2
f 5/5/5 6/6/6 2/2/2
f 5/5/5 7/7/7 6/6/6
f 7/7/7 8/8/8 6/6/6
f 7/7/7 9/9/9 8/8/8
f 9/9/9 10/10/10 8/8/8
f 9/9/9 11/11/11 10/10/10
f 11/11/11 12/12/12 10/10/10
f 4/4/4 1/1/1 13/13/13
f 13/13/13 1/1/1 2/2/2
f 2/2/2 6/6/6 13/13/13
f 14/14/14 4/4/4 13/13/13
f 14/14/14 13/13/13 15/15/15
f 6/6/6 15/15/15 13/13/13
f 6/6/6 8/8/8 15/15/15
f 16/16/16 14/14/14 15/15/15
f 16/16/16 15/15/15 17/17/17
f 8/8/8 17/17/17 15/15/15
f 8/8/8 10/10/10 17/17/17
f 18/18/18 16/16/16 17/17/17
f 18/18/18 17/17/17 19/19/19
f 10/10/10 19/19/19 17/17/17
f 10/10/10 12/12/12 19/19/19
f 20/20/20 18/18/18 19/19/19
f 20/20/20 19/19/19 21/21/21
f 12/12/12 21/21/21 19/19/19
f 22/22/22 20/20/20 21/21/21
f 20/20/20 22/22/22 18/18/18
f 22/22/22 21/21/21 23/23/23
f 24/24/24 22/22/22 23/23/23
f 22/22/22 25/25/25 18/18/18
f 22/22/22 24/24/24 25/25/25
f 18/18/18 25/25/25 16/16/16
f 26/26/26 23/23/23 21/21/21
f 12/12/12 26/26/26 21/21/21
f 26/26/26 27/27/27 23/23/23
f 28/28/28 27/27/27 26/26/26
f 29/29/29 28/28/28 26/26/26
f 27/27/27 30/30/30 23/23/23
f 24/24/24 23/23/23 30/30/30
f 29/29/29 26/26/26 12/12/12
f 11/11/11 29/29/29 12/12/12
f 24/24/24 31/31/31 25/25/25
f 24/24/24 32/32/32 31/31/31
f 32/32/32 24/24/24 30/30/30
f 32/32/32 33/33/33 31/31/31
f 34/34/34 29/29/29 11/11/11
f 35/35/35 34/34/34 11/11/11
f 36/36/36 34/34/34 35/35/35
f 36/36/36 37/37/37 34/34/34
f 37/37/37 38/38/38 34/34/34
f 38/38/38 28/28/28 29/29/29
f 34/34/34 38/38/38 29/29/29
f 39/39/39 37/37/37 36/36/36
f 40/40/40 39/39/39 36/36/36
f 41/41/41 39/39/39 40/40/40
f 42/42/42 41/41/41 40/40/40
f 43/43/43 41/41/41 42/42/42
f 44/44/44 43/43/43 42/42/42
f 45/45/45 43/43/43 44/44/44
f 46/46/46 45/45/45 44/44/44
f 33/33/33 45/45/45 46/46/46
f 31/31/31 33/33/33 46/46/46
f 46/46/46 44/44/44 47/47/47
f 48/48/48 46/46/46 47/47/47
f 44/44/44 42/42/42 49/49/49
f 47/47/47 44/44/44 49/49/49
f 42/42/42 40/40/40 50/50/50
f 49/49/49 42/42/42 50/50/50
f 40/40/40 36/36/36 51/51/51
f 50/50/50 40/40/40 51/51/51
f 51/51/51 36/36/36 35/35/35
f 49/49/49 50/50/50 3/3/3
f 4/4/4 49/49/49 3/3/3
f 47/47/47 49/49/49 4/4/4
f 50/50/50 51/51/51 5/5/5
f 3/3/3 50/50/50 5/5/5
f 51/51/51 35/35/35 7/7/7
f 5/5/5 51/51/51 7/7/7
f 14/14/14 47/47/47 4/4/4
f 48/48/48 47/47/47 14/14/14
f 16/16/16 48/48/48 14/14/14
f 31/31/31 46/46/46 48/48/48
f 25/25/25 31/31/31 48/48/48
f 25/25/25 48/48/48 16/16/16
f 7/7/7 35/35/35 9/9/9
f 35/35/35 11/11/11 9/9/9
f 54/54/54 53/53/53 52/52/52
f 55/55/55 54/54/54 52/52/52
f 54/54/54 56/56/56 53/53/53
f 56/56/56 57/57/57 53/53/53
f 56/56/56 58/58/58 57/57/57
f 58/58/58 59/59/59 57/57/57
f 58/58/58 60/60/60 59/59/59
f 60/60/60 61/61/61 59/59/59
f 60/60/60 62/62/62 61/61/61
f 62/62/62 63/63/63 61/61/61
f 55/55/55 52/52/52 64/64/64
f 65/65/65 55/55/55 64/64/64
f 65/65/65 64/64/64 66/66/66
f 67/67/67 65/65/65 66/66/66
f 67/67/67 66/66/66 68/68/68
f 69/69/69 67/67/67 68/68/68
f 69/69/69 68/68/68 70/70/70
f 71/71/71 69/69/69 70/70/70
f 71/71/71 70/70/70 72/72/72
f 73/73/73 71/71/71 72/72/72
f 73/73/73 72/72/72 74/74/74
f 75/75/75 73/73/73 74/74/74
f 62/62/62 76/76/76 63/63/63
f 76/76/76 77/77/77 63/63/63
f 66/66/66 78/78/78 68/68/68
f 78/78/78 79/79/79 68/68/68
f 68/68/68 79/79/79 70/70/70
f 72/72/72 80/80/80 74/74/74
f 80/80/80 81/81/81 74/74/74
f 79/79/79 78/78/78 82/82/82
f 78/78/78 83/83/83 82/82/82
f 82/82/82 83/83/83 84/84/84
f 85/85/85 82/82/82 84/84/84
f 86/86/86 82/82/82 85/85/85
f 79/79/79 82/82/82 86/86/86
f 87/87/87 86/86/86 85/85/85
f 85/85/85 84/84/84 88/88/88
f 84/84/84 89/89/89 88/88/88
f 90/90/90 88/88/88 89/89/89
f 91/91/91 90/90/90 89/89/89
f 91/91/91 89/89/89 92/92/92
f 93/93/93 91/91/91 92/92/92
f 92/92/92 94/94/94 93/93/93
f 90/90/90 95/95/95 88/88/88
f 95/95/95 96/96/96 88/88/88
f 85/85/85 88/88/88 96/96/96
f 87/87/87 85/85/85 96/96/96
f 95/95/95 97/97/97 96/96/96
f 97/97/97 98/98/98 96/96/96
f 87/87/87 96/96/96 98/98/98
f 97/97/97 99/99/99 98/98/98
f 99/99/99 100/100/100 98/98/98
f 101/101/101 99/99/99 97/97/97
f 102/102/102 101/101/101 97/97/97
f 102/102/102 97/97/97 95/95/95
f 103/103/103 94/94/94 92/92/92
f 104/104/104 103/103/103 92/92/92
f 104/104/104 92/92/92 89/89/89
f 84/84/84 104/104/104 89/89/89
f 105/105/105 98/98/98 100/100/100
f 105/105/105 87/87/87 98/98/98
f 106/106/106 105/105/105 100/100/100
f 107/107/107 102/102/102 95/95/95
f 107/107/107 108/108/108 102/102/102
f 109/109/109 108/108/108 107/107/107
f 110/110/110 109/109/109 107/107/107
f 108/108/108 111/111/111 102/102/102
f 102/102/102 111/111/111 101/101/101
f 110/110/110 107/107/107 90/90/90
f 107/107/107 95/95/95 90/90/90
f 110/110/110 90/90/90 91/91/91
f 112/112/112 110/110/110 91/91/91
f 112/112/112 91/91/91 93/93/93
f 113/113/113 112/112/112 93/93/93
f 113/113/113 93/93/93 94/94/94
f 103/103/103 113/113/113 94/94/94
f 103/103/103 114/114/114 113/113/113
f 114/114/114 115/115/115 113/113/113
f 113/113/113 115/115/115 112/112/112
f 116/116/116 111/111/111 108/108/108
f 116/116/116 117/117/117 111/111/111
f 117/117/117 116/116/116 63/63/63
f 63/63/63 116/116/116 61/61/61
f 116/116/116 118/118/118 61/61/61
f 77/77/77 117/117/117 63/63/63
f 118/118/118 116/116/116 108/108/108
f 118/118/118 108/108/108 109/109/109
f 119/119/119 118/118/118 109/109/109
f 119/119/119 109/109/109 120/120/120
f 121/121/121 119/119/119 120/120/120
f 121/121/121 120/120/120 115/115/115
f 122/122/122 121/121/121 115/115/115
f 122/122/122 115/115/115 114/114/114
f 121/121/121 122/122/122 53/53/53
f 53/53/53 122/122/122 52/52/52
f 122/122/122 123/123/123 52/52/52
f 57/57/57 121/121/121 53/53/53
f 119/119/119 121/121/121 57/57/57
f 123/123/123 122/122/122 114/114/114
f 123/123/123 114/114/114 124/124/124
f 125/125/125 123/123/123 124/124/124
f 125/125/125 124/124/124 83/83/83
f 78/78/78 125/125/125 83/83/83
f 124/124/124 114/114/114 103/103/103
f 104/104/104 124/124/124 103/103/103
f 83/83/83 124/124/124 104/104/104
f 123/123/123 125/125/125 64/64/64
f 52/52/52 123/123/123 64/64/64
f 84/84/84 83/83/83 104/104/104
f 125/125/125 78/78/78 66/66/66
f 64/64/64 125/125/125 66/66/66
f 59/59/59 119/119/119 57/57/57
f 118/118/118 119/119/119 59/59/59
f 61/61/61 118/118/118 59/59/59
f 117/117/117 126/126/126 111/111/111
f 111/111/111 126/126/126 101/101/101
f 127/127/127 79/79/79 86/86/86
f 127/127/127 86/86/86 128/128/128
f 80/80/80 127/127/127 128/128/128
f 80/80/80 128/128/128 129/129/129
f 81/81/81 80/80/80 129/129/129
f 79/79/79 127/127/127 70/70/70
f 128/128/128 86/86/86 87/87/87
f 105/105/105 128/128/128 87/87/87
f 129/129/129 128/128/128 105/105/105
f 127/127/127 80/80/80 72/72/72
f 70/70/70 127/127/127 72/72/72
f 106/106/106 129/129/129 105/105/105
f 120/120/120 109/109/109 110/110/110
f 112/112/112 120/120/120 110/110/110
f 115/115/115 120/120/120 112/112/112
