g maroonStairs1stMidPillar_refl_new
v 0.4999772 0.1999897 -8.34465E-07
v 0.7420308 0.1999897 -0.5843423
v 0.4999772 0.1999897 -0.6325235
v 0.9472314 0.1999897 -0.4472551
v 1.084366 0.1999897 -0.2420544
v 1.1325 0.1999897 -8.34465E-07
v 1.084366 0.1999897 0.2420527
v 0.9472314 0.1999897 0.4472533
v 0.7420308 0.1999897 0.5843406
v 0.4999772 0.1999897 0.6325219
v 0.2579715 0.1999897 0.5843406
v 0.05277085 0.1999897 0.4472533
v -0.08436418 0.1999897 0.2420527
v -0.1324977 0.1999897 -8.34465E-07
v -0.08436418 0.1999897 -0.2420544
v 0.05277085 0.1999897 -0.4472551
v 0.2579715 0.1999897 -0.5843423
v 0.4999772 2 -8.34465E-07
v 0.4999772 2 -0.6325235
v 0.7420308 2 -0.5843423
v 0.9472314 2 -0.4472551
v 1.084366 2 -0.2420544
v 1.1325 2 -8.34465E-07
v 1.084366 2 0.2420527
v 0.9472314 2 0.4472533
v 0.7420308 2 0.5843406
v 0.4999772 2 0.6325219
v 0.2579715 2 0.5843406
v 0.05277085 2 0.4472533
v -0.08436418 2 0.2420527
v -0.1324977 2 -8.34465E-07
v -0.08436418 2 -0.2420544
v 0.05277085 2 -0.4472551
v 0.2579715 2 -0.5843423
v 0.4999772 1.805124 -0.6325235
v 0.7420308 1.805124 -0.5843423
v 0.7420308 2 -0.5843423
v 0.4999772 2 -0.6325235
v 0.9472314 2 -0.4472551
v 0.9472314 1.805124 -0.4472551
v 1.084366 2 -0.2420544
v 1.084366 1.805124 -0.2420544
v 1.1325 2 -8.34465E-07
v 1.1325 1.805124 -8.34465E-07
v 1.084366 2 0.2420527
v 1.084366 1.805124 0.2420527
v 0.9472314 2 0.4472533
v 0.9472314 1.805124 0.4472533
v 0.7420308 2 0.5843406
v 0.7420308 1.805124 0.5843406
v 0.4999772 2 0.6325219
v 0.4999772 1.805124 0.6325219
v 0.2579715 2 0.5843406
v 0.2579715 1.805124 0.5843406
v 0.05277085 2 0.4472533
v 0.05277085 1.805124 0.4472533
v -0.08436418 2 0.2420527
v -0.08436418 1.805124 0.2420527
v -0.1324977 2 -8.34465E-07
v -0.1324977 1.805124 -8.34465E-07
v -0.08436418 2 -0.2420544
v -0.08436418 1.805124 -0.2420544
v 0.05277085 2 -0.4472551
v 0.05277085 1.805124 -0.4472551
v 0.2579715 2 -0.5843423
v 0.2579715 1.805124 -0.5843423
v 0.2579715 0.946943 -0.5843423
v 0.4999772 0.946943 -0.6325235
v 0.2579715 0.404091 -0.5843423
v 0.4999772 0.404091 -0.6325235
v 0.05277085 0.404091 -0.4472551
v 0.05277085 0.946943 -0.4472551
v -0.08436418 0.404091 -0.2420544
v -0.08436418 0.946943 -0.2420544
v -0.1324977 0.404091 -8.34465E-07
v -0.1324977 0.946943 -8.34465E-07
v -0.08436418 0.404091 0.2420527
v -0.08436418 0.946943 0.2420527
v 0.05277085 0.404091 0.4472533
v 0.05277085 0.946943 0.4472533
v 0.2579715 0.404091 0.5843406
v 0.2579715 0.946943 0.5843406
v 0.4999772 0.404091 0.6325219
v 0.4999772 0.946943 0.6325219
v 0.7420308 0.404091 0.5843406
v 0.7420308 0.946943 0.5843406
v 0.9472314 0.404091 0.4472533
v 0.9472314 0.946943 0.4472533
v 1.084366 0.404091 0.2420527
v 1.084366 0.946943 0.2420527
v 1.1325 0.404091 -8.34465E-07
v 1.1325 0.946943 -8.34465E-07
v 1.084366 0.404091 -0.2420544
v 1.084366 0.946943 -0.2420544
v 0.9472314 0.404091 -0.4472551
v 0.9472314 0.946943 -0.4472551
v 0.7420308 0.404091 -0.5843423
v 0.7420308 0.946943 -0.5843423
v 0.4999772 0.1999897 -0.6325235
v 0.7420308 0.1999897 -0.5843423
v 0.9472314 0.1999897 -0.4472551
v 1.084366 0.1999897 -0.2420544
v 1.1325 0.1999897 -8.34465E-07
v 1.084366 0.1999897 0.2420527
v 0.9472314 0.1999897 0.4472533
v 0.7420308 0.1999897 0.5843406
v 0.4999772 0.1999897 0.6325219
v 0.2579715 0.1999897 0.5843406
v 0.05277085 0.1999897 0.4472533
v -0.08436418 0.1999897 0.2420527
v -0.1324977 0.1999897 -8.34465E-07
v -0.08436418 0.1999897 -0.2420544
v 0.05277085 0.1999897 -0.4472551
v 0.2579715 0.1999897 -0.5843423
vn -0.003921509 -0.9999924 0
vn -0.003921509 -0.9999924 0
vn -0.003921509 -0.9999924 0
vn -0.003921509 -0.9999924 0
vn -0.003921509 -0.9999924 0
vn -0.003921509 -0.9999924 0
vn -0.003921509 -0.9999924 0
vn -0.003921509 -0.9999924 0
vn -0.003921509 -0.9999924 0
vn -0.003921509 -0.9999924 0
vn -0.003921509 -0.9999924 0
vn -0.003921509 -0.9999924 0
vn -0.003921509 -0.9999924 0
vn -0.003921509 -0.9999924 0
vn -0.003921509 -0.9999924 0
vn -0.003921509 -0.9999924 0
vn -0.003921509 -0.9999924 0
vn -0.003921509 0.9999923 -0.000345267
vn -0.003921509 0.9999923 -0.000345267
vn -0.003921509 0.9999923 -0.000345267
vn -0.003921509 0.9999923 -0.000345267
vn -0.003921509 0.9999923 -0.000345267
vn -0.003921509 0.9999923 -0.000345267
vn -0.003921509 0.9999923 -0.000345267
vn -0.003921509 0.9999923 -0.000345267
vn -0.003921509 0.9999923 -0.000345267
vn -0.003921509 0.9999923 -0.000345267
vn -0.003921509 0.9999923 -0.000345267
vn -0.003921509 0.9999923 -0.000345267
vn -0.003921509 0.9999923 -0.000345267
vn -0.003921509 0.9999923 -0.000345267
vn -0.003921509 0.9999923 -0.000345267
vn -0.003921509 0.9999923 -0.000345267
vn -0.003921509 0.9999923 -0.000345267
vn -0.003921509 0.003921509 -0.9999846
vn 0.3803893 0.003921509 -0.9248182
vn 0.3803893 0.003921509 -0.9248182
vn -0.003921509 0.003921509 -0.9999846
vn 0.7097985 0.003921509 -0.7043939
vn 0.7097985 0.003921509 -0.7043939
vn 0.9215616 0.003921509 -0.3882124
vn 0.9215616 0.003921509 -0.3882124
vn 0.9999924 0.003921509 0
vn 0.9999924 0.003921509 0
vn 0.9215616 0.003921509 0.3882124
vn 0.9215616 0.003921509 0.3882124
vn 0.7097985 0.003921509 0.7043939
vn 0.7097985 0.003921509 0.7043939
vn 0.3803893 0.003921509 0.9248182
vn 0.3803893 0.003921509 0.9248182
vn -0.003921509 0.003921509 0.9999846
vn -0.003921509 0.003921509 0.9999846
vn -0.3803892 0.003921509 0.9248182
vn -0.3803892 0.003921509 0.9248182
vn -0.7097985 0.003921509 0.7043939
vn -0.7097985 0.003921509 0.7043939
vn -0.9215615 0.003921509 0.3882126
vn -0.9215615 0.003921509 0.3882126
vn -0.9999923 0.003921509 -0.0003449296
vn -0.9999923 0.003921509 -0.0003449296
vn -0.9215615 0.003921509 -0.3882126
vn -0.9215615 0.003921509 -0.3882126
vn -0.7097985 0.003921509 -0.7043939
vn -0.7097985 0.003921509 -0.7043939
vn -0.3803892 0.003921509 -0.9248182
vn -0.3803892 0.003921509 -0.9248182
vn -0.3803892 0.003921509 -0.9248182
vn -0.003921509 0.003921509 -0.9999846
vn -0.3803892 0.003921509 -0.9248182
vn -0.003921509 0.003921509 -0.9999846
vn -0.7097985 0.003921509 -0.7043939
vn -0.7097985 0.003921509 -0.7043939
vn -0.9215615 0.003921509 -0.3882126
vn -0.9215615 0.003921509 -0.3882126
vn -0.9999923 0.003921509 -0.0003449296
vn -0.9999923 0.003921509 -0.0003449296
vn -0.9215615 0.003921509 0.3882126
vn -0.9215615 0.003921509 0.3882126
vn -0.7097985 0.003921509 0.7043939
vn -0.7097985 0.003921509 0.7043939
vn -0.3803892 0.003921509 0.9248182
vn -0.3803892 0.003921509 0.9248182
vn -0.003921509 0.003921509 0.9999846
vn -0.003921509 0.003921509 0.9999846
vn 0.3803893 0.003921509 0.9248182
vn 0.3803893 0.003921509 0.9248182
vn 0.7097985 0.003921509 0.7043939
vn 0.7097985 0.003921509 0.7043939
vn 0.9215616 0.003921509 0.3882124
vn 0.9215616 0.003921509 0.3882124
vn 0.9999924 0.003921509 0
vn 0.9999924 0.003921509 0
vn 0.9215616 0.003921509 -0.3882124
vn 0.9215616 0.003921509 -0.3882124
vn 0.7097985 0.003921509 -0.7043939
vn 0.7097985 0.003921509 -0.7043939
vn 0.3803893 0.003921509 -0.9248182
vn 0.3803893 0.003921509 -0.9248182
vn -0.003921509 0.003921509 -0.9999846
vn 0.3803893 0.003921509 -0.9248182
vn 0.7097985 0.003921509 -0.7043939
vn 0.9215616 0.003921509 -0.3882124
vn 0.9999924 0.003921509 0
vn 0.9215616 0.003921509 0.3882124
vn 0.7097985 0.003921509 0.7043939
vn 0.3803893 0.003921509 0.9248182
vn -0.003921509 0.003921509 0.9999846
vn -0.3803892 0.003921509 0.9248182
vn -0.7097985 0.003921509 0.7043939
vn -0.9215615 0.003921509 0.3882126
vn -0.9999923 0.003921509 -0.0003449296
vn -0.9215615 0.003921509 -0.3882126
vn -0.7097985 0.003921509 -0.7043939
vn -0.3803892 0.003921509 -0.9248182
g maroonStairs1stMidPillar_refl_new_0
f 3/3/3 2/2/2 1/1/1
f 2/2/2 4/4/4 1/1/1
f 4/4/4 5/5/5 1/1/1
f 5/5/5 6/6/6 1/1/1
f 6/6/6 7/7/7 1/1/1
f 7/7/7 8/8/8 1/1/1
f 8/8/8 9/9/9 1/1/1
f 9/9/9 10/10/10 1/1/1
f 10/10/10 11/11/11 1/1/1
f 11/11/11 12/12/12 1/1/1
f 12/12/12 13/13/13 1/1/1
f 13/13/13 14/14/14 1/1/1
f 14/14/14 15/15/15 1/1/1
f 15/15/15 16/16/16 1/1/1
f 16/16/16 17/17/17 1/1/1
f 17/17/17 3/3/3 1/1/1
f 20/20/20 19/19/19 18/18/18
f 21/21/21 20/20/20 18/18/18
f 22/22/22 21/21/21 18/18/18
f 23/23/23 22/22/22 18/18/18
f 24/24/24 23/23/23 18/18/18
f 25/25/25 24/24/24 18/18/18
f 26/26/26 25/25/25 18/18/18
f 27/27/27 26/26/26 18/18/18
f 28/28/28 27/27/27 18/18/18
f 29/29/29 28/28/28 18/18/18
f 30/30/30 29/29/29 18/18/18
f 31/31/31 30/30/30 18/18/18
f 32/32/32 31/31/31 18/18/18
f 33/33/33 32/32/32 18/18/18
f 34/34/34 33/33/33 18/18/18
f 19/19/19 34/34/34 18/18/18
f 37/37/37 36/36/36 35/35/35
f 38/38/38 37/37/37 35/35/35
f 37/37/37 39/39/39 36/36/36
f 39/39/39 40/40/40 36/36/36
f 39/39/39 41/41/41 40/40/40
f 41/41/41 42/42/42 40/40/40
f 41/41/41 43/43/43 42/42/42
f 43/43/43 44/44/44 42/42/42
f 43/43/43 45/45/45 44/44/44
f 45/45/45 46/46/46 44/44/44
f 45/45/45 47/47/47 46/46/46
f 47/47/47 48/48/48 46/46/46
f 47/47/47 49/49/49 48/48/48
f 49/49/49 50/50/50 48/48/48
f 49/49/49 51/51/51 50/50/50
f 51/51/51 52/52/52 50/50/50
f 51/51/51 53/53/53 52/52/52
f 53/53/53 54/54/54 52/52/52
f 53/53/53 55/55/55 54/54/54
f 55/55/55 56/56/56 54/54/54
f 55/55/55 57/57/57 56/56/56
f 57/57/57 58/58/58 56/56/56
f 57/57/57 59/59/59 58/58/58
f 59/59/59 60/60/60 58/58/58
f 59/59/59 61/61/61 60/60/60
f 61/61/61 62/62/62 60/60/60
f 61/61/61 63/63/63 62/62/62
f 63/63/63 64/64/64 62/62/62
f 63/63/63 65/65/65 64/64/64
f 65/65/65 66/66/66 64/64/64
f 65/65/65 38/38/38 66/66/66
f 38/38/38 35/35/35 66/66/66
f 66/66/66 35/35/35 67/67/67
f 35/35/35 68/68/68 67/67/67
f 67/67/67 68/68/68 69/69/69
f 68/68/68 70/70/70 69/69/69
f 67/67/67 69/69/69 71/71/71
f 72/72/72 67/67/67 71/71/71
f 66/66/66 67/67/67 72/72/72
f 64/64/64 66/66/66 72/72/72
f 72/72/72 71/71/71 73/73/73
f 74/74/74 72/72/72 73/73/73
f 64/64/64 72/72/72 74/74/74
f 62/62/62 64/64/64 74/74/74
f 74/74/74 73/73/73 75/75/75
f 76/76/76 74/74/74 75/75/75
f 62/62/62 74/74/74 76/76/76
f 60/60/60 62/62/62 76/76/76
f 76/76/76 75/75/75 77/77/77
f 78/78/78 76/76/76 77/77/77
f 60/60/60 76/76/76 78/78/78
f 58/58/58 60/60/60 78/78/78
f 78/78/78 77/77/77 79/79/79
f 80/80/80 78/78/78 79/79/79
f 58/58/58 78/78/78 80/80/80
f 56/56/56 58/58/58 80/80/80
f 80/80/80 79/79/79 81/81/81
f 82/82/82 80/80/80 81/81/81
f 56/56/56 80/80/80 82/82/82
f 54/54/54 56/56/56 82/82/82
f 82/82/82 81/81/81 83/83/83
f 84/84/84 82/82/82 83/83/83
f 54/54/54 82/82/82 84/84/84
f 52/52/52 54/54/54 84/84/84
f 84/84/84 83/83/83 85/85/85
f 86/86/86 84/84/84 85/85/85
f 52/52/52 84/84/84 86/86/86
f 50/50/50 52/52/52 86/86/86
f 86/86/86 85/85/85 87/87/87
f 88/88/88 86/86/86 87/87/87
f 50/50/50 86/86/86 88/88/88
f 48/48/48 50/50/50 88/88/88
f 88/88/88 87/87/87 89/89/89
f 90/90/90 88/88/88 89/89/89
f 48/48/48 88/88/88 90/90/90
f 46/46/46 48/48/48 90/90/90
f 90/90/90 89/89/89 91/91/91
f 92/92/92 90/90/90 91/91/91
f 46/46/46 90/90/90 92/92/92
f 44/44/44 46/46/46 92/92/92
f 92/92/92 91/91/91 93/93/93
f 94/94/94 92/92/92 93/93/93
f 44/44/44 92/92/92 94/94/94
f 42/42/42 44/44/44 94/94/94
f 94/94/94 93/93/93 95/95/95
f 96/96/96 94/94/94 95/95/95
f 42/42/42 94/94/94 96/96/96
f 40/40/40 42/42/42 96/96/96
f 96/96/96 95/95/95 97/97/97
f 98/98/98 96/96/96 97/97/97
f 40/40/40 96/96/96 98/98/98
f 36/36/36 40/40/40 98/98/98
f 98/98/98 97/97/97 70/70/70
f 68/68/68 98/98/98 70/70/70
f 36/36/36 98/98/98 68/68/68
f 35/35/35 36/36/36 68/68/68
f 70/70/70 97/97/97 99/99/99
f 97/97/97 100/100/100 99/99/99
f 97/97/97 95/95/95 100/100/100
f 95/95/95 101/101/101 100/100/100
f 95/95/95 93/93/93 101/101/101
f 93/93/93 102/102/102 101/101/101
f 93/93/93 91/91/91 102/102/102
f 91/91/91 103/103/103 102/102/102
f 91/91/91 89/89/89 103/103/103
f 89/89/89 104/104/104 103/103/103
f 89/89/89 87/87/87 104/104/104
f 87/87/87 105/105/105 104/104/104
f 87/87/87 85/85/85 105/105/105
f 85/85/85 106/106/106 105/105/105
f 85/85/85 83/83/83 106/106/106
f 83/83/83 107/107/107 106/106/106
f 83/83/83 81/81/81 107/107/107
f 81/81/81 108/108/108 107/107/107
f 81/81/81 79/79/79 108/108/108
f 79/79/79 109/109/109 108/108/108
f 79/79/79 77/77/77 109/109/109
f 77/77/77 110/110/110 109/109/109
f 77/77/77 75/75/75 110/110/110
f 75/75/75 111/111/111 110/110/110
f 75/75/75 73/73/73 111/111/111
f 73/73/73 112/112/112 111/111/111
f 73/73/73 71/71/71 112/112/112
f 71/71/71 113/113/113 112/112/112
f 71/71/71 69/69/69 113/113/113
f 69/69/69 114/114/114 113/113/113
f 69/69/69 70/70/70 114/114/114
f 70/70/70 99/99/99 114/114/114
