g packageBoxTopFlap1
v -0.7440026 0.02755141 0.2545763
v -0.2480009 0.02755141 0.05135357
v -0.2480009 0.02755141 0.2545763
v -0.7440026 0.02755141 0.05135357
v -0.2480009 -1.93119E-05 1.91927E-05
v -0.7440026 -1.93119E-05 1.91927E-05
v -1.234083 0.02755141 0.05135357
v 0.248001 -1.93119E-05 1.91927E-05
v 0.248001 0.02755141 0.05135357
v -0.2480009 0.02755141 0.2545763
v 0.248001 0.02755141 0.2545763
v -0.7440026 -0.01243949 1.91927E-05
v -0.2480009 -0.01243949 1.91927E-05
v 0.7440028 -1.93119E-05 1.91927E-05
v 0.7440028 0.02755141 0.05135357
v 0.248001 -0.01243949 1.91927E-05
v -1.254078 -1.93119E-05 1.91927E-05
v -1.26 -0.01240098 1.91927E-05
v -0.7440026 0.01513112 0.05135357
v -1.240005 0.01513112 0.05135357
v -1.26 -0.006017923 1.91927E-05
v -1.240005 0.02155268 0.05135357
v -1.240005 0.01513112 0.2565374
v -1.240005 0.01513112 0.2565374
v -1.240005 0.02155268 0.2565374
v -1.234083 0.02755141 0.2545763
v -1.240005 0.01513112 0.4617597
v -1.240005 0.02159119 0.4617597
v -0.2480009 0.01513112 0.05135357
v -0.7440026 0.01513112 0.2565374
v 0.248001 0.01513112 0.05135357
v -0.2480009 0.01513112 0.2565374
v -0.7440026 0.01513112 0.4617597
v -1.240005 0.01513112 0.6669818
v -1.240005 0.02159119 0.4617597
v -1.240005 0.02159119 0.6669818
v -0.7440026 0.01513112 0.6669818
v -0.2480009 0.01513112 0.4617597
v -1.240005 0.02159119 0.6669818
v 0.248001 0.01513112 0.2565374
v 0.248001 0.01513112 0.4617597
v 0.7440028 -0.01243949 1.91927E-05
v 0.7440028 0.01513112 0.05135357
v -0.7440026 0.02159119 0.6669818
v -1.234083 0.02755141 0.6610601
v 0.7440028 0.01513112 0.2565374
v 1.254001 -1.93119E-05 1.91927E-05
v 1.26 -0.01243949 1.91927E-05
v 1.26 -0.006017923 1.91927E-05
v 1.233968 0.02755141 0.05135357
v 1.240005 0.01513112 0.05135357
v 1.240005 0.02155268 0.05135357
v 1.240005 0.02155268 0.2565374
v 1.240005 0.01513112 0.2565374
v 0.7440028 0.01513112 0.4617597
v 1.240005 0.01513112 0.4617597
v 0.7440028 0.02755141 0.2545763
v 1.234006 0.02755141 0.2545763
v 1.240005 0.02155268 0.05135357
v 1.240005 0.02155268 0.2565374
v 1.240005 0.02159119 0.4617597
v 1.240005 0.02155268 0.2565374
v 1.240005 0.01513112 0.4617597
v 1.240005 0.02159119 0.6669818
v 1.240005 0.01513112 0.6669818
v 0.248001 0.02755141 0.4578375
v 0.248001 0.02755141 0.2545763
v 0.7440028 0.02755141 0.4578375
v -0.2480009 0.02755141 0.4578375
v -0.2480009 0.02755141 0.2545763
v -0.7440026 0.02755141 0.4578375
v -0.7440026 0.02755141 0.2545763
v -0.2480009 0.02755141 0.6610601
v -0.7440026 0.02755141 0.6610601
v 0.248001 0.02755141 0.6610986
v -1.234083 0.02755141 0.457799
v -0.2480009 0.02159119 0.6669818
v 0.248001 0.02159119 0.6669818
v -0.2480009 0.01513112 0.6669818
v -0.2480009 0.01513112 0.4617597
v -0.7440026 0.01513112 0.4617597
v 0.248001 0.01513112 0.6669818
v 0.7440028 0.01513112 0.4617597
v 0.7440028 0.01513112 0.6669818
v 1.240005 0.01513112 0.4617597
v 0.7440028 0.02159119 0.6669818
v 0.7440028 0.01513112 0.6669818
v 1.240005 0.02159119 0.6669818
v 0.7440028 0.02755141 0.6610986
v 1.234006 0.02755141 0.6610986
v 1.240005 0.02159119 0.4617597
v 1.234006 0.02755141 0.4578375
v 1.234006 0.02755141 0.4578375
v 1.234006 0.02755141 0.2545763
v 0.7440028 0.02755141 0.2545763
v 1.240005 0.02155268 0.2565374
v 1.234006 0.02755141 0.4578375
v 1.240005 0.02159119 0.4617597
v -1.234083 0.02755141 0.2545763
v -1.234083 0.02755141 0.05135357
v -0.7440026 0.02755141 0.05135357
v -0.7440026 0.02755141 0.2545763
v -1.240005 0.02155268 0.2565374
v -1.234083 0.02755141 0.2545763
v -1.234083 0.02755141 0.457799
v -1.240005 0.02159119 0.6669818
v -1.234083 0.02755141 0.457799
v -1.234083 0.02755141 0.2545763
v -0.7440026 0.02755141 0.2545763
v -0.7440026 0.02755141 0.4578375
vt 0.5303602 0.9638127
vt 0.5303602 0.9638127
vt 0.5303602 0.9638127
vt 0.5303602 0.9638127
vt 0.5303602 0.9638127
vt 0.5303602 0.9638127
vt 0.5303602 0.9638127
vt 0.5303602 0.9638127
vt 0.5303602 0.9638127
vt 0.5303602 0.9638127
vt 0.5303602 0.9638127
vt 0.5303602 0.9638127
vt 0.5303602 0.9638127
vt 0.5303602 0.9638127
vt 0.5303602 0.9638127
vt 0.5303602 0.9638127
vt 0.5303602 0.9638127
vt 0.5303602 0.9638127
vt 0.5303602 0.9638127
vt 0.5303602 0.9638127
vt 0.5303602 0.9638127
vt 0.5303602 0.9638127
vt 0.5303602 0.9638127
vt 0.5303602 0.9638127
vt 0.5303602 0.9638127
vt 0.5303602 0.9638127
vt 0.5303602 0.9638127
vt 0.5303602 0.9638127
vt 0.5303602 0.9638127
vt 0.5303602 0.9638127
vt 0.5303602 0.9638127
vt 0.5303602 0.9638127
vt 0.5303602 0.9638127
vt 0.5303602 0.9638127
vt 0.5303602 0.9638127
vt 0.5303602 0.9638127
vt 0.5303602 0.9638127
vt 0.5303602 0.9638127
vt 0.5303602 0.9638127
vt 0.5303602 0.9638127
vt 0.5303602 0.9638127
vt 0.5303602 0.9638127
vt 0.5303602 0.9638127
vt 0.5303602 0.9638127
vt 0.5303602 0.9638127
vt 0.5303602 0.9638127
vt 0.5303602 0.9638127
vt 0.5303602 0.9638127
vt 0.5303602 0.9638127
vt 0.5303602 0.9638127
vt 0.5303602 0.9638127
vt 0.5303602 0.9638127
vt 0.5303602 0.9638127
vt 0.5303602 0.9638127
vt 0.5303602 0.9638127
vt 0.5303602 0.9638127
vt 0.5303602 0.9638127
vt 0.5303602 0.9638127
vt 0.5303602 0.9638127
vt 0.5303602 0.9638127
vt 0.5303602 0.9638127
vt 0.5303602 0.9638127
vt 0.5303602 0.9638127
vt 0.5303602 0.9638127
vt 0.5303602 0.9638127
vt 0.5303602 0.9638127
vt 0.5303602 0.9638127
vt 0.5303602 0.9638127
vt 0.5303602 0.9638127
vt 0.5303602 0.9638127
vt 0.5303602 0.9638127
vt 0.5303602 0.9638127
vt 0.5303602 0.9638127
vt 0.5303602 0.9638127
vt 0.5303602 0.9638127
vt 0.5303602 0.9638127
vt 0.5303602 0.9638127
vt 0.5303602 0.9638127
vt 0.5303602 0.9638127
vt 0.5303602 0.9638127
vt 0.5303602 0.9638127
vt 0.5303602 0.9638127
vt 0.5303602 0.9638127
vt 0.5303602 0.9638127
vt 0.5303602 0.9638127
vt 0.5303602 0.9638127
vt 0.5303602 0.9638127
vt 0.5303602 0.9638127
vt 0.5303602 0.9638127
vt 0.5303602 0.9638127
vt 0.5303602 0.9638127
vt 0.5303602 0.9638127
vt 0.5303602 0.9638127
vt 0.5303602 0.9638127
vt 0.5303602 0.9638127
vt 0.5303602 0.9638127
vt 0.5303602 0.9638127
vt 0.5303602 0.9638127
vt 0.5303602 0.9638127
vt 0.5303602 0.9638127
vt 0.5303602 0.9638127
vt 0.5303602 0.9638127
vt 0.5303602 0.9638127
vt 0.5303602 0.9638127
vt 0.5303602 0.9638127
vt 0.5303602 0.9638127
vt 0.5303602 0.9638127
vt 0.5303602 0.9638127
vt 0.5303602 0.9638127
vt 0.5303602 0.9638127
vn -0.003921509 0.9999923 -0.000345267
vn -0.003921509 0.9686199 -0.2485156
vn -0.003921509 0.9999923 -0.000345267
vn -0.003921509 0.9686199 -0.2485156
vn -0.003921509 0.5137215 -0.8579481
vn -0.003921509 0.5137215 -0.8579481
vn -0.3333308 0.9215615 -0.1990353
vn -0.003921509 0.5137215 -0.8579481
vn -0.003921509 0.9686199 -0.2485156
vn -0.003921509 0.9999923 -0.000345267
vn -0.003921509 0.9999923 -0.000345267
vn -0.003921509 -0.858817 -0.5122675
vn -0.003921509 -0.858817 -0.5122675
vn -0.003921509 0.5137215 -0.8579481
vn -0.003921509 0.9686199 -0.2485156
vn -0.003921509 -0.858817 -0.5122675
vn -0.3490169 0.5921522 -0.7263215
vn -0.6392107 -0.6784262 -0.362143
vn -0.003921509 -0.9686201 0.2485151
vn -0.6862692 -0.6470539 0.3321985
vn -0.8117584 0.2156845 -0.5427048
vn -0.8967644 0.4425082 0
vn -0.7071068 -0.7071068 0
vn -0.7071068 -0.7071068 0
vn -0.9215615 0.3803892 -0.07764315
vn -0.3882322 0.9215615 -0.000345267
vn -0.7071068 -0.7071068 0
vn -0.9215615 0.3803892 -0.07764315
vn -0.003921509 -0.9686201 0.2485151
vn -0.003921509 -0.9999924 0
vn -0.003921509 -0.9686201 0.2485151
vn -0.003921509 -0.9999924 0
vn -0.003921509 -0.9999924 0
vn -0.5764661 -0.5764662 0.5791144
vn -0.9215615 0.3803892 -0.07764315
vn -0.6548969 0.3882322 0.6483717
vn -0.003921509 -0.7097985 0.7043939
vn -0.003921509 -0.9999924 0
vn -0.6548969 0.3882322 0.6483717
vn -0.003921509 -0.9999924 0
vn -0.003921509 -0.9999924 0
vn -0.003921509 -0.858817 -0.5122675
vn -0.003921509 -0.9686201 0.2485151
vn -0.003921509 0.3803892 0.9248182
vn -0.3019584 0.9058753 0.2970034
vn -0.003921509 -0.9999924 0
vn 0.349017 0.5921522 -0.7263215
vn 0.6392108 -0.6784262 -0.3621429
vn 0.8117585 0.2156845 -0.5427046
vn 0.3333308 0.9294046 -0.1584222
vn 0.6862693 -0.6470539 0.3321983
vn 0.8901893 0.4509768 0.0646755
vn 0.9215616 0.3803892 -0.07764199
vn 0.7071068 -0.7071068 0
vn -0.003921509 -0.9999924 0
vn 0.7071068 -0.7071068 0
vn -0.003921509 0.9999923 -0.000345267
vn 0.3803893 0.9215615 -0.07764286
vn 0.8901893 0.4509768 0.0646755
vn 0.9215616 0.3803892 -0.07764199
vn 0.9215616 0.3803892 -0.07764199
vn 0.9215616 0.3803892 -0.07764199
vn 0.7071068 -0.7071068 0
vn 0.654897 0.3882322 0.6483716
vn 0.5764662 -0.5764662 0.5791144
vn -0.003921509 0.9999923 -0.000345267
vn -0.003921509 0.9999923 -0.000345267
vn -0.003921509 0.9999923 -0.000345267
vn -0.003921509 0.9999923 -0.000345267
vn -0.003921509 0.9999923 -0.000345267
vn -0.003921509 0.9999923 -0.000345267
vn -0.003921509 0.9999923 -0.000345267
vn -0.003921509 0.9215615 0.3882126
vn -0.003921509 0.9215615 0.3882126
vn -0.003921509 0.9215615 0.3882126
vn -0.3882322 0.9215615 -0.000345267
vn -0.003921509 0.3803892 0.9248182
vn -0.003921509 0.3803892 0.9248182
vn -0.003921509 -0.7097985 0.7043939
vn -0.003921509 -0.9999924 0
vn -0.003921509 -0.9999924 0
vn -0.003921509 -0.7097985 0.7043939
vn -0.003921509 -0.9999924 0
vn -0.003921509 -0.7097985 0.7043939
vn 0.7071068 -0.7071068 0
vn -0.003921509 0.3803892 0.9248182
vn -0.003921509 -0.7097985 0.7043939
vn 0.654897 0.3882322 0.6483716
vn -0.003921509 0.9215615 0.3882126
vn 0.3019585 0.9058753 0.2970033
vn 0.9215616 0.3803892 -0.07764199
vn 0.3803893 0.9215615 -0.07764286
vn 0.3803893 0.9215615 -0.07764286
vn 0.3803893 0.9215615 -0.07764286
vn -0.003921509 0.9999923 -0.000345267
vn 0.9215616 0.3803892 -0.07764199
vn 0.3803893 0.9215615 -0.07764286
vn 0.9215616 0.3803892 -0.07764199
vn -0.3882322 0.9215615 -0.000345267
vn -0.3333308 0.9215615 -0.1990353
vn -0.003921509 0.9686199 -0.2485156
vn -0.003921509 0.9999923 -0.000345267
vn -0.9215615 0.3803892 -0.07764315
vn -0.3882322 0.9215615 -0.000345267
vn -0.3882322 0.9215615 -0.000345267
vn -0.6548969 0.3882322 0.6483717
vn -0.3882322 0.9215615 -0.000345267
vn -0.3882322 0.9215615 -0.000345267
vn -0.003921509 0.9999923 -0.000345267
vn -0.003921509 0.9999923 -0.000345267
g packageBoxTopFlap1_0
f 3/3/3 2/2/2 1/1/1
f 2/2/2 4/4/4 1/1/1
f 2/2/2 5/5/5 4/4/4
f 5/5/5 6/6/6 4/4/4
f 4/4/4 6/6/6 7/7/7
f 8/8/8 5/5/5 2/2/2
f 9/9/9 8/8/8 2/2/2
f 9/9/9 2/2/2 10/10/10
f 11/11/11 9/9/9 10/10/10
f 12/12/12 6/6/6 5/5/5
f 13/13/13 5/5/5 8/8/8
f 13/13/13 12/12/12 5/5/5
f 14/14/14 8/8/8 9/9/9
f 15/15/15 9/9/9 11/11/11
f 15/15/15 14/14/14 9/9/9
f 16/16/16 13/13/13 8/8/8
f 16/16/16 8/8/8 14/14/14
f 6/6/6 17/17/17 7/7/7
f 6/6/6 12/12/12 18/18/18
f 18/18/18 17/17/17 6/6/6
f 12/12/12 13/13/13 19/19/19
f 18/18/18 12/12/12 20/20/20
f 12/12/12 19/19/19 20/20/20
f 18/18/18 21/21/21 17/17/17
f 18/18/18 20/20/20 21/21/21
f 17/17/17 21/21/21 22/22/22
f 7/7/7 17/17/17 22/22/22
f 20/20/20 22/22/22 21/21/21
f 20/20/20 23/23/23 22/22/22
f 20/20/20 19/19/19 24/24/24
f 7/7/7 22/22/22 25/25/25
f 23/23/23 25/25/25 22/22/22
f 26/26/26 7/7/7 25/25/25
f 23/23/23 27/27/27 25/25/25
f 27/27/27 28/28/28 25/25/25
f 13/13/13 29/29/29 19/19/19
f 13/13/13 16/16/16 29/29/29
f 19/19/19 30/30/30 24/24/24
f 24/24/24 30/30/30 27/27/27
f 19/19/19 29/29/29 30/30/30
f 16/16/16 31/31/31 29/29/29
f 29/29/29 32/32/32 30/30/30
f 29/29/29 31/31/31 32/32/32
f 30/30/30 33/33/33 27/27/27
f 30/30/30 32/32/32 33/33/33
f 27/27/27 33/33/33 34/34/34
f 27/27/27 34/34/34 35/35/35
f 34/34/34 36/36/36 35/35/35
f 33/33/33 37/37/37 34/34/34
f 32/32/32 38/38/38 33/33/33
f 34/34/34 37/37/37 39/39/39
f 32/32/32 40/40/40 38/38/38
f 31/31/31 40/40/40 32/32/32
f 40/40/40 41/41/41 38/38/38
f 16/16/16 42/42/42 31/31/31
f 42/42/42 16/16/16 14/14/14
f 31/31/31 43/43/43 40/40/40
f 42/42/42 43/43/43 31/31/31
f 37/37/37 44/44/44 39/39/39
f 45/45/45 39/39/39 44/44/44
f 40/40/40 46/46/46 41/41/41
f 43/43/43 46/46/46 40/40/40
f 42/42/42 14/14/14 47/47/47
f 47/47/47 14/14/14 15/15/15
f 42/42/42 48/48/48 43/43/43
f 42/42/42 47/47/47 49/49/49
f 49/49/49 48/48/48 42/42/42
f 50/50/50 47/47/47 15/15/15
f 47/47/47 50/50/50 49/49/49
f 48/48/48 51/51/51 43/43/43
f 43/43/43 51/51/51 46/46/46
f 48/48/48 49/49/49 52/52/52
f 50/50/50 52/52/52 49/49/49
f 51/51/51 48/48/48 52/52/52
f 51/51/51 52/52/52 53/53/53
f 54/54/54 51/51/51 53/53/53
f 51/51/51 54/54/54 46/46/46
f 46/46/46 54/54/54 55/55/55
f 54/54/54 56/56/56 55/55/55
f 50/50/50 15/15/15 57/57/57
f 57/57/57 15/15/15 11/11/11
f 58/58/58 50/50/50 57/57/57
f 50/50/50 58/58/58 59/59/59
f 58/58/58 60/60/60 59/59/59
f 54/54/54 62/62/62 61/61/61
f 63/63/63 54/54/54 61/61/61
f 63/63/63 61/61/61 64/64/64
f 65/65/65 63/63/63 64/64/64
f 57/57/57 67/67/67 66/66/66
f 68/68/68 57/57/57 66/66/66
f 66/66/66 11/11/11 69/69/69
f 11/11/11 70/70/70 69/69/69
f 69/69/69 70/70/70 71/71/71
f 70/70/70 72/72/72 71/71/71
f 66/66/66 69/69/69 73/73/73
f 69/69/69 71/71/71 74/74/74
f 73/73/73 69/69/69 74/74/74
f 68/68/68 66/66/66 75/75/75
f 75/75/75 66/66/66 73/73/73
f 74/74/74 71/71/71 45/45/45
f 71/71/71 76/76/76 45/45/45
f 74/74/74 45/45/45 44/44/44
f 73/73/73 74/74/74 77/77/77
f 74/74/74 44/44/44 77/77/77
f 75/75/75 73/73/73 78/78/78
f 73/73/73 77/77/77 78/78/78
f 79/79/79 77/77/77 44/44/44
f 37/37/37 79/79/79 44/44/44
f 80/80/80 79/79/79 37/37/37
f 81/81/81 80/80/80 37/37/37
f 80/80/80 41/41/41 79/79/79
f 79/79/79 82/82/82 77/77/77
f 41/41/41 82/82/82 79/79/79
f 82/82/82 78/78/78 77/77/77
f 41/41/41 83/83/83 82/82/82
f 46/46/46 83/83/83 41/41/41
f 83/83/83 84/84/84 82/82/82
f 82/82/82 84/84/84 78/78/78
f 83/83/83 85/85/85 84/84/84
f 85/85/85 65/65/65 84/84/84
f 84/84/84 86/86/86 78/78/78
f 87/87/87 65/65/65 86/86/86
f 75/75/75 78/78/78 86/86/86
f 65/65/65 88/88/88 86/86/86
f 89/89/89 75/75/75 86/86/86
f 89/89/89 86/86/86 88/88/88
f 89/89/89 68/68/68 75/75/75
f 90/90/90 89/89/89 88/88/88
f 90/90/90 88/88/88 91/91/91
f 92/92/92 90/90/90 91/91/91
f 90/90/90 93/93/93 89/89/89
f 93/93/93 68/68/68 89/89/89
f 93/93/93 94/94/94 68/68/68
f 94/94/94 95/95/95 68/68/68
f 94/94/94 97/97/97 96/96/96
f 97/97/97 98/98/98 96/96/96
f 101/101/101 100/100/100 99/99/99
f 102/102/102 101/101/101 99/99/99
f 104/104/104 103/103/103 35/35/35
f 105/105/105 104/104/104 35/35/35
f 107/107/107 35/35/35 106/106/106
f 45/45/45 107/107/107 106/106/106
f 109/109/109 108/108/108 76/76/76
f 110/110/110 109/109/109 76/76/76
