g pearLeaf1_mesh
v 0.18 0 0
v -0.18 0 0
v 0.18 -0.09090909 0
v -0.18 -0.09090909 0
v 0.18 -0.1818182 0
v -0.18 -0.1818182 0
v 0.18 -0.2727273 0
v -0.18 -0.2727273 0
v 0.18 -0.3636364 0
v -0.18 -0.3636364 0
v 0.18 -0.4545455 0
v -0.18 -0.4545455 0
v 0.18 -0.5454546 0
v -0.18 -0.5454546 0
v 0.18 -0.6363636 0
v -0.18 -0.6363636 0
v 0.18 -0.7272727 0
v -0.18 -0.7272727 0
v 0.18 -0.8181819 0
v -0.18 -0.8181819 0
v 0.18 -0.909091 0
v -0.18 -0.909091 0
v 0.18 -1 0
v -0.18 -1 0
vt 0.6650391 0.3325195
vt 0.6972656 0.3325195
vt 0.6650391 0.3258612
vt 0.6972656 0.3258612
vt 0.6650391 0.3192028
vt 0.6972656 0.3192028
vt 0.6650391 0.3125444
vt 0.6972656 0.3125444
vt 0.6650391 0.305886
vt 0.6972656 0.305886
vt 0.6650391 0.2992276
vt 0.6972656 0.2992276
vt 0.6650391 0.2925692
vt 0.6972656 0.2925692
vt 0.6650391 0.2859109
vt 0.6972656 0.2859109
vt 0.6650391 0.2792525
vt 0.6972656 0.2792525
vt 0.6650391 0.2725941
vt 0.6972656 0.2725941
vt 0.6650391 0.2659357
vt 0.6972656 0.2659357
vt 0.6650391 0.2592773
vt 0.6972656 0.2592773
vn 0 0 -1
vn 0 0 -1
vn 0 0 -1
vn 0 0 -1
vn 0 0 -1
vn 0 0 -1
vn 0 0 -1
vn 0 0 -1
vn 0 0 -1
vn 0 0 -1
vn 0 0 -1
vn 0 0 -1
vn 0 0 -1
vn 0 0 -1
vn 0 0 -1
vn 0 0 -1
vn 0 0 -0.9999999
vn 0 0 -0.9999999
vn 0 0 -0.9999999
vn 0 0 -0.9999999
vn 0 0 -0.9999999
vn 0 0 -0.9999999
vn 0 0 -1
vn 0 0 -1
g pearLeaf1_mesh_0
f 3/3/3 2/2/2 1/1/1
f 4/4/4 2/2/2 3/3/3
f 5/5/5 4/4/4 3/3/3
f 6/6/6 4/4/4 5/5/5
f 7/7/7 6/6/6 5/5/5
f 8/8/8 6/6/6 7/7/7
f 9/9/9 8/8/8 7/7/7
f 10/10/10 8/8/8 9/9/9
f 11/11/11 10/10/10 9/9/9
f 12/12/12 10/10/10 11/11/11
f 13/13/13 12/12/12 11/11/11
f 14/14/14 12/12/12 13/13/13
f 15/15/15 14/14/14 13/13/13
f 16/16/16 14/14/14 15/15/15
f 17/17/17 16/16/16 15/15/15
f 18/18/18 16/16/16 17/17/17
f 19/19/19 18/18/18 17/17/17
f 20/20/20 18/18/18 19/19/19
f 21/21/21 20/20/20 19/19/19
f 22/22/22 20/20/20 21/21/21
f 23/23/23 22/22/22 21/21/21
f 24/24/24 22/22/22 23/23/23
