g pearLeg_mesh
v 0.066 0 0
v -0.066 0 0
v 0.066 -0.15 0
v -0.066 -0.15 0
v 0.066 -0.27 0
v -0.066 -0.27 0
v 0.066 -0.36 0
v -0.066 -0.36 0
v 0.066 -0.42 0
v -0.066 -0.42 0
v 0.066 -0.45 0
v -0.066 -0.45 0
v 0.066 -0.45 0
v -0.066 -0.45 0
v 0.066 -0.48 0
v -0.066 -0.48 0
v 0.066 -0.54 0
v -0.066 -0.54 0
v 0.066 -0.6299999 0
v -0.066 -0.6299999 0
v 0.066 -0.7499999 0
v -0.066 -0.7499999 0
v 0.066 -0.8999999 0
v -0.066 -0.8999999 0
vt 0.8463867 0.09013672
vt 0.8567383 0.09013672
vt 0.8463867 0.07937825
vt 0.8567383 0.07937825
vt 0.8463867 0.07077149
vt 0.8567383 0.07077149
vt 0.8463867 0.06431641
vt 0.8567383 0.06431641
vt 0.8463867 0.06001302
vt 0.8567383 0.06001302
vt 0.8463867 0.05786133
vt 0.8567383 0.05786133
vt 0.8463867 0.05786133
vt 0.8567383 0.05786133
vt 0.8463867 0.05570964
vt 0.8567383 0.05570964
vt 0.8463867 0.05140625
vt 0.8567383 0.05140625
vt 0.8463867 0.04495117
vt 0.8567383 0.04495117
vt 0.8463867 0.03634441
vt 0.8567383 0.03634441
vt 0.8463867 0.02558594
vt 0.8567383 0.02558594
vn 0 0 -1
vn 0 0 -1
vn 0 0 -0.9999999
vn 0 0 -1
vn 0 0 -1
vn 0 0 -1
vn 0 0 -1
vn 0 0 -1
vn 0 0 -1
vn 0 0 -1
vn 0 0 -1
vn 0 0 -1
vn 0 0 -1
vn 0 0 -1
vn 0 0 -1
vn 0 0 -1
vn 0 0 -1
vn 0 0 -1
vn 0 0 -1
vn 0 0 -1
vn 0 0 -1
vn 0 0 -0.9999999
vn 0 0 -1
vn 0 0 -1
g pearLeg_mesh_0
f 3/3/3 2/2/2 1/1/1
f 4/4/4 2/2/2 3/3/3
f 5/5/5 4/4/4 3/3/3
f 6/6/6 4/4/4 5/5/5
f 7/7/7 6/6/6 5/5/5
f 8/8/8 6/6/6 7/7/7
f 9/9/9 8/8/8 7/7/7
f 10/10/10 8/8/8 9/9/9
f 11/11/11 10/10/10 9/9/9
f 12/12/12 10/10/10 11/11/11
f 13/13/13 12/12/12 11/11/11
f 14/14/14 12/12/12 13/13/13
f 15/15/15 14/14/14 13/13/13
f 16/16/16 14/14/14 15/15/15
f 17/17/17 16/16/16 15/15/15
f 18/18/18 16/16/16 17/17/17
f 19/19/19 18/18/18 17/17/17
f 20/20/20 18/18/18 19/19/19
f 21/21/21 20/20/20 19/19/19
f 22/22/22 20/20/20 21/21/21
f 23/23/23 22/22/22 21/21/21
f 24/24/24 22/22/22 23/23/23
