g pictureFrame2_AO+Lightbaked
v 0.3033371 0.8000001 -0.0749889
v 0.792163 0.8000001 -0.0749889
v 0.7922118 0.8000001 0.07498902
v 0.3033371 0.8000001 0.07498902
v 0.3033371 0.7499993 -0.08590215
v 0.7419913 0.7499993 -0.08590215
v 0.3033371 0.7114245 -0.07642931
v 0.7033188 0.7114245 -0.07642931
v 0.6978012 0.7059314 -0.07638049
v 0.3033371 0.7059314 -0.07638049
v 0.3033371 0.6821761 -0.08822149
v 0.6740704 0.6821761 -0.08822149
v 0.6660136 0.6740217 -0.08841681
v 0.3033371 0.6740217 -0.08841681
v 0.3033371 0.6435036 -0.0749889
v 0.6356176 0.6435036 -0.0749889
v 0.6256565 0.6334937 -0.03448534
v 0.3033371 0.6334937 -0.03448534
v 0.6435035 0.6356178 -0.0749889
v 0.6334935 0.6256811 -0.03448534
v 0.6821759 0.6740704 -0.08822149
v 0.6740215 0.6660137 -0.08841681
v 0.7114244 0.703319 -0.07642931
v 0.7059312 0.6978013 -0.07638049
v 0.6821759 0.2923263 -0.08822149
v 0.7059312 0.2923263 -0.07638049
v -0.3033373 0.6435036 -0.0749889
v -0.3033373 0.6334937 -0.03448534
v -0.6356178 0.6435036 -0.0749889
v -0.6256567 0.6334937 -0.03448534
v -0.6334937 0.6256811 -0.03448534
v -0.6435036 0.6356178 -0.0749889
v -0.6435036 0.2923263 -0.0749889
v -0.6334937 0.2923263 -0.03448534
v -0.6660137 0.6740217 -0.08841681
v -0.6740217 0.6660137 -0.08841681
v -0.6740704 0.6821761 -0.08822149
v -0.6821761 0.6740704 -0.08822149
v -0.6821761 0.2923263 -0.08822149
v -0.6740217 0.2923263 -0.08841681
v -0.7059314 0.6978013 -0.07638049
v -0.7059314 0.2923263 -0.07638049
v -0.7114245 0.2923263 -0.07642931
v -0.7114245 0.703319 -0.07642931
v -0.7499993 0.7419915 -0.08590215
v -0.7499993 0.2923263 -0.08590215
v -0.8000001 0.7921631 -0.0749889
v -0.8000001 0.2923263 -0.0749889
v -0.7921631 0.8000001 -0.0749889
v -0.7922119 0.8000001 0.07498902
v -0.8000001 0.7922119 0.07498902
v -0.7419915 0.7499993 -0.08590215
v -0.703319 0.7114245 -0.07642931
v -0.6978013 0.7059314 -0.07638049
v -0.3033373 0.7059314 -0.07638049
v -0.3033373 0.7114245 -0.07642931
v -0.3033373 0.8000001 -0.0749889
v -0.3033373 0.7499993 -0.08590215
v -0.3033373 0.6821761 -0.08822149
v -0.3033373 0.6740217 -0.08841681
v -0.3033373 0.8000001 0.07498902
v -0.8000001 -0.2923262 0.07498902
v -0.8000001 -0.7922118 0.07498902
v -0.8000001 -0.792163 -0.0749889
v -0.8000001 -0.2923262 -0.0749889
v -0.7921631 -0.8 -0.0749889
v -0.7922119 -0.8 0.07498902
v -0.7419915 -0.7499992 -0.08590215
v -0.3033373 -0.7499992 -0.08590215
v -0.3033373 -0.8 -0.0749889
v -0.3033373 -0.7114244 -0.07642931
v -0.703319 -0.7114244 -0.07642931
v -0.6978013 -0.7059312 -0.07638049
v -0.3033373 -0.7059312 -0.07638049
v -0.3033373 -0.6821759 -0.08822149
v -0.6740704 -0.6821759 -0.08822149
v -0.6660137 -0.6740215 -0.08841681
v -0.3033373 -0.6740215 -0.08841681
v -0.3033373 -0.6435035 -0.0749889
v -0.6356178 -0.6435035 -0.0749889
v -0.6256567 -0.6334935 -0.03448534
v -0.3033373 -0.6334935 -0.03448534
v -0.6435036 -0.6356176 -0.0749889
v -0.6334937 -0.6256565 -0.03448534
v -0.6821761 -0.6740704 -0.08822149
v -0.6740217 -0.6660136 -0.08841681
v -0.6435036 -0.2923262 -0.0749889
v -0.6740217 -0.2923262 -0.08841681
v -0.7059314 -0.6978012 -0.07638049
v -0.7114245 -0.7033188 -0.07642931
v -0.7499993 -0.7419913 -0.08590215
v -0.7059314 -0.2923262 -0.07638049
v -0.6821761 -0.2923262 -0.08822149
v -0.7499993 -0.2923262 -0.08590215
v -0.7114245 -0.2923262 -0.07642931
v -0.8000001 0.2923263 0.07498902
v -0.6334937 -0.2923262 -0.03448534
v 0.6435035 -0.2923262 -0.0749889
v 0.6334935 -0.2923262 -0.03448534
v 0.6334935 -0.6256565 -0.03448534
v 0.6435035 -0.6356176 -0.0749889
v 0.6740215 -0.6660136 -0.08841681
v 0.6740215 -0.2923262 -0.08841681
v 0.6821759 -0.2923262 -0.08822149
v 0.6821759 -0.6740704 -0.08822149
v 0.6356176 -0.6435035 -0.0749889
v 0.6256565 -0.6334935 -0.03448534
v 0.6740704 -0.6821759 -0.08822149
v 0.6660136 -0.6740215 -0.08841681
v 0.6978012 -0.7059312 -0.07638049
v 0.7059312 -0.6978012 -0.07638049
v 0.7033188 -0.7114244 -0.07642931
v 0.7114244 -0.7033188 -0.07642931
v 0.7114244 -0.2923262 -0.07642931
v 0.7059312 -0.2923262 -0.07638049
v 0.7419913 -0.7499992 -0.08590215
v 0.7499992 -0.7419913 -0.08590215
v 0.792163 -0.8 -0.0749889
v 0.8 -0.792163 -0.0749889
v 0.7922118 -0.8 0.07498902
v 0.8 -0.7922118 0.07498902
v 0.8 -0.2923262 0.07498902
v 0.8 -0.2923262 -0.0749889
v 0.8 0.2923263 0.07498902
v 0.8 0.2923263 -0.0749889
v 0.8 0.7922119 0.07498902
v 0.8 0.7921631 -0.0749889
v 0.7499992 0.2923263 -0.08590215
v 0.7499992 0.7419915 -0.08590215
v 0.7114244 0.2923263 -0.07642931
v 0.7499992 -0.2923262 -0.08590215
v 0.6740215 0.2923263 -0.08841681
v 0.6435035 0.2923263 -0.0749889
v 0.6334935 0.2923263 -0.03448534
v -0.3033373 -0.8 0.07498902
v 0.3033371 -0.8 -0.0749889
v 0.3033371 -0.8 0.07498902
v 0.3033371 -0.7499992 -0.08590215
v 0.3033371 -0.7114244 -0.07642931
v 0.3033371 -0.7059312 -0.07638049
v 0.3033371 -0.6821759 -0.08822149
v 0.3033371 -0.6740215 -0.08841681
v 0.3033371 -0.6435035 -0.0749889
v 0.3033371 -0.6334935 -0.03448534
vt 0.7645146 0.7645146
vt 0.7765004 0.7765004
vt 0.5297345 0.5297345
vt 0.5135185 0.5135185
vt 0.9999998 0.9999998
vt 0.9999998 0.9999998
vt 0.9407761 0.9407761
vt 0.988014 0.988014
vt 0.9999998 0.9999998
vt 0.9999998 0.9999998
vt 0.9999998 0.9999998
vt 0.9999998 0.9999998
vt 0.9999998 0.9999998
vt 0.9957696 0.9957696
vt 0.6982403 0.6982403
vt 0.7412482 0.7412482
vt 0.4077616 0.4077616
vt 0.53749 0.53749
vt 0.7370179 0.7370179
vt 0.3957759 0.3957759
vt 0.9999998 0.9999998
vt 0.9999998 0.9999998
vt 0.988014 0.988014
vt 0.9999998 0.9999998
vt 0.9957696 0.9957696
vt 0.9957696 0.9957696
vt 0.6940101 0.6940101
vt 0.53749 0.53749
vt 0.7412482 0.7412482
vt 0.4119919 0.4119919
vt 0.3957759 0.3957759
vt 0.7370179 0.7370179
vt 0.6940101 0.6940101
vt 0.5297345 0.5297345
vt 0.9999998 0.9999998
vt 0.9999998 0.9999998
vt 0.9957696 0.9957696
vt 0.9999998 0.9999998
vt 0.9999998 0.9999998
vt 0.9999998 0.9999998
vt 0.9999998 0.9999998
vt 0.9999998 0.9999998
vt 0.9407761 0.9407761
vt 0.988014 0.988014
vt 0.9999998 0.9999998
vt 0.9999998 0.9999998
vt 0.7447734 0.7447734
vt 0.7645146 0.7645146
vt 0.7412482 0.7412482
vt 0.5255042 0.5255042
vt 0.5297345 0.5297345
vt 0.9999998 0.9999998
vt 0.988014 0.988014
vt 0.9999998 0.9999998
vt 0.9999998 0.9999998
vt 0.9407761 0.9407761
vt 0.7645146 0.7645146
vt 0.9999998 0.9999998
vt 0.9999998 0.9999998
vt 0.9957696 0.9957696
vt 0.5135185 0.5135185
vt 0.5135185 0.5135185
vt 0.5297345 0.5297345
vt 0.7137514 0.7137514
vt 0.7567591 0.7567591
vt 0.7299674 0.7299674
vt 0.5057629 0.5057629
vt 0.9767334 0.9767334
vt 0.9725031 0.9725031
vt 0.753234 0.753234
vt 0.8977683 0.8977683
vt 0.9527618 0.9527618
vt 0.9802586 0.9802586
vt 0.9802586 0.9802586
vt 0.9837838 0.9837838
vt 0.9837838 0.9837838
vt 0.9689779 0.9689779
vt 0.9450063 0.9450063
vt 0.6940101 0.6940101
vt 0.7334927 0.7334927
vt 0.4119919 0.4119919
vt 0.53749 0.53749
vt 0.7179816 0.7179816
vt 0.4000061 0.4000061
vt 0.9802586 0.9802586
vt 0.9725031 0.9725031
vt 0.6862546 0.6862546
vt 0.9767334 0.9767334
vt 0.9767334 0.9767334
vt 0.9689779 0.9689779
vt 0.9725031 0.9725031
vt 0.9837838 0.9837838
vt 0.9837838 0.9837838
vt 0.9725031 0.9725031
vt 0.9217398 0.9217398
vt 0.5135185 0.5135185
vt 0.5255042 0.5255042
vt 0.6827294 0.6827294
vt 0.521979 0.521979
vt 0.3957759 0.3957759
vt 0.7095211 0.7095211
vt 0.9767334 0.9767334
vt 0.9837838 0.9837838
vt 0.9922444 0.9922444
vt 0.9725031 0.9725031
vt 0.7370179 0.7370179
vt 0.4077616 0.4077616
vt 0.9837838 0.9837838
vt 0.9647476 0.9647476
vt 0.9802586 0.9802586
vt 0.9725031 0.9725031
vt 0.9492366 0.9492366
vt 0.9689779 0.9689779
vt 0.925265 0.925265
vt 0.9922444 0.9922444
vt 0.9767334 0.9767334
vt 0.9689779 0.9689779
vt 0.753234 0.753234
vt 0.7299674 0.7299674
vt 0.5057629 0.5057629
vt 0.5297345 0.5297345
vt 0.5135185 0.5135185
vt 0.7567591 0.7567591
vt 0.5135185 0.5135185
vt 0.7609895 0.7609895
vt 0.5297345 0.5297345
vt 0.7447734 0.7447734
vt 0.9999998 0.9999998
vt 0.9999998 0.9999998
vt 0.9407761 0.9407761
vt 0.9767334 0.9767334
vt 0.9957696 0.9957696
vt 0.6897798 0.6897798
vt 0.5339648 0.5339648
vt 0.4782662 0.4782662
vt 0.753234 0.753234
vt 0.474741 0.474741
vt 0.9689779 0.9689779
vt 0.8900128 0.8900128
vt 0.9837838 0.9837838
vt 0.9837838 0.9837838
vt 0.9450063 0.9450063
vt 0.6982403 0.6982403
vt 0.53749 0.53749
vn -0.003921509 0.7803861 -0.6252857
vn 0.3176447 0.7490138 -0.5814466
vn 0.3803893 0.9215615 -0.07764286
vn -0.003921509 0.9999923 -0.000345267
vn -0.003921509 -0.01176465 -0.9999231
vn -0.003921509 0.04313684 -0.9990615
vn -0.003921509 -0.1215677 -0.9925754
vn -0.03529382 -0.1215677 -0.9919555
vn 0.05882311 0.1137246 -0.9917694
vn -0.003921509 0.2235277 -0.9746897
vn -0.003921509 0.2392138 -0.970959
vn 0.06666619 0.2392138 -0.9686756
vn -0.05097997 -0.09803849 -0.993876
vn -0.003921509 -0.1921554 -0.9813567
vn -0.003921509 -0.7647001 -0.6443745
vn -0.2313707 -0.6156816 -0.7532621
vn -0.3333308 -0.8901893 -0.3105699
vn -0.003921509 -0.9686201 -0.2485151
vn -0.6156815 -0.2313708 -0.7532621
vn -0.8901892 -0.3333308 -0.3105701
vn 0.2392139 0.06666613 -0.9686756
vn -0.09803843 -0.05098003 -0.993876
vn -0.1215676 -0.03529388 -0.9919555
vn 0.1137246 0.05882299 -0.9917694
vn 0.2392139 0.003921509 -0.970959
vn 0.2235277 0.003921509 -0.9746897
vn -0.003921509 -0.7647001 -0.6443745
vn -0.003921509 -0.9686201 -0.2485151
vn 0.2313708 -0.6156816 -0.753262
vn 0.3333308 -0.8901893 -0.3105698
vn 0.8901893 -0.3333308 -0.3105698
vn 0.6156816 -0.2313708 -0.753262
vn 0.7647001 0.003921509 -0.6443745
vn 0.9686201 0.003921509 -0.2485151
vn 0.05098003 -0.09803849 -0.993876
vn 0.09803849 -0.05098003 -0.993876
vn -0.06666613 0.2392138 -0.9686756
vn -0.2392138 0.06666613 -0.9686756
vn -0.2392138 0.003921509 -0.970959
vn 0.1921554 0.003921509 -0.9813567
vn -0.1137246 0.05882299 -0.9917694
vn -0.2235277 0.003921509 -0.9746897
vn 0.1215677 0.003921509 -0.9925754
vn 0.1215677 -0.03529388 -0.9919555
vn -0.04313684 -0.003921568 -0.9990615
vn 0.01176465 0.003921509 -0.9999231
vn -0.7490138 0.3176446 -0.5814467
vn -0.7803861 0.003921509 -0.6252857
vn -0.3176446 0.7490138 -0.5814467
vn -0.3803892 0.9215615 -0.07764325
vn -0.9215615 0.3803892 -0.07764315
vn 0.003921568 0.04313684 -0.9990615
vn 0.03529388 -0.1215677 -0.9919555
vn -0.05882299 0.1137246 -0.9917694
vn -0.003921509 0.2235277 -0.9746897
vn -0.003921509 -0.1215677 -0.9925754
vn -0.003921509 0.7803861 -0.6252857
vn -0.003921509 -0.01176465 -0.9999231
vn -0.003921509 0.2392138 -0.970959
vn -0.003921509 -0.1921554 -0.9813567
vn -0.003921509 0.9999923 -0.000345267
vn -0.9999923 0.003921509 -0.0003449296
vn -0.9215615 -0.3803893 -0.07764286
vn -0.7490138 -0.3176447 -0.5814467
vn -0.7803861 0.003921509 -0.6252857
vn -0.3176446 -0.7490139 -0.5814466
vn -0.3803892 -0.9215616 -0.07764209
vn 0.003921568 -0.04313695 -0.9990615
vn -0.003921509 0.01176453 -0.9999231
vn -0.003921509 -0.7803862 -0.6252855
vn -0.003921509 0.1215676 -0.9925754
vn 0.03529388 0.1215676 -0.9919555
vn -0.05882299 -0.1137246 -0.9917694
vn -0.003921509 -0.2235277 -0.9746897
vn -0.003921509 -0.2392139 -0.970959
vn -0.06666613 -0.2392139 -0.9686756
vn 0.05098003 0.09803843 -0.993876
vn -0.003921509 0.1921554 -0.9813567
vn -0.003921509 0.7646999 -0.6443746
vn 0.2313708 0.6156815 -0.7532621
vn 0.3333308 0.8901892 -0.3105701
vn -0.003921509 0.9686199 -0.2485156
vn 0.6156816 0.2313707 -0.753262
vn 0.8901893 0.3333308 -0.3105699
vn -0.2392138 -0.06666619 -0.9686756
vn 0.09803849 0.05097997 -0.993876
vn 0.7647001 0.003921509 -0.6443745
vn 0.1921554 0.003921509 -0.9813567
vn -0.1137246 -0.05882311 -0.9917694
vn 0.1215677 0.03529382 -0.9919555
vn -0.04313684 0.003921509 -0.9990615
vn -0.2235277 0.003921509 -0.9746897
vn -0.2392138 0.003921509 -0.970959
vn 0.01176465 0.003921509 -0.9999231
vn 0.1215677 0.003921509 -0.9925754
vn -0.9999923 0.003921509 -0.0003449296
vn 0.9686201 0.003921509 -0.2485151
vn -0.7646999 0.003921509 -0.6443746
vn -0.9686199 0.003921509 -0.2485156
vn -0.8901892 0.3333308 -0.3105702
vn -0.6156815 0.2313707 -0.7532622
vn -0.09803843 0.05097997 -0.993876
vn -0.1921554 0.003921509 -0.9813567
vn 0.2392139 0.003921509 -0.970959
vn 0.2392139 -0.06666619 -0.9686756
vn -0.2313707 0.6156815 -0.7532621
vn -0.3333308 0.8901892 -0.3105702
vn 0.06666619 -0.2392139 -0.9686756
vn -0.05097997 0.09803843 -0.993876
vn 0.05882311 -0.1137246 -0.9917694
vn 0.1137246 -0.05882311 -0.9917694
vn -0.03529382 0.1215676 -0.9919555
vn -0.1215676 0.03529382 -0.9919555
vn -0.1215676 0.003921509 -0.9925754
vn 0.2235277 0.003921509 -0.9746897
vn -0.003921509 -0.04313695 -0.9990615
vn 0.04313695 0.003921509 -0.9990615
vn 0.3176447 -0.7490139 -0.5814465
vn 0.7490139 -0.3176447 -0.5814465
vn 0.3803893 -0.9215616 -0.07764171
vn 0.9215616 -0.3803893 -0.07764171
vn 0.9999924 0.003921509 0
vn 0.7803862 0.003921509 -0.6252855
vn 0.9999924 0.003921509 0
vn 0.7803862 0.003921509 -0.6252855
vn 0.9215616 0.3803892 -0.07764199
vn 0.7490139 0.3176446 -0.5814466
vn -0.01176453 0.003921509 -0.9999231
vn 0.04313695 -0.003921568 -0.9990615
vn -0.1215676 0.003921509 -0.9925754
vn -0.01176453 0.003921509 -0.9999231
vn -0.1921554 0.003921509 -0.9813567
vn -0.7646999 0.003921509 -0.6443746
vn -0.9686199 0.003921509 -0.2485156
vn -0.003921509 -0.9999924 0
vn -0.003921509 -0.7803862 -0.6252855
vn -0.003921509 -0.9999924 0
vn -0.003921509 0.01176453 -0.9999231
vn -0.003921509 0.1215676 -0.9925754
vn -0.003921509 -0.2235277 -0.9746897
vn -0.003921509 -0.2392139 -0.970959
vn -0.003921509 0.1921554 -0.9813567
vn -0.003921509 0.7646999 -0.6443746
vn -0.003921509 0.9686199 -0.2485156
g pictureFrame2_AO+Lightbaked_0
f 3/3/3 2/2/2 1/1/1
f 4/4/4 3/3/3 1/1/1
f 1/1/1 2/2/2 5/5/5
f 2/2/2 6/6/6 5/5/5
f 5/5/5 6/6/6 7/7/7
f 6/6/6 8/8/8 7/7/7
f 8/8/8 9/9/9 7/7/7
f 9/9/9 10/10/10 7/7/7
f 10/10/10 9/9/9 11/11/11
f 9/9/9 12/12/12 11/11/11
f 12/12/12 13/13/13 11/11/11
f 13/13/13 14/14/14 11/11/11
f 14/14/14 13/13/13 15/15/15
f 13/13/13 16/16/16 15/15/15
f 16/16/16 17/17/17 15/15/15
f 17/17/17 18/18/18 15/15/15
f 17/17/17 16/16/16 19/19/19
f 20/20/20 17/17/17 19/19/19
f 12/12/12 21/21/21 13/13/13
f 21/21/21 22/22/22 13/13/13
f 16/16/16 13/13/13 22/22/22
f 19/19/19 16/16/16 22/22/22
f 8/8/8 23/23/23 9/9/9
f 23/23/23 24/24/24 9/9/9
f 24/24/24 21/21/21 12/12/12
f 9/9/9 24/24/24 12/12/12
f 21/21/21 24/24/24 25/25/25
f 24/24/24 26/26/26 25/25/25
f 26/26/26 24/24/24 23/23/23
f 15/15/15 18/18/18 27/27/27
f 14/14/14 15/15/15 27/27/27
f 18/18/18 28/28/28 27/27/27
f 27/27/27 28/28/28 29/29/29
f 28/28/28 30/30/30 29/29/29
f 29/29/29 30/30/30 31/31/31
f 32/32/32 29/29/29 31/31/31
f 32/32/32 31/31/31 33/33/33
f 31/31/31 34/34/34 33/33/33
f 29/29/29 32/32/32 35/35/35
f 32/32/32 36/36/36 35/35/35
f 37/37/37 35/35/35 36/36/36
f 38/38/38 37/37/37 36/36/36
f 38/38/38 36/36/36 39/39/39
f 36/36/36 40/40/40 39/39/39
f 40/40/40 36/36/36 32/32/32
f 33/33/33 40/40/40 32/32/32
f 41/41/41 38/38/38 39/39/39
f 42/42/42 41/41/41 39/39/39
f 41/41/41 42/42/42 43/43/43
f 44/44/44 41/41/41 43/43/43
f 45/45/45 44/44/44 43/43/43
f 46/46/46 45/45/45 43/43/43
f 47/47/47 45/45/45 46/46/46
f 48/48/48 47/47/47 46/46/46
f 45/45/45 47/47/47 49/49/49
f 49/49/49 47/47/47 50/50/50
f 47/47/47 51/51/51 50/50/50
f 47/47/47 48/48/48 51/51/51
f 52/52/52 45/45/45 49/49/49
f 44/44/44 45/45/45 52/52/52
f 44/44/44 53/53/53 41/41/41
f 53/53/53 44/44/44 52/52/52
f 53/53/53 54/54/54 41/41/41
f 38/38/38 41/41/41 54/54/54
f 37/37/37 38/38/38 54/54/54
f 55/55/55 54/54/54 53/53/53
f 54/54/54 55/55/55 37/37/37
f 56/56/56 55/55/55 53/53/53
f 10/10/10 55/55/55 56/56/56
f 7/7/7 10/10/10 56/56/56
f 49/49/49 57/57/57 52/52/52
f 57/57/57 58/58/58 52/52/52
f 58/58/58 56/56/56 53/53/53
f 52/52/52 58/58/58 53/53/53
f 57/57/57 1/1/1 58/58/58
f 1/1/1 5/5/5 58/58/58
f 5/5/5 7/7/7 56/56/56
f 58/58/58 5/5/5 56/56/56
f 55/55/55 59/59/59 37/37/37
f 55/55/55 10/10/10 59/59/59
f 59/59/59 60/60/60 37/37/37
f 60/60/60 35/35/35 37/37/37
f 14/14/14 60/60/60 59/59/59
f 11/11/11 14/14/14 59/59/59
f 10/10/10 11/11/11 59/59/59
f 35/35/35 60/60/60 29/29/29
f 60/60/60 27/27/27 29/29/29
f 60/60/60 14/14/14 27/27/27
f 4/4/4 1/1/1 57/57/57
f 61/61/61 4/4/4 57/57/57
f 61/61/61 57/57/57 49/49/49
f 50/50/50 61/61/61 49/49/49
f 64/64/64 63/63/63 62/62/62
f 65/65/65 64/64/64 62/62/62
f 63/63/63 64/64/64 66/66/66
f 67/67/67 63/63/63 66/66/66
f 66/66/66 64/64/64 68/68/68
f 66/66/66 68/68/68 69/69/69
f 70/70/70 66/66/66 69/69/69
f 67/67/67 66/66/66 70/70/70
f 69/69/69 68/68/68 71/71/71
f 68/68/68 72/72/72 71/71/71
f 72/72/72 73/73/73 71/71/71
f 73/73/73 74/74/74 71/71/71
f 74/74/74 73/73/73 75/75/75
f 73/73/73 76/76/76 75/75/75
f 76/76/76 77/77/77 75/75/75
f 77/77/77 78/78/78 75/75/75
f 78/78/78 77/77/77 79/79/79
f 77/77/77 80/80/80 79/79/79
f 80/80/80 81/81/81 79/79/79
f 81/81/81 82/82/82 79/79/79
f 81/81/81 80/80/80 83/83/83
f 84/84/84 81/81/81 83/83/83
f 77/77/77 76/76/76 85/85/85
f 86/86/86 77/77/77 85/85/85
f 86/86/86 83/83/83 80/80/80
f 77/77/77 86/86/86 80/80/80
f 83/83/83 86/86/86 87/87/87
f 86/86/86 88/88/88 87/87/87
f 88/88/88 86/86/86 85/85/85
f 89/89/89 85/85/85 76/76/76
f 73/73/73 89/89/89 76/76/76
f 89/89/89 73/73/73 90/90/90
f 73/73/73 72/72/72 90/90/90
f 90/90/90 72/72/72 91/91/91
f 72/72/72 68/68/68 91/91/91
f 64/64/64 91/91/91 68/68/68
f 89/89/89 92/92/92 85/85/85
f 92/92/92 89/89/89 90/90/90
f 92/92/92 93/93/93 85/85/85
f 93/93/93 88/88/88 85/85/85
f 92/92/92 42/42/42 93/93/93
f 42/42/42 39/39/39 93/93/93
f 40/40/40 88/88/88 93/93/93
f 39/39/39 40/40/40 93/93/93
f 64/64/64 65/65/65 91/91/91
f 65/65/65 94/94/94 91/91/91
f 91/91/91 94/94/94 90/90/90
f 65/65/65 48/48/48 94/94/94
f 48/48/48 46/46/46 94/94/94
f 95/95/95 92/92/92 90/90/90
f 42/42/42 92/92/92 95/95/95
f 94/94/94 95/95/95 90/90/90
f 94/94/94 46/46/46 95/95/95
f 43/43/43 42/42/42 95/95/95
f 46/46/46 43/43/43 95/95/95
f 48/48/48 65/65/65 96/96/96
f 48/48/48 96/96/96 51/51/51
f 65/65/65 62/62/62 96/96/96
f 88/88/88 40/40/40 33/33/33
f 87/87/87 88/88/88 33/33/33
f 33/33/33 34/34/34 87/87/87
f 34/34/34 97/97/97 87/87/87
f 87/87/87 97/97/97 83/83/83
f 97/97/97 84/84/84 83/83/83
f 100/100/100 99/99/99 98/98/98
f 101/101/101 100/100/100 98/98/98
f 102/102/102 101/101/101 98/98/98
f 103/103/103 102/102/102 98/98/98
f 102/102/102 103/103/103 104/104/104
f 105/105/105 102/102/102 104/104/104
f 101/101/101 106/106/106 100/100/100
f 106/106/106 107/107/107 100/100/100
f 102/102/102 105/105/105 108/108/108
f 109/109/109 102/102/102 108/108/108
f 109/109/109 106/106/106 101/101/101
f 102/102/102 109/109/109 101/101/101
f 110/110/110 108/108/108 105/105/105
f 111/111/111 110/110/110 105/105/105
f 110/110/110 111/111/111 112/112/112
f 111/111/111 113/113/113 112/112/112
f 113/113/113 111/111/111 114/114/114
f 111/111/111 115/115/115 114/114/114
f 115/115/115 111/111/111 105/105/105
f 104/104/104 115/115/115 105/105/105
f 116/116/116 112/112/112 113/113/113
f 117/117/117 116/116/116 113/113/113
f 118/118/118 116/116/116 117/117/117
f 119/119/119 118/118/118 117/117/117
f 118/118/118 119/119/119 120/120/120
f 119/119/119 121/121/121 120/120/120
f 122/122/122 121/121/121 119/119/119
f 123/123/123 122/122/122 119/119/119
f 123/123/123 119/119/119 117/117/117
f 124/124/124 122/122/122 123/123/123
f 125/125/125 124/124/124 123/123/123
f 126/126/126 124/124/124 125/125/125
f 127/127/127 126/126/126 125/125/125
f 127/127/127 125/125/125 128/128/128
f 129/129/129 127/127/127 128/128/128
f 129/129/129 128/128/128 130/130/130
f 23/23/23 129/129/129 130/130/130
f 126/126/126 127/127/127 2/2/2
f 3/3/3 126/126/126 2/2/2
f 6/6/6 2/2/2 127/127/127
f 129/129/129 6/6/6 127/127/127
f 129/129/129 23/23/23 8/8/8
f 6/6/6 129/129/129 8/8/8
f 125/125/125 123/123/123 131/131/131
f 128/128/128 125/125/125 131/131/131
f 131/131/131 123/123/123 117/117/117
f 130/130/130 26/26/26 23/23/23
f 115/115/115 26/26/26 130/130/130
f 114/114/114 115/115/115 130/130/130
f 128/128/128 131/131/131 114/114/114
f 130/130/130 128/128/128 114/114/114
f 26/26/26 115/115/115 104/104/104
f 25/25/25 26/26/26 104/104/104
f 104/104/104 103/103/103 25/25/25
f 103/103/103 132/132/132 25/25/25
f 25/25/25 132/132/132 21/21/21
f 132/132/132 22/22/22 21/21/21
f 22/22/22 132/132/132 19/19/19
f 132/132/132 133/133/133 19/19/19
f 132/132/132 103/103/103 133/133/133
f 103/103/103 98/98/98 133/133/133
f 131/131/131 117/117/117 113/113/113
f 114/114/114 131/131/131 113/113/113
f 133/133/133 134/134/134 19/19/19
f 134/134/134 20/20/20 19/19/19
f 99/99/99 134/134/134 133/133/133
f 98/98/98 99/99/99 133/133/133
f 135/135/135 67/67/67 70/70/70
f 135/135/135 70/70/70 136/136/136
f 137/137/137 135/135/135 136/136/136
f 137/137/137 136/136/136 118/118/118
f 120/120/120 137/137/137 118/118/118
f 118/118/118 136/136/136 116/116/116
f 136/136/136 138/138/138 116/116/116
f 136/136/136 70/70/70 138/138/138
f 116/116/116 138/138/138 112/112/112
f 138/138/138 139/139/139 112/112/112
f 139/139/139 140/140/140 112/112/112
f 140/140/140 110/110/110 112/112/112
f 74/74/74 140/140/140 139/139/139
f 71/71/71 74/74/74 139/139/139
f 69/69/69 71/71/71 139/139/139
f 138/138/138 69/69/69 139/139/139
f 70/70/70 69/69/69 138/138/138
f 110/110/110 140/140/140 108/108/108
f 140/140/140 141/141/141 108/108/108
f 140/140/140 74/74/74 141/141/141
f 74/74/74 75/75/75 141/141/141
f 141/141/141 142/142/142 108/108/108
f 142/142/142 109/109/109 108/108/108
f 109/109/109 142/142/142 106/106/106
f 142/142/142 143/143/143 106/106/106
f 143/143/143 144/144/144 106/106/106
f 144/144/144 107/107/107 106/106/106
f 82/82/82 144/144/144 143/143/143
f 79/79/79 82/82/82 143/143/143
f 78/78/78 79/79/79 143/143/143
f 142/142/142 78/78/78 143/143/143
f 78/78/78 142/142/142 141/141/141
f 75/75/75 78/78/78 141/141/141
