g pigArm_mesh
v 0.125 0 0
v -0.125 0 0
v 0.122 -0.106 0
v -0.122 -0.106 0
v 0.11975 -0.1855 0
v -0.11975 -0.1855 0
v 0.11825 -0.2385 0
v -0.11825 -0.2385 0
v 0.1175 -0.265 0
v -0.1175 -0.265 0
v 0.1175 -0.265 0
v -0.1175 -0.265 0
v 0.11675 -0.2914999 0
v -0.11675 -0.2914999 0
v 0.11525 -0.3444999 0
v -0.11525 -0.3444999 0
v 0.113 -0.4239999 0
v -0.113 -0.4239999 0
v 0.11 -0.5299999 0
v -0.11 -0.5299999 0
vt 0.7042969 0.1336914
vt 0.7478516 0.1336914
vt 0.7042969 0.1236719
vt 0.7478516 0.1236719
vt 0.7042969 0.1161572
vt 0.7478516 0.1161572
vt 0.7042969 0.1111475
vt 0.7478516 0.1111475
vt 0.7042969 0.1086426
vt 0.7478516 0.1086426
vt 0.7042969 0.1086426
vt 0.7478516 0.1086426
vt 0.7042969 0.1061377
vt 0.7478516 0.1061377
vt 0.7042969 0.1011279
vt 0.7478516 0.1011279
vt 0.7042969 0.09361328
vt 0.7478516 0.09361328
vt 0.7042969 0.08359375
vt 0.7478516 0.08359375
vn 0 0 -1
vn 0 0 -1
vn 0 0 -1
vn 0 0 -1
vn 0 0 -0.9999999
vn 0 0 -1
vn 0 0 -1
vn 0 0 -0.9999999
vn 0 0 -1
vn 0 0 -1
vn 0 0 -1
vn 0 0 -0.9999999
vn 0 0 -1
vn 0 0 -1
vn 0 0 -1
vn 0 0 -0.9999999
vn 0 0 -1
vn 0 0 -1
vn 0 0 -1
vn 0 0 -1
g pigArm_mesh_0
f 3/3/3 2/2/2 1/1/1
f 4/4/4 2/2/2 3/3/3
f 5/5/5 4/4/4 3/3/3
f 6/6/6 4/4/4 5/5/5
f 7/7/7 6/6/6 5/5/5
f 8/8/8 6/6/6 7/7/7
f 9/9/9 8/8/8 7/7/7
f 10/10/10 8/8/8 9/9/9
f 11/11/11 10/10/10 9/9/9
f 12/12/12 10/10/10 11/11/11
f 13/13/13 12/12/12 11/11/11
f 14/14/14 12/12/12 13/13/13
f 15/15/15 14/14/14 13/13/13
f 16/16/16 14/14/14 15/15/15
f 17/17/17 16/16/16 15/15/15
f 18/18/18 16/16/16 17/17/17
f 19/19/19 18/18/18 17/17/17
f 20/20/20 18/18/18 19/19/19
