g pigeonFeather3_mesh
v 0.075 0 0
v -0.075 0 0
v 0.08525001 -0.1033333 0
v -0.08525001 -0.1033333 0
v 0.09550001 -0.2066667 0
v -0.09550001 -0.2066667 0
v 0.10575 -0.31 0
v -0.10575 -0.31 0
v 0.116 -0.4133333 0
v -0.116 -0.4133333 0
v 0.12625 -0.5166667 0
v -0.12625 -0.5166667 0
v 0.1365 -0.62 0
v -0.1365 -0.62 0
v 0.14675 -0.7233334 0
v -0.14675 -0.7233334 0
v 0.157 -0.8266667 0
v -0.157 -0.8266667 0
v 0.16725 -0.9300001 0
v -0.16725 -0.9300001 0
vt 0.5825195 0.3325195
vt 0.6069336 0.3325195
vt 0.5825195 0.3233507
vt 0.6069336 0.3233507
vt 0.5825195 0.3141819
vt 0.6069336 0.3141819
vt 0.5825195 0.305013
vt 0.6069336 0.305013
vt 0.5825195 0.2958442
vt 0.6069336 0.2958442
vt 0.5825195 0.2866754
vt 0.6069336 0.2866754
vt 0.5825195 0.2775065
vt 0.6069336 0.2775065
vt 0.5825195 0.2683377
vt 0.6069336 0.2683377
vt 0.5825195 0.2591688
vt 0.6069336 0.2591688
vt 0.5825195 0.25
vt 0.6069336 0.25
vn 0 0 -1
vn 0 0 -1
vn 0 0 -1
vn 0 0 -1
vn 0 0 -1
vn 0 0 -0.9999999
vn 0 0 -1
vn 0 0 -1
vn 0 0 -1
vn 0 0 -1
vn 0 0 -1
vn 0 0 -1
vn 0 0 -1
vn 0 0 -1
vn 0 0 -1
vn 0 0 -1
vn 0 0 -1
vn 0 0 -1
vn 0 0 -1
vn 0 0 -1
g pigeonFeather3_mesh_0
f 3/3/3 2/2/2 1/1/1
f 4/4/4 2/2/2 3/3/3
f 5/5/5 4/4/4 3/3/3
f 6/6/6 4/4/4 5/5/5
f 7/7/7 6/6/6 5/5/5
f 8/8/8 6/6/6 7/7/7
f 9/9/9 8/8/8 7/7/7
f 10/10/10 8/8/8 9/9/9
f 11/11/11 10/10/10 9/9/9
f 12/12/12 10/10/10 11/11/11
f 13/13/13 12/12/12 11/11/11
f 14/14/14 12/12/12 13/13/13
f 15/15/15 14/14/14 13/13/13
f 16/16/16 14/14/14 15/15/15
f 17/17/17 16/16/16 15/15/15
f 18/18/18 16/16/16 17/17/17
f 19/19/19 18/18/18 17/17/17
f 20/20/20 18/18/18 19/19/19
