g pigeonFeather2_mesh
v 0.075 0 0
v -0.075 0 0
v 0.08525001 -0.09444445 0
v -0.08525001 -0.09444445 0
v 0.09550001 -0.1888889 0
v -0.09550001 -0.1888889 0
v 0.10575 -0.2833333 0
v -0.10575 -0.2833333 0
v 0.116 -0.3777778 0
v -0.116 -0.3777778 0
v 0.12625 -0.4722222 0
v -0.12625 -0.4722222 0
v 0.1365 -0.5666667 0
v -0.1365 -0.5666667 0
v 0.14675 -0.6611111 0
v -0.14675 -0.6611111 0
v 0.157 -0.7555556 0
v -0.157 -0.7555556 0
v 0.16725 -0.85 0
v -0.16725 -0.85 0
vt 0.5664063 0.4282227
vt 0.590332 0.4282227
vt 0.5664063 0.417806
vt 0.590332 0.417806
vt 0.5664063 0.4073893
vt 0.590332 0.4073893
vt 0.5664063 0.3969727
vt 0.590332 0.3969727
vt 0.5664063 0.386556
vt 0.590332 0.386556
vt 0.5664063 0.3761393
vt 0.590332 0.3761393
vt 0.5664063 0.3657227
vt 0.590332 0.3657227
vt 0.5664063 0.355306
vt 0.590332 0.355306
vt 0.5664063 0.3448893
vt 0.590332 0.3448893
vt 0.5664063 0.3344727
vt 0.590332 0.3344727
vn 0 0 -1
vn 0 0 -1
vn 0 0 -1
vn 0 0 -0.9999999
vn 0 0 -1
vn 0 0 -1
vn 0 0 -1
vn 0 0 -1
vn 0 0 -1
vn 0 0 -1
vn 0 0 -1
vn 0 0 -1
vn 0 0 -1
vn 0 0 -1
vn 0 0 -1
vn 0 0 -1
vn 0 0 -1
vn 0 0 -1
vn 0 0 -1
vn 0 0 -1
g pigeonFeather2_mesh_0
f 3/3/3 2/2/2 1/1/1
f 4/4/4 2/2/2 3/3/3
f 5/5/5 4/4/4 3/3/3
f 6/6/6 4/4/4 5/5/5
f 7/7/7 6/6/6 5/5/5
f 8/8/8 6/6/6 7/7/7
f 9/9/9 8/8/8 7/7/7
f 10/10/10 8/8/8 9/9/9
f 11/11/11 10/10/10 9/9/9
f 12/12/12 10/10/10 11/11/11
f 13/13/13 12/12/12 11/11/11
f 14/14/14 12/12/12 13/13/13
f 15/15/15 14/14/14 13/13/13
f 16/16/16 14/14/14 15/15/15
f 17/17/17 16/16/16 15/15/15
f 18/18/18 16/16/16 17/17/17
f 19/19/19 18/18/18 17/17/17
f 20/20/20 18/18/18 19/19/19
