g PigeonArm_mesh
v 0.13 0 0
v -0.13 0 0
v 0.1507143 -0.1285714 0
v -0.1507143 -0.1285714 0
v 0.1649762 -0.2357143 0
v -0.1649762 -0.2357143 0
v 0.1743857 -0.3214285 0
v -0.1743857 -0.3214285 0
v 0.1802428 -0.3857142 0
v -0.1802428 -0.3857142 0
v 0.1835476 -0.4285714 0
v -0.1835476 -0.4285714 0
v 0.185 -0.4499999 0
v -0.185 -0.4499999 0
v 0.185 -0.4499999 0
v -0.185 -0.4499999 0
v 0.1863524 -0.4714285 0
v -0.1863524 -0.4714285 0
v 0.1888571 -0.5142857 0
v -0.1888571 -0.5142857 0
v 0.1920143 -0.5785714 0
v -0.1920143 -0.5785714 0
v 0.1950238 -0.6642857 0
v -0.1950238 -0.6642857 0
v 0.1967857 -0.7714285 0
v -0.1967857 -0.7714285 0
v 0.1959 -0.9 0
v -0.1959 -0.9 0
vt 0.5759277 0.5627441
vt 0.6022949 0.5627441
vt 0.5759277 0.5517229
vt 0.6022949 0.5517229
vt 0.5759277 0.5425386
vt 0.6022949 0.5425386
vt 0.5759277 0.5351911
vt 0.6022949 0.5351911
vt 0.5759277 0.5296806
vt 0.6022949 0.5296806
vt 0.5759277 0.5260068
vt 0.6022949 0.5260068
vt 0.5759277 0.5241699
vt 0.6022949 0.5241699
vt 0.5759277 0.5241699
vt 0.6022949 0.5241699
vt 0.5759277 0.5223331
vt 0.6022949 0.5223331
vt 0.5759277 0.5186593
vt 0.6022949 0.5186593
vt 0.5759277 0.5131487
vt 0.6022949 0.5131487
vt 0.5759277 0.5058013
vt 0.6022949 0.5058013
vt 0.5759277 0.4966169
vt 0.6022949 0.4966169
vt 0.5759277 0.4855957
vt 0.6022949 0.4855957
vn 0 0 -0.9999999
vn 0 0 -1
vn 0 0 -1
vn 0 0 -1
vn 0 0 -1
vn 0 0 -1
vn 0 0 -1
vn 0 0 -1
vn 0 0 -1
vn 0 0 -1
vn 0 0 -1
vn 0 0 -1
vn 0 0 -1
vn 0 0 -1
vn 0 0 -1
vn 0 0 -1
vn 0 0 -1
vn 0 0 -1
vn 0 0 -1
vn 0 0 -1
vn 0 0 -1
vn 0 0 -1
vn 0 0 -1
vn 0 0 -0.9999999
vn 0 0 -1
vn 0 0 -1
vn 0 0 -0.9999999
vn 0 0 -1
g PigeonArm_mesh_0
f 3/3/3 2/2/2 1/1/1
f 4/4/4 2/2/2 3/3/3
f 5/5/5 4/4/4 3/3/3
f 6/6/6 4/4/4 5/5/5
f 7/7/7 6/6/6 5/5/5
f 8/8/8 6/6/6 7/7/7
f 9/9/9 8/8/8 7/7/7
f 10/10/10 8/8/8 9/9/9
f 11/11/11 10/10/10 9/9/9
f 12/12/12 10/10/10 11/11/11
f 13/13/13 12/12/12 11/11/11
f 14/14/14 12/12/12 13/13/13
f 15/15/15 14/14/14 13/13/13
f 16/16/16 14/14/14 15/15/15
f 17/17/17 16/16/16 15/15/15
f 18/18/18 16/16/16 17/17/17
f 19/19/19 18/18/18 17/17/17
f 20/20/20 18/18/18 19/19/19
f 21/21/21 20/20/20 19/19/19
f 22/22/22 20/20/20 21/21/21
f 23/23/23 22/22/22 21/21/21
f 24/24/24 22/22/22 23/23/23
f 25/25/25 24/24/24 23/23/23
f 26/26/26 24/24/24 25/25/25
f 27/27/27 26/26/26 25/25/25
f 28/28/28 26/26/26 27/27/27
