g pillarBase_mesh
v 2 0 2
v -2 0 2
v 2 0.2 2
v -2 0.2 2
v -2 0 2
v -2 0 -2
v -2 0.2 2
v -2 0.2 -2
v -2 0 -2
v 2 0 -2
v -2 0.2 -2
v 2 0.2 -2
v 2 0 -2
v 2 0 2
v 2 0.2 -2
v 2 0.2 2
v 1.726087 0.3980953 1.726086
v -1.726087 0.3980953 1.726086
v 1.726087 0.3980953 -1.726086
v -1.726087 0.3980953 -1.726086
v 2 0.2 2
v -2 0.2 2
v 1.871257 0.2542545 1.871257
v -1.871257 0.2542545 1.871257
v 2 0.2 -2
v 2 0.2 2
v 1.871257 0.2542545 -1.871257
v 1.871257 0.2542545 1.871257
v -2 0.2 2
v -2 0.2 -2
v -1.871257 0.2542545 1.871257
v -1.871257 0.2542545 -1.871257
v -2 0.2 -2
v 2 0.2 -2
v -1.871257 0.2542545 -1.871257
v 1.871257 0.2542545 -1.871257
v 1.871257 0.2542545 1.871257
v -1.871257 0.2542545 1.871257
v 1.726087 0.3980953 1.726086
v -1.726087 0.3980953 1.726086
v 1.871257 0.2542545 -1.871257
v 1.871257 0.2542545 1.871257
v 1.726087 0.3980953 -1.726086
v 1.726087 0.3980953 1.726086
v -1.871257 0.2542545 1.871257
v -1.871257 0.2542545 -1.871257
v -1.726087 0.3980953 1.726086
v -1.726087 0.3980953 -1.726086
v -1.871257 0.2542545 -1.871257
v 1.871257 0.2542545 -1.871257
v -1.726087 0.3980953 -1.726086
v 1.726087 0.3980953 -1.726086
vt 0.9136662 0.9276239
vt 0.09415486 0.9276239
vt 0.9136662 0.9685995
vt 0.09415486 0.9685995
vt 0.9687277 0.9119013
vt 0.968562 0.09238997
vt 0.9277521 0.9119096
vt 0.9275865 0.09239829
vt 0.9136662 0.03869516
vt 0.09415486 0.03869516
vt 0.9136662 0.07967076
vt 0.09415486 0.07967076
vt 0.03902736 0.09230518
vt 0.03932503 0.9118165
vt 0.08000287 0.09229022
vt 0.08030063 0.9118016
vt 0.1502736 0.8559301
vt 0.8575475 0.8559301
vt 0.1502736 0.1486564
vt 0.8575475 0.1486564
vt 0.09415486 0.9269502
vt 0.9136662 0.9269502
vt 0.1205314 0.8983271
vt 0.8872897 0.8983271
vt 0.07967579 0.09253758
vt 0.07967579 0.912049
vt 0.1082988 0.1189141
vt 0.1082988 0.8856724
vt 0.9274591 0.912049
vt 0.9274591 0.09253758
vt 0.8988361 0.8856724
vt 0.8988361 0.1189141
vt 0.9136662 0.07919294
vt 0.09415486 0.07919294
vt 0.8872897 0.107816
vt 0.1205314 0.107816
vt 0.1205314 0.8979766
vt 0.8872897 0.8979766
vt 0.1502736 0.8561069
vt 0.8575475 0.8561069
vt 0.1085047 0.1189141
vt 0.1085047 0.8856724
vt 0.1503744 0.1486564
vt 0.1503744 0.8559301
vt 0.8985019 0.8856724
vt 0.8985019 0.1189141
vt 0.8566322 0.8559301
vt 0.8566322 0.1486564
vt 0.8872897 0.107137
vt 0.1205314 0.107137
vt 0.8575475 0.1490067
vt 0.1502736 0.1490067
vn 0 0 1
vn 0 0 1
vn 0 0 1
vn 0 0 1
vn -1 0 0
vn -1 0 0
vn -1 0 0
vn -1 0 0
vn 0 0 -1
vn 0 0 -1
vn 0 0 -1
vn 0 0 -1
vn 1 0 0
vn 1 0 0
vn 1 0 0
vn 1 0 0
vn 0 1 0
vn 0 1 0
vn 0 1 0
vn 0 1 0
vn 0 0.9215151 0.3883425
vn 0 0.9215151 0.3883425
vn 0 0.9215151 0.3883425
vn 0 0.9215151 0.3883425
vn 0.3883425 0.9215151 0
vn 0.3883425 0.9215151 0
vn 0.3883425 0.9215151 0
vn 0.3883425 0.9215151 0
vn -0.3883425 0.9215151 0
vn -0.3883425 0.9215151 0
vn -0.3883425 0.9215151 0
vn -0.3883425 0.9215151 0
vn 0 0.9215151 -0.3883425
vn 0 0.9215151 -0.3883425
vn 0 0.9215151 -0.3883425
vn 0 0.9215151 -0.3883425
vn 0 0.7103533 0.7038453
vn 0 0.7103533 0.7038453
vn 0 0.7103533 0.7038453
vn 0 0.7103533 0.7038452
vn 0.703847 0.7103516 0
vn 0.703847 0.7103516 0
vn 0.703847 0.7103516 0
vn 0.703847 0.7103516 0
vn -0.703847 0.7103516 0
vn -0.703847 0.7103516 0
vn -0.703847 0.7103516 0
vn -0.703847 0.7103516 0
vn 0 0.7103533 -0.7038453
vn 0 0.7103533 -0.7038453
vn 0 0.7103533 -0.7038453
vn 0 0.7103533 -0.7038452
g pillarBase_mesh_0
f 3/3/3 2/2/2 1/1/1
f 3/3/3 4/4/4 2/2/2
f 7/7/7 6/6/6 5/5/5
f 7/7/7 8/8/8 6/6/6
f 11/11/11 10/10/10 9/9/9
f 11/11/11 12/12/12 10/10/10
f 15/15/15 14/14/14 13/13/13
f 15/15/15 16/16/16 14/14/14
f 19/19/19 18/18/18 17/17/17
f 19/19/19 20/20/20 18/18/18
f 23/23/23 22/22/22 21/21/21
f 23/23/23 24/24/24 22/22/22
f 27/27/27 26/26/26 25/25/25
f 27/27/27 28/28/28 26/26/26
f 31/31/31 30/30/30 29/29/29
f 31/31/31 32/32/32 30/30/30
f 35/35/35 34/34/34 33/33/33
f 35/35/35 36/36/36 34/34/34
f 39/39/39 38/38/38 37/37/37
f 39/39/39 40/40/40 38/38/38
f 43/43/43 42/42/42 41/41/41
f 43/43/43 44/44/44 42/42/42
f 47/47/47 46/46/46 45/45/45
f 47/47/47 48/48/48 46/46/46
f 51/51/51 50/50/50 49/49/49
f 51/51/51 52/52/52 50/50/50
