g pillarTopSphere
v 0.03171414 0.09759292 1.05383
v -1.03116E-05 1.03116E-05 1.066934
v -0.08302534 0.06032962 1.05383
v -0.05647942 0.1737857 1.023794
v 0.1026158 1.03116E-05 1.05383
v -0.08302534 -0.06033146 1.05383
v 0.03171414 -0.09759477 1.05383
v 0.06638816 0.2043168 1.005917
v 0.1478496 0.1074097 1.023794
v -0.1738082 0.1262778 1.005917
v -0.1827469 1.03116E-05 1.023794
v 0.1478496 -0.1074116 1.023794
v 0.2148335 1.03116E-05 1.005917
v -0.05647942 -0.1737875 1.023794
v -0.1738082 -0.1262797 1.005917
v 0.06638816 -0.2043187 1.005917
v -0.02158028 0.2812076 0.9539961
v -0.1478477 0.2401842 0.9539961
v 0.1827488 0.2148316 0.9539961
v 0.2607878 0.1074097 0.9539961
v 0.09514058 0.2928031 0.9269774
v 0.2607878 -0.1074116 0.9539961
v 0.1827488 -0.2148335 0.9539961
v 0.3078679 1.03116E-05 0.9269774
v 0.2812095 0.2043168 0.8731426
v 0.1977667 0.2928031 0.8635734
v 0.3395924 0.09759292 0.8635509
v 0.01210305 0.3531224 0.8635734
v 0.1129279 0.3476061 0.8410579
v -0.1074097 0.3305843 0.8731426
v 0.3395924 -0.09759477 0.8635509
v 0.3654853 1.03116E-05 0.8410579
v 0.2812095 -0.2043187 0.8731426
v 0.3521561 0.1738082 0.7712595
v 0.2741171 0.2812076 0.7712595
v 0.3909054 0.06032962 0.7609248
v 0.3909054 -0.06033146 0.7609248
v 0.3521561 -0.1737875 0.7712595
v 0.1781556 0.3531224 0.7609473
v 0.06341609 0.3904082 0.7609248
v -0.05647942 0.3886295 0.7712595
v 0.3886314 0.1262778 0.6582987
v 0.4086252 1.03116E-05 0.6582987
v 0.3305862 0.2401842 0.6582987
v 0.2401861 0.3305843 0.6582987
v 0.1262797 0.3886295 0.6582987
v -1.03116E-05 0.4086234 0.6582987
v 0.3886314 -0.1262797 0.6582987
v -0.1827469 0.3476061 0.7712595
v -0.1262778 0.3886295 0.6582987
v -0.2173534 0.2785732 0.8635734
v -0.2490778 0.1809681 0.9269774
v -0.2741152 0.06638631 0.9539961
v -0.2741152 -0.06638816 0.9539961
v -0.2807798 0.2785732 0.7609473
v -0.2956851 0.2148316 0.8410579
v -0.3320929 0.1206489 0.8635509
v -0.2401842 0.3305843 0.6582987
v -0.3517039 0.1809681 0.7609248
v -0.3476061 1.03116E-05 0.8731426
v -0.3305843 0.2401842 0.6582987
v -0.3870534 0.06638631 0.7712595
v -0.3886295 0.1262778 0.6582987
v -0.2490778 -0.18097 0.9269774
v -0.3320929 -0.1206507 0.8635509
v -0.3870534 -0.06638816 0.7712595
v -0.4086234 1.03116E-05 0.6582987
v -0.1478477 -0.2401861 0.9539961
v -0.02158028 -0.2812095 0.9539961
v 0.09514058 -0.292805 0.9269774
v 0.1977667 -0.292805 0.8635734
v 0.2741171 -0.2812095 0.7712595
v 0.3305862 -0.2401861 0.6582987
v -0.2173534 -0.2785751 0.8635734
v -0.1074097 -0.3305862 0.8731426
v 0.01210305 -0.3531243 0.8635734
v 0.1129279 -0.3475854 0.8410579
v 0.1781556 -0.3531243 0.7609473
v 0.06341609 -0.3904101 0.7609248
v -0.05647942 -0.3886314 0.7712595
v 0.2401861 -0.3305862 0.6582987
v 0.1262797 -0.3886314 0.6582987
v -0.2956851 -0.2148335 0.8410579
v -0.1827469 -0.3475854 0.7712595
v -1.03116E-05 -0.4086252 0.6582987
v -0.3517039 -0.18097 0.7609248
v -0.2807798 -0.2785751 0.7609473
v -0.1262778 -0.3886314 0.6582987
v -0.3886295 -0.1262797 0.6582987
v -0.2401842 -0.3305862 0.6582987
v -0.3305843 -0.2401861 0.6582987
v 0.0564813 -0.3886314 0.5453606
v -0.06341425 -0.3904101 0.5556726
v -0.1781537 -0.3531243 0.5556726
v -0.2741152 -0.2812095 0.5453606
v -0.3521542 -0.1737875 0.5453606
v -0.3909036 -0.06033146 0.5556726
v 0.1827488 -0.3475854 0.5453606
v -0.3909036 0.06032962 0.5556726
v 0.2807817 -0.2785751 0.5556726
v -0.3521542 0.1738082 0.5453606
v 0.3517058 -0.18097 0.5556726
v -0.2741152 0.2812076 0.5453606
v 0.3870553 -0.06638816 0.5453606
v -0.1781537 0.3531224 0.5556726
v 0.3870553 0.06638631 0.5453606
v -0.06341425 0.3904082 0.5556726
v 0.3517058 0.1809681 0.5556726
v 0.0564813 0.3886295 0.5453606
v 0.2807817 0.2785732 0.5556726
v 0.1827488 0.3476061 0.5453606
v 0.3475854 1.03116E-05 0.4434775
v 0.3320947 0.1206489 0.4530466
v 0.295687 0.2148316 0.4755622
v 0.2173552 0.2785732 0.4530466
v 0.1074116 0.3305843 0.4434775
v -0.0121012 0.3531224 0.4530466
v 0.2490797 0.1809681 0.3896202
v 0.1478496 0.2401842 0.362624
v 0.2741171 0.06638631 0.362624
v 0.3320947 -0.1206507 0.4530466
v -0.1129486 0.3476061 0.4755622
v 0.02158213 0.2812076 0.362624
v 0.1737875 0.1262778 0.310703
v 0.2741171 -0.06638816 0.362624
v 0.295687 -0.2148335 0.4755622
v -0.1977648 0.2928031 0.4530466
v 0.2490797 -0.18097 0.3896202
v 0.2173552 -0.2785751 0.4530466
v 0.1827488 1.03116E-05 0.2928257
v 0.1737875 -0.1262797 0.310703
v 0.1074116 -0.3305862 0.4434775
v 0.1478496 -0.2401861 0.362624
v -0.0121012 -0.3531243 0.4530466
v 0.02158213 -0.2812095 0.362624
v 0.0564813 -0.1737875 0.2928257
v 0.08302718 -0.06033146 0.2627898
v 0.08302718 0.06032962 0.2627898
v -0.1129486 -0.3475854 0.4755622
v -0.0951387 -0.292805 0.3896202
v -0.1977648 -0.292805 0.4530466
v -0.06638631 -0.2043187 0.310703
v -0.03171229 -0.09759477 0.2627898
v -0.2812076 -0.2043187 0.4434775
v -0.1827469 -0.2148335 0.362624
v -0.3395905 -0.09759477 0.4530466
v -0.1478477 -0.1074116 0.2928257
v -0.260786 -0.1074116 0.362624
v -1.03116E-05 1.03116E-05 0.2627898
v -0.3654835 1.03116E-05 0.4755622
v -0.1026139 1.03116E-05 0.2627898
v -0.2148316 1.03116E-05 0.310703
v -0.3078661 1.03116E-05 0.3896427
v -0.3395905 0.09759292 0.4530466
v -0.03171229 0.09759292 0.2627898
v -0.1478477 0.1074097 0.2928257
v -0.260786 0.1074097 0.362624
v -0.2812076 0.2043168 0.4434775
v -0.1827469 0.2148316 0.362624
v 0.0564813 0.1738082 0.2928257
v -0.06638631 0.2043168 0.310703
v -0.0951387 0.2928031 0.3896202
vn 0.08235234 0.2470568 0.9654952
vn -0.003921509 0.003921509 0.9999846
vn -0.2078415 0.1529399 0.9661321
vn -0.1372538 0.4352907 0.8897659
vn 0.2627431 0.003921509 0.9648579
vn -0.2078415 -0.15294 0.9661321
vn 0.08235234 -0.247057 0.9654952
vn 0.1607831 0.4980353 0.8521206
vn 0.3647031 0.2705861 0.8909404
vn -0.4274477 0.3098015 0.8493006
vn -0.45882 0.003921509 0.8885206
vn 0.3647031 -0.2705862 0.8909404
vn 0.5294077 0.003921509 0.8483585
vn -0.1372538 -0.4352908 0.8897659
vn -0.4274477 -0.3098016 0.8493006
vn 0.1607831 -0.4980354 0.8521206
vn -0.05882299 0.6862692 0.7249652
vn -0.3568599 0.5843092 0.7288578
vn 0.450977 0.5215646 0.724286
vn 0.6313677 0.2705861 0.7267447
vn 0.2313708 0.7097985 0.6653222
vn 0.6313677 -0.2705862 0.7267447
vn 0.450977 -0.5215647 0.7242859
vn 0.7490139 0.003921509 0.6625427
vn 0.6862693 0.4980353 0.5300899
vn 0.4901924 0.7097985 0.5058632
vn 0.8274447 0.2470568 0.5042799
vn 0.01960772 0.86666 0.4985138
vn 0.2784293 0.8509738 0.4453321
vn -0.262743 0.8117584 0.5215501
vn 0.8274447 -0.247057 0.5042799
vn 0.8980324 0.003921509 0.4399119
vn 0.6862693 -0.4980354 0.5300898
vn 0.858817 0.4352907 0.2701026
vn 0.6784262 0.6862692 0.2622451
vn 0.960777 0.1529399 0.2313373
vn 0.960777 -0.15294 0.2313372
vn 0.858817 -0.4352908 0.2701024
vn 0.4431339 0.86666 0.2292005
vn 0.15294 0.9607769 0.2313375
vn -0.1450969 0.9529338 0.2662031
vn 0.9510054 0.3091745 0
vn 0.9999924 0.003921509 0
vn 0.8116088 0.5842015 0
vn 0.5842015 0.8116087 0
vn 0.3091746 0.9510053 0
vn -0.003921509 0.9999923 -0.000345267
vn 0.9510053 -0.3091746 0
vn -0.4431338 0.8588169 0.257033
vn -0.3091745 0.9510054 0
vn -0.5215646 0.6862692 0.5069566
vn -0.6078384 0.4352907 0.6641194
vn -0.670583 0.1529399 0.725898
vn -0.670583 -0.15294 0.7258979
vn -0.6862692 0.6862692 0.2409756
vn -0.7254846 0.5294076 0.4397723
vn -0.8117584 0.2862723 0.5090152
vn -0.5842015 0.8116087 0
vn -0.86666 0.4352907 0.2437673
vn -0.8509738 0.003921509 0.5251934
vn -0.8116087 0.5842015 0
vn -0.9529338 0.1529399 0.2617759
vn -0.9510054 0.3091745 0
vn -0.6078384 -0.4352908 0.6641192
vn -0.8117584 -0.2862723 0.5090151
vn -0.9529338 -0.15294 0.2617758
vn -0.9999923 0.003921509 -0.0003449296
vn -0.3568599 -0.5843093 0.7288578
vn -0.05882299 -0.6862693 0.724965
vn 0.2313708 -0.7097985 0.6653222
vn 0.4901924 -0.7097985 0.5058631
vn 0.6784262 -0.6862693 0.2622448
vn 0.8116088 -0.5842015 0
vn -0.5215646 -0.6862693 0.5069565
vn -0.262743 -0.8117585 0.5215499
vn 0.01960772 -0.8666601 0.4985137
vn 0.2784293 -0.8509739 0.445332
vn 0.4431339 -0.8666601 0.2292002
vn 0.15294 -0.960777 0.2313372
vn -0.1450969 -0.9529339 0.2662026
vn 0.5842015 -0.8116088 0
vn 0.3091746 -0.9510053 0
vn -0.7254846 -0.5294077 0.4397722
vn -0.4431338 -0.858817 0.2570327
vn -0.003921509 -0.9999924 0
vn -0.86666 -0.4352908 0.2437671
vn -0.6862692 -0.6862693 0.2409753
vn -0.3091745 -0.9510054 0
vn -0.9510053 -0.3091746 0
vn -0.5842015 -0.8116088 0
vn -0.8116087 -0.5842015 0
vn 0.145097 -0.9529339 -0.2662026
vn -0.1529399 -0.960777 -0.2313374
vn -0.4431338 -0.8666601 -0.2292002
vn -0.6784261 -0.6862693 -0.2622449
vn -0.8588169 -0.4352908 -0.2701027
vn -0.9607769 -0.15294 -0.2313375
vn 0.4431339 -0.858817 -0.2570327
vn -0.9607769 0.1529399 -0.2313376
vn 0.6862693 -0.6862693 -0.240975
vn -0.8588169 0.4352907 -0.2701029
vn 0.8666601 -0.4352908 -0.2437668
vn -0.6784261 0.6862692 -0.2622453
vn 0.9529339 -0.15294 -0.2617753
vn -0.4431338 0.86666 -0.2292005
vn 0.9529339 0.1529399 -0.2617754
vn -0.1529399 0.9607769 -0.2313376
vn 0.8666601 0.4352907 -0.243767
vn 0.145097 0.9529338 -0.2662031
vn 0.6862693 0.6862692 -0.2409754
vn 0.4431339 0.8588169 -0.257033
vn 0.8509739 0.003921509 -0.5251933
vn 0.8117585 0.2862723 -0.509015
vn 0.7254847 0.5294076 -0.4397722
vn 0.5215647 0.6862692 -0.5069566
vn 0.2627431 0.8117584 -0.52155
vn -0.01960766 0.86666 -0.4985138
vn 0.6078385 0.4352907 -0.6641192
vn 0.35686 0.5843092 -0.7288578
vn 0.6705831 0.1529399 -0.7258978
vn 0.8117585 -0.2862723 -0.509015
vn -0.2784292 0.8509738 -0.4453321
vn 0.05882311 0.6862692 -0.7249652
vn 0.4274477 0.3098015 -0.8493006
vn 0.6705831 -0.15294 -0.7258978
vn 0.7254847 -0.5294077 -0.439772
vn -0.4901923 0.7097985 -0.5058632
vn 0.6078385 -0.4352908 -0.6641192
vn 0.5215647 -0.6862693 -0.5069564
vn 0.45882 0.003921509 -0.8885205
vn 0.4274477 -0.3098016 -0.8493005
vn 0.2627431 -0.8117585 -0.5215498
vn 0.35686 -0.5843093 -0.7288577
vn -0.01960766 -0.8666601 -0.4985137
vn 0.05882311 -0.6862693 -0.724965
vn 0.1372539 -0.4352908 -0.8897659
vn 0.1843123 -0.1294108 -0.9743109
vn 0.1843123 0.1294107 -0.9743109
vn -0.2784292 -0.8509739 -0.4453321
vn -0.2313707 -0.7097985 -0.6653222
vn -0.4901923 -0.7097985 -0.5058632
vn -0.1607831 -0.4980354 -0.8521206
vn -0.06666613 -0.2156847 -0.9741847
vn -0.6862692 -0.4980354 -0.5300899
vn -0.4509768 -0.5215647 -0.724286
vn -0.8274446 -0.247057 -0.50428
vn -0.3647031 -0.2705862 -0.8909404
vn -0.6313677 -0.2705862 -0.7267448
vn -0.003921509 0.003921509 -0.9999846
vn -0.8980323 0.003921509 -0.439912
vn -0.2235277 0.003921509 -0.9746897
vn -0.5294076 0.003921509 -0.8483585
vn -0.7490138 0.003921509 -0.6625428
vn -0.8274446 0.2470568 -0.5042801
vn -0.06666613 0.2156845 -0.9741847
vn -0.3647031 0.2705861 -0.8909404
vn -0.6313677 0.2705861 -0.7267448
vn -0.6862692 0.4980353 -0.53009
vn -0.4509768 0.5215646 -0.724286
vn 0.1372539 0.4352907 -0.8897659
vn -0.1607831 0.4980353 -0.8521206
vn -0.2313707 0.7097985 -0.6653222
g pillarTopSphere_0
f 3/3/3 2/2/2 1/1/1
f 4/4/4 3/3/3 1/1/1
f 1/1/1 2/2/2 5/5/5
f 6/6/6 2/2/2 3/3/3
f 5/5/5 2/2/2 7/7/7
f 7/7/7 2/2/2 6/6/6
f 4/4/4 1/1/1 8/8/8
f 9/9/9 1/1/1 5/5/5
f 8/8/8 1/1/1 9/9/9
f 10/10/10 3/3/3 4/4/4
f 11/11/11 6/6/6 3/3/3
f 11/11/11 3/3/3 10/10/10
f 12/12/12 5/5/5 7/7/7
f 9/9/9 5/5/5 13/13/13
f 13/13/13 5/5/5 12/12/12
f 14/14/14 7/7/7 6/6/6
f 15/15/15 6/6/6 11/11/11
f 14/14/14 6/6/6 15/15/15
f 12/12/12 7/7/7 16/16/16
f 16/16/16 7/7/7 14/14/14
f 17/17/17 4/4/4 8/8/8
f 18/18/18 10/10/10 4/4/4
f 18/18/18 4/4/4 17/17/17
f 19/19/19 8/8/8 9/9/9
f 20/20/20 9/9/9 13/13/13
f 19/19/19 9/9/9 20/20/20
f 17/17/17 8/8/8 21/21/21
f 21/21/21 8/8/8 19/19/19
f 22/22/22 13/13/13 12/12/12
f 23/23/23 12/12/12 16/16/16
f 22/22/22 12/12/12 23/23/23
f 20/20/20 13/13/13 24/24/24
f 24/24/24 13/13/13 22/22/22
f 25/25/25 19/19/19 20/20/20
f 26/26/26 21/21/21 19/19/19
f 26/26/26 19/19/19 25/25/25
f 27/27/27 20/20/20 24/24/24
f 25/25/25 20/20/20 27/27/27
f 28/28/28 17/17/17 21/21/21
f 29/29/29 21/21/21 26/26/26
f 28/28/28 21/21/21 29/29/29
f 30/30/30 17/17/17 28/28/28
f 30/30/30 18/18/18 17/17/17
f 31/31/31 24/24/24 22/22/22
f 27/27/27 24/24/24 32/32/32
f 32/32/32 24/24/24 31/31/31
f 31/31/31 22/22/22 33/33/33
f 33/33/33 22/22/22 23/23/23
f 25/25/25 27/27/27 34/34/34
f 26/26/26 25/25/25 35/35/35
f 35/35/35 25/25/25 34/34/34
f 27/27/27 32/32/32 36/36/36
f 34/34/34 27/27/27 36/36/36
f 32/32/32 31/31/31 37/37/37
f 36/36/36 32/32/32 37/37/37
f 31/31/31 33/33/33 38/38/38
f 37/37/37 31/31/31 38/38/38
f 39/39/39 26/26/26 35/35/35
f 29/29/29 26/26/26 39/39/39
f 40/40/40 29/29/29 39/39/39
f 28/28/28 29/29/29 40/40/40
f 41/41/41 28/28/28 40/40/40
f 30/30/30 28/28/28 41/41/41
f 34/34/34 36/36/36 42/42/42
f 43/43/43 36/36/36 37/37/37
f 42/42/42 36/36/36 43/43/43
f 35/35/35 34/34/34 44/44/44
f 44/44/44 34/34/34 42/42/42
f 39/39/39 35/35/35 45/45/45
f 45/45/45 35/35/35 44/44/44
f 46/46/46 40/40/40 39/39/39
f 46/46/46 39/39/39 45/45/45
f 41/41/41 40/40/40 47/47/47
f 47/47/47 40/40/40 46/46/46
f 43/43/43 37/37/37 48/48/48
f 37/37/37 38/38/38 48/48/48
f 49/49/49 30/30/30 41/41/41
f 50/50/50 41/41/41 47/47/47
f 49/49/49 41/41/41 50/50/50
f 51/51/51 30/30/30 49/49/49
f 51/51/51 18/18/18 30/30/30
f 51/51/51 52/52/52 18/18/18
f 52/52/52 10/10/10 18/18/18
f 53/53/53 10/10/10 52/52/52
f 53/53/53 11/11/11 10/10/10
f 54/54/54 11/11/11 53/53/53
f 54/54/54 15/15/15 11/11/11
f 55/55/55 51/51/51 49/49/49
f 56/56/56 52/52/52 51/51/51
f 56/56/56 51/51/51 55/55/55
f 57/57/57 53/53/53 52/52/52
f 57/57/57 52/52/52 56/56/56
f 58/58/58 49/49/49 50/50/50
f 55/55/55 49/49/49 58/58/58
f 59/59/59 56/56/56 55/55/55
f 57/57/57 56/56/56 59/59/59
f 60/60/60 53/53/53 57/57/57
f 60/60/60 54/54/54 53/53/53
f 61/61/61 55/55/55 58/58/58
f 61/61/61 59/59/59 55/55/55
f 62/62/62 57/57/57 59/59/59
f 60/60/60 57/57/57 62/62/62
f 63/63/63 59/59/59 61/61/61
f 62/62/62 59/59/59 63/63/63
f 64/64/64 15/15/15 54/54/54
f 65/65/65 54/54/54 60/60/60
f 65/65/65 64/64/64 54/54/54
f 66/66/66 60/60/60 62/62/62
f 65/65/65 60/60/60 66/66/66
f 67/67/67 62/62/62 63/63/63
f 66/66/66 62/62/62 67/67/67
f 68/68/68 15/15/15 64/64/64
f 68/68/68 14/14/14 15/15/15
f 69/69/69 14/14/14 68/68/68
f 69/69/69 16/16/16 14/14/14
f 70/70/70 16/16/16 69/69/69
f 23/23/23 16/16/16 70/70/70
f 71/71/71 23/23/23 70/70/70
f 33/33/33 23/23/23 71/71/71
f 33/33/33 71/71/71 72/72/72
f 38/38/38 33/33/33 72/72/72
f 38/38/38 72/72/72 73/73/73
f 48/48/48 38/38/38 73/73/73
f 74/74/74 68/68/68 64/64/64
f 75/75/75 69/69/69 68/68/68
f 75/75/75 68/68/68 74/74/74
f 76/76/76 70/70/70 69/69/69
f 76/76/76 69/69/69 75/75/75
f 71/71/71 70/70/70 77/77/77
f 77/77/77 70/70/70 76/76/76
f 72/72/72 71/71/71 78/78/78
f 71/71/71 77/77/77 78/78/78
f 77/77/77 76/76/76 79/79/79
f 78/78/78 77/77/77 79/79/79
f 76/76/76 75/75/75 80/80/80
f 79/79/79 76/76/76 80/80/80
f 72/72/72 78/78/78 81/81/81
f 73/73/73 72/72/72 81/81/81
f 82/82/82 78/78/78 79/79/79
f 81/81/81 78/78/78 82/82/82
f 74/74/74 64/64/64 83/83/83
f 83/83/83 64/64/64 65/65/65
f 75/75/75 74/74/74 84/84/84
f 80/80/80 75/75/75 84/84/84
f 79/79/79 80/80/80 85/85/85
f 82/82/82 79/79/79 85/85/85
f 83/83/83 65/65/65 86/86/86
f 86/86/86 65/65/65 66/66/66
f 74/74/74 83/83/83 87/87/87
f 84/84/84 74/74/74 87/87/87
f 87/87/87 83/83/83 86/86/86
f 80/80/80 84/84/84 88/88/88
f 85/85/85 80/80/80 88/88/88
f 86/86/86 66/66/66 89/89/89
f 89/89/89 66/66/66 67/67/67
f 84/84/84 87/87/87 90/90/90
f 88/88/88 84/84/84 90/90/90
f 91/91/91 87/87/87 86/86/86
f 91/91/91 86/86/86 89/89/89
f 90/90/90 87/87/87 91/91/91
f 92/92/92 82/82/82 85/85/85
f 85/85/85 88/88/88 93/93/93
f 92/92/92 85/85/85 93/93/93
f 88/88/88 90/90/90 94/94/94
f 93/93/93 88/88/88 94/94/94
f 95/95/95 90/90/90 91/91/91
f 94/94/94 90/90/90 95/95/95
f 96/96/96 91/91/91 89/89/89
f 95/95/95 91/91/91 96/96/96
f 89/89/89 67/67/67 97/97/97
f 96/96/96 89/89/89 97/97/97
f 98/98/98 82/82/82 92/92/92
f 98/98/98 81/81/81 82/82/82
f 97/97/97 67/67/67 99/99/99
f 67/67/67 63/63/63 99/99/99
f 100/100/100 81/81/81 98/98/98
f 73/73/73 81/81/81 100/100/100
f 99/99/99 63/63/63 101/101/101
f 101/101/101 63/63/63 61/61/61
f 102/102/102 73/73/73 100/100/100
f 48/48/48 73/73/73 102/102/102
f 101/101/101 61/61/61 103/103/103
f 103/103/103 61/61/61 58/58/58
f 104/104/104 48/48/48 102/102/102
f 104/104/104 43/43/43 48/48/48
f 103/103/103 58/58/58 105/105/105
f 58/58/58 50/50/50 105/105/105
f 106/106/106 43/43/43 104/104/104
f 106/106/106 42/42/42 43/43/43
f 105/105/105 50/50/50 107/107/107
f 50/50/50 47/47/47 107/107/107
f 108/108/108 42/42/42 106/106/106
f 44/44/44 42/42/42 108/108/108
f 107/107/107 47/47/47 109/109/109
f 109/109/109 47/47/47 46/46/46
f 110/110/110 44/44/44 108/108/108
f 45/45/45 44/44/44 110/110/110
f 111/111/111 46/46/46 45/45/45
f 109/109/109 46/46/46 111/111/111
f 111/111/111 45/45/45 110/110/110
f 112/112/112 106/106/106 104/104/104
f 113/113/113 108/108/108 106/106/106
f 113/113/113 106/106/106 112/112/112
f 110/110/110 108/108/108 114/114/114
f 114/114/114 108/108/108 113/113/113
f 115/115/115 111/111/111 110/110/110
f 115/115/115 110/110/110 114/114/114
f 116/116/116 109/109/109 111/111/111
f 116/116/116 111/111/111 115/115/115
f 117/117/117 107/107/107 109/109/109
f 117/117/117 109/109/109 116/116/116
f 118/118/118 114/114/114 113/113/113
f 115/115/115 114/114/114 118/118/118
f 116/116/116 115/115/115 119/119/119
f 119/119/119 115/115/115 118/118/118
f 120/120/120 118/118/118 113/113/113
f 120/120/120 113/113/113 112/112/112
f 112/112/112 104/104/104 121/121/121
f 121/121/121 104/104/104 102/102/102
f 122/122/122 107/107/107 117/117/117
f 105/105/105 107/107/107 122/122/122
f 117/117/117 116/116/116 123/123/123
f 123/123/123 116/116/116 119/119/119
f 119/119/119 118/118/118 124/124/124
f 124/124/124 118/118/118 120/120/120
f 125/125/125 120/120/120 112/112/112
f 125/125/125 112/112/112 121/121/121
f 121/121/121 102/102/102 126/126/126
f 102/102/102 100/100/100 126/126/126
f 127/127/127 105/105/105 122/122/122
f 127/127/127 103/103/103 105/105/105
f 128/128/128 121/121/121 126/126/126
f 128/128/128 125/125/125 121/121/121
f 126/126/126 100/100/100 129/129/129
f 126/126/126 129/129/129 128/128/128
f 129/129/129 100/100/100 98/98/98
f 130/130/130 120/120/120 125/125/125
f 130/130/130 124/124/124 120/120/120
f 131/131/131 125/125/125 128/128/128
f 131/131/131 130/130/130 125/125/125
f 129/129/129 98/98/98 132/132/132
f 132/132/132 98/98/98 92/92/92
f 128/128/128 129/129/129 133/133/133
f 128/128/128 133/133/133 131/131/131
f 129/129/129 132/132/132 133/133/133
f 132/132/132 92/92/92 134/134/134
f 134/134/134 92/92/92 93/93/93
f 133/133/133 132/132/132 135/135/135
f 132/132/132 134/134/134 135/135/135
f 131/131/131 133/133/133 136/136/136
f 133/133/133 135/135/135 136/136/136
f 137/137/137 130/130/130 131/131/131
f 131/131/131 136/136/136 137/137/137
f 138/138/138 124/124/124 130/130/130
f 137/137/137 138/138/138 130/130/130
f 134/134/134 93/93/93 139/139/139
f 93/93/93 94/94/94 139/139/139
f 135/135/135 134/134/134 140/140/140
f 134/134/134 139/139/139 140/140/140
f 139/139/139 94/94/94 141/141/141
f 139/139/139 141/141/141 140/140/140
f 141/141/141 94/94/94 95/95/95
f 136/136/136 135/135/135 142/142/142
f 135/135/135 140/140/140 142/142/142
f 137/137/137 136/136/136 143/143/143
f 136/136/136 142/142/142 143/143/143
f 141/141/141 95/95/95 144/144/144
f 144/144/144 95/95/95 96/96/96
f 140/140/140 141/141/141 145/145/145
f 140/140/140 145/145/145 142/142/142
f 141/141/141 144/144/144 145/145/145
f 144/144/144 96/96/96 146/146/146
f 146/146/146 96/96/96 97/97/97
f 142/142/142 145/145/145 147/147/147
f 142/142/142 147/147/147 143/143/143
f 145/145/145 144/144/144 148/148/148
f 144/144/144 146/146/146 148/148/148
f 145/145/145 148/148/148 147/147/147
f 137/137/137 143/143/143 149/149/149
f 149/149/149 138/138/138 137/137/137
f 146/146/146 97/97/97 150/150/150
f 97/97/97 99/99/99 150/150/150
f 143/143/143 147/147/147 151/151/151
f 143/143/143 151/151/151 149/149/149
f 147/147/147 148/148/148 152/152/152
f 147/147/147 152/152/152 151/151/151
f 148/148/148 146/146/146 153/153/153
f 146/146/146 150/150/150 153/153/153
f 148/148/148 153/153/153 152/152/152
f 150/150/150 99/99/99 154/154/154
f 150/150/150 154/154/154 153/153/153
f 154/154/154 99/99/99 101/101/101
f 155/155/155 138/138/138 149/149/149
f 151/151/151 155/155/155 149/149/149
f 152/152/152 156/156/156 151/151/151
f 151/151/151 156/156/156 155/155/155
f 153/153/153 157/157/157 152/152/152
f 153/153/153 154/154/154 157/157/157
f 152/152/152 157/157/157 156/156/156
f 154/154/154 101/101/101 158/158/158
f 154/154/154 158/158/158 157/157/157
f 158/158/158 101/101/101 103/103/103
f 158/158/158 103/103/103 127/127/127
f 157/157/157 158/158/158 159/159/159
f 157/157/157 159/159/159 156/156/156
f 158/158/158 127/127/127 159/159/159
f 155/155/155 160/160/160 138/138/138
f 160/160/160 124/124/124 138/138/138
f 160/160/160 119/119/119 124/124/124
f 123/123/123 119/119/119 160/160/160
f 156/156/156 161/161/161 155/155/155
f 161/161/161 160/160/160 155/155/155
f 156/156/156 159/159/159 161/161/161
f 161/161/161 123/123/123 160/160/160
f 159/159/159 127/127/127 162/162/162
f 159/159/159 162/162/162 161/161/161
f 162/162/162 123/123/123 161/161/161
f 127/127/127 122/122/122 162/162/162
f 162/162/162 117/117/117 123/123/123
f 122/122/122 117/117/117 162/162/162
