g polecatLeg_mesh
v 0.12 0 0
v -0.12 0 0
v 0.122 -0.12 0
v -0.122 -0.12 0
v 0.1193 -0.21 0
v -0.1193 -0.21 0
v 0.1154 -0.27 0
v -0.1154 -0.27 0
v 0.11275 -0.3 0
v -0.11275 -0.3 0
v 0.11275 -0.3 0
v -0.11275 -0.3 0
v 0.10975 -0.33 0
v -0.10975 -0.33 0
v 0.10305 -0.39 0
v -0.10305 -0.39 0
v 0.0909 -0.48 0
v -0.0909 -0.48 0
v 0.0705 -0.6 0
v -0.0705 -0.6 0
vt 0.6095703 0.1229492
vt 0.6414062 0.1229492
vt 0.6095703 0.1105859
vt 0.6414062 0.1105859
vt 0.6095703 0.1013135
vt 0.6414062 0.1013135
vt 0.6095703 0.09513184
vt 0.6414062 0.09513184
vt 0.6095703 0.09204102
vt 0.6414062 0.09204102
vt 0.6095703 0.09204102
vt 0.6414062 0.09204102
vt 0.6095703 0.08895019
vt 0.6414062 0.08895019
vt 0.6095703 0.08276855
vt 0.6414062 0.08276855
vt 0.6095703 0.0734961
vt 0.6414062 0.0734961
vt 0.6095703 0.06113281
vt 0.6414062 0.06113281
vn 0 0 -1
vn 0 0 -1
vn 0 0 -1
vn 0 0 -1
vn 0 0 -1
vn 0 0 -1
vn 0 0 -1
vn 0 0 -0.9999999
vn 0 0 -1
vn 0 0 -1
vn 0 0 -1
vn 0 0 -1
vn 0 0 -1
vn 0 0 -1
vn 0 0 -1
vn 0 0 -0.9999999
vn 0 0 -1
vn 0 0 -1
vn 0 0 -1
vn 0 0 -1
g polecatLeg_mesh_0
f 3/3/3 2/2/2 1/1/1
f 4/4/4 2/2/2 3/3/3
f 5/5/5 4/4/4 3/3/3
f 6/6/6 4/4/4 5/5/5
f 7/7/7 6/6/6 5/5/5
f 8/8/8 6/6/6 7/7/7
f 9/9/9 8/8/8 7/7/7
f 10/10/10 8/8/8 9/9/9
f 11/11/11 10/10/10 9/9/9
f 12/12/12 10/10/10 11/11/11
f 13/13/13 12/12/12 11/11/11
f 14/14/14 12/12/12 13/13/13
f 15/15/15 14/14/14 13/13/13
f 16/16/16 14/14/14 15/15/15
f 17/17/17 16/16/16 15/15/15
f 18/18/18 16/16/16 17/17/17
f 19/19/19 18/18/18 17/17/17
f 20/20/20 18/18/18 19/19/19
