g polecatArm_mesh
v 0.09 0 0
v -0.09 0 0
v 0.097 -0.12 0
v -0.097 -0.12 0
v 0.10225 -0.21 0
v -0.10225 -0.21 0
v 0.10575 -0.27 0
v -0.10575 -0.27 0
v 0.1075 -0.3 0
v -0.1075 -0.3 0
v 0.1075 -0.3 0
v -0.1075 -0.3 0
v 0.10925 -0.33 0
v -0.10925 -0.33 0
v 0.11275 -0.39 0
v -0.11275 -0.39 0
v 0.118 -0.48 0
v -0.118 -0.48 0
v 0.125 -0.6 0
v -0.125 -0.6 0
vt 0.8068359 0.3265625
vt 0.8386719 0.3265625
vt 0.8068359 0.313418
vt 0.8386719 0.313418
vt 0.8068359 0.3035596
vt 0.8386719 0.3035596
vt 0.8068359 0.2969873
vt 0.8386719 0.2969873
vt 0.8068359 0.2937012
vt 0.8386719 0.2937012
vt 0.8068359 0.2937012
vt 0.8386719 0.2937012
vt 0.8068359 0.290415
vt 0.8386719 0.290415
vt 0.8068359 0.2838428
vt 0.8386719 0.2838428
vt 0.8068359 0.2739844
vt 0.8386719 0.2739844
vt 0.8068359 0.2608398
vt 0.8386719 0.2608398
vn 0 0 -1
vn 0 0 -1
vn 0 0 -1
vn 0 0 -1
vn 0 0 -1
vn 0 0 -1
vn 0 0 -1
vn 0 0 -1
vn 0 0 -1
vn 0 0 -1
vn 0 0 -1
vn 0 0 -1
vn 0 0 -0.9999999
vn 0 0 -1
vn 0 0 -1
vn 0 0 -1
vn 0 0 -1
vn 0 0 -1
vn 0 0 -1
vn 0 0 -1
g polecatArm_mesh_0
f 3/3/3 2/2/2 1/1/1
f 4/4/4 2/2/2 3/3/3
f 5/5/5 4/4/4 3/3/3
f 6/6/6 4/4/4 5/5/5
f 7/7/7 6/6/6 5/5/5
f 8/8/8 6/6/6 7/7/7
f 9/9/9 8/8/8 7/7/7
f 10/10/10 8/8/8 9/9/9
f 11/11/11 10/10/10 9/9/9
f 12/12/12 10/10/10 11/11/11
f 13/13/13 12/12/12 11/11/11
f 14/14/14 12/12/12 13/13/13
f 15/15/15 14/14/14 13/13/13
f 16/16/16 14/14/14 15/15/15
f 17/17/17 16/16/16 15/15/15
f 18/18/18 16/16/16 17/17/17
f 19/19/19 18/18/18 17/17/17
f 20/20/20 18/18/18 19/19/19
