g PondWalkwayEdgePoleBottom
v -0.1 -0.2499992 0.07500732
v -0.1 -4.529953E-06 -0.07499957
v -0.1 -4.529953E-06 0.07500732
v -0.1 -0.2499992 -0.07499957
v -0.1 -0.4999939 0.07500732
v -0.07500732 -4.529953E-06 -0.09999233
v -0.1 -0.4999939 -0.07499957
v -0.1 -0.7500054 0.07500732
v -0.07500732 -0.2499992 -0.09999233
v 0.07499957 -4.529953E-06 -0.09999233
v -0.1 -0.7500054 -0.07499957
v -0.1 -1 0.07500732
v -0.1 -1 -0.07499957
v 0.07499957 -0.2499992 -0.09999233
v 0.09999233 -4.529953E-06 -0.07499957
v -0.07500732 -0.4999939 -0.09999233
v -0.07500732 -0.7500054 -0.09999233
v -0.07500732 -1 -0.09999233
v 0.09999233 -0.2499992 -0.07499957
v 0.09999233 -4.529953E-06 0.07500732
v 0.07499957 -0.4999939 -0.09999233
v 0.07499957 -0.7500054 -0.09999233
v 0.07499957 -1 -0.09999233
v 0.09999233 -0.2499992 0.07500732
v 0.07499957 -4.529953E-06 0.1
v 0.09999233 -0.4999939 -0.07499957
v 0.09999233 -0.7500054 -0.07499957
v 0.09999233 -1 -0.07499957
v 0.07499957 -0.2499992 0.1
v -0.07500732 -4.529953E-06 0.1
v 0.09999233 -0.4999939 0.07500732
v 0.09999233 -0.7500054 0.07500732
v 0.09999233 -1 0.07500732
v -0.07500732 -0.2499992 0.1
v -0.1 -4.529953E-06 0.07500732
v -0.1 -0.2499992 0.07500732
v 0.07499957 -0.4999939 0.1
v 0.07499957 -0.7500054 0.1
v 0.07499957 -1 0.1
v -0.07500732 -0.4999939 0.1
v -0.1 -0.4999939 0.07500732
v -0.07500732 -0.7500054 0.1
v -0.07500732 -1 0.1
v -0.1 -0.7500054 0.07500732
v -0.1 -1 0.07500732
vt 0.5464015 0.03125
vt 0.6041667 0.21875
vt 0.6041667 0.03125
vt 0.5464015 0.21875
vt 0.4895833 0.03125
vt 0.6041667 0.28125
vt 0.4895833 0.21875
vt 0.4318182 0.03125
vt 0.5464015 0.28125
vt 0.6041667 0.46875
vt 0.4327652 0.21875
vt 0.375 0.03125
vt 0.375 0.21875
vt 0.5464015 0.46875
vt 0.6041667 0.53125
vt 0.4895833 0.28125
vt 0.4318182 0.28125
vt 0.375 0.28125
vt 0.5464015 0.53125
vt 0.6041667 0.71875
vt 0.4895833 0.46875
vt 0.4327652 0.46875
vt 0.375 0.46875
vt 0.5464015 0.71875
vt 0.6041667 0.78125
vt 0.4895833 0.53125
vt 0.4318182 0.53125
vt 0.375 0.53125
vt 0.5464015 0.78125
vt 0.6041667 0.96875
vt 0.4895833 0.71875
vt 0.4327652 0.71875
vt 0.375 0.71875
vt 0.5464015 0.96875
vt 0.6041667 1
vt 0.5464015 1
vt 0.4895833 0.78125
vt 0.4318182 0.78125
vt 0.375 0.78125
vt 0.4895833 0.96875
vt 0.4895833 1
vt 0.4327652 0.96875
vt 0.375 0.96875
vt 0.4318182 1
vt 0.375 1
vn -0.9238803 0.003623068 0.3826643
vn -0.9238803 0.003623068 -0.3826643
vn -0.9238803 0.003623068 0.3826643
vn -0.9238803 0.003623068 -0.3826643
vn -0.9238803 0.003623068 0.3826643
vn -0.3804213 0.003623068 -0.9248062
vn -0.9238803 0.003623068 -0.3826643
vn -0.9238803 0.003623068 0.3826643
vn -0.3804213 0.003623068 -0.9248062
vn 0.3804213 0.003623068 -0.9248062
vn -0.9238803 0.003623068 -0.3826643
vn -0.9238803 0.003623068 0.3826643
vn -0.9238803 0.003623068 -0.3826643
vn 0.3804213 0.003623068 -0.9248062
vn 0.9238803 0.003623068 -0.3826643
vn -0.3804213 0.003623068 -0.9248062
vn -0.3804213 0.003623068 -0.9248062
vn -0.3804213 0.003623068 -0.9248062
vn 0.9238803 0.003623068 -0.3826643
vn 0.9238803 0.003623068 0.3826643
vn 0.3804213 0.003623068 -0.9248062
vn 0.3804213 0.003623068 -0.9248062
vn 0.3804213 0.003623068 -0.9248062
vn 0.9238803 0.003623068 0.3826643
vn 0.3804213 0.003623068 0.9248062
vn 0.9238803 0.003623068 -0.3826643
vn 0.9238803 0.003623068 -0.3826643
vn 0.9238803 0.003623068 -0.3826643
vn 0.3804213 0.003623068 0.9248062
vn -0.3804213 0.003623068 0.9248062
vn 0.9238803 0.003623068 0.3826643
vn 0.9238803 0.003623068 0.3826643
vn 0.9238803 0.003623068 0.3826643
vn -0.3804213 0.003623068 0.9248062
vn -0.9238803 0.003623068 0.3826643
vn -0.9238803 0.003623068 0.3826643
vn 0.3804213 0.003623068 0.9248062
vn 0.3804213 0.003623068 0.9248062
vn 0.3804213 0.003623068 0.9248062
vn -0.3804213 0.003623068 0.9248062
vn -0.9238803 0.003623068 0.3826643
vn -0.3804213 0.003623068 0.9248062
vn -0.3804213 0.003623068 0.9248062
vn -0.9238803 0.003623068 0.3826643
vn -0.9238803 0.003623068 0.3826643
g PondWalkwayEdgePoleBottom_0
f 3/3/3 2/2/2 1/1/1
f 2/2/2 4/4/4 1/1/1
f 1/1/1 4/4/4 5/5/5
f 4/4/4 2/2/2 6/6/6
f 4/4/4 7/7/7 5/5/5
f 5/5/5 7/7/7 8/8/8
f 9/9/9 4/4/4 6/6/6
f 7/7/7 4/4/4 9/9/9
f 6/6/6 10/10/10 9/9/9
f 7/7/7 11/11/11 8/8/8
f 8/8/8 11/11/11 12/12/12
f 11/11/11 13/13/13 12/12/12
f 10/10/10 14/14/14 9/9/9
f 14/14/14 10/10/10 15/15/15
f 16/16/16 7/7/7 9/9/9
f 11/11/11 7/7/7 16/16/16
f 9/9/9 14/14/14 16/16/16
f 13/13/13 11/11/11 17/17/17
f 17/17/17 11/11/11 16/16/16
f 18/18/18 13/13/13 17/17/17
f 19/19/19 14/14/14 15/15/15
f 15/15/15 20/20/20 19/19/19
f 14/14/14 21/21/21 16/16/16
f 16/16/16 21/21/21 17/17/17
f 21/21/21 14/14/14 19/19/19
f 17/17/17 22/22/22 18/18/18
f 21/21/21 22/22/22 17/17/17
f 22/22/22 23/23/23 18/18/18
f 20/20/20 24/24/24 19/19/19
f 24/24/24 20/20/20 25/25/25
f 26/26/26 21/21/21 19/19/19
f 22/22/22 21/21/21 26/26/26
f 19/19/19 24/24/24 26/26/26
f 23/23/23 22/22/22 27/27/27
f 27/27/27 22/22/22 26/26/26
f 28/28/28 23/23/23 27/27/27
f 29/29/29 24/24/24 25/25/25
f 25/25/25 30/30/30 29/29/29
f 24/24/24 31/31/31 26/26/26
f 26/26/26 31/31/31 27/27/27
f 31/31/31 24/24/24 29/29/29
f 27/27/27 32/32/32 28/28/28
f 31/31/31 32/32/32 27/27/27
f 32/32/32 33/33/33 28/28/28
f 30/30/30 34/34/34 29/29/29
f 30/30/30 35/35/35 34/34/34
f 35/35/35 36/36/36 34/34/34
f 37/37/37 31/31/31 29/29/29
f 32/32/32 31/31/31 37/37/37
f 29/29/29 34/34/34 37/37/37
f 33/33/33 32/32/32 38/38/38
f 38/38/38 32/32/32 37/37/37
f 39/39/39 33/33/33 38/38/38
f 34/34/34 36/36/36 40/40/40
f 34/34/34 40/40/40 37/37/37
f 37/37/37 40/40/40 38/38/38
f 36/36/36 41/41/41 40/40/40
f 38/38/38 42/42/42 39/39/39
f 40/40/40 42/42/42 38/38/38
f 40/40/40 41/41/41 42/42/42
f 42/42/42 43/43/43 39/39/39
f 41/41/41 44/44/44 42/42/42
f 42/42/42 44/44/44 43/43/43
f 44/44/44 45/45/45 43/43/43
