g PondLevelDoorInner
v -1.046746 2.311701 -0.1299998
v -1.046746 3.521769 0.130001
v -1.046746 3.521769 -0.1299998
v -1.046746 2.311701 0.130001
v -0.6114984 2.311701 -0.1299998
v -0.6114984 2.311701 0.130001
v -0.6076536 2.957189 -0.1299998
v -0.6076536 2.957189 0.130001
v -0.6414771 3.106637 0.130001
v -0.6414771 3.106637 -0.1299998
v -0.6979239 3.239145 0.130001
v -0.6979239 3.239145 -0.1299998
v -0.8077528 3.38107 0.130001
v -0.8077528 3.38107 -0.1299998
v -0.9519624 3.486497 0.130001
v -0.9519624 3.486497 -0.1299998
v -1.046746 3.521769 -0.1299998
v -1.046746 3.521769 0.130001
vt 0.7180406 0.930649
vt 0.7180406 0.9694986
vt 0.7180406 0.9694986
vt 0.7180406 0.930649
vt 0.6975515 0.930649
vt 0.6975515 0.930649
vt 0.6972854 0.9567262
vt 0.6972854 0.9567262
vt 0.698882 0.9601854
vt 0.698882 0.9601854
vt 0.7004786 0.9636446
vt 0.7004786 0.9636446
vt 0.7073969 0.9665716
vt 0.7073969 0.9665716
vt 0.7140493 0.9694986
vt 0.7140493 0.9694986
vt 0.7180406 0.9694986
vt 0.7180406 0.9694986
vn 0.7100496 0.7041517 0
vn 0.9999995 0.0009585619 -0.0001866371
vn 0.9999995 0.0009585619 -0.0001866371
vn 0.7100496 0.7041517 0
vn -0.7031947 0.7109974 0
vn -0.7031947 0.7109974 0
vn -0.9940941 -0.108521 0
vn -0.9940941 -0.108521 0
vn -0.9528801 -0.3033471 0
vn -0.9528801 -0.3033471 0
vn -0.8611568 -0.5073405 -0.0318517
vn -0.8611568 -0.5073405 -0.0318517
vn -0.6962638 -0.7177859 0
vn -0.6962638 -0.7177859 0
vn -0.470109 -0.8826084 0
vn -0.470109 -0.8826084 0
vn -0.3450378 -0.9374396 -0.04643103
vn -0.3450378 -0.9374396 -0.04643103
g PondLevelDoorInner_0
f 3/3/3 2/2/2 1/1/1
f 2/2/2 4/4/4 1/1/1
f 5/5/5 1/1/1 4/4/4
f 6/6/6 5/5/5 4/4/4
f 7/7/7 5/5/5 6/6/6
f 8/8/8 7/7/7 6/6/6
f 7/7/7 8/8/8 9/9/9
f 10/10/10 7/7/7 9/9/9
f 10/10/10 9/9/9 11/11/11
f 12/12/12 10/10/10 11/11/11
f 12/12/12 11/11/11 13/13/13
f 14/14/14 12/12/12 13/13/13
f 14/14/14 13/13/13 15/15/15
f 16/16/16 14/14/14 15/15/15
f 17/17/17 16/16/16 15/15/15
f 18/18/18 17/17/17 15/15/15
