g PondWalkwayEdgeTop
v 0.09999514 -1.811981E-05 0.08502674
v 1.811981E-05 -1.811981E-05 0.08502674
v 1.811981E-05 0.0750289 0.08502674
v 0.09999514 0.0750289 0.08502674
v 0.1999722 -1.811981E-05 0.08502674
v 0.09999514 0.1000233 0.06003237
v 1.811981E-05 0.1000233 0.06003237
v 0.1999722 0.0750289 0.08502674
v 1.400018 -1.811981E-05 0.08502674
v 0.09999514 0.1000233 -0.06000423
v 1.811981E-05 0.1000233 -0.06000423
v 0.1999722 0.1000233 0.06003237
v 1.400018 0.0750289 0.08502674
v 2.6 -1.811981E-05 0.08502674
v 0.09999514 0.0750289 -0.08499861
v 1.811981E-05 0.0750289 -0.08499861
v 1.811981E-05 -1.811981E-05 -0.08499861
v 0.09999514 -1.811981E-05 -0.08499861
v 0.1999722 0.0750289 -0.08499861
v 0.1999722 -1.811981E-05 -0.08499861
v 0.1999722 0.1000233 -0.06000423
v 1.400018 0.0750289 -0.08499861
v 1.400018 -1.811981E-05 -0.08499861
v 1.400018 0.1000233 -0.06000423
v 2.6 0.0750289 -0.08499861
v 2.6 -1.811981E-05 -0.08499861
v 1.400018 0.1000233 0.06003237
v 3.799982 0.0750289 -0.08499861
v 3.799982 -1.811981E-05 -0.08499861
v 2.6 0.1000233 -0.06000423
v 2.6 0.1000233 0.06003237
v 3.900023 0.0750289 -0.08499861
v 3.900023 -1.811981E-05 -0.08499861
v 3.799982 0.1000233 -0.06000423
v 2.6 0.0750289 0.08502674
v 3.799982 -1.811981E-05 0.08502674
v 4 0.0750289 -0.08499861
v 4 -1.811981E-05 -0.08499861
v 3.900023 0.1000233 -0.06000423
v 4 0.1000233 -0.06000423
v 3.799982 0.1000233 0.06003237
v 3.799982 0.0750289 0.08502674
v 3.900023 -1.811981E-05 0.08502674
v 3.900023 0.1000233 0.06003237
v 4 0.1000233 0.06003237
v 3.900023 0.0750289 0.08502674
v 4 -1.811981E-05 0.08502674
v 4 0.0750289 0.08502674
v 0.07500076 -1.811981E-05 0.1000233
v -0.0750289 -1.811981E-05 0.1000233
v -0.0750289 0.1750059 0.1000233
v 0.07500076 0.1750059 0.1000233
v 0.09999514 -1.811981E-05 0.0750289
v 0.09999514 0.1750059 0.0750289
v 0.09999514 -1.811981E-05 -0.07500076
v -0.1000233 0.1750059 0.0750289
v -0.1000233 -1.811981E-05 0.0750289
v 0.07500076 0.2000003 0.0750289
v 0.09999514 0.1750059 -0.07500076
v 0.07500076 -1.811981E-05 -0.09999514
v -0.1000233 0.1750059 -0.07500076
v -0.1000233 -1.811981E-05 -0.07500076
v -0.0750289 0.2000003 0.0750289
v 0.07500076 0.2000003 -0.07500076
v 0.07500076 0.1750059 -0.09999514
v -0.0750289 -1.811981E-05 -0.09999514
v -0.0750289 0.1750059 -0.09999514
v -0.0750289 0.2000003 -0.07500076
vn -0.003623068 0.003623068 0.9999869
vn -0.003623068 0.003623068 0.9999869
vn -0.003623068 0.3804213 0.9248062
vn -0.003623068 0.3804213 0.9248062
vn -0.003623068 0.003623068 0.9999869
vn -0.003623068 0.9238803 0.3826643
vn -0.003623068 0.9238803 0.3826643
vn -0.003623068 0.3804213 0.9248062
vn -0.003623068 0.003623068 0.9999869
vn -0.003623068 0.9238803 -0.3826643
vn -0.003623068 0.9238803 -0.3826643
vn -0.003623068 0.9238803 0.3826643
vn -0.003623068 0.3804213 0.9248062
vn -0.003623068 0.003623068 0.9999869
vn -0.003623068 0.3804213 -0.9248062
vn -0.003623068 0.3804213 -0.9248062
vn -0.003623068 0.003623068 -0.9999869
vn -0.003623068 0.003623068 -0.9999869
vn -0.003623068 0.3804213 -0.9248062
vn -0.003623068 0.003623068 -0.9999869
vn -0.003623068 0.9238803 -0.3826643
vn -0.003623068 0.3804213 -0.9248062
vn -0.003623068 0.003623068 -0.9999869
vn -0.003623068 0.9238803 -0.3826643
vn -0.003623068 0.3804213 -0.9248062
vn -0.003623068 0.003623068 -0.9999869
vn -0.003623068 0.9238803 0.3826643
vn -0.003623068 0.3804213 -0.9248062
vn -0.003623068 0.003623068 -0.9999869
vn -0.003623068 0.9238803 -0.3826643
vn -0.003623068 0.9238803 0.3826643
vn -0.003623068 0.3804213 -0.9248062
vn -0.003623068 0.003623068 -0.9999869
vn -0.003623068 0.9238803 -0.3826643
vn -0.003623068 0.3804213 0.9248062
vn -0.003623068 0.003623068 0.9999869
vn -0.003623068 0.3804213 -0.9248062
vn -0.003623068 0.003623068 -0.9999869
vn -0.003623068 0.9238803 -0.3826643
vn -0.003623068 0.9238803 -0.3826643
vn -0.003623068 0.9238803 0.3826643
vn -0.003623068 0.3804213 0.9248062
vn -0.003623068 0.003623068 0.9999869
vn -0.003623068 0.9238803 0.3826643
vn -0.003623068 0.9238803 0.3826643
vn -0.003623068 0.3804213 0.9248062
vn -0.003623068 0.003623068 0.9999869
vn -0.003623068 0.3804213 0.9248062
vn 0.3804213 0.003623068 0.9248062
vn -0.3804213 0.003623068 0.9248062
vn -0.3441907 0.3441907 0.8735362
vn 0.3441907 0.3441907 0.8735362
vn 0.9238803 0.003623068 0.3826643
vn 0.8731575 0.3441907 0.3451503
vn 0.9238803 0.003623068 -0.3826643
vn -0.8731575 0.3441907 0.3451503
vn -0.9238803 0.003623068 0.3826643
vn 0.3441907 0.8731575 0.3451503
vn 0.8731575 0.3441907 -0.3451503
vn 0.3804213 0.003623068 -0.9248062
vn -0.8731575 0.3441907 -0.3451503
vn -0.9238803 0.003623068 -0.3826643
vn -0.3441907 0.8731575 0.3451503
vn 0.3441907 0.8731575 -0.3451503
vn 0.3441907 0.3441907 -0.8735362
vn -0.3804213 0.003623068 -0.9248062
vn -0.3441907 0.3441907 -0.8735362
vn -0.3441907 0.8731575 -0.3451503
g PondWalkwayEdgeTop_0
f 3/3/3 2/2/2 1/1/1
f 4/4/4 3/3/3 1/1/1
f 4/4/4 1/1/1 5/5/5
f 3/3/3 4/4/4 6/6/6
f 7/7/7 3/3/3 6/6/6
f 8/8/8 4/4/4 5/5/5
f 8/8/8 5/5/5 9/9/9
f 7/7/7 6/6/6 10/10/10
f 11/11/11 7/7/7 10/10/10
f 6/6/6 4/4/4 12/12/12
f 4/4/4 8/8/8 12/12/12
f 13/13/13 8/8/8 9/9/9
f 13/13/13 9/9/9 14/14/14
f 10/10/10 15/15/15 11/11/11
f 15/15/15 16/16/16 11/11/11
f 16/16/16 15/15/15 17/17/17
f 15/15/15 18/18/18 17/17/17
f 15/15/15 19/19/19 18/18/18
f 19/19/19 15/15/15 10/10/10
f 19/19/19 20/20/20 18/18/18
f 10/10/10 6/6/6 21/21/21
f 21/21/21 19/19/19 10/10/10
f 6/6/6 12/12/12 21/21/21
f 19/19/19 22/22/22 20/20/20
f 22/22/22 19/19/19 21/21/21
f 22/22/22 23/23/23 20/20/20
f 21/21/21 12/12/12 24/24/24
f 24/24/24 22/22/22 21/21/21
f 22/22/22 25/25/25 23/23/23
f 25/25/25 22/22/22 24/24/24
f 25/25/25 26/26/26 23/23/23
f 12/12/12 27/27/27 24/24/24
f 12/12/12 8/8/8 27/27/27
f 8/8/8 13/13/13 27/27/27
f 25/25/25 28/28/28 26/26/26
f 28/28/28 29/29/29 26/26/26
f 30/30/30 25/25/25 24/24/24
f 24/24/24 27/27/27 30/30/30
f 28/28/28 25/25/25 30/30/30
f 27/27/27 13/13/13 31/31/31
f 27/27/27 31/31/31 30/30/30
f 28/28/28 32/32/32 29/29/29
f 32/32/32 33/33/33 29/29/29
f 34/34/34 28/28/28 30/30/30
f 30/30/30 31/31/31 34/34/34
f 32/32/32 28/28/28 34/34/34
f 13/13/13 35/35/35 31/31/31
f 35/35/35 13/13/13 14/14/14
f 35/35/35 14/14/14 36/36/36
f 32/32/32 37/37/37 33/33/33
f 37/37/37 38/38/38 33/33/33
f 37/37/37 32/32/32 39/39/39
f 39/39/39 32/32/32 34/34/34
f 40/40/40 37/37/37 39/39/39
f 31/31/31 41/41/41 34/34/34
f 31/31/31 35/35/35 41/41/41
f 34/34/34 41/41/41 39/39/39
f 42/42/42 35/35/35 36/36/36
f 35/35/35 42/42/42 41/41/41
f 42/42/42 36/36/36 43/43/43
f 39/39/39 44/44/44 40/40/40
f 41/41/41 44/44/44 39/39/39
f 41/41/41 42/42/42 44/44/44
f 44/44/44 45/45/45 40/40/40
f 46/46/46 42/42/42 43/43/43
f 42/42/42 46/46/46 44/44/44
f 44/44/44 46/46/46 45/45/45
f 46/46/46 43/43/43 47/47/47
f 46/46/46 48/48/48 45/45/45
f 48/48/48 46/46/46 47/47/47
f 51/51/51 50/50/50 49/49/49
f 52/52/52 51/51/51 49/49/49
f 49/49/49 53/53/53 52/52/52
f 53/53/53 54/54/54 52/52/52
f 54/54/54 53/53/53 55/55/55
f 51/51/51 56/56/56 50/50/50
f 56/56/56 57/57/57 50/50/50
f 51/51/51 52/52/52 58/58/58
f 52/52/52 54/54/54 58/58/58
f 59/59/59 54/54/54 55/55/55
f 55/55/55 60/60/60 59/59/59
f 56/56/56 61/61/61 57/57/57
f 61/61/61 62/62/62 57/57/57
f 63/63/63 56/56/56 51/51/51
f 63/63/63 51/51/51 58/58/58
f 61/61/61 56/56/56 63/63/63
f 58/58/58 54/54/54 64/64/64
f 54/54/54 59/59/59 64/64/64
f 63/63/63 58/58/58 64/64/64
f 60/60/60 65/65/65 59/59/59
f 59/59/59 65/65/65 64/64/64
f 65/65/65 60/60/60 66/66/66
f 66/66/66 62/62/62 67/67/67
f 62/62/62 61/61/61 67/67/67
f 67/67/67 65/65/65 66/66/66
f 68/68/68 63/63/63 64/64/64
f 68/68/68 61/61/61 63/63/63
f 64/64/64 65/65/65 68/68/68
f 67/67/67 61/61/61 68/68/68
f 65/65/65 67/67/67 68/68/68
