g PondLevelLightGlobe
v 5.424023E-06 5.573034E-06 -0.3600001
v 0.2545626 5.573034E-06 -0.2545626
v 0.2421039 0.1112439 -0.2421039
v 5.424023E-06 0.1112439 -0.3423777
v 5.424023E-06 -0.1112437 -0.3423777
v 0.2421039 -0.1112437 -0.2421039
v 5.424023E-06 -0.2116054 -0.2912466
v 0.2059474 -0.2116054 -0.2059474
v 0.2059474 0.2116055 -0.2059474
v 5.424023E-06 0.2116055 -0.2912466
v 0.1496306 0.2912467 -0.1496306
v 5.424023E-06 0.2912467 -0.2116054
v 0.07865778 0.3423778 -0.07865778
v 5.424023E-06 0.3423778 -0.1112437
v -5.573034E-06 0.3600002 5.573034E-06
v 5.424023E-06 -0.2912466 -0.2116054
v 0.1496306 -0.2912466 -0.1496306
v 5.424023E-06 -0.3423777 -0.1112437
v 0.07865778 -0.3423777 -0.07865778
v 5.424023E-06 -0.3600001 5.573034E-06
v 0.1112437 0.3423778 5.573034E-06
v 0.2116054 0.2912467 5.573034E-06
v 0.2116054 -0.2912466 -5.424023E-06
v 0.1112437 -0.3423777 -5.424023E-06
v 0.2912466 0.2116055 5.573034E-06
v 0.2912466 -0.2116054 5.573034E-06
v 0.3423777 -0.1112437 -5.424023E-06
v 0.3600001 5.573034E-06 5.573034E-06
v 0.3423777 0.1112439 5.573034E-06
v 0.2059474 -0.2116054 0.2059475
v 0.1496306 -0.2912466 0.1496307
v 0.2421039 0.1112439 0.2421041
v 0.2545626 5.573034E-06 0.2545628
v 0.07865778 -0.3423777 0.07865793
v 0.2421039 -0.1112437 0.2421041
v 0.2059474 0.2116055 0.2059475
v 0.1496306 0.2912467 0.1496307
v 0.07865778 0.3423778 0.07865793
v 5.424023E-06 0.2116055 0.2912467
v 5.424023E-06 0.1112439 0.3423778
v 5.424023E-06 0.3423778 0.1112439
v 5.424023E-06 -0.2116054 0.2912467
v 5.424023E-06 5.573034E-06 0.3600002
v 5.424023E-06 0.2912467 0.2116055
v 5.424023E-06 -0.1112437 0.3423778
v -0.2421041 -0.1112437 0.2421041
v -0.2059475 -0.2116054 0.2059475
v -0.2059475 0.2116055 0.2059475
v -0.2421041 0.1112439 0.2421041
v -0.07865793 0.3423778 0.07865793
v 5.424023E-06 -0.2912466 0.2116055
v 5.424023E-06 -0.3423777 0.1112439
v -0.1496307 -0.2912466 0.1496307
v -0.2545628 5.573034E-06 0.2545628
v -0.1496307 0.2912467 0.1496307
v -0.07865793 -0.3423777 0.07865793
v -0.2116055 0.2912467 -5.424023E-06
v -0.2912467 0.2116055 5.573034E-06
v -0.1112439 -0.3423777 5.573034E-06
v -0.1112439 0.3423778 -5.424023E-06
v -0.2116055 -0.2912466 -5.424023E-06
v -0.2912467 -0.2116054 5.573034E-06
v -0.3423778 -0.1112437 5.573034E-06
v -0.3600002 5.573034E-06 5.573034E-06
v -0.3423778 0.1112439 5.573034E-06
v -0.1496307 -0.2912466 -0.1496306
v -0.07865793 -0.3423777 -0.07865778
v -0.2545628 5.573034E-06 -0.2545626
v -0.2421041 -0.1112437 -0.2421039
v -0.2059475 -0.2116054 -0.2059474
v -0.2421041 0.1112439 -0.2421039
v -0.2059475 0.2116055 -0.2059474
v -0.1496307 0.2912467 -0.1496306
v -0.07865793 0.3423778 -0.07865778
vn -0.003921509 0.003921509 -0.9999846
vn 0.7097985 0.003921509 -0.7043939
vn 0.6784262 0.3019584 -0.6697454
vn -0.003921509 0.3019584 -0.9533131
vn -0.003921509 -0.3019585 -0.953313
vn 0.6784262 -0.3019585 -0.6697454
vn -0.003921509 -0.5686231 -0.8225888
vn 0.5843093 -0.5686231 -0.5790082
vn 0.5843093 0.5686231 -0.5790082
vn -0.003921509 0.5686231 -0.8225889
vn 0.4352908 0.7882292 -0.4349903
vn -0.003921509 0.7882292 -0.6153693
vn 0.2392139 0.9372476 -0.2536605
vn -0.003921509 0.9372476 -0.3486424
vn -0.003921509 0.9999923 -0.000345267
vn -0.003921509 -0.7882293 -0.6153691
vn 0.4352908 -0.7882293 -0.4349902
vn -0.003921509 -0.9372478 -0.3486421
vn 0.2392139 -0.9372478 -0.25366
vn -0.003921509 -0.9999924 0
vn 0.3411739 0.9372476 -0.07188356
vn 0.615568 0.7880838 0
vn 0.615568 -0.7880839 0
vn 0.3411739 -0.9372478 -0.0718819
vn 0.8196016 0.5686231 -0.07014997
vn 0.8196016 -0.5686231 -0.07014955
vn 0.9529339 -0.3019585 -0.02716688
vn 0.9999924 0.003921509 0
vn 0.9529339 0.3019584 -0.02716757
vn 0.5843093 -0.5686231 0.5790082
vn 0.4352908 -0.7882293 0.4349902
vn 0.6784262 0.3019584 0.6697454
vn 0.7097985 0.003921509 0.7043939
vn 0.2392139 -0.9372478 0.25366
vn 0.6784262 -0.3019585 0.6697454
vn 0.5843093 0.5686231 0.5790082
vn 0.4352908 0.7882292 0.4349903
vn 0.2392139 0.9372476 0.2536605
vn -0.003921509 0.5686231 0.8225889
vn -0.003921509 0.3019584 0.9533131
vn -0.003921509 0.9372476 0.3486424
vn -0.003921509 -0.5686231 0.8225888
vn -0.003921509 0.003921509 0.9999846
vn -0.003921509 0.7882292 0.6153693
vn -0.003921509 -0.3019585 0.953313
vn -0.6784261 -0.3019585 0.6697454
vn -0.5843092 -0.5686231 0.5790082
vn -0.5843092 0.5686231 0.5790083
vn -0.6784261 0.3019584 0.6697455
vn -0.2392138 0.9372476 0.2536605
vn -0.003921509 -0.7882293 0.6153691
vn -0.003921509 -0.9372478 0.3486421
vn -0.4352907 -0.7882293 0.4349903
vn -0.7097985 0.003921509 0.7043939
vn -0.4352907 0.7882292 0.4349905
vn -0.2392138 -0.9372478 0.25366
vn -0.6155679 0.7880838 0
vn -0.8196015 0.5686231 -0.07015082
vn -0.3411738 -0.9372478 -0.07188273
vn -0.3411738 0.9372476 -0.07188439
vn -0.6155679 -0.7880839 0
vn -0.8196015 -0.5686231 -0.0701504
vn -0.9529338 -0.3019585 -0.02717127
vn -0.9999923 0.003921509 -0.0003449296
vn -0.9529338 0.3019584 -0.02717196
vn -0.4352907 -0.7882293 -0.4349903
vn -0.2392138 -0.9372478 -0.25366
vn -0.7097985 0.003921509 -0.7043939
vn -0.6784261 -0.3019585 -0.6697454
vn -0.5843092 -0.5686231 -0.5790082
vn -0.6784261 0.3019584 -0.6697455
vn -0.5843092 0.5686231 -0.5790083
vn -0.4352907 0.7882292 -0.4349905
vn -0.2392138 0.9372476 -0.2536605
g PondLevelLightGlobe_0
f 3/3/3 2/2/2 1/1/1
f 4/4/4 3/3/3 1/1/1
f 1/1/1 2/2/2 5/5/5
f 2/2/2 6/6/6 5/5/5
f 5/5/5 6/6/6 7/7/7
f 6/6/6 8/8/8 7/7/7
f 9/9/9 3/3/3 4/4/4
f 10/10/10 9/9/9 4/4/4
f 11/11/11 9/9/9 10/10/10
f 12/12/12 11/11/11 10/10/10
f 13/13/13 11/11/11 12/12/12
f 14/14/14 13/13/13 12/12/12
f 15/15/15 13/13/13 14/14/14
f 7/7/7 8/8/8 16/16/16
f 8/8/8 17/17/17 16/16/16
f 16/16/16 17/17/17 18/18/18
f 17/17/17 19/19/19 18/18/18
f 18/18/18 19/19/19 20/20/20
f 13/13/13 21/21/21 11/11/11
f 15/15/15 21/21/21 13/13/13
f 21/21/21 22/22/22 11/11/11
f 11/11/11 22/22/22 9/9/9
f 17/17/17 23/23/23 19/19/19
f 23/23/23 24/24/24 19/19/19
f 19/19/19 24/24/24 20/20/20
f 22/22/22 25/25/25 9/9/9
f 26/26/26 23/23/23 17/17/17
f 8/8/8 26/26/26 17/17/17
f 27/27/27 26/26/26 8/8/8
f 6/6/6 27/27/27 8/8/8
f 28/28/28 27/27/27 6/6/6
f 2/2/2 28/28/28 6/6/6
f 29/29/29 28/28/28 2/2/2
f 25/25/25 29/29/29 3/3/3
f 3/3/3 29/29/29 2/2/2
f 9/9/9 25/25/25 3/3/3
f 26/26/26 30/30/30 23/23/23
f 30/30/30 31/31/31 23/23/23
f 23/23/23 31/31/31 24/24/24
f 29/29/29 32/32/32 28/28/28
f 32/32/32 33/33/33 28/28/28
f 28/28/28 33/33/33 27/27/27
f 31/31/31 34/34/34 24/24/24
f 33/33/33 35/35/35 27/27/27
f 35/35/35 30/30/30 26/26/26
f 27/27/27 35/35/35 26/26/26
f 36/36/36 32/32/32 29/29/29
f 25/25/25 36/36/36 29/29/29
f 37/37/37 36/36/36 25/25/25
f 22/22/22 37/37/37 25/25/25
f 38/38/38 37/37/37 22/22/22
f 21/21/21 38/38/38 22/22/22
f 15/15/15 38/38/38 21/21/21
f 36/36/36 39/39/39 32/32/32
f 39/39/39 40/40/40 32/32/32
f 32/32/32 40/40/40 33/33/33
f 15/15/15 41/41/41 38/38/38
f 38/38/38 41/41/41 37/37/37
f 30/30/30 42/42/42 31/31/31
f 40/40/40 43/43/43 33/33/33
f 33/33/33 43/43/43 35/35/35
f 41/41/41 44/44/44 37/37/37
f 44/44/44 39/39/39 36/36/36
f 37/37/37 44/44/44 36/36/36
f 43/43/43 45/45/45 35/35/35
f 45/45/45 42/42/42 30/30/30
f 35/35/35 45/45/45 30/30/30
f 45/45/45 46/46/46 42/42/42
f 46/46/46 47/47/47 42/42/42
f 39/39/39 48/48/48 40/40/40
f 48/48/48 49/49/49 40/40/40
f 40/40/40 49/49/49 43/43/43
f 15/15/15 50/50/50 41/41/41
f 41/41/41 50/50/50 44/44/44
f 42/42/42 47/47/47 51/51/51
f 42/42/42 51/51/51 31/31/31
f 31/31/31 51/51/51 34/34/34
f 51/51/51 52/52/52 34/34/34
f 34/34/34 52/52/52 20/20/20
f 24/24/24 34/34/34 20/20/20
f 47/47/47 53/53/53 51/51/51
f 51/51/51 53/53/53 52/52/52
f 49/49/49 54/54/54 43/43/43
f 54/54/54 46/46/46 45/45/45
f 43/43/43 54/54/54 45/45/45
f 50/50/50 55/55/55 44/44/44
f 53/53/53 56/56/56 52/52/52
f 52/52/52 56/56/56 20/20/20
f 55/55/55 48/48/48 39/39/39
f 44/44/44 55/55/55 39/39/39
f 55/55/55 57/57/57 48/48/48
f 57/57/57 58/58/58 48/48/48
f 56/56/56 59/59/59 20/20/20
f 60/60/60 57/57/57 55/55/55
f 50/50/50 60/60/60 55/55/55
f 15/15/15 60/60/60 50/50/50
f 61/61/61 59/59/59 56/56/56
f 53/53/53 61/61/61 56/56/56
f 62/62/62 61/61/61 53/53/53
f 47/47/47 62/62/62 53/53/53
f 63/63/63 62/62/62 47/47/47
f 46/46/46 63/63/63 47/47/47
f 64/64/64 63/63/63 46/46/46
f 54/54/54 64/64/64 46/46/46
f 65/65/65 64/64/64 54/54/54
f 58/58/58 65/65/65 49/49/49
f 49/49/49 65/65/65 54/54/54
f 48/48/48 58/58/58 49/49/49
f 61/61/61 66/66/66 59/59/59
f 66/66/66 67/67/67 59/59/59
f 64/64/64 68/68/68 63/63/63
f 68/68/68 69/69/69 63/63/63
f 63/63/63 69/69/69 62/62/62
f 69/69/69 70/70/70 62/62/62
f 70/70/70 66/66/66 61/61/61
f 62/62/62 70/70/70 61/61/61
f 71/71/71 68/68/68 64/64/64
f 65/65/65 71/71/71 64/64/64
f 72/72/72 71/71/71 65/65/65
f 58/58/58 72/72/72 65/65/65
f 73/73/73 72/72/72 58/58/58
f 57/57/57 73/73/73 58/58/58
f 74/74/74 73/73/73 57/57/57
f 60/60/60 74/74/74 57/57/57
f 15/15/15 74/74/74 60/60/60
f 71/71/71 4/4/4 68/68/68
f 4/4/4 1/1/1 68/68/68
f 68/68/68 1/1/1 69/69/69
f 74/74/74 14/14/14 73/73/73
f 15/15/15 14/14/14 74/74/74
f 14/14/14 12/12/12 73/73/73
f 73/73/73 12/12/12 72/72/72
f 1/1/1 5/5/5 69/69/69
f 69/69/69 5/5/5 70/70/70
f 12/12/12 10/10/10 72/72/72
f 10/10/10 4/4/4 71/71/71
f 72/72/72 10/10/10 71/71/71
f 5/5/5 7/7/7 70/70/70
f 70/70/70 7/7/7 66/66/66
f 7/7/7 16/16/16 66/66/66
f 66/66/66 16/16/16 67/67/67
f 16/16/16 18/18/18 67/67/67
f 67/67/67 18/18/18 20/20/20
f 59/59/59 67/67/67 20/20/20
