g PondLevelLightGlobe
v 5.424023E-06 0.2912467 -0.2116054
v 0.1496306 0.2912467 -0.1496306
v 0.07865778 0.3423778 -0.07865778
v 5.424023E-06 0.3423778 -0.1112437
v -5.573034E-06 0.3600002 5.573034E-06
v 0.1112437 0.3423778 5.573034E-06
v -0.1496307 0.2912467 -0.1496306
v -0.07865793 0.3423778 -0.07865778
v 5.424023E-06 0.2116055 -0.2912466
v -0.2059475 0.2116055 -0.2059474
v 0.2116054 0.2912467 5.573034E-06
v 0.07865778 0.3423778 0.07865793
v 0.2059474 0.2116055 -0.2059474
v -0.2116055 0.2912467 -5.424023E-06
v -0.2912467 0.2116055 5.573034E-06
v -0.1112439 0.3423778 -5.424023E-06
v 0.1496306 0.2912467 0.1496307
v 5.424023E-06 0.3423778 0.1112439
v -0.07865793 0.3423778 0.07865793
v -0.1496307 0.2912467 0.1496307
v 5.424023E-06 0.2912467 0.2116055
v 0.2912466 0.2116055 5.573034E-06
v -0.2059475 0.2116055 0.2059475
v 0.2059474 0.2116055 0.2059475
v 5.424023E-06 0.2116055 0.2912467
v 0.2421039 0.1112439 -0.2421039
v 0.3423777 0.1112439 5.573034E-06
v 0.2421039 0.1112439 0.2421041
v 5.424023E-06 0.1112439 0.3423778
v -0.2421041 0.1112439 0.2421041
v 5.424023E-06 0.1112439 -0.3423777
v -0.3423778 0.1112439 5.573034E-06
v -0.2421041 0.1112439 -0.2421039
v 0.2545626 5.573034E-06 -0.2545626
v 0.3600001 5.573034E-06 5.573034E-06
v 0.2545626 5.573034E-06 0.2545628
v 5.424023E-06 5.573034E-06 0.3600002
v 5.424023E-06 5.573034E-06 -0.3600001
v -0.2545628 5.573034E-06 0.2545628
v -0.3600002 5.573034E-06 5.573034E-06
v -0.2545628 5.573034E-06 -0.2545626
v 0.2421039 -0.1112437 -0.2421039
v 0.3423777 -0.1112437 -5.424023E-06
v 0.2421039 -0.1112437 0.2421041
v 5.424023E-06 -0.1112437 0.3423778
v 5.424023E-06 -0.1112437 -0.3423777
v -0.2421041 -0.1112437 0.2421041
v -0.3423778 -0.1112437 5.573034E-06
v -0.2421041 -0.1112437 -0.2421039
v 0.2059474 -0.2116054 -0.2059474
v 0.2912466 -0.2116054 5.573034E-06
v 0.2059474 -0.2116054 0.2059475
v 5.424023E-06 -0.2116054 0.2912467
v 5.424023E-06 -0.2116054 -0.2912466
v -0.2059475 -0.2116054 0.2059475
v -0.2912467 -0.2116054 5.573034E-06
v -0.2059475 -0.2116054 -0.2059474
v 0.1496306 -0.2912466 -0.1496306
v 0.2116054 -0.2912466 -5.424023E-06
v 0.1496306 -0.2912466 0.1496307
v 5.424023E-06 -0.2912466 0.2116055
v 5.424023E-06 -0.2912466 -0.2116054
v -0.1496307 -0.2912466 0.1496307
v -0.2116055 -0.2912466 -5.424023E-06
v -0.1496307 -0.2912466 -0.1496306
v 0.07865778 -0.3423777 -0.07865778
v 0.1112437 -0.3423777 -5.424023E-06
v 5.424023E-06 -0.3600001 5.573034E-06
v 5.424023E-06 -0.3423777 -0.1112437
v 0.07865778 -0.3423777 0.07865793
v -0.07865793 -0.3423777 -0.07865778
v 5.424023E-06 -0.3423777 0.1112439
v -0.1112439 -0.3423777 5.573034E-06
v -0.07865793 -0.3423777 0.07865793
vn -0.003921509 0.7882292 -0.6153693
vn 0.4352908 0.7882292 -0.4349903
vn 0.2392139 0.9372476 -0.2536605
vn -0.003921509 0.9372476 -0.3486424
vn -0.003921509 0.9999923 -0.000345267
vn 0.3411739 0.9372476 -0.07188356
vn -0.4352907 0.7882292 -0.4349905
vn -0.2392138 0.9372476 -0.2536605
vn -0.003921509 0.5686231 -0.8225889
vn -0.5843092 0.5686231 -0.5790083
vn 0.615568 0.7880838 0
vn 0.2392139 0.9372476 0.2536605
vn 0.5843093 0.5686231 -0.5790082
vn -0.6155679 0.7880838 0
vn -0.8196015 0.5686231 -0.07015082
vn -0.3411738 0.9372476 -0.07188439
vn 0.4352908 0.7882292 0.4349903
vn -0.003921509 0.9372476 0.3486424
vn -0.2392138 0.9372476 0.2536605
vn -0.4352907 0.7882292 0.4349905
vn -0.003921509 0.7882292 0.6153693
vn 0.8196016 0.5686231 -0.07014997
vn -0.5843092 0.5686231 0.5790083
vn 0.5843093 0.5686231 0.5790082
vn -0.003921509 0.5686231 0.8225889
vn 0.6784262 0.3019584 -0.6697454
vn 0.9529339 0.3019584 -0.02716757
vn 0.6784262 0.3019584 0.6697454
vn -0.003921509 0.3019584 0.9533131
vn -0.6784261 0.3019584 0.6697455
vn -0.003921509 0.3019584 -0.9533131
vn -0.9529338 0.3019584 -0.02717196
vn -0.6784261 0.3019584 -0.6697455
vn 0.7097985 0.003921509 -0.7043939
vn 0.9999924 0.003921509 0
vn 0.7097985 0.003921509 0.7043939
vn -0.003921509 0.003921509 0.9999846
vn -0.003921509 0.003921509 -0.9999846
vn -0.7097985 0.003921509 0.7043939
vn -0.9999923 0.003921509 -0.0003449296
vn -0.7097985 0.003921509 -0.7043939
vn 0.6784262 -0.3019585 -0.6697454
vn 0.9529339 -0.3019585 -0.02716688
vn 0.6784262 -0.3019585 0.6697454
vn -0.003921509 -0.3019585 0.953313
vn -0.003921509 -0.3019585 -0.953313
vn -0.6784261 -0.3019585 0.6697454
vn -0.9529338 -0.3019585 -0.02717127
vn -0.6784261 -0.3019585 -0.6697454
vn 0.5843093 -0.5686231 -0.5790082
vn 0.8196016 -0.5686231 -0.07014955
vn 0.5843093 -0.5686231 0.5790082
vn -0.003921509 -0.5686231 0.8225888
vn -0.003921509 -0.5686231 -0.8225888
vn -0.5843092 -0.5686231 0.5790082
vn -0.8196015 -0.5686231 -0.0701504
vn -0.5843092 -0.5686231 -0.5790082
vn 0.4352908 -0.7882293 -0.4349902
vn 0.615568 -0.7880839 0
vn 0.4352908 -0.7882293 0.4349902
vn -0.003921509 -0.7882293 0.6153691
vn -0.003921509 -0.7882293 -0.6153691
vn -0.4352907 -0.7882293 0.4349903
vn -0.6155679 -0.7880839 0
vn -0.4352907 -0.7882293 -0.4349903
vn 0.2392139 -0.9372478 -0.25366
vn 0.3411739 -0.9372478 -0.0718819
vn -0.003921509 -0.9999924 0
vn -0.003921509 -0.9372478 -0.3486421
vn 0.2392139 -0.9372478 0.25366
vn -0.2392138 -0.9372478 -0.25366
vn -0.003921509 -0.9372478 0.3486421
vn -0.3411738 -0.9372478 -0.07188273
vn -0.2392138 -0.9372478 0.25366
g PondLevelLightGlobe_0
f 3/3/3 2/2/2 1/1/1
f 4/4/4 3/3/3 1/1/1
f 5/5/5 3/3/3 4/4/4
f 3/3/3 6/6/6 2/2/2
f 5/5/5 6/6/6 3/3/3
f 4/4/4 1/1/1 7/7/7
f 5/5/5 4/4/4 8/8/8
f 8/8/8 4/4/4 7/7/7
f 1/1/1 2/2/2 9/9/9
f 7/7/7 1/1/1 10/10/10
f 1/1/1 9/9/9 10/10/10
f 6/6/6 11/11/11 2/2/2
f 5/5/5 12/12/12 6/6/6
f 6/6/6 12/12/12 11/11/11
f 2/2/2 13/13/13 9/9/9
f 2/2/2 11/11/11 13/13/13
f 8/8/8 7/7/7 14/14/14
f 7/7/7 10/10/10 15/15/15
f 14/14/14 7/7/7 15/15/15
f 5/5/5 8/8/8 16/16/16
f 16/16/16 8/8/8 14/14/14
f 12/12/12 17/17/17 11/11/11
f 5/5/5 18/18/18 12/12/12
f 12/12/12 18/18/18 17/17/17
f 5/5/5 16/16/16 19/19/19
f 5/5/5 19/19/19 18/18/18
f 16/16/16 14/14/14 20/20/20
f 19/19/19 16/16/16 20/20/20
f 18/18/18 19/19/19 21/21/21
f 18/18/18 21/21/21 17/17/17
f 19/19/19 20/20/20 21/21/21
f 11/11/11 17/17/17 22/22/22
f 11/11/11 22/22/22 13/13/13
f 20/20/20 14/14/14 23/23/23
f 14/14/14 15/15/15 23/23/23
f 17/17/17 21/21/21 24/24/24
f 17/17/17 24/24/24 22/22/22
f 21/21/21 20/20/20 25/25/25
f 20/20/20 23/23/23 25/25/25
f 21/21/21 25/25/25 24/24/24
f 13/13/13 22/22/22 26/26/26
f 22/22/22 24/24/24 27/27/27
f 22/22/22 27/27/27 26/26/26
f 24/24/24 25/25/25 28/28/28
f 24/24/24 28/28/28 27/27/27
f 25/25/25 23/23/23 29/29/29
f 25/25/25 29/29/29 28/28/28
f 23/23/23 15/15/15 30/30/30
f 23/23/23 30/30/30 29/29/29
f 13/13/13 26/26/26 31/31/31
f 9/9/9 13/13/13 31/31/31
f 15/15/15 32/32/32 30/30/30
f 15/15/15 10/10/10 32/32/32
f 10/10/10 9/9/9 33/33/33
f 9/9/9 31/31/31 33/33/33
f 10/10/10 33/33/33 32/32/32
f 26/26/26 27/27/27 34/34/34
f 27/27/27 28/28/28 35/35/35
f 27/27/27 35/35/35 34/34/34
f 28/28/28 29/29/29 36/36/36
f 28/28/28 36/36/36 35/35/35
f 29/29/29 30/30/30 37/37/37
f 29/29/29 37/37/37 36/36/36
f 31/31/31 26/26/26 38/38/38
f 26/26/26 34/34/34 38/38/38
f 30/30/30 32/32/32 39/39/39
f 30/30/30 39/39/39 37/37/37
f 32/32/32 33/33/33 40/40/40
f 32/32/32 40/40/40 39/39/39
f 33/33/33 31/31/31 41/41/41
f 31/31/31 38/38/38 41/41/41
f 33/33/33 41/41/41 40/40/40
f 34/34/34 35/35/35 42/42/42
f 35/35/35 36/36/36 43/43/43
f 35/35/35 43/43/43 42/42/42
f 36/36/36 37/37/37 44/44/44
f 36/36/36 44/44/44 43/43/43
f 37/37/37 39/39/39 45/45/45
f 37/37/37 45/45/45 44/44/44
f 38/38/38 34/34/34 46/46/46
f 34/34/34 42/42/42 46/46/46
f 39/39/39 40/40/40 47/47/47
f 39/39/39 47/47/47 45/45/45
f 40/40/40 41/41/41 48/48/48
f 40/40/40 48/48/48 47/47/47
f 41/41/41 38/38/38 49/49/49
f 38/38/38 46/46/46 49/49/49
f 41/41/41 49/49/49 48/48/48
f 42/42/42 43/43/43 50/50/50
f 43/43/43 44/44/44 51/51/51
f 43/43/43 51/51/51 50/50/50
f 44/44/44 45/45/45 52/52/52
f 44/44/44 52/52/52 51/51/51
f 45/45/45 47/47/47 53/53/53
f 45/45/45 53/53/53 52/52/52
f 46/46/46 42/42/42 54/54/54
f 42/42/42 50/50/50 54/54/54
f 47/47/47 48/48/48 55/55/55
f 47/47/47 55/55/55 53/53/53
f 48/48/48 49/49/49 56/56/56
f 48/48/48 56/56/56 55/55/55
f 49/49/49 46/46/46 57/57/57
f 46/46/46 54/54/54 57/57/57
f 49/49/49 57/57/57 56/56/56
f 50/50/50 51/51/51 58/58/58
f 51/51/51 52/52/52 59/59/59
f 51/51/51 59/59/59 58/58/58
f 52/52/52 53/53/53 60/60/60
f 52/52/52 60/60/60 59/59/59
f 53/53/53 55/55/55 61/61/61
f 53/53/53 61/61/61 60/60/60
f 54/54/54 50/50/50 62/62/62
f 50/50/50 58/58/58 62/62/62
f 55/55/55 56/56/56 63/63/63
f 55/55/55 63/63/63 61/61/61
f 56/56/56 57/57/57 64/64/64
f 56/56/56 64/64/64 63/63/63
f 57/57/57 54/54/54 65/65/65
f 54/54/54 62/62/62 65/65/65
f 57/57/57 65/65/65 64/64/64
f 58/58/58 59/59/59 66/66/66
f 59/59/59 60/60/60 67/67/67
f 59/59/59 67/67/67 66/66/66
f 66/66/66 67/67/67 68/68/68
f 58/58/58 66/66/66 69/69/69
f 62/62/62 58/58/58 69/69/69
f 69/69/69 66/66/66 68/68/68
f 60/60/60 70/70/70 67/67/67
f 67/67/67 70/70/70 68/68/68
f 60/60/60 61/61/61 70/70/70
f 62/62/62 69/69/69 71/71/71
f 65/65/65 62/62/62 71/71/71
f 71/71/71 69/69/69 68/68/68
f 61/61/61 72/72/72 70/70/70
f 70/70/70 72/72/72 68/68/68
f 61/61/61 63/63/63 72/72/72
f 65/65/65 71/71/71 73/73/73
f 73/73/73 71/71/71 68/68/68
f 64/64/64 65/65/65 73/73/73
f 63/63/63 74/74/74 72/72/72
f 72/72/72 74/74/74 68/68/68
f 74/74/74 73/73/73 68/68/68
f 64/64/64 73/73/73 74/74/74
f 63/63/63 64/64/64 74/74/74
