g Potato(Clone)
v 0.1512154 0.001698524 -0.01859698
v 0.1333651 0.04112445 0.02040702
v 0.1596539 0.04285531 -0.06059761
v 0.1408543 -0.001998112 0.0325661
v 0.1460037 -0.05457081 -0.04239254
v 0.1110751 -0.09902626 -0.01402295
v 0.1614518 0.02084813 -0.07922939
v 0.1116169 0.1062782 -0.01127085
v 0.1005318 0.0876224 0.04733825
v 0.06541137 0.1341539 -0.003297433
v 0.06373806 0.1234188 0.04443271
v -0.02623725 0.1293593 0.007260248
v 0.007885858 0.1249339 0.05090062
v -0.05095816 0.1114132 0.04997528
v -0.1021884 0.09007245 0.008521229
v -0.1049117 0.07550646 0.05682674
v -0.1401424 0.04680125 0.0277859
v -0.05048349 0.07204477 0.0975664
v 0.008504361 0.09539443 0.08938202
v 0.007109135 0.0499513 0.1095433
v 0.06217503 0.09293002 0.08030106
v 0.06002705 0.02380639 0.1051946
v 0.1107011 0.00954248 0.07087968
v -0.09660748 0.01246718 0.09705815
v -0.02670231 0.005308852 0.1185379
v -0.1378218 -0.01532707 0.05928637
v -0.1055782 -0.04111718 0.07914077
v 0.09983654 -0.04217199 0.07052489
v 0.05769209 -0.06773675 0.09325126
v -0.007269844 -0.04928716 0.1111639
v -0.0009985119 -0.09534881 0.08083326
v -0.008463696 -0.123565 0.042769
v 0.05762496 -0.114321 0.03976279
v -0.1008507 -0.07947391 0.03235035
v -0.007432863 -0.1340412 -0.003096074
v -0.1342834 -0.04236378 0.02796809
v 0.06067912 -0.1311452 -0.007665306
v -0.1401424 0.04680125 0.0277859
v -0.1378218 -0.01532707 0.05928637
v -0.1434363 0.002086893 0.01063085
v -0.1342834 -0.04236378 0.02796809
v -0.108407 -0.04723029 -0.01508255
v -0.1008507 -0.07947391 0.03235035
v -0.1527617 0.002499223 -0.04443504
v -0.1331375 0.03807989 -0.01672709
v -0.007432863 -0.1340412 -0.003096074
v -0.03732234 -0.08871309 -0.06174831
v 0.02128196 -0.1163779 -0.06142227
v 0.06067912 -0.1311452 -0.007665306
v 0.06979843 -0.1172121 -0.06203119
v 0.02712177 -0.0572366 -0.1194992
v 0.1110751 -0.09902626 -0.01402295
v 0.1153183 -0.09383851 -0.06031473
v 0.1460037 -0.05457081 -0.04239254
v 0.120741 0.005754754 -0.1201512
v 0.1614518 0.02084813 -0.07922939
v -0.1146064 -0.02865604 -0.08526579
v -0.06818514 -0.03917537 -0.1165888
v -0.1259456 0.002106071 -0.1037393
v -0.1183366 0.03822851 -0.08948023
v 0.03056428 -0.001437142 -0.143731
v -0.07744348 0.0006532967 -0.1352494
v 0.06777991 0.05259791 -0.125876
v 0.1292034 0.04583274 -0.1175909
v -0.07554962 0.04860401 -0.112571
v 0.07521632 0.1104638 -0.0695587
v -0.03999293 0.1131584 -0.03346501
v 0.1596539 0.04285531 -0.06059761
v 0.129611 0.08681691 -0.07601701
v 0.1116169 0.1062782 -0.01127085
v 0.06541137 0.1341539 -0.003297433
v -0.02623725 0.1293593 0.007260248
v -0.1021884 0.09007245 0.008521229
vt 0.845683 0.6621574
vt 0.8402137 0.6779577
vt 0.8468983 0.6773499
vt 0.8438599 0.6603343
vt 0.8426445 0.6414956
vt 0.8304905 0.6238723
vt 0.8468983 0.6694498
vt 0.8304905 0.7022657
vt 0.8280597 0.6967964
vt 0.8128672 0.7132043
vt 0.8128672 0.7113812
vt 0.7770128 0.7125965
vt 0.7897745 0.7125965
vt 0.7660742 0.7071273
vt 0.7472355 0.6967964
vt 0.7435893 0.6925424
vt 0.7308276 0.6797807
vt 0.7642511 0.6919348
vt 0.7897745 0.701658
vt 0.7891668 0.6828192
vt 0.8128672 0.7004426
vt 0.8122594 0.671273
vt 0.8329213 0.6651959
vt 0.744197 0.6664114
vt 0.7739743 0.6633729
vt 0.7296122 0.654865
vt 0.7417662 0.6433188
vt 0.8286674 0.6433188
vt 0.8110441 0.6317724
vt 0.7824821 0.6390648
vt 0.7861283 0.6202261
vt 0.7836975 0.6111106
vt 0.8104364 0.6147568
vt 0.7466278 0.6293416
vt 0.7849129 0.6092875
vt 0.7332584 0.6445341
vt 0.8110441 0.6111106
vt 0.7308276 0.6797807
vt 0.7296122 0.654865
vt 0.7308276 0.6621574
vt 0.7332584 0.6445341
vt 0.7460201 0.6433188
vt 0.7466278 0.6293416
vt 0.7314353 0.6627651
vt 0.7369046 0.6761346
vt 0.7849129 0.6092875
vt 0.774582 0.6293416
vt 0.7964592 0.6190107
vt 0.8110441 0.6111106
vt 0.8140825 0.6190107
vt 0.7982824 0.6421033
vt 0.8304905 0.6238723
vt 0.8304905 0.6275185
vt 0.8426445 0.6414956
vt 0.8310982 0.6639806
vt 0.8468983 0.6694498
vt 0.7478433 0.6518265
vt 0.7654666 0.6487881
vt 0.7448047 0.6627651
vt 0.7466278 0.6755269
vt 0.7994977 0.6615498
vt 0.7630358 0.6621574
vt 0.8122594 0.6803885
vt 0.8341367 0.6779577
vt 0.762428 0.6791731
vt 0.8159057 0.7022657
vt 0.7733666 0.7040888
vt 0.8468983 0.6773499
vt 0.8353521 0.6931502
vt 0.8304905 0.7022657
vt 0.8128672 0.7132043
vt 0.7770128 0.7125965
vt 0.7472355 0.6967964
vn 0.9784123 -0.0272876 0.2048531
vn 0.8778869 0.3052194 0.3689929
vn 0.9474814 0.3052194 -0.09549933
vn 0.9010851 -0.05821848 0.4297165
vn 0.9088178 -0.4061909 -0.09517986
vn 0.6923016 -0.6923016 0.2035606
vn 0.9397486 -0.04275304 -0.3391823
vn 0.6845689 0.7227863 0.09458015
vn 0.707767 0.4985374 0.500526
vn 0.2360711 0.9702334 -0.05401415
vn 0.321131 0.8542426 0.4088331
vn -0.2510903 0.9625007 -0.1026941
vn -0.05003965 0.9006389 0.4316776
vn -0.3593484 0.8465098 0.3927975
vn -0.6222609 0.7769153 -0.09588481
vn -0.6299937 0.6145282 0.4748295
vn -0.9083716 0.3825465 0.1688763
vn -0.2820213 0.4985374 0.81971
vn 0.01955491 0.6145282 0.7886524
vn 0.07368392 0.2742885 0.9588203
vn 0.3829927 0.5294683 0.7569543
vn 0.3907255 0.1041687 0.9145942
vn 0.7000343 0.06550503 0.7110984
vn -0.5217355 0.08870316 0.8484832
vn -0.1041687 -0.01182216 0.9944894
vn -0.8697081 -0.1510112 0.4698973
vn -0.5294683 -0.4680527 0.7075239
vn 0.6845689 -0.3443292 0.6424974
vn 0.3907255 -0.46032 0.7971444
vn -0.05777228 -0.3443292 0.9370698
vn -0.08870316 -0.7000343 0.7085786
vn -0.1582977 -0.8856196 0.4366002
vn 0.3829927 -0.8005597 0.4608912
vn -0.6145282 -0.7773615 0.1344031
vn -0.258823 -0.9629468 -0.07578944
vn -0.8619753 -0.4989836 -0.08952049
vn 0.2824674 -0.9552141 0.08819459
vn -0.9083716 0.3825465 0.1688763
vn -0.8697081 -0.1510112 0.4698973
vn -0.9934316 -0.1123475 -0.02171956
vn -0.8619753 -0.4989836 -0.08952049
vn -0.6918554 -0.6845689 -0.2295681
vn -0.6145282 -0.7773615 0.1344031
vn -0.9856988 -0.08914936 -0.1430044
vn -0.8774407 0.4676065 -0.106967
vn -0.258823 -0.9629468 -0.07578944
vn -0.4289429 -0.7773615 -0.4601272
vn -0.1350995 -0.846956 -0.5142117
vn 0.2824674 -0.9552141 0.08819459
vn 0.2592692 -0.8314906 -0.4913276
vn 0.04275304 -0.5685781 -0.8215176
vn 0.6923016 -0.6923016 0.2035606
vn 0.6149744 -0.6613708 -0.4294127
vn 0.9088178 -0.4061909 -0.09517986
vn 0.4912508 -0.2206056 -0.8426184
vn 0.9397486 -0.04275304 -0.3391823
vn -0.6377264 -0.6613708 -0.3948338
vn -0.3361503 -0.6149744 -0.7133089
vn -0.7459844 -0.06595123 -0.6626897
vn -0.6609246 0.5681319 -0.490311
vn 0.05048579 -0.05821848 -0.9970264
vn -0.3361503 -0.04275304 -0.9408375
vn 0.08141667 0.4753393 -0.8760273
vn 0.5221817 0.3284175 -0.787063
vn -0.3129522 0.6067955 -0.7306573
vn 0.1355457 0.8619753 -0.4884935
vn -0.3052194 0.8619753 -0.4047711
vn 0.9474814 0.3052194 -0.09549933
vn 0.5995089 0.7073209 -0.3745478
vn 0.6845689 0.7227863 0.09458015
vn 0.2360711 0.9702334 -0.05401415
vn -0.2510903 0.9625007 -0.1026941
vn -0.6222609 0.7769153 -0.09588481
g Potato(Clone)_0
f 3/3/3 2/2/2 1/1/1
f 2/2/2 4/4/4 1/1/1
f 4/4/4 5/5/5 1/1/1
f 5/5/5 4/4/4 6/6/6
f 5/5/5 7/7/7 1/1/1
f 7/7/7 3/3/3 1/1/1
f 3/3/3 8/8/8 2/2/2
f 8/8/8 9/9/9 2/2/2
f 8/8/8 10/10/10 9/9/9
f 10/10/10 11/11/11 9/9/9
f 10/10/10 12/12/12 11/11/11
f 12/12/12 13/13/13 11/11/11
f 14/14/14 13/13/13 12/12/12
f 12/12/12 15/15/15 14/14/14
f 15/15/15 16/16/16 14/14/14
f 16/16/16 15/15/15 17/17/17
f 18/18/18 14/14/14 16/16/16
f 14/14/14 18/18/18 19/19/19
f 13/13/13 14/14/14 19/19/19
f 20/20/20 19/19/19 18/18/18
f 21/21/21 9/9/9 11/11/11
f 13/13/13 19/19/19 21/21/21
f 11/11/11 13/13/13 21/21/21
f 19/19/19 20/20/20 22/22/22
f 21/21/21 19/19/19 22/22/22
f 9/9/9 21/21/21 22/22/22
f 23/23/23 9/9/9 22/22/22
f 2/2/2 9/9/9 23/23/23
f 4/4/4 2/2/2 23/23/23
f 24/24/24 18/18/18 16/16/16
f 25/25/25 18/18/18 24/24/24
f 25/25/25 22/22/22 20/20/20
f 18/18/18 25/25/25 20/20/20
f 16/16/16 17/17/17 26/26/26
f 24/24/24 16/16/16 26/26/26
f 27/27/27 24/24/24 26/26/26
f 23/23/23 22/22/22 28/28/28
f 28/28/28 4/4/4 23/23/23
f 22/22/22 29/29/29 28/28/28
f 22/22/22 25/25/25 30/30/30
f 29/29/29 22/22/22 30/30/30
f 24/24/24 27/27/27 30/30/30
f 25/25/25 24/24/24 30/30/30
f 27/27/27 31/31/31 30/30/30
f 31/31/31 29/29/29 30/30/30
f 29/29/29 31/31/31 32/32/32
f 33/33/33 29/29/29 32/32/32
f 28/28/28 29/29/29 33/33/33
f 6/6/6 4/4/4 28/28/28
f 6/6/6 28/28/28 33/33/33
f 31/31/31 27/27/27 34/34/34
f 32/32/32 31/31/31 34/34/34
f 34/34/34 35/35/35 32/32/32
f 33/33/33 32/32/32 35/35/35
f 27/27/27 26/26/26 36/36/36
f 34/34/34 27/27/27 36/36/36
f 37/37/37 33/33/33 35/35/35
f 33/33/33 37/37/37 6/6/6
f 40/40/40 39/39/39 38/38/38
f 40/40/40 41/41/41 39/39/39
f 40/40/40 42/42/42 41/41/41
f 42/42/42 43/43/43 41/41/41
f 40/40/40 44/44/44 42/42/42
f 40/40/40 45/45/45 44/44/44
f 40/40/40 38/38/38 45/45/45
f 46/46/46 43/43/43 42/42/42
f 47/47/47 46/46/46 42/42/42
f 47/47/47 48/48/48 46/46/46
f 49/49/49 46/46/46 48/48/48
f 50/50/50 49/49/49 48/48/48
f 51/51/51 50/50/50 48/48/48
f 48/48/48 47/47/47 51/51/51
f 52/52/52 49/49/49 50/50/50
f 53/53/53 52/52/52 50/50/50
f 53/53/53 50/50/50 51/51/51
f 52/52/52 53/53/53 54/54/54
f 55/55/55 53/53/53 51/51/51
f 53/53/53 55/55/55 54/54/54
f 56/56/56 54/54/54 55/55/55
f 57/57/57 47/47/47 42/42/42
f 42/42/42 44/44/44 57/57/57
f 58/58/58 47/47/47 57/57/57
f 47/47/47 58/58/58 51/51/51
f 44/44/44 59/59/59 57/57/57
f 60/60/60 59/59/59 44/44/44
f 51/51/51 58/58/58 61/61/61
f 51/51/51 61/61/61 55/55/55
f 58/58/58 62/62/62 61/61/61
f 57/57/57 59/59/59 62/62/62
f 58/58/58 57/57/57 62/62/62
f 55/55/55 61/61/61 63/63/63
f 64/64/64 55/55/55 63/63/63
f 64/64/64 56/56/56 55/55/55
f 61/61/61 62/62/62 65/65/65
f 63/63/63 61/61/61 65/65/65
f 59/59/59 60/60/60 65/65/65
f 62/62/62 59/59/59 65/65/65
f 65/65/65 66/66/66 63/63/63
f 64/64/64 63/63/63 66/66/66
f 60/60/60 67/67/67 65/65/65
f 67/67/67 66/66/66 65/65/65
f 56/56/56 64/64/64 68/68/68
f 64/64/64 69/69/69 68/68/68
f 69/69/69 64/64/64 66/66/66
f 69/69/69 66/66/66 70/70/70
f 70/70/70 68/68/68 69/69/69
f 66/66/66 71/71/71 70/70/70
f 66/66/66 67/67/67 71/71/71
f 67/67/67 72/72/72 71/71/71
f 67/67/67 60/60/60 73/73/73
f 72/72/72 67/67/67 73/73/73
f 60/60/60 45/45/45 73/73/73
f 45/45/45 60/60/60 44/44/44
f 45/45/45 38/38/38 73/73/73
