g primroseLeg2_mesh
v 0.16 0 0
v -0.16 0 0
v 0.1542857 -0.1214286 0
v -0.1542857 -0.1214286 0
v 0.1474238 -0.2226191 0
v -0.1474238 -0.2226191 0
v 0.1405343 -0.3035714 0
v -0.1405343 -0.3035714 0
v 0.1345271 -0.3642857 0
v -0.1345271 -0.3642857 0
v 0.1301024 -0.4047619 0
v -0.1301024 -0.4047619 0
v 0.12775 -0.425 0
v -0.12775 -0.425 0
v 0.12775 -0.425 0
v -0.12775 -0.425 0
v 0.1253276 -0.4452381 0
v -0.1253276 -0.4452381 0
v 0.1203428 -0.4857143 0
v -0.1203428 -0.4857143 0
v 0.1124457 -0.5464286 0
v -0.1124457 -0.5464286 0
v 0.1010762 -0.627381 0
v -0.1010762 -0.627381 0
v 0.08546427 -0.7285715 0
v -0.08546427 -0.7285715 0
v 0.06462998 -0.8500001 0
v -0.06462998 -0.8500001 0
vt 0.7944336 0.1787109
vt 0.809082 0.1787109
vt 0.7944336 0.1689453
vt 0.809082 0.1689453
vt 0.7944336 0.1608073
vt 0.809082 0.1608073
vt 0.7944336 0.1542969
vt 0.809082 0.1542969
vt 0.7944336 0.1494141
vt 0.809082 0.1494141
vt 0.7944336 0.1461589
vt 0.809082 0.1461589
vt 0.7944336 0.1445313
vt 0.809082 0.1445313
vt 0.7944336 0.1445313
vt 0.809082 0.1445313
vt 0.7944336 0.1429036
vt 0.809082 0.1429036
vt 0.7944336 0.1396484
vt 0.809082 0.1396484
vt 0.7944336 0.1347656
vt 0.809082 0.1347656
vt 0.7944336 0.1282552
vt 0.809082 0.1282552
vt 0.7944336 0.1201172
vt 0.809082 0.1201172
vt 0.7944336 0.1103516
vt 0.809082 0.1103516
vn 0 0 -1
vn 0 0 -1
vn 0 0 -1
vn 0 0 -1
vn 0 0 -1
vn 0 0 -1
vn 0 0 -1
vn 0 0 -1
vn 0 0 -1
vn 0 0 -1
vn 0 0 -1
vn 0 0 -1
vn 0 0 -0.9999999
vn 0 0 -1
vn 0 0 -1
vn 0 0 -1
vn 0 0 -1
vn 0 0 -0.9999999
vn 0 0 -1
vn 0 0 -1
vn 0 0 -0.9999999
vn 0 0 -1
vn 0 0 -1
vn 0 0 -1
vn 0 0 -1
vn 0 0 -0.9999999
vn 0 0 -1
vn 0 0 -1
g primroseLeg2_mesh_0
f 3/3/3 2/2/2 1/1/1
f 4/4/4 2/2/2 3/3/3
f 5/5/5 4/4/4 3/3/3
f 6/6/6 4/4/4 5/5/5
f 7/7/7 6/6/6 5/5/5
f 8/8/8 6/6/6 7/7/7
f 9/9/9 8/8/8 7/7/7
f 10/10/10 8/8/8 9/9/9
f 11/11/11 10/10/10 9/9/9
f 12/12/12 10/10/10 11/11/11
f 13/13/13 12/12/12 11/11/11
f 14/14/14 12/12/12 13/13/13
f 15/15/15 14/14/14 13/13/13
f 16/16/16 14/14/14 15/15/15
f 17/17/17 16/16/16 15/15/15
f 18/18/18 16/16/16 17/17/17
f 19/19/19 18/18/18 17/17/17
f 20/20/20 18/18/18 19/19/19
f 21/21/21 20/20/20 19/19/19
f 22/22/22 20/20/20 21/21/21
f 23/23/23 22/22/22 21/21/21
f 24/24/24 22/22/22 23/23/23
f 25/25/25 24/24/24 23/23/23
f 26/26/26 24/24/24 25/25/25
f 27/27/27 26/26/26 25/25/25
f 28/28/28 26/26/26 27/27/27
