g primroseArm_mesh
v 0.16 0 0
v -0.16 0 0
v 0.1514286 -0.1142857 0
v -0.1514286 -0.1142857 0
v 0.1421857 -0.2095238 0
v -0.1421857 -0.2095238 0
v 0.1333914 -0.2857143 0
v -0.1333914 -0.2857143 0
v 0.1259557 -0.3428572 0
v -0.1259557 -0.3428572 0
v 0.1205786 -0.3809524 0
v -0.1205786 -0.3809524 0
v 0.11775 -0.4 0
v -0.11775 -0.4 0
v 0.11775 -0.4 0
v -0.11775 -0.4 0
v 0.1148514 -0.4190476 0
v -0.1148514 -0.4190476 0
v 0.1089143 -0.4571429 0
v -0.1089143 -0.4571429 0
v 0.09958856 -0.5142857 0
v -0.09958856 -0.5142857 0
v 0.08631428 -0.5904762 0
v -0.08631428 -0.5904762 0
v 0.06832142 -0.6857143 0
v -0.06832142 -0.6857143 0
v 0.04462999 -0.8 0
v -0.04462999 -0.8 0
vt 0.7783203 0.1723633
vt 0.7919922 0.1723633
vt 0.7783203 0.1627372
vt 0.7919922 0.1627372
vt 0.7783203 0.1547154
vt 0.7919922 0.1547154
vt 0.7783203 0.148298
vt 0.7919922 0.148298
vt 0.7783203 0.1434849
vt 0.7919922 0.1434849
vt 0.7783203 0.1402762
vt 0.7919922 0.1402762
vt 0.7783203 0.1386719
vt 0.7919922 0.1386719
vt 0.7783203 0.1386719
vt 0.7919922 0.1386719
vt 0.7783203 0.1370675
vt 0.7919922 0.1370675
vt 0.7783203 0.1338588
vt 0.7919922 0.1338588
vt 0.7783203 0.1290458
vt 0.7919922 0.1290458
vt 0.7783203 0.1226283
vt 0.7919922 0.1226283
vt 0.7783203 0.1146066
vt 0.7919922 0.1146066
vt 0.7783203 0.1049805
vt 0.7919922 0.1049805
vn 0 0 -1
vn 0 0 -1
vn 0 0 -1
vn 0 0 -1
vn 0 0 -1
vn 0 0 -1
vn 0 0 -1
vn 0 0 -1
vn 0 0 -1
vn 0 0 -1
vn 0 0 -1
vn 0 0 -1
vn 0 0 -1
vn 0 0 -1
vn 0 0 -1
vn 0 0 -1
vn 0 0 -1
vn 0 0 -1
vn 0 0 -1
vn 0 0 -1
vn 0 0 -1
vn 0 0 -0.9999999
vn 0 0 -1
vn 0 0 -1
vn 0 0 -1
vn 0 0 -0.9999999
vn 0 0 -1
vn 0 0 -0.9999999
g primroseArm_mesh_0
f 3/3/3 2/2/2 1/1/1
f 4/4/4 2/2/2 3/3/3
f 5/5/5 4/4/4 3/3/3
f 6/6/6 4/4/4 5/5/5
f 7/7/7 6/6/6 5/5/5
f 8/8/8 6/6/6 7/7/7
f 9/9/9 8/8/8 7/7/7
f 10/10/10 8/8/8 9/9/9
f 11/11/11 10/10/10 9/9/9
f 12/12/12 10/10/10 11/11/11
f 13/13/13 12/12/12 11/11/11
f 14/14/14 12/12/12 13/13/13
f 15/15/15 14/14/14 13/13/13
f 16/16/16 14/14/14 15/15/15
f 17/17/17 16/16/16 15/15/15
f 18/18/18 16/16/16 17/17/17
f 19/19/19 18/18/18 17/17/17
f 20/20/20 18/18/18 19/19/19
f 21/21/21 20/20/20 19/19/19
f 22/22/22 20/20/20 21/21/21
f 23/23/23 22/22/22 21/21/21
f 24/24/24 22/22/22 23/23/23
f 25/25/25 24/24/24 23/23/23
f 26/26/26 24/24/24 25/25/25
f 27/27/27 26/26/26 25/25/25
f 28/28/28 26/26/26 27/27/27
