g QuartersRoomWardrobe_Textured
v -1.550035 0.1649948 0.4619448
v -1.550035 4.156925 -0.4619092
v -1.550035 4.156925 0.4619448
v -1.550035 0.1649948 -0.4619092
v -1.550035 -0.09999597 -0.3119538
v -1.550035 -0.09999597 -0.4619092
v -1.550035 0.1649948 -0.3119538
v 1.55 4.156925 -0.4619092
v 1.55 0.1649948 0.4619448
v 1.55 4.156925 0.4619448
v 1.55 0.1649948 -0.4619092
v 1.55 -0.09999597 -0.4619092
v 1.55 0.1649948 -0.3119538
v 1.55 -0.09999597 -0.3119538
v 1.299987 -0.09999597 -0.3119538
v 1.299987 0.1649948 -0.4619092
v 1.299987 0.1649948 -0.3119538
v 1.299987 -0.09999597 -0.4619092
v 1.55 0.1649948 -0.4619092
v 1.55 -0.09999597 -0.4619092
v -1.550035 4.156925 -0.4619092
v 1.55 4.156925 -0.4619092
v -1.550035 0.1649948 -0.4619092
v -1.550035 -0.09999597 -0.4619092
v -1.300023 0.1649948 -0.4619092
v -1.300023 -0.09999597 -0.4619092
v -1.300023 0.1649948 -0.3119538
v -1.300023 -0.09999597 -0.3119538
v 1.299987 -0.09999597 0.4614222
v 1.299987 0.1649948 0.3113798
v 1.299987 0.1649948 0.4614222
v 1.299987 -0.09999597 0.3113798
v 1.55 0.1649948 0.3113798
v 1.55 -0.09999597 0.3113798
v 1.55 -0.09999597 0.3113798
v 1.55 -0.09999597 0.4614222
v 1.55 0.1649948 0.4614222
v 1.55 0.1649948 0.3113798
v -1.550035 -0.09999597 0.4614222
v -1.550035 -0.09999597 0.3113798
v -1.550035 0.1649948 0.3113798
v -1.550035 0.1649948 0.4614222
v -1.550035 -0.09999597 0.3113798
v -1.300023 0.1649948 0.3113798
v -1.550035 0.1649948 0.3113798
v -1.300023 -0.09999597 0.3113798
v -1.300023 0.1649948 0.4614222
v -1.300023 -0.09999597 0.4614222
v -1.550035 4.156925 -0.4619092
v 1.55 4.156925 -0.4619092
v 1.55 4.156925 0.4619448
v -1.550035 4.156925 0.4619448
vt 0.8473963 0.03060363
vt 0.7235224 0.4699684
vt 0.8473963 0.4699684
vt 0.7235224 0.03060363
vt 0.7428777 0.001570717
vt 0.7235224 0.001570717
vt 0.7428777 0.03060363
vt 0.8444929 0.9625601
vt 0.7196515 0.5154532
vt 0.7196515 0.9625601
vt 0.8444929 0.5154532
vt 0.8444929 0.4854526
vt 0.8241699 0.5154532
vt 0.8241699 0.4854526
vt 0.05576549 -0.0003648102
vt 0.05576549 0.05963654
vt 0.05576549 0.05963654
vt 0.05576549 -0.0003648102
vt -0.0003648102 0.05963654
vt -0.0003648102 -0.0003648102
vt 0.6983606 0.9596568
vt -0.0003648102 0.9596568
vt 0.6983606 0.05963654
vt 0.6983606 -0.0003648102
vt 0.6422303 0.05963654
vt 0.6422303 -0.0003648102
vt 0.6422303 0.05963654
vt 0.6422303 -0.0003648102
vt 0.05576549 -0.0003648102
vt 0.05576549 0.05963654
vt 0.05576549 0.05963654
vt 0.05576549 -0.0003648102
vt -0.0003648102 0.05963654
vt -0.0003648102 -0.0003648102
vt 0.7399745 0.4854526
vt 0.7206192 0.4854526
vt 0.7206192 0.5154532
vt 0.7399745 0.5154532
vt 0.8464285 0.001570717
vt 0.8270732 0.001570717
vt 0.8270732 0.03060363
vt 0.8464285 0.03060363
vt 0.6983606 -0.0003648102
vt 0.6422303 0.05963654
vt 0.6983606 0.05963654
vt 0.6422303 -0.0003648102
vt 0.6422303 0.05963654
vt 0.6422303 -0.0003648102
vt 0.9896575 0.3451268
vt 0.9896575 -0.0003648102
vt 0.864816 -0.0003648102
vt 0.864816 0.3451268
vn -0.9999923 0.003921509 -0.0003449296
vn -0.5764661 0.5764661 -0.5791146
vn -0.7071068 0.7071068 0
vn -0.7097985 0.003921509 -0.7043939
vn -0.9999923 0.003921509 -0.0003449296
vn -0.7097985 0.003921509 -0.7043939
vn -0.9999923 0.003921509 -0.0003449296
vn 0.5764662 0.5764661 -0.5791144
vn 0.9999924 0.003921509 0
vn 0.7071068 0.7071068 0
vn 0.7097985 0.003921509 -0.7043939
vn 0.7097985 0.003921509 -0.7043939
vn 0.9999924 0.003921509 0
vn 0.9999924 0.003921509 0
vn -0.9999923 0.003921509 -0.0003449296
vn -0.7097985 0.003921509 -0.7043939
vn -0.9999923 0.003921509 -0.0003449296
vn -0.7097985 0.003921509 -0.7043939
vn 0.7097985 0.003921509 -0.7043939
vn 0.7097985 0.003921509 -0.7043939
vn -0.5764661 0.5764661 -0.5791146
vn 0.5764662 0.5764661 -0.5791144
vn -0.7097985 0.003921509 -0.7043939
vn -0.7097985 0.003921509 -0.7043939
vn 0.7097985 0.003921509 -0.7043939
vn 0.7097985 0.003921509 -0.7043939
vn 0.9999924 0.003921509 0
vn 0.9999924 0.003921509 0
vn -0.9999923 0.003921509 -0.0003449296
vn -0.7097985 0.003921509 -0.7043939
vn -0.9999923 0.003921509 -0.0003449296
vn -0.7097985 0.003921509 -0.7043939
vn 0.7097985 0.003921509 -0.7043939
vn 0.7097985 0.003921509 -0.7043939
vn 0.7097985 0.003921509 -0.7043939
vn 0.9999924 0.003921509 0
vn 0.9999924 0.003921509 0
vn 0.7097985 0.003921509 -0.7043939
vn -0.9999923 0.003921509 -0.0003449296
vn -0.7097985 0.003921509 -0.7043939
vn -0.7097985 0.003921509 -0.7043939
vn -0.9999923 0.003921509 -0.0003449296
vn -0.7097985 0.003921509 -0.7043939
vn 0.7097985 0.003921509 -0.7043939
vn -0.7097985 0.003921509 -0.7043939
vn 0.7097985 0.003921509 -0.7043939
vn 0.9999924 0.003921509 0
vn 0.9999924 0.003921509 0
vn -0.5764661 0.5764661 -0.5791146
vn 0.5764662 0.5764661 -0.5791144
vn 0.7071068 0.7071068 0
vn -0.7071068 0.7071068 0
g QuartersRoomWardrobe_Textured_0
f 3/3/3 2/2/2 1/1/1
f 2/2/2 4/4/4 1/1/1
f 4/4/4 6/6/6 5/5/5
f 7/7/7 4/4/4 5/5/5
f 10/10/10 9/9/9 8/8/8
f 9/9/9 11/11/11 8/8/8
f 11/11/11 13/13/13 12/12/12
f 13/13/13 14/14/14 12/12/12
f 17/17/17 16/16/16 15/15/15
f 16/16/16 18/18/18 15/15/15
f 16/16/16 19/19/19 18/18/18
f 19/19/19 20/20/20 18/18/18
f 22/22/22 19/19/19 21/21/21
f 19/19/19 23/23/23 21/21/21
f 23/23/23 25/25/25 24/24/24
f 25/25/25 26/26/26 24/24/24
f 25/25/25 27/27/27 26/26/26
f 27/27/27 28/28/28 26/26/26
f 31/31/31 30/30/30 29/29/29
f 30/30/30 32/32/32 29/29/29
f 30/30/30 33/33/33 32/32/32
f 33/33/33 34/34/34 32/32/32
f 37/37/37 36/36/36 35/35/35
f 38/38/38 37/37/37 35/35/35
f 41/41/41 40/40/40 39/39/39
f 42/42/42 41/41/41 39/39/39
f 45/45/45 44/44/44 43/43/43
f 44/44/44 46/46/46 43/43/43
f 44/44/44 47/47/47 46/46/46
f 47/47/47 48/48/48 46/46/46
f 51/51/51 50/50/50 49/49/49
f 52/52/52 51/51/51 49/49/49
