g Quarters_MapFrame2
v -1.058688 -0.9156674 -0.1552036
v -1.067985 -0.9064091 -0.1552036
v -1.077282 -0.9156674 -0.1500126
v -1.067985 0.9064088 -0.1552036
v -1.067985 -0.9250033 -0.1500126
v 1.067985 -0.9250033 -0.1500126
v 1.058688 -0.9156674 -0.1552036
v 1.067985 -0.9064091 -0.1552036
v -1.077282 0.9156673 -0.1500126
v -1.106258 -0.9447209 -0.1500126
v -1.067985 0.9250031 -0.1500126
v -1.058688 0.9156673 -0.1552036
v 1.058688 0.9156673 -0.1552036
v 1.077282 -0.9156674 -0.1500126
v 1.097 -0.9539793 -0.1500126
v -1.096999 -0.9539793 -0.1500126
v 1.077282 0.9156673 -0.1500126
v 1.067985 0.9064088 -0.1552036
v 1.067985 0.9250031 -0.1500126
v -1.096999 0.953979 -0.1500126
v -1.106258 0.9447207 -0.1500126
v 1.106258 0.9447207 -0.1500126
v 1.106258 -0.9447209 -0.1500126
v 1.097 0.953979 -0.1500126
v -1.114238 -0.9528558 -0.1529955
v 1.105135 -0.9619592 -0.1529955
v -1.105134 0.9619591 -0.1529955
v 1.114238 0.9528556 -0.1529955
v -1.105134 -0.9619592 -0.1529955
v -1.114238 0.9528556 -0.1529955
v 1.105135 0.9619591 -0.1529955
v 1.114238 -0.9528558 -0.1529955
v -1.2222 -1.060973 -0.2471286
v -1.213291 1.069883 -0.2471286
v 1.213291 -1.069883 -0.2471286
v 1.222201 1.060973 -0.2471286
v -1.213291 -1.069883 -0.2471286
v -1.2222 1.060973 -0.2471286
v 1.213291 1.069883 -0.2471286
v 1.222201 -1.060973 -0.2471286
v -1.226151 -1.06508 -0.2557671
v -1.217358 1.073834 -0.2557671
v 1.217358 -1.073834 -0.2557671
v 1.226152 1.065079 -0.2557671
v -1.217358 -1.073834 -0.2557671
v -1.226151 1.065079 -0.2557671
v 1.217358 1.073834 -0.2557671
v 1.226152 -1.06508 -0.2557671
v -1.226151 -1.065118 -0.2717272
v -1.217397 1.073834 -0.2717272
v 1.217397 -1.073834 -0.2717272
v 1.226152 1.065118 -0.2717272
v -1.217397 -1.073834 -0.2717272
v -1.226151 1.065118 -0.2717272
v 1.217397 1.073834 -0.2717272
v 1.226152 -1.065118 -0.2717272
v -1.23204 -1.070968 -0.2847044
v -1.223285 1.079722 -0.2847044
v 1.223285 -1.079723 -0.2847044
v 1.23204 1.070967 -0.2847044
v -1.223285 -1.079723 -0.2847044
v -1.23204 1.070967 -0.2847044
v 1.223285 1.079722 -0.2847044
v 1.23204 -1.070968 -0.2847044
v -1.262953 -1.101881 -0.3116272
v -1.254159 1.110635 -0.3116272
v 1.254159 -1.110635 -0.3116272
v 1.262953 1.10188 -0.3116272
v -1.254159 -1.110635 -0.3116272
v -1.262953 1.10188 -0.3116272
v 1.254159 1.110635 -0.3116272
v 1.262953 -1.101881 -0.3116272
v -1.269344 -1.10835 -0.3087219
v -1.260667 1.117027 -0.3087219
v 1.260667 -1.117027 -0.3087219
v 1.269345 1.10835 -0.3087219
v -1.260667 -1.117027 -0.3087219
v -1.269344 1.10835 -0.3087219
v 1.260667 1.117027 -0.3087219
v 1.269345 -1.10835 -0.3087219
v -1.269344 -1.108389 -0.2882295
v -1.260706 1.117027 -0.2882295
v 1.260706 -1.117027 -0.2882295
v 1.269345 1.108388 -0.2882295
v -1.260706 -1.117027 -0.2882295
v -1.269344 1.108388 -0.2882295
v 1.260706 1.117027 -0.2882295
v 1.269345 -1.108389 -0.2882295
v -1.269344 -1.10835 -0.1558621
v -1.260628 1.117027 -0.1558621
v 1.260629 -1.117027 -0.1558621
v 1.269345 1.10835 -0.1558621
v -1.260628 -1.117027 -0.1558621
v -1.269344 1.10835 -0.1558621
v 1.260629 1.117027 -0.1558621
v 1.269345 -1.10835 -0.1558621
v -0.9523132 -0.7911638 1.93119E-05
v -0.943481 0.7999959 1.93119E-05
v 0.9434813 -0.799996 1.93119E-05
v 0.9523135 0.7911637 1.93119E-05
v -0.943481 -0.799996 1.93119E-05
v -0.9523132 0.7911637 1.93119E-05
v 0.9434813 0.7999959 1.93119E-05
v 0.9523135 -0.7911638 1.93119E-05
v -0.9523132 -0.7910863 -0.1500126
v -0.9434035 0.7999959 -0.1500126
v 0.9434038 -0.799996 -0.1500126
v 0.9523135 0.7910862 -0.1500126
v -0.9434035 -0.799996 -0.1500126
v -0.9523132 0.7910862 -0.1500126
v 0.9434038 0.7999959 -0.1500126
v 0.9523135 -0.7910863 -0.1500126
v -0.9858215 -0.8244396 -0.1500126
v -0.9767568 0.8335428 -0.1500126
v 0.9767572 -0.8335431 -0.1500126
v 0.9858218 0.8244395 -0.1500126
v -0.9767568 -0.8335431 -0.1500126
v -0.9858215 0.8244395 -0.1500126
v 0.9767572 0.8335428 -0.1500126
v 0.9858218 -0.8244396 -0.1500126
v -0.9951575 -0.833698 -0.1551648
v -0.9859765 -0.8428402 -0.1551648
v -0.9951575 0.8336978 -0.1551648
v 0.9859768 -0.8428402 -0.1551648
v 0.9951576 -0.833698 -0.1551648
v -0.9859765 0.84284 -0.1551648
v 0.9859768 0.84284 -0.1551648
v 0.9951576 0.8336978 -0.1551648
v -1.067985 -0.9064091 -0.1552036
v -1.058688 -0.9156674 -0.1552036
v -1.026186 -0.8831276 -0.2076547
v 1.058688 -0.9156674 -0.1552036
v -1.035445 -0.8738692 -0.2076547
v -1.035445 0.8738689 -0.2076547
v -1.067985 0.9064088 -0.1552036
v -1.058688 0.9156673 -0.1552036
v 1.026187 -0.8831276 -0.2076547
v -1.018478 -0.87538 -0.2076547
v 1.035445 -0.8738692 -0.2076547
v 1.067985 -0.9064091 -0.1552036
v 1.067985 0.9064088 -0.1552036
v -1.026186 0.8831275 -0.2076547
v -1.027697 0.866199 -0.2076547
v -1.027697 -0.8661991 -0.2076547
v 1.026187 0.8831275 -0.2076547
v 1.058688 0.9156673 -0.1552036
v 1.035445 0.8738689 -0.2076547
v 1.027697 -0.8661991 -0.2076547
v 1.018478 -0.87538 -0.2076547
v 1.018478 0.8753798 -0.2076547
v -1.018478 0.8753798 -0.2076547
v 1.027697 0.866199 -0.2076547
v -0.9859765 -0.8428402 -0.1551648
v -0.9951575 -0.833698 -0.1551648
v 0.9859768 -0.8428402 -0.1551648
v -0.9951575 0.8336978 -0.1551648
v -0.9859765 0.84284 -0.1551648
v 0.9951576 -0.833698 -0.1551648
v 0.9951576 0.8336978 -0.1551648
v 0.9859768 0.84284 -0.1551648
vt 0.5072352 0.03488246
vt 0.5072352 0.03488246
vt 0.5072352 0.03488246
vt 0.5072352 0.03488246
vt 0.5072352 0.03488246
vt 0.5072352 0.03488246
vt 0.5072352 0.03488246
vt 0.5072352 0.03488246
vt 0.5072352 0.03488246
vt 0.5072352 0.03488246
vt 0.5072352 0.03488246
vt 0.5072352 0.03488246
vt 0.5072352 0.03488246
vt 0.5072352 0.03488246
vt 0.5072352 0.03488246
vt 0.5072352 0.03488246
vt 0.5072352 0.03488246
vt 0.5072352 0.03488246
vt 0.5072352 0.03488246
vt 0.5072352 0.03488246
vt 0.5072352 0.03488246
vt 0.5072352 0.03488246
vt 0.5072352 0.03488246
vt 0.5072352 0.03488246
vt 0.5072352 0.03488246
vt 0.5072352 0.03488246
vt 0.5072352 0.03488246
vt 0.5072352 0.03488246
vt 0.5072352 0.03488246
vt 0.5072352 0.03488246
vt 0.5072352 0.03488246
vt 0.5072352 0.03488246
vt 0.5072352 0.03488246
vt 0.5072352 0.03488246
vt 0.5072352 0.03488246
vt 0.5072352 0.03488246
vt 0.5072352 0.03488246
vt 0.5072352 0.03488246
vt 0.5072352 0.03488246
vt 0.5072352 0.03488246
vt 0.5072352 0.03488246
vt 0.5072352 0.03488246
vt 0.5072352 0.03488246
vt 0.5072352 0.03488246
vt 0.5072352 0.03488246
vt 0.5072352 0.03488246
vt 0.5072352 0.03488246
vt 0.5072352 0.03488246
vt 0.5072352 0.03488246
vt 0.5072352 0.03488246
vt 0.5072352 0.03488246
vt 0.5072352 0.03488246
vt 0.5072352 0.03488246
vt 0.5072352 0.03488246
vt 0.5072352 0.03488246
vt 0.5072352 0.03488246
vt 0.5072352 0.03488246
vt 0.5072352 0.03488246
vt 0.5072352 0.03488246
vt 0.5072352 0.03488246
vt 0.5072352 0.03488246
vt 0.5072352 0.03488246
vt 0.5072352 0.03488246
vt 0.5072352 0.03488246
vt 0.5072352 0.03488246
vt 0.5072352 0.03488246
vt 0.5072352 0.03488246
vt 0.5072352 0.03488246
vt 0.5072352 0.03488246
vt 0.5072352 0.03488246
vt 0.5072352 0.03488246
vt 0.5072352 0.03488246
vt 0.5072352 0.03488246
vt 0.5072352 0.03488246
vt 0.5072352 0.03488246
vt 0.5072352 0.03488246
vt 0.5072352 0.03488246
vt 0.5072352 0.03488246
vt 0.5072352 0.03488246
vt 0.5072352 0.03488246
vt 0.5072352 0.03488246
vt 0.5072352 0.03488246
vt 0.5072352 0.03488246
vt 0.5072352 0.03488246
vt 0.5072352 0.03488246
vt 0.5072352 0.03488246
vt 0.5072352 0.03488246
vt 0.5072352 0.03488246
vt 0.5072352 0.03488246
vt 0.5072352 0.03488246
vt 0.5072352 0.03488246
vt 0.5072352 0.03488246
vt 0.5072352 0.03488246
vt 0.5072352 0.03488246
vt 0.5072352 0.03488246
vt 0.5072352 0.03488246
vt 0.5072352 0.03488246
vt 0.5072352 0.03488246
vt 0.5072352 0.03488246
vt 0.5072352 0.03488246
vt 0.5072352 0.03488246
vt 0.5072352 0.03488246
vt 0.5072352 0.03488246
vt 0.5072352 0.03488246
vt 0.5072352 0.03488246
vt 0.5072352 0.03488246
vt 0.5072352 0.03488246
vt 0.5072352 0.03488246
vt 0.5072352 0.03488246
vt 0.5072352 0.03488246
vt 0.5072352 0.03488246
vt 0.5072352 0.03488246
vt 0.5072352 0.03488246
vt 0.5072352 0.03488246
vt 0.5072352 0.03488246
vt 0.5072352 0.03488246
vt 0.5072352 0.03488246
vt 0.5072352 0.03488246
vt 0.5072352 0.03488246
vt 0.5072352 0.03488246
vt 0.5072352 0.03488246
vt 0.5072352 0.03488246
vt 0.5072352 0.03488246
vt 0.5072352 0.03488246
vt 0.5072352 0.03488246
vt 0.5072352 0.03488246
vt 0.5072352 0.03488246
vt 0.5072352 0.03488246
vt 0.8155982 0.01291257
vt 0.8155982 0.01291257
vt 0.8155982 0.01291257
vt 0.8155982 0.01291257
vt 0.8155982 0.01291257
vt 0.8155982 0.01291257
vt 0.8155982 0.01291257
vt 0.8155982 0.01291257
vt 0.8155982 0.01291257
vt 0.8155982 0.01291257
vt 0.8155982 0.01291257
vt 0.8155982 0.01291257
vt 0.8155982 0.01291257
vt 0.8155982 0.01291257
vt 0.8155982 0.01291257
vt 0.8155982 0.01291257
vt 0.8155982 0.01291257
vt 0.8155982 0.01291257
vt 0.8155982 0.01291257
vt 0.8155982 0.01291257
vt 0.8155982 0.01291257
vt 0.8155982 0.01291257
vt 0.8155982 0.01291257
vt 0.8155982 0.01291257
vt 0.8155982 0.01291257
vt 0.8155982 0.01291257
vt 0.8155982 0.01291257
vt 0.8155982 0.01291257
vt 0.8155982 0.01291257
vt 0.8155982 0.01291257
vt 0.8155982 0.01291257
vt 0.8155982 0.01291257
vn -0.1992439 -0.5325644 -0.8226038
vn -0.5325428 -0.1992655 -0.8226125
vn -0.1340333 -0.06884426 -0.9885826
vn -0.5325428 0.1992439 -0.8226178
vn -0.06882262 -0.1340549 -0.9885812
vn 0.06884426 -0.1340549 -0.9885796
vn 0.1992655 -0.5325644 -0.8225986
vn 0.5325644 -0.1992655 -0.8225986
vn -0.1340333 0.06882262 -0.9885841
vn 0.1775287 0.04708576 -0.9829885
vn -0.06882262 0.1340333 -0.9885841
vn -0.1992439 0.5325428 -0.8226178
vn 0.1992655 0.5325428 -0.8226125
vn 0.1340549 -0.06884426 -0.9885796
vn -0.04708576 0.177507 -0.9829925
vn 0.0471074 0.177507 -0.9829915
vn 0.1340549 0.06882262 -0.9885812
vn 0.5325644 0.1992439 -0.8226038
vn 0.06884426 0.1340333 -0.9885826
vn 0.0471074 -0.1775287 -0.9829875
vn 0.1775287 -0.0471074 -0.9829875
vn -0.177507 -0.0471074 -0.9829915
vn -0.177507 0.04708576 -0.9829925
vn -0.04708576 -0.1775287 -0.9829885
vn 0.4383712 0.1485245 -0.8864373
vn -0.1485245 0.4383496 -0.886448
vn 0.1485462 -0.4383712 -0.8864337
vn -0.4383496 -0.1485462 -0.8864444
vn 0.1485462 0.4383496 -0.8864444
vn 0.4383712 -0.1485462 -0.8864337
vn -0.1485245 -0.4383712 -0.8864373
vn -0.4383496 0.1485245 -0.886448
vn 0.6992138 0.2717001 -0.6612708
vn 0.2717218 -0.6992138 -0.6612619
vn -0.2717001 0.6991922 -0.6612937
vn -0.6991922 -0.2717218 -0.6612848
vn 0.2717218 0.6991922 -0.6612847
vn 0.6992138 -0.2717218 -0.6612619
vn -0.2717001 -0.6992138 -0.6612708
vn -0.6991922 0.2717001 -0.6612937
vn 0.8876001 0.3876302 -0.2488148
vn 0.3876519 -0.8876001 -0.2487811
vn -0.3876302 0.8875785 -0.2488921
vn -0.8875785 -0.3876519 -0.2488584
vn 0.3876519 0.8875785 -0.2488583
vn 0.8876001 -0.3876519 -0.2487811
vn -0.3876302 -0.8876001 -0.2488149
vn -0.8875785 0.3876302 -0.2488921
vn 0.9020914 0.3369108 -0.2696706
vn 0.3441781 -0.9020914 -0.2603317
vn -0.3369108 0.9020697 -0.2697431
vn -0.9020697 -0.3369325 -0.2697161
vn 0.3441781 0.9020697 -0.2604069
vn 0.9020914 -0.3369325 -0.2696435
vn -0.3369108 -0.9020914 -0.2696705
vn -0.9020697 0.3369108 -0.2697432
vn 0.6629857 0.2499633 -0.7056687
vn 0.2499849 -0.6629857 -0.7056611
vn -0.2499633 0.6629641 -0.705689
vn -0.6629641 -0.2499849 -0.7056813
vn 0.2499849 0.6629641 -0.7056813
vn 0.6629857 -0.2499849 -0.7056611
vn -0.2499633 -0.6629857 -0.7056687
vn -0.6629641 0.2499633 -0.705689
vn -0.01810324 0.04708576 -0.9987268
vn 0.0471074 0.01810324 -0.9987258
vn -0.04708576 -0.01812488 -0.9987264
vn 0.01812488 -0.0471074 -0.9987254
vn 0.0471074 -0.01812488 -0.9987254
vn -0.01810324 -0.0471074 -0.9987258
vn -0.04708576 0.01810324 -0.9987268
vn 0.01812488 0.04708576 -0.9987264
vn -0.7788941 -0.3369325 -0.5289618
vn -0.3369108 0.7788941 -0.5289755
vn 0.3369325 -0.7789157 -0.5289299
vn 0.7789157 0.3369108 -0.5289437
vn -0.3369108 -0.7789157 -0.5289437
vn -0.7788941 0.3369108 -0.5289755
vn 0.3369325 0.7788941 -0.5289618
vn 0.7789157 -0.3369325 -0.5289299
vn -0.9238067 -0.3804062 -0.04327079
vn -0.3803846 0.9238067 -0.04346046
vn 0.3804062 -0.9238282 -0.04280754
vn 0.9238282 0.3803846 -0.04299926
vn -0.3803846 -0.9238282 -0.04299926
vn -0.9238067 0.3803846 -0.04346046
vn 0.3804062 0.9238067 -0.04327079
vn 0.9238282 -0.3804062 -0.04280754
vn -0.7861397 -0.3369325 0.5181321
vn -0.3369108 0.7861397 0.5181462
vn 0.3369325 -0.7861613 0.5180993
vn 0.7861613 0.3369108 0.5181134
vn -0.3369108 -0.7861613 0.5181134
vn -0.7861397 0.3369108 0.5181462
vn 0.3369325 0.7861397 0.5181321
vn 0.7861613 -0.3369325 0.5180993
vn 0.3369325 0.1919984 0.9217446
vn 0.1920199 -0.3369325 0.9217401
vn -0.1919984 0.3369108 0.9217525
vn -0.3369108 -0.1920199 0.921748
vn 0.1920199 0.3369108 0.921748
vn 0.3369325 -0.1920199 0.9217401
vn -0.1919984 -0.3369325 0.9217446
vn -0.3369108 0.1919984 0.9217525
vn 0.5470556 0.2282264 -0.8053837
vn 0.2282481 -0.5470556 -0.8053775
vn -0.2282264 0.547034 -0.8053983
vn -0.547034 -0.2282481 -0.8053922
vn 0.2282481 0.547034 -0.8053922
vn 0.5470556 -0.2282481 -0.8053775
vn -0.2282264 -0.5470556 -0.8053837
vn -0.547034 0.2282264 -0.8053983
vn 0.2499849 0.06882262 -0.9658007
vn 0.06884426 -0.2499849 -0.9657992
vn -0.06882262 0.2499633 -0.9658063
vn -0.2499633 -0.06884426 -0.9658048
vn 0.06884426 0.2499633 -0.9658048
vn 0.2499849 -0.06884426 -0.9657992
vn -0.06882262 -0.2499849 -0.9658007
vn -0.2499633 0.06882262 -0.9658063
vn 0.6050206 0.2209808 -0.7649298
vn 0.2210025 0.6049991 -0.7649406
vn 0.6050206 -0.2210025 -0.7649235
vn -0.2209808 0.6049991 -0.7649469
vn -0.6049991 0.2209808 -0.7649468
vn 0.2210025 -0.6050206 -0.7649235
vn -0.2209808 -0.6050206 -0.7649298
vn -0.6049991 -0.2210025 -0.7649406
vn -0.5325428 -0.1992655 -0.8226125
vn -0.1992439 -0.5325644 -0.8226038
vn -0.1630158 -0.4963363 -0.8526876
vn 0.1992655 -0.5325644 -0.8225986
vn -0.4963146 -0.1630374 -0.8526961
vn -0.4963146 0.1630158 -0.8527002
vn -0.5325428 0.1992439 -0.8226178
vn -0.1992439 0.5325428 -0.8226178
vn 0.1630374 -0.4963363 -0.8526835
vn 0.1413006 0.3006827 -0.9431989
vn 0.4963363 -0.1630374 -0.8526835
vn 0.5325644 -0.1992655 -0.8225986
vn 0.5325644 0.1992439 -0.8226038
vn -0.1630158 0.4963146 -0.8527002
vn 0.3007043 -0.1413006 -0.9431919
vn 0.3007043 0.1412789 -0.9431952
vn 0.1630374 0.4963146 -0.8526961
vn 0.1992655 0.5325428 -0.8226125
vn 0.4963363 0.1630158 -0.8526876
vn -0.3006827 0.1412789 -0.9432021
vn -0.1412789 0.3006827 -0.9432021
vn -0.1412789 -0.3007043 -0.9431952
vn 0.1413006 -0.3007043 -0.943192
vn -0.3006827 -0.1413006 -0.9431989
vn 0.2210025 0.6049991 -0.7649406
vn 0.6050206 0.2209808 -0.7649298
vn -0.2209808 0.6049991 -0.7649469
vn 0.6050206 -0.2210025 -0.7649235
vn 0.2210025 -0.6050206 -0.7649235
vn -0.6049991 0.2209808 -0.7649468
vn -0.6049991 -0.2210025 -0.7649406
vn -0.2209808 -0.6050206 -0.7649298
g Quarters_MapFrame2_0
f 3/3/3 2/2/2 1/1/1
f 2/2/2 3/3/3 4/4/4
f 5/5/5 3/3/3 1/1/1
f 6/6/6 5/5/5 1/1/1
f 7/7/7 6/6/6 1/1/1
f 7/7/7 8/8/8 6/6/6
f 3/3/3 9/9/9 4/4/4
f 3/3/3 5/5/5 10/10/10
f 3/3/3 10/10/10 9/9/9
f 4/4/4 9/9/9 11/11/11
f 12/12/12 4/4/4 11/11/11
f 12/12/12 11/11/11 13/13/13
f 8/8/8 14/14/14 6/6/6
f 6/6/6 15/15/15 5/5/5
f 15/15/15 6/6/6 14/14/14
f 5/5/5 16/16/16 10/10/10
f 15/15/15 16/16/16 5/5/5
f 14/14/14 8/8/8 17/17/17
f 8/8/8 18/18/18 17/17/17
f 17/17/17 18/18/18 13/13/13
f 11/11/11 19/19/19 13/13/13
f 19/19/19 17/17/17 13/13/13
f 11/11/11 9/9/9 20/20/20
f 11/11/11 20/20/20 19/19/19
f 10/10/10 21/21/21 9/9/9
f 9/9/9 21/21/21 20/20/20
f 17/17/17 22/22/22 14/14/14
f 17/17/17 19/19/19 22/22/22
f 23/23/23 15/15/15 14/14/14
f 22/22/22 23/23/23 14/14/14
f 20/20/20 24/24/24 19/19/19
f 19/19/19 24/24/24 22/22/22
f 10/10/10 16/16/16 25/25/25
f 10/10/10 25/25/25 21/21/21
f 15/15/15 26/26/26 16/16/16
f 15/15/15 23/23/23 26/26/26
f 27/27/27 20/20/20 21/21/21
f 20/20/20 27/27/27 24/24/24
f 28/28/28 22/22/22 24/24/24
f 23/23/23 22/22/22 28/28/28
f 16/16/16 29/29/29 25/25/25
f 26/26/26 29/29/29 16/16/16
f 25/25/25 30/30/30 21/21/21
f 30/30/30 27/27/27 21/21/21
f 27/27/27 31/31/31 24/24/24
f 31/31/31 28/28/28 24/24/24
f 23/23/23 32/32/32 26/26/26
f 32/32/32 23/23/23 28/28/28
f 33/33/33 25/25/25 29/29/29
f 25/25/25 33/33/33 30/30/30
f 34/34/34 27/27/27 30/30/30
f 27/27/27 34/34/34 31/31/31
f 26/26/26 35/35/35 29/29/29
f 26/26/26 32/32/32 35/35/35
f 36/36/36 28/28/28 31/31/31
f 28/28/28 36/36/36 32/32/32
f 37/37/37 33/33/33 29/29/29
f 35/35/35 37/37/37 29/29/29
f 33/33/33 38/38/38 30/30/30
f 38/38/38 34/34/34 30/30/30
f 34/34/34 39/39/39 31/31/31
f 39/39/39 36/36/36 31/31/31
f 32/32/32 40/40/40 35/35/35
f 36/36/36 40/40/40 32/32/32
f 33/33/33 37/37/37 41/41/41
f 33/33/33 41/41/41 38/38/38
f 42/42/42 34/34/34 38/38/38
f 34/34/34 42/42/42 39/39/39
f 35/35/35 43/43/43 37/37/37
f 43/43/43 35/35/35 40/40/40
f 36/36/36 39/39/39 44/44/44
f 40/40/40 36/36/36 44/44/44
f 37/37/37 45/45/45 41/41/41
f 43/43/43 45/45/45 37/37/37
f 41/41/41 46/46/46 38/38/38
f 46/46/46 42/42/42 38/38/38
f 42/42/42 47/47/47 39/39/39
f 39/39/39 47/47/47 44/44/44
f 48/48/48 43/43/43 40/40/40
f 48/48/48 40/40/40 44/44/44
f 49/49/49 41/41/41 45/45/45
f 41/41/41 49/49/49 46/46/46
f 50/50/50 42/42/42 46/46/46
f 42/42/42 50/50/50 47/47/47
f 43/43/43 51/51/51 45/45/45
f 43/43/43 48/48/48 51/51/51
f 52/52/52 44/44/44 47/47/47
f 44/44/44 52/52/52 48/48/48
f 53/53/53 49/49/49 45/45/45
f 51/51/51 53/53/53 45/45/45
f 49/49/49 54/54/54 46/46/46
f 54/54/54 50/50/50 46/46/46
f 50/50/50 55/55/55 47/47/47
f 55/55/55 52/52/52 47/47/47
f 48/48/48 56/56/56 51/51/51
f 52/52/52 56/56/56 48/48/48
f 49/49/49 53/53/53 57/57/57
f 49/49/49 57/57/57 54/54/54
f 58/58/58 50/50/50 54/54/54
f 50/50/50 58/58/58 55/55/55
f 51/51/51 59/59/59 53/53/53
f 59/59/59 51/51/51 56/56/56
f 52/52/52 55/55/55 60/60/60
f 56/56/56 52/52/52 60/60/60
f 53/53/53 61/61/61 57/57/57
f 59/59/59 61/61/61 53/53/53
f 57/57/57 62/62/62 54/54/54
f 62/62/62 58/58/58 54/54/54
f 58/58/58 63/63/63 55/55/55
f 55/55/55 63/63/63 60/60/60
f 64/64/64 59/59/59 56/56/56
f 64/64/64 56/56/56 60/60/60
f 57/57/57 61/61/61 65/65/65
f 57/57/57 65/65/65 62/62/62
f 66/66/66 58/58/58 62/62/62
f 58/58/58 66/66/66 63/63/63
f 59/59/59 67/67/67 61/61/61
f 59/59/59 64/64/64 67/67/67
f 68/68/68 60/60/60 63/63/63
f 60/60/60 68/68/68 64/64/64
f 61/61/61 69/69/69 65/65/65
f 67/67/67 69/69/69 61/61/61
f 65/65/65 70/70/70 62/62/62
f 70/70/70 66/66/66 62/62/62
f 66/66/66 71/71/71 63/63/63
f 71/71/71 68/68/68 63/63/63
f 64/64/64 72/72/72 67/67/67
f 68/68/68 72/72/72 64/64/64
f 73/73/73 65/65/65 69/69/69
f 70/70/70 65/65/65 73/73/73
f 74/74/74 66/66/66 70/70/70
f 66/66/66 74/74/74 71/71/71
f 69/69/69 67/67/67 75/75/75
f 67/67/67 72/72/72 75/75/75
f 76/76/76 68/68/68 71/71/71
f 72/72/72 68/68/68 76/76/76
f 77/77/77 73/73/73 69/69/69
f 77/77/77 69/69/69 75/75/75
f 78/78/78 70/70/70 73/73/73
f 78/78/78 74/74/74 70/70/70
f 74/74/74 79/79/79 71/71/71
f 79/79/79 76/76/76 71/71/71
f 72/72/72 80/80/80 75/75/75
f 80/80/80 72/72/72 76/76/76
f 73/73/73 77/77/77 81/81/81
f 78/78/78 73/73/73 81/81/81
f 82/82/82 74/74/74 78/78/78
f 79/79/79 74/74/74 82/82/82
f 77/77/77 75/75/75 83/83/83
f 75/75/75 80/80/80 83/83/83
f 84/84/84 76/76/76 79/79/79
f 80/80/80 76/76/76 84/84/84
f 77/77/77 85/85/85 81/81/81
f 85/85/85 77/77/77 83/83/83
f 86/86/86 78/78/78 81/81/81
f 86/86/86 82/82/82 78/78/78
f 87/87/87 79/79/79 82/82/82
f 87/87/87 84/84/84 79/79/79
f 80/80/80 88/88/88 83/83/83
f 88/88/88 80/80/80 84/84/84
f 89/89/89 81/81/81 85/85/85
f 81/81/81 89/89/89 86/86/86
f 90/90/90 82/82/82 86/86/86
f 82/82/82 90/90/90 87/87/87
f 83/83/83 91/91/91 85/85/85
f 83/83/83 88/88/88 91/91/91
f 92/92/92 84/84/84 87/87/87
f 84/84/84 92/92/92 88/88/88
f 93/93/93 89/89/89 85/85/85
f 91/91/91 93/93/93 85/85/85
f 89/89/89 94/94/94 86/86/86
f 94/94/94 90/90/90 86/86/86
f 90/90/90 95/95/95 87/87/87
f 95/95/95 92/92/92 87/87/87
f 88/88/88 96/96/96 91/91/91
f 92/92/92 96/96/96 88/88/88
f 97/97/97 89/89/89 93/93/93
f 89/89/89 97/97/97 94/94/94
f 98/98/98 90/90/90 94/94/94
f 90/90/90 98/98/98 95/95/95
f 91/91/91 99/99/99 93/93/93
f 91/91/91 96/96/96 99/99/99
f 100/100/100 92/92/92 95/95/95
f 92/92/92 100/100/100 96/96/96
f 101/101/101 97/97/97 93/93/93
f 99/99/99 101/101/101 93/93/93
f 97/97/97 102/102/102 94/94/94
f 102/102/102 98/98/98 94/94/94
f 98/98/98 103/103/103 95/95/95
f 103/103/103 100/100/100 95/95/95
f 96/96/96 104/104/104 99/99/99
f 100/100/100 104/104/104 96/96/96
f 105/105/105 97/97/97 101/101/101
f 97/97/97 105/105/105 102/102/102
f 106/106/106 98/98/98 102/102/102
f 98/98/98 106/106/106 103/103/103
f 99/99/99 107/107/107 101/101/101
f 99/99/99 104/104/104 107/107/107
f 108/108/108 100/100/100 103/103/103
f 100/100/100 108/108/108 104/104/104
f 109/109/109 105/105/105 101/101/101
f 107/107/107 109/109/109 101/101/101
f 105/105/105 110/110/110 102/102/102
f 110/110/110 106/106/106 102/102/102
f 106/106/106 111/111/111 103/103/103
f 111/111/111 108/108/108 103/103/103
f 104/104/104 112/112/112 107/107/107
f 108/108/108 112/112/112 104/104/104
f 113/113/113 105/105/105 109/109/109
f 105/105/105 113/113/113 110/110/110
f 106/106/106 110/110/110 114/114/114
f 106/106/106 114/114/114 111/111/111
f 107/107/107 115/115/115 109/109/109
f 115/115/115 107/107/107 112/112/112
f 108/108/108 111/111/111 116/116/116
f 108/108/108 116/116/116 112/112/112
f 117/117/117 113/113/113 109/109/109
f 115/115/115 117/117/117 109/109/109
f 113/113/113 118/118/118 110/110/110
f 110/110/110 118/118/118 114/114/114
f 114/114/114 119/119/119 111/111/111
f 111/111/111 119/119/119 116/116/116
f 120/120/120 115/115/115 112/112/112
f 116/116/116 120/120/120 112/112/112
f 121/121/121 113/113/113 117/117/117
f 113/113/113 121/121/121 118/118/118
f 122/122/122 121/121/121 117/117/117
f 121/121/121 123/123/123 118/118/118
f 124/124/124 122/122/122 117/117/117
f 115/115/115 124/124/124 117/117/117
f 115/115/115 120/120/120 124/124/124
f 120/120/120 125/125/125 124/124/124
f 118/118/118 123/123/123 126/126/126
f 114/114/114 118/118/118 126/126/126
f 114/114/114 126/126/126 119/119/119
f 126/126/126 127/127/127 119/119/119
f 125/125/125 120/120/120 128/128/128
f 120/120/120 116/116/116 128/128/128
f 128/128/128 116/116/116 119/119/119
f 127/127/127 128/128/128 119/119/119
f 131/131/131 130/130/130 129/129/129
f 132/132/132 130/130/130 131/131/131
f 133/133/133 131/131/131 129/129/129
f 133/133/133 129/129/129 134/134/134
f 129/129/129 135/135/135 134/134/134
f 134/134/134 135/135/135 136/136/136
f 137/137/137 132/132/132 131/131/131
f 131/131/131 133/133/133 138/138/138
f 137/137/137 131/131/131 138/138/138
f 132/132/132 137/137/137 139/139/139
f 140/140/140 132/132/132 139/139/139
f 141/141/141 140/140/140 139/139/139
f 142/142/142 134/134/134 136/136/136
f 133/133/133 134/134/134 143/143/143
f 143/143/143 134/134/134 142/142/142
f 133/133/133 144/144/144 138/138/138
f 144/144/144 133/133/133 143/143/143
f 142/142/142 136/136/136 145/145/145
f 136/136/136 146/146/146 145/145/145
f 145/145/145 146/146/146 141/141/141
f 147/147/147 141/141/141 139/139/139
f 147/147/147 145/145/145 141/141/141
f 148/148/148 139/139/139 137/137/137
f 139/139/139 148/148/148 147/147/147
f 149/149/149 137/137/137 138/138/138
f 149/149/149 148/148/148 137/137/137
f 142/142/142 145/145/145 150/150/150
f 145/145/145 147/147/147 150/150/150
f 151/151/151 143/143/143 142/142/142
f 151/151/151 142/142/142 150/150/150
f 148/148/148 152/152/152 147/147/147
f 147/147/147 152/152/152 150/150/150
f 153/153/153 138/138/138 144/144/144
f 149/149/149 138/138/138 153/153/153
f 154/154/154 153/153/153 144/144/144
f 155/155/155 149/149/149 153/153/153
f 154/154/154 144/144/144 156/156/156
f 144/144/144 143/143/143 156/156/156
f 156/156/156 143/143/143 151/151/151
f 157/157/157 156/156/156 151/151/151
f 149/149/149 155/155/155 158/158/158
f 148/148/148 149/149/149 158/158/158
f 152/152/152 148/148/148 158/158/158
f 159/159/159 152/152/152 158/158/158
f 157/157/157 151/151/151 160/160/160
f 159/159/159 160/160/160 152/152/152
f 151/151/151 150/150/150 160/160/160
f 160/160/160 150/150/150 152/152/152
