g rbLorikeetLeg_mesh
v 0.11 0 0
v -0.11 0 0
v 0.1083333 -0.1166667 0
v -0.1083333 -0.1166667 0
v 0.107 -0.21 0
v -0.107 -0.21 0
v 0.106 -0.28 0
v -0.106 -0.28 0
v 0.1053333 -0.3266667 0
v -0.1053333 -0.3266667 0
v 0.105 -0.35 0
v -0.105 -0.35 0
v 0.105 -0.35 0
v -0.105 -0.35 0
v 0.1046667 -0.3733333 0
v -0.1046667 -0.3733333 0
v 0.104 -0.42 0
v -0.104 -0.42 0
v 0.103 -0.49 0
v -0.103 -0.49 0
v 0.1016667 -0.5833334 0
v -0.1016667 -0.5833334 0
v 0.1 -0.7 0
v -0.1 -0.7 0
vt 0.6509765 0.2523437
vt 0.6766602 0.2523437
vt 0.6509765 0.2401693
vt 0.6766602 0.2401693
vt 0.6509765 0.2304297
vt 0.6766602 0.2304297
vt 0.6509765 0.223125
vt 0.6766602 0.223125
vt 0.6509765 0.2182552
vt 0.6766602 0.2182552
vt 0.6509765 0.2158203
vt 0.6766602 0.2158203
vt 0.6509765 0.2158203
vt 0.6766602 0.2158203
vt 0.6509765 0.2133854
vt 0.6766602 0.2133854
vt 0.6509765 0.2085156
vt 0.6766602 0.2085156
vt 0.6509765 0.2012109
vt 0.6766602 0.2012109
vt 0.6509765 0.1914714
vt 0.6766602 0.1914714
vt 0.6509765 0.1792969
vt 0.6766602 0.1792969
vn 0 0 -0.9999999
vn 0 0 -1
vn 0 0 -1
vn 0 0 -1
vn 0 0 -1
vn 0 0 -1
vn 0 0 -1
vn 0 0 -1
vn 0 0 -1
vn 0 0 -1
vn 0 0 -0.9999999
vn 0 0 -1
vn 0 0 -1
vn 0 0 -1
vn 0 0 -1
vn 0 0 -0.9999999
vn 0 0 -1
vn 0 0 -1
vn 0 0 -1
vn 0 0 -1
vn 0 0 -0.9999999
vn 0 0 -1
vn 0 0 -1
vn 0 0 -1
g rbLorikeetLeg_mesh_0
f 3/3/3 2/2/2 1/1/1
f 4/4/4 2/2/2 3/3/3
f 5/5/5 4/4/4 3/3/3
f 6/6/6 4/4/4 5/5/5
f 7/7/7 6/6/6 5/5/5
f 8/8/8 6/6/6 7/7/7
f 9/9/9 8/8/8 7/7/7
f 10/10/10 8/8/8 9/9/9
f 11/11/11 10/10/10 9/9/9
f 12/12/12 10/10/10 11/11/11
f 13/13/13 12/12/12 11/11/11
f 14/14/14 12/12/12 13/13/13
f 15/15/15 14/14/14 13/13/13
f 16/16/16 14/14/14 15/15/15
f 17/17/17 16/16/16 15/15/15
f 18/18/18 16/16/16 17/17/17
f 19/19/19 18/18/18 17/17/17
f 20/20/20 18/18/18 19/19/19
f 21/21/21 20/20/20 19/19/19
f 22/22/22 20/20/20 21/21/21
f 23/23/23 22/22/22 21/21/21
f 24/24/24 22/22/22 23/23/23
