g rbLorikeetFeather2_mesh
v 0.1 0 0
v -0.1 0 0
v 0.09791667 -0.1257143 0
v -0.09791667 -0.1257143 0
v 0.09583334 -0.2514286 0
v -0.09583334 -0.2514286 0
v 0.09375001 -0.3771428 0
v -0.09375001 -0.3771428 0
v 0.09166668 -0.5028571 0
v -0.09166668 -0.5028571 0
v 0.08958334 -0.6285715 0
v -0.08958334 -0.6285715 0
v 0.08750001 -0.7542858 0
v -0.08750001 -0.7542858 0
v 0.08541668 -0.8800001 0
v -0.08541668 -0.8800001 0
vt 0.6425781 0.6782227
vt 0.65625 0.6782227
vt 0.6425781 0.6663644
vt 0.65625 0.6663644
vt 0.6425781 0.6545061
vt 0.65625 0.6545061
vt 0.6425781 0.6426479
vt 0.65625 0.6426479
vt 0.6425781 0.6307896
vt 0.65625 0.6307896
vt 0.6425781 0.6189314
vt 0.65625 0.6189314
vt 0.6425781 0.6070731
vt 0.65625 0.6070731
vt 0.6425781 0.5952148
vt 0.65625 0.5952148
vn 0 0 -1
vn 0 0 -1
vn 0 0 -1
vn 0 0 -1
vn 0 0 -1
vn 0 0 -1
vn 0 0 -1
vn 0 0 -1
vn 0 0 -0.9999999
vn 0 0 -1
vn 0 0 -1
vn 0 0 -1
vn 0 0 -1
vn 0 0 -1
vn 0 0 -1
vn 0 0 -0.9999999
g rbLorikeetFeather2_mesh_0
f 3/3/3 2/2/2 1/1/1
f 4/4/4 2/2/2 3/3/3
f 5/5/5 4/4/4 3/3/3
f 6/6/6 4/4/4 5/5/5
f 7/7/7 6/6/6 5/5/5
f 8/8/8 6/6/6 7/7/7
f 9/9/9 8/8/8 7/7/7
f 10/10/10 8/8/8 9/9/9
f 11/11/11 10/10/10 9/9/9
f 12/12/12 10/10/10 11/11/11
f 13/13/13 12/12/12 11/11/11
f 14/14/14 12/12/12 13/13/13
f 15/15/15 14/14/14 13/13/13
f 16/16/16 14/14/14 15/15/15
