g redCarpet_v2
v -4.499962 7.629395E-05 1.699931
v -5 7.629395E-05 2.000076
v -5 7.629395E-05 1.699931
v -4.499962 7.629395E-05 2.000076
v -4.000076 7.629395E-05 1.699931
v -4.000076 7.629395E-05 2.000076
v -3.500038 7.629395E-05 1.699931
v -3.500038 7.629395E-05 2.000076
v -3 7.629395E-05 1.699931
v -3 7.629395E-05 2.000076
v -2.499962 7.629395E-05 1.699931
v -2.499962 7.629395E-05 2.000076
v -2.000076 7.629395E-05 1.699931
v -2.000076 7.629395E-05 2.000076
v -1.500038 7.629395E-05 1.699931
v -1.500038 7.629395E-05 2.000076
v -1 7.629395E-05 1.699931
v -1 7.629395E-05 2.000076
v -0.4999619 7.629395E-05 1.699931
v -0.4999619 7.629395E-05 2.000076
v -7.629395E-05 7.629395E-05 1.699931
v -7.629395E-05 7.629395E-05 2.000076
v 0.4999619 7.629395E-05 1.699931
v 0.4999619 7.629395E-05 2.000076
v 1 7.629395E-05 1.699931
v 1 7.629395E-05 2.000076
v 1.500038 7.629395E-05 1.699931
v 1.500038 7.629395E-05 2.000076
v 1.999924 7.629395E-05 1.699931
v 1.999924 7.629395E-05 2.000076
v 2.499962 7.629395E-05 1.699931
v 2.499962 7.629395E-05 2.000076
v 3 7.629395E-05 1.699931
v 3 7.629395E-05 2.000076
v 3.500038 7.629395E-05 1.699931
v 3.500038 7.629395E-05 2.000076
v 3.999924 7.629395E-05 1.699931
v 3.999924 7.629395E-05 2.000076
v 4.499962 7.629395E-05 1.699931
v 4.499962 7.629395E-05 2.000076
v 5 7.629395E-05 1.699931
v 5 7.629395E-05 2.000076
v -4.499962 7.629395E-05 -1.999924
v -5 7.629395E-05 -1.879988
v -5 7.629395E-05 -1.999924
v -4.499962 7.629395E-05 -1.879988
v -5 7.629395E-05 -1.699931
v -4.000076 7.629395E-05 -1.999924
v -4.499962 7.629395E-05 -1.699931
v -4.000076 7.629395E-05 -1.879988
v -3.500038 7.629395E-05 -1.999924
v -4.000076 7.629395E-05 -1.699931
v -3.500038 7.629395E-05 -1.879988
v -3 7.629395E-05 -1.999924
v -3.500038 7.629395E-05 -1.699931
v -3 7.629395E-05 -1.879988
v -2.499962 7.629395E-05 -1.999924
v -3 7.629395E-05 -1.699931
v -2.499962 7.629395E-05 -1.879988
v -2.000076 7.629395E-05 -1.999924
v -2.499962 7.629395E-05 -1.699931
v -2.000076 7.629395E-05 -1.879988
v -1.500038 7.629395E-05 -1.999924
v -2.000076 7.629395E-05 -1.699931
v -1.500038 7.629395E-05 -1.879988
v -1 7.629395E-05 -1.999924
v -1.500038 7.629395E-05 -1.699931
v -1 7.629395E-05 -1.879988
v -0.4999619 7.629395E-05 -1.999924
v -1 7.629395E-05 -1.699931
v -0.4999619 7.629395E-05 -1.879988
v -7.629395E-05 7.629395E-05 -1.999924
v -0.4999619 7.629395E-05 -1.699931
v -7.629395E-05 7.629395E-05 -1.879988
v 0.4999619 7.629395E-05 -1.999924
v -7.629395E-05 7.629395E-05 -1.699931
v 0.4999619 7.629395E-05 -1.879988
v 1 7.629395E-05 -1.999924
v 0.4999619 7.629395E-05 -1.699931
v 1 7.629395E-05 -1.879988
v 1.500038 7.629395E-05 -1.999924
v 1 7.629395E-05 -1.699931
v 1.500038 7.629395E-05 -1.879988
v 1.999924 7.629395E-05 -1.999924
v 1.500038 7.629395E-05 -1.699931
v 1.999924 7.629395E-05 -1.879988
v 2.499962 7.629395E-05 -1.999924
v 1.999924 7.629395E-05 -1.699931
v 2.499962 7.629395E-05 -1.879988
v 3 7.629395E-05 -1.999924
v 2.499962 7.629395E-05 -1.699931
v 3 7.629395E-05 -1.879988
v 3.500038 7.629395E-05 -1.999924
v 3 7.629395E-05 -1.699931
v 3.500038 7.629395E-05 -1.879988
v 3.999924 7.629395E-05 -1.999924
v 3.500038 7.629395E-05 -1.699931
v 3.999924 7.629395E-05 -1.879988
v 4.499962 7.629395E-05 -1.999924
v 3.999924 7.629395E-05 -1.699931
v 4.499962 7.629395E-05 -1.879988
v 5 7.629395E-05 -1.999924
v 4.499962 7.629395E-05 -1.699931
v 5 7.629395E-05 -1.879988
v 5 7.629395E-05 -1.699931
v 5 7.629395E-05 1.019989
v 5 7.629395E-05 1.699931
v 4.499962 7.629395E-05 1.699931
v 4.499962 7.629395E-05 1.019989
v 5 7.629395E-05 0.3400474
v 3.999924 7.629395E-05 1.699931
v 4.499962 7.629395E-05 0.3400474
v 5 7.629395E-05 -0.3400474
v 3.999924 7.629395E-05 1.019989
v 3.500038 7.629395E-05 1.699931
v 4.499962 7.629395E-05 -0.3400474
v 5 7.629395E-05 -1.019989
v 3.500038 7.629395E-05 1.019989
v 3 7.629395E-05 1.699931
v 3.999924 7.629395E-05 0.3400474
v 4.499962 7.629395E-05 -1.019989
v 5 7.629395E-05 -1.699931
v 4.499962 7.629395E-05 -1.699931
v 3 7.629395E-05 1.019989
v 2.499962 7.629395E-05 1.699931
v 3.500038 7.629395E-05 0.3400474
v 3.999924 7.629395E-05 -0.3400474
v 3.999924 7.629395E-05 -1.019989
v 3.999924 7.629395E-05 -1.699931
v 2.499962 7.629395E-05 1.019989
v 1.999924 7.629395E-05 1.699931
v 3.500038 7.629395E-05 -0.3400474
v 3.500038 7.629395E-05 -1.019989
v 3.500038 7.629395E-05 -1.699931
v 3 7.629395E-05 0.3400474
v 1.999924 7.629395E-05 1.019989
v 1.500038 7.629395E-05 1.699931
v 3 7.629395E-05 -1.019989
v 3 7.629395E-05 -1.699931
v 3 7.629395E-05 -0.3400474
v 2.499962 7.629395E-05 0.3400474
v 1.500038 7.629395E-05 1.019989
v 1 7.629395E-05 1.699931
v 2.499962 7.629395E-05 -1.019989
v 2.499962 7.629395E-05 -1.699931
v 2.499962 7.629395E-05 -0.3400474
v 1.999924 7.629395E-05 0.3400474
v 1 7.629395E-05 1.019989
v 0.4999619 7.629395E-05 1.699931
v 1.999924 7.629395E-05 -1.019989
v 1.999924 7.629395E-05 -1.699931
v 1.999924 7.629395E-05 -0.3400474
v 1.500038 7.629395E-05 0.3400474
v 0.4999619 7.629395E-05 1.019989
v -7.629395E-05 7.629395E-05 1.699931
v 1.500038 7.629395E-05 -1.019989
v 1.500038 7.629395E-05 -1.699931
v 1.500038 7.629395E-05 -0.3400474
v 1 7.629395E-05 0.3400474
v -7.629395E-05 7.629395E-05 1.019989
v -0.4999619 7.629395E-05 1.699931
v 1 7.629395E-05 -1.019989
v 1 7.629395E-05 -1.699931
v 1 7.629395E-05 -0.3400474
v 0.4999619 7.629395E-05 0.3400474
v -0.4999619 7.629395E-05 1.019989
v -1 7.629395E-05 1.699931
v 0.4999619 7.629395E-05 -1.019989
v 0.4999619 7.629395E-05 -1.699931
v 0.4999619 7.629395E-05 -0.3400474
v -7.629395E-05 7.629395E-05 0.3400474
v -1 7.629395E-05 1.019989
v -1.500038 7.629395E-05 1.699931
v -7.629395E-05 7.629395E-05 -1.019989
v -7.629395E-05 7.629395E-05 -1.699931
v -7.629395E-05 7.629395E-05 -0.3400474
v -0.4999619 7.629395E-05 0.3400474
v -1.500038 7.629395E-05 1.019989
v -2.000076 7.629395E-05 1.699931
v -0.4999619 7.629395E-05 -1.019989
v -0.4999619 7.629395E-05 -1.699931
v -0.4999619 7.629395E-05 -0.3400474
v -1 7.629395E-05 0.3400474
v -2.000076 7.629395E-05 1.019989
v -2.499962 7.629395E-05 1.699931
v -1 7.629395E-05 -1.019989
v -1 7.629395E-05 -1.699931
v -1 7.629395E-05 -0.3400474
v -1.500038 7.629395E-05 0.3400474
v -2.499962 7.629395E-05 1.019989
v -3 7.629395E-05 1.699931
v -1.500038 7.629395E-05 -1.019989
v -1.500038 7.629395E-05 -1.699931
v -1.500038 7.629395E-05 -0.3400474
v -2.000076 7.629395E-05 0.3400474
v -3 7.629395E-05 1.019989
v -3.500038 7.629395E-05 1.699931
v -2.000076 7.629395E-05 -1.019989
v -2.000076 7.629395E-05 -1.699931
v -2.000076 7.629395E-05 -0.3400474
v -2.499962 7.629395E-05 0.3400474
v -3.500038 7.629395E-05 1.019989
v -4.000076 7.629395E-05 1.699931
v -2.499962 7.629395E-05 -1.019989
v -2.499962 7.629395E-05 -1.699931
v -2.499962 7.629395E-05 -0.3400474
v -3 7.629395E-05 0.3400474
v -4.000076 7.629395E-05 1.019989
v -4.499962 7.629395E-05 1.699931
v -3 7.629395E-05 -1.019989
v -3 7.629395E-05 -1.699931
v -3 7.629395E-05 -0.3400474
v -3.500038 7.629395E-05 0.3400474
v -4.499962 7.629395E-05 1.019989
v -5 7.629395E-05 1.699931
v -5 7.629395E-05 1.019989
v -3.500038 7.629395E-05 -1.019989
v -3.500038 7.629395E-05 -1.699931
v -3.500038 7.629395E-05 -0.3400474
v -4.000076 7.629395E-05 0.3400474
v -4.499962 7.629395E-05 0.3400474
v -5 7.629395E-05 0.3400474
v -4.000076 7.629395E-05 -0.3400474
v -4.000076 7.629395E-05 -1.019989
v -4.000076 7.629395E-05 -1.699931
v -4.499962 7.629395E-05 -0.3400474
v -5 7.629395E-05 -0.3400474
v -4.499962 7.629395E-05 -1.019989
v -4.499962 7.629395E-05 -1.699931
v -5 7.629395E-05 -1.019989
v -5 7.629395E-05 -1.699931
vn 0 1 0
vn 0 1 0
vn 0 1 0
vn 0 1 0
vn 0 1 0
vn 0 1 0
vn 0 1 0
vn 0 1 0
vn 0 1 0
vn 0 1 0
vn 0 1 0
vn 0 1 0
vn 0 1 0
vn 0 1 0
vn 0 1 0
vn 0 1 0
vn 0 1 0
vn 0 1 0
vn 0 1 0
vn 0 1 0
vn 0 1 0
vn 0 1 0
vn 0 1 0
vn 0 1 0
vn 0 1 0
vn 0 1 0
vn 0 1 0
vn 0 1 0
vn 0 1 0
vn 0 1 0
vn 0 1 0
vn 0 1 0
vn 0 1 0
vn 0 1 0
vn 0 1 0
vn 0 1 0
vn 0 1 0
vn 0 1 0
vn 0 1 0
vn 0 1 0
vn 0 1 0
vn 0 1 0
vn 0 1 0
vn 0 1 0
vn 0 1 0
vn 0 1 0
vn 0 1 0
vn 0 1 0
vn 0 1 0
vn 0 1 0
vn 0 1 0
vn 0 1 0
vn 0 1 0
vn 0 1 0
vn 0 1 0
vn 0 1 0
vn 0 1 0
vn 0 1 0
vn 0 1 0
vn 0 1 0
vn 0 1 0
vn 0 1 0
vn 0 1 0
vn 0 1 0
vn 0 1 0
vn 0 1 0
vn 0 1 0
vn 0 1 0
vn 0 1 0
vn 0 1 0
vn 0 1 0
vn 0 1 0
vn 0 1 0
vn 0 1 0
vn 0 1 0
vn 0 1 0
vn 0 1 0
vn 0 1 0
vn 0 1 0
vn 0 1 0
vn 0 1 0
vn 0 1 0
vn 0 1 0
vn 0 1 0
vn 0 1 0
vn 0 1 0
vn 0 1 0
vn 0 1 0
vn 0 1 0
vn 0 1 0
vn 0 1 0
vn 0 1 0
vn 0 1 0
vn 0 1 0
vn 0 1 0
vn 0 1 0
vn 0 1 0
vn 0 1 0
vn 0 1 0
vn 0 1 0
vn 0 1 0
vn 0 1 0
vn 0 1 0
vn 0 1 0
vn 0 1 0
vn 0 1 0
vn 0 1 0
vn 0 1 0
vn 0 1 0
vn 0 1 0
vn 0 1 0
vn 0 1 0
vn 0 1 0
vn 0 1 0
vn 0 1 0
vn 0 1 0
vn 0 1 0
vn 0 1 0
vn 0 1 0
vn 0 1 0
vn 0 1 0
vn 0 1 0
vn 0 1 0
vn 0 1 0
vn 0 1 0
vn 0 1 0
vn 0 1 0
vn 0 1 0
vn 0 1 0
vn 0 1 0
vn 0 1 0
vn 0 1 0
vn 0 1 0
vn 0 1 0
vn 0 1 0
vn 0 1 0
vn 0 1 0
vn 0 1 0
vn 0 1 0
vn 0 1 0
vn 0 1 0
vn 0 1 0
vn 0 1 0
vn 0 1 0
vn 0 1 0
vn 0 1 0
vn 0 1 0
vn 0 1 0
vn 0 1 0
vn 0 1 0
vn 0 1 0
vn 0 1 0
vn 0 1 0
vn 0 1 0
vn 0 1 0
vn 0 1 0
vn 0 1 0
vn 0 1 0
vn 0 1 0
vn 0 1 0
vn 0 1 0
vn 0 1 0
vn 0 1 0
vn 0 1 0
vn 0 1 0
vn 0 1 0
vn 0 1 0
vn 0 1 0
vn 0 1 0
vn 0 1 0
vn 0 1 0
vn 0 1 0
vn 0 1 0
vn 0 1 0
vn 0 1 0
vn 0 1 0
vn 0 1 0
vn 0 1 0
vn 0 1 0
vn 0 1 0
vn 0 1 0
vn 0 1 0
vn 0 1 0
vn 0 1 0
vn 0 1 0
vn 0 1 0
vn 0 1 0
vn 0 1 0
vn 0 1 0
vn 0 1 0
vn 0 1 0
vn 0 1 0
vn 0 1 0
vn 0 1 0
vn 0 1 0
vn 0 1 0
vn 0 1 0
vn 0 1 0
vn 0 1 0
vn 0 1 0
vn 0 1 0
vn 0 1 0
vn 0 1 0
vn 0 1 0
vn 0 1 0
vn 0 1 0
vn 0 1 0
vn 0 1 0
vn 0 1 0
vn 0 1 0
vn 0 1 0
vn 0 1 0
vn 0 1 0
vn 0 1 0
vn 0 1 0
vn 0 1 0
vn 0 1 0
vn 0 1 0
vn 0 1 0
vn 0 1 0
vn 0 1 0
vn 0 1 0
vn 0 1 0
vn 0 1 0
vn 0 1 0
vn 0 1 0
vn 0 1 0
vn 0 1 0
vn 0 1 0
vn 0 1 0
vn 0 1 0
g redCarpet_v2_0
f 3/3/3 2/2/2 1/1/1
f 2/2/2 4/4/4 1/1/1
f 1/1/1 4/4/4 5/5/5
f 4/4/4 6/6/6 5/5/5
f 5/5/5 6/6/6 7/7/7
f 6/6/6 8/8/8 7/7/7
f 7/7/7 8/8/8 9/9/9
f 8/8/8 10/10/10 9/9/9
f 9/9/9 10/10/10 11/11/11
f 10/10/10 12/12/12 11/11/11
f 11/11/11 12/12/12 13/13/13
f 12/12/12 14/14/14 13/13/13
f 13/13/13 14/14/14 15/15/15
f 14/14/14 16/16/16 15/15/15
f 15/15/15 16/16/16 17/17/17
f 16/16/16 18/18/18 17/17/17
f 17/17/17 18/18/18 19/19/19
f 18/18/18 20/20/20 19/19/19
f 19/19/19 20/20/20 21/21/21
f 20/20/20 22/22/22 21/21/21
f 21/21/21 22/22/22 23/23/23
f 22/22/22 24/24/24 23/23/23
f 23/23/23 24/24/24 25/25/25
f 24/24/24 26/26/26 25/25/25
f 25/25/25 26/26/26 27/27/27
f 26/26/26 28/28/28 27/27/27
f 27/27/27 28/28/28 29/29/29
f 28/28/28 30/30/30 29/29/29
f 29/29/29 30/30/30 31/31/31
f 30/30/30 32/32/32 31/31/31
f 31/31/31 32/32/32 33/33/33
f 32/32/32 34/34/34 33/33/33
f 33/33/33 34/34/34 35/35/35
f 34/34/34 36/36/36 35/35/35
f 35/35/35 36/36/36 37/37/37
f 36/36/36 38/38/38 37/37/37
f 37/37/37 38/38/38 39/39/39
f 38/38/38 40/40/40 39/39/39
f 39/39/39 40/40/40 41/41/41
f 40/40/40 42/42/42 41/41/41
f 45/45/45 44/44/44 43/43/43
f 44/44/44 46/46/46 43/43/43
f 44/44/44 47/47/47 46/46/46
f 43/43/43 46/46/46 48/48/48
f 47/47/47 49/49/49 46/46/46
f 46/46/46 50/50/50 48/48/48
f 46/46/46 49/49/49 50/50/50
f 48/48/48 50/50/50 51/51/51
f 49/49/49 52/52/52 50/50/50
f 50/50/50 53/53/53 51/51/51
f 50/50/50 52/52/52 53/53/53
f 51/51/51 53/53/53 54/54/54
f 52/52/52 55/55/55 53/53/53
f 53/53/53 56/56/56 54/54/54
f 53/53/53 55/55/55 56/56/56
f 54/54/54 56/56/56 57/57/57
f 55/55/55 58/58/58 56/56/56
f 56/56/56 59/59/59 57/57/57
f 56/56/56 58/58/58 59/59/59
f 57/57/57 59/59/59 60/60/60
f 58/58/58 61/61/61 59/59/59
f 59/59/59 62/62/62 60/60/60
f 59/59/59 61/61/61 62/62/62
f 60/60/60 62/62/62 63/63/63
f 61/61/61 64/64/64 62/62/62
f 62/62/62 65/65/65 63/63/63
f 62/62/62 64/64/64 65/65/65
f 63/63/63 65/65/65 66/66/66
f 64/64/64 67/67/67 65/65/65
f 65/65/65 68/68/68 66/66/66
f 65/65/65 67/67/67 68/68/68
f 66/66/66 68/68/68 69/69/69
f 67/67/67 70/70/70 68/68/68
f 68/68/68 71/71/71 69/69/69
f 68/68/68 70/70/70 71/71/71
f 69/69/69 71/71/71 72/72/72
f 70/70/70 73/73/73 71/71/71
f 71/71/71 74/74/74 72/72/72
f 71/71/71 73/73/73 74/74/74
f 72/72/72 74/74/74 75/75/75
f 73/73/73 76/76/76 74/74/74
f 74/74/74 77/77/77 75/75/75
f 74/74/74 76/76/76 77/77/77
f 75/75/75 77/77/77 78/78/78
f 76/76/76 79/79/79 77/77/77
f 77/77/77 80/80/80 78/78/78
f 77/77/77 79/79/79 80/80/80
f 78/78/78 80/80/80 81/81/81
f 79/79/79 82/82/82 80/80/80
f 80/80/80 83/83/83 81/81/81
f 80/80/80 82/82/82 83/83/83
f 81/81/81 83/83/83 84/84/84
f 82/82/82 85/85/85 83/83/83
f 83/83/83 86/86/86 84/84/84
f 83/83/83 85/85/85 86/86/86
f 84/84/84 86/86/86 87/87/87
f 85/85/85 88/88/88 86/86/86
f 86/86/86 89/89/89 87/87/87
f 86/86/86 88/88/88 89/89/89
f 87/87/87 89/89/89 90/90/90
f 88/88/88 91/91/91 89/89/89
f 89/89/89 92/92/92 90/90/90
f 89/89/89 91/91/91 92/92/92
f 90/90/90 92/92/92 93/93/93
f 91/91/91 94/94/94 92/92/92
f 92/92/92 95/95/95 93/93/93
f 92/92/92 94/94/94 95/95/95
f 93/93/93 95/95/95 96/96/96
f 94/94/94 97/97/97 95/95/95
f 95/95/95 98/98/98 96/96/96
f 95/95/95 97/97/97 98/98/98
f 96/96/96 98/98/98 99/99/99
f 97/97/97 100/100/100 98/98/98
f 98/98/98 101/101/101 99/99/99
f 98/98/98 100/100/100 101/101/101
f 99/99/99 101/101/101 102/102/102
f 100/100/100 103/103/103 101/101/101
f 101/101/101 104/104/104 102/102/102
f 101/101/101 103/103/103 104/104/104
f 103/103/103 105/105/105 104/104/104
f 108/108/108 107/107/107 106/106/106
f 109/109/109 108/108/108 106/106/106
f 109/109/109 106/106/106 110/110/110
f 111/111/111 108/108/108 109/109/109
f 112/112/112 109/109/109 110/110/110
f 112/112/112 110/110/110 113/113/113
f 114/114/114 111/111/111 109/109/109
f 114/114/114 109/109/109 112/112/112
f 115/115/115 111/111/111 114/114/114
f 116/116/116 112/112/112 113/113/113
f 116/116/116 113/113/113 117/117/117
f 118/118/118 115/115/115 114/114/114
f 119/119/119 115/115/115 118/118/118
f 120/120/120 114/114/114 112/112/112
f 120/120/120 112/112/112 116/116/116
f 118/118/118 114/114/114 120/120/120
f 121/121/121 116/116/116 117/117/117
f 121/121/121 117/117/117 122/122/122
f 123/123/123 121/121/121 122/122/122
f 124/124/124 119/119/119 118/118/118
f 125/125/125 119/119/119 124/124/124
f 126/126/126 118/118/118 120/120/120
f 124/124/124 118/118/118 126/126/126
f 127/127/127 120/120/120 116/116/116
f 127/127/127 116/116/116 121/121/121
f 126/126/126 120/120/120 127/127/127
f 128/128/128 121/121/121 123/123/123
f 128/128/128 127/127/127 121/121/121
f 129/129/129 128/128/128 123/123/123
f 130/130/130 125/125/125 124/124/124
f 131/131/131 125/125/125 130/130/130
f 132/132/132 126/126/126 127/127/127
f 132/132/132 127/127/127 128/128/128
f 133/133/133 128/128/128 129/129/129
f 133/133/133 132/132/132 128/128/128
f 134/134/134 133/133/133 129/129/129
f 135/135/135 124/124/124 126/126/126
f 135/135/135 126/126/126 132/132/132
f 130/130/130 124/124/124 135/135/135
f 136/136/136 131/131/131 130/130/130
f 137/137/137 131/131/131 136/136/136
f 138/138/138 133/133/133 134/134/134
f 139/139/139 138/138/138 134/134/134
f 140/140/140 132/132/132 133/133/133
f 140/140/140 135/135/135 132/132/132
f 138/138/138 140/140/140 133/133/133
f 141/141/141 130/130/130 135/135/135
f 141/141/141 135/135/135 140/140/140
f 136/136/136 130/130/130 141/141/141
f 142/142/142 137/137/137 136/136/136
f 143/143/143 137/137/137 142/142/142
f 144/144/144 138/138/138 139/139/139
f 145/145/145 144/144/144 139/139/139
f 146/146/146 140/140/140 138/138/138
f 146/146/146 141/141/141 140/140/140
f 144/144/144 146/146/146 138/138/138
f 147/147/147 136/136/136 141/141/141
f 147/147/147 141/141/141 146/146/146
f 142/142/142 136/136/136 147/147/147
f 148/148/148 143/143/143 142/142/142
f 149/149/149 143/143/143 148/148/148
f 150/150/150 144/144/144 145/145/145
f 151/151/151 150/150/150 145/145/145
f 152/152/152 146/146/146 144/144/144
f 152/152/152 147/147/147 146/146/146
f 150/150/150 152/152/152 144/144/144
f 153/153/153 142/142/142 147/147/147
f 153/153/153 147/147/147 152/152/152
f 148/148/148 142/142/142 153/153/153
f 154/154/154 149/149/149 148/148/148
f 155/155/155 149/149/149 154/154/154
f 156/156/156 150/150/150 151/151/151
f 157/157/157 156/156/156 151/151/151
f 158/158/158 152/152/152 150/150/150
f 158/158/158 153/153/153 152/152/152
f 156/156/156 158/158/158 150/150/150
f 159/159/159 148/148/148 153/153/153
f 159/159/159 153/153/153 158/158/158
f 154/154/154 148/148/148 159/159/159
f 160/160/160 155/155/155 154/154/154
f 161/161/161 155/155/155 160/160/160
f 162/162/162 156/156/156 157/157/157
f 163/163/163 162/162/162 157/157/157
f 164/164/164 158/158/158 156/156/156
f 164/164/164 159/159/159 158/158/158
f 162/162/162 164/164/164 156/156/156
f 165/165/165 154/154/154 159/159/159
f 165/165/165 159/159/159 164/164/164
f 160/160/160 154/154/154 165/165/165
f 166/166/166 161/161/161 160/160/160
f 167/167/167 161/161/161 166/166/166
f 168/168/168 162/162/162 163/163/163
f 169/169/169 168/168/168 163/163/163
f 170/170/170 164/164/164 162/162/162
f 170/170/170 165/165/165 164/164/164
f 168/168/168 170/170/170 162/162/162
f 171/171/171 160/160/160 165/165/165
f 171/171/171 165/165/165 170/170/170
f 166/166/166 160/160/160 171/171/171
f 172/172/172 167/167/167 166/166/166
f 173/173/173 167/167/167 172/172/172
f 174/174/174 168/168/168 169/169/169
f 175/175/175 174/174/174 169/169/169
f 176/176/176 170/170/170 168/168/168
f 176/176/176 171/171/171 170/170/170
f 174/174/174 176/176/176 168/168/168
f 177/177/177 166/166/166 171/171/171
f 177/177/177 171/171/171 176/176/176
f 172/172/172 166/166/166 177/177/177
f 178/178/178 173/173/173 172/172/172
f 179/179/179 173/173/173 178/178/178
f 180/180/180 174/174/174 175/175/175
f 181/181/181 180/180/180 175/175/175
f 182/182/182 176/176/176 174/174/174
f 182/182/182 177/177/177 176/176/176
f 180/180/180 182/182/182 174/174/174
f 183/183/183 172/172/172 177/177/177
f 183/183/183 177/177/177 182/182/182
f 178/178/178 172/172/172 183/183/183
f 184/184/184 179/179/179 178/178/178
f 185/185/185 179/179/179 184/184/184
f 186/186/186 180/180/180 181/181/181
f 187/187/187 186/186/186 181/181/181
f 188/188/188 182/182/182 180/180/180
f 188/188/188 183/183/183 182/182/182
f 186/186/186 188/188/188 180/180/180
f 189/189/189 178/178/178 183/183/183
f 189/189/189 183/183/183 188/188/188
f 184/184/184 178/178/178 189/189/189
f 190/190/190 185/185/185 184/184/184
f 191/191/191 185/185/185 190/190/190
f 192/192/192 186/186/186 187/187/187
f 193/193/193 192/192/192 187/187/187
f 194/194/194 188/188/188 186/186/186
f 194/194/194 189/189/189 188/188/188
f 192/192/192 194/194/194 186/186/186
f 195/195/195 184/184/184 189/189/189
f 195/195/195 189/189/189 194/194/194
f 190/190/190 184/184/184 195/195/195
f 196/196/196 191/191/191 190/190/190
f 197/197/197 191/191/191 196/196/196
f 198/198/198 192/192/192 193/193/193
f 199/199/199 198/198/198 193/193/193
f 200/200/200 194/194/194 192/192/192
f 200/200/200 195/195/195 194/194/194
f 198/198/198 200/200/200 192/192/192
f 201/201/201 190/190/190 195/195/195
f 201/201/201 195/195/195 200/200/200
f 196/196/196 190/190/190 201/201/201
f 202/202/202 197/197/197 196/196/196
f 203/203/203 197/197/197 202/202/202
f 204/204/204 198/198/198 199/199/199
f 205/205/205 204/204/204 199/199/199
f 206/206/206 200/200/200 198/198/198
f 206/206/206 201/201/201 200/200/200
f 204/204/204 206/206/206 198/198/198
f 207/207/207 196/196/196 201/201/201
f 207/207/207 201/201/201 206/206/206
f 202/202/202 196/196/196 207/207/207
f 208/208/208 203/203/203 202/202/202
f 209/209/209 203/203/203 208/208/208
f 210/210/210 204/204/204 205/205/205
f 211/211/211 210/210/210 205/205/205
f 212/212/212 206/206/206 204/204/204
f 212/212/212 207/207/207 206/206/206
f 210/210/210 212/212/212 204/204/204
f 213/213/213 202/202/202 207/207/207
f 213/213/213 207/207/207 212/212/212
f 208/208/208 202/202/202 213/213/213
f 214/214/214 209/209/209 208/208/208
f 215/215/215 209/209/209 214/214/214
f 216/216/216 215/215/215 214/214/214
f 217/217/217 210/210/210 211/211/211
f 218/218/218 217/217/217 211/211/211
f 219/219/219 212/212/212 210/210/210
f 219/219/219 213/213/213 212/212/212
f 217/217/217 219/219/219 210/210/210
f 220/220/220 208/208/208 213/213/213
f 214/214/214 208/208/208 220/220/220
f 220/220/220 213/213/213 219/219/219
f 216/216/216 214/214/214 221/221/221
f 221/221/221 214/214/214 220/220/220
f 222/222/222 216/216/216 221/221/221
f 223/223/223 220/220/220 219/219/219
f 223/223/223 219/219/219 217/217/217
f 221/221/221 220/220/220 223/223/223
f 224/224/224 217/217/217 218/218/218
f 224/224/224 223/223/223 217/217/217
f 225/225/225 224/224/224 218/218/218
f 222/222/222 221/221/221 226/226/226
f 226/226/226 221/221/221 223/223/223
f 226/226/226 223/223/223 224/224/224
f 227/227/227 222/222/222 226/226/226
f 228/228/228 224/224/224 225/225/225
f 228/228/228 226/226/226 224/224/224
f 227/227/227 226/226/226 228/228/228
f 229/229/229 228/228/228 225/225/225
f 230/230/230 227/227/227 228/228/228
f 230/230/230 228/228/228 229/229/229
f 231/231/231 230/230/230 229/229/229
