g SackLeaningLow(Clone)
v -0.6559725 0.561805 0.2670816
v -0.6575866 0.3082626 -0.06605589
v -0.5844014 0.8685644 0.04540497
v -0.7347376 1.601107 0.5578851
v -0.6136847 1.382982 0.2380751
v -0.6168666 1.922531 0.4703121
v -0.7951488 0.2989011 0.1724529
v -0.6392327 0.0903675 -0.06790048
v -0.4200001 0.3871661 -0.2227559
v -0.7993452 0.05195338 0.1419244
v -0.7504168 2.049349 0.6794453
v -0.5775765 2.080615 0.5451112
v -0.5703824 2.147897 0.7206724
v -0.7818676 2.189908 0.7197962
v -0.4863141 2.07545 0.5448344
v -0.09493291 1.381644 -0.04931599
v -0.3898407 1.431126 0.06717145
v 0.1391487 1.49269 0.03295386
v 0.6071737 2.088916 0.5703363
v 0.3932444 1.509845 0.1175295
v 0.6442043 1.724005 0.4026608
v 0.148049 1.066999 -0.1594856
v 0.764796 2.039434 0.7054543
v 0.7433985 1.389576 0.5017627
v 0.4173167 0.8514556 -0.1593934
v 0.5960138 0.9064252 0.0577178
v 0.6617743 0.7886004 0.3455699
v 0.6715046 0.3432642 -0.03783327
v 0.6978365 0.433512 0.2218885
v 0.8223019 0.3102456 0.1914523
v -0.3902096 0.8136871 -0.180007
v -0.1404949 0.6364196 -0.2629685
v 0.1530756 0.5695524 -0.2627841
v 0.4430029 0.3301675 -0.182036
v 0.1107878 0.3243569 -0.2168531
v 0.6651407 0.08939904 -0.05600274
v 0.8322628 0.003163278 0.1772489
v 0.3874339 0.1065078 -0.08122784
v -0.08312738 0.1532689 -0.0859316
v 0.03151548 0.02396137 0.134546
v 0.8322628 0.003163278 0.1772489
v -0.388319 0.004592896 0.1254151
v 0.5787666 0.7334464 0.6345289
v 0.6321682 1.487848 0.7765643
v 0.7433985 1.389576 0.5017627
v 0.764796 2.039434 0.7054543
v 0.6125692 1.808073 0.8222646
v 0.5997952 1.994102 0.8414025
v 0.3995161 1.351485 0.8972482
v 0.6617743 0.7886004 0.3455699
v 0.6363647 0.3039739 0.3708873
v 0.6978365 0.433512 0.2218885
v 0.8223019 0.3102456 0.1914523
v 0.6253431 0.02479142 0.3389294
v 0.8322628 0.003163278 0.1772489
v 0.4827083 2.000328 0.8481814
v 0.1450976 1.333961 0.9459922
v -0.2921222 1.380999 0.9346016
v -0.150548 0.9580283 0.9180462
v -0.3942217 0.7593171 0.8337473
v -0.1382813 1.998529 0.8592491
v -0.3401745 1.674984 0.8816612
v -0.6023404 2.010012 0.8253081
v -0.6401089 1.574637 0.76688
v -0.5893359 0.617374 0.5651714
v -0.7504168 2.049349 0.6794453
v -0.7347376 1.601107 0.5578851
v -0.6559725 0.561805 0.2670816
v -0.4124373 0.3019909 0.6625671
v -0.6060757 0.331597 0.4550939
v -0.7951488 0.2989011 0.1724529
v 0.1390104 0.6626592 0.9009835
v 0.3805627 0.7282814 0.838405
v -0.1414172 0.485069 0.8511789
v 0.3947663 0.2991779 0.6456888
v 0.1282194 0.2590114 0.7223325
v -0.149349 0.2567517 0.7456208
v -0.1495796 0.04051673 0.3842607
v -0.6487325 0.03447562 0.3639238
v 0.08980531 0.1690864 0.5295703
v -0.7993452 0.05195338 0.1419244
v -0.388319 0.004592896 0.1254151
v 0.03151548 0.02396137 0.134546
v 0.3403962 0.03489071 0.3465845
v -0.7993452 0.05195338 0.1419244
v 0.3537236 2.142271 0.7281432
v 0.1250374 2.127745 0.7225631
v -0.1027264 2.128529 0.7258373
v 0.5892348 2.143516 0.7263907
v 0.7861474 2.173722 0.7577953
v -0.3382376 2.13872 0.726068
v 0.5890504 2.143378 0.727267
v 0.7861474 2.173722 0.7577953
v 0.3538619 2.141994 0.729296
v 0.1249913 2.127514 0.7239005
v -0.1024958 2.128344 0.7271286
v -0.3384221 2.13849 0.727313
v -0.5704286 2.14762 0.7215025
v -0.7818676 2.189908 0.7197962
vt 0.3437932 0.130879
vt 0.2941531 0.07226786
vt 0.2941531 0.1763326
vt 0.3437932 0.3437932
vt 0.2941531 0.2803974
vt 0.3037222 0.3772853
vt 0.3437932 0.07166979
vt 0.293555 0.02442199
vt 0.2469053 0.08422932
vt 0.3402047 0.02262774
vt 0.3437932 0.4341022
vt 0.2941531 0.4275234
vt 0.2941531 0.464604
vt 0.3437932 0.464604
vt 0.2379341 0.424533
vt 0.1978633 0.2588668
vt 0.2469053 0.2762109
vt 0.1494193 0.2839858
vt 0.05791408 0.4275234
vt 0.1039657 0.293555
vt 0.05611986 0.3521662
vt 0.1494193 0.1978633
vt 0.007675916 0.4347003
vt 0.007675916 0.3013299
vt 0.1039657 0.1637731
vt 0.05611986 0.1835095
vt 0.007675916 0.1763326
vt 0.05611986 0.07944474
vt 0.007675916 0.1045638
vt 0.007675916 0.07166979
vt 0.2469053 0.1565962
vt 0.1978633 0.1237021
vt 0.1494193 0.1135349
vt 0.1039657 0.07705244
vt 0.1554001 0.07166979
vt 0.05611986 0.02442199
vt 0.007675916 0.02442199
vt 0.1039657 0.02442199
vt 0.1894902 0.02442199
vt 0.1679596 0.005283624
vt 0.01305857 0.005283624
vt 0.2469053 0.005283624
vt 0.2911627 0.1799211
vt 0.2911627 0.3270471
vt 0.3408028 0.3001338
vt 0.3408028 0.4329061
vt 0.293555 0.3892467
vt 0.2911627 0.4251311
vt 0.2439149 0.3031242
vt 0.3408028 0.1733423
vt 0.2905646 0.06867939
vt 0.3408028 0.1027696
vt 0.3408028 0.06987554
vt 0.2911627 0.02202967
vt 0.334822 0.02023545
vt 0.2768089 0.4299157
vt 0.1966671 0.3001338
vt 0.1231041 0.3031242
vt 0.1518116 0.228963
vt 0.1039657 0.1906864
vt 0.1278886 0.4173562
vt 0.1039657 0.3635296
vt 0.05552179 0.4269253
vt 0.05552179 0.341999
vt 0.05552179 0.1542039
vt 0.00647977 0.432308
vt 0.00647977 0.341999
vt 0.00647977 0.1296829
vt 0.1039657 0.1027696
vt 0.05611986 0.09320042
vt 0.00647977 0.06987554
vt 0.1966671 0.1781268
vt 0.2439149 0.1864999
vt 0.1518116 0.147027
vt 0.2439149 0.1039657
vt 0.1966671 0.1027696
vt 0.1518116 0.1027696
vt 0.1494193 0.02502006
vt 0.05552179 0.02202967
vt 0.1966671 0.06987554
vt 0.01006821 0.002891332
vt 0.1039657 0.002891332
vt 0.1799211 0.002891332
vt 0.2409246 0.02202967
vt 0.00647977 0.02202967
vt 0.1039657 0.464604
vt 0.1494193 0.464604
vt 0.1978633 0.464604
vt 0.05611986 0.464604
vt 0.007675916 0.464604
vt 0.2469053 0.464604
vt 0.2911627 0.4628098
vt 0.3408028 0.4628098
vt 0.2439149 0.4628098
vt 0.1966671 0.4628098
vt 0.1518116 0.4628098
vt 0.1039657 0.4628098
vt 0.05552179 0.4628098
vt 0.00647977 0.4628098
vn -0.9915915 0.1294075 0
vn -0.7647115 0.1294792 -0.6312301
vn -0.8352928 0.1608486 -0.5257505
vn -0.9999827 0.004001141 0.004308314
vn -0.8117657 0.1843758 -0.5541137
vn -0.5529673 0.3882775 -0.7372026
vn -0.9764556 0.2079029 0.05754058
vn -0.4353317 -0.5763345 -0.6916103
vn -0.3176961 -0.1371616 -0.9382195
vn -0.8116739 -0.5841109 0
vn -0.8666624 0.4902284 0.09258725
vn -0.1922182 0.6706029 -0.7164802
vn -0.0902673 0.8352928 -0.5423446
vn -0.5059131 0.8352928 0.2152623
vn -0.01184356 0.7882385 -0.6152559
vn -0.08242488 0.4588588 -0.8846778
vn -0.4274894 0.4118047 -0.8047793
vn 0.1293192 0.5294403 -0.8384328
vn 0.3645904 0.6706029 -0.6460384
vn 0.4273294 0.4118047 -0.8048642
vn 0.7096549 0.2863266 -0.6437445
vn 0.1293192 0.3098538 -0.9419486
vn 0.8821871 0.4353317 0.1795331
vn 0.9998227 -0.01168358 -0.01476356
vn 0.4586989 0.2235876 -0.8600023
vn 0.8429753 0.1765333 -0.5081621
vn 0.9993804 -0.03519515 0
vn 0.7253397 0.0981096 -0.681364
vn 0.9449261 0.3020114 0.1261101
vn 0.9370837 0.3176961 0.1447179
vn -0.419647 0.2392724 -0.8755828
vn -0.08242488 0.08242488 -0.9931829
vn 0.09794968 0.01184356 -0.9951209
vn 0.2861667 -0.1763734 -0.9418073
vn 0.01952595 -0.356748 -0.9339966
vn 0.4351718 -0.5292803 -0.728346
vn 0.7723939 -0.6312312 0.07039087
vn 0.06658018 -0.7096549 -0.7013964
vn 0.003841221 -0.7018125 -0.7123513
vn -0.004001141 -0.9762956 -0.2164045
vn 0.7723939 -0.6312312 0.07039087
vn 0.003841221 -0.9762956 -0.2164074
vn 0.8194481 -0.1842158 0.5427424
vn 0.7253397 -0.1293192 0.6761353
vn 0.9998227 -0.01168358 -0.01476356
vn 0.8821871 0.4353317 0.1795331
vn 0.5528075 -0.05873781 0.8312362
vn 0.2704819 0.1765333 0.9464014
vn 0.3802752 -0.06658018 0.9224738
vn 0.9993804 -0.03519515 0
vn 0.6782854 -0.1763734 0.7133172
vn 0.9449261 0.3020114 0.1261101
vn 0.9370837 0.3176961 0.1447179
vn 0.2469548 -0.6469159 0.7214659
vn 0.7723939 -0.6312312 0.07039087
vn 0.05089545 0.3647504 0.9297132
vn 0.09010732 0.01184356 0.9958616
vn -0.2314301 0.01968586 0.9726523
vn -0.1216367 -0.09794968 0.9877299
vn -0.5059131 -0.1842158 0.8426841
vn -0.01184356 0.4274894 0.9039428
vn -0.2235876 0.0902673 0.9704949
vn -0.3961198 0.2000605 0.8961388
vn -0.6941301 -0.09010732 0.7141877
vn -0.8745047 -0.145004 0.4628341
vn -0.8666624 0.4902284 0.09258725
vn -0.9999827 0.004001141 0.004308314
vn -0.9915915 0.1294075 0
vn -0.5294403 -0.5528075 0.6435036
vn -0.7333419 -0.2234277 0.6420978
vn -0.9764556 0.2079029 0.05754058
vn 0.145004 -0.2312701 0.9620228
vn 0.4743837 -0.2155853 0.8535122
vn -0.1530063 -0.3175362 0.9358204
vn 0.4665413 -0.6390735 0.6114935
vn 0.2155853 -0.6939701 0.6869705
vn -0.1530063 -0.6626006 0.7331777
vn -0.05889773 -0.9292414 0.3647486
vn -0.4118047 -0.6626006 0.6256015
vn 0.1606887 -0.8351329 0.5260534
vn -0.8116739 -0.5841109 0
vn 0.003841221 -0.9762956 -0.2164074
vn -0.004001141 -0.9762956 -0.2164045
vn 0.1057921 -0.8351329 0.5397788
vn -0.8116739 -0.5841109 0
vn -0.04321301 0.921559 -0.385826
vn -0.01184356 0.9607708 -0.2770905
vn 0.003841221 0.9607708 -0.2773168
vn 0.1685311 0.8509775 -0.4974279
vn 0.5135955 0.8039234 0.299878
vn 0.04305309 0.9294013 -0.366551
vn 0.1371616 0.4353317 0.8897601
vn 0.5135955 0.8039234 0.299878
vn -0.02752829 0.6157063 0.7874947
vn 0.003841221 0.7019725 0.7121937
vn 0.01952595 0.7098148 0.7041177
vn -0.01184356 0.6549182 0.755607
vn -0.1765333 0.4510165 0.8748829
vn -0.5059131 0.8352928 0.2152623
g SackLeaningLow(Clone)_0
f 3/3/3 2/2/2 1/1/1
f 3/3/3 1/1/1 4/4/4
f 5/5/5 3/3/3 4/4/4
f 4/4/4 6/6/6 5/5/5
f 7/7/7 1/1/1 2/2/2
f 2/2/2 8/8/8 7/7/7
f 2/2/2 9/9/9 8/8/8
f 9/9/9 2/2/2 3/3/3
f 8/8/8 10/10/10 7/7/7
f 4/4/4 11/11/11 6/6/6
f 11/11/11 12/12/12 6/6/6
f 12/12/12 11/11/11 13/13/13
f 11/11/11 14/14/14 13/13/13
f 6/6/6 12/12/12 15/15/15
f 15/15/15 12/12/12 13/13/13
f 15/15/15 16/16/16 6/6/6
f 16/16/16 17/17/17 6/6/6
f 5/5/5 6/6/6 17/17/17
f 16/16/16 15/15/15 18/18/18
f 19/19/19 18/18/18 15/15/15
f 18/18/18 19/19/19 20/20/20
f 19/19/19 21/21/21 20/20/20
f 16/16/16 18/18/18 22/22/22
f 22/22/22 18/18/18 20/20/20
f 21/21/21 19/19/19 23/23/23
f 24/24/24 21/21/21 23/23/23
f 25/25/25 20/20/20 21/21/21
f 25/25/25 22/22/22 20/20/20
f 26/26/26 25/25/25 21/21/21
f 21/21/21 24/24/24 26/26/26
f 24/24/24 27/27/27 26/26/26
f 26/26/26 28/28/28 25/25/25
f 28/28/28 26/26/26 27/27/27
f 28/28/28 27/27/27 29/29/29
f 29/29/29 30/30/30 28/28/28
f 31/31/31 17/17/17 16/16/16
f 31/31/31 16/16/16 32/32/32
f 32/32/32 16/16/16 22/22/22
f 33/33/33 32/32/32 22/22/22
f 22/22/22 25/25/25 33/33/33
f 25/25/25 34/34/34 33/33/33
f 25/25/25 28/28/28 34/34/34
f 9/9/9 31/31/31 32/32/32
f 9/9/9 32/32/32 35/35/35
f 33/33/33 34/34/34 35/35/35
f 32/32/32 33/33/33 35/35/35
f 31/31/31 9/9/9 3/3/3
f 31/31/31 3/3/3 5/5/5
f 17/17/17 31/31/31 5/5/5
f 36/36/36 28/28/28 30/30/30
f 37/37/37 36/36/36 30/30/30
f 38/38/38 34/34/34 28/28/28
f 36/36/36 38/38/38 28/28/28
f 39/39/39 35/35/35 34/34/34
f 38/38/38 39/39/39 34/34/34
f 39/39/39 38/38/38 40/40/40
f 8/8/8 9/9/9 35/35/35
f 39/39/39 8/8/8 35/35/35
f 41/41/41 40/40/40 38/38/38
f 36/36/36 41/41/41 38/38/38
f 42/42/42 8/8/8 39/39/39
f 40/40/40 42/42/42 39/39/39
f 10/10/10 8/8/8 42/42/42
f 45/45/45 44/44/44 43/43/43
f 44/44/44 45/45/45 46/46/46
f 47/47/47 44/44/44 46/46/46
f 46/46/46 48/48/48 47/47/47
f 44/44/44 47/47/47 49/49/49
f 45/45/45 43/43/43 50/50/50
f 43/43/43 51/51/51 50/50/50
f 51/51/51 52/52/52 50/50/50
f 53/53/53 52/52/52 51/51/51
f 51/51/51 54/54/54 53/53/53
f 54/54/54 55/55/55 53/53/53
f 47/47/47 48/48/48 56/56/56
f 57/57/57 49/49/49 47/47/47
f 56/56/56 57/57/57 47/47/47
f 58/58/58 57/57/57 56/56/56
f 57/57/57 58/58/58 59/59/59
f 58/58/58 60/60/60 59/59/59
f 61/61/61 58/58/58 56/56/56
f 61/61/61 62/62/62 58/58/58
f 61/61/61 63/63/63 62/62/62
f 63/63/63 64/64/64 62/62/62
f 62/62/62 64/64/64 58/58/58
f 58/58/58 64/64/64 60/60/60
f 60/60/60 64/64/64 65/65/65
f 64/64/64 63/63/63 66/66/66
f 67/67/67 64/64/64 66/66/66
f 67/67/67 68/68/68 64/64/64
f 64/64/64 68/68/68 65/65/65
f 69/69/69 60/60/60 65/65/65
f 70/70/70 69/69/69 65/65/65
f 65/65/65 68/68/68 70/70/70
f 68/68/68 71/71/71 70/70/70
f 57/57/57 59/59/59 72/72/72
f 57/57/57 72/72/72 73/73/73
f 59/59/59 74/74/74 72/72/72
f 73/73/73 49/49/49 57/57/57
f 49/49/49 73/73/73 44/44/44
f 73/73/73 43/43/43 44/44/44
f 43/43/43 73/73/73 75/75/75
f 75/75/75 73/73/73 72/72/72
f 75/75/75 72/72/72 76/76/76
f 76/76/76 72/72/72 74/74/74
f 74/74/74 59/59/59 60/60/60
f 77/77/77 74/74/74 60/60/60
f 69/69/69 77/77/77 60/60/60
f 77/77/77 76/76/76 74/74/74
f 69/69/69 70/70/70 77/77/77
f 70/70/70 78/78/78 77/77/77
f 77/77/77 78/78/78 76/76/76
f 70/70/70 79/79/79 78/78/78
f 79/79/79 70/70/70 71/71/71
f 51/51/51 43/43/43 75/75/75
f 78/78/78 80/80/80 76/76/76
f 80/80/80 51/51/51 75/75/75
f 76/76/76 80/80/80 75/75/75
f 79/79/79 81/81/81 78/78/78
f 81/81/81 82/82/82 78/78/78
f 78/78/78 82/82/82 83/83/83
f 84/84/84 78/78/78 83/83/83
f 84/84/84 80/80/80 78/78/78
f 51/51/51 80/80/80 84/84/84
f 54/54/54 51/51/51 84/84/84
f 84/84/84 83/83/83 54/54/54
f 83/83/83 55/55/55 54/54/54
f 85/85/85 79/79/79 71/71/71
f 87/87/87 86/86/86 19/19/19
f 19/19/19 15/15/15 87/87/87
f 15/15/15 88/88/88 87/87/87
f 86/86/86 89/89/89 19/19/19
f 23/23/23 19/19/19 89/89/89
f 90/90/90 23/23/23 89/89/89
f 91/91/91 88/88/88 15/15/15
f 91/91/91 15/15/15 13/13/13
f 46/46/46 93/93/93 92/92/92
f 48/48/48 46/46/46 92/92/92
f 56/56/56 48/48/48 92/92/92
f 94/94/94 56/56/56 92/92/92
f 94/94/94 95/95/95 56/56/56
f 56/56/56 95/95/95 96/96/96
f 61/61/61 56/56/56 96/96/96
f 96/96/96 97/97/97 61/61/61
f 61/61/61 97/97/97 98/98/98
f 63/63/63 61/61/61 98/98/98
f 66/66/66 63/63/63 98/98/98
f 99/99/99 66/66/66 98/98/98
