g SculleryKitchenFloor_forAO(Clone)
v -3.999908 9.155273E-05 5.999939
v -3.999908 9.155273E-05 5.200122
v -2.999893 9.155273E-05 5.200122
v -2.999893 9.155273E-05 5.999939
v -2.249882 9.155273E-05 5.200122
v -2.249882 9.155273E-05 0.2000456
v -1.500114 9.155273E-05 0.2000456
v -1.500114 9.155273E-05 5.200122
v -0.750103 9.155273E-05 0.2000456
v -0.750103 9.155273E-05 5.200122
v -2.999893 9.155273E-05 0.2000456
v -1.500114 9.155273E-05 5.999939
v -0.750103 9.155273E-05 5.999939
v -2.249882 9.155273E-05 5.999939
v -2.249882 9.155273E-05 6.8
v -1.500114 9.155273E-05 6.8
v -2.999893 9.155273E-05 6.8
v -2.249882 9.155273E-05 7.600061
v -1.500114 9.155273E-05 7.600061
v -0.750103 9.155273E-05 6.8
v -0.750103 9.155273E-05 7.600061
v -2.999893 9.155273E-05 7.600061
v -1.500114 9.155273E-05 8.400122
v -0.750103 9.155273E-05 8.400122
v -2.249882 9.155273E-05 8.400122
v -2.999893 9.155273E-05 8.400122
v -3.999908 9.155273E-05 8.400122
v -3.999908 9.155273E-05 7.600061
v -1.500114 9.155273E-05 9.199939
v -0.750103 9.155273E-05 9.199939
v -2.249882 9.155273E-05 9.199939
v -2.249882 9.155273E-05 10
v -1.500114 9.155273E-05 10
v -2.999893 9.155273E-05 9.199939
v -2.999893 9.155273E-05 10
v -0.750103 9.155273E-05 10
v -4.999924 9.155273E-05 8.400122
v -4.999924 9.155273E-05 7.600061
v -5.999939 9.155273E-05 8.400122
v -5.999939 9.155273E-05 9.199939
v -4.999924 9.155273E-05 9.199939
v -5.999939 9.155273E-05 7.600061
v -3.999908 9.155273E-05 6.8
v -4.999924 9.155273E-05 6.8
v -4.999924 9.155273E-05 5.999939
v -4.999924 9.155273E-05 5.200122
v -5.999939 9.155273E-05 5.999939
v -5.999939 9.155273E-05 5.200122
v -5.999939 9.155273E-05 6.8
v -5.999939 9.155273E-05 10
v -4.999924 9.155273E-05 10
v -3.999908 9.155273E-05 9.199939
v -3.999908 9.155273E-05 10
v -3.999908 9.155273E-05 0.2000456
v -4.999924 9.155273E-05 0.2000456
v -5.999939 9.155273E-05 0.2000456
v 3.999969 9.155273E-05 5.200122
v 3.999969 9.155273E-05 0.2000456
v 4.999985 9.155273E-05 0.2000456
v 4.999985 9.155273E-05 5.200122
v 2.999954 9.155273E-05 5.200122
v 2.999954 9.155273E-05 0.2000456
v 3.999969 9.155273E-05 5.999939
v 4.999985 9.155273E-05 5.999939
v 3.999969 9.155273E-05 6.8
v 4.999985 9.155273E-05 6.8
v 6 9.155273E-05 5.999939
v 6 9.155273E-05 6.8
v 4.999985 9.155273E-05 7.600061
v 6 9.155273E-05 7.600061
v 4.999985 9.155273E-05 8.400122
v 6 9.155273E-05 8.400122
v 2.999954 9.155273E-05 6.8
v 2.999954 9.155273E-05 5.999939
v 3.999969 9.155273E-05 7.600061
v 2.999954 9.155273E-05 7.600061
v 3.999969 9.155273E-05 8.400122
v 2.999954 9.155273E-05 8.400122
v 3.999969 9.155273E-05 9.199939
v 4.999985 9.155273E-05 9.199939
v 2.999954 9.155273E-05 9.199939
v 3.999969 9.155273E-05 10
v 4.999985 9.155273E-05 10
v 6 9.155273E-05 9.199939
v 2.999954 9.155273E-05 10
v 6 9.155273E-05 10
v 2.249943 9.155273E-05 6.8
v 2.249943 9.155273E-05 5.999939
v 1.499931 9.155273E-05 6.8
v 1.499931 9.155273E-05 5.999939
v 2.249943 9.155273E-05 5.200122
v 1.499931 9.155273E-05 5.200122
v 0.7499199 9.155273E-05 6.8
v 0.7499199 9.155273E-05 5.999939
v -9.155273E-05 9.155273E-05 6.8
v -9.155273E-05 9.155273E-05 7.600061
v 0.7499199 9.155273E-05 7.600061
v -9.155273E-05 9.155273E-05 5.999939
v 1.499931 9.155273E-05 7.600061
v 2.249943 9.155273E-05 7.600061
v 1.499931 9.155273E-05 8.400122
v 2.249943 9.155273E-05 8.400122
v 0.7499199 9.155273E-05 8.400122
v -9.155273E-05 9.155273E-05 8.400122
v 1.499931 9.155273E-05 9.199939
v 2.249943 9.155273E-05 9.199939
v 0.7499199 9.155273E-05 9.199939
v -9.155273E-05 9.155273E-05 9.199939
v 1.499931 9.155273E-05 10
v 2.249943 9.155273E-05 10
v 0.7499199 9.155273E-05 10
v -9.155273E-05 9.155273E-05 10
v -9.155273E-05 9.155273E-05 5.200122
v 0.7499199 9.155273E-05 5.200122
v 0.7499199 9.155273E-05 0.2000456
v 1.499931 9.155273E-05 0.2000456
v 2.249943 9.155273E-05 0.2000456
v -9.155273E-05 9.155273E-05 0.2000456
v 6 9.155273E-05 0.2000456
v 6 9.155273E-05 5.200122
vn 0 1 0
vn 0 1 0
vn 0 1 0
vn 0 1 0
vn 0 1 0
vn 0 1 0
vn 0 1 0
vn 0 1 0
vn 0 1 0
vn 0 1 0
vn 0 1 0
vn 0 1 0
vn 0 1 0
vn 0 1 0
vn 0 1 0
vn 0 1 0
vn 0 1 0
vn 0 1 0
vn 0 1 0
vn 0 1 0
vn 0 1 0
vn 0 1 0
vn 0 1 0
vn 0 1 0
vn 0 1 0
vn 0 1 0
vn 0 1 0
vn 0 1 0
vn 0 1 0
vn 0 1 0
vn 0 1 0
vn 0 1 0
vn 0 1 0
vn 0 1 0
vn 0 1 0
vn 0 1 0
vn 0 1 0
vn 0 1 0
vn 0 1 0
vn 0 1 0
vn 0 1 0
vn 0 1 0
vn 0 1 0
vn 0 1 0
vn 0 1 0
vn 0 1 0
vn 0 1 0
vn 0 1 0
vn 0 1 0
vn 0 1 0
vn 0 1 0
vn 0 1 0
vn 0 1 0
vn 0 1 0
vn 0 1 0
vn 0 1 0
vn 0 1 0
vn 0 1 0
vn 0 1 0
vn 0 1 0
vn 0 1 0
vn 0 1 0
vn 0 1 0
vn 0 1 0
vn 0 1 0
vn 0 1 0
vn 0 1 0
vn 0 1 0
vn 0 1 0
vn 0 1 0
vn 0 1 0
vn 0 1 0
vn 0 1 0
vn 0 1 0
vn 0 1 0
vn 0 1 0
vn 0 1 0
vn 0 1 0
vn 0 1 0
vn 0 1 0
vn 0 1 0
vn 0 1 0
vn 0 1 0
vn 0 1 0
vn 0 1 0
vn 0 1 0
vn 0 1 0
vn 0 1 0
vn 0 1 0
vn 0 1 0
vn 0 1 0
vn 0 1 0
vn 0 1 0
vn 0 1 0
vn 0 1 0
vn 0 1 0
vn 0 1 0
vn 0 1 0
vn 0 1 0
vn 0 1 0
vn 0 1 0
vn 0 1 0
vn 0 1 0
vn 0 1 0
vn 0 1 0
vn 0 1 0
vn 0 1 0
vn 0 1 0
vn 0 1 0
vn 0 1 0
vn 0 1 0
vn 0 1 0
vn 0 1 0
vn 0 1 0
vn 0 1 0
vn 0 1 0
vn 0 1 0
vn 0 1 0
vn 0 1 0
vn 0 1 0
g SculleryKitchenFloor_forAO(Clone)_0
f 3/3/3 2/2/2 1/1/1
f 4/4/4 3/3/3 1/1/1
f 5/5/5 3/3/3 4/4/4
f 5/5/5 6/6/6 3/3/3
f 7/7/7 6/6/6 5/5/5
f 8/8/8 7/7/7 5/5/5
f 9/9/9 7/7/7 8/8/8
f 10/10/10 9/9/9 8/8/8
f 6/6/6 11/11/11 3/3/3
f 3/3/3 11/11/11 2/2/2
f 10/10/10 8/8/8 12/12/12
f 13/13/13 10/10/10 12/12/12
f 8/8/8 5/5/5 14/14/14
f 12/12/12 8/8/8 14/14/14
f 14/14/14 5/5/5 4/4/4
f 12/12/12 14/14/14 15/15/15
f 16/16/16 12/12/12 15/15/15
f 13/13/13 12/12/12 16/16/16
f 14/14/14 4/4/4 17/17/17
f 15/15/15 14/14/14 17/17/17
f 16/16/16 15/15/15 18/18/18
f 19/19/19 16/16/16 18/18/18
f 20/20/20 16/16/16 19/19/19
f 20/20/20 13/13/13 16/16/16
f 21/21/21 20/20/20 19/19/19
f 15/15/15 17/17/17 22/22/22
f 18/18/18 15/15/15 22/22/22
f 21/21/21 19/19/19 23/23/23
f 24/24/24 21/21/21 23/23/23
f 19/19/19 18/18/18 25/25/25
f 23/23/23 19/19/19 25/25/25
f 18/18/18 22/22/22 26/26/26
f 25/25/25 18/18/18 26/26/26
f 26/26/26 22/22/22 27/27/27
f 22/22/22 28/28/28 27/27/27
f 22/22/22 17/17/17 28/28/28
f 24/24/24 23/23/23 29/29/29
f 30/30/30 24/24/24 29/29/29
f 23/23/23 25/25/25 31/31/31
f 29/29/29 23/23/23 31/31/31
f 29/29/29 31/31/31 32/32/32
f 33/33/33 29/29/29 32/32/32
f 30/30/30 29/29/29 33/33/33
f 25/25/25 26/26/26 34/34/34
f 31/31/31 25/25/25 34/34/34
f 31/31/31 34/34/34 35/35/35
f 32/32/32 31/31/31 35/35/35
f 36/36/36 30/30/30 33/33/33
f 27/27/27 28/28/28 37/37/37
f 28/28/28 38/38/38 37/37/37
f 37/37/37 38/38/38 39/39/39
f 37/37/37 39/39/39 40/40/40
f 41/41/41 37/37/37 40/40/40
f 27/27/27 37/37/37 41/41/41
f 38/38/38 42/42/42 39/39/39
f 28/28/28 43/43/43 38/38/38
f 43/43/43 44/44/44 38/38/38
f 38/38/38 44/44/44 42/42/42
f 43/43/43 1/1/1 44/44/44
f 1/1/1 45/45/45 44/44/44
f 1/1/1 2/2/2 45/45/45
f 2/2/2 46/46/46 45/45/45
f 45/45/45 46/46/46 47/47/47
f 46/46/46 48/48/48 47/47/47
f 45/45/45 47/47/47 49/49/49
f 44/44/44 45/45/45 49/49/49
f 44/44/44 49/49/49 42/42/42
f 41/41/41 40/40/40 50/50/50
f 51/51/51 41/41/41 50/50/50
f 52/52/52 41/41/41 51/51/51
f 53/53/53 52/52/52 51/51/51
f 52/52/52 27/27/27 41/41/41
f 2/2/2 54/54/54 46/46/46
f 54/54/54 55/55/55 46/46/46
f 46/46/46 55/55/55 48/48/48
f 55/55/55 56/56/56 48/48/48
f 26/26/26 27/27/27 52/52/52
f 34/34/34 26/26/26 52/52/52
f 34/34/34 52/52/52 53/53/53
f 35/35/35 34/34/34 53/53/53
f 11/11/11 54/54/54 2/2/2
f 59/59/59 58/58/58 57/57/57
f 60/60/60 59/59/59 57/57/57
f 57/57/57 58/58/58 61/61/61
f 58/58/58 62/62/62 61/61/61
f 60/60/60 57/57/57 63/63/63
f 64/64/64 60/60/60 63/63/63
f 64/64/64 63/63/63 65/65/65
f 66/66/66 64/64/64 65/65/65
f 67/67/67 64/64/64 66/66/66
f 68/68/68 67/67/67 66/66/66
f 68/68/68 66/66/66 69/69/69
f 70/70/70 68/68/68 69/69/69
f 70/70/70 69/69/69 71/71/71
f 72/72/72 70/70/70 71/71/71
f 65/65/65 63/63/63 73/73/73
f 63/63/63 74/74/74 73/73/73
f 66/66/66 65/65/65 75/75/75
f 69/69/69 66/66/66 75/75/75
f 65/65/65 73/73/73 76/76/76
f 75/75/75 65/65/65 76/76/76
f 69/69/69 75/75/75 77/77/77
f 71/71/71 69/69/69 77/77/77
f 75/75/75 76/76/76 78/78/78
f 77/77/77 75/75/75 78/78/78
f 71/71/71 77/77/77 79/79/79
f 80/80/80 71/71/71 79/79/79
f 72/72/72 71/71/71 80/80/80
f 77/77/77 78/78/78 81/81/81
f 79/79/79 77/77/77 81/81/81
f 80/80/80 79/79/79 82/82/82
f 83/83/83 80/80/80 82/82/82
f 84/84/84 72/72/72 80/80/80
f 84/84/84 80/80/80 83/83/83
f 79/79/79 81/81/81 85/85/85
f 82/82/82 79/79/79 85/85/85
f 86/86/86 84/84/84 83/83/83
f 73/73/73 74/74/74 87/87/87
f 74/74/74 88/88/88 87/87/87
f 87/87/87 88/88/88 89/89/89
f 88/88/88 90/90/90 89/89/89
f 88/88/88 91/91/91 90/90/90
f 91/91/91 92/92/92 90/90/90
f 89/89/89 90/90/90 93/93/93
f 90/90/90 94/94/94 93/93/93
f 90/90/90 92/92/92 94/94/94
f 93/93/93 94/94/94 95/95/95
f 93/93/93 95/95/95 96/96/96
f 97/97/97 93/93/93 96/96/96
f 89/89/89 93/93/93 97/97/97
f 94/94/94 98/98/98 95/95/95
f 87/87/87 89/89/89 99/99/99
f 99/99/99 89/89/89 97/97/97
f 100/100/100 87/87/87 99/99/99
f 100/100/100 99/99/99 101/101/101
f 102/102/102 100/100/100 101/101/101
f 99/99/99 97/97/97 103/103/103
f 101/101/101 99/99/99 103/103/103
f 97/97/97 96/96/96 104/104/104
f 103/103/103 97/97/97 104/104/104
f 102/102/102 101/101/101 105/105/105
f 106/106/106 102/102/102 105/105/105
f 101/101/101 103/103/103 107/107/107
f 105/105/105 101/101/101 107/107/107
f 103/103/103 104/104/104 108/108/108
f 107/107/107 103/103/103 108/108/108
f 106/106/106 105/105/105 109/109/109
f 110/110/110 106/106/106 109/109/109
f 105/105/105 107/107/107 111/111/111
f 109/109/109 105/105/105 111/111/111
f 107/107/107 108/108/108 112/112/112
f 111/111/111 107/107/107 112/112/112
f 76/76/76 100/100/100 102/102/102
f 76/76/76 73/73/73 100/100/100
f 73/73/73 87/87/87 100/100/100
f 78/78/78 76/76/76 102/102/102
f 78/78/78 102/102/102 106/106/106
f 81/81/81 78/78/78 106/106/106
f 81/81/81 106/106/106 110/110/110
f 108/108/108 104/104/104 30/30/30
f 104/104/104 24/24/24 30/30/30
f 104/104/104 96/96/96 24/24/24
f 96/96/96 21/21/21 24/24/24
f 96/96/96 95/95/95 21/21/21
f 95/95/95 20/20/20 21/21/21
f 95/95/95 98/98/98 20/20/20
f 98/98/98 13/13/13 20/20/20
f 98/98/98 113/113/113 13/13/13
f 114/114/114 113/113/113 98/98/98
f 114/114/114 115/115/115 113/113/113
f 116/116/116 115/115/115 114/114/114
f 92/92/92 116/116/116 114/114/114
f 117/117/117 116/116/116 92/92/92
f 91/91/91 117/117/117 92/92/92
f 92/92/92 114/114/114 94/94/94
f 94/94/94 114/114/114 98/98/98
f 115/115/115 118/118/118 113/113/113
f 62/62/62 117/117/117 91/91/91
f 61/61/61 62/62/62 91/91/91
f 113/113/113 118/118/118 10/10/10
f 113/113/113 10/10/10 13/13/13
f 118/118/118 9/9/9 10/10/10
f 61/61/61 91/91/91 88/88/88
f 74/74/74 61/61/61 88/88/88
f 57/57/57 61/61/61 74/74/74
f 63/63/63 57/57/57 74/74/74
f 4/4/4 1/1/1 43/43/43
f 17/17/17 4/4/4 43/43/43
f 17/17/17 43/43/43 28/28/28
f 119/119/119 59/59/59 60/60/60
f 120/120/120 119/119/119 60/60/60
f 120/120/120 60/60/60 64/64/64
f 67/67/67 120/120/120 64/64/64
f 85/85/85 81/81/81 110/110/110
f 108/108/108 30/30/30 36/36/36
f 112/112/112 108/108/108 36/36/36
