g SculleryPillarssAO
v -1.313384 -5.626678E-05 -0.3481436
v -1.313384 0.2150562 -0.000133276
v -1.313308 2.0504E-05 -0.000133276
v -1.313384 0.2149794 -0.3481436
v -1.313384 -5.626678E-05 -0.7065364
v -1.260087 0.2499726 -0.000133276
v -1.313384 0.2149794 -0.7065364
v -1.313384 -5.626678E-05 -1.064929
v -1.260087 0.2500496 -0.3391453
v -1.313384 0.2149794 -1.064929
v -1.313384 -5.626678E-05 -1.423322
v -1.260087 0.4882348 -0.3391453
v -1.260087 0.4909265 -0.000133276
v -1.260087 0.2500496 -0.6886168
v -1.313384 0.2149794 -1.423322
v -1.313384 -5.626678E-05 -1.781792
v -1.260087 0.4882348 -0.6886168
v -1.260087 0.7263429 -0.3391453
v -1.260087 0.7318034 -0.000133276
v -1.260087 0.2500496 -1.038088
v -1.313384 0.2149794 -1.781792
v -1.313384 -5.626678E-05 -2.140185
v -1.313384 0.2149794 -2.140185
v -1.260087 0.2500496 -1.38756
v -1.260087 0.2500496 -1.737108
v -1.260087 0.2500496 -2.08658
v -1.260087 0.4882348 -2.08658
v -1.260087 0.4882348 -1.737108
v -1.260087 0.7264199 -2.08658
v -1.260087 0.4882348 -1.038088
v -1.260087 0.4882348 -1.38756
v -1.260087 0.7264199 -1.737108
v -1.260087 0.9645281 -2.08658
v -1.260087 0.7264199 -1.38756
v -1.260087 0.9645281 -1.737108
v -1.260087 1.202713 -2.08658
v -1.260087 0.7263429 -1.038088
v -1.260087 0.9645281 -1.38756
v -1.260087 1.202713 -1.737108
v -1.260087 1.440898 -2.08658
v -1.260087 0.7263429 -0.6886168
v -1.260087 0.9645281 -1.038088
v -1.260087 1.202713 -1.38756
v -1.260087 1.440898 -1.737108
v -1.260087 1.679084 -2.08658
v -1.260087 0.9645281 -0.6886168
v -1.260087 1.202713 -1.038088
v -1.260087 1.440898 -1.38756
v -1.260087 1.679084 -1.737108
v -1.260087 1.917269 -2.08658
v -1.260087 0.9645281 -0.3391453
v -1.260087 0.9727573 -0.000133276
v -1.260087 1.202713 -0.6886168
v -1.260087 1.202713 -0.3391453
v -1.260087 1.213634 -0.000133276
v -1.260087 1.440898 -1.038088
v -1.260087 1.679084 -1.38756
v -1.260087 1.917269 -1.737108
v -1.260087 2.155454 -2.08658
v -1.260087 1.440898 -0.6886168
v -1.260087 1.440898 -0.3391453
v -1.260087 1.454511 -0.000133276
v -1.260087 1.679084 -1.038088
v -1.260087 1.917269 -1.38756
v -1.260087 2.155454 -1.737108
v -1.260087 2.393639 -2.08658
v -1.260087 1.679084 -0.6886168
v -1.260087 1.679084 -0.3391453
v -1.260087 1.695465 -0.000133276
v -1.260087 1.917269 -1.038088
v -1.260087 2.155454 -1.38756
v -1.260087 2.393639 -1.737108
v -1.260087 2.631747 -2.08658
v -1.260087 1.917269 -0.6886168
v -1.260087 1.917269 -0.3391453
v -1.260087 1.936342 -0.000133276
v -1.260087 2.155454 -1.038088
v -1.260087 2.393639 -1.38756
v -1.260087 2.631747 -1.737108
v -1.260087 2.869932 -2.08658
v -1.260087 2.869932 -1.737108
v -1.260087 2.631747 -1.38756
v -1.260087 2.869932 -1.38756
v -1.260087 2.155454 -0.6886168
v -1.260087 2.155454 -0.3391453
v -1.260087 2.177296 -0.000133276
v -1.260087 2.393639 -1.038088
v -1.260087 2.631747 -1.038088
v -1.260087 2.869932 -1.038088
v -1.260087 2.393639 -0.6886168
v -1.260087 2.393639 -0.3391453
v -1.260087 2.418173 -0.000133276
v -1.260087 2.631747 -0.6886168
v -1.260087 2.869932 -0.6886168
v -1.260087 2.631747 -0.3391453
v -1.260087 2.659127 -0.000133276
v -1.260087 2.869932 -0.3391453
v -1.260087 2.900003 -0.000133276
v 1.313266 0.2150562 -0.000133276
v 1.313266 -5.626678E-05 -0.3481436
v 1.313266 -5.626678E-05 -0.000133276
v 1.313266 0.2149794 -0.3481436
v 1.313266 -5.626678E-05 -0.7065364
v 1.259969 0.2500496 -0.3391453
v 1.259969 0.2499726 -0.000133276
v 1.313266 0.2149794 -0.7065364
v 1.313266 -5.626678E-05 -1.064929
v 1.259969 0.4882348 -0.3391453
v 1.259969 0.4909265 -0.000133276
v 1.259969 0.2500496 -0.6886168
v 1.313266 0.2149794 -1.064929
v 1.313266 -5.626678E-05 -1.423322
v 1.259969 0.4882348 -0.6886168
v 1.259969 0.7263429 -0.3391453
v 1.259969 0.7318034 -0.000133276
v 1.259969 0.2500496 -1.038088
v 1.313266 0.2149794 -1.423322
v 1.313266 -5.626678E-05 -1.781792
v 1.259969 0.4882348 -1.038088
v 1.259969 0.7263429 -0.6886168
v 1.259969 0.9645281 -0.3391453
v 1.259969 0.9727573 -0.000133276
v 1.259969 0.2500496 -1.38756
v 1.313266 0.2149794 -1.781792
v 1.313266 -5.626678E-05 -2.140185
v 1.313266 0.2149794 -2.140185
v 1.259969 0.2500496 -2.08658
v 1.259969 0.2500496 -1.737108
v 1.259969 0.4882348 -2.08658
v 1.259969 0.4882348 -1.737108
v 1.259969 0.7264199 -2.08658
v 1.259969 0.4882348 -1.38756
v 1.259969 0.7264199 -1.737108
v 1.259969 0.9645281 -2.08658
v 1.259969 0.7263429 -1.38756
v 1.259969 0.9645281 -1.737108
v 1.259969 1.202713 -2.08658
v 1.259969 0.7263429 -1.038088
v 1.259969 1.202713 -1.737108
v 1.259969 1.440898 -2.08658
v 1.259969 0.9645281 -1.38756
v 1.259969 0.9645281 -1.038088
v 1.259969 1.440898 -1.737108
v 1.259969 1.679084 -2.08658
v 1.259969 1.202713 -1.38756
v 1.259969 0.9645281 -0.6886168
v 1.259969 1.679084 -1.737108
v 1.259969 1.917269 -2.08658
v 1.259969 1.202713 -1.038088
v 1.259969 1.440898 -1.38756
v 1.259969 1.202713 -0.6886168
v 1.259969 1.917269 -1.737108
v 1.259969 2.155454 -2.08658
v 1.259969 1.440898 -1.038088
v 1.259969 1.679084 -1.38756
v 1.259969 1.202713 -0.3391453
v 1.259969 1.213634 -0.000133276
v 1.259969 2.155454 -1.737108
v 1.259969 2.393639 -2.08658
v 1.259969 1.917269 -1.38756
v 1.259969 1.440898 -0.6886168
v 1.259969 1.440898 -0.3391453
v 1.259969 1.454511 -0.000133276
v 1.259969 1.679084 -1.038088
v 1.259969 2.393639 -1.737108
v 1.259969 2.631747 -2.08658
v 1.259969 1.679084 -0.6886168
v 1.259969 1.679084 -0.3391453
v 1.259969 1.695465 -0.000133276
v 1.259969 1.917269 -1.038088
v 1.259969 2.155454 -1.38756
v 1.259969 2.631747 -1.737108
v 1.259969 2.869932 -2.08658
v 1.259969 2.869932 -1.737108
v 1.259969 1.917269 -0.6886168
v 1.259969 1.917269 -0.3391453
v 1.259969 1.936342 -0.000133276
v 1.259969 2.155454 -1.038088
v 1.259969 2.393639 -1.38756
v 1.259969 2.631747 -1.38756
v 1.259969 2.869932 -1.38756
v 1.259969 2.155454 -0.6886168
v 1.259969 2.155454 -0.3391453
v 1.259969 2.177296 -0.000133276
v 1.259969 2.393639 -1.038088
v 1.259969 2.631747 -1.038088
v 1.259969 2.869932 -1.038088
v 1.259969 2.393639 -0.6886168
v 1.259969 2.393639 -0.3391453
v 1.259969 2.418173 -0.000133276
v 1.259969 2.631747 -0.6886168
v 1.259969 2.869932 -0.6886168
v 1.259969 2.631747 -0.3391453
v 1.259969 2.659127 -0.000133276
v 1.259969 2.869932 -0.3391453
v 1.259969 2.900003 -0.000133276
vn -0.9999923 -0.003921568 -0.0003442513
vn -0.8807224 0.4736329 0
vn -0.9999923 -0.003921568 -0.0003442513
vn -0.8807224 0.4736329 0
vn -0.9999923 0.003921509 -0.0003449296
vn -0.8807224 0.4736329 0
vn -0.8807224 0.4736329 0
vn -0.9999923 0.003921509 -0.0003449296
vn -0.8807224 0.4736329 0
vn -0.8807224 0.4736329 0
vn -0.9999923 0.003921509 -0.0003449296
vn -0.9999923 0.003921509 -0.0003449296
vn -0.9999923 0.003921509 -0.0003449296
vn -0.8807224 0.4736329 0
vn -0.8807224 0.4736329 0
vn -0.9999923 0.003921509 -0.0003449296
vn -0.9999923 0.003921509 -0.0003449296
vn -0.9999923 0.003921509 -0.0003449296
vn -0.9999923 0.003921509 -0.0003449296
vn -0.8807224 0.4736329 0
vn -0.8807224 0.4736329 0
vn -0.9999923 0.003921509 -0.0003449296
vn -0.9430625 0.3326154 0
vn -0.8807224 0.4736329 0
vn -0.8807224 0.4736329 0
vn -0.8274446 0.5607799 -0.02934922
vn -0.9999923 0.003921509 -0.0003449296
vn -0.9999923 0.003921509 -0.0003449296
vn -0.9999923 0.003921509 -0.0003449296
vn -0.9999923 0.003921509 -0.0003449296
vn -0.9999923 0.003921509 -0.0003449296
vn -0.9999923 0.003921509 -0.0003449296
vn -0.9999923 0.003921509 -0.0003449296
vn -0.9999923 0.003921509 -0.0003449296
vn -0.9999923 0.003921509 -0.0003449296
vn -0.9999923 0.003921509 -0.0003449296
vn -0.9999923 0.003921509 -0.0003449296
vn -0.9999923 0.003921509 -0.0003449296
vn -0.9999923 0.003921509 -0.0003449296
vn -0.9999923 0.003921509 -0.0003449296
vn -0.9999923 0.003921509 -0.0003449296
vn -0.9999923 0.003921509 -0.0003449296
vn -0.9999923 0.003921509 -0.0003449296
vn -0.9999923 0.003921509 -0.0003449296
vn -0.9999923 0.003921509 -0.0003449296
vn -0.9999923 0.003921509 -0.0003449296
vn -0.9999923 0.003921509 -0.0003449296
vn -0.9999923 0.003921509 -0.0003449296
vn -0.9999923 0.003921509 -0.0003449296
vn -0.9999923 0.003921509 -0.0003449296
vn -0.9999923 0.003921509 -0.0003449296
vn -0.9999923 0.003921509 -0.0003449296
vn -0.9999923 0.003921509 -0.0003449296
vn -0.9999923 0.003921509 -0.0003449296
vn -0.9999923 0.003921509 -0.0003449296
vn -0.9999923 0.003921509 -0.0003449296
vn -0.9999923 0.003921509 -0.0003449296
vn -0.9999923 0.003921509 -0.0003449296
vn -0.9999923 0.003921509 -0.0003449296
vn -0.9999923 0.003921509 -0.0003449296
vn -0.9999923 0.003921509 -0.0003449296
vn -0.9999923 0.003921509 -0.0003449296
vn -0.9999923 0.003921509 -0.0003449296
vn -0.9999923 0.003921509 -0.0003449296
vn -0.9999923 0.003921509 -0.0003449296
vn -0.9999923 0.003921509 -0.0003449296
vn -0.9999923 0.003921509 -0.0003449296
vn -0.9999923 0.003921509 -0.0003449296
vn -0.9999923 0.003921509 -0.0003449296
vn -0.9999923 0.003921509 -0.0003449296
vn -0.9999923 0.003921509 -0.0003449296
vn -0.9999923 0.003921509 -0.0003449296
vn -0.9999923 0.003921509 -0.0003449296
vn -0.9999923 0.003921509 -0.0003449296
vn -0.9999923 0.003921509 -0.0003449296
vn -0.9999923 0.003921509 -0.0003449296
vn -0.9999923 0.003921509 -0.0003449296
vn -0.9999923 0.003921509 -0.0003449296
vn -0.9999923 0.003921509 -0.0003449296
vn -0.9999923 0.003921509 -0.0003449296
vn -0.9999923 0.003921509 -0.0003449296
vn -0.9999923 0.003921509 -0.0003449296
vn -0.9999923 0.003921509 -0.0003449296
vn -0.9999923 0.003921509 -0.0003449296
vn -0.9999923 0.003921509 -0.0003449296
vn -0.9999923 0.003921509 -0.0003449296
vn -0.9999923 0.003921509 -0.0003449296
vn -0.9999923 0.003921509 -0.0003449296
vn -0.9999923 0.003921509 -0.0003449296
vn -0.9999923 0.003921509 -0.0003449296
vn -0.9999923 0.003921509 -0.0003449296
vn -0.9999923 0.003921509 -0.0003449296
vn -0.9999923 0.003921509 -0.0003449296
vn -0.9999923 0.003921509 -0.0003449296
vn -0.9999923 0.003921509 -0.0003449296
vn -0.9999923 0.003921509 -0.0003449296
vn -0.9999923 0.003921509 -0.0003449296
vn -0.9999923 0.003921509 -0.0003449296
vn 0.8807223 0.4736328 0
vn 0.9999924 0.003921509 0
vn 0.9999924 0.003921509 0
vn 0.8807223 0.4736328 0
vn 0.9999924 0.003921509 0
vn 0.8807223 0.4736328 0
vn 0.8807223 0.4736328 0
vn 0.8807223 0.4736328 0
vn 0.9999924 0.003921509 0
vn 0.9999924 0.003921509 0
vn 0.9999924 0.003921509 0
vn 0.8807223 0.4736328 0
vn 0.8807223 0.4736328 0
vn 0.9999924 0.003921509 0
vn 0.9999924 0.003921509 0
vn 0.9999924 0.003921509 0
vn 0.9999924 0.003921509 0
vn 0.8807223 0.4736328 0
vn 0.8807223 0.4736328 0
vn 0.9999924 0.003921509 0
vn 0.9999924 0.003921509 0
vn 0.9999924 0.003921509 0
vn 0.9999924 0.003921509 0
vn 0.9999924 0.003921509 0
vn 0.8807223 0.4736328 0
vn 0.8807223 0.4736328 0
vn 0.9999924 0.003921509 0
vn 0.9430625 0.3326154 0
vn 0.8274447 0.5607799 -0.02934617
vn 0.8807223 0.4736328 0
vn 0.9999924 0.003921509 0
vn 0.9999924 0.003921509 0
vn 0.9999924 0.003921509 0
vn 0.9999924 0.003921509 0
vn 0.9999924 0.003921509 0
vn 0.9999924 0.003921509 0
vn 0.9999924 0.003921509 0
vn 0.9999924 0.003921509 0
vn 0.9999924 0.003921509 0
vn 0.9999924 0.003921509 0
vn 0.9999924 0.003921509 0
vn 0.9999924 0.003921509 0
vn 0.9999924 0.003921509 0
vn 0.9999924 0.003921509 0
vn 0.9999924 0.003921509 0
vn 0.9999924 0.003921509 0
vn 0.9999924 0.003921509 0
vn 0.9999924 0.003921509 0
vn 0.9999924 0.003921509 0
vn 0.9999924 0.003921509 0
vn 0.9999924 0.003921509 0
vn 0.9999924 0.003921509 0
vn 0.9999924 0.003921509 0
vn 0.9999924 0.003921509 0
vn 0.9999924 0.003921509 0
vn 0.9999924 0.003921509 0
vn 0.9999924 0.003921509 0
vn 0.9999924 0.003921509 0
vn 0.9999924 0.003921509 0
vn 0.9999924 0.003921509 0
vn 0.9999924 0.003921509 0
vn 0.9999924 0.003921509 0
vn 0.9999924 0.003921509 0
vn 0.9999924 0.003921509 0
vn 0.9999924 0.003921509 0
vn 0.9999924 0.003921509 0
vn 0.9999924 0.003921509 0
vn 0.9999924 0.003921509 0
vn 0.9999924 0.003921509 0
vn 0.9999924 0.003921509 0
vn 0.9999924 0.003921509 0
vn 0.9999924 0.003921509 0
vn 0.9999924 0.003921509 0
vn 0.9999924 0.003921509 0
vn 0.9999924 0.003921509 0
vn 0.9999924 0.003921509 0
vn 0.9999924 0.003921509 0
vn 0.9999924 0.003921509 0
vn 0.9999924 0.003921509 0
vn 0.9999924 0.003921509 0
vn 0.9999924 0.003921509 0
vn 0.9999924 0.003921509 0
vn 0.9999924 0.003921509 0
vn 0.9999924 0.003921509 0
vn 0.9999924 0.003921509 0
vn 0.9999924 0.003921509 0
vn 0.9999924 0.003921509 0
vn 0.9999924 0.003921509 0
vn 0.9999924 0.003921509 0
vn 0.9999924 0.003921509 0
vn 0.9999924 0.003921509 0
vn 0.9999924 0.003921509 0
vn 0.9999924 0.003921509 0
vn 0.9999924 0.003921509 0
vn 0.9999924 0.003921509 0
vn 0.9999924 0.003921509 0
vn 0.9999924 0.003921509 0
vn 0.9999924 0.003921509 0
g SculleryPillarssAO_0
f 3/3/3 2/2/2 1/1/1
f 2/2/2 4/4/4 1/1/1
f 1/1/1 4/4/4 5/5/5
f 2/2/2 6/6/6 4/4/4
f 4/4/4 7/7/7 5/5/5
f 5/5/5 7/7/7 8/8/8
f 6/6/6 9/9/9 4/4/4
f 4/4/4 9/9/9 7/7/7
f 7/7/7 10/10/10 8/8/8
f 8/8/8 10/10/10 11/11/11
f 12/12/12 9/9/9 6/6/6
f 13/13/13 12/12/12 6/6/6
f 9/9/9 14/14/14 7/7/7
f 7/7/7 14/14/14 10/10/10
f 10/10/10 15/15/15 11/11/11
f 11/11/11 15/15/15 16/16/16
f 12/12/12 17/17/17 9/9/9
f 17/17/17 14/14/14 9/9/9
f 18/18/18 12/12/12 13/13/13
f 19/19/19 18/18/18 13/13/13
f 14/14/14 20/20/20 10/10/10
f 10/10/10 20/20/20 15/15/15
f 15/15/15 21/21/21 16/16/16
f 16/16/16 21/21/21 22/22/22
f 21/21/21 23/23/23 22/22/22
f 15/15/15 24/24/24 21/21/21
f 20/20/20 24/24/24 15/15/15
f 21/21/21 25/25/25 23/23/23
f 24/24/24 25/25/25 21/21/21
f 25/25/25 26/26/26 23/23/23
f 27/27/27 26/26/26 25/25/25
f 28/28/28 27/27/27 25/25/25
f 28/28/28 25/25/25 24/24/24
f 29/29/29 27/27/27 28/28/28
f 30/30/30 20/20/20 14/14/14
f 17/17/17 30/30/30 14/14/14
f 31/31/31 24/24/24 20/20/20
f 31/31/31 28/28/28 24/24/24
f 30/30/30 31/31/31 20/20/20
f 32/32/32 29/29/29 28/28/28
f 32/32/32 28/28/28 31/31/31
f 33/33/33 29/29/29 32/32/32
f 34/34/34 31/31/31 30/30/30
f 34/34/34 32/32/32 31/31/31
f 35/35/35 33/33/33 32/32/32
f 35/35/35 32/32/32 34/34/34
f 36/36/36 33/33/33 35/35/35
f 37/37/37 30/30/30 17/17/17
f 37/37/37 34/34/34 30/30/30
f 38/38/38 35/35/35 34/34/34
f 38/38/38 34/34/34 37/37/37
f 39/39/39 36/36/36 35/35/35
f 39/39/39 35/35/35 38/38/38
f 40/40/40 36/36/36 39/39/39
f 41/41/41 37/37/37 17/17/17
f 41/41/41 17/17/17 12/12/12
f 18/18/18 41/41/41 12/12/12
f 42/42/42 38/38/38 37/37/37
f 42/42/42 37/37/37 41/41/41
f 43/43/43 39/39/39 38/38/38
f 43/43/43 38/38/38 42/42/42
f 44/44/44 40/40/40 39/39/39
f 44/44/44 39/39/39 43/43/43
f 45/45/45 40/40/40 44/44/44
f 46/46/46 41/41/41 18/18/18
f 46/46/46 42/42/42 41/41/41
f 47/47/47 43/43/43 42/42/42
f 47/47/47 42/42/42 46/46/46
f 48/48/48 44/44/44 43/43/43
f 48/48/48 43/43/43 47/47/47
f 49/49/49 45/45/45 44/44/44
f 49/49/49 44/44/44 48/48/48
f 50/50/50 45/45/45 49/49/49
f 51/51/51 46/46/46 18/18/18
f 51/51/51 18/18/18 19/19/19
f 52/52/52 51/51/51 19/19/19
f 53/53/53 47/47/47 46/46/46
f 53/53/53 46/46/46 51/51/51
f 54/54/54 51/51/51 52/52/52
f 54/54/54 53/53/53 51/51/51
f 55/55/55 54/54/54 52/52/52
f 56/56/56 48/48/48 47/47/47
f 56/56/56 47/47/47 53/53/53
f 57/57/57 49/49/49 48/48/48
f 57/57/57 48/48/48 56/56/56
f 58/58/58 50/50/50 49/49/49
f 58/58/58 49/49/49 57/57/57
f 59/59/59 50/50/50 58/58/58
f 60/60/60 53/53/53 54/54/54
f 60/60/60 56/56/56 53/53/53
f 61/61/61 54/54/54 55/55/55
f 61/61/61 60/60/60 54/54/54
f 62/62/62 61/61/61 55/55/55
f 63/63/63 57/57/57 56/56/56
f 63/63/63 56/56/56 60/60/60
f 64/64/64 58/58/58 57/57/57
f 64/64/64 57/57/57 63/63/63
f 65/65/65 59/59/59 58/58/58
f 65/65/65 58/58/58 64/64/64
f 66/66/66 59/59/59 65/65/65
f 67/67/67 60/60/60 61/61/61
f 67/67/67 63/63/63 60/60/60
f 68/68/68 61/61/61 62/62/62
f 68/68/68 67/67/67 61/61/61
f 69/69/69 68/68/68 62/62/62
f 70/70/70 64/64/64 63/63/63
f 70/70/70 63/63/63 67/67/67
f 71/71/71 65/65/65 64/64/64
f 71/71/71 64/64/64 70/70/70
f 72/72/72 66/66/66 65/65/65
f 72/72/72 65/65/65 71/71/71
f 73/73/73 66/66/66 72/72/72
f 74/74/74 67/67/67 68/68/68
f 74/74/74 70/70/70 67/67/67
f 75/75/75 68/68/68 69/69/69
f 75/75/75 74/74/74 68/68/68
f 76/76/76 75/75/75 69/69/69
f 77/77/77 71/71/71 70/70/70
f 77/77/77 70/70/70 74/74/74
f 78/78/78 72/72/72 71/71/71
f 78/78/78 71/71/71 77/77/77
f 79/79/79 73/73/73 72/72/72
f 79/79/79 72/72/72 78/78/78
f 80/80/80 73/73/73 79/79/79
f 81/81/81 80/80/80 79/79/79
f 81/81/81 79/79/79 82/82/82
f 82/82/82 79/79/79 78/78/78
f 83/83/83 81/81/81 82/82/82
f 84/84/84 74/74/74 75/75/75
f 84/84/84 77/77/77 74/74/74
f 85/85/85 75/75/75 76/76/76
f 85/85/85 84/84/84 75/75/75
f 86/86/86 85/85/85 76/76/76
f 87/87/87 78/78/78 77/77/77
f 82/82/82 78/78/78 87/87/87
f 87/87/87 77/77/77 84/84/84
f 83/83/83 82/82/82 88/88/88
f 88/88/88 82/82/82 87/87/87
f 89/89/89 83/83/83 88/88/88
f 90/90/90 87/87/87 84/84/84
f 90/90/90 84/84/84 85/85/85
f 88/88/88 87/87/87 90/90/90
f 91/91/91 85/85/85 86/86/86
f 91/91/91 90/90/90 85/85/85
f 92/92/92 91/91/91 86/86/86
f 89/89/89 88/88/88 93/93/93
f 93/93/93 88/88/88 90/90/90
f 93/93/93 90/90/90 91/91/91
f 94/94/94 89/89/89 93/93/93
f 95/95/95 91/91/91 92/92/92
f 95/95/95 93/93/93 91/91/91
f 94/94/94 93/93/93 95/95/95
f 96/96/96 95/95/95 92/92/92
f 97/97/97 94/94/94 95/95/95
f 97/97/97 95/95/95 96/96/96
f 98/98/98 97/97/97 96/96/96
f 101/101/101 100/100/100 99/99/99
f 100/100/100 102/102/102 99/99/99
f 100/100/100 103/103/103 102/102/102
f 102/102/102 104/104/104 99/99/99
f 104/104/104 105/105/105 99/99/99
f 103/103/103 106/106/106 102/102/102
f 103/103/103 107/107/107 106/106/106
f 105/105/105 104/104/104 108/108/108
f 109/109/109 105/105/105 108/108/108
f 110/110/110 104/104/104 102/102/102
f 106/106/106 110/110/110 102/102/102
f 107/107/107 111/111/111 106/106/106
f 107/107/107 112/112/112 111/111/111
f 108/108/108 104/104/104 113/113/113
f 104/104/104 110/110/110 113/113/113
f 109/109/109 108/108/108 114/114/114
f 115/115/115 109/109/109 114/114/114
f 116/116/116 110/110/110 106/106/106
f 111/111/111 116/116/116 106/106/106
f 112/112/112 117/117/117 111/111/111
f 112/112/112 118/118/118 117/117/117
f 113/113/113 110/110/110 119/119/119
f 110/110/110 116/116/116 119/119/119
f 108/108/108 113/113/113 120/120/120
f 114/114/114 108/108/108 120/120/120
f 115/115/115 114/114/114 121/121/121
f 122/122/122 115/115/115 121/121/121
f 123/123/123 116/116/116 111/111/111
f 117/117/117 123/123/123 111/111/111
f 118/118/118 124/124/124 117/117/117
f 118/118/118 125/125/125 124/124/124
f 125/125/125 126/126/126 124/124/124
f 126/126/126 127/127/127 124/124/124
f 124/124/124 128/128/128 117/117/117
f 127/127/127 128/128/128 124/124/124
f 128/128/128 123/123/123 117/117/117
f 128/128/128 127/127/127 129/129/129
f 130/130/130 128/128/128 129/129/129
f 123/123/123 128/128/128 130/130/130
f 130/130/130 129/129/129 131/131/131
f 116/116/116 123/123/123 132/132/132
f 132/132/132 123/123/123 130/130/130
f 119/119/119 116/116/116 132/132/132
f 133/133/133 130/130/130 131/131/131
f 132/132/132 130/130/130 133/133/133
f 133/133/133 131/131/131 134/134/134
f 119/119/119 132/132/132 135/135/135
f 135/135/135 132/132/132 133/133/133
f 136/136/136 133/133/133 134/134/134
f 135/135/135 133/133/133 136/136/136
f 136/136/136 134/134/134 137/137/137
f 138/138/138 119/119/119 135/135/135
f 113/113/113 119/119/119 138/138/138
f 120/120/120 113/113/113 138/138/138
f 139/139/139 136/136/136 137/137/137
f 139/139/139 137/137/137 140/140/140
f 141/141/141 135/135/135 136/136/136
f 138/138/138 135/135/135 141/141/141
f 141/141/141 136/136/136 139/139/139
f 120/120/120 138/138/138 142/142/142
f 142/142/142 138/138/138 141/141/141
f 143/143/143 139/139/139 140/140/140
f 143/143/143 140/140/140 144/144/144
f 145/145/145 141/141/141 139/139/139
f 142/142/142 141/141/141 145/145/145
f 145/145/145 139/139/139 143/143/143
f 146/146/146 120/120/120 142/142/142
f 114/114/114 120/120/120 146/146/146
f 121/121/121 114/114/114 146/146/146
f 147/147/147 143/143/143 144/144/144
f 147/147/147 144/144/144 148/148/148
f 149/149/149 142/142/142 145/145/145
f 146/146/146 142/142/142 149/149/149
f 150/150/150 145/145/145 143/143/143
f 150/150/150 143/143/143 147/147/147
f 149/149/149 145/145/145 150/150/150
f 121/121/121 146/146/146 151/151/151
f 151/151/151 146/146/146 149/149/149
f 152/152/152 147/147/147 148/148/148
f 152/152/152 148/148/148 153/153/153
f 154/154/154 149/149/149 150/150/150
f 151/151/151 149/149/149 154/154/154
f 155/155/155 150/150/150 147/147/147
f 155/155/155 147/147/147 152/152/152
f 154/154/154 150/150/150 155/155/155
f 156/156/156 121/121/121 151/151/151
f 122/122/122 121/121/121 156/156/156
f 157/157/157 122/122/122 156/156/156
f 158/158/158 152/152/152 153/153/153
f 158/158/158 153/153/153 159/159/159
f 160/160/160 155/155/155 152/152/152
f 160/160/160 152/152/152 158/158/158
f 161/161/161 151/151/151 154/154/154
f 156/156/156 151/151/151 161/161/161
f 157/157/157 156/156/156 162/162/162
f 162/162/162 156/156/156 161/161/161
f 163/163/163 157/157/157 162/162/162
f 164/164/164 154/154/154 155/155/155
f 161/161/161 154/154/154 164/164/164
f 164/164/164 155/155/155 160/160/160
f 165/165/165 158/158/158 159/159/159
f 165/165/165 159/159/159 166/166/166
f 162/162/162 161/161/161 167/167/167
f 167/167/167 161/161/161 164/164/164
f 163/163/163 162/162/162 168/168/168
f 168/168/168 162/162/162 167/167/167
f 169/169/169 163/163/163 168/168/168
f 170/170/170 164/164/164 160/160/160
f 167/167/167 164/164/164 170/170/170
f 171/171/171 160/160/160 158/158/158
f 171/171/171 158/158/158 165/165/165
f 170/170/170 160/160/160 171/171/171
f 172/172/172 165/165/165 166/166/166
f 172/172/172 166/166/166 173/173/173
f 174/174/174 172/172/172 173/173/173
f 168/168/168 167/167/167 175/175/175
f 175/175/175 167/167/167 170/170/170
f 169/169/169 168/168/168 176/176/176
f 176/176/176 168/168/168 175/175/175
f 177/177/177 169/169/169 176/176/176
f 178/178/178 170/170/170 171/171/171
f 175/175/175 170/170/170 178/178/178
f 179/179/179 171/171/171 165/165/165
f 179/179/179 165/165/165 172/172/172
f 178/178/178 171/171/171 179/179/179
f 180/180/180 172/172/172 174/174/174
f 180/180/180 179/179/179 172/172/172
f 181/181/181 180/180/180 174/174/174
f 176/176/176 175/175/175 182/182/182
f 182/182/182 175/175/175 178/178/178
f 177/177/177 176/176/176 183/183/183
f 183/183/183 176/176/176 182/182/182
f 184/184/184 177/177/177 183/183/183
f 185/185/185 178/178/178 179/179/179
f 185/185/185 179/179/179 180/180/180
f 182/182/182 178/178/178 185/185/185
f 186/186/186 180/180/180 181/181/181
f 186/186/186 185/185/185 180/180/180
f 187/187/187 186/186/186 181/181/181
f 188/188/188 182/182/182 185/185/185
f 183/183/183 182/182/182 188/188/188
f 188/188/188 185/185/185 186/186/186
f 184/184/184 183/183/183 189/189/189
f 189/189/189 183/183/183 188/188/188
f 190/190/190 184/184/184 189/189/189
f 191/191/191 186/186/186 187/187/187
f 191/191/191 188/188/188 186/186/186
f 189/189/189 188/188/188 191/191/191
f 192/192/192 191/191/191 187/187/187
f 190/190/190 189/189/189 193/193/193
f 193/193/193 189/189/189 191/191/191
f 193/193/193 191/191/191 192/192/192
f 194/194/194 190/190/190 193/193/193
f 195/195/195 193/193/193 192/192/192
f 194/194/194 193/193/193 195/195/195
f 196/196/196 194/194/194 195/195/195
