g SculleryLight
v 0.2982357 -0.2971777 0.05559886
v 0.2582906 -0.2971777 0.2047124
v 0.2582906 0.2971777 0.2047124
v 0.2982357 0.2971777 0.05559886
v 0.2582906 -0.2971777 -0.093532
v 0.2582906 0.2971777 -0.093532
v 0.1491222 -0.2971777 -0.202683
v 0.1491222 0.2971777 -0.202683
v -8.702278E-06 -0.2971777 -0.2426455
v -8.702278E-06 0.2971777 -0.2426455
v -0.1491222 -0.2971777 -0.202683
v -0.1491222 0.2971777 -0.202683
v -0.2582906 -0.2971777 -0.093532
v -0.2582906 0.2971777 -0.093532
v -0.2982357 -0.2971777 0.05559886
v -0.2982357 0.2971777 0.05559886
v -0.2582906 -0.2971777 0.2047124
v -0.2582906 0.2971777 0.2047124
v -0.2929629 0.2844813 0.2276596
v -0.2929629 0.254492 0.2276596
v -0.338285 0.254492 0.05851281
v -0.338285 0.2844813 0.05851281
v -0.2929629 0.254492 -0.110634
v -0.2974899 0.3965983 0.05851281
v -0.2576315 0.3965983 0.2072448
v -0.2929629 0.2844813 -0.110634
v -0.1691381 0.254492 -0.2344588
v -0.2208084 0.4879882 0.05851281
v -0.1912181 0.4879882 0.1689126
v -0.2576315 0.3965983 -0.09023649
v -0.1691381 0.2844813 -0.2344588
v -8.702278E-06 0.254492 -0.2797808
v -0.1174852 0.547637 0.05851281
v -0.1017535 0.547637 0.1172424
v -0.1912181 0.4879882 -0.05190438
v -0.1487406 0.3965983 -0.1991273
v -8.702278E-06 0.2844813 -0.2797808
v 0.1691381 0.254492 -0.2344588
v -8.702278E-06 0.5683468 0.05851281
v -0.05873829 0.547637 0.1602576
v -8.702278E-06 0.547637 0.1759893
v 0.05873829 0.547637 0.1602576
v 0.1017534 0.547637 0.1172424
v -0.1104085 0.4879882 -0.132714
v -8.702278E-06 0.3965983 -0.2389858
v 0.1691381 0.2844813 -0.2344588
v 0.2929629 0.254492 -0.110634
v -8.702278E-06 0.4879882 -0.1623043
v 0.1487406 0.3965983 -0.1991273
v 0.2929629 0.2844813 -0.110634
v 0.3382849 0.254492 0.05851281
v 0.1104085 0.4879882 -0.132714
v 0.2576315 0.3965983 -0.09023649
v 0.3382849 0.2844813 0.05851281
v 0.2929629 0.254492 0.2276596
v 0.2929629 0.2844813 0.2276596
v 0.2576315 0.3965983 0.2072448
v 0.2974899 0.3965983 0.05851281
v 0.1912181 0.4879882 0.1689126
v 0.2208084 0.4879882 0.05851281
v 0.1912181 0.4879882 -0.05190438
v 0.1174852 0.547637 0.05851281
v 0.1017534 0.547637 -0.000234127
v 0.05873829 0.547637 -0.04324931
v -8.702278E-06 0.547637 -0.05898112
v -0.05873829 0.547637 -0.04324931
v -0.1017535 0.547637 -0.000234127
v 0.2778382 -0.254492 0.05851281
v 0.2929629 -0.254492 0.2276596
v 0.2481612 -0.254492 0.1692595
v 0.3382849 -0.254492 0.05851281
v 0.2406162 -0.254492 -0.0804193
v 0.2929629 -0.2844813 0.2276596
v 0.2929629 -0.254492 -0.110634
v 0.1389234 -0.254492 -0.1821121
v 0.3382849 -0.2844813 0.05851281
v 0.1691381 -0.254492 -0.2344588
v -8.702278E-06 -0.254492 -0.2193341
v 0.2974899 -0.3965983 0.05851281
v 0.2576315 -0.3965983 0.2072448
v 0.2929629 -0.2844813 -0.110634
v -8.702278E-06 -0.254492 -0.2797808
v -0.1389235 -0.254492 -0.1821121
v 0.2576315 -0.3965983 -0.09023649
v 0.2208084 -0.4879882 0.05851281
v 0.1912181 -0.4879882 0.1689126
v 0.1691381 -0.2844813 -0.2344588
v -0.1691381 -0.254492 -0.2344588
v -0.2406162 -0.254492 -0.0804193
v 0.1487406 -0.3965983 -0.1991273
v 0.1912181 -0.4879882 -0.05190438
v 0.1174852 -0.547637 0.05851281
v 0.1017534 -0.547637 0.1172424
v -8.702278E-06 -0.2844813 -0.2797808
v -0.2929629 -0.254492 -0.110634
v -0.2778382 -0.254492 0.05851281
v 0.1017534 -0.547637 -0.000234127
v -8.702278E-06 -0.5683468 0.05851281
v 0.05873829 -0.547637 0.1602576
v -8.702278E-06 -0.547637 0.1759893
v -0.05873829 -0.547637 0.1602576
v -0.1017535 -0.547637 0.1172424
v 0.05873829 -0.547637 -0.04324931
v 0.1104085 -0.4879882 -0.132714
v -8.702278E-06 -0.547637 -0.05898112
v -8.702278E-06 -0.4879882 -0.1623043
v -0.05873829 -0.547637 -0.04324931
v -8.702278E-06 -0.3965983 -0.2389858
v -0.1104085 -0.4879882 -0.132714
v -0.1017535 -0.547637 -0.000234127
v -0.1487406 -0.3965983 -0.1991273
v -0.1174852 -0.547637 0.05851281
v -0.1912181 -0.4879882 -0.05190438
v -0.2208084 -0.4879882 0.05851281
v -0.1912181 -0.4879882 0.1689126
v -0.1691381 -0.2844813 -0.2344588
v -0.2576315 -0.3965983 -0.09023649
v -0.2974899 -0.3965983 0.05851281
v -0.2576315 -0.3965983 0.2072448
v -0.2929629 -0.2844813 -0.110634
v -0.338285 -0.2844813 0.05851281
v -0.2929629 -0.2844813 0.2276596
v -0.2929629 -0.254492 0.2276596
v -0.338285 -0.254492 0.05851281
v -0.2481612 -0.254492 0.1692595
v 0.2345108 0.254492 0.1514637
v 0.2929629 0.254492 0.2276596
v 0.3382849 0.254492 0.05851281
v 0.259418 0.254492 0.05851281
v 0.2929629 0.254492 -0.110634
v 0.2246589 0.254492 -0.07120919
v 0.1691381 0.254492 -0.2344588
v 0.1297133 0.254492 -0.1661548
v -8.702278E-06 0.254492 -0.2797808
v -8.702278E-06 0.254492 -0.2009139
v -0.1691381 0.254492 -0.2344588
v -0.1297134 0.254492 -0.1661548
v -0.2929629 0.254492 -0.110634
v -0.224659 0.254492 -0.07120919
v -0.338285 0.254492 0.05851281
v -0.259418 0.254492 0.05851281
v -0.2929629 0.254492 0.2276596
v -0.2345108 0.254492 0.1514637
vn 0.9999924 0.003921509 0
vn 0.9686201 0.003921509 0.2485151
vn 0.9686201 0.003921509 0.2485151
vn 0.9999924 0.003921509 0
vn 0.8666601 0.003921509 -0.4988837
vn 0.8666601 0.003921509 -0.4988837
vn 0.4980354 0.003921509 -0.8671478
vn 0.4980354 0.003921509 -0.8671478
vn -0.003921509 0.003921509 -0.9999846
vn -0.003921509 0.003921509 -0.9999846
vn -0.4980353 0.003921509 -0.8671479
vn -0.4980353 0.003921509 -0.8671479
vn -0.86666 0.003921509 -0.4988838
vn -0.86666 0.003921509 -0.4988838
vn -0.9999923 0.003921509 -0.0003449296
vn -0.9999923 0.003921509 -0.0003449296
vn -0.9686199 0.003921509 0.2485156
vn -0.9686199 0.003921509 0.2485156
vn -0.9529338 0.1607831 0.2570331
vn -0.6862692 0.7097985 0.1588104
vn -0.6941123 0.7176415 -0.05655848
vn -0.9843061 0.1686261 -0.05202661
vn -0.5999954 0.7176415 -0.3535482
vn -0.8723059 0.4889607 0
vn -0.8509738 0.4745061 0.2251387
vn -0.8509738 0.1686261 -0.497402
vn -0.3490169 0.7176415 -0.6026424
vn -0.6626585 0.7489218 0
vn -0.6470538 0.7411708 0.1788498
vn -0.7568569 0.4901923 -0.4322952
vn -0.4901923 0.1686261 -0.8551472
vn -0.003921509 0.7176415 -0.6964017
vn -0.3647031 0.9294046 -0.05655743
vn -0.2941153 0.9529338 0.0735759
vn -0.5686231 0.7490138 -0.3400679
vn -0.4352907 0.4901923 -0.7551381
vn -0.003921509 0.1686261 -0.9856723
vn 0.349017 0.7176415 -0.6026424
vn -0.003921509 0.9999923 -0.000345267
vn -0.0901953 0.9843061 0.1516783
vn -0.003921509 0.9843061 0.176426
vn 0.09019542 0.9843061 0.1516783
vn 0.2941154 0.9529338 0.0735755
vn -0.3333308 0.7490138 -0.5725985
vn -0.003921509 0.4901923 -0.8716055
vn 0.4901924 0.1686261 -0.8551472
vn 0.5999954 0.7176415 -0.353548
vn -0.003921509 0.7490138 -0.6625428
vn 0.4352908 0.4901923 -0.755138
vn 0.8509739 0.1686261 -0.497402
vn 0.6941124 0.7176415 -0.05655743
vn 0.3333308 0.7490138 -0.5725984
vn 0.756857 0.4901923 -0.4322951
vn 0.9843062 0.1686261 -0.05202432
vn 0.6862693 0.7097985 0.15881
vn 0.9529339 0.1607831 0.2570327
vn 0.8509739 0.4745061 0.2251385
vn 0.8723059 0.4889607 0
vn 0.6470539 0.7411708 0.1788495
vn 0.6626585 0.7489216 0
vn 0.5686231 0.7490138 -0.3400678
vn 0.3647031 0.9294046 -0.0565569
vn 0.3176447 0.9294046 -0.1879066
vn 0.1843123 0.9294046 -0.3197436
vn -0.003921509 0.9294046 -0.3690416
vn -0.1843122 0.9294046 -0.3197437
vn -0.3176446 0.9294046 -0.1879068
vn -0.003921509 0.9999923 -0.000345267
vn 0.8352877 0.5058784 0.2153633
vn -0.003921509 0.9999923 -0.000345267
vn 0.756206 0.6543336 0
vn -0.003921509 0.9999923 -0.000345267
vn 0.9529339 -0.1607831 0.2570326
vn 0.654897 0.6548969 -0.3771207
vn -0.003921509 0.9999923 -0.000345267
vn 0.9843062 -0.1686262 -0.05202392
vn 0.3803893 0.6548969 -0.6530039
vn -0.003921509 0.9999923 -0.000345267
vn 0.8723059 -0.4889607 0
vn 0.8509739 -0.4745062 0.2251384
vn 0.8509739 -0.1686262 -0.4974019
vn -0.003921509 0.6548969 -0.7557081
vn -0.003921509 0.9999923 -0.000345267
vn 0.756857 -0.4901924 -0.432295
vn 0.6626585 -0.7489218 0
vn 0.6470539 -0.7411708 0.1788493
vn 0.4901924 -0.1686262 -0.8551471
vn -0.3803892 0.6548969 -0.6530039
vn -0.003921509 0.9999923 -0.000345267
vn 0.4352908 -0.4901924 -0.755138
vn 0.5686231 -0.7490139 -0.3400676
vn 0.3647031 -0.9294047 -0.05655585
vn 0.2941154 -0.9529339 0.07357387
vn -0.003921509 -0.1686262 -0.9856722
vn -0.6548969 0.6548969 -0.377121
vn -0.003921509 0.9999923 -0.000345267
vn 0.3176447 -0.9294047 -0.1879063
vn -0.003921509 -0.9999924 0
vn 0.09019542 -0.9843062 0.1516776
vn -0.003921509 -0.9843062 0.1764254
vn -0.0901953 -0.9843062 0.1516776
vn -0.2941153 -0.9529339 0.07357428
vn 0.1843123 -0.9294047 -0.3197434
vn 0.3333308 -0.7490139 -0.5725983
vn -0.003921509 -0.9294047 -0.3690414
vn -0.003921509 -0.7490139 -0.6625427
vn -0.1843122 -0.9294047 -0.3197435
vn -0.003921509 -0.4901924 -0.8716055
vn -0.3333308 -0.7490139 -0.5725983
vn -0.3176446 -0.9294047 -0.1879065
vn -0.4352907 -0.4901924 -0.755138
vn -0.3647031 -0.9294047 -0.05655638
vn -0.5686231 -0.7490139 -0.3400677
vn -0.6626585 -0.7489218 0
vn -0.6470538 -0.7411708 0.1788496
vn -0.4901923 -0.1686262 -0.8551472
vn -0.7568569 -0.4901924 -0.4322951
vn -0.8723058 -0.4889607 0
vn -0.8509738 -0.4745062 0.2251386
vn -0.8509738 -0.1686262 -0.497402
vn -0.9843061 -0.1686262 -0.05202622
vn -0.9529338 -0.1607831 0.2570331
vn -0.8352877 0.5058784 0.2153636
vn -0.756206 0.6543336 0
vn -0.003921509 0.9999923 -0.000345267
vn -0.003921509 -0.9999924 0
vn -0.003921509 0.9999923 -0.000345267
vn -0.003921509 0.9999923 -0.000345267
vn -0.003921509 -0.9999924 0
vn -0.003921509 0.9999923 -0.000345267
vn -0.003921509 -0.9999924 0
vn -0.003921509 0.9999923 -0.000345267
vn -0.003921509 -0.9999924 0
vn -0.003921509 0.9999923 -0.000345267
vn -0.003921509 -0.9999924 0
vn -0.003921509 0.9999923 -0.000345267
vn -0.003921509 -0.9999924 0
vn -0.003921509 0.9999923 -0.000345267
vn -0.003921509 -0.9999924 0
vn -0.003921509 0.9999923 -0.000345267
vn -0.003921509 -0.9999924 0
vn -0.003921509 0.9999923 -0.000345267
vn -0.003921509 -0.9999924 0
g SculleryLight_0
f 3/3/3 2/2/2 1/1/1
f 4/4/4 3/3/3 1/1/1
f 4/4/4 1/1/1 5/5/5
f 6/6/6 4/4/4 5/5/5
f 6/6/6 5/5/5 7/7/7
f 8/8/8 6/6/6 7/7/7
f 8/8/8 7/7/7 9/9/9
f 10/10/10 8/8/8 9/9/9
f 10/10/10 9/9/9 11/11/11
f 12/12/12 10/10/10 11/11/11
f 12/12/12 11/11/11 13/13/13
f 14/14/14 12/12/12 13/13/13
f 14/14/14 13/13/13 15/15/15
f 16/16/16 14/14/14 15/15/15
f 16/16/16 15/15/15 17/17/17
f 18/18/18 16/16/16 17/17/17
f 21/21/21 20/20/20 19/19/19
f 22/22/22 21/21/21 19/19/19
f 23/23/23 21/21/21 22/22/22
f 24/24/24 22/22/22 19/19/19
f 25/25/25 24/24/24 19/19/19
f 26/26/26 23/23/23 22/22/22
f 27/27/27 23/23/23 26/26/26
f 28/28/28 24/24/24 25/25/25
f 29/29/29 28/28/28 25/25/25
f 24/24/24 30/30/30 22/22/22
f 30/30/30 26/26/26 22/22/22
f 31/31/31 27/27/27 26/26/26
f 32/32/32 27/27/27 31/31/31
f 33/33/33 28/28/28 29/29/29
f 34/34/34 33/33/33 29/29/29
f 28/28/28 35/35/35 24/24/24
f 35/35/35 30/30/30 24/24/24
f 30/30/30 36/36/36 26/26/26
f 36/36/36 31/31/31 26/26/26
f 37/37/37 32/32/32 31/31/31
f 38/38/38 32/32/32 37/37/37
f 39/39/39 33/33/33 34/34/34
f 39/39/39 34/34/34 40/40/40
f 39/39/39 40/40/40 41/41/41
f 39/39/39 41/41/41 42/42/42
f 39/39/39 42/42/42 43/43/43
f 35/35/35 44/44/44 30/30/30
f 44/44/44 36/36/36 30/30/30
f 36/36/36 45/45/45 31/31/31
f 45/45/45 37/37/37 31/31/31
f 46/46/46 38/38/38 37/37/37
f 47/47/47 38/38/38 46/46/46
f 44/44/44 48/48/48 36/36/36
f 48/48/48 45/45/45 36/36/36
f 45/45/45 49/49/49 37/37/37
f 49/49/49 46/46/46 37/37/37
f 50/50/50 47/47/47 46/46/46
f 51/51/51 47/47/47 50/50/50
f 48/48/48 52/52/52 45/45/45
f 52/52/52 49/49/49 45/45/45
f 49/49/49 53/53/53 46/46/46
f 53/53/53 50/50/50 46/46/46
f 54/54/54 51/51/51 50/50/50
f 55/55/55 51/51/51 54/54/54
f 56/56/56 55/55/55 54/54/54
f 57/57/57 56/56/56 54/54/54
f 58/58/58 54/54/54 50/50/50
f 58/58/58 57/57/57 54/54/54
f 53/53/53 58/58/58 50/50/50
f 59/59/59 57/57/57 58/58/58
f 60/60/60 59/59/59 58/58/58
f 60/60/60 58/58/58 53/53/53
f 43/43/43 59/59/59 60/60/60
f 61/61/61 53/53/53 49/49/49
f 61/61/61 60/60/60 53/53/53
f 52/52/52 61/61/61 49/49/49
f 62/62/62 43/43/43 60/60/60
f 62/62/62 60/60/60 61/61/61
f 39/39/39 43/43/43 62/62/62
f 63/63/63 62/62/62 61/61/61
f 63/63/63 61/61/61 52/52/52
f 39/39/39 62/62/62 63/63/63
f 64/64/64 63/63/63 52/52/52
f 39/39/39 63/63/63 64/64/64
f 64/64/64 52/52/52 48/48/48
f 65/65/65 64/64/64 48/48/48
f 39/39/39 64/64/64 65/65/65
f 65/65/65 48/48/48 44/44/44
f 66/66/66 65/65/65 44/44/44
f 39/39/39 65/65/65 66/66/66
f 66/66/66 44/44/44 35/35/35
f 39/39/39 66/66/66 67/67/67
f 67/67/67 66/66/66 35/35/35
f 39/39/39 67/67/67 33/33/33
f 67/67/67 35/35/35 28/28/28
f 33/33/33 67/67/67 28/28/28
f 70/70/70 69/69/69 68/68/68
f 69/69/69 71/71/71 68/68/68
f 68/68/68 71/71/71 72/72/72
f 71/71/71 69/69/69 73/73/73
f 71/71/71 74/74/74 72/72/72
f 72/72/72 74/74/74 75/75/75
f 76/76/76 71/71/71 73/73/73
f 74/74/74 71/71/71 76/76/76
f 74/74/74 77/77/77 75/75/75
f 75/75/75 77/77/77 78/78/78
f 76/76/76 73/73/73 79/79/79
f 73/73/73 80/80/80 79/79/79
f 81/81/81 74/74/74 76/76/76
f 77/77/77 74/74/74 81/81/81
f 77/77/77 82/82/82 78/78/78
f 78/78/78 82/82/82 83/83/83
f 76/76/76 79/79/79 84/84/84
f 81/81/81 76/76/76 84/84/84
f 79/79/79 80/80/80 85/85/85
f 80/80/80 86/86/86 85/85/85
f 87/87/87 77/77/77 81/81/81
f 82/82/82 77/77/77 87/87/87
f 82/82/82 88/88/88 83/83/83
f 83/83/83 88/88/88 89/89/89
f 81/81/81 84/84/84 90/90/90
f 87/87/87 81/81/81 90/90/90
f 84/84/84 79/79/79 91/91/91
f 79/79/79 85/85/85 91/91/91
f 85/85/85 86/86/86 92/92/92
f 86/86/86 93/93/93 92/92/92
f 94/94/94 82/82/82 87/87/87
f 88/88/88 82/82/82 94/94/94
f 88/88/88 95/95/95 89/89/89
f 89/89/89 95/95/95 96/96/96
f 85/85/85 92/92/92 97/97/97
f 91/91/91 85/85/85 97/97/97
f 92/92/92 93/93/93 98/98/98
f 97/97/97 92/92/92 98/98/98
f 93/93/93 99/99/99 98/98/98
f 99/99/99 100/100/100 98/98/98
f 100/100/100 101/101/101 98/98/98
f 101/101/101 102/102/102 98/98/98
f 91/91/91 97/97/97 103/103/103
f 103/103/103 97/97/97 98/98/98
f 104/104/104 91/91/91 103/103/103
f 84/84/84 91/91/91 104/104/104
f 90/90/90 84/84/84 104/104/104
f 104/104/104 103/103/103 105/105/105
f 105/105/105 103/103/103 98/98/98
f 90/90/90 104/104/104 106/106/106
f 106/106/106 104/104/104 105/105/105
f 107/107/107 105/105/105 98/98/98
f 106/106/106 105/105/105 107/107/107
f 108/108/108 90/90/90 106/106/106
f 87/87/87 90/90/90 108/108/108
f 94/94/94 87/87/87 108/108/108
f 109/109/109 106/106/106 107/107/107
f 108/108/108 106/106/106 109/109/109
f 110/110/110 107/107/107 98/98/98
f 109/109/109 107/107/107 110/110/110
f 94/94/94 108/108/108 111/111/111
f 111/111/111 108/108/108 109/109/109
f 112/112/112 110/110/110 98/98/98
f 102/102/102 112/112/112 98/98/98
f 113/113/113 109/109/109 110/110/110
f 113/113/113 110/110/110 112/112/112
f 111/111/111 109/109/109 113/113/113
f 114/114/114 112/112/112 102/102/102
f 114/114/114 113/113/113 112/112/112
f 115/115/115 114/114/114 102/102/102
f 116/116/116 94/94/94 111/111/111
f 116/116/116 88/88/88 94/94/94
f 95/95/95 88/88/88 116/116/116
f 117/117/117 111/111/111 113/113/113
f 117/117/117 113/113/113 114/114/114
f 116/116/116 111/111/111 117/117/117
f 118/118/118 114/114/114 115/115/115
f 118/118/118 117/117/117 114/114/114
f 119/119/119 118/118/118 115/115/115
f 120/120/120 116/116/116 117/117/117
f 120/120/120 95/95/95 116/116/116
f 120/120/120 117/117/117 118/118/118
f 121/121/121 118/118/118 119/119/119
f 121/121/121 120/120/120 118/118/118
f 122/122/122 121/121/121 119/119/119
f 122/122/122 123/123/123 121/121/121
f 124/124/124 95/95/95 120/120/120
f 121/121/121 124/124/124 120/120/120
f 123/123/123 124/124/124 121/121/121
f 95/95/95 124/124/124 96/96/96
f 124/124/124 123/123/123 125/125/125
f 96/96/96 124/124/124 125/125/125
f 128/128/128 127/127/127 126/126/126
f 129/129/129 128/128/128 126/126/126
f 130/130/130 128/128/128 129/129/129
f 131/131/131 130/130/130 129/129/129
f 132/132/132 130/130/130 131/131/131
f 133/133/133 132/132/132 131/131/131
f 134/134/134 132/132/132 133/133/133
f 135/135/135 134/134/134 133/133/133
f 136/136/136 134/134/134 135/135/135
f 137/137/137 136/136/136 135/135/135
f 138/138/138 136/136/136 137/137/137
f 139/139/139 138/138/138 137/137/137
f 140/140/140 138/138/138 139/139/139
f 141/141/141 140/140/140 139/139/139
f 142/142/142 140/140/140 141/141/141
f 143/143/143 142/142/142 141/141/141
