g SculleryDoorR
v 0.9445142 2.401772 -0.098979
v 1.095797 2.33905 -0.098979
v 1.095797 2.33905 0.09901786
v 0.9445142 2.401772 0.09901786
v 1.27947 2.33905 0.09901786
v 1.095797 2.33905 -0.098979
v 1.27947 2.33905 -0.098979
v 1.430847 2.401772 0.09901786
v 1.430847 2.401772 -0.098979
v 1.560691 2.531617 0.09901786
v 1.560691 2.531617 -0.098979
v 1.62332 2.682899 0.09901786
v 1.62332 2.682899 -0.098979
v 1.62332 2.866573 0.09901786
v 1.62332 2.866573 -0.098979
v 1.62332 2.866573 -0.098979
v 1.560691 3.017856 0.09901786
v 1.62332 2.866573 0.09901786
v 1.560691 3.017856 -0.098979
v 1.430847 3.147794 0.09901786
v 1.560691 3.017856 0.09901786
v 1.430847 3.147794 -0.098979
v 1.27947 3.210423 0.09901786
v 1.27947 3.210423 -0.098979
v 1.095797 3.210423 0.09901786
v 1.095797 3.210423 -0.098979
v 0.9445142 3.147794 0.09901786
v 0.9445142 3.147794 -0.098979
v 0.8146695 3.017856 0.09901786
v 0.8146695 3.017856 -0.098979
v 0.7519472 2.866573 0.09901786
v 0.7519472 2.866573 -0.098979
v 0.7519472 2.682899 0.09901786
v 0.7519472 2.682899 -0.098979
v 0.8146695 2.531617 0.09901786
v 0.8146695 2.531617 -0.098979
v 0.9445142 2.401772 0.09901786
v 0.9445142 2.401772 -0.098979
v 0.1095575 0.04977608 0.07495856
v 0.1095575 0.04977608 -0.0750134
v 0.08474946 0.07729912 -0.0750134
v 0.08474946 0.07729912 0.07495856
v 0.08474946 4.092281 0.07495856
v 0.08474946 4.092281 -0.0750134
v 0.1095575 4.119804 -0.0750134
v 0.1095575 4.092281 0.09995389
v 0.1095575 4.119804 0.07495856
v 0.1095575 0.07729912 0.09995389
v 1.990574 4.119804 0.07495856
v 1.990574 4.119804 -0.0750134
v 2.015288 4.092281 -0.0750134
v 1.990574 4.092281 0.09995389
v 2.015288 4.092281 0.07495856
v 1.990574 0.07729912 0.09995389
v 2.015288 0.07729912 0.07495856
v 2.015288 0.07729912 -0.0750134
v 1.990574 0.04977608 -0.0750134
v 1.990574 0.04977608 0.07495856
v 1.990574 0.04977608 -0.0750134
v 0.1095575 0.04977608 -0.0750134
v 1.990574 0.07729912 -0.1000087
v 2.015288 0.07729912 -0.0750134
v 0.1095575 0.07729912 -0.1000087
v 0.08474946 0.07729912 -0.0750134
v 0.08474946 4.092281 -0.0750134
v 0.1095575 4.092281 -0.1000087
v 0.1095575 4.119804 -0.0750134
v 1.990574 4.119804 -0.0750134
v 1.990574 4.092281 -0.1000087
v 2.015288 4.092281 -0.0750134
v 0.0354141 2.874062 0.02496791
v 0.0354141 3.433041 0.02496791
v 0.09036636 3.433041 0.02496791
v 0.09036636 2.874062 0.02496791
v 0.09036636 2.874062 -0.02502275
v 0.0354141 2.874062 0.02496791
v 0.09036636 2.874062 0.02496791
v 0.0354141 2.874062 -0.02502275
v 0.0354141 3.433041 0.02496791
v 0.0354141 3.433041 -0.02502275
v 0.09036636 3.433041 -0.02502275
v 0.09036636 3.433041 0.02496791
v 0.0354141 0.7567604 0.02496791
v 0.0354141 1.315832 0.02496791
v 0.09036636 1.315832 0.02496791
v 0.09036636 0.7567604 0.02496791
v 0.09036636 0.7567604 -0.02502275
v 0.0354141 0.7567604 0.02496791
v 0.09036636 0.7567604 0.02496791
v 0.0354141 0.7567604 -0.02502275
v 0.0354141 1.315832 0.02496791
v 0.0354141 1.315832 -0.02502275
v 0.09036636 1.315832 -0.02502275
v 0.09036636 1.315832 0.02496791
vt 0.3712256 0.6588451
vt 0.3693018 0.6588451
vt 0.3693018 0.6588451
vt 0.3712256 0.6588451
vt 0.3683398 0.6588451
vt 0.3693018 0.6588451
vt 0.3683398 0.6588451
vt 0.3664159 0.6588451
vt 0.3664159 0.6588451
vt 0.365454 0.6598071
vt 0.365454 0.6598071
vt 0.365454 0.6598071
vt 0.365454 0.6598071
vt 0.365454 0.660769
vt 0.365454 0.660769
vt 0.365454 0.660769
vt 0.365454 0.6617309
vt 0.365454 0.660769
vt 0.365454 0.6617309
vt 0.3664159 0.6617309
vt 0.365454 0.6617309
vt 0.3664159 0.6617309
vt 0.3683398 0.6626929
vt 0.3683398 0.6626929
vt 0.3693018 0.6626929
vt 0.3693018 0.6626929
vt 0.3712256 0.6617309
vt 0.3712256 0.6617309
vt 0.3721876 0.6617309
vt 0.3721876 0.6617309
vt 0.3721876 0.660769
vt 0.3721876 0.660769
vt 0.3721876 0.6598071
vt 0.3721876 0.6598071
vt 0.3721876 0.6598071
vt 0.3721876 0.6598071
vt 0.3712256 0.6588451
vt 0.3712256 0.6588451
vt 0.04705243 0.005689082
vt 0.04705243 0.005689082
vt 0.03454723 0.01242265
vt 0.03454723 0.01242265
vt 0.03454723 0.9791706
vt 0.03454723 0.9791706
vt 0.04705243 0.9859042
vt 0.04705243 0.9791706
vt 0.04705243 0.9859042
vt 0.04705243 0.01242265
vt 0.9522363 0.9859042
vt 0.9522363 0.9859042
vt 0.9647415 0.9791706
vt 0.9522363 0.9791706
vt 0.9647415 0.9791706
vt 0.9522363 0.01242265
vt 0.9647415 0.01242265
vt 0.9647415 0.01242265
vt 0.9522363 0.005689082
vt 0.9522363 0.005689082
vt 0.9522363 0.005689082
vt 0.04705243 0.005689082
vt 0.9522363 0.01242265
vt 0.9647415 0.01242265
vt 0.04705243 0.01242265
vt 0.03454723 0.01242265
vt 0.03454723 0.9791706
vt 0.04705243 0.9791706
vt 0.04705243 0.9859042
vt 0.9522363 0.9859042
vt 0.9522363 0.9791706
vt 0.9647415 0.9791706
vt 0.03166141 0.4770388
vt 0.03166141 0.6271012
vt 0.001841329 0.6271012
vt 0.001841329 0.4770388
vt 0.001841329 0.4770388
vt 0.03166141 0.4770388
vt 0.001841329 0.4770388
vt 0.03166141 0.4770388
vt 0.03166141 0.6271012
vt 0.03166141 0.6271012
vt 0.001841329 0.6271012
vt 0.001841329 0.6271012
vt 0.03166141 0.4770388
vt 0.03166141 0.6271012
vt 0.001841329 0.6271012
vt 0.001841329 0.4770388
vt 0.001841329 0.4770388
vt 0.03166141 0.4770388
vt 0.001841329 0.4770388
vt 0.03166141 0.4770388
vt 0.03166141 0.6271012
vt 0.03166141 0.6271012
vt 0.001841329 0.6271012
vt 0.001841329 0.6271012
vn 0.5555841 0.8314603 0
vn 0.1961161 0.9805805 -0.000545915
vn 0.1961161 0.9805805 -0.000545915
vn 0.5555841 0.8314603 0
vn -0.196116 0.9805805 -0.00059802
vn 0.1961161 0.9805805 -0.000545915
vn -0.196116 0.9805805 -0.00059802
vn -0.5555841 0.8314603 0
vn -0.5555841 0.8314603 0
vn -0.8314603 0.5555841 0
vn -0.8314603 0.5555841 0
vn -0.9805805 0.196116 -0.0006042172
vn -0.9805805 0.196116 -0.0006042172
vn -0.9805805 -0.1961161 -0.0005660168
vn -0.9805805 -0.1961161 -0.0005660168
vn -0.9805805 -0.1961161 -0.0005660168
vn -0.8314603 -0.5555841 0
vn -0.9805805 -0.1961161 -0.0005660168
vn -0.8314603 -0.5555841 0
vn -0.5555841 -0.8314604 0
vn -0.8314603 -0.5555841 0
vn -0.5555841 -0.8314604 0
vn -0.196116 -0.9805806 -0.000345267
vn -0.196116 -0.9805806 -0.000345267
vn 0.1961161 -0.9805806 -0.0002441406
vn 0.1961161 -0.9805806 -0.0002441406
vn 0.5555841 -0.8314602 0
vn 0.5555841 -0.8314602 0
vn 0.8314602 -0.5555841 0
vn 0.8314602 -0.5555841 0
vn 0.9805806 -0.1961161 -0.0002862803
vn 0.9805806 -0.1961161 -0.0002862803
vn 0.9805806 0.196116 -0.000355893
vn 0.9805806 0.196116 -0.000355893
vn 0.8314604 0.5555841 0
vn 0.8314604 0.5555841 0
vn 0.5555841 0.8314603 0
vn 0.5555841 0.8314603 0
vn -0.3576235 -0.8652182 0.3514297
vn -0.3576235 -0.8652182 -0.3514297
vn -0.8805998 -0.3191694 -0.3502497
vn -0.8805998 -0.3191694 0.3502497
vn -0.8805998 0.3191693 0.3502498
vn -0.8805998 0.3191693 -0.3502498
vn -0.3576235 0.8652181 -0.35143
vn -0.3499326 0.3191693 0.8807259
vn -0.3576235 0.8652181 0.35143
vn -0.3499326 -0.3191694 0.8807259
vn 0.3576236 0.8652181 0.3514299
vn 0.3576236 0.8652181 -0.3514299
vn 0.8805999 0.3191693 -0.3502496
vn 0.3499327 0.3191693 0.8807259
vn 0.8805999 0.3191693 0.3502496
vn 0.3499327 -0.3191694 0.8807258
vn 0.8805999 -0.3191694 0.3502496
vn 0.8805999 -0.3191694 -0.3502496
vn 0.3576236 -0.8652182 -0.3514296
vn 0.3576236 -0.8652182 0.3514296
vn 0.3576236 -0.8652182 -0.3514296
vn -0.3576235 -0.8652182 -0.3514297
vn 0.3499327 -0.3191694 -0.8807258
vn 0.8805999 -0.3191694 -0.3502496
vn -0.3499326 -0.3191694 -0.8807259
vn -0.8805998 -0.3191694 -0.3502497
vn -0.8805998 0.3191693 -0.3502498
vn -0.3499326 0.3191693 -0.8807259
vn -0.3576235 0.8652181 -0.35143
vn 0.3576236 0.8652181 -0.3514299
vn 0.3499327 0.3191693 -0.8807259
vn 0.8805999 0.3191693 -0.3502496
vn -0.5806575 -0.5806576 0.5706782
vn -0.5806575 0.5806575 0.5706782
vn -0.003845394 0.7037107 0.7104762
vn -0.003845394 -0.7037108 0.7104762
vn -0.003845394 -0.7037108 -0.7104762
vn -0.5806575 -0.5806576 0.5706782
vn -0.003845394 -0.7037108 0.7104762
vn -0.5806575 -0.5806576 -0.5706782
vn -0.5806575 0.5806575 0.5706782
vn -0.5806575 0.5806575 -0.5706782
vn -0.003845394 0.7037107 -0.7104762
vn -0.003845394 0.7037107 0.7104762
vn -0.5806575 -0.5806576 0.5706782
vn -0.5806575 0.5806575 0.5706782
vn -0.003845394 0.7037107 0.7104762
vn -0.003845394 -0.7037108 0.7104762
vn -0.003845394 -0.7037108 -0.7104762
vn -0.5806575 -0.5806576 0.5706782
vn -0.003845394 -0.7037108 0.7104762
vn -0.5806575 -0.5806576 -0.5706782
vn -0.5806575 0.5806575 0.5706782
vn -0.5806575 0.5806575 -0.5706782
vn -0.003845394 0.7037107 -0.7104762
vn -0.003845394 0.7037107 0.7104762
g SculleryDoorR_0
f 3/3/3 2/2/2 1/1/1
f 4/4/4 3/3/3 1/1/1
f 6/6/6 3/3/3 5/5/5
f 7/7/7 6/6/6 5/5/5
f 5/5/5 8/8/8 7/7/7
f 8/8/8 9/9/9 7/7/7
f 9/9/9 8/8/8 10/10/10
f 11/11/11 9/9/9 10/10/10
f 10/10/10 12/12/12 11/11/11
f 12/12/12 13/13/13 11/11/11
f 13/13/13 12/12/12 14/14/14
f 15/15/15 13/13/13 14/14/14
f 18/18/18 17/17/17 16/16/16
f 17/17/17 19/19/19 16/16/16
f 19/19/19 21/21/21 20/20/20
f 22/22/22 19/19/19 20/20/20
f 20/20/20 23/23/23 22/22/22
f 23/23/23 24/24/24 22/22/22
f 23/23/23 25/25/25 24/24/24
f 25/25/25 26/26/26 24/24/24
f 25/25/25 27/27/27 26/26/26
f 27/27/27 28/28/28 26/26/26
f 28/28/28 27/27/27 29/29/29
f 30/30/30 28/28/28 29/29/29
f 29/29/29 31/31/31 30/30/30
f 31/31/31 32/32/32 30/30/30
f 32/32/32 31/31/31 33/33/33
f 34/34/34 32/32/32 33/33/33
f 33/33/33 35/35/35 34/34/34
f 35/35/35 36/36/36 34/34/34
f 36/36/36 35/35/35 37/37/37
f 38/38/38 36/36/36 37/37/37
f 41/41/41 40/40/40 39/39/39
f 42/42/42 41/41/41 39/39/39
f 42/42/42 43/43/43 41/41/41
f 43/43/43 44/44/44 41/41/41
f 44/44/44 43/43/43 45/45/45
f 43/43/43 42/42/42 46/46/46
f 43/43/43 47/47/47 45/45/45
f 43/43/43 46/46/46 47/47/47
f 42/42/42 48/48/48 46/46/46
f 48/48/48 42/42/42 39/39/39
f 47/47/47 49/49/49 45/45/45
f 49/49/49 50/50/50 45/45/45
f 51/51/51 50/50/50 49/49/49
f 46/46/46 52/52/52 47/47/47
f 52/52/52 49/49/49 47/47/47
f 52/52/52 46/46/46 48/48/48
f 53/53/53 51/51/51 49/49/49
f 53/53/53 49/49/49 52/52/52
f 54/54/54 52/52/52 48/48/48
f 53/53/53 52/52/52 54/54/54
f 51/51/51 53/53/53 55/55/55
f 55/55/55 53/53/53 54/54/54
f 56/56/56 51/51/51 55/55/55
f 56/56/56 55/55/55 57/57/57
f 55/55/55 58/58/58 57/57/57
f 55/55/55 54/54/54 58/58/58
f 54/54/54 48/48/48 58/58/58
f 48/48/48 39/39/39 58/58/58
f 58/58/58 39/39/39 59/59/59
f 39/39/39 60/60/60 59/59/59
f 61/61/61 59/59/59 60/60/60
f 61/61/61 62/62/62 59/59/59
f 63/63/63 61/61/61 60/60/60
f 64/64/64 63/63/63 60/60/60
f 63/63/63 64/64/64 65/65/65
f 66/66/66 63/63/63 65/65/65
f 63/63/63 66/66/66 61/61/61
f 66/66/66 65/65/65 67/67/67
f 66/66/66 67/67/67 68/68/68
f 62/62/62 61/61/61 69/69/69
f 66/66/66 69/69/69 61/61/61
f 69/69/69 66/66/66 68/68/68
f 70/70/70 62/62/62 69/69/69
f 70/70/70 69/69/69 68/68/68
f 73/73/73 72/72/72 71/71/71
f 74/74/74 73/73/73 71/71/71
f 77/77/77 76/76/76 75/75/75
f 76/76/76 78/78/78 75/75/75
f 76/76/76 79/79/79 78/78/78
f 78/78/78 80/80/80 75/75/75
f 79/79/79 80/80/80 78/78/78
f 80/80/80 81/81/81 75/75/75
f 79/79/79 82/82/82 80/80/80
f 82/82/82 81/81/81 80/80/80
f 85/85/85 84/84/84 83/83/83
f 86/86/86 85/85/85 83/83/83
f 89/89/89 88/88/88 87/87/87
f 88/88/88 90/90/90 87/87/87
f 88/88/88 91/91/91 90/90/90
f 90/90/90 92/92/92 87/87/87
f 91/91/91 92/92/92 90/90/90
f 92/92/92 93/93/93 87/87/87
f 91/91/91 94/94/94 92/92/92
f 94/94/94 93/93/93 92/92/92
