g TigerBodyTest_mesh
v 0.55 0 0
v -0.55 0 0
v 0.55 -0.325 0
v -0.55 -0.325 0
v 0.55 -0.6035714 0
v -0.55 -0.6035714 0
v 0.55 -0.8357143 0
v -0.55 -0.8357143 0
v 0.55 -1.021429 0
v -0.55 -1.021429 0
v 0.55 -1.160714 0
v -0.55 -1.160714 0
v 0.55 -1.253571 0
v -0.55 -1.253571 0
v 0.55 -1.3 0
v -0.55 -1.3 0
v 0.55 -1.3 0
v -0.55 -1.3 0
v 0.55 -1.346429 0
v -0.55 -1.346429 0
v 0.55 -1.439286 0
v -0.55 -1.439286 0
v 0.55 -1.578571 0
v -0.55 -1.578571 0
v 0.55 -1.764286 0
v -0.55 -1.764286 0
v 0.55 -1.996428 0
v -0.55 -1.996428 0
v 0.55 -2.275 0
v -0.55 -2.275 0
v 0.55 -2.6 0
v -0.55 -2.6 0
vt 0 1
vt 0.2275391 1
vt 0 0.9638062
vt 0.2275391 0.9638062
vt 0 0.9327828
vt 0.2275391 0.9327828
vt 0 0.9069301
vt 0.2275391 0.9069301
vt 0 0.8862479
vt 0.2275391 0.8862479
vt 0 0.8707362
vt 0.2275391 0.8707362
vt 0 0.8603951
vt 0.2275391 0.8603951
vt 0 0.8552246
vt 0.2275391 0.8552246
vt 0 0.8552246
vt 0.2275391 0.8552246
vt 0 0.8500541
vt 0.2275391 0.8500541
vt 0 0.839713
vt 0.2275391 0.839713
vt 0 0.8242013
vt 0.2275391 0.8242013
vt 0 0.8035191
vt 0.2275391 0.8035191
vt 0 0.7776664
vt 0.2275391 0.7776664
vt 0 0.7466431
vt 0.2275391 0.7466431
vt 0 0.7104492
vt 0.2275391 0.7104492
vn 0 0 -1
vn 0 0 -1
vn 0 0 -1
vn 0 0 -1
vn 0 0 -0.9999999
vn 0 0 -1
vn 0 0 -1
vn 0 0 -1
vn 0 0 -1
vn 0 0 -1
vn 0 0 -1
vn 0 0 -1
vn 0 0 -1
vn 0 0 -0.9999999
vn 0 0 -0.9999999
vn 0 0 -0.9999999
vn 0 0 -0.9999999
vn 0 0 -0.9999999
vn 0 0 -0.9999999
vn 0 0 -1
vn 0 0 -1
vn 0 0 -1
vn 0 0 -1
vn 0 0 -1
vn 0 0 -0.9999999
vn 0 0 -1
vn 0 0 -1
vn 0 0 -1
vn 0 0 -1
vn 0 0 -1
vn 0 0 -0.9999999
vn 0 0 -0.9999999
g TigerBodyTest_mesh_0
f 3/3/3 2/2/2 1/1/1
f 4/4/4 2/2/2 3/3/3
f 5/5/5 4/4/4 3/3/3
f 6/6/6 4/4/4 5/5/5
f 7/7/7 6/6/6 5/5/5
f 8/8/8 6/6/6 7/7/7
f 9/9/9 8/8/8 7/7/7
f 10/10/10 8/8/8 9/9/9
f 11/11/11 10/10/10 9/9/9
f 12/12/12 10/10/10 11/11/11
f 13/13/13 12/12/12 11/11/11
f 14/14/14 12/12/12 13/13/13
f 15/15/15 14/14/14 13/13/13
f 16/16/16 14/14/14 15/15/15
f 17/17/17 16/16/16 15/15/15
f 18/18/18 16/16/16 17/17/17
f 19/19/19 18/18/18 17/17/17
f 20/20/20 18/18/18 19/19/19
f 21/21/21 20/20/20 19/19/19
f 22/22/22 20/20/20 21/21/21
f 23/23/23 22/22/22 21/21/21
f 24/24/24 22/22/22 23/23/23
f 25/25/25 24/24/24 23/23/23
f 26/26/26 24/24/24 25/25/25
f 27/27/27 26/26/26 25/25/25
f 28/28/28 26/26/26 27/27/27
f 29/29/29 28/28/28 27/27/27
f 30/30/30 28/28/28 29/29/29
f 31/31/31 30/30/30 29/29/29
f 32/32/32 30/30/30 31/31/31
