g TigerDoorTrimTopPart
v -0.8000184 9.064281 -0.2200778
v -0.8000184 10 -0.4799634
v -0.8000184 10 -0.2200778
v -0.8000184 9.064281 -0.4799634
v -0.8000184 8.128561 -0.2200778
v -0.784857 10 -0.5130876
v -0.8000184 8.128561 -0.4799634
v -0.8000184 7.193006 -0.2200778
v -0.784857 9.064281 -0.5130876
v -0.5999543 10 -0.5900481
v -0.8000184 7.193006 -0.4799634
v -0.8000184 6.257286 -0.2200778
v -0.5999543 9.064281 -0.5900481
v -0.400055 10 -0.5130876
v -0.784857 8.128561 -0.5130876
v -0.8000184 6.257286 -0.4799634
v -0.8000184 5.321566 -0.2200778
v -0.400055 9.064281 -0.5130876
v -0.1999909 10 -0.5900481
v -0.784857 7.193006 -0.5130876
v -0.5999543 8.128561 -0.5900481
v -0.8000184 5.321566 -0.4799634
v -0.8000184 5.068602 -0.2200778
v -0.1999909 9.064281 -0.5900481
v 7.31945E-05 10 -0.5130876
v -0.784857 6.257286 -0.5130876
v -0.400055 8.128561 -0.5130876
v -0.5999543 7.193006 -0.5900481
v -0.8000184 5.068602 -0.4799634
v -0.8000184 5.000046 -0.2200778
v -0.8000184 5.000046 -0.4799634
v 7.31945E-05 9.064281 -0.5130876
v 0.1999725 10 -0.5900481
v -0.784857 5.321566 -0.5130876
v -0.784857 5.068602 -0.5130876
v -0.784857 5.000046 -0.5130876
v -0.5999543 6.257286 -0.5900481
v -0.5999543 5.068602 -0.5900481
v -0.5999543 5.000046 -0.5900481
v -0.5999543 5.321566 -0.5900481
v -0.400055 7.193006 -0.5130876
v -0.400055 5.068602 -0.5130876
v -0.400055 5.000046 -0.5130876
v -0.400055 5.321566 -0.5130876
v -0.400055 6.257286 -0.5130876
v -0.1999909 8.128561 -0.5900481
v -0.1999909 5.068602 -0.5900481
v -0.1999909 5.000046 -0.5900481
v -0.1999909 5.321566 -0.5900481
v -0.1999909 6.257286 -0.5900481
v -0.1999909 7.193006 -0.5900481
v 7.31945E-05 8.128561 -0.5130876
v 7.31945E-05 5.068602 -0.5130876
v 7.31945E-05 5.000046 -0.5130876
v 7.31945E-05 5.321566 -0.5130876
v 7.31945E-05 6.257286 -0.5130876
v 7.31945E-05 7.193006 -0.5130876
v 0.1999725 9.064281 -0.5900481
v 0.4000366 10 -0.5130876
v 0.1999725 5.068602 -0.5900481
v 0.1999725 5.000046 -0.5900481
v 0.1999725 5.321566 -0.5900481
v 0.1999725 6.257286 -0.5900481
v 0.1999725 7.193006 -0.5900481
v 0.1999725 8.128561 -0.5900481
v 0.4000366 9.064281 -0.5130876
v 0.5999359 10 -0.5900481
v 0.4000366 5.068602 -0.5130876
v 0.4000366 5.000046 -0.5130876
v 0.4000366 5.321566 -0.5130876
v 0.4000366 6.257286 -0.5130876
v 0.4000366 7.193006 -0.5130876
v 0.4000366 8.128561 -0.5130876
v 0.5999359 9.064281 -0.5900481
v 0.7848387 10 -0.5130876
v 0.5999359 5.068602 -0.5900481
v 0.5999359 5.000046 -0.5900481
v 0.5999359 5.321566 -0.5900481
v 0.5999359 6.257286 -0.5900481
v 0.5999359 7.193006 -0.5900481
v 0.5999359 8.128561 -0.5900481
v 0.7848387 9.064281 -0.5130876
v 0.8 10 -0.4799634
v 0.7848387 5.068602 -0.5130876
v 0.7848387 5.000046 -0.5130876
v 0.7848387 5.321566 -0.5130876
v 0.7848387 6.257286 -0.5130876
v 0.7848387 7.193006 -0.5130876
v 0.7848387 8.128561 -0.5130876
v 0.8 9.064281 -0.4799634
v 0.8 10 -0.2200778
v 0.8 9.064281 -0.2200778
v 0.8 8.128561 -0.4799634
v 0.8 8.128561 -0.2200778
v 0.8 7.193006 -0.4799634
v 0.8 7.193006 -0.2200778
v 0.8 6.257286 -0.4799634
v 0.8 6.257286 -0.2200778
v 0.8 5.321566 -0.4799634
v 0.8 5.321566 -0.2200778
v 0.8 5.068602 -0.4799634
v 0.8 5.068602 -0.2200778
v 0.8 5.000046 -0.4799634
v 0.8 5.000046 -0.2200778
vn -0.9999923 0.003921509 -0.0003449296
vn -0.9764631 0.003921509 -0.215649
vn -0.9999923 0.003921509 -0.0003449296
vn -0.9764631 0.003921509 -0.215649
vn -0.9999923 0.003921509 -0.0003449296
vn -0.6941123 0.003921509 -0.7198561
vn -0.9764631 0.003921509 -0.215649
vn -0.9999923 0.003921509 -0.0003449296
vn -0.6941123 0.003921509 -0.7198561
vn -0.01176453 0.003921509 -0.9999231
vn -0.9764631 0.003921509 -0.215649
vn -0.9999923 0.003921509 -0.0003449296
vn -0.01176453 0.003921509 -0.9999231
vn -0.003921509 0.003921509 -0.9999846
vn -0.6941123 0.003921509 -0.7198561
vn -0.9764631 0.003921509 -0.215649
vn -0.9999923 0.003921509 -0.0003449296
vn -0.003921509 0.003921509 -0.9999846
vn -0.003921509 0.003921509 -0.9999846
vn -0.6941123 0.003921509 -0.7198561
vn -0.01176453 0.003921509 -0.9999231
vn -0.9764631 0.003921509 -0.215649
vn -0.9999923 0.003921509 -0.0003449296
vn -0.003921509 0.003921509 -0.9999846
vn -0.003921509 0.003921509 -0.9999846
vn -0.6941123 0.003921509 -0.7198561
vn -0.003921509 0.003921509 -0.9999846
vn -0.01176453 0.003921509 -0.9999231
vn -0.9764631 0.003921509 -0.215649
vn -0.9999923 0.003921509 -0.0003449296
vn -0.9764631 0.003921509 -0.215649
vn -0.003921509 0.003921509 -0.9999846
vn -0.003921509 0.003921509 -0.9999846
vn -0.6941123 0.003921509 -0.7198561
vn -0.6941123 0.003921509 -0.7198561
vn -0.6941123 0.003921509 -0.7198561
vn -0.01176453 0.003921509 -0.9999231
vn -0.01176453 0.003921509 -0.9999231
vn -0.01176453 0.003921509 -0.9999231
vn -0.01176453 0.003921509 -0.9999231
vn -0.003921509 0.003921509 -0.9999846
vn -0.003921509 0.003921509 -0.9999846
vn -0.003921509 0.003921509 -0.9999846
vn -0.003921509 0.003921509 -0.9999846
vn -0.003921509 0.003921509 -0.9999846
vn -0.003921509 0.003921509 -0.9999846
vn -0.003921509 0.003921509 -0.9999846
vn -0.003921509 0.003921509 -0.9999846
vn -0.003921509 0.003921509 -0.9999846
vn -0.003921509 0.003921509 -0.9999846
vn -0.003921509 0.003921509 -0.9999846
vn -0.003921509 0.003921509 -0.9999846
vn -0.003921509 0.003921509 -0.9999846
vn -0.003921509 0.003921509 -0.9999846
vn -0.003921509 0.003921509 -0.9999846
vn -0.003921509 0.003921509 -0.9999846
vn -0.003921509 0.003921509 -0.9999846
vn -0.003921509 0.003921509 -0.9999846
vn -0.003921509 0.003921509 -0.9999846
vn -0.003921509 0.003921509 -0.9999846
vn -0.003921509 0.003921509 -0.9999846
vn -0.003921509 0.003921509 -0.9999846
vn -0.003921509 0.003921509 -0.9999846
vn -0.003921509 0.003921509 -0.9999846
vn -0.003921509 0.003921509 -0.9999846
vn -0.003921509 0.003921509 -0.9999846
vn 0.01176465 0.003921509 -0.9999231
vn -0.003921509 0.003921509 -0.9999846
vn -0.003921509 0.003921509 -0.9999846
vn -0.003921509 0.003921509 -0.9999846
vn -0.003921509 0.003921509 -0.9999846
vn -0.003921509 0.003921509 -0.9999846
vn -0.003921509 0.003921509 -0.9999846
vn 0.01176465 0.003921509 -0.9999231
vn 0.6941124 0.003921509 -0.719856
vn 0.01176465 0.003921509 -0.9999231
vn 0.01176465 0.003921509 -0.9999231
vn 0.01176465 0.003921509 -0.9999231
vn 0.01176465 0.003921509 -0.9999231
vn 0.01176465 0.003921509 -0.9999231
vn 0.01176465 0.003921509 -0.9999231
vn 0.6941124 0.003921509 -0.719856
vn 0.9764631 0.003921509 -0.2156487
vn 0.6941124 0.003921509 -0.719856
vn 0.6941124 0.003921509 -0.719856
vn 0.6941124 0.003921509 -0.719856
vn 0.6941124 0.003921509 -0.719856
vn 0.6941124 0.003921509 -0.719856
vn 0.6941124 0.003921509 -0.719856
vn 0.9764631 0.003921509 -0.2156487
vn 0.9999924 0.003921509 0
vn 0.9999924 0.003921509 0
vn 0.9764631 0.003921509 -0.2156487
vn 0.9999924 0.003921509 0
vn 0.9764631 0.003921509 -0.2156487
vn 0.9999924 0.003921509 0
vn 0.9764631 0.003921509 -0.2156487
vn 0.9999924 0.003921509 0
vn 0.9764631 0.003921509 -0.2156487
vn 0.9999924 0.003921509 0
vn 0.9764631 0.003921509 -0.2156487
vn 0.9999924 0.003921509 0
vn 0.9764631 0.003921509 -0.2156487
vn 0.9999924 0.003921509 0
g TigerDoorTrimTopPart_0
f 3/3/3 2/2/2 1/1/1
f 2/2/2 4/4/4 1/1/1
f 1/1/1 4/4/4 5/5/5
f 4/4/4 2/2/2 6/6/6
f 4/4/4 7/7/7 5/5/5
f 5/5/5 7/7/7 8/8/8
f 9/9/9 4/4/4 6/6/6
f 7/7/7 4/4/4 9/9/9
f 6/6/6 10/10/10 9/9/9
f 7/7/7 11/11/11 8/8/8
f 8/8/8 11/11/11 12/12/12
f 10/10/10 13/13/13 9/9/9
f 10/10/10 14/14/14 13/13/13
f 15/15/15 7/7/7 9/9/9
f 11/11/11 7/7/7 15/15/15
f 9/9/9 13/13/13 15/15/15
f 11/11/11 16/16/16 12/12/12
f 12/12/12 16/16/16 17/17/17
f 14/14/14 18/18/18 13/13/13
f 14/14/14 19/19/19 18/18/18
f 20/20/20 11/11/11 15/15/15
f 16/16/16 11/11/11 20/20/20
f 13/13/13 21/21/21 15/15/15
f 13/13/13 18/18/18 21/21/21
f 15/15/15 21/21/21 20/20/20
f 16/16/16 22/22/22 17/17/17
f 17/17/17 22/22/22 23/23/23
f 19/19/19 24/24/24 18/18/18
f 19/19/19 25/25/25 24/24/24
f 26/26/26 16/16/16 20/20/20
f 22/22/22 16/16/16 26/26/26
f 18/18/18 27/27/27 21/21/21
f 18/18/18 24/24/24 27/27/27
f 21/21/21 28/28/28 20/20/20
f 20/20/20 28/28/28 26/26/26
f 21/21/21 27/27/27 28/28/28
f 22/22/22 29/29/29 23/23/23
f 23/23/23 29/29/29 30/30/30
f 29/29/29 31/31/31 30/30/30
f 25/25/25 32/32/32 24/24/24
f 25/25/25 33/33/33 32/32/32
f 34/34/34 22/22/22 26/26/26
f 29/29/29 22/22/22 34/34/34
f 31/31/31 29/29/29 35/35/35
f 35/35/35 29/29/29 34/34/34
f 36/36/36 31/31/31 35/35/35
f 28/28/28 37/37/37 26/26/26
f 26/26/26 37/37/37 34/34/34
f 35/35/35 38/38/38 36/36/36
f 38/38/38 39/39/39 36/36/36
f 34/34/34 40/40/40 35/35/35
f 37/37/37 40/40/40 34/34/34
f 40/40/40 38/38/38 35/35/35
f 28/28/28 41/41/41 37/37/37
f 27/27/27 41/41/41 28/28/28
f 38/38/38 42/42/42 39/39/39
f 42/42/42 43/43/43 39/39/39
f 40/40/40 44/44/44 38/38/38
f 44/44/44 42/42/42 38/38/38
f 37/37/37 45/45/45 40/40/40
f 41/41/41 45/45/45 37/37/37
f 45/45/45 44/44/44 40/40/40
f 27/27/27 46/46/46 41/41/41
f 24/24/24 46/46/46 27/27/27
f 24/24/24 32/32/32 46/46/46
f 42/42/42 47/47/47 43/43/43
f 47/47/47 48/48/48 43/43/43
f 44/44/44 49/49/49 42/42/42
f 49/49/49 47/47/47 42/42/42
f 45/45/45 50/50/50 44/44/44
f 50/50/50 49/49/49 44/44/44
f 41/41/41 51/51/51 45/45/45
f 46/46/46 51/51/51 41/41/41
f 51/51/51 50/50/50 45/45/45
f 32/32/32 52/52/52 46/46/46
f 46/46/46 52/52/52 51/51/51
f 47/47/47 53/53/53 48/48/48
f 53/53/53 54/54/54 48/48/48
f 49/49/49 55/55/55 47/47/47
f 55/55/55 53/53/53 47/47/47
f 50/50/50 56/56/56 49/49/49
f 56/56/56 55/55/55 49/49/49
f 51/51/51 57/57/57 50/50/50
f 52/52/52 57/57/57 51/51/51
f 57/57/57 56/56/56 50/50/50
f 32/32/32 58/58/58 52/52/52
f 33/33/33 58/58/58 32/32/32
f 33/33/33 59/59/59 58/58/58
f 53/53/53 60/60/60 54/54/54
f 60/60/60 61/61/61 54/54/54
f 55/55/55 62/62/62 53/53/53
f 62/62/62 60/60/60 53/53/53
f 56/56/56 63/63/63 55/55/55
f 63/63/63 62/62/62 55/55/55
f 57/57/57 64/64/64 56/56/56
f 64/64/64 63/63/63 56/56/56
f 52/52/52 65/65/65 57/57/57
f 58/58/58 65/65/65 52/52/52
f 65/65/65 64/64/64 57/57/57
f 59/59/59 66/66/66 58/58/58
f 58/58/58 66/66/66 65/65/65
f 59/59/59 67/67/67 66/66/66
f 60/60/60 68/68/68 61/61/61
f 68/68/68 69/69/69 61/61/61
f 62/62/62 70/70/70 60/60/60
f 70/70/70 68/68/68 60/60/60
f 63/63/63 71/71/71 62/62/62
f 71/71/71 70/70/70 62/62/62
f 64/64/64 72/72/72 63/63/63
f 72/72/72 71/71/71 63/63/63
f 65/65/65 73/73/73 64/64/64
f 66/66/66 73/73/73 65/65/65
f 73/73/73 72/72/72 64/64/64
f 67/67/67 74/74/74 66/66/66
f 66/66/66 74/74/74 73/73/73
f 67/67/67 75/75/75 74/74/74
f 68/68/68 76/76/76 69/69/69
f 76/76/76 77/77/77 69/69/69
f 70/70/70 78/78/78 68/68/68
f 78/78/78 76/76/76 68/68/68
f 71/71/71 79/79/79 70/70/70
f 79/79/79 78/78/78 70/70/70
f 72/72/72 80/80/80 71/71/71
f 80/80/80 79/79/79 71/71/71
f 73/73/73 81/81/81 72/72/72
f 74/74/74 81/81/81 73/73/73
f 81/81/81 80/80/80 72/72/72
f 75/75/75 82/82/82 74/74/74
f 74/74/74 82/82/82 81/81/81
f 82/82/82 75/75/75 83/83/83
f 76/76/76 84/84/84 77/77/77
f 84/84/84 85/85/85 77/77/77
f 78/78/78 86/86/86 76/76/76
f 86/86/86 84/84/84 76/76/76
f 79/79/79 87/87/87 78/78/78
f 87/87/87 86/86/86 78/78/78
f 80/80/80 88/88/88 79/79/79
f 88/88/88 87/87/87 79/79/79
f 81/81/81 89/89/89 80/80/80
f 82/82/82 89/89/89 81/81/81
f 89/89/89 88/88/88 80/80/80
f 90/90/90 82/82/82 83/83/83
f 89/89/89 82/82/82 90/90/90
f 83/83/83 91/91/91 90/90/90
f 91/91/91 92/92/92 90/90/90
f 93/93/93 89/89/89 90/90/90
f 90/90/90 92/92/92 93/93/93
f 88/88/88 89/89/89 93/93/93
f 92/92/92 94/94/94 93/93/93
f 95/95/95 88/88/88 93/93/93
f 93/93/93 94/94/94 95/95/95
f 87/87/87 88/88/88 95/95/95
f 94/94/94 96/96/96 95/95/95
f 97/97/97 87/87/87 95/95/95
f 95/95/95 96/96/96 97/97/97
f 86/86/86 87/87/87 97/97/97
f 96/96/96 98/98/98 97/97/97
f 99/99/99 86/86/86 97/97/97
f 97/97/97 98/98/98 99/99/99
f 84/84/84 86/86/86 99/99/99
f 98/98/98 100/100/100 99/99/99
f 101/101/101 84/84/84 99/99/99
f 99/99/99 100/100/100 101/101/101
f 85/85/85 84/84/84 101/101/101
f 100/100/100 102/102/102 101/101/101
f 103/103/103 85/85/85 101/101/101
f 101/101/101 102/102/102 103/103/103
f 102/102/102 104/104/104 103/103/103
