g tigerSash_mesh
v 0.06 0 0
v -0.06 0 0
v 0.06095238 -0.08461539 0
v -0.06095238 -0.08461539 0
v 0.06190476 -0.1692308 0
v -0.06190476 -0.1692308 0
v 0.06285714 -0.2538462 0
v -0.06285714 -0.2538462 0
v 0.06380952 -0.3384615 0
v -0.06380952 -0.3384615 0
v 0.0647619 -0.4230769 0
v -0.0647619 -0.4230769 0
v 0.06571428 -0.5076923 0
v -0.06571428 -0.5076923 0
v 0.06666666 -0.5923077 0
v -0.06666666 -0.5923077 0
v 0.06761903 -0.6769232 0
v -0.06761903 -0.6769232 0
v 0.06857141 -0.7615386 0
v -0.06857141 -0.7615386 0
v 0.06952379 -0.846154 0
v -0.06952379 -0.846154 0
v 0.07047617 -0.9307694 0
v -0.07047617 -0.9307694 0
v 0.07142854 -1.015385 0
v -0.07142854 -1.015385 0
v 0.07238092 -1.1 0
v -0.07238092 -1.1 0
vt 0.4863281 0.277832
vt 0.4980469 0.277832
vt 0.4863281 0.2773813
vt 0.4980469 0.2773813
vt 0.4863281 0.2769306
vt 0.4980469 0.2769306
vt 0.4863281 0.2764799
vt 0.4980469 0.2764799
vt 0.4863281 0.2760291
vt 0.4980469 0.2760291
vt 0.4863281 0.2755784
vt 0.4980469 0.2755784
vt 0.4863281 0.2751277
vt 0.4980469 0.2751277
vt 0.4863281 0.274677
vt 0.4980469 0.274677
vt 0.4863281 0.2742262
vt 0.4980469 0.2742262
vt 0.4863281 0.2737755
vt 0.4980469 0.2737755
vt 0.4863281 0.2733248
vt 0.4980469 0.2733248
vt 0.4863281 0.2728741
vt 0.4980469 0.2728741
vt 0.4863281 0.2724234
vt 0.4980469 0.2724234
vt 0.4863281 0.2719727
vt 0.4980469 0.2719727
vn 0 0 -0.9999999
vn 0 0 -0.9999999
vn 0 0 -1
vn 0 0 -1
vn 0 0 -1
vn 0 0 -1
vn 0 0 -1
vn 0 0 -1
vn 0 0 -1
vn 0 0 -1
vn 0 0 -1
vn 0 0 -1
vn 0 0 -1
vn 0 0 -1
vn 0 0 -1
vn 0 0 -1
vn 0 0 -1
vn 0 0 -1
vn 0 0 -1
vn 0 0 -1
vn 0 0 -1
vn 0 0 -1
vn 0 0 -1
vn 0 0 -1
vn 0 0 -1
vn 0 0 -1
vn 0 0 -1
vn 0 0 -1
g tigerSash_mesh_0
f 3/3/3 2/2/2 1/1/1
f 4/4/4 2/2/2 3/3/3
f 5/5/5 4/4/4 3/3/3
f 6/6/6 4/4/4 5/5/5
f 7/7/7 6/6/6 5/5/5
f 8/8/8 6/6/6 7/7/7
f 9/9/9 8/8/8 7/7/7
f 10/10/10 8/8/8 9/9/9
f 11/11/11 10/10/10 9/9/9
f 12/12/12 10/10/10 11/11/11
f 13/13/13 12/12/12 11/11/11
f 14/14/14 12/12/12 13/13/13
f 15/15/15 14/14/14 13/13/13
f 16/16/16 14/14/14 15/15/15
f 17/17/17 16/16/16 15/15/15
f 18/18/18 16/16/16 17/17/17
f 19/19/19 18/18/18 17/17/17
f 20/20/20 18/18/18 19/19/19
f 21/21/21 20/20/20 19/19/19
f 22/22/22 20/20/20 21/21/21
f 23/23/23 22/22/22 21/21/21
f 24/24/24 22/22/22 23/23/23
f 25/25/25 24/24/24 23/23/23
f 26/26/26 24/24/24 25/25/25
f 27/27/27 26/26/26 25/25/25
f 28/28/28 26/26/26 27/27/27
