g TigerDoorCollisionMesh
v -1.627495 -3.60013 0.1715295
v -1.627495 -3.60013 -0.1715872
v -1.627495 4.591548 -0.1715872
v -1.627495 4.591548 0.1715295
v -0.8137639 4.560049 -0.1715872
v -0.8137639 -3.60013 0.1715295
v -0.8137639 4.560049 0.1715295
v -0.8137639 -3.60013 -0.1715872
v -3.361702E-05 4.255056 -0.1715872
v -3.361702E-05 -3.60013 0.1715295
v -3.361702E-05 -3.60013 -0.1715872
v -3.361702E-05 4.255056 0.1715295
v 0.4068317 3.943064 -0.1715872
v 0.4068317 -3.60013 0.1715295
v 0.4068317 3.943064 0.1715295
v 0.4068317 -3.60013 -0.1715872
v 0.8136969 -3.60013 0.1715295
v 0.8136969 3.529574 -0.1715872
v 0.8136969 -3.60013 -0.1715872
v 0.8136969 3.529574 0.1715295
v 1.30606 -3.60013 0.1715295
v 1.30606 2.793466 -0.1715872
v 1.30606 2.793466 0.1715295
v 1.30606 -3.60013 -0.1715872
v 1.627427 1.528122 -0.1715872
v 1.627427 -3.60013 0.1715295
v 1.627427 -3.60013 -0.1715872
v 1.627427 1.528122 0.1715295
vn -0.5770329 -0.579248 0.5757645
vn -0.5770329 -0.579248 -0.5757645
vn -0.5656409 0.5884248 -0.57776
vn -0.5656409 0.5884248 0.57776
vn 0.1463547 0.7251279 -0.6728817
vn -0.001740396 -0.7045592 0.7096431
vn 0.1463547 0.7251279 0.6728817
vn -0.001740396 -0.7045592 -0.7096431
vn 0.3571054 0.6453844 -0.6752442
vn -0.001740396 -0.7045592 0.7096431
vn -0.001740396 -0.7045592 -0.7096431
vn 0.3571054 0.6453844 0.6752442
vn 0.4767206 0.5428571 -0.691407
vn -0.001740396 -0.7045592 0.7096431
vn 0.4767206 0.5428571 0.691407
vn -0.001740396 -0.7045592 -0.7096431
vn -0.001740396 -0.7045592 0.7096431
vn 0.5621601 0.4574176 -0.6890175
vn -0.001740396 -0.7045592 -0.7096431
vn 0.5621601 0.4574176 0.6890175
vn -0.001740396 -0.7045592 0.7096431
vn 0.6760794 0.3036265 -0.6713625
vn 0.6760794 0.3036265 0.6713625
vn -0.001740396 -0.7045592 -0.7096431
vn 0.7273431 0.09287584 -0.6799604
vn 0.579248 -0.579248 0.573536
vn 0.579248 -0.579248 -0.573536
vn 0.7273431 0.09287584 0.6799604
g TigerDoorCollisionMesh_0
f 3/3/3 2/2/2 1/1/1
f 4/4/4 3/3/3 1/1/1
f 3/3/3 5/5/5 2/2/2
f 3/3/3 4/4/4 5/5/5
f 4/4/4 1/1/1 6/6/6
f 6/6/6 1/1/1 2/2/2
f 4/4/4 7/7/7 5/5/5
f 7/7/7 4/4/4 6/6/6
f 5/5/5 8/8/8 2/2/2
f 8/8/8 6/6/6 2/2/2
f 5/5/5 7/7/7 9/9/9
f 5/5/5 9/9/9 8/8/8
f 10/10/10 6/6/6 8/8/8
f 7/7/7 6/6/6 10/10/10
f 9/9/9 11/11/11 8/8/8
f 11/11/11 10/10/10 8/8/8
f 7/7/7 12/12/12 9/9/9
f 12/12/12 7/7/7 10/10/10
f 9/9/9 13/13/13 11/11/11
f 9/9/9 12/12/12 13/13/13
f 12/12/12 10/10/10 14/14/14
f 14/14/14 10/10/10 11/11/11
f 12/12/12 15/15/15 13/13/13
f 15/15/15 12/12/12 14/14/14
f 13/13/13 16/16/16 11/11/11
f 16/16/16 14/14/14 11/11/11
f 15/15/15 14/14/14 17/17/17
f 17/17/17 14/14/14 16/16/16
f 13/13/13 18/18/18 16/16/16
f 13/13/13 15/15/15 18/18/18
f 19/19/19 17/17/17 16/16/16
f 18/18/18 19/19/19 16/16/16
f 20/20/20 15/15/15 17/17/17
f 15/15/15 20/20/20 18/18/18
f 21/21/21 17/17/17 19/19/19
f 20/20/20 17/17/17 21/21/21
f 18/18/18 20/20/20 22/22/22
f 18/18/18 22/22/22 19/19/19
f 23/23/23 20/20/20 21/21/21
f 20/20/20 23/23/23 22/22/22
f 24/24/24 21/21/21 19/19/19
f 22/22/22 24/24/24 19/19/19
f 22/22/22 23/23/23 25/25/25
f 22/22/22 25/25/25 24/24/24
f 26/26/26 21/21/21 24/24/24
f 23/23/23 21/21/21 26/26/26
f 25/25/25 27/27/27 24/24/24
f 27/27/27 26/26/26 24/24/24
f 23/23/23 28/28/28 25/25/25
f 28/28/28 23/23/23 26/26/26
f 28/28/28 26/26/26 27/27/27
f 25/25/25 28/28/28 27/27/27
