g tigerTail_mesh
v 0.12 0 0
v -0.12 0 0
v 0.12 -0.1333333 0
v -0.12 -0.1333333 0
v 0.12 -0.2666667 0
v -0.12 -0.2666667 0
v 0.12 -0.4 0
v -0.12 -0.4 0
v 0.12 -0.5333334 0
v -0.12 -0.5333334 0
v 0.12 -0.6666667 0
v -0.12 -0.6666667 0
v 0.12 -0.8 0
v -0.12 -0.8 0
v 0.12 -0.9333333 0
v -0.12 -0.9333333 0
v 0.12 -1.066667 0
v -0.12 -1.066667 0
v 0.12 -1.2 0
v -0.12 -1.2 0
v 0.12 -1.333333 0
v -0.12 -1.333333 0
v 0.12 -1.466667 0
v -0.12 -1.466667 0
v 0.12 -1.6 0
v -0.12 -1.6 0
v 0.12 -1.733333 0
v -0.12 -1.733333 0
v 0.12 -1.866667 0
v -0.12 -1.866667 0
v 0.12 -2 0
v -0.12 -2 0
vt 0.9277344 0.7617188
vt 0.96875 0.7617188
vt 0.9277344 0.7517578
vt 0.96875 0.7517578
vt 0.9277344 0.7417969
vt 0.96875 0.7417969
vt 0.9277344 0.731836
vt 0.96875 0.731836
vt 0.9277344 0.721875
vt 0.96875 0.721875
vt 0.9277344 0.7119141
vt 0.96875 0.7119141
vt 0.9277344 0.7019531
vt 0.96875 0.7019531
vt 0.9277344 0.6919922
vt 0.96875 0.6919922
vt 0.9277344 0.6820313
vt 0.96875 0.6820313
vt 0.9277344 0.6720703
vt 0.96875 0.6720703
vt 0.9277344 0.6621094
vt 0.96875 0.6621094
vt 0.9277344 0.6521484
vt 0.96875 0.6521484
vt 0.9277344 0.6421875
vt 0.96875 0.6421875
vt 0.9277344 0.6322266
vt 0.96875 0.6322266
vt 0.9277344 0.6222656
vt 0.96875 0.6222656
vt 0.9277344 0.6123047
vt 0.96875 0.6123047
vn 0 0 -1
vn 0 0 -1
vn 0 0 -1
vn 0 0 -1
vn 0 0 -1
vn 0 0 -1
vn 0 0 -1
vn 0 0 -1
vn 0 0 -0.9999999
vn 0 0 -0.9999999
vn 0 0 -0.9999999
vn 0 0 -0.9999999
vn 0 0 -0.9999999
vn 0 0 -0.9999999
vn 0 0 -1
vn 0 0 -1
vn 0 0 -1
vn 0 0 -1
vn 0 0 -0.9999999
vn 0 0 -0.9999999
vn 0 0 -0.9999999
vn 0 0 -0.9999999
vn 0 0 -0.9999999
vn 0 0 -0.9999999
vn 0 0 -0.9999999
vn 0 0 -0.9999999
vn 0 0 -0.9999999
vn 0 0 -0.9999999
vn 0 0 -0.9999999
vn 0 0 -0.9999999
vn 0 0 -1
vn 0 0 -1
g tigerTail_mesh_0
f 3/3/3 2/2/2 1/1/1
f 4/4/4 2/2/2 3/3/3
f 5/5/5 4/4/4 3/3/3
f 6/6/6 4/4/4 5/5/5
f 7/7/7 6/6/6 5/5/5
f 8/8/8 6/6/6 7/7/7
f 9/9/9 8/8/8 7/7/7
f 10/10/10 8/8/8 9/9/9
f 11/11/11 10/10/10 9/9/9
f 12/12/12 10/10/10 11/11/11
f 13/13/13 12/12/12 11/11/11
f 14/14/14 12/12/12 13/13/13
f 15/15/15 14/14/14 13/13/13
f 16/16/16 14/14/14 15/15/15
f 17/17/17 16/16/16 15/15/15
f 18/18/18 16/16/16 17/17/17
f 19/19/19 18/18/18 17/17/17
f 20/20/20 18/18/18 19/19/19
f 21/21/21 20/20/20 19/19/19
f 22/22/22 20/20/20 21/21/21
f 23/23/23 22/22/22 21/21/21
f 24/24/24 22/22/22 23/23/23
f 25/25/25 24/24/24 23/23/23
f 26/26/26 24/24/24 25/25/25
f 27/27/27 26/26/26 25/25/25
f 28/28/28 26/26/26 27/27/27
f 29/29/29 28/28/28 27/27/27
f 30/30/30 28/28/28 29/29/29
f 31/31/31 30/30/30 29/29/29
f 32/32/32 30/30/30 31/31/31
