g TigerPillarTopPart_half
v -7.665157E-05 9.064301 -0.5129805
v -7.665157E-05 10 -0.5129805
v -0.1847902 10 -0.5999996
v -0.1847902 9.064301 -0.5999996
v -7.665157E-05 8.128603 -0.5129805
v -0.2151983 10 -0.5999996
v -0.1847902 8.128603 -0.5999996
v -7.665157E-05 7.192905 -0.5129805
v -0.2151983 9.064301 -0.5999996
v -0.3848695 10 -0.5129805
v -0.1847902 7.192905 -0.5999996
v -7.665157E-05 6.257206 -0.5129805
v -0.3848695 9.064301 -0.5129805
v -0.4151159 10 -0.5129805
v -0.2151983 8.128603 -0.5999996
v -0.1847902 6.257206 -0.5999996
v -7.665157E-05 5.321508 -0.5129805
v -0.4151159 9.064301 -0.5129805
v -0.5847871 10 -0.5999996
v -0.2151983 7.192905 -0.5999996
v -0.3848695 8.128603 -0.5129805
v -0.1847902 5.321508 -0.5999996
v -7.665157E-05 5.068538 -0.5129805
v -0.5847871 9.064301 -0.5999996
v -0.6151953 10 -0.5999996
v -0.2151983 6.257206 -0.5999996
v -0.4151159 8.128603 -0.5129805
v -0.3848695 7.192905 -0.5129805
v -0.1847902 5.068538 -0.5999996
v -7.665157E-05 4.999958 -0.5129805
v -0.1847902 4.999958 -0.5999996
v -0.6151953 9.064301 -0.5999996
v -0.7848664 10 -0.5129805
v -0.2151983 5.321508 -0.5999996
v -0.2151983 5.068538 -0.5999996
v -0.2151983 4.999958 -0.5999996
v -0.5847871 8.128603 -0.5999996
v -0.7848664 9.064301 -0.5129805
v -0.8000706 10 -0.4799843
v -0.3848695 6.257206 -0.5129805
v -0.4151159 7.192905 -0.5129805
v -0.3848695 5.068538 -0.5129805
v -0.3848695 4.999958 -0.5129805
v -0.3848695 5.321508 -0.5129805
v -0.6151953 8.128603 -0.5999996
v -0.4151159 6.257206 -0.5129805
v -0.5847871 7.192905 -0.5999996
v -0.4151159 5.068538 -0.5129805
v -0.4151159 4.999958 -0.5129805
v -0.4151159 5.321508 -0.5129805
v -0.5847871 6.257206 -0.5999996
v -0.6151953 7.192905 -0.5999996
v -0.7848664 8.128603 -0.5129805
v -0.5847871 5.068538 -0.5999996
v -0.5847871 4.999958 -0.5999996
v -0.5847871 5.321508 -0.5999996
v -0.6151953 6.257206 -0.5999996
v -0.6151953 5.068538 -0.5999996
v -0.6151953 4.999958 -0.5999996
v -0.6151953 5.321508 -0.5999996
v -0.7848664 7.192905 -0.5129805
v -0.8000706 9.064301 -0.4799843
v -0.8000706 10 -0.2200591
v -0.7848664 5.068538 -0.5129805
v -0.7848664 4.999958 -0.5129805
v -0.7848664 5.321508 -0.5129805
v -0.7848664 6.257206 -0.5129805
v -0.8000706 8.128603 -0.4799843
v -0.8000706 9.064301 -0.2200591
v -0.8000706 10 0.04002786
v -0.8000706 5.068538 -0.4799843
v -0.8000706 4.999958 -0.4799843
v -0.8000706 7.192905 -0.4799843
v -0.8000706 5.321508 -0.4799843
v -0.8000706 6.257206 -0.4799843
v -0.8000706 8.128603 -0.2200591
v -0.8000706 9.064301 0.04002786
v -0.8000706 10 0.299953
v -0.8000706 9.064301 0.299953
v -0.8000706 8.128603 0.04002786
v -0.8000706 8.128603 0.299953
v -0.8000706 7.192905 -0.2200591
v -0.8000706 7.192905 0.04002786
v -0.8000706 7.192905 0.299953
v -0.8000706 6.257206 -0.2200591
v -0.8000706 6.257206 0.04002786
v -0.8000706 6.257206 0.299953
v -0.8000706 5.321508 -0.2200591
v -0.8000706 5.321508 0.04002786
v -0.8000706 5.321508 0.299953
v -0.8000706 5.068538 -0.2200591
v -0.8000706 4.999958 -0.2200591
v -0.8000706 5.068538 0.04002786
v -0.8000706 5.068538 0.299953
v -0.8000706 4.999958 0.04002786
v -0.8000706 4.999958 0.299953
vn 0.4256236 -0.0007318854 -0.9049
vn 0.4256236 -0.0007318854 -0.9049
vn 0.2187684 -0.0007318854 -0.9757766
vn 0.2187684 -0.0007318854 -0.9757766
vn 0.4256236 -0.0007318854 -0.9049
vn -0.2340767 -0.0007318854 -0.9722179
vn 0.2187684 -0.0007318854 -0.9757766
vn 0.4256236 -0.0007318854 -0.9049
vn -0.2340767 -0.0007318854 -0.9722179
vn -0.2340767 -0.0007318854 -0.9722179
vn 0.2187684 -0.0007318854 -0.9757766
vn 0.4256236 -0.0007318854 -0.9049
vn -0.2340767 -0.0007318854 -0.9722179
vn 0.2355405 -0.0007318854 -0.9718643
vn -0.2340767 -0.0007318854 -0.9722179
vn 0.2187684 -0.0007318854 -0.9757766
vn 0.4256236 -0.0007318854 -0.9049
vn 0.2355405 -0.0007318854 -0.9718643
vn 0.2355405 -0.0007318854 -0.9718643
vn -0.2340767 -0.0007318854 -0.9722179
vn -0.2340767 -0.0007318854 -0.9722179
vn 0.2187684 -0.0007318854 -0.9757766
vn 0.4256236 -0.0007318854 -0.9049
vn 0.2355405 -0.0007318854 -0.9718643
vn -0.2340767 -0.0007318854 -0.9722179
vn -0.2340767 -0.0007318854 -0.9722179
vn 0.2355405 -0.0007318854 -0.9718643
vn -0.2340767 -0.0007318854 -0.9722179
vn 0.2187684 -0.0007318854 -0.9757766
vn 0.4256236 -0.0007318854 -0.9049
vn 0.2187684 -0.0007318854 -0.9757766
vn -0.2340767 -0.0007318854 -0.9722179
vn -0.7204658 -0.0007318854 -0.69349
vn -0.2340767 -0.0007318854 -0.9722179
vn -0.2340767 -0.0007318854 -0.9722179
vn -0.2340767 -0.0007318854 -0.9722179
vn 0.2355405 -0.0007318854 -0.9718643
vn -0.7204658 -0.0007318854 -0.69349
vn -0.9776371 -0.0007318854 -0.2102978
vn -0.2340767 -0.0007318854 -0.9722179
vn 0.2355405 -0.0007318854 -0.9718643
vn -0.2340767 -0.0007318854 -0.9722179
vn -0.2340767 -0.0007318854 -0.9722179
vn -0.2340767 -0.0007318854 -0.9722179
vn -0.2340767 -0.0007318854 -0.9722179
vn 0.2355405 -0.0007318854 -0.9718643
vn 0.2355405 -0.0007318854 -0.9718643
vn 0.2355405 -0.0007318854 -0.9718643
vn 0.2355405 -0.0007318854 -0.9718643
vn 0.2355405 -0.0007318854 -0.9718643
vn 0.2355405 -0.0007318854 -0.9718643
vn -0.2340767 -0.0007318854 -0.9722179
vn -0.7204658 -0.0007318854 -0.69349
vn 0.2355405 -0.0007318854 -0.9718643
vn 0.2355405 -0.0007318854 -0.9718643
vn 0.2355405 -0.0007318854 -0.9718643
vn -0.2340767 -0.0007318854 -0.9722179
vn -0.2340767 -0.0007318854 -0.9722179
vn -0.2340767 -0.0007318854 -0.9722179
vn -0.2340767 -0.0007318854 -0.9722179
vn -0.7204658 -0.0007318854 -0.69349
vn -0.9776371 -0.0007318854 -0.2102978
vn -0.9999998 -0.0007318854 0
vn -0.7204658 -0.0007318854 -0.69349
vn -0.7204658 -0.0007318854 -0.69349
vn -0.7204658 -0.0007318854 -0.69349
vn -0.7204658 -0.0007318854 -0.69349
vn -0.9776371 -0.0007318854 -0.2102978
vn -0.9999998 -0.0007318854 0
vn -0.9999998 -0.0007318854 0
vn -0.9776371 -0.0007318854 -0.2102978
vn -0.9776371 -0.0007318854 -0.2102978
vn -0.9776371 -0.0007318854 -0.2102978
vn -0.9776371 -0.0007318854 -0.2102978
vn -0.9776371 -0.0007318854 -0.2102978
vn -0.9999998 -0.0007318854 0
vn -0.9999998 -0.0007318854 0
vn -0.9999998 -0.0007318854 0
vn -0.9999998 -0.0007318854 0
vn -0.9999998 -0.0007318854 0
vn -0.9999998 -0.0007318854 0
vn -0.9999998 -0.0007318854 0
vn -0.9999998 -0.0007318854 0
vn -0.9999998 -0.0007318854 0
vn -0.9999998 -0.0007318854 0
vn -0.9999998 -0.0007318854 0
vn -0.9999998 -0.0007318854 0
vn -0.9999998 -0.0007318854 0
vn -0.9999998 -0.0007318854 0
vn -0.9999998 -0.0007318854 0
vn -0.9999998 -0.0007318854 0
vn -0.9999998 -0.0007318854 0
vn -0.9999998 -0.0007318854 0
vn -0.9999998 -0.0007318854 0
vn -0.9999998 -0.0007318854 0
vn -0.9999998 -0.0007318854 0
g TigerPillarTopPart_half_0
f 3/3/3 2/2/2 1/1/1
f 4/4/4 3/3/3 1/1/1
f 4/4/4 1/1/1 5/5/5
f 3/3/3 4/4/4 6/6/6
f 7/7/7 4/4/4 5/5/5
f 7/7/7 5/5/5 8/8/8
f 4/4/4 9/9/9 6/6/6
f 4/4/4 7/7/7 9/9/9
f 10/10/10 6/6/6 9/9/9
f 11/11/11 7/7/7 8/8/8
f 11/11/11 8/8/8 12/12/12
f 13/13/13 10/10/10 9/9/9
f 10/10/10 13/13/13 14/14/14
f 7/7/7 15/15/15 9/9/9
f 7/7/7 11/11/11 15/15/15
f 13/13/13 9/9/9 15/15/15
f 16/16/16 11/11/11 12/12/12
f 16/16/16 12/12/12 17/17/17
f 13/13/13 18/18/18 14/14/14
f 19/19/19 14/14/14 18/18/18
f 11/11/11 20/20/20 15/15/15
f 11/11/11 16/16/16 20/20/20
f 21/21/21 13/13/13 15/15/15
f 13/13/13 21/21/21 18/18/18
f 21/21/21 15/15/15 20/20/20
f 22/22/22 16/16/16 17/17/17
f 22/22/22 17/17/17 23/23/23
f 24/24/24 19/19/19 18/18/18
f 19/19/19 24/24/24 25/25/25
f 16/16/16 26/26/26 20/20/20
f 16/16/16 22/22/22 26/26/26
f 21/21/21 27/27/27 18/18/18
f 24/24/24 18/18/18 27/27/27
f 28/28/28 21/21/21 20/20/20
f 28/28/28 20/20/20 26/26/26
f 21/21/21 28/28/28 27/27/27
f 29/29/29 22/22/22 23/23/23
f 29/29/29 23/23/23 30/30/30
f 31/31/31 29/29/29 30/30/30
f 24/24/24 32/32/32 25/25/25
f 33/33/33 25/25/25 32/32/32
f 22/22/22 34/34/34 26/26/26
f 22/22/22 29/29/29 34/34/34
f 29/29/29 31/31/31 35/35/35
f 29/29/29 35/35/35 34/34/34
f 31/31/31 36/36/36 35/35/35
f 37/37/37 24/24/24 27/27/27
f 24/24/24 37/37/37 32/32/32
f 38/38/38 33/33/33 32/32/32
f 33/33/33 38/38/38 39/39/39
f 40/40/40 26/26/26 34/34/34
f 40/40/40 28/28/28 26/26/26
f 28/28/28 41/41/41 27/27/27
f 37/37/37 27/27/27 41/41/41
f 28/28/28 40/40/40 41/41/41
f 42/42/42 35/35/35 36/36/36
f 43/43/43 42/42/42 36/36/36
f 44/44/44 34/34/34 35/35/35
f 44/44/44 40/40/40 34/34/34
f 42/42/42 44/44/44 35/35/35
f 37/37/37 45/45/45 32/32/32
f 38/38/38 32/32/32 45/45/45
f 40/40/40 46/46/46 41/41/41
f 40/40/40 44/44/44 46/46/46
f 47/47/47 37/37/37 41/41/41
f 37/37/37 47/47/47 45/45/45
f 47/47/47 41/41/41 46/46/46
f 42/42/42 43/43/43 48/48/48
f 43/43/43 49/49/49 48/48/48
f 44/44/44 42/42/42 50/50/50
f 44/44/44 50/50/50 46/46/46
f 42/42/42 48/48/48 50/50/50
f 51/51/51 47/47/47 46/46/46
f 51/51/51 46/46/46 50/50/50
f 47/47/47 52/52/52 45/45/45
f 47/47/47 51/51/51 52/52/52
f 53/53/53 38/38/38 45/45/45
f 53/53/53 45/45/45 52/52/52
f 54/54/54 48/48/48 49/49/49
f 55/55/55 54/54/54 49/49/49
f 56/56/56 50/50/50 48/48/48
f 56/56/56 51/51/51 50/50/50
f 54/54/54 56/56/56 48/48/48
f 51/51/51 57/57/57 52/52/52
f 51/51/51 56/56/56 57/57/57
f 54/54/54 55/55/55 58/58/58
f 55/55/55 59/59/59 58/58/58
f 56/56/56 54/54/54 60/60/60
f 56/56/56 60/60/60 57/57/57
f 54/54/54 58/58/58 60/60/60
f 61/61/61 52/52/52 57/57/57
f 61/61/61 53/53/53 52/52/52
f 38/38/38 53/53/53 62/62/62
f 38/38/38 62/62/62 39/39/39
f 63/63/63 39/39/39 62/62/62
f 64/64/64 58/58/58 59/59/59
f 65/65/65 64/64/64 59/59/59
f 66/66/66 60/60/60 58/58/58
f 64/64/64 66/66/66 58/58/58
f 67/67/67 57/57/57 60/60/60
f 67/67/67 61/61/61 57/57/57
f 66/66/66 67/67/67 60/60/60
f 53/53/53 68/68/68 62/62/62
f 53/53/53 61/61/61 68/68/68
f 69/69/69 63/63/63 62/62/62
f 69/69/69 62/62/62 68/68/68
f 70/70/70 63/63/63 69/69/69
f 64/64/64 65/65/65 71/71/71
f 65/65/65 72/72/72 71/71/71
f 61/61/61 67/67/67 73/73/73
f 61/61/61 73/73/73 68/68/68
f 66/66/66 64/64/64 74/74/74
f 64/64/64 71/71/71 74/74/74
f 67/67/67 66/66/66 75/75/75
f 67/67/67 75/75/75 73/73/73
f 66/66/66 74/74/74 75/75/75
f 76/76/76 69/69/69 68/68/68
f 76/76/76 68/68/68 73/73/73
f 77/77/77 70/70/70 69/69/69
f 77/77/77 69/69/69 76/76/76
f 78/78/78 70/70/70 77/77/77
f 79/79/79 78/78/78 77/77/77
f 79/79/79 77/77/77 80/80/80
f 80/80/80 77/77/77 76/76/76
f 81/81/81 79/79/79 80/80/80
f 82/82/82 76/76/76 73/73/73
f 82/82/82 73/73/73 75/75/75
f 80/80/80 76/76/76 82/82/82
f 81/81/81 80/80/80 83/83/83
f 83/83/83 80/80/80 82/82/82
f 84/84/84 81/81/81 83/83/83
f 85/85/85 82/82/82 75/75/75
f 83/83/83 82/82/82 85/85/85
f 85/85/85 75/75/75 74/74/74
f 84/84/84 83/83/83 86/86/86
f 86/86/86 83/83/83 85/85/85
f 87/87/87 84/84/84 86/86/86
f 88/88/88 85/85/85 74/74/74
f 86/86/86 85/85/85 88/88/88
f 88/88/88 74/74/74 71/71/71
f 87/87/87 86/86/86 89/89/89
f 89/89/89 86/86/86 88/88/88
f 90/90/90 87/87/87 89/89/89
f 91/91/91 88/88/88 71/71/71
f 89/89/89 88/88/88 91/91/91
f 91/91/91 71/71/71 72/72/72
f 92/92/92 91/91/91 72/72/72
f 90/90/90 89/89/89 93/93/93
f 93/93/93 89/89/89 91/91/91
f 93/93/93 91/91/91 92/92/92
f 94/94/94 90/90/90 93/93/93
f 95/95/95 93/93/93 92/92/92
f 94/94/94 93/93/93 95/95/95
f 96/96/96 94/94/94 95/95/95
