g TigerLev-RedCarpetFoyer1_lightbaked
v -4.499962 7.629395E-05 1.019989
v -4.499962 7.629395E-05 1.699931
v -5 7.629395E-05 1.699931
v -5 7.629395E-05 1.019989
v -4.000076 7.629395E-05 1.019989
v -4.000076 7.629395E-05 1.699931
v -3.500038 7.629395E-05 1.019989
v -3.500038 7.629395E-05 1.699931
v -3 7.629395E-05 1.019989
v -3 7.629395E-05 1.699931
v -2.499962 7.629395E-05 1.019989
v -2.499962 7.629395E-05 1.699931
v -2.000076 7.629395E-05 1.019989
v -2.000076 7.629395E-05 1.699931
v -1.500038 7.629395E-05 1.019989
v -1.500038 7.629395E-05 1.699931
v -1 7.629395E-05 1.019989
v -1 7.629395E-05 1.699931
v -0.4999619 7.629395E-05 1.019989
v -0.4999619 7.629395E-05 1.699931
v -7.629395E-05 7.629395E-05 1.019989
v -7.629395E-05 7.629395E-05 1.699931
v 0.4999619 7.629395E-05 1.019989
v 0.4999619 7.629395E-05 1.699931
v 1 7.629395E-05 1.019989
v 1 7.629395E-05 1.699931
v 1.500038 7.629395E-05 1.019989
v 1.500038 7.629395E-05 1.699931
v 1.999924 7.629395E-05 1.019989
v 1.999924 7.629395E-05 1.699931
v 2.499962 7.629395E-05 1.019989
v 2.499962 7.629395E-05 1.699931
v 3 7.629395E-05 1.019989
v 3 7.629395E-05 1.699931
v 3.500038 7.629395E-05 1.019989
v 3.500038 7.629395E-05 1.699931
v 3.999924 7.629395E-05 1.019989
v 3.999924 7.629395E-05 1.699931
v 4.499962 7.629395E-05 1.019989
v 4.499962 7.629395E-05 1.699931
v 5 7.629395E-05 1.019989
v 5 7.629395E-05 1.699931
v 1.999924 7.629395E-05 0.3400474
v 1.500038 7.629395E-05 0.3400474
v 1.999924 7.629395E-05 -0.3400474
v 1.500038 7.629395E-05 -0.3400474
v 1.999924 7.629395E-05 -1.019989
v 1.500038 7.629395E-05 -1.019989
v 1.999924 7.629395E-05 -1.699931
v 1.500038 7.629395E-05 -1.699931
v 2.499962 7.629395E-05 -1.699931
v 2.499962 7.629395E-05 -1.019989
v 2.499962 7.629395E-05 -0.3400474
v 2.499962 7.629395E-05 0.3400474
v 3 7.629395E-05 -1.699931
v 3 7.629395E-05 -1.019989
v 3 7.629395E-05 -0.3400474
v 3 7.629395E-05 0.3400474
v 1 7.629395E-05 -1.019989
v 1 7.629395E-05 -1.699931
v 0.4999619 7.629395E-05 -1.019989
v 0.4999619 7.629395E-05 -1.699931
v -7.629395E-05 7.629395E-05 -1.019989
v -7.629395E-05 7.629395E-05 -1.699931
v -0.4999619 7.629395E-05 -1.019989
v -0.4999619 7.629395E-05 -1.699931
v -0.4999619 7.629395E-05 -0.3400474
v -7.629395E-05 7.629395E-05 -0.3400474
v -0.4999619 7.629395E-05 0.3400474
v -7.629395E-05 7.629395E-05 0.3400474
v 0.4999619 7.629395E-05 -0.3400474
v 0.4999619 7.629395E-05 0.3400474
v 1 7.629395E-05 -0.3400474
v 1 7.629395E-05 0.3400474
v -1 7.629395E-05 -1.019989
v -1 7.629395E-05 -1.699931
v -1.500038 7.629395E-05 -1.019989
v -1.500038 7.629395E-05 -1.699931
v -2.000076 7.629395E-05 -1.019989
v -2.000076 7.629395E-05 -1.699931
v -2.499962 7.629395E-05 -1.019989
v -2.499962 7.629395E-05 -1.699931
v -2.499962 7.629395E-05 -0.3400474
v -2.000076 7.629395E-05 -0.3400474
v -2.499962 7.629395E-05 0.3400474
v -2.000076 7.629395E-05 0.3400474
v -1.500038 7.629395E-05 -0.3400474
v -1.500038 7.629395E-05 0.3400474
v -1 7.629395E-05 -0.3400474
v -1 7.629395E-05 0.3400474
v -3 7.629395E-05 -1.019989
v -3 7.629395E-05 -1.699931
v -3.500038 7.629395E-05 -1.019989
v -3.500038 7.629395E-05 -1.699931
v -4.000076 7.629395E-05 -1.019989
v -4.000076 7.629395E-05 -1.699931
v -4.499962 7.629395E-05 -1.019989
v -4.499962 7.629395E-05 -1.699931
v -4.499962 7.629395E-05 -0.3400474
v -4.000076 7.629395E-05 -0.3400474
v -4.499962 7.629395E-05 0.3400474
v -4.000076 7.629395E-05 0.3400474
v -3.500038 7.629395E-05 -0.3400474
v -3.500038 7.629395E-05 0.3400474
v -3 7.629395E-05 -0.3400474
v -3 7.629395E-05 0.3400474
v -5 7.629395E-05 0.3400474
v -5 7.629395E-05 -0.3400474
v -5 7.629395E-05 -1.019989
v -5 7.629395E-05 -1.699931
v -4.499962 7.629395E-05 1.699931
v -4.499962 7.629395E-05 2.000076
v -5 7.629395E-05 2.000076
v -5 7.629395E-05 1.699931
v -4.000076 7.629395E-05 1.699931
v -4.000076 7.629395E-05 2.000076
v -3.500038 7.629395E-05 1.699931
v -3.500038 7.629395E-05 2.000076
v -3 7.629395E-05 1.699931
v -3 7.629395E-05 2.000076
v -2.499962 7.629395E-05 1.699931
v -2.499962 7.629395E-05 2.000076
v -2.000076 7.629395E-05 1.699931
v -2.000076 7.629395E-05 2.000076
v -1.500038 7.629395E-05 1.699931
v -1.500038 7.629395E-05 2.000076
v -1 7.629395E-05 1.699931
v -1 7.629395E-05 2.000076
v -0.4999619 7.629395E-05 1.699931
v -0.4999619 7.629395E-05 2.000076
v -7.629395E-05 7.629395E-05 1.699931
v -7.629395E-05 7.629395E-05 2.000076
v 0.4999619 7.629395E-05 1.699931
v 0.4999619 7.629395E-05 2.000076
v 1 7.629395E-05 1.699931
v 1 7.629395E-05 2.000076
v 1.500038 7.629395E-05 1.699931
v 1.500038 7.629395E-05 2.000076
v 1.999924 7.629395E-05 1.699931
v 1.999924 7.629395E-05 2.000076
v 2.499962 7.629395E-05 1.699931
v 2.499962 7.629395E-05 2.000076
v 3 7.629395E-05 1.699931
v 3 7.629395E-05 2.000076
v 3.500038 7.629395E-05 1.699931
v 3.500038 7.629395E-05 2.000076
v 3.999924 7.629395E-05 1.699931
v 3.999924 7.629395E-05 2.000076
v 4.499962 7.629395E-05 1.699931
v 4.499962 7.629395E-05 2.000076
v 5 7.629395E-05 1.699931
v 5 7.629395E-05 2.000076
v -4.499962 7.629395E-05 -1.879988
v -4.499962 7.629395E-05 -1.699931
v -5 7.629395E-05 -1.699931
v -5 7.629395E-05 -1.879988
v -4.499962 7.629395E-05 -1.999924
v -5 7.629395E-05 -1.999924
v -4.000076 7.629395E-05 -1.999924
v -4.000076 7.629395E-05 -1.879988
v -3.500038 7.629395E-05 -1.999924
v -3.500038 7.629395E-05 -1.879988
v -3 7.629395E-05 -1.999924
v -3 7.629395E-05 -1.879988
v -2.499962 7.629395E-05 -1.999924
v -2.499962 7.629395E-05 -1.879988
v -3 7.629395E-05 -1.699931
v -2.499962 7.629395E-05 -1.699931
v -2.000076 7.629395E-05 -1.879988
v -2.000076 7.629395E-05 -1.699931
v -1.500038 7.629395E-05 -1.879988
v -1.500038 7.629395E-05 -1.699931
v -1 7.629395E-05 -1.879988
v -1 7.629395E-05 -1.699931
v -0.4999619 7.629395E-05 -1.879988
v -0.4999619 7.629395E-05 -1.999924
v -1 7.629395E-05 -1.999924
v -0.4999619 7.629395E-05 -1.699931
v -7.629395E-05 7.629395E-05 -1.879988
v -7.629395E-05 7.629395E-05 -1.699931
v 0.4999619 7.629395E-05 -1.879988
v 0.4999619 7.629395E-05 -1.699931
v 1 7.629395E-05 -1.879988
v 1 7.629395E-05 -1.699931
v 1.500038 7.629395E-05 -1.879988
v 1.500038 7.629395E-05 -1.999924
v 1 7.629395E-05 -1.999924
v 1.500038 7.629395E-05 -1.699931
v 1.999924 7.629395E-05 -1.879988
v 1.999924 7.629395E-05 -1.699931
v 2.499962 7.629395E-05 -1.879988
v 2.499962 7.629395E-05 -1.699931
v 3 7.629395E-05 -1.879988
v 3 7.629395E-05 -1.699931
v 3.500038 7.629395E-05 -1.879988
v 3.500038 7.629395E-05 -1.999924
v 3 7.629395E-05 -1.999924
v 3.500038 7.629395E-05 -1.699931
v 3.999924 7.629395E-05 -1.879988
v 3.999924 7.629395E-05 -1.699931
v 4.499962 7.629395E-05 -1.879988
v 4.499962 7.629395E-05 -1.699931
v 5 7.629395E-05 -1.879988
v 5 7.629395E-05 -1.699931
v 5 7.629395E-05 -1.999924
v 4.499962 7.629395E-05 -1.999924
v 3.999924 7.629395E-05 -1.999924
v 2.499962 7.629395E-05 -1.999924
v 1.999924 7.629395E-05 -1.999924
v 0.4999619 7.629395E-05 -1.999924
v -7.629395E-05 7.629395E-05 -1.999924
v -1.500038 7.629395E-05 -1.999924
v -2.000076 7.629395E-05 -1.999924
v -3.500038 7.629395E-05 -1.699931
v -4.000076 7.629395E-05 -1.699931
v 3.999924 7.629395E-05 -1.699931
v 3.999924 7.629395E-05 -1.019989
v 3.500038 7.629395E-05 -1.019989
v 3.500038 7.629395E-05 -1.699931
v 3.500038 7.629395E-05 -0.3400474
v 3.999924 7.629395E-05 -0.3400474
v 3.500038 7.629395E-05 0.3400474
v 3.999924 7.629395E-05 0.3400474
v 4.499962 7.629395E-05 -1.699931
v 4.499962 7.629395E-05 -1.019989
v 4.499962 7.629395E-05 -0.3400474
v 4.499962 7.629395E-05 0.3400474
v 5 7.629395E-05 -1.699931
v 5 7.629395E-05 -1.019989
v 5 7.629395E-05 -0.3400474
v 5 7.629395E-05 0.3400474
vt 1 1
vt 1 1
vt 1 1
vt 1 1
vt 1 1
vt 1 1
vt 1 1
vt 1 1
vt 1 1
vt 1 1
vt 1 1
vt 1 1
vt 1 1
vt 1 1
vt 1 1
vt 1 1
vt 1 1
vt 1 1
vt 1 1
vt 1 1
vt 1 1
vt 1 1
vt 1 1
vt 1 1
vt 1 1
vt 1 1
vt 1 1
vt 1 1
vt 1 1
vt 1 1
vt 1 1
vt 1 1
vt 1 1
vt 1 1
vt 1 1
vt 1 1
vt 1 1
vt 1 1
vt 1 1
vt 1 1
vt 1 1
vt 1 1
vt 1 1
vt 1 1
vt 1 1
vt 1 1
vt 1 1
vt 1 1
vt 1 1
vt 1 1
vt 1 1
vt 1 1
vt 1 1
vt 1 1
vt 1 1
vt 1 1
vt 1 1
vt 1 1
vt 1 1
vt 1 1
vt 1 1
vt 1 1
vt 1 1
vt 1 1
vt 1 1
vt 1 1
vt 1 1
vt 1 1
vt 1 1
vt 1 1
vt 1 1
vt 1 1
vt 1 1
vt 1 1
vt 1 1
vt 1 1
vt 1 1
vt 1 1
vt 1 1
vt 1 1
vt 1 1
vt 1 1
vt 1 1
vt 1 1
vt 1 1
vt 1 1
vt 1 1
vt 1 1
vt 1 1
vt 1 1
vt 1 1
vt 1 1
vt 1 1
vt 1 1
vt 1 1
vt 1 1
vt 1 1
vt 1 1
vt 1 1
vt 1 1
vt 1 1
vt 1 1
vt 1 1
vt 1 1
vt 1 1
vt 1 1
vt 1 1
vt 1 1
vt 1 1
vt 1 1
vt 1 1
vt 0.9843597 0.9843597
vt 0.9843597 0.9843597
vt 1 1
vt 1 1
vt 0.9882698 0.9882698
vt 1 1
vt 0.9921799 0.9921799
vt 1 1
vt 0.9960899 0.9960899
vt 1 1
vt 1 1
vt 1 1
vt 1 1
vt 1 1
vt 1 1
vt 1 1
vt 1 1
vt 1 1
vt 1 1
vt 1 1
vt 1 1
vt 1 1
vt 1 1
vt 1 1
vt 1 1
vt 1 1
vt 1 1
vt 1 1
vt 1 1
vt 1 1
vt 1 1
vt 1 1
vt 1 1
vt 1 1
vt 1 1
vt 1 1
vt 1 1
vt 1 1
vt 1 1
vt 1 1
vt 1 1
vt 1 1
vt 1 1
vt 1 1
vt 1 1
vt 1 1
vt 1 1
vt 1 1
vt 1 1
vt 1 1
vt 1 1
vt 1 1
vt 1 1
vt 1 1
vt 1 1
vt 1 1
vt 1 1
vt 1 1
vt 1 1
vt 1 1
vt 1 1
vt 1 1
vt 1 1
vt 1 1
vt 1 1
vt 1 1
vt 1 1
vt 1 1
vt 1 1
vt 1 1
vt 1 1
vt 1 1
vt 1 1
vt 1 1
vt 1 1
vt 1 1
vt 1 1
vt 1 1
vt 1 1
vt 1 1
vt 1 1
vt 1 1
vt 1 1
vt 1 1
vt 1 1
vt 1 1
vt 1 1
vt 1 1
vt 1 1
vt 1 1
vt 1 1
vt 1 1
vt 1 1
vt 1 1
vt 1 1
vt 1 1
vt 1 1
vt 1 1
vt 1 1
vt 1 1
vt 1 1
vt 1 1
vt 1 1
vt 1 1
vt 1 1
vt 1 1
vt 1 1
vt 1 1
vt 1 1
vt 1 1
vt 1 1
vt 1 1
vt 1 1
vt 1 1
vt 1 1
vt 1 1
vt 1 1
vt 1 1
vt 1 1
vt 1 1
vn 0 1 0
vn 0 1 0
vn 0 1 0
vn 0 1 0
vn 0 1 0
vn 0 1 0
vn 0 1 0
vn 0 1 0
vn 0 1 0
vn 0 1 0
vn 0 1 0
vn 0 1 0
vn 0 1 0
vn 0 1 0
vn 0 1 0
vn 0 1 0
vn 0 1 0
vn 0 1 0
vn 0 1 0
vn 0 1 0
vn 0 1 0
vn 0 1 0
vn 0 1 0
vn 0 1 0
vn 0 1 0
vn 0 1 0
vn 0 1 0
vn 0 1 0
vn 0 1 0
vn 0 1 0
vn 0 1 0
vn 0 1 0
vn 0 1 0
vn 0 1 0
vn 0 1 0
vn 0 1 0
vn 0 1 0
vn 0 1 0
vn 0 1 0
vn 0 1 0
vn 0 1 0
vn 0 1 0
vn 0 1 0
vn 0 1 0
vn 0 1 0
vn 0 1 0
vn 0 1 0
vn 0 1 0
vn 0 1 0
vn 0 1 0
vn 0 1 0
vn 0 1 0
vn 0 1 0
vn 0 1 0
vn 0 1 0
vn 0 1 0
vn 0 1 0
vn 0 1 0
vn 0 1 0
vn 0 1 0
vn 0 1 0
vn 0 1 0
vn 0 1 0
vn 0 1 0
vn 0 1 0
vn 0 1 0
vn 0 1 0
vn 0 1 0
vn 0 1 0
vn 0 1 0
vn 0 1 0
vn 0 1 0
vn 0 1 0
vn 0 1 0
vn 0 1 0
vn 0 1 0
vn 0 1 0
vn 0 1 0
vn 0 1 0
vn 0 1 0
vn 0 1 0
vn 0 1 0
vn 0 1 0
vn 0 1 0
vn 0 1 0
vn 0 1 0
vn 0 1 0
vn 0 1 0
vn 0 1 0
vn 0 1 0
vn 0 1 0
vn 0 1 0
vn 0 1 0
vn 0 1 0
vn 0 1 0
vn 0 1 0
vn 0 1 0
vn 0 1 0
vn 0 1 0
vn 0 1 0
vn 0 1 0
vn 0 1 0
vn 0 1 0
vn 0 1 0
vn 0 1 0
vn 0 1 0
vn 0 1 0
vn 0 1 0
vn 0 1 0
vn 0 1 0
vn 0 1 0
vn 0 1 0
vn 0 1 0
vn 0 1 0
vn 0 1 0
vn 0 1 0
vn 0 1 0
vn 0 1 0
vn 0 1 0
vn 0 1 0
vn 0 1 0
vn 0 1 0
vn 0 1 0
vn 0 1 0
vn 0 1 0
vn 0 1 0
vn 0 1 0
vn 0 1 0
vn 0 1 0
vn 0 1 0
vn 0 1 0
vn 0 1 0
vn 0 1 0
vn 0 1 0
vn 0 1 0
vn 0 1 0
vn 0 1 0
vn 0 1 0
vn 0 1 0
vn 0 1 0
vn 0 1 0
vn 0 1 0
vn 0 1 0
vn 0 1 0
vn 0 1 0
vn 0 1 0
vn 0 1 0
vn 0 1 0
vn 0 1 0
vn 0 1 0
vn 0 1 0
vn 0 1 0
vn 0 1 0
vn 0 1 0
vn 0 1 0
vn 0 1 0
vn 0 1 0
vn 0 1 0
vn 0 1 0
vn 0 1 0
vn 0 1 0
vn 0 1 0
vn 0 1 0
vn 0 1 0
vn 0 1 0
vn 0 1 0
vn 0 1 0
vn 0 1 0
vn 0 1 0
vn 0 1 0
vn 0 1 0
vn 0 1 0
vn 0 1 0
vn 0 1 0
vn 0 1 0
vn 0 1 0
vn 0 1 0
vn 0 1 0
vn 0 1 0
vn 0 1 0
vn 0 1 0
vn 0 1 0
vn 0 1 0
vn 0 1 0
vn 0 1 0
vn 0 1 0
vn 0 1 0
vn 0 1 0
vn 0 1 0
vn 0 1 0
vn 0 1 0
vn 0 1 0
vn 0 1 0
vn 0 1 0
vn 0 1 0
vn 0 1 0
vn 0 1 0
vn 0 1 0
vn 0 1 0
vn 0 1 0
vn 0 1 0
vn 0 1 0
vn 0 1 0
vn 0 1 0
vn 0 1 0
vn 0 1 0
vn 0 1 0
vn 0 1 0
vn 0 1 0
vn 0 1 0
vn 0 1 0
vn 0 1 0
vn 0 1 0
vn 0 1 0
vn 0 1 0
vn 0 1 0
vn 0 1 0
vn 0 1 0
vn 0 1 0
vn 0 1 0
vn 0 1 0
vn 0 1 0
vn 0 1 0
vn 0 1 0
vn 0 1 0
vn 0 1 0
vn 0 1 0
vn 0 1 0
vn 0 1 0
vn 0 1 0
vn 0 1 0
g TigerLev-RedCarpetFoyer1_lightbaked_0
f 3/3/3 2/2/2 1/1/1
f 4/4/4 3/3/3 1/1/1
f 1/1/1 2/2/2 5/5/5
f 2/2/2 6/6/6 5/5/5
f 5/5/5 6/6/6 7/7/7
f 6/6/6 8/8/8 7/7/7
f 7/7/7 8/8/8 9/9/9
f 8/8/8 10/10/10 9/9/9
f 9/9/9 10/10/10 11/11/11
f 10/10/10 12/12/12 11/11/11
f 11/11/11 12/12/12 13/13/13
f 12/12/12 14/14/14 13/13/13
f 13/13/13 14/14/14 15/15/15
f 14/14/14 16/16/16 15/15/15
f 15/15/15 16/16/16 17/17/17
f 16/16/16 18/18/18 17/17/17
f 17/17/17 18/18/18 19/19/19
f 18/18/18 20/20/20 19/19/19
f 19/19/19 20/20/20 21/21/21
f 20/20/20 22/22/22 21/21/21
f 21/21/21 22/22/22 23/23/23
f 22/22/22 24/24/24 23/23/23
f 23/23/23 24/24/24 25/25/25
f 24/24/24 26/26/26 25/25/25
f 25/25/25 26/26/26 27/27/27
f 26/26/26 28/28/28 27/27/27
f 27/27/27 28/28/28 29/29/29
f 28/28/28 30/30/30 29/29/29
f 29/29/29 30/30/30 31/31/31
f 30/30/30 32/32/32 31/31/31
f 31/31/31 32/32/32 33/33/33
f 32/32/32 34/34/34 33/33/33
f 33/33/33 34/34/34 35/35/35
f 34/34/34 36/36/36 35/35/35
f 35/35/35 36/36/36 37/37/37
f 36/36/36 38/38/38 37/37/37
f 37/37/37 38/38/38 39/39/39
f 38/38/38 40/40/40 39/39/39
f 39/39/39 40/40/40 41/41/41
f 40/40/40 42/42/42 41/41/41
f 27/27/27 29/29/29 43/43/43
f 44/44/44 27/27/27 43/43/43
f 44/44/44 43/43/43 45/45/45
f 46/46/46 44/44/44 45/45/45
f 46/46/46 45/45/45 47/47/47
f 48/48/48 46/46/46 47/47/47
f 48/48/48 47/47/47 49/49/49
f 50/50/50 48/48/48 49/49/49
f 49/49/49 47/47/47 51/51/51
f 47/47/47 52/52/52 51/51/51
f 47/47/47 45/45/45 52/52/52
f 45/45/45 53/53/53 52/52/52
f 45/45/45 43/43/43 53/53/53
f 43/43/43 54/54/54 53/53/53
f 43/43/43 29/29/29 54/54/54
f 29/29/29 31/31/31 54/54/54
f 51/51/51 52/52/52 55/55/55
f 52/52/52 56/56/56 55/55/55
f 52/52/52 53/53/53 56/56/56
f 53/53/53 57/57/57 56/56/56
f 53/53/53 54/54/54 57/57/57
f 54/54/54 58/58/58 57/57/57
f 54/54/54 31/31/31 58/58/58
f 31/31/31 33/33/33 58/58/58
f 59/59/59 48/48/48 50/50/50
f 60/60/60 59/59/59 50/50/50
f 61/61/61 59/59/59 60/60/60
f 62/62/62 61/61/61 60/60/60
f 63/63/63 61/61/61 62/62/62
f 64/64/64 63/63/63 62/62/62
f 65/65/65 63/63/63 64/64/64
f 66/66/66 65/65/65 64/64/64
f 65/65/65 67/67/67 63/63/63
f 67/67/67 68/68/68 63/63/63
f 63/63/63 68/68/68 61/61/61
f 67/67/67 69/69/69 68/68/68
f 69/69/69 70/70/70 68/68/68
f 69/69/69 19/19/19 70/70/70
f 19/19/19 21/21/21 70/70/70
f 68/68/68 71/71/71 61/61/61
f 68/68/68 70/70/70 71/71/71
f 61/61/61 71/71/71 59/59/59
f 70/70/70 72/72/72 71/71/71
f 70/70/70 21/21/21 72/72/72
f 21/21/21 23/23/23 72/72/72
f 71/71/71 72/72/72 73/73/73
f 71/71/71 73/73/73 59/59/59
f 72/72/72 74/74/74 73/73/73
f 72/72/72 23/23/23 74/74/74
f 23/23/23 25/25/25 74/74/74
f 75/75/75 65/65/65 66/66/66
f 76/76/76 75/75/75 66/66/66
f 77/77/77 75/75/75 76/76/76
f 78/78/78 77/77/77 76/76/76
f 79/79/79 77/77/77 78/78/78
f 80/80/80 79/79/79 78/78/78
f 81/81/81 79/79/79 80/80/80
f 82/82/82 81/81/81 80/80/80
f 81/81/81 83/83/83 79/79/79
f 83/83/83 84/84/84 79/79/79
f 79/79/79 84/84/84 77/77/77
f 83/83/83 85/85/85 84/84/84
f 85/85/85 86/86/86 84/84/84
f 85/85/85 11/11/11 86/86/86
f 11/11/11 13/13/13 86/86/86
f 84/84/84 87/87/87 77/77/77
f 84/84/84 86/86/86 87/87/87
f 77/77/77 87/87/87 75/75/75
f 86/86/86 88/88/88 87/87/87
f 86/86/86 13/13/13 88/88/88
f 13/13/13 15/15/15 88/88/88
f 87/87/87 88/88/88 89/89/89
f 87/87/87 89/89/89 75/75/75
f 88/88/88 90/90/90 89/89/89
f 88/88/88 15/15/15 90/90/90
f 15/15/15 17/17/17 90/90/90
f 91/91/91 81/81/81 82/82/82
f 92/92/92 91/91/91 82/82/82
f 93/93/93 91/91/91 92/92/92
f 94/94/94 93/93/93 92/92/92
f 95/95/95 93/93/93 94/94/94
f 96/96/96 95/95/95 94/94/94
f 97/97/97 95/95/95 96/96/96
f 98/98/98 97/97/97 96/96/96
f 97/97/97 99/99/99 95/95/95
f 99/99/99 100/100/100 95/95/95
f 95/95/95 100/100/100 93/93/93
f 99/99/99 101/101/101 100/100/100
f 101/101/101 102/102/102 100/100/100
f 101/101/101 1/1/1 102/102/102
f 1/1/1 5/5/5 102/102/102
f 100/100/100 103/103/103 93/93/93
f 100/100/100 102/102/102 103/103/103
f 93/93/93 103/103/103 91/91/91
f 102/102/102 104/104/104 103/103/103
f 102/102/102 5/5/5 104/104/104
f 5/5/5 7/7/7 104/104/104
f 103/103/103 104/104/104 105/105/105
f 103/103/103 105/105/105 91/91/91
f 104/104/104 106/106/106 105/105/105
f 104/104/104 7/7/7 106/106/106
f 7/7/7 9/9/9 106/106/106
f 91/91/91 105/105/105 81/81/81
f 105/105/105 83/83/83 81/81/81
f 105/105/105 106/106/106 83/83/83
f 106/106/106 85/85/85 83/83/83
f 106/106/106 9/9/9 85/85/85
f 9/9/9 11/11/11 85/85/85
f 4/4/4 1/1/1 101/101/101
f 107/107/107 4/4/4 101/101/101
f 107/107/107 101/101/101 99/99/99
f 108/108/108 107/107/107 99/99/99
f 108/108/108 99/99/99 97/97/97
f 109/109/109 108/108/108 97/97/97
f 109/109/109 97/97/97 98/98/98
f 110/110/110 109/109/109 98/98/98
f 113/113/113 112/112/112 111/111/111
f 114/114/114 113/113/113 111/111/111
f 111/111/111 112/112/112 115/115/115
f 112/112/112 116/116/116 115/115/115
f 115/115/115 116/116/116 117/117/117
f 116/116/116 118/118/118 117/117/117
f 117/117/117 118/118/118 119/119/119
f 118/118/118 120/120/120 119/119/119
f 119/119/119 120/120/120 121/121/121
f 120/120/120 122/122/122 121/121/121
f 121/121/121 122/122/122 123/123/123
f 122/122/122 124/124/124 123/123/123
f 123/123/123 124/124/124 125/125/125
f 124/124/124 126/126/126 125/125/125
f 125/125/125 126/126/126 127/127/127
f 126/126/126 128/128/128 127/127/127
f 127/127/127 128/128/128 129/129/129
f 128/128/128 130/130/130 129/129/129
f 129/129/129 130/130/130 131/131/131
f 130/130/130 132/132/132 131/131/131
f 131/131/131 132/132/132 133/133/133
f 132/132/132 134/134/134 133/133/133
f 133/133/133 134/134/134 135/135/135
f 134/134/134 136/136/136 135/135/135
f 135/135/135 136/136/136 137/137/137
f 136/136/136 138/138/138 137/137/137
f 137/137/137 138/138/138 139/139/139
f 138/138/138 140/140/140 139/139/139
f 139/139/139 140/140/140 141/141/141
f 140/140/140 142/142/142 141/141/141
f 141/141/141 142/142/142 143/143/143
f 142/142/142 144/144/144 143/143/143
f 143/143/143 144/144/144 145/145/145
f 144/144/144 146/146/146 145/145/145
f 145/145/145 146/146/146 147/147/147
f 146/146/146 148/148/148 147/147/147
f 147/147/147 148/148/148 149/149/149
f 148/148/148 150/150/150 149/149/149
f 149/149/149 150/150/150 151/151/151
f 150/150/150 152/152/152 151/151/151
f 155/155/155 154/154/154 153/153/153
f 156/156/156 155/155/155 153/153/153
f 156/156/156 153/153/153 157/157/157
f 158/158/158 156/156/156 157/157/157
f 157/157/157 153/153/153 159/159/159
f 153/153/153 160/160/160 159/159/159
f 153/153/153 154/154/154 160/160/160
f 159/159/159 160/160/160 161/161/161
f 160/160/160 162/162/162 161/161/161
f 161/161/161 162/162/162 163/163/163
f 162/162/162 164/164/164 163/163/163
f 163/163/163 164/164/164 165/165/165
f 164/164/164 166/166/166 165/165/165
f 164/164/164 167/167/167 166/166/166
f 167/167/167 168/168/168 166/166/166
f 166/166/166 168/168/168 169/169/169
f 168/168/168 170/170/170 169/169/169
f 169/169/169 170/170/170 171/171/171
f 170/170/170 172/172/172 171/171/171
f 171/171/171 172/172/172 173/173/173
f 172/172/172 174/174/174 173/173/173
f 173/173/173 174/174/174 175/175/175
f 173/173/173 175/175/175 176/176/176
f 177/177/177 173/173/173 176/176/176
f 171/171/171 173/173/173 177/177/177
f 174/174/174 178/178/178 175/175/175
f 175/175/175 178/178/178 179/179/179
f 178/178/178 180/180/180 179/179/179
f 179/179/179 180/180/180 181/181/181
f 180/180/180 182/182/182 181/181/181
f 181/181/181 182/182/182 183/183/183
f 182/182/182 184/184/184 183/183/183
f 183/183/183 184/184/184 185/185/185
f 183/183/183 185/185/185 186/186/186
f 187/187/187 183/183/183 186/186/186
f 181/181/181 183/183/183 187/187/187
f 184/184/184 188/188/188 185/185/185
f 185/185/185 188/188/188 189/189/189
f 188/188/188 190/190/190 189/189/189
f 189/189/189 190/190/190 191/191/191
f 190/190/190 192/192/192 191/191/191
f 191/191/191 192/192/192 193/193/193
f 192/192/192 194/194/194 193/193/193
f 193/193/193 194/194/194 195/195/195
f 193/193/193 195/195/195 196/196/196
f 197/197/197 193/193/193 196/196/196
f 191/191/191 193/193/193 197/197/197
f 194/194/194 198/198/198 195/195/195
f 195/195/195 198/198/198 199/199/199
f 198/198/198 200/200/200 199/199/199
f 199/199/199 200/200/200 201/201/201
f 200/200/200 202/202/202 201/201/201
f 201/201/201 202/202/202 203/203/203
f 202/202/202 204/204/204 203/203/203
f 201/201/201 203/203/203 205/205/205
f 206/206/206 201/201/201 205/205/205
f 199/199/199 201/201/201 206/206/206
f 207/207/207 199/199/199 206/206/206
f 195/195/195 199/199/199 207/207/207
f 196/196/196 195/195/195 207/207/207
f 208/208/208 191/191/191 197/197/197
f 189/189/189 191/191/191 208/208/208
f 209/209/209 189/189/189 208/208/208
f 185/185/185 189/189/189 209/209/209
f 186/186/186 185/185/185 209/209/209
f 210/210/210 181/181/181 187/187/187
f 179/179/179 181/181/181 210/210/210
f 211/211/211 179/179/179 210/210/210
f 175/175/175 179/179/179 211/211/211
f 176/176/176 175/175/175 211/211/211
f 212/212/212 171/171/171 177/177/177
f 169/169/169 171/171/171 212/212/212
f 213/213/213 169/169/169 212/212/212
f 166/166/166 169/169/169 213/213/213
f 165/165/165 166/166/166 213/213/213
f 214/214/214 167/167/167 164/164/164
f 162/162/162 214/214/214 164/164/164
f 215/215/215 214/214/214 162/162/162
f 160/160/160 215/215/215 162/162/162
f 154/154/154 215/215/215 160/160/160
f 218/218/218 217/217/217 216/216/216
f 219/219/219 218/218/218 216/216/216
f 218/218/218 220/220/220 217/217/217
f 220/220/220 221/221/221 217/217/217
f 220/220/220 222/222/222 221/221/221
f 222/222/222 223/223/223 221/221/221
f 222/222/222 35/35/35 223/223/223
f 35/35/35 37/37/37 223/223/223
f 216/216/216 217/217/217 224/224/224
f 217/217/217 225/225/225 224/224/224
f 217/217/217 221/221/221 225/225/225
f 221/221/221 226/226/226 225/225/225
f 221/221/221 223/223/223 226/226/226
f 223/223/223 227/227/227 226/226/226
f 223/223/223 37/37/37 227/227/227
f 37/37/37 39/39/39 227/227/227
f 224/224/224 225/225/225 228/228/228
f 225/225/225 229/229/229 228/228/228
f 225/225/225 226/226/226 229/229/229
f 226/226/226 230/230/230 229/229/229
f 226/226/226 227/227/227 230/230/230
f 227/227/227 231/231/231 230/230/230
f 227/227/227 39/39/39 231/231/231
f 39/39/39 41/41/41 231/231/231
f 58/58/58 222/222/222 220/220/220
f 33/33/33 35/35/35 222/222/222
f 58/58/58 33/33/33 222/222/222
f 57/57/57 58/58/58 220/220/220
f 57/57/57 220/220/220 218/218/218
f 56/56/56 57/57/57 218/218/218
f 56/56/56 218/218/218 219/219/219
f 55/55/55 56/56/56 219/219/219
f 89/89/89 67/67/67 65/65/65
f 75/75/75 89/89/89 65/65/65
f 89/89/89 90/90/90 67/67/67
f 90/90/90 69/69/69 67/67/67
f 90/90/90 17/17/17 69/69/69
f 17/17/17 19/19/19 69/69/69
f 73/73/73 46/46/46 48/48/48
f 59/59/59 73/73/73 48/48/48
f 73/73/73 74/74/74 46/46/46
f 74/74/74 44/44/44 46/46/46
f 74/74/74 25/25/25 44/44/44
f 25/25/25 27/27/27 44/44/44
