g topSectionWalls
v -8.000876 -0.4999332 -0.2499733
v -8.000876 -1.382828E-05 0.2499456
v -8.000876 -0.4999332 0.2499456
v -8.000876 -1.382828E-05 -0.2499733
v -8.000876 0.8250513 -0.2499733
v -8.000876 0.8250513 0.2499456
v -8.000876 1.649918 -0.2499733
v -8.000876 1.649918 0.2499456
v 0.5013218 1.649918 0.2499456
v -8.000876 1.649918 0.2499456
v -8.000876 1.649918 -0.2499733
v 0.5013218 1.649918 -0.2499733
v 0.5013218 -1.382828E-05 0.2499456
v 0.5013218 -0.4999332 0.2499456
v -8.000876 -0.4999332 0.2499456
v -8.000876 -1.382828E-05 0.2499456
v -8.000876 0.8250513 0.2499456
v 0.5013218 0.8250513 0.2499456
v 0.5013218 1.649918 0.2499456
v -8.000876 1.649918 0.2499456
v -8.000876 1.649918 -0.2499733
v 0.5013218 0.8250513 -0.2499733
v 0.5013218 1.649918 -0.2499733
v -8.000876 0.8250513 -0.2499733
v 0.5013218 -1.382828E-05 -0.2499733
v -8.000876 -1.382828E-05 -0.2499733
v 0.5013218 -0.4999332 -0.2499733
v -8.000876 -0.4999332 -0.2499733
v 0.5013218 0.8250513 0.2499456
v 0.5013218 1.649918 0.2499456
v 0.5013218 1.649918 -0.2499733
v 0.5013218 0.8250513 -0.2499733
v 0.5013218 -1.382828E-05 0.2499456
v 0.5013218 -1.382828E-05 -0.2499733
v 0.5013218 -0.4999332 0.2499456
v 0.5013218 -1.382828E-05 0.2499456
v 0.5013218 -1.382828E-05 -0.2499733
v 0.5013218 -0.4999332 -0.2499733
v -8.000876 -0.4999332 -5
v -8.000876 -1.382828E-05 -4.500081
v -8.000876 -0.4999332 -4.500081
v -8.000876 -1.382828E-05 -5
v -8.000876 0.8250513 -5
v -8.000876 0.8250513 -4.500081
v -8.000876 1.649918 -5
v -8.000876 1.649918 -4.500081
v 0.5013218 1.649918 -4.500081
v -8.000876 1.649918 -4.500081
v -8.000876 1.649918 -5
v 0.5013218 1.649918 -5
v 0.5013218 -1.382828E-05 -4.500081
v 0.5013218 -0.4999332 -4.500081
v -8.000876 -0.4999332 -4.500081
v -8.000876 -1.382828E-05 -4.500081
v -8.000876 0.8250513 -4.500081
v 0.5013218 0.8250513 -4.500081
v 0.5013218 1.649918 -4.500081
v -8.000876 1.649918 -4.500081
v -8.000876 1.649918 -5
v 0.5013218 0.8250513 -5
v 0.5013218 1.649918 -5
v -8.000876 0.8250513 -5
v 0.5013218 -1.382828E-05 -5
v -8.000876 -1.382828E-05 -5
v 0.5013218 -0.4999332 -5
v -8.000876 -0.4999332 -5
v 0.5013218 0.8250513 -4.500081
v 0.5013218 1.649918 -4.500081
v 0.5013218 1.649918 -5
v 0.5013218 0.8250513 -5
v 0.5013218 -1.382828E-05 -4.500081
v 0.5013218 -1.382828E-05 -5
v 0.5013218 -0.4999332 -4.500081
v 0.5013218 -0.4999332 -5
v -7.499966 1.649918 -4.504048
v -7.499966 0.8250513 -0.2471962
v -7.499966 1.649918 -0.2471962
v -7.499966 0.8250513 -4.504048
v -7.499966 -1.382828E-05 -0.2471962
v -7.499966 -1.382828E-05 -4.504048
v -7.499966 -0.4999332 -0.2471962
v -7.499966 -0.4999332 -4.504048
v -8.000083 1.649918 -0.2471962
v -8.000083 1.649918 -4.504048
v -7.499966 1.649918 -4.504048
v -7.499966 1.649918 -0.2471962
v -8.000083 -1.382828E-05 -0.2471962
v -8.000083 -0.4999332 -0.2471962
v -8.000083 -0.4999332 -4.504048
v -8.000083 -1.382828E-05 -4.504048
v -8.000083 0.8250513 -4.504048
v -8.000083 0.8250513 -0.2471962
v -8.000083 1.649918 -0.2471962
v -8.000083 1.649918 -4.504048
vt 0.501233 -0.06074458
vt 0.501233 0.001043558
vt 0.501233 -0.06074458
vt 0.501233 0.001043558
vt 0.501233 0.101817
vt 0.501233 0.1010814
vt 0.501233 0.2018549
vt 0.501233 0.2018549
vt -0.505766 0.2018549
vt 0.501233 0.2018549
vt 0.501233 0.2018549
vt -0.505766 0.2018549
vt -0.505766 0.001043558
vt -0.505766 -0.06074458
vt 0.501233 -0.06074458
vt 0.501233 0.001043558
vt 0.501233 0.1010814
vt -0.505766 0.1010814
vt -0.505766 0.2018549
vt 0.501233 0.2018549
vt 0.501233 0.2018549
vt -0.505766 0.101817
vt -0.505766 0.2018549
vt 0.501233 0.101817
vt -0.505766 0.001043558
vt 0.501233 0.001043558
vt -0.505766 -0.06074458
vt 0.501233 -0.06074458
vt -0.505766 0.1010814
vt -0.505766 0.2018549
vt -0.505766 0.2018549
vt -0.505766 0.101817
vt -0.505766 0.001043558
vt -0.505766 0.001043558
vt -0.505766 -0.06074458
vt -0.505766 0.001043558
vt -0.505766 0.001043558
vt -0.505766 -0.06074458
vt 0.9999512 -0.06074458
vt 0.9999512 0.001043558
vt 0.9999512 -0.06074458
vt 0.9999512 0.001043558
vt 0.9999512 0.101817
vt 0.9999512 0.1010814
vt 0.9999512 0.2018549
vt 0.9999512 0.2018549
vt -0.007047772 0.2018549
vt 0.9999512 0.2018549
vt 0.9999512 0.2018549
vt -0.007047772 0.2018549
vt -0.007047772 0.001043558
vt -0.007047772 -0.06074458
vt 0.9999512 -0.06074458
vt 0.9999512 0.001043558
vt 0.9999512 0.1010814
vt -0.007047772 0.1010814
vt -0.007047772 0.2018549
vt 0.9999512 0.2018549
vt 0.9999512 0.2018549
vt -0.007047772 0.101817
vt -0.007047772 0.2018549
vt 0.9999512 0.101817
vt -0.007047772 0.001043558
vt 0.9999512 0.001043558
vt -0.007047772 -0.06074458
vt 0.9999512 -0.06074458
vt -0.007047772 0.1010814
vt -0.007047772 0.2018549
vt -0.007047772 0.2018549
vt -0.007047772 0.101817
vt -0.007047772 0.001043558
vt -0.007047772 0.001043558
vt -0.007047772 -0.06074458
vt -0.007047772 -0.06074458
vt 0.9352208 0.2018549
vt 0.430618 0.101817
vt 0.430618 0.2018549
vt 0.9352208 0.101817
vt 0.430618 0.001043558
vt 0.9352208 0.001043558
vt 0.430618 -0.06074458
vt 0.9352208 -0.06074458
vt 0.430618 0.2018549
vt 0.9352208 0.2018549
vt 0.9352208 0.2018549
vt 0.430618 0.2018549
vt 0.430618 0.001043558
vt 0.430618 -0.06074458
vt 0.9352208 -0.06074458
vt 0.9352208 0.001043558
vt 0.9352208 0.1010814
vt 0.430618 0.1010814
vt 0.430618 0.2018549
vt 0.9352208 0.2018549
vn -0.9999923 0.003921509 -0.0003449296
vn -0.9999923 0.003921509 -0.0003449296
vn -0.9999923 0.003921509 -0.0003449296
vn -0.9999923 0.003921509 -0.0003449296
vn -0.9999923 0.003921509 -0.0003449296
vn -0.9999923 0.003921509 -0.0003449296
vn -0.9999923 0.003921509 -0.0003449296
vn -0.9999923 0.003921509 -0.0003449296
vn -0.003921509 0.9999923 -0.000345267
vn -0.003921509 0.9999923 -0.000345267
vn -0.003921509 0.9999923 -0.000345267
vn -0.003921509 0.9999923 -0.000345267
vn -0.003921509 0.003921509 0.9999846
vn -0.003921509 0.003921509 0.9999846
vn -0.003921509 0.003921509 0.9999846
vn -0.003921509 0.003921509 0.9999846
vn -0.003921509 0.003921509 0.9999846
vn -0.003921509 0.003921509 0.9999846
vn -0.003921509 0.003921509 0.9999846
vn -0.003921509 0.003921509 0.9999846
vn -0.003921509 0.003921509 -0.9999846
vn -0.003921509 0.003921509 -0.9999846
vn -0.003921509 0.003921509 -0.9999846
vn -0.003921509 0.003921509 -0.9999846
vn -0.003921509 0.003921509 -0.9999846
vn -0.003921509 0.003921509 -0.9999846
vn -0.003921509 0.003921509 -0.9999846
vn -0.003921509 0.003921509 -0.9999846
vn 0.9999924 0.003921509 0
vn 0.9999924 0.003921509 0
vn 0.9999924 0.003921509 0
vn 0.9999924 0.003921509 0
vn 0.9999924 0.003921509 0
vn 0.9999924 0.003921509 0
vn 0.9999924 0.003921509 0
vn 0.9999924 0.003921509 0
vn 0.9999924 0.003921509 0
vn 0.9999924 0.003921509 0
vn -0.9999923 0.003921509 -0.0003449296
vn -0.9999923 0.003921509 -0.0003449296
vn -0.9999923 0.003921509 -0.0003449296
vn -0.9999923 0.003921509 -0.0003449296
vn -0.9999923 0.003921509 -0.0003449296
vn -0.9999923 0.003921509 -0.0003449296
vn -0.9999923 0.003921509 -0.0003449296
vn -0.9999923 0.003921509 -0.0003449296
vn -0.003921509 0.9999923 -0.000345267
vn -0.003921509 0.9999923 -0.000345267
vn -0.003921509 0.9999923 -0.000345267
vn -0.003921509 0.9999923 -0.000345267
vn -0.003921509 0.003921509 0.9999846
vn -0.003921509 0.003921509 0.9999846
vn -0.003921509 0.003921509 0.9999846
vn -0.003921509 0.003921509 0.9999846
vn -0.003921509 0.003921509 0.9999846
vn -0.003921509 0.003921509 0.9999846
vn -0.003921509 0.003921509 0.9999846
vn -0.003921509 0.003921509 0.9999846
vn -0.003921509 0.003921509 -0.9999846
vn -0.003921509 0.003921509 -0.9999846
vn -0.003921509 0.003921509 -0.9999846
vn -0.003921509 0.003921509 -0.9999846
vn -0.003921509 0.003921509 -0.9999846
vn -0.003921509 0.003921509 -0.9999846
vn -0.003921509 0.003921509 -0.9999846
vn -0.003921509 0.003921509 -0.9999846
vn 0.9999924 0.003921509 0
vn 0.9999924 0.003921509 0
vn 0.9999924 0.003921509 0
vn 0.9999924 0.003921509 0
vn 0.9999924 0.003921509 0
vn 0.9999924 0.003921509 0
vn 0.9999924 0.003921509 0
vn 0.9999924 0.003921509 0
vn 0.9999924 0.003921509 0
vn 0.9999924 0.003921509 0
vn 0.9999924 0.003921509 0
vn 0.9999924 0.003921509 0
vn 0.9999924 0.003921509 0
vn 0.9999924 0.003921509 0
vn 0.9999924 0.003921509 0
vn 0.9999924 0.003921509 0
vn -0.003921509 0.9999923 -0.000345267
vn -0.003921509 0.9999923 -0.000345267
vn -0.003921509 0.9999923 -0.000345267
vn -0.003921509 0.9999923 -0.000345267
vn -0.9999923 0.003921509 -0.0003449296
vn -0.9999923 0.003921509 -0.0003449296
vn -0.9999923 0.003921509 -0.0003449296
vn -0.9999923 0.003921509 -0.0003449296
vn -0.9999923 0.003921509 -0.0003449296
vn -0.9999923 0.003921509 -0.0003449296
vn -0.9999923 0.003921509 -0.0003449296
vn -0.9999923 0.003921509 -0.0003449296
g topSectionWalls_0
f 3/3/3 2/2/2 1/1/1
f 2/2/2 4/4/4 1/1/1
f 5/5/5 4/4/4 2/2/2
f 6/6/6 5/5/5 2/2/2
f 7/7/7 5/5/5 6/6/6
f 8/8/8 7/7/7 6/6/6
f 11/11/11 10/10/10 9/9/9
f 12/12/12 11/11/11 9/9/9
f 15/15/15 14/14/14 13/13/13
f 16/16/16 15/15/15 13/13/13
f 17/17/17 16/16/16 13/13/13
f 18/18/18 17/17/17 13/13/13
f 17/17/17 18/18/18 19/19/19
f 20/20/20 17/17/17 19/19/19
f 23/23/23 22/22/22 21/21/21
f 22/22/22 24/24/24 21/21/21
f 22/22/22 25/25/25 24/24/24
f 25/25/25 26/26/26 24/24/24
f 25/25/25 27/27/27 26/26/26
f 27/27/27 28/28/28 26/26/26
f 31/31/31 30/30/30 29/29/29
f 32/32/32 31/31/31 29/29/29
f 32/32/32 29/29/29 33/33/33
f 34/34/34 32/32/32 33/33/33
f 37/37/37 36/36/36 35/35/35
f 38/38/38 37/37/37 35/35/35
f 41/41/41 40/40/40 39/39/39
f 40/40/40 42/42/42 39/39/39
f 43/43/43 42/42/42 40/40/40
f 44/44/44 43/43/43 40/40/40
f 45/45/45 43/43/43 44/44/44
f 46/46/46 45/45/45 44/44/44
f 49/49/49 48/48/48 47/47/47
f 50/50/50 49/49/49 47/47/47
f 53/53/53 52/52/52 51/51/51
f 54/54/54 53/53/53 51/51/51
f 55/55/55 54/54/54 51/51/51
f 56/56/56 55/55/55 51/51/51
f 55/55/55 56/56/56 57/57/57
f 58/58/58 55/55/55 57/57/57
f 61/61/61 60/60/60 59/59/59
f 60/60/60 62/62/62 59/59/59
f 60/60/60 63/63/63 62/62/62
f 63/63/63 64/64/64 62/62/62
f 63/63/63 65/65/65 64/64/64
f 65/65/65 66/66/66 64/64/64
f 69/69/69 68/68/68 67/67/67
f 70/70/70 69/69/69 67/67/67
f 70/70/70 67/67/67 71/71/71
f 72/72/72 70/70/70 71/71/71
f 72/72/72 71/71/71 73/73/73
f 74/74/74 72/72/72 73/73/73
f 77/77/77 76/76/76 75/75/75
f 76/76/76 78/78/78 75/75/75
f 76/76/76 79/79/79 78/78/78
f 79/79/79 80/80/80 78/78/78
f 79/79/79 81/81/81 80/80/80
f 81/81/81 82/82/82 80/80/80
f 85/85/85 84/84/84 83/83/83
f 86/86/86 85/85/85 83/83/83
f 89/89/89 88/88/88 87/87/87
f 90/90/90 89/89/89 87/87/87
f 91/91/91 90/90/90 87/87/87
f 92/92/92 91/91/91 87/87/87
f 91/91/91 92/92/92 93/93/93
f 94/94/94 91/91/91 93/93/93
